<svg xmlns="http://www.w3.org/2000/svg" xmlns:xlink="http://www.w3.org/1999/xlink" width="102.949" height="102.949" viewBox="0 0 102.949 102.949">
  <defs>
    <filter id="Trazado_874925" x="0" y="0" width="102.949" height="102.949" filterUnits="userSpaceOnUse">
      <feOffset dy="3" input="SourceAlpha"/>
      <feGaussianBlur stdDeviation="3" result="blur"/>
      <feFlood flood-opacity="0.161"/>
      <feComposite operator="in" in2="blur"/>
      <feComposite in="SourceGraphic"/>
    </filter>
  </defs>
  <g id="Grupo_1182238" data-name="Grupo 1182238" transform="translate(-1221.755 -11316)">
    <g id="Grupo_1182237" data-name="Grupo 1182237">
      <g id="Grupo_1181920" data-name="Grupo 1181920" transform="translate(422.255 8804.843)">
        <g id="Grupo_1111316" data-name="Grupo 1111316" transform="translate(808.5 2517.157)">
          <g id="Grupo_1109835" data-name="Grupo 1109835" transform="translate(0 0)">
            <g id="Grupo_1107913" data-name="Grupo 1107913" transform="translate(0 0)">
              <g transform="matrix(1, 0, 0, 1, -9, -6)" filter="url(#Trazado_874925)">
                <g id="Trazado_874925-2" data-name="Trazado 874925" transform="translate(9 6)" fill="#4c6929" opacity="0.859">
                  <path d="M 42.47446823120117 83.44929504394531 C 36.94229125976562 83.44929504394531 31.57638549804688 82.36614227294922 26.52582168579102 80.22994232177734 C 21.64678573608398 78.16628265380859 17.26464462280273 75.211669921875 13.50113868713379 71.44816589355469 C 9.737632751464844 67.68466949462891 6.78300952911377 63.30253982543945 4.719362258911133 58.42351913452148 C 2.583150625228882 53.37295150756836 1.499997615814209 48.00706100463867 1.499997615814209 42.47489547729492 C 1.499997615814209 36.94223403930664 2.583150625228882 31.57634162902832 4.719362258911133 26.52577781677246 C 6.78300952911377 21.64675331115723 9.737632751464844 17.26462364196777 13.50113868713379 13.50113010406494 C 17.26464462280273 9.737624168395996 21.64678573608398 6.783012390136719 26.52582168579102 4.719353199005127 C 31.57638549804688 2.583153486251831 36.94229125976562 1.500000476837158 42.47446823120117 1.500000476837158 C 48.00664520263672 1.500000476837158 53.37255096435547 2.583153486251831 58.42311477661133 4.719353199005127 C 63.30215072631836 6.783012390136719 67.68428802490234 9.737624168395996 71.44779968261719 13.50113010406494 C 75.2113037109375 17.26462364196777 78.16592407226562 21.64675331115723 80.22957611083984 26.52577781677246 C 82.36578369140625 31.57634162902832 83.44893646240234 36.94223403930664 83.44893646240234 42.47439956665039 C 83.44893646240234 48.00706100463867 82.36578369140625 53.37295150756836 80.22957611083984 58.42351913452148 C 78.16592407226562 63.30253982543945 75.2113037109375 67.68466949462891 71.44779968261719 71.44816589355469 C 67.68428802490234 75.211669921875 63.30215072631836 78.16628265380859 58.42311477661133 80.22994232177734 C 53.37255096435547 82.36614227294922 48.00664520263672 83.44929504394531 42.47446823120117 83.44929504394531 Z" stroke="none"/>
                  <path d="M 42.47446823120117 2.999992370605469 C 37.14412307739258 2.999992370605469 31.97481536865234 4.04327392578125 27.11014938354492 6.100860595703125 C 22.40990829467773 8.088890075683594 18.18804168701172 10.93555450439453 14.56179809570312 14.56178283691406 C 10.93557739257812 18.18801116943359 8.088897705078125 22.40987396240234 6.100868225097656 27.11009979248047 C 4.043281555175781 31.97476577758789 3 37.14406204223633 3 42.47488784790039 C 3 47.80522155761719 4.043281555175781 52.97451400756836 6.100868225097656 57.83917999267578 C 8.088897705078125 62.53940582275391 10.93557739257812 66.76127624511719 14.56179809570312 70.38749694824219 C 18.18804168701172 74.01372528076172 22.40990829467773 76.86039733886719 27.11014938354492 78.84841918945312 C 31.97481536865234 80.906005859375 37.14412307739258 81.94928741455078 42.47446823120117 81.94928741455078 C 47.80481338500977 81.94928741455078 52.97412109375 80.906005859375 57.83879089355469 78.84841918945312 C 62.53902816772461 76.86039733886719 66.76089477539062 74.01372528076172 70.38713073730469 70.38749694824219 C 74.01335906982422 66.76127624511719 76.86003875732422 62.53940582275391 78.84806823730469 57.83917999267578 C 80.90565490722656 52.97451400756836 81.94893646240234 47.80522155761719 81.94893646240234 42.47439575195312 C 81.94893646240234 37.14406204223633 80.90565490722656 31.97476577758789 78.84806823730469 27.11009979248047 C 76.86003875732422 22.40987396240234 74.01335906982422 18.18801116943359 70.38713073730469 14.56178283691406 C 66.76089477539062 10.93555450439453 62.53902816772461 8.088890075683594 57.83879089355469 6.100860595703125 C 52.97412109375 4.04327392578125 47.80481338500977 2.999992370605469 42.47446823120117 2.999992370605469 M 42.47446823120117 -7.62939453125e-06 C 65.93246459960938 -7.62939453125e-06 84.94893646240234 19.01643371582031 84.94893646240234 42.47439575195312 L 84.94893646240234 42.47488784790039 C 84.94893646240234 65.93284606933594 65.93246459960938 84.94928741455078 42.47446823120117 84.94928741455078 C 19.01647186279297 84.94928741455078 0 65.93284606933594 0 42.47488784790039 L 0 42.47439575195312 C 0 19.01643371582031 19.01647186279297 -7.62939453125e-06 42.47446823120117 -7.62939453125e-06 Z" stroke="none" fill="#fff"/>
                </g>
              </g>
              <g id="Trazado_874923" data-name="Trazado 874923" transform="translate(0 0)" fill="none">
                <path d="M42.474,0A42.474,42.474,0,0,1,84.949,42.474h0A42.474,42.474,0,0,1,0,42.475H0A42.474,42.474,0,0,1,42.474,0Z" stroke="none"/>
                <path d="M 42.47446823120117 2.999992370605469 C 37.14412307739258 2.999992370605469 31.97481536865234 4.04327392578125 27.11014938354492 6.100860595703125 C 22.40990829467773 8.088890075683594 18.18804168701172 10.93555450439453 14.56179809570312 14.56178283691406 C 10.93557739257812 18.18801116943359 8.088897705078125 22.40987396240234 6.100868225097656 27.11009979248047 C 4.043281555175781 31.97476577758789 3 37.14406204223633 3 42.47488784790039 C 3 47.80522155761719 4.043281555175781 52.97451400756836 6.100868225097656 57.83917999267578 C 8.088897705078125 62.53940582275391 10.93557739257812 66.76127624511719 14.56179809570312 70.38749694824219 C 18.18804168701172 74.01372528076172 22.40990829467773 76.86039733886719 27.11014938354492 78.84841918945312 C 31.97481536865234 80.906005859375 37.14412307739258 81.94928741455078 42.47446823120117 81.94928741455078 C 47.80481338500977 81.94928741455078 52.97412109375 80.906005859375 57.83879089355469 78.84841918945312 C 62.53902816772461 76.86039733886719 66.76089477539062 74.01372528076172 70.38713073730469 70.38749694824219 C 74.01335906982422 66.76127624511719 76.86003875732422 62.53940582275391 78.84806823730469 57.83917999267578 C 80.90565490722656 52.97451400756836 81.94893646240234 47.80522155761719 81.94893646240234 42.47439575195312 C 81.94893646240234 37.14406204223633 80.90565490722656 31.97476577758789 78.84806823730469 27.11009979248047 C 76.86003875732422 22.40987396240234 74.01335906982422 18.18801116943359 70.38713073730469 14.56178283691406 C 66.76089477539062 10.93555450439453 62.53902816772461 8.088890075683594 57.83879089355469 6.100860595703125 C 52.97412109375 4.04327392578125 47.80481338500977 2.999992370605469 42.47446823120117 2.999992370605469 M 42.47446823120117 -7.62939453125e-06 C 65.93246459960938 -7.62939453125e-06 84.94893646240234 19.01643371582031 84.94893646240234 42.47439575195312 L 84.94893646240234 42.47488784790039 C 84.94893646240234 65.93284606933594 65.93246459960938 84.94928741455078 42.47446823120117 84.94928741455078 C 19.01647186279297 84.94928741455078 0 65.93284606933594 0 42.47488784790039 L 0 42.47439575195312 C 0 19.01643371582031 19.01647186279297 -7.62939453125e-06 42.47446823120117 -7.62939453125e-06 Z" stroke="none" fill="#fff"/>
              </g>
            </g>
          </g>
        </g>
      </g>
      <g id="burbuja-de-dialogo" transform="translate(1245.334 11338.94)">
        <path id="Trazado_910543" data-name="Trazado 910543" d="M205.208,33.386a13.144,13.144,0,0,0,3.855-9.188c0-7.842-7.873-14.2-16.836-14.2S176,16.357,176,24.2l16.227,14.2a21.517,21.517,0,0,0,7.324-1.269,10.113,10.113,0,0,0,7.484,3.3A7.171,7.171,0,0,1,205.208,33.386Zm0,0" transform="translate(-158.15 -8.986)" fill="#e87288"/>
        <path id="Trazado_910544" data-name="Trazado 910544" d="M35.2,152.028c4.713,2.485,7.865,7.005,7.865,12.17,0,7.842-7.265,14.2-16.227,14.2a21.517,21.517,0,0,1-7.324-1.269,10.113,10.113,0,0,1-7.484,3.3,7.171,7.171,0,0,0,1.827-7.04A13.144,13.144,0,0,1,10,164.2c0-7.842,7.873-14.2,16.836-14.2A17.913,17.913,0,0,1,35.2,152.028Zm0,0" transform="translate(-8.986 -134.787)" fill="#cae9fc"/>
        <path id="Trazado_910545" data-name="Trazado 910545" d="M247.014,100a1.014,1.014,0,1,0,1.014,1.014A1.015,1.015,0,0,0,247.014,100Zm0,0" transform="translate(-221.051 -89.858)"/>
        <path id="Trazado_910546" data-name="Trazado 910546" d="M81.014,262.028A1.014,1.014,0,1,0,80,261.014,1.015,1.015,0,0,0,81.014,262.028Zm0,0" transform="translate(-71.886 -233.631)"/>
        <path id="Trazado_910547" data-name="Trazado 910547" d="M34.077,0c-9.131,0-16.624,6.3-17.2,14.224C8.177,14.661,0,20.931,0,29.412a14.172,14.172,0,0,0,3.955,9.7,6.168,6.168,0,0,1-1.63,5.811,1.014,1.014,0,0,0,.717,1.731,11.187,11.187,0,0,0,7.751-3.133,23.112,23.112,0,0,0,7.056,1.1c9.129,0,16.622-6.294,17.2-14.221a22.806,22.806,0,0,0,6.08-1.082,11.187,11.187,0,0,0,7.751,3.133,1.014,1.014,0,0,0,.717-1.731,6.168,6.168,0,0,1-1.63-5.811,14.172,14.172,0,0,0,3.955-9.7C51.927,6.4,43.12,0,34.077,0ZM17.85,42.6A20.5,20.5,0,0,1,10.9,41.4a1.014,1.014,0,0,0-1.124.258,9.151,9.151,0,0,1-4.552,2.7,8.2,8.2,0,0,0,.618-6.036,1.012,1.012,0,0,0-.248-.429,12.188,12.188,0,0,1-3.568-8.481c0-7.147,7.245-13.185,15.821-13.185,8.1,0,15.213,5.632,15.213,13.185C33.063,36.682,26.238,42.6,17.85,42.6Zm28.48-18.9a1.017,1.017,0,0,0-.248.429,8.2,8.2,0,0,0,.618,6.036,9.148,9.148,0,0,1-4.552-2.7,1.015,1.015,0,0,0-1.124-.258,19.979,19.979,0,0,1-5.975,1.171,14.517,14.517,0,0,0-5.48-10.117H42.8a1.014,1.014,0,0,0,0-2.028H26.454a18.915,18.915,0,0,0-7.548-2c.583-6.812,7.164-12.2,15.171-12.2,8.576,0,15.821,6.038,15.821,13.185A12.188,12.188,0,0,1,46.33,23.694Zm0,0"/>
        <path id="Trazado_910548" data-name="Trazado 910548" d="M133.793,260H121.014a1.014,1.014,0,0,0,0,2.028h12.779a1.014,1.014,0,0,0,0-2.028Zm0,0" transform="translate(-107.83 -233.631)"/>
        <path id="Trazado_910549" data-name="Trazado 910549" d="M97.85,320H81.014a1.014,1.014,0,1,0,0,2.028H97.85a1.014,1.014,0,0,0,0-2.028Zm0,0" transform="translate(-71.886 -287.546)"/>
        <path id="Trazado_910550" data-name="Trazado 910550" d="M299.793,100H287.014a1.014,1.014,0,1,0,0,2.028h12.779a1.014,1.014,0,0,0,0-2.028Zm0,0" transform="translate(-256.994 -89.858)"/>
      </g>
    </g>
  </g>
</svg>
