<svg xmlns="http://www.w3.org/2000/svg" xmlns:xlink="http://www.w3.org/1999/xlink" width="102.949" height="102.949" viewBox="0 0 102.949 102.949">
  <defs>
    <filter id="Trazado_874925" x="0" y="0" width="102.949" height="102.949" filterUnits="userSpaceOnUse">
      <feOffset dy="3" input="SourceAlpha"/>
      <feGaussianBlur stdDeviation="3" result="blur"/>
      <feFlood flood-opacity="0.161"/>
      <feComposite operator="in" in2="blur"/>
      <feComposite in="SourceGraphic"/>
    </filter>
  </defs>
  <g id="Grupo_1182236" data-name="Grupo 1182236" transform="translate(-906.806 -11316)">
    <g id="Grupo_1181919" data-name="Grupo 1181919" transform="translate(107.306 8804.843)">
      <g id="Grupo_1111316" data-name="Grupo 1111316" transform="translate(808.5 2517.157)">
        <g id="Grupo_1109835" data-name="Grupo 1109835" transform="translate(0 0)">
          <g id="Grupo_1107913" data-name="Grupo 1107913" transform="translate(0 0)">
            <g transform="matrix(1, 0, 0, 1, -9, -6)" filter="url(#Trazado_874925)">
              <g id="Trazado_874925-2" data-name="Trazado 874925" transform="translate(9 6)" fill="#4c6929" opacity="0.859">
                <path d="M 42.47446823120117 83.44929504394531 C 36.94229125976562 83.44929504394531 31.57638549804688 82.36614227294922 26.52582168579102 80.22994232177734 C 21.64678573608398 78.16628265380859 17.26464462280273 75.211669921875 13.50113868713379 71.44816589355469 C 9.737632751464844 67.68466949462891 6.78300952911377 63.30253982543945 4.719362258911133 58.42351913452148 C 2.583150625228882 53.37295150756836 1.499997615814209 48.00706100463867 1.499997615814209 42.47489547729492 C 1.499997615814209 36.94223403930664 2.583150625228882 31.57634162902832 4.719362258911133 26.52577781677246 C 6.78300952911377 21.64675331115723 9.737632751464844 17.26462364196777 13.50113868713379 13.50113010406494 C 17.26464462280273 9.737624168395996 21.64678573608398 6.783012390136719 26.52582168579102 4.719353199005127 C 31.57638549804688 2.583153486251831 36.94229125976562 1.500000476837158 42.47446823120117 1.500000476837158 C 48.00664520263672 1.500000476837158 53.37255096435547 2.583153486251831 58.42311477661133 4.719353199005127 C 63.30215072631836 6.783012390136719 67.68428802490234 9.737624168395996 71.44779968261719 13.50113010406494 C 75.2113037109375 17.26462364196777 78.16592407226562 21.64675331115723 80.22957611083984 26.52577781677246 C 82.36578369140625 31.57634162902832 83.44893646240234 36.94223403930664 83.44893646240234 42.47439956665039 C 83.44893646240234 48.00706100463867 82.36578369140625 53.37295150756836 80.22957611083984 58.42351913452148 C 78.16592407226562 63.30253982543945 75.2113037109375 67.68466949462891 71.44779968261719 71.44816589355469 C 67.68428802490234 75.211669921875 63.30215072631836 78.16628265380859 58.42311477661133 80.22994232177734 C 53.37255096435547 82.36614227294922 48.00664520263672 83.44929504394531 42.47446823120117 83.44929504394531 Z" stroke="none"/>
                <path d="M 42.47446823120117 2.999992370605469 C 37.14412307739258 2.999992370605469 31.97481536865234 4.04327392578125 27.11014938354492 6.100860595703125 C 22.40990829467773 8.088890075683594 18.18804168701172 10.93555450439453 14.56179809570312 14.56178283691406 C 10.93557739257812 18.18801116943359 8.088897705078125 22.40987396240234 6.100868225097656 27.11009979248047 C 4.043281555175781 31.97476577758789 3 37.14406204223633 3 42.47488784790039 C 3 47.80522155761719 4.043281555175781 52.97451400756836 6.100868225097656 57.83917999267578 C 8.088897705078125 62.53940582275391 10.93557739257812 66.76127624511719 14.56179809570312 70.38749694824219 C 18.18804168701172 74.01372528076172 22.40990829467773 76.86039733886719 27.11014938354492 78.84841918945312 C 31.97481536865234 80.906005859375 37.14412307739258 81.94928741455078 42.47446823120117 81.94928741455078 C 47.80481338500977 81.94928741455078 52.97412109375 80.906005859375 57.83879089355469 78.84841918945312 C 62.53902816772461 76.86039733886719 66.76089477539062 74.01372528076172 70.38713073730469 70.38749694824219 C 74.01335906982422 66.76127624511719 76.86003875732422 62.53940582275391 78.84806823730469 57.83917999267578 C 80.90565490722656 52.97451400756836 81.94893646240234 47.80522155761719 81.94893646240234 42.47439575195312 C 81.94893646240234 37.14406204223633 80.90565490722656 31.97476577758789 78.84806823730469 27.11009979248047 C 76.86003875732422 22.40987396240234 74.01335906982422 18.18801116943359 70.38713073730469 14.56178283691406 C 66.76089477539062 10.93555450439453 62.53902816772461 8.088890075683594 57.83879089355469 6.100860595703125 C 52.97412109375 4.04327392578125 47.80481338500977 2.999992370605469 42.47446823120117 2.999992370605469 M 42.47446823120117 -7.62939453125e-06 C 65.93246459960938 -7.62939453125e-06 84.94893646240234 19.01643371582031 84.94893646240234 42.47439575195312 L 84.94893646240234 42.47488784790039 C 84.94893646240234 65.93284606933594 65.93246459960938 84.94928741455078 42.47446823120117 84.94928741455078 C 19.01647186279297 84.94928741455078 0 65.93284606933594 0 42.47488784790039 L 0 42.47439575195312 C 0 19.01643371582031 19.01647186279297 -7.62939453125e-06 42.47446823120117 -7.62939453125e-06 Z" stroke="none" fill="#fff"/>
              </g>
            </g>
            <g id="Trazado_874923" data-name="Trazado 874923" transform="translate(0 0)" fill="none">
              <path d="M42.474,0A42.474,42.474,0,0,1,84.949,42.474h0A42.474,42.474,0,0,1,0,42.475H0A42.474,42.474,0,0,1,42.474,0Z" stroke="none"/>
              <path d="M 42.47446823120117 2.999992370605469 C 37.14412307739258 2.999992370605469 31.97481536865234 4.04327392578125 27.11014938354492 6.100860595703125 C 22.40990829467773 8.088890075683594 18.18804168701172 10.93555450439453 14.56179809570312 14.56178283691406 C 10.93557739257812 18.18801116943359 8.088897705078125 22.40987396240234 6.100868225097656 27.11009979248047 C 4.043281555175781 31.97476577758789 3 37.14406204223633 3 42.47488784790039 C 3 47.80522155761719 4.043281555175781 52.97451400756836 6.100868225097656 57.83917999267578 C 8.088897705078125 62.53940582275391 10.93557739257812 66.76127624511719 14.56179809570312 70.38749694824219 C 18.18804168701172 74.01372528076172 22.40990829467773 76.86039733886719 27.11014938354492 78.84841918945312 C 31.97481536865234 80.906005859375 37.14412307739258 81.94928741455078 42.47446823120117 81.94928741455078 C 47.80481338500977 81.94928741455078 52.97412109375 80.906005859375 57.83879089355469 78.84841918945312 C 62.53902816772461 76.86039733886719 66.76089477539062 74.01372528076172 70.38713073730469 70.38749694824219 C 74.01335906982422 66.76127624511719 76.86003875732422 62.53940582275391 78.84806823730469 57.83917999267578 C 80.90565490722656 52.97451400756836 81.94893646240234 47.80522155761719 81.94893646240234 42.47439575195312 C 81.94893646240234 37.14406204223633 80.90565490722656 31.97476577758789 78.84806823730469 27.11009979248047 C 76.86003875732422 22.40987396240234 74.01335906982422 18.18801116943359 70.38713073730469 14.56178283691406 C 66.76089477539062 10.93555450439453 62.53902816772461 8.088890075683594 57.83879089355469 6.100860595703125 C 52.97412109375 4.04327392578125 47.80481338500977 2.999992370605469 42.47446823120117 2.999992370605469 M 42.47446823120117 -7.62939453125e-06 C 65.93246459960938 -7.62939453125e-06 84.94893646240234 19.01643371582031 84.94893646240234 42.47439575195312 L 84.94893646240234 42.47488784790039 C 84.94893646240234 65.93284606933594 65.93246459960938 84.94928741455078 42.47446823120117 84.94928741455078 C 19.01647186279297 84.94928741455078 0 65.93284606933594 0 42.47488784790039 L 0 42.47439575195312 C 0 19.01643371582031 19.01647186279297 -7.62939453125e-06 42.47446823120117 -7.62939453125e-06 Z" stroke="none" fill="#fff"/>
            </g>
          </g>
        </g>
      </g>
    </g>
    <g id="acuerdo" transform="translate(932.803 11338.209)">
      <path id="Trazado_910531" data-name="Trazado 910531" d="M86.707,48.681V10.861A3.952,3.952,0,0,0,82.766,6.92H54.617a3.955,3.955,0,0,0-3.9,3.378H78.45a3.952,3.952,0,0,1,3.941,3.941V54.4a3.9,3.9,0,0,1-.041.563h.416a3.952,3.952,0,0,0,3.941-3.941Z" transform="translate(-44.059 -6.206)" fill="#eceff1" fill-rule="evenodd"/>
      <path id="Trazado_910532" data-name="Trazado 910532" d="M44.537,80.931v2.813A3.952,3.952,0,0,1,40.6,87.686H12.448a3.952,3.952,0,0,1-3.941-3.941V43.586a3.952,3.952,0,0,1,3.941-3.941H40.6a3.952,3.952,0,0,1,3.941,3.941Z" transform="translate(-6.206 -35.553)" fill="#eceff1" fill-rule="evenodd"/>
      <path id="Trazado_910533" data-name="Trazado 910533" d="M218.479,45.141l4.557,3.072V39.645h-9.523v8.634h.31Z" transform="translate(-190.053 -35.553)" fill="#ffb954" fill-rule="evenodd"/>
      <path id="Trazado_910534" data-name="Trazado 910534" d="M221.54,245.979l2.26.729a1.01,1.01,0,0,1,.65,1.268l-2.934,9.093a1.011,1.011,0,0,1-1.269.65l-2.26-.729a1.011,1.011,0,0,1-.65-1.269l2.934-9.093A1.011,1.011,0,0,1,221.54,245.979Z" transform="translate(-193.438 -220.546)" fill="#929ba0" fill-rule="evenodd"/>
      <g id="Grupo_1182235" data-name="Grupo 1182235" transform="translate(27.769 26.96)">
        <path id="Trazado_910535" data-name="Trazado 910535" d="M259.051,352.154a1.569,1.569,0,0,0-.623-2.057,1.524,1.524,0,0,0-2.057.623l-.945,1.767a1.52,1.52,0,0,0,2.679,1.435" transform="translate(-255.251 -340.762)" fill="#f2c07e" fill-rule="evenodd"/>
        <path id="Trazado_910536" data-name="Trazado 910536" d="M277.261,368.55l-1.286,2.4a1.52,1.52,0,1,0,2.68,1.433l1.286-2.4a1.52,1.52,0,1,0-2.68-1.433Z" transform="translate(-273.68 -356.751)" fill="#f2c07e" fill-rule="evenodd"/>
        <path id="Trazado_910537" data-name="Trazado 910537" d="M305.194,386.156l-.831,1.553a1.52,1.52,0,1,0,2.68,1.433l.831-1.553a1.52,1.52,0,1,0-2.68-1.433Z" transform="translate(-299.138 -372.539)" fill="#f2c07e" fill-rule="evenodd"/>
        <path id="Trazado_910538" data-name="Trazado 910538" d="M331.282,406.906l-.368.688c-.8,1.487,1.578,3.493,2.68,1.433l.269-.5c.532-1,.66-1.733-.472-2.338A1.621,1.621,0,0,0,331.282,406.906Z" transform="translate(-322.961 -391.079)" fill="#f2c07e" fill-rule="evenodd"/>
        <path id="Trazado_910539" data-name="Trazado 910539" d="M268.911,274.195a1.524,1.524,0,0,1,.623,2.057l-.415.777a1.621,1.621,0,0,1,2.108-.719c1.132.606,1,1.343.472,2.338a7.144,7.144,0,0,1,.687.341,1.306,1.306,0,0,0,1.2-2.318,2.076,2.076,0,0,0-.207-.126l.594.318a1.571,1.571,0,0,0,1.482-2.771l1.233.66a1.589,1.589,0,0,0,1.607-2.738q-.052-.034-.108-.063l1.172.627c1.544.826,2.382-.954,1.807-2.137a1.657,1.657,0,0,0-.106-.186c-.819-1.245-4.414-2.7-5.8-3.51-2.291-1.812-5.594,2.874-8.168-.588a16.564,16.564,0,0,1,2.6-2.845,9.571,9.571,0,0,1,1.345-1.147l.046-.032c-2.947-1.988-4.73-.093-7-.564l-1.072,3.3-1.412,4.376a4.685,4.685,0,0,0,.016,2.483l.305-.571a1.524,1.524,0,0,1,2.057-.623,1.569,1.569,0,0,1,.623,2.057l-.218.407a1.52,1.52,0,0,1,2.68,1.433l-.205.384a1.524,1.524,0,0,1,2.057-.623Z" transform="translate(-260.798 -261.202)" fill="#f2c07e" fill-rule="evenodd"/>
        <path id="Trazado_910540" data-name="Trazado 910540" d="M324.352,266.841c1.391.805,4.985,2.265,5.8,3.51a1.658,1.658,0,0,1,.106.186s.792-.285.887-.318l-2.976-8.014c-1.956,1.363-4.152-2.593-8,.025a9.5,9.5,0,0,0-1.392,1.179,16.563,16.563,0,0,0-2.6,2.845C318.758,269.715,322.061,265.029,324.352,266.841Z" transform="translate(-309.895 -261.301)" fill="#f2c07e" fill-rule="evenodd"/>
      </g>
      <path id="Trazado_910541" data-name="Trazado 910541" d="M437.081,255.493l-2.227.827a1.011,1.011,0,0,1-1.3-.594l-3.327-8.956a1.011,1.011,0,0,1,.594-1.3l2.226-.827a1.011,1.011,0,0,1,1.3.594l3.327,8.956A1.011,1.011,0,0,1,437.081,255.493Z" transform="translate(-384.346 -219.339)" fill="#929ba0" fill-rule="evenodd"/>
      <path id="Trazado_910542" data-name="Trazado 910542" d="M8.906,19.079a.714.714,0,0,1,.714-.714H31.013a.714.714,0,1,1,0,1.428H9.62a.714.714,0,0,1-.714-.714Zm11.682,5.308H9.62a.714.714,0,0,0,0,1.428H20.588a.714.714,0,1,0,0-1.428Zm0,6.022H9.62a.714.714,0,0,0,0,1.428H20.588a.714.714,0,1,0,0-1.428Zm0,6.022H9.62a.714.714,0,0,0,0,1.428H20.588a.714.714,0,1,0,0-1.428Zm33.36-.506A1.711,1.711,0,0,0,54,34.609l-3.327-8.956a1.725,1.725,0,0,0-2.214-1.015l-2.227.827a1.712,1.712,0,0,0-1.078,1.974A4.042,4.042,0,0,1,43.642,27l-.28-.117V4.655A4.66,4.66,0,0,0,38.707,0H10.558A4.681,4.681,0,0,0,6.085,3.386a4.657,4.657,0,0,0-4.5,4.647V48.192a4.66,4.66,0,0,0,4.655,4.655H34.391a4.66,4.66,0,0,0,4.475-3.386,4.657,4.657,0,0,0,4.5-4.648V42.775a2.194,2.194,0,0,0,.6-1.407,2.3,2.3,0,0,0,2.742-2.144,1.793,1.793,0,0,0,1.724-.566,2.377,2.377,0,0,0,.576-1.35,1.7,1.7,0,0,0,1.748.343l2.226-.827a1.711,1.711,0,0,0,.965-.9ZM43.09,28.313a5.453,5.453,0,0,0,2.038.558,2.343,2.343,0,0,0,.508-.061l2.237,6.022a21.858,21.858,0,0,0-3.8-2.183c-.56-.277-1.089-.538-1.449-.743-1.308-1-2.785-.439-4.091.052-1.6.6-2.62.913-3.6-.1.33-.41.943-1.013,1.461-1.521.254-.25.515-.506.769-.762A8.949,8.949,0,0,1,38.421,28.5c1.934-1.335,3.325-.753,4.67-.19ZM7.6,3.378H34.391a4.66,4.66,0,0,1,4.655,4.655V26.568a4.879,4.879,0,0,1,2.888-.167V4.655a3.23,3.23,0,0,0-3.227-3.227H10.558A3.247,3.247,0,0,0,7.6,3.378Zm16.577,8.215V4.806H32.27v6.512L28.826,9a.714.714,0,0,0-.8,0Zm13.442,36.6V46.445a1.89,1.89,0,0,1-.45.057,2.123,2.123,0,0,1-1-.258,2.578,2.578,0,0,1-1.143-1.276l-.044.014a2.219,2.219,0,0,1-1.7-.166,2.087,2.087,0,0,1-.918-.919,2.258,2.258,0,0,1-.311.12,2.218,2.218,0,0,1-1.7-.166,2.134,2.134,0,0,1-1.067-1.278,2.3,2.3,0,0,1-.1-.938,2.224,2.224,0,0,1-.959-.262,2.132,2.132,0,0,1-1.067-1.278,2.264,2.264,0,0,1,.15-1.745l.257-.48a1.638,1.638,0,0,1-.981-.017l-2.26-.729a1.724,1.724,0,0,1-1.11-2.168l2.934-9.093a1.725,1.725,0,0,1,2.168-1.11l2.261.729a1.719,1.719,0,0,1,1.133,1.206,7.154,7.154,0,0,0,1.629-.2,6.034,6.034,0,0,1,4.273.325V8.033a3.23,3.23,0,0,0-3.227-3.227H33.7V12.66a.714.714,0,0,1-1.113.592l-4.158-2.8-4.256,2.869a.716.716,0,0,1-.4.122h-.311a.714.714,0,0,1-.714-.714V4.806H6.242A3.231,3.231,0,0,0,3.015,8.033V48.192a3.23,3.23,0,0,0,3.227,3.227H34.391a3.23,3.23,0,0,0,3.226-3.227Zm2.113-5.4.411.221a.642.642,0,0,1,.273.868.506.506,0,0,1-.73.227l-.073-.038A2.225,2.225,0,0,0,39.73,42.8Zm-.707,2.583H38.95l.018-.029Zm-2.3-2.257a.978.978,0,0,1,.534-.446.763.763,0,0,1,.607.021c.539.289.686.425.179,1.373h0l-.268.5c-.379.708-.795.487-.93.413a.955.955,0,0,1-.491-1.173l.368-.689Zm-1.176-2.539a.807.807,0,0,1,.331,1.091l-.415.776h0l0,0-.364.68,0,0-.048.09a.8.8,0,0,1-.477.389.813.813,0,0,1-.63-.068.739.739,0,0,1-.362-.442.829.829,0,0,1,.049-.638h0l.83-1.551v0a.808.808,0,0,1,1.09-.331Zm-2.085-1.34a.8.8,0,0,1-.059.613l-.2.384v0l-.828,1.549v0l-.25.468a.812.812,0,0,1-1.108.321.738.738,0,0,1-.362-.443.83.83,0,0,1,.049-.639l.558-1.043.727-1.359v0a.8.8,0,0,1,1.479.147Zm-2.886-2.335c.693.495.447.955.366,1.108l-.218.406h0L30,39.779l0,0a.81.81,0,0,1-1.107.32.739.739,0,0,1-.362-.442.829.829,0,0,1,.049-.639l.639-1.195h0l.305-.571a.811.811,0,0,1,1.055-.348Zm-.242-9.7-2.342,7.26a.645.645,0,0,0-.027.062c-.02.063-.036.127-.054.191L27.4,36.3a.3.3,0,0,1-.37.189l-2.26-.729a.3.3,0,0,1-.189-.37L27.513,26.3a.292.292,0,0,1,.146-.17.3.3,0,0,1,.136-.033.28.28,0,0,1,.088.014l2.26.729a.3.3,0,0,1,.189.369Zm11.6,17.6a3.232,3.232,0,0,1-2.888,3.209V45.389a2.036,2.036,0,0,0,.918.225,1.928,1.928,0,0,0,1.716-1.065,2.091,2.091,0,0,0,.239-1.041l.016,0v1.309Zm5.5-8.41a1.16,1.16,0,0,1-.056,1.291c-.066.072-.24.261-.711.01L45.5,37.077c-.011-.006-.023-.009-.035-.015l-3.773-2.048a.714.714,0,1,0-.682,1.255l3.856,2.093A.873.873,0,0,1,44,39.88l-1.163-.622a.725.725,0,0,0-.066-.045l-2.808-1.5a.714.714,0,1,0-.673,1.259l2.736,1.463a.72.72,0,0,0,.067.045h0a.858.858,0,0,1-.811,1.511l-.591-.317h0a.717.717,0,0,0-.12-.05L38.2,40.351a.713.713,0,0,0-.922.224,2.221,2.221,0,0,0-2.389-1.5,2.256,2.256,0,0,0-.06-.249,2.228,2.228,0,0,0-2.39-1.571,2.459,2.459,0,0,0-1.061-1.532.683.683,0,0,0-.093-.059,2.211,2.211,0,0,0-1.7-.166,2.263,2.263,0,0,0-.422.175,4.1,4.1,0,0,1,.117-.542l2.267-7.026a7.982,7.982,0,0,0,2.079-.219,4.827,4.827,0,0,1,3.141.1q-.306.269-.612.577c-.249.251-.5.5-.754.747a9.212,9.212,0,0,0-2,2.328.716.716,0,0,0,.087.7c1.769,2.378,3.956,1.557,5.553.956,1.277-.482,2.093-.75,2.745-.234a.771.771,0,0,0,.085.058c.4.232.943.5,1.572.811,1.4.689,3.5,1.731,3.993,2.474Zm5.225-1.3a.294.294,0,0,1-.009.224.291.291,0,0,1-.164.153l-2.226.827a.3.3,0,0,1-.224-.009.291.291,0,0,1-.153-.164l-3.327-8.956a.3.3,0,0,1,.173-.378l2.226-.827a.284.284,0,0,1,.1-.018.3.3,0,0,1,.124.028.291.291,0,0,1,.153.164Z" fill-rule="evenodd"/>
    </g>
  </g>
</svg>
