<svg xmlns="http://www.w3.org/2000/svg" xmlns:xlink="http://www.w3.org/1999/xlink" width="102.949" height="102.949" viewBox="0 0 102.949 102.949">
  <defs>
    <filter id="Trazado_874925" x="0" y="0" width="102.949" height="102.949" filterUnits="userSpaceOnUse">
      <feOffset dy="3" input="SourceAlpha"/>
      <feGaussianBlur stdDeviation="3" result="blur"/>
      <feFlood flood-opacity="0.161"/>
      <feComposite operator="in" in2="blur"/>
      <feComposite in="SourceGraphic"/>
    </filter>
    <clipPath id="clip-path">
      <path id="path21" d="M0-682.665H49.5v49.5H0Z" transform="translate(0 682.665)"/>
    </clipPath>
  </defs>
  <g id="Grupo_1182281" data-name="Grupo 1182281" transform="translate(-591.051 -2527)">
    <g id="Grupo_1181960" data-name="Grupo 1181960" transform="translate(-208.449 15.843)">
      <g id="Grupo_1111316" data-name="Grupo 1111316" transform="translate(808.5 2517.157)">
        <g id="Grupo_1109835" data-name="Grupo 1109835" transform="translate(0 0)">
          <g id="Grupo_1107913" data-name="Grupo 1107913" transform="translate(0 0)">
            <g transform="matrix(1, 0, 0, 1, -9, -6)" filter="url(#Trazado_874925)">
              <g id="Trazado_874925-2" data-name="Trazado 874925" transform="translate(9 6)" fill="#9ad354" opacity="0.859">
                <path d="M 42.47446823120117 83.44929504394531 C 36.94229125976562 83.44929504394531 31.57638549804688 82.36614227294922 26.52582168579102 80.22994232177734 C 21.64678573608398 78.16628265380859 17.26464462280273 75.211669921875 13.50113868713379 71.44816589355469 C 9.737632751464844 67.68466949462891 6.78300952911377 63.30253982543945 4.719362258911133 58.42351913452148 C 2.583150625228882 53.37295150756836 1.499997615814209 48.00706100463867 1.499997615814209 42.47489547729492 C 1.499997615814209 36.94223403930664 2.583150625228882 31.57634162902832 4.719362258911133 26.52577781677246 C 6.78300952911377 21.64675331115723 9.737632751464844 17.26462364196777 13.50113868713379 13.50113010406494 C 17.26464462280273 9.737624168395996 21.64678573608398 6.783012390136719 26.52582168579102 4.719353199005127 C 31.57638549804688 2.583153486251831 36.94229125976562 1.500000476837158 42.47446823120117 1.500000476837158 C 48.00664520263672 1.500000476837158 53.37255096435547 2.583153486251831 58.42311477661133 4.719353199005127 C 63.30215072631836 6.783012390136719 67.68428802490234 9.737624168395996 71.44779968261719 13.50113010406494 C 75.2113037109375 17.26462364196777 78.16592407226562 21.64675331115723 80.22957611083984 26.52577781677246 C 82.36578369140625 31.57634162902832 83.44893646240234 36.94223403930664 83.44893646240234 42.47439956665039 C 83.44893646240234 48.00706100463867 82.36578369140625 53.37295150756836 80.22957611083984 58.42351913452148 C 78.16592407226562 63.30253982543945 75.2113037109375 67.68466949462891 71.44779968261719 71.44816589355469 C 67.68428802490234 75.211669921875 63.30215072631836 78.16628265380859 58.42311477661133 80.22994232177734 C 53.37255096435547 82.36614227294922 48.00664520263672 83.44929504394531 42.47446823120117 83.44929504394531 Z" stroke="none"/>
                <path d="M 42.47446823120117 2.999992370605469 C 37.14412307739258 2.999992370605469 31.97481536865234 4.04327392578125 27.11014938354492 6.100860595703125 C 22.40990829467773 8.088890075683594 18.18804168701172 10.93555450439453 14.56179809570312 14.56178283691406 C 10.93557739257812 18.18801116943359 8.088897705078125 22.40987396240234 6.100868225097656 27.11009979248047 C 4.043281555175781 31.97476577758789 3 37.14406204223633 3 42.47488784790039 C 3 47.80522155761719 4.043281555175781 52.97451400756836 6.100868225097656 57.83917999267578 C 8.088897705078125 62.53940582275391 10.93557739257812 66.76127624511719 14.56179809570312 70.38749694824219 C 18.18804168701172 74.01372528076172 22.40990829467773 76.86039733886719 27.11014938354492 78.84841918945312 C 31.97481536865234 80.906005859375 37.14412307739258 81.94928741455078 42.47446823120117 81.94928741455078 C 47.80481338500977 81.94928741455078 52.97412109375 80.906005859375 57.83879089355469 78.84841918945312 C 62.53902816772461 76.86039733886719 66.76089477539062 74.01372528076172 70.38713073730469 70.38749694824219 C 74.01335906982422 66.76127624511719 76.86003875732422 62.53940582275391 78.84806823730469 57.83917999267578 C 80.90565490722656 52.97451400756836 81.94893646240234 47.80522155761719 81.94893646240234 42.47439575195312 C 81.94893646240234 37.14406204223633 80.90565490722656 31.97476577758789 78.84806823730469 27.11009979248047 C 76.86003875732422 22.40987396240234 74.01335906982422 18.18801116943359 70.38713073730469 14.56178283691406 C 66.76089477539062 10.93555450439453 62.53902816772461 8.088890075683594 57.83879089355469 6.100860595703125 C 52.97412109375 4.04327392578125 47.80481338500977 2.999992370605469 42.47446823120117 2.999992370605469 M 42.47446823120117 -7.62939453125e-06 C 65.93246459960938 -7.62939453125e-06 84.94893646240234 19.01643371582031 84.94893646240234 42.47439575195312 L 84.94893646240234 42.47488784790039 C 84.94893646240234 65.93284606933594 65.93246459960938 84.94928741455078 42.47446823120117 84.94928741455078 C 19.01647186279297 84.94928741455078 0 65.93284606933594 0 42.47488784790039 L 0 42.47439575195312 C 0 19.01643371582031 19.01647186279297 -7.62939453125e-06 42.47446823120117 -7.62939453125e-06 Z" stroke="none" fill="#fff"/>
              </g>
            </g>
            <g id="Trazado_874923" data-name="Trazado 874923" transform="translate(0 0)" fill="none">
              <path d="M42.474,0A42.474,42.474,0,0,1,84.949,42.474h0A42.474,42.474,0,0,1,0,42.475H0A42.474,42.474,0,0,1,42.474,0Z" stroke="none"/>
              <path d="M 42.47446823120117 2.999992370605469 C 37.14412307739258 2.999992370605469 31.97481536865234 4.04327392578125 27.11014938354492 6.100860595703125 C 22.40990829467773 8.088890075683594 18.18804168701172 10.93555450439453 14.56179809570312 14.56178283691406 C 10.93557739257812 18.18801116943359 8.088897705078125 22.40987396240234 6.100868225097656 27.11009979248047 C 4.043281555175781 31.97476577758789 3 37.14406204223633 3 42.47488784790039 C 3 47.80522155761719 4.043281555175781 52.97451400756836 6.100868225097656 57.83917999267578 C 8.088897705078125 62.53940582275391 10.93557739257812 66.76127624511719 14.56179809570312 70.38749694824219 C 18.18804168701172 74.01372528076172 22.40990829467773 76.86039733886719 27.11014938354492 78.84841918945312 C 31.97481536865234 80.906005859375 37.14412307739258 81.94928741455078 42.47446823120117 81.94928741455078 C 47.80481338500977 81.94928741455078 52.97412109375 80.906005859375 57.83879089355469 78.84841918945312 C 62.53902816772461 76.86039733886719 66.76089477539062 74.01372528076172 70.38713073730469 70.38749694824219 C 74.01335906982422 66.76127624511719 76.86003875732422 62.53940582275391 78.84806823730469 57.83917999267578 C 80.90565490722656 52.97451400756836 81.94893646240234 47.80522155761719 81.94893646240234 42.47439575195312 C 81.94893646240234 37.14406204223633 80.90565490722656 31.97476577758789 78.84806823730469 27.11009979248047 C 76.86003875732422 22.40987396240234 74.01335906982422 18.18801116943359 70.38713073730469 14.56178283691406 C 66.76089477539062 10.93555450439453 62.53902816772461 8.088890075683594 57.83879089355469 6.100860595703125 C 52.97412109375 4.04327392578125 47.80481338500977 2.999992370605469 42.47446823120117 2.999992370605469 M 42.47446823120117 -7.62939453125e-06 C 65.93246459960938 -7.62939453125e-06 84.94893646240234 19.01643371582031 84.94893646240234 42.47439575195312 L 84.94893646240234 42.47488784790039 C 84.94893646240234 65.93284606933594 65.93246459960938 84.94928741455078 42.47446823120117 84.94928741455078 C 19.01647186279297 84.94928741455078 0 65.93284606933594 0 42.47488784790039 L 0 42.47439575195312 C 0 19.01643371582031 19.01647186279297 -7.62939453125e-06 42.47446823120117 -7.62939453125e-06 Z" stroke="none" fill="#fff"/>
            </g>
          </g>
        </g>
      </g>
    </g>
    <g id="g15" transform="translate(617.051 3233.666)">
      <g id="g17" transform="translate(0 -682.665)">
        <g id="g19" clip-path="url(#clip-path)">
          <g id="g25" transform="translate(16.884 0.919)">
            <path id="path27" d="M-185.031-201.278h-13.2a1.27,1.27,0,0,1-1.27-1.27v-13.2a1.27,1.27,0,0,1,1.27-1.27h13.2a1.27,1.27,0,0,1,1.27,1.27v13.2a1.27,1.27,0,0,1-1.27,1.27" transform="translate(199.498 217.015)" fill="#efedef"/>
          </g>
          <g id="g29" transform="translate(24.027 15.931)">
            <path id="path31" d="M-9.275,12.322A.725.725,0,0,1-10,11.6V-9.275A.725.725,0,0,1-9.275-10a.725.725,0,0,1,.725.725V11.6A.725.725,0,0,1-9.275,12.322Z" transform="translate(10 10)"/>
          </g>
          <g id="g33" transform="translate(14.971 16.851)">
            <path id="path35" d="M-336.01-228.58c-6.174,4.325-16.144,4.059-26.059-2.753a.493.493,0,0,1-.157-.633l.957-1.85a.493.493,0,0,1,.668-.209,17.7,17.7,0,0,0,13.487,1.607c6.115-1.832,10.5-7.044,12.388-13.7a.456.456,0,0,1,.554-.315l2.816.726a.456.456,0,0,1,.319.586c-.392,1.171-1.42,4.227-1.813,5.288,2.982,1.771,3.091,6.88-3.157,11.257" transform="translate(362.282 246.452)" fill="#eec06b"/>
          </g>
          <g id="g37" transform="translate(14.971 23.665)">
            <path id="path39" d="M-380.256,0c.433,2.519-.933,5.969-5.124,9.08-5.856,4.347-15.074,4.385-24.444-1.615l-.108.208a.493.493,0,0,0,.157.633c9.915,6.812,19.885,7.078,26.059,2.753,6.029-4.224,6.138-9.129,3.459-11.058" transform="translate(409.987)" fill="#e9a761"/>
          </g>
          <g id="g41" transform="translate(14.246 16.127)">
            <path id="path43" d="M-320.32-98.322c-5.323,0-11.221-1.945-16.742-5.738a1.22,1.22,0,0,1-.391-1.563l.957-1.85a1.21,1.21,0,0,1,.718-.6,1.209,1.209,0,0,1,.933.085,16.884,16.884,0,0,0,12.939,1.553,15.764,15.764,0,0,0,6.017-3.393.725.725,0,0,1,1.024.057.725.725,0,0,1-.057,1.024,17.2,17.2,0,0,1-6.568,3.7,18.25,18.25,0,0,1-13.826-1.551l-.756,1.461c8.9,6.043,18.72,7.083,25.062,2.64,3.154-2.21,4.913-4.831,4.824-7.191a3.331,3.331,0,0,0-1.621-2.849.725.725,0,0,1-.31-.876c.361-.973,1.258-3.635,1.714-4.992l-2.284-.589a23.089,23.089,0,0,1-3.849,7.676.725.725,0,0,1-1.017.129.725.725,0,0,1-.129-1.017,21.738,21.738,0,0,0,3.674-7.438,1.188,1.188,0,0,1,1.432-.819l2.816.726a1.185,1.185,0,0,1,.743.58,1.184,1.184,0,0,1,.082.939c-.359,1.073-1.162,3.461-1.629,4.777a4.835,4.835,0,0,1,1.828,3.7c.108,2.861-1.875,5.935-5.441,8.433A17.467,17.467,0,0,1-320.32-98.322Z" transform="translate(337.589 120.502)"/>
          </g>
          <g id="g45" transform="translate(10.696 19.702)">
            <path id="path47" d="M-80.605-12.712A3.773,3.773,0,0,1-82.971-9.47a3.768,3.768,0,0,1-3.65-.477,4.293,4.293,0,0,0-.287-.372,3.767,3.767,0,0,1,2.354-3.117,3.77,3.77,0,0,1,3.949.724" transform="translate(86.908 13.705)" fill="#94d4a2"/>
          </g>
          <g id="g49" transform="translate(9.97 18.977)">
            <path id="path51" d="M-92.432-23.705a4.489,4.489,0,0,1,3.042,1.185.725.725,0,0,1,.233.585,4.526,4.526,0,0,1-2.82,3.864,4.473,4.473,0,0,1-1.666.322,4.532,4.532,0,0,1-2.685-.89.725.725,0,0,1-.165-.171,3.566,3.566,0,0,0-.238-.309.725.725,0,0,1-.173-.549A4.482,4.482,0,0,1-94.1-23.384,4.475,4.475,0,0,1-92.432-23.705Zm1.781,2.025a3.04,3.04,0,0,0-1.781-.575,3.032,3.032,0,0,0-1.128.218A3.035,3.035,0,0,0-95.419-19.8l.045.061a3.074,3.074,0,0,0,1.731.54,3.029,3.029,0,0,0,1.128-.218A3.07,3.07,0,0,0-90.651-21.68Z" transform="translate(96.908 23.705)"/>
          </g>
          <g id="g53" transform="translate(5.753 20.708)">
            <path id="path55" d="M-3.348.1a.725.725,0,0,1-.725-.725c0-2.921-.423-4.95-1.293-6.2a3.822,3.822,0,0,0-.241-.313,4.537,4.537,0,0,0-3.668-1.4A.725.725,0,0,1-10-9.275.725.725,0,0,1-9.275-10,5.894,5.894,0,0,1-4.507-8.092a5.275,5.275,0,0,1,.333.432C-3.116-6.134-2.622-3.9-2.622-.629A.725.725,0,0,1-3.348.1Z" transform="translate(10 10)"/>
          </g>
          <g id="g57" transform="translate(3.95 26.857)">
            <path id="path59" d="M-180.126-7.4a2.938,2.938,0,0,0-3.557.043,2.938,2.938,0,0,1-3.613,0,2.938,2.938,0,0,0-3.557-.043,8.3,8.3,0,0,0-1.722,11.615l1.847,2.49a2.626,2.626,0,0,0,3.674.545,2.626,2.626,0,0,1,3.129,0,2.626,2.626,0,0,0,3.674-.545l1.847-2.49A8.3,8.3,0,0,0-180.126-7.4" transform="translate(194.209 7.975)" fill="#df646e"/>
          </g>
          <g id="g61" transform="translate(14.449 26.858)">
            <path id="path63" d="M-45.839-7.383a2.937,2.937,0,0,0-3.1-.248,2.946,2.946,0,0,1,.4.248A8.3,8.3,0,0,1-46.817,4.232l-1.847,2.49a2.619,2.619,0,0,1-.759.688,2.626,2.626,0,0,0,3.459-.688l1.847-2.49A8.3,8.3,0,0,0-45.839-7.383" transform="translate(49.423 7.96)" fill="#dc4955"/>
          </g>
          <g id="g65" transform="translate(3.228 26.133)">
            <path id="path67" d="M-192.5,2.584a3.348,3.348,0,0,1-2.7-1.353l-1.847-2.49a9.039,9.039,0,0,1,1.872-12.63,3.673,3.673,0,0,1,4.435.053,2.21,2.21,0,0,0,2.721,0,3.669,3.669,0,0,1,3.952-.356.725.725,0,0,1,.306.979.725.725,0,0,1-.979.306,2.216,2.216,0,0,0-2.387.216,3.658,3.658,0,0,1-4.505,0,2.219,2.219,0,0,0-2.679-.032,7.587,7.587,0,0,0-1.572,10.6l1.847,2.49a1.9,1.9,0,0,0,2.659.394,3.332,3.332,0,0,1,3.993,0,1.9,1.9,0,0,0,2.659-.394l1.847-2.49A7.548,7.548,0,0,0-182.5-10.6a.725.725,0,0,1,.24-1,.725.725,0,0,1,1,.24,8.992,8.992,0,0,1-.448,10.1l-1.847,2.49a3.355,3.355,0,0,1-4.688.7,1.89,1.89,0,0,0-2.265,0A3.334,3.334,0,0,1-192.5,2.584Z" transform="translate(198.818 14.609)"/>
          </g>
          <g id="g69" transform="translate(23.793 29.031)">
            <path id="path71" d="M-45.675,0a3.571,3.571,0,0,0-3.571,3.571,3.571,3.571,0,0,0,3.571,3.571A3.571,3.571,0,0,0-42.1,3.571,3.571,3.571,0,0,0-45.675,0" transform="translate(49.247 0)" fill="#7f78bd"/>
          </g>
          <g id="g73" transform="translate(25.089 29.034)">
            <path id="path75" d="M-30.5,0a3.563,3.563,0,0,1,1.3,2.752,3.571,3.571,0,0,1-3.571,3.571l-.109,0a3.557,3.557,0,0,0,2.275.819,3.571,3.571,0,0,0,3.571-3.571A3.57,3.57,0,0,0-30.5,0" transform="translate(32.888)" fill="#5f55ad"/>
          </g>
          <g id="g77" transform="translate(23.068 28.306)">
            <path id="path79" d="M-54.95-10a4.3,4.3,0,0,1,4.3,4.3,4.3,4.3,0,0,1-4.3,4.3,4.3,4.3,0,0,1-4.3-4.3A4.3,4.3,0,0,1-54.95-10Zm0,7.142A2.849,2.849,0,0,0-52.1-5.7,2.849,2.849,0,0,0-54.95-8.55,2.849,2.849,0,0,0-57.8-5.7,2.849,2.849,0,0,0-54.95-2.858Z" transform="translate(59.247 10)"/>
          </g>
          <g id="g81" transform="translate(27.103 24.337)">
            <path id="path83" d="M-45.675,0a3.571,3.571,0,0,0-3.571,3.571,3.571,3.571,0,0,0,3.571,3.571A3.571,3.571,0,0,0-42.1,3.571,3.571,3.571,0,0,0-45.675,0" transform="translate(49.247 0)" fill="#7f78bd"/>
          </g>
          <g id="g85" transform="translate(28.399 24.34)">
            <path id="path87" d="M-30.5,0a3.563,3.563,0,0,1,1.3,2.752,3.571,3.571,0,0,1-3.571,3.571l-.11,0a3.557,3.557,0,0,0,2.275.819,3.571,3.571,0,0,0,3.571-3.571A3.57,3.57,0,0,0-30.5,0" transform="translate(32.888)" fill="#5f55ad"/>
          </g>
          <g id="g89" transform="translate(26.378 23.612)">
            <path id="path91" d="M-54.95-10a4.3,4.3,0,0,1,4.3,4.3,4.3,4.3,0,0,1-4.3,4.3,4.3,4.3,0,0,1-4.3-4.3A4.3,4.3,0,0,1-54.95-10Zm0,7.142A2.849,2.849,0,0,0-52.1-5.7,2.849,2.849,0,0,0-54.95-8.55,2.849,2.849,0,0,0-57.8-5.7,2.849,2.849,0,0,0-54.95-2.858Z" transform="translate(59.247 10)"/>
          </g>
          <g id="g93" transform="translate(30.413 29.031)">
            <path id="path95" d="M-45.675,0a3.571,3.571,0,0,0-3.571,3.571,3.571,3.571,0,0,0,3.571,3.571A3.571,3.571,0,0,0-42.1,3.571,3.571,3.571,0,0,0-45.675,0" transform="translate(49.247 0)" fill="#7f78bd"/>
          </g>
          <g id="g97" transform="translate(31.709 29.034)">
            <path id="path99" d="M-30.5,0a3.563,3.563,0,0,1,1.3,2.752,3.571,3.571,0,0,1-3.571,3.571l-.109,0a3.557,3.557,0,0,0,2.275.819,3.571,3.571,0,0,0,3.571-3.571A3.57,3.57,0,0,0-30.5,0" transform="translate(32.888)" fill="#5f55ad"/>
          </g>
          <g id="g101" transform="translate(29.688 28.306)">
            <path id="path103" d="M-54.95-10a4.3,4.3,0,0,1,4.3,4.3,4.3,4.3,0,0,1-4.3,4.3,4.3,4.3,0,0,1-4.3-4.3A4.3,4.3,0,0,1-54.95-10Zm0,7.142A2.849,2.849,0,0,0-52.1-5.7,2.849,2.849,0,0,0-54.95-8.55,2.849,2.849,0,0,0-57.8-5.7,2.849,2.849,0,0,0-54.95-2.858Z" transform="translate(59.247 10)"/>
          </g>
          <g id="g105" transform="translate(0.725 33.871)">
            <path id="path107" d="M-604.747,0h-46.512a.771.771,0,0,0-.771.771v1.57a.771.771,0,0,0,.771.771h46.512a.771.771,0,0,0,.771-.771V.771A.771.771,0,0,0-604.747,0" transform="translate(652.03 0)" fill="#80b6fc"/>
          </g>
          <g id="g109" transform="translate(2.962 36.983)">
            <path id="path111" d="M0,0V11.119a.483.483,0,0,0,.483.483H43.1a.483.483,0,0,0,.483-.483V0Z" fill="#80b6fc"/>
          </g>
          <g id="g113" transform="translate(43.401 36.983)">
            <path id="path115" d="M-6.183,0V11.119a.483.483,0,0,1-.483.483h2.659a.483.483,0,0,0,.483-.483V0Z" transform="translate(6.667)" fill="#5392f9"/>
          </g>
          <path id="path117" d="M40.839-170.015H84.42v-2.659H40.839Z" transform="translate(-37.877 209.657)" fill="#5392f9"/>
          <g id="g119" transform="translate(16.462 41.326)">
            <path id="path121" d="M-212.055-92.853h-16.58V-99.5a.617.617,0,0,1,.617-.617h15.346a.617.617,0,0,1,.617.617Z" transform="translate(228.635 100.113)" fill="#efedef"/>
          </g>
          <g id="g123" transform="translate(19.945 44.521)">
            <path id="path125" d="M-1.109-8.55H-9.275A.725.725,0,0,1-10-9.275.725.725,0,0,1-9.275-10h8.166a.725.725,0,0,1,.725.725A.725.725,0,0,1-1.109-8.55Z" transform="translate(10 10)"/>
          </g>
          <g id="g127" transform="translate(15.737 40.601)">
            <path id="path129" d="M7.305-101.4a.725.725,0,0,1-.725-.725v-6.535H-8.55v6.535a.725.725,0,0,1-.725.725.725.725,0,0,1-.725-.725v-6.643a1.344,1.344,0,0,1,1.342-1.342H6.688a1.344,1.344,0,0,1,1.342,1.342v6.643A.725.725,0,0,1,7.305-101.4Z" transform="translate(10 110.113)"/>
          </g>
          <g id="g131" transform="translate(39.537 36.258)">
            <path id="path133" d="M-3.477-156.947h-5.8a.725.725,0,0,1-.725-.725.725.725,0,0,1,.725-.725h5.556v-10.878A.725.725,0,0,1-2.994-170a.725.725,0,0,1,.725.725v11.119A1.21,1.21,0,0,1-3.477-156.947Z" transform="translate(10 170)"/>
          </g>
          <g id="g135" transform="translate(2.236 36.258)">
            <path id="path137" d="M24.642,3.053H-8.791A1.21,1.21,0,0,1-10,1.844V-9.275A.725.725,0,0,1-9.275-10a.725.725,0,0,1,.725.725V1.6H24.642a.725.725,0,1,1,0,1.45Z" transform="translate(10 10)"/>
          </g>
          <g id="g139" transform="translate(0 33.146)">
            <path id="path141" d="M-660.534-10h46.512a1.5,1.5,0,0,1,1.5,1.5v1.57a1.5,1.5,0,0,1-1.5,1.5h-46.512a1.5,1.5,0,0,1-1.5-1.5V-8.5A1.5,1.5,0,0,1-660.534-10Zm46.512,3.112.046-1.616-46.558-.046a.046.046,0,0,0-.046.046v1.57Z" transform="translate(662.031 10)"/>
          </g>
          <g id="g143" transform="translate(20.271 2.716)">
            <path id="path145" d="M-29.122-10a2.28,2.28,0,0,1,2.277,2.277,2.28,2.28,0,0,1-2.277,2.277A2.28,2.28,0,0,1-31.4-7.723,2.28,2.28,0,0,1-29.122-10Zm0,3.1a.828.828,0,0,0,.827-.827.828.828,0,0,0-.827-.827.828.828,0,0,0-.827.827A.828.828,0,0,0-29.122-6.9Z" transform="translate(31.399 10)"/>
          </g>
          <g id="g147" transform="translate(24.68 10.306)">
            <path id="path149" d="M-29.122-10a2.28,2.28,0,0,1,2.277,2.277,2.28,2.28,0,0,1-2.277,2.277A2.28,2.28,0,0,1-31.4-7.723,2.28,2.28,0,0,1-29.122-10Zm0,3.1a.828.828,0,0,0,.827-.827.828.828,0,0,0-.827-.827.828.828,0,0,0-.827.827A.828.828,0,0,0-29.122-6.9Z" transform="translate(31.399 10)"/>
          </g>
          <g id="g151" transform="translate(20.855 4.89)">
            <path id="path153" d="M-96.779-2.2a.723.723,0,0,1-.513-.212.725.725,0,0,1,0-1.026l6.346-6.346a.725.725,0,0,1,1.026,0,.725.725,0,0,1,0,1.026l-6.346,6.346A.723.723,0,0,1-96.779-2.2Z" transform="translate(97.504 10)"/>
          </g>
          <g id="g155" transform="translate(16.159 0.194)">
            <path id="path157" d="M-194.306-209.828h-13.2a2,2,0,0,1-2-2v-13.2a2,2,0,0,1,2-2h13.2a2,2,0,0,1,2,2v13.2A2,2,0,0,1-194.306-209.828Zm-13.2-15.737a.546.546,0,0,0-.545.545v13.2a.546.546,0,0,0,.545.545h13.2a.546.546,0,0,0,.545-.545v-13.2a.546.546,0,0,0-.545-.545Z" transform="translate(209.498 227.015)"/>
          </g>
        </g>
      </g>
    </g>
  </g>
</svg>
