<svg xmlns="http://www.w3.org/2000/svg" xmlns:xlink="http://www.w3.org/1999/xlink" width="102.949" height="102.949" viewBox="0 0 102.949 102.949">
  <defs>
    <filter id="Trazado_874925" x="0" y="0" width="102.949" height="102.949" filterUnits="userSpaceOnUse">
      <feOffset dy="3" input="SourceAlpha"/>
      <feGaussianBlur stdDeviation="3" result="blur"/>
      <feFlood flood-opacity="0.161"/>
      <feComposite operator="in" in2="blur"/>
      <feComposite in="SourceGraphic"/>
    </filter>
  </defs>
  <g id="Grupo_1182253" data-name="Grupo 1182253" transform="translate(-1064.051 -12641)">
    <g id="Grupo_1181924" data-name="Grupo 1181924" transform="translate(264.551 10129.843)">
      <g id="Grupo_1111316" data-name="Grupo 1111316" transform="translate(808.5 2517.157)">
        <g id="Grupo_1109835" data-name="Grupo 1109835" transform="translate(0 0)">
          <g id="Grupo_1107913" data-name="Grupo 1107913" transform="translate(0 0)">
            <g transform="matrix(1, 0, 0, 1, -9, -6)" filter="url(#Trazado_874925)">
              <g id="Trazado_874925-2" data-name="Trazado 874925" transform="translate(9 6)" fill="#4c6929" opacity="0.859">
                <path d="M 42.47446823120117 83.44929504394531 C 36.94229125976562 83.44929504394531 31.57638549804688 82.36614227294922 26.52582168579102 80.22994232177734 C 21.64678573608398 78.16628265380859 17.26464462280273 75.211669921875 13.50113868713379 71.44816589355469 C 9.737632751464844 67.68466949462891 6.78300952911377 63.30253982543945 4.719362258911133 58.42351913452148 C 2.583150625228882 53.37295150756836 1.499997615814209 48.00706100463867 1.499997615814209 42.47489547729492 C 1.499997615814209 36.94223403930664 2.583150625228882 31.57634162902832 4.719362258911133 26.52577781677246 C 6.78300952911377 21.64675331115723 9.737632751464844 17.26462364196777 13.50113868713379 13.50113010406494 C 17.26464462280273 9.737624168395996 21.64678573608398 6.783012390136719 26.52582168579102 4.719353199005127 C 31.57638549804688 2.583153486251831 36.94229125976562 1.500000476837158 42.47446823120117 1.500000476837158 C 48.00664520263672 1.500000476837158 53.37255096435547 2.583153486251831 58.42311477661133 4.719353199005127 C 63.30215072631836 6.783012390136719 67.68428802490234 9.737624168395996 71.44779968261719 13.50113010406494 C 75.2113037109375 17.26462364196777 78.16592407226562 21.64675331115723 80.22957611083984 26.52577781677246 C 82.36578369140625 31.57634162902832 83.44893646240234 36.94223403930664 83.44893646240234 42.47439956665039 C 83.44893646240234 48.00706100463867 82.36578369140625 53.37295150756836 80.22957611083984 58.42351913452148 C 78.16592407226562 63.30253982543945 75.2113037109375 67.68466949462891 71.44779968261719 71.44816589355469 C 67.68428802490234 75.211669921875 63.30215072631836 78.16628265380859 58.42311477661133 80.22994232177734 C 53.37255096435547 82.36614227294922 48.00664520263672 83.44929504394531 42.47446823120117 83.44929504394531 Z" stroke="none"/>
                <path d="M 42.47446823120117 2.999992370605469 C 37.14412307739258 2.999992370605469 31.97481536865234 4.04327392578125 27.11014938354492 6.100860595703125 C 22.40990829467773 8.088890075683594 18.18804168701172 10.93555450439453 14.56179809570312 14.56178283691406 C 10.93557739257812 18.18801116943359 8.088897705078125 22.40987396240234 6.100868225097656 27.11009979248047 C 4.043281555175781 31.97476577758789 3 37.14406204223633 3 42.47488784790039 C 3 47.80522155761719 4.043281555175781 52.97451400756836 6.100868225097656 57.83917999267578 C 8.088897705078125 62.53940582275391 10.93557739257812 66.76127624511719 14.56179809570312 70.38749694824219 C 18.18804168701172 74.01372528076172 22.40990829467773 76.86039733886719 27.11014938354492 78.84841918945312 C 31.97481536865234 80.906005859375 37.14412307739258 81.94928741455078 42.47446823120117 81.94928741455078 C 47.80481338500977 81.94928741455078 52.97412109375 80.906005859375 57.83879089355469 78.84841918945312 C 62.53902816772461 76.86039733886719 66.76089477539062 74.01372528076172 70.38713073730469 70.38749694824219 C 74.01335906982422 66.76127624511719 76.86003875732422 62.53940582275391 78.84806823730469 57.83917999267578 C 80.90565490722656 52.97451400756836 81.94893646240234 47.80522155761719 81.94893646240234 42.47439575195312 C 81.94893646240234 37.14406204223633 80.90565490722656 31.97476577758789 78.84806823730469 27.11009979248047 C 76.86003875732422 22.40987396240234 74.01335906982422 18.18801116943359 70.38713073730469 14.56178283691406 C 66.76089477539062 10.93555450439453 62.53902816772461 8.088890075683594 57.83879089355469 6.100860595703125 C 52.97412109375 4.04327392578125 47.80481338500977 2.999992370605469 42.47446823120117 2.999992370605469 M 42.47446823120117 -7.62939453125e-06 C 65.93246459960938 -7.62939453125e-06 84.94893646240234 19.01643371582031 84.94893646240234 42.47439575195312 L 84.94893646240234 42.47488784790039 C 84.94893646240234 65.93284606933594 65.93246459960938 84.94928741455078 42.47446823120117 84.94928741455078 C 19.01647186279297 84.94928741455078 0 65.93284606933594 0 42.47488784790039 L 0 42.47439575195312 C 0 19.01643371582031 19.01647186279297 -7.62939453125e-06 42.47446823120117 -7.62939453125e-06 Z" stroke="none" fill="#fff"/>
              </g>
            </g>
            <g id="Trazado_874923" data-name="Trazado 874923" transform="translate(0 0)" fill="none">
              <path d="M42.474,0A42.474,42.474,0,0,1,84.949,42.474h0A42.474,42.474,0,0,1,0,42.475H0A42.474,42.474,0,0,1,42.474,0Z" stroke="none"/>
              <path d="M 42.47446823120117 2.999992370605469 C 37.14412307739258 2.999992370605469 31.97481536865234 4.04327392578125 27.11014938354492 6.100860595703125 C 22.40990829467773 8.088890075683594 18.18804168701172 10.93555450439453 14.56179809570312 14.56178283691406 C 10.93557739257812 18.18801116943359 8.088897705078125 22.40987396240234 6.100868225097656 27.11009979248047 C 4.043281555175781 31.97476577758789 3 37.14406204223633 3 42.47488784790039 C 3 47.80522155761719 4.043281555175781 52.97451400756836 6.100868225097656 57.83917999267578 C 8.088897705078125 62.53940582275391 10.93557739257812 66.76127624511719 14.56179809570312 70.38749694824219 C 18.18804168701172 74.01372528076172 22.40990829467773 76.86039733886719 27.11014938354492 78.84841918945312 C 31.97481536865234 80.906005859375 37.14412307739258 81.94928741455078 42.47446823120117 81.94928741455078 C 47.80481338500977 81.94928741455078 52.97412109375 80.906005859375 57.83879089355469 78.84841918945312 C 62.53902816772461 76.86039733886719 66.76089477539062 74.01372528076172 70.38713073730469 70.38749694824219 C 74.01335906982422 66.76127624511719 76.86003875732422 62.53940582275391 78.84806823730469 57.83917999267578 C 80.90565490722656 52.97451400756836 81.94893646240234 47.80522155761719 81.94893646240234 42.47439575195312 C 81.94893646240234 37.14406204223633 80.90565490722656 31.97476577758789 78.84806823730469 27.11009979248047 C 76.86003875732422 22.40987396240234 74.01335906982422 18.18801116943359 70.38713073730469 14.56178283691406 C 66.76089477539062 10.93555450439453 62.53902816772461 8.088890075683594 57.83879089355469 6.100860595703125 C 52.97412109375 4.04327392578125 47.80481338500977 2.999992370605469 42.47446823120117 2.999992370605469 M 42.47446823120117 -7.62939453125e-06 C 65.93246459960938 -7.62939453125e-06 84.94893646240234 19.01643371582031 84.94893646240234 42.47439575195312 L 84.94893646240234 42.47488784790039 C 84.94893646240234 65.93284606933594 65.93246459960938 84.94928741455078 42.47446823120117 84.94928741455078 C 19.01647186279297 84.94928741455078 0 65.93284606933594 0 42.47488784790039 L 0 42.47439575195312 C 0 19.01643371582031 19.01647186279297 -7.62939453125e-06 42.47446823120117 -7.62939453125e-06 Z" stroke="none" fill="#fff"/>
            </g>
          </g>
        </g>
      </g>
    </g>
    <g id="fortalecer" transform="translate(1077.485 12664.01)">
      <g id="Grupo_1182252" data-name="Grupo 1182252" transform="translate(15.335 1.759)">
        <g id="Grupo_1182246" data-name="Grupo 1182246" transform="translate(0)">
          <path id="Trazado_910579" data-name="Trazado 910579" d="M48.716,53.808H41.239V50.056a18.915,18.915,0,0,1-6.805-2.821L31.779,49.89,26.492,44.6l2.654-2.654a18.914,18.914,0,0,1-2.821-6.805H22.574V27.666h3.752a18.916,18.916,0,0,1,2.821-6.806l-2.654-2.654,5.287-5.287,2.654,2.654a18.913,18.913,0,0,1,6.806-2.821V9h7.477v3.751a18.915,18.915,0,0,1,6.806,2.821l2.654-2.654,5.287,5.287L60.809,20.86a18.914,18.914,0,0,1,2.821,6.806h3.751v7.477H63.63a18.916,18.916,0,0,1-2.821,6.806L63.463,44.6,58.176,49.89l-2.654-2.654a18.915,18.915,0,0,1-6.806,2.821v3.752Z" transform="translate(-22.574 -9.001)" fill="#8d9ca8" fill-rule="evenodd"/>
          <circle id="Elipse_11670" data-name="Elipse 11670" cx="14.418" cy="14.418" r="14.418" transform="translate(7.986 7.985)" fill="#eff4f7"/>
        </g>
        <g id="Grupo_1182247" data-name="Grupo 1182247" transform="translate(17.292 10.378)">
          <path id="Trazado_910580" data-name="Trazado 910580" d="M212.963,191.717a5.112,5.112,0,1,0-10.223,0Z" transform="translate(-202.74 -179.937)" fill="#ffda2d" fill-rule="evenodd"/>
          <circle id="Elipse_11671" data-name="Elipse 11671" cx="2.763" cy="2.763" r="2.763" transform="translate(1.201 3.906) rotate(-45)" fill="#ffd6bd"/>
        </g>
        <g id="Grupo_1182248" data-name="Grupo 1182248" transform="translate(10.25 14.078)">
          <path id="Trazado_910581" data-name="Trazado 910581" d="M139.6,222.584a5.112,5.112,0,1,0-10.223,0Z" transform="translate(-129.372 -211.542)" fill="#64b5f6" fill-rule="evenodd"/>
          <circle id="Elipse_11672" data-name="Elipse 11672" cx="2.763" cy="2.763" r="2.763" transform="matrix(0.987, -0.16, 0.16, 0.987, 1.938, 0.884)" fill="#ffd6bd"/>
        </g>
        <g id="Grupo_1182249" data-name="Grupo 1182249" transform="translate(24.333 13.637)">
          <path id="Trazado_910582" data-name="Trazado 910582" d="M286.332,222.584a5.112,5.112,0,1,0-10.223,0Z" transform="translate(-276.109 -211.1)" fill="#64b5f6" fill-rule="evenodd"/>
          <circle id="Elipse_11673" data-name="Elipse 11673" cx="2.763" cy="2.763" r="2.763" transform="translate(1.513 5.105) rotate(-67.486)" fill="#ffd6bd"/>
        </g>
        <g id="Grupo_1182251" data-name="Grupo 1182251" transform="translate(1.655 21.352)">
          <path id="Trazado_910583" data-name="Trazado 910583" d="M91.539,254.238l12.517,15.545a2.183,2.183,0,0,1-3.087,3.087,2.183,2.183,0,0,1-3.087,3.087L96.2,274.274a2.183,2.183,0,0,1-3.087,3.087l-2.972-2.972a2.183,2.183,0,0,1-3.087,3.087L74.874,265.3l2.469-11.062Z" transform="translate(-71.509 -252.053)" fill="#ffd6bd" fill-rule="evenodd"/>
          <path id="Trazado_910584" data-name="Trazado 910584" d="M204.98,243.839c-.105.04-4.172-10.233-4.276-10.194-3.906,1.46-6.9,1.992-10.925-1.329a3.263,3.263,0,0,0-4.257-.109l-5.123,4.277a2.014,2.014,0,0,0-.778,2l1.554,7.121c3.951-.974,3.933-3.785,4.211-6.741.134-1.132,1.964-.822,4.26,1.27l9.45,9.587Z" transform="translate(-166.163 -231.469)" fill="#eaab92" fill-rule="evenodd"/>
          <g id="Grupo_1182250" data-name="Grupo 1182250" transform="translate(0 0.222)">
            <path id="Trazado_910585" data-name="Trazado 910585" d="M386.206,234.561l3.821-.761a.763.763,0,0,1,.894.6l2.969,14.9a.763.763,0,0,1-.6.894l-3.821.761a.763.763,0,0,1-.894-.6l-2.969-14.9A.763.763,0,0,1,386.206,234.561Z" transform="translate(-352.408 -233.785)" fill="#64b5f6" fill-rule="evenodd"/>
            <path id="Trazado_910586" data-name="Trazado 910586" d="M47.515,234.561l-3.821-.761a.763.763,0,0,0-.894.6l-2.969,14.9a.763.763,0,0,0,.6.894l3.821.761a.763.763,0,0,0,.894-.6l2.969-14.9A.763.763,0,0,0,47.515,234.561Z" transform="translate(-39.817 -233.785)" fill="#64b5f6" fill-rule="evenodd"/>
          </g>
        </g>
      </g>
      <path id="Trazado_910587" data-name="Trazado 910587" d="M59.371,27.132H56.918l-.665-3.338a1.527,1.527,0,0,0-1.8-1.2l-1.584.316a15.187,15.187,0,0,0-30.27,0l-1.584-.316a1.527,1.527,0,0,0-1.8,1.2l-.665,3.338H16.1V21.191h2.983a.772.772,0,0,0,.756-.618,18.1,18.1,0,0,1,2.7-6.529.769.769,0,0,0-.1-.969l-2.109-2.111,4.2-4.2,2.109,2.112a.77.77,0,0,0,.969.1,18.051,18.051,0,0,1,6.532-2.706.768.768,0,0,0,.616-.753V2.525h5.944V5.51a.768.768,0,0,0,.616.753,18.1,18.1,0,0,1,6.532,2.706.768.768,0,0,0,.969-.1l2.109-2.112,4.2,4.2-2.109,2.111a.768.768,0,0,0-.1.969,18.1,18.1,0,0,1,2.707,6.529.767.767,0,0,0,.751.618h2.983ZM53.907,39.749l3.807-.759L54.749,24.1l-3.807.759Zm-3.984.525,2.1-2.1-2.272-11.4c-2.512.779-5.767.979-9.642-2.219a2.513,2.513,0,0,0-3.277-.111l-5.12,4.277a1.262,1.262,0,0,0-.521,1.249l1.376,6.31c2.435-.9,2.6-2.765,2.82-5.265q.027-.285.054-.573v-.018a1.428,1.428,0,0,1,.928-1.217c1.086-.4,2.766.328,4.613,2.01a.192.192,0,0,0,.032.029Zm-.933,3.111a1.427,1.427,0,0,0,.294-1.572L39.938,32.33c-1.575-1.43-2.653-1.74-2.97-1.7-.014.173-.027.346-.045.517-.24,2.723-.512,5.808-4.739,6.851A.768.768,0,0,1,31.6,37.9a.754.754,0,0,1-.344-.488l-1.557-7.121a2.769,2.769,0,0,1,1.037-2.755L32.5,26.063H25.855L23.411,38.33l9.66,9.661a1.416,1.416,0,0,0,2,0,1.421,1.421,0,0,0,0-2l-2.58-2.581a.768.768,0,0,1,1.086-1.086l5.554,5.553a1.415,1.415,0,1,0,2-2L35.95,40.69A.768.768,0,1,1,37.037,39.6L43.9,46.472a1.412,1.412,0,0,0,2.413-1,1.392,1.392,0,0,0-.412-1v0l-6.5-6.5a.768.768,0,1,1,1.086-1.086l6.5,6.5h0a1.418,1.418,0,0,0,2,0Zm-4.214-20.85a4.356,4.356,0,0,0-3.087,1.3,7.894,7.894,0,0,0,7.179,1.593,4.345,4.345,0,0,0-4.088-2.891Zm0-1.536a2,2,0,1,0-2-2A2,2,0,0,0,44.777,21Zm-9.035-4.958a2,2,0,0,0,1.992,2h0a1.995,1.995,0,1,0-2-2Zm.113,7.217a3.934,3.934,0,0,1,4.59-.344,5.941,5.941,0,0,1,1.154-.977,4.347,4.347,0,0,0-3.861-2.366h0a4.341,4.341,0,0,0-3.861,2.369,5.989,5.989,0,0,1,1.652,1.594Zm-5.16-.724a4.334,4.334,0,0,0-3.648,1.993h7.288l0,0a4.367,4.367,0,0,0-3.644-1.989ZM28.7,19a2,2,0,1,0,2-2A2,2,0,0,0,28.7,19Zm21.936,4.352.72-.143a13.649,13.649,0,0,0-27.232,0l.715.143a1.516,1.516,0,0,1,.833.475,5.874,5.874,0,0,1,2.567-2.295A3.53,3.53,0,1,1,34.225,19c0,.069,0,.137,0,.205a5.74,5.74,0,0,1,1.059-.634,3.533,3.533,0,1,1,4.911,0,5.923,5.923,0,0,1,1.064.634c0-.068-.009-.136-.009-.205a3.531,3.531,0,1,1,5.989,2.533A5.885,5.885,0,0,1,49.8,23.83,1.521,1.521,0,0,1,50.634,23.355ZM21.564,39.749l2.965-14.89L20.722,24.1,17.757,38.99ZM60.141,19.656H57.008a19.53,19.53,0,0,0-2.458-5.933l2.214-2.216a.769.769,0,0,0,0-1.085L51.476,5.133a.769.769,0,0,0-1.086,0L48.177,7.349a19.541,19.541,0,0,0-5.935-2.459V1.758a.769.769,0,0,0-.77-.768H34a.769.769,0,0,0-.77.768V4.891a19.562,19.562,0,0,0-5.934,2.459L25.081,5.133a.769.769,0,0,0-1.086,0l-5.287,5.287a.769.769,0,0,0,0,1.085l2.218,2.216a19.566,19.566,0,0,0-2.462,5.933H15.331a.767.767,0,0,0-.765.768V27.9a.767.767,0,0,0,.765.768h2.915l-2,10.03a1.511,1.511,0,0,0,.226,1.147,1.536,1.536,0,0,0,.973.651l3.821.761a1.5,1.5,0,0,0,.3.03,1.536,1.536,0,0,0,1.48-1.148l8.936,8.939a2.955,2.955,0,0,0,4.174,0,2.9,2.9,0,0,0,.747-1.257l1.141,1.141a2.957,2.957,0,0,0,4.174,0,2.983,2.983,0,0,0,.747-1.264,2.946,2.946,0,0,0,4.884-2.226V45.33a2.942,2.942,0,0,0,2.227-.86,2.98,2.98,0,0,0,.742-2.919l1.571-1.571.014.076a1.53,1.53,0,0,0,1.5,1.229,1.509,1.509,0,0,0,.3-.03l3.821-.761a1.526,1.526,0,0,0,1.2-1.8l-2-10.03H60.14a.771.771,0,0,0,.77-.768V20.423a.771.771,0,0,0-.769-.768Z" transform="translate(0 0)" fill-rule="evenodd"/>
    </g>
  </g>
</svg>
