<svg xmlns="http://www.w3.org/2000/svg" xmlns:xlink="http://www.w3.org/1999/xlink" width="117.999" height="118" viewBox="0 0 117.999 118">
  <defs>
    <filter id="Trazado_874925" x="0" y="0" width="117.999" height="118" filterUnits="userSpaceOnUse">
      <feOffset dy="3" input="SourceAlpha"/>
      <feGaussianBlur stdDeviation="3" result="blur"/>
      <feFlood flood-opacity="0.161"/>
      <feComposite operator="in" in2="blur"/>
      <feComposite in="SourceGraphic"/>
    </filter>
  </defs>
  <g id="Grupo_1182137" data-name="Grupo 1182137" transform="translate(-417.051 -8350)">
    <g id="Grupo_1118041" data-name="Grupo 1118041" transform="translate(-376.73 6416.001)">
      <g id="Grupo_1111552" data-name="Grupo 1111552" transform="translate(-5.719 -577.158)">
        <g id="Grupo_1111316" data-name="Grupo 1111316" transform="translate(808.5 2517.157)">
          <g id="Grupo_1109835" data-name="Grupo 1109835" transform="translate(0 0)">
            <g id="Grupo_1107913" data-name="Grupo 1107913" transform="translate(0 0)">
              <g transform="matrix(1, 0, 0, 1, -9, -6)" filter="url(#Trazado_874925)">
                <g id="Trazado_874925-2" data-name="Trazado 874925" transform="translate(9 6)" fill="#9cc8ff" opacity="0.859">
                  <path d="M 49.99972534179688 98.4998779296875 C 43.45164108276367 98.4998779296875 37.10022354125977 97.21776580810547 31.12189674377441 94.68914794921875 C 25.34676742553711 92.24647521972656 20.15985298156738 88.74925994873047 15.70523929595947 84.29464721679688 C 11.25062561035156 79.84004974365234 7.753411293029785 74.65313720703125 5.310725212097168 68.87800598144531 C 2.782111167907715 62.89969253540039 1.499996781349182 56.54829406738281 1.499996781349182 50.00022125244141 C 1.499996781349182 43.45157623291016 2.782111167907715 37.10017776489258 5.310725212097168 31.12186431884766 C 7.753411293029785 25.34673500061035 11.25062561035156 20.15983581542969 15.70523929595947 15.70522117614746 C 20.15985298156738 11.25062084197998 25.34676742553711 7.753406524658203 31.12189674377441 5.31073522567749 C 37.10022354125977 2.782120943069458 43.45164108276367 1.500006556510925 49.99972534179688 1.500006556510925 C 56.54780960083008 1.500006556510925 62.89922714233398 2.782120943069458 68.87755584716797 5.31073522567749 C 74.65267944335938 7.753406524658203 79.839599609375 11.25062084197998 84.29421234130859 15.70522117614746 C 88.74882507324219 20.15983581542969 92.24604034423828 25.34673500061035 94.68872833251953 31.12186431884766 C 97.21733856201172 37.10017776489258 98.49945068359375 43.45157623291016 98.49945068359375 49.99964904785156 C 98.49945068359375 56.54829406738281 97.21733856201172 62.89969253540039 94.68872833251953 68.87800598144531 C 92.24604034423828 74.65313720703125 88.74882507324219 79.84004974365234 84.29421234130859 84.29464721679688 C 79.839599609375 88.74925994873047 74.65267944335938 92.24647521972656 68.87755584716797 94.68914794921875 C 62.89922714233398 97.21776580810547 56.54780960083008 98.4998779296875 49.99972534179688 98.4998779296875 Z" stroke="none"/>
                  <path d="M 49.99972534179688 3 C 43.65348052978516 3 37.49866485595703 4.242240905761719 31.70623016357422 6.692230224609375 C 26.10989379882812 9.059272766113281 21.08323669433594 12.44853210449219 16.76589202880859 16.76587677001953 C 12.44855499267578 21.08321380615234 9.059295654296875 26.10985565185547 6.692230224609375 31.70618438720703 C 4.24224853515625 37.49859619140625 3 43.65341186523438 3 50.00022888183594 C 3 56.34645843505859 4.24224853515625 62.50127410888672 6.692230224609375 68.29368591308594 C 9.059295654296875 73.8900146484375 12.44855499267578 78.91665649414062 16.76589202880859 83.23399353027344 C 21.08323669433594 87.55132293701172 26.10989379882812 90.94059753417969 31.70623016357422 93.30764007568359 C 37.49866485595703 95.75762939453125 43.65348052978516 96.99987030029297 49.99972534179688 96.99987030029297 C 56.34597015380859 96.99987030029297 62.50078582763672 95.75762939453125 68.293212890625 93.30764007568359 C 73.88955688476562 90.94059753417969 78.91621398925781 87.55132293701172 83.23355865478516 83.23399353027344 C 87.55089569091797 78.91665649414062 90.94015502929688 73.8900146484375 93.30722045898438 68.29368591308594 C 95.7572021484375 62.50127410888672 96.99945068359375 56.34645843505859 96.99945068359375 49.99964141845703 C 96.99945068359375 43.65341186523438 95.7572021484375 37.49859619140625 93.30722045898438 31.70618438720703 C 90.94015502929688 26.10985565185547 87.55089569091797 21.08321380615234 83.23355865478516 16.76587677001953 C 78.91621398925781 12.44853210449219 73.88955688476562 9.059272766113281 68.293212890625 6.692230224609375 C 62.50078582763672 4.242240905761719 56.34597015380859 3 49.99972534179688 3 M 49.99972534179688 0 C 77.61381530761719 0 99.99945068359375 22.38559722900391 99.99945068359375 49.99964141845703 L 99.99945068359375 50.00022888183594 C 99.99945068359375 77.6142578125 77.61381530761719 99.99987030029297 49.99972534179688 99.99987030029297 C 22.38563537597656 99.99987030029297 0 77.6142578125 0 50.00022888183594 L 0 49.99964141845703 C 0 22.38559722900391 22.38563537597656 0 49.99972534179688 0 Z" stroke="none" fill="#fff"/>
                </g>
              </g>
              <g id="Trazado_874923" data-name="Trazado 874923" transform="translate(0 0)" fill="none">
                <path d="M50,0a50,50,0,0,1,50,50h0A50,50,0,0,1,0,50H0A50,50,0,0,1,50,0Z" stroke="none"/>
                <path d="M 49.99972534179688 3 C 43.65348052978516 3 37.49866485595703 4.242240905761719 31.70623016357422 6.692230224609375 C 26.10989379882812 9.059272766113281 21.08323669433594 12.44853210449219 16.76589202880859 16.76587677001953 C 12.44855499267578 21.08321380615234 9.059295654296875 26.10985565185547 6.692230224609375 31.70618438720703 C 4.24224853515625 37.49859619140625 3 43.65341186523438 3 50.00022888183594 C 3 56.34645843505859 4.24224853515625 62.50127410888672 6.692230224609375 68.29368591308594 C 9.059295654296875 73.8900146484375 12.44855499267578 78.91665649414062 16.76589202880859 83.23399353027344 C 21.08323669433594 87.55132293701172 26.10989379882812 90.94059753417969 31.70623016357422 93.30764007568359 C 37.49866485595703 95.75762939453125 43.65348052978516 96.99987030029297 49.99972534179688 96.99987030029297 C 56.34597015380859 96.99987030029297 62.50078582763672 95.75762939453125 68.293212890625 93.30764007568359 C 73.88955688476562 90.94059753417969 78.91621398925781 87.55132293701172 83.23355865478516 83.23399353027344 C 87.55089569091797 78.91665649414062 90.94015502929688 73.8900146484375 93.30722045898438 68.29368591308594 C 95.7572021484375 62.50127410888672 96.99945068359375 56.34645843505859 96.99945068359375 49.99964141845703 C 96.99945068359375 43.65341186523438 95.7572021484375 37.49859619140625 93.30722045898438 31.70618438720703 C 90.94015502929688 26.10985565185547 87.55089569091797 21.08321380615234 83.23355865478516 16.76587677001953 C 78.91621398925781 12.44853210449219 73.88955688476562 9.059272766113281 68.293212890625 6.692230224609375 C 62.50078582763672 4.242240905761719 56.34597015380859 3 49.99972534179688 3 M 49.99972534179688 0 C 77.61381530761719 0 99.99945068359375 22.38559722900391 99.99945068359375 49.99964141845703 L 99.99945068359375 50.00022888183594 C 99.99945068359375 77.6142578125 77.61381530761719 99.99987030029297 49.99972534179688 99.99987030029297 C 22.38563537597656 99.99987030029297 0 77.6142578125 0 50.00022888183594 L 0 49.99964141845703 C 0 22.38559722900391 22.38563537597656 0 49.99972534179688 0 Z" stroke="none" fill="#fff"/>
              </g>
            </g>
          </g>
        </g>
      </g>
    </g>
    <g id="calendario" transform="translate(447.051 8376)">
      <g id="Grupo_1182135" data-name="Grupo 1182135" transform="translate(1.924 1.924)">
        <g id="Grupo_1182128" data-name="Grupo 1182128" transform="translate(9.854)">
          <path id="Trazado_910281" data-name="Trazado 910281" d="M12.67,13.082,15.745,2H54.533A1.852,1.852,0,0,1,56.38,3.847V37.823a12.877,12.877,0,0,0-3.694-3.943v-20.8H12.67Z" transform="translate(-12.67 -2)" fill="#e6e9ed"/>
        </g>
        <g id="Grupo_1182129" data-name="Grupo 1182129" transform="translate(0 12.006)">
          <path id="Trazado_910282" data-name="Trazado 910282" d="M5.694,15V41.782H32.088a12.853,12.853,0,0,0-.536,3.694H3.847A1.852,1.852,0,0,1,2,43.629V18.694A3.693,3.693,0,0,1,5.694,15Z" transform="translate(-2 -15)" fill="#e6e9ed"/>
        </g>
        <g id="Grupo_1182130" data-name="Grupo 1182130" transform="translate(3.694 11.082)">
          <path id="Trazado_910283" data-name="Trazado 910283" d="M6,14H52.176V41.705H6Z" transform="translate(-6 -14)" fill="#ffeaa7"/>
        </g>
        <g id="Grupo_1182131" data-name="Grupo 1182131" transform="translate(14.776 3.694)">
          <path id="Trazado_910284" data-name="Trazado 910284" d="M18,6H53.093V9.694H18Z" transform="translate(-18 -6)" fill="#ff826e"/>
        </g>
        <g id="Grupo_1182132" data-name="Grupo 1182132">
          <path id="Trazado_910285" data-name="Trazado 910285" d="M2,15.853,14.929,2,11.854,13.082l-1.542,5.541H9.388V17.7A3.694,3.694,0,0,0,2,17.7Z" transform="translate(-2 -2)" fill="#b4dd7f"/>
        </g>
        <g id="Grupo_1182133" data-name="Grupo 1182133" transform="translate(29.552 29.552)">
          <path id="Trazado_910286" data-name="Trazado 910286" d="M58.011,40.271a12.926,12.926,0,1,1-23.476,2.964h.009a12.52,12.52,0,0,1,1.3-2.964,12.946,12.946,0,0,1,9.235-6.141A13.483,13.483,0,0,1,46.929,34a12.975,12.975,0,0,1,11.082,6.271Z" transform="translate(-34 -34)" fill="#69d6f4"/>
        </g>
        <g id="Grupo_1182134" data-name="Grupo 1182134" transform="translate(40.635 40.635)">
          <path id="Trazado_910287" data-name="Trazado 910287" d="M49.149,49.149a1.806,1.806,0,0,1-1.3.545,1.847,1.847,0,1,1,1.847-1.847A1.806,1.806,0,0,1,49.149,49.149Z" transform="translate(-46 -46)" fill="#ff826e"/>
        </g>
      </g>
      <g id="Grupo_1182136" data-name="Grupo 1182136" transform="translate(1 1)">
        <path id="Trazado_910288" data-name="Trazado 910288" d="M50.541,47.465a2.767,2.767,0,0,0-1.847-2.6V41H46.847v3.864a2.764,2.764,0,0,0,.924,5.371,2.725,2.725,0,0,0,1.187-.278l2.778,2.778,1.306-1.306-2.778-2.778A2.725,2.725,0,0,0,50.541,47.465Zm-3.694,0a.924.924,0,1,1,.924.924A.924.924,0,0,1,46.847,47.465Z" transform="translate(-4.365 -4.059)"/>
        <circle id="Elipse_11652" data-name="Elipse 11652" cx="1" cy="1" r="1" transform="translate(42 33.258)"/>
        <path id="Trazado_910289" data-name="Trazado 910289" d="M40.271,40.271a.923.923,0,1,0,1.306,0A.922.922,0,0,0,40.271,40.271Z" transform="translate(-3.983 -3.983)"/>
        <circle id="Elipse_11653" data-name="Elipse 11653" cx="1" cy="1" r="1" transform="translate(33 42.258)"/>
        <path id="Trazado_910290" data-name="Trazado 910290" d="M40.271,54.271a.923.923,0,1,0,1.306,0A.922.922,0,0,0,40.271,54.271Z" transform="translate(-3.983 -5.054)"/>
        <circle id="Elipse_11654" data-name="Elipse 11654" cx="1" cy="1" r="1" transform="translate(42 51.258)"/>
        <path id="Trazado_910291" data-name="Trazado 910291" d="M54.271,54.271a.923.923,0,1,0,1.306,0A.922.922,0,0,0,54.271,54.271Z" transform="translate(-5.054 -5.054)"/>
        <circle id="Elipse_11655" data-name="Elipse 11655" cx="1" cy="1" r="1" transform="translate(52 42.258)"/>
        <path id="Trazado_910292" data-name="Trazado 910292" d="M54.271,40.271a.923.923,0,1,0,1.306,0A.922.922,0,0,0,54.271,40.271Z" transform="translate(-5.054 -3.983)"/>
        <path id="Trazado_910293" data-name="Trazado 910293" d="M53.941,10.541V5H17v5.541ZM18.847,6.847H52.093V8.694H18.847Z" transform="translate(-2.224 -1.306)"/>
        <path id="Trazado_910294" data-name="Trazado 910294" d="M56.411,37.523V3.771A2.774,2.774,0,0,0,53.64,1H14.451L1,15.41V42.558a2.774,2.774,0,0,0,2.771,2.771H30.6a13.844,13.844,0,1,0,25.811-7.806ZM54.564,3.771V35.019a13.958,13.958,0,0,0-1.847-1.67V12.082H12.989l2.566-9.235H53.64A.924.924,0,0,1,54.564,3.771ZM50.87,21.317H43.482V13.929H50.87Zm-9.235,0H34.246V13.929h7.388Zm0,9.235H34.246V23.164h7.388ZM6.541,23.164h7.388v7.388H6.541Zm9.235,0h7.388v7.388H15.776Zm9.235,0H32.4v7.388H25.011ZM32.4,21.317H25.011V13.929H32.4Zm-9.235,0H15.776V13.929h7.388Zm-9.235,0H6.541V15.023a2.767,2.767,0,0,1,1.847,2.6V19.47h2.549l1.539-5.541h1.453Zm-3.964-5.25a4.623,4.623,0,0,0-4.2-3.05l7.191-7.7ZM6.541,32.4h7.388v7.388H6.541Zm9.235,0h7.388v7.388H15.776Zm9.235,0H32.4v5.124a13.745,13.745,0,0,0-1.039,2.264H25.011Zm9.235,0h3.277a13.926,13.926,0,0,0-3.277,2.619Zm9.235-9.235H50.87v9a13.76,13.76,0,0,0-6.465-1.61c-.312,0-.617.027-.924.047ZM2.847,42.558V17.623a2.767,2.767,0,0,1,1.847-2.6V41.635H30.831a13.809,13.809,0,0,0-.233,1.847H3.771a.924.924,0,0,1-.924-.924ZM44.405,56.411A12.006,12.006,0,1,1,56.411,44.405,12.02,12.02,0,0,1,44.405,56.411Z" transform="translate(-1 -1)"/>
        <path id="Trazado_910295" data-name="Trazado 910295" d="M54.14,27.6l-1.306-1.306-3.041,3.041L48.6,28.14l-1.306,1.306,2.5,2.5Z" transform="translate(-4.541 -2.935)"/>
        <path id="Trazado_910296" data-name="Trazado 910296" d="M19.793,21.946,24.14,17.6l-1.306-1.306-3.041,3.041L18.6,18.14l-1.306,1.306Z" transform="translate(-2.246 -2.17)"/>
        <path id="Trazado_910297" data-name="Trazado 910297" d="M34.14,37.6l-1.306-1.306-3.041,3.041L28.6,38.14l-1.306,1.306,2.5,2.5Z" transform="translate(-3.011 -3.699)"/>
      </g>
    </g>
  </g>
</svg>
