<svg xmlns="http://www.w3.org/2000/svg" xmlns:xlink="http://www.w3.org/1999/xlink" width="118" height="118" viewBox="0 0 118 118">
  <defs>
    <filter id="Trazado_874925" x="0" y="0" width="117.999" height="118" filterUnits="userSpaceOnUse">
      <feOffset dy="3" input="SourceAlpha"/>
      <feGaussianBlur stdDeviation="3" result="blur"/>
      <feFlood flood-opacity="0.161"/>
      <feComposite operator="in" in2="blur"/>
      <feComposite in="SourceGraphic"/>
    </filter>
    <clipPath id="clip-path">
      <path id="path6054" d="M0-682.665H61.188v61.188H0Z" transform="translate(0 682.665)"/>
    </clipPath>
  </defs>
  <g id="Grupo_1182140" data-name="Grupo 1182140" transform="translate(-1064.051 -8350)">
    <g id="Grupo_1181900" data-name="Grupo 1181900" transform="translate(-44.083 6416.001)">
      <g id="Grupo_1111553" data-name="Grupo 1111553" transform="translate(308.634 -577.158)">
        <g id="Grupo_1111316" data-name="Grupo 1111316" transform="translate(808.5 2517.157)">
          <g id="Grupo_1109835" data-name="Grupo 1109835" transform="translate(0 0)">
            <g id="Grupo_1107913" data-name="Grupo 1107913" transform="translate(0 0)">
              <g transform="matrix(1, 0, 0, 1, -9, -6)" filter="url(#Trazado_874925)">
                <g id="Trazado_874925-2" data-name="Trazado 874925" transform="translate(9 6)" fill="#9cc8ff" opacity="0.859">
                  <path d="M 49.99972534179688 98.4998779296875 C 43.45164108276367 98.4998779296875 37.10022354125977 97.21776580810547 31.12189674377441 94.68914794921875 C 25.34676742553711 92.24647521972656 20.15985298156738 88.74925994873047 15.70523929595947 84.29464721679688 C 11.25062561035156 79.84004974365234 7.753411293029785 74.65313720703125 5.310725212097168 68.87800598144531 C 2.782111167907715 62.89969253540039 1.499996781349182 56.54829406738281 1.499996781349182 50.00022125244141 C 1.499996781349182 43.45157623291016 2.782111167907715 37.10017776489258 5.310725212097168 31.12186431884766 C 7.753411293029785 25.34673500061035 11.25062561035156 20.15983581542969 15.70523929595947 15.70522117614746 C 20.15985298156738 11.25062084197998 25.34676742553711 7.753406524658203 31.12189674377441 5.31073522567749 C 37.10022354125977 2.782120943069458 43.45164108276367 1.500006556510925 49.99972534179688 1.500006556510925 C 56.54780960083008 1.500006556510925 62.89922714233398 2.782120943069458 68.87755584716797 5.31073522567749 C 74.65267944335938 7.753406524658203 79.839599609375 11.25062084197998 84.29421234130859 15.70522117614746 C 88.74882507324219 20.15983581542969 92.24604034423828 25.34673500061035 94.68872833251953 31.12186431884766 C 97.21733856201172 37.10017776489258 98.49945068359375 43.45157623291016 98.49945068359375 49.99964904785156 C 98.49945068359375 56.54829406738281 97.21733856201172 62.89969253540039 94.68872833251953 68.87800598144531 C 92.24604034423828 74.65313720703125 88.74882507324219 79.84004974365234 84.29421234130859 84.29464721679688 C 79.839599609375 88.74925994873047 74.65267944335938 92.24647521972656 68.87755584716797 94.68914794921875 C 62.89922714233398 97.21776580810547 56.54780960083008 98.4998779296875 49.99972534179688 98.4998779296875 Z" stroke="none"/>
                  <path d="M 49.99972534179688 3 C 43.65348052978516 3 37.49866485595703 4.242240905761719 31.70623016357422 6.692230224609375 C 26.10989379882812 9.059272766113281 21.08323669433594 12.44853210449219 16.76589202880859 16.76587677001953 C 12.44855499267578 21.08321380615234 9.059295654296875 26.10985565185547 6.692230224609375 31.70618438720703 C 4.24224853515625 37.49859619140625 3 43.65341186523438 3 50.00022888183594 C 3 56.34645843505859 4.24224853515625 62.50127410888672 6.692230224609375 68.29368591308594 C 9.059295654296875 73.8900146484375 12.44855499267578 78.91665649414062 16.76589202880859 83.23399353027344 C 21.08323669433594 87.55132293701172 26.10989379882812 90.94059753417969 31.70623016357422 93.30764007568359 C 37.49866485595703 95.75762939453125 43.65348052978516 96.99987030029297 49.99972534179688 96.99987030029297 C 56.34597015380859 96.99987030029297 62.50078582763672 95.75762939453125 68.293212890625 93.30764007568359 C 73.88955688476562 90.94059753417969 78.91621398925781 87.55132293701172 83.23355865478516 83.23399353027344 C 87.55089569091797 78.91665649414062 90.94015502929688 73.8900146484375 93.30722045898438 68.29368591308594 C 95.7572021484375 62.50127410888672 96.99945068359375 56.34645843505859 96.99945068359375 49.99964141845703 C 96.99945068359375 43.65341186523438 95.7572021484375 37.49859619140625 93.30722045898438 31.70618438720703 C 90.94015502929688 26.10985565185547 87.55089569091797 21.08321380615234 83.23355865478516 16.76587677001953 C 78.91621398925781 12.44853210449219 73.88955688476562 9.059272766113281 68.293212890625 6.692230224609375 C 62.50078582763672 4.242240905761719 56.34597015380859 3 49.99972534179688 3 M 49.99972534179688 0 C 77.61381530761719 0 99.99945068359375 22.38559722900391 99.99945068359375 49.99964141845703 L 99.99945068359375 50.00022888183594 C 99.99945068359375 77.6142578125 77.61381530761719 99.99987030029297 49.99972534179688 99.99987030029297 C 22.38563537597656 99.99987030029297 0 77.6142578125 0 50.00022888183594 L 0 49.99964141845703 C 0 22.38559722900391 22.38563537597656 0 49.99972534179688 0 Z" stroke="none" fill="#fff"/>
                </g>
              </g>
              <g id="Trazado_874923" data-name="Trazado 874923" transform="translate(0 0)" fill="none">
                <path d="M50,0a50,50,0,0,1,50,50h0A50,50,0,0,1,0,50H0A50,50,0,0,1,50,0Z" stroke="none"/>
                <path d="M 49.99972534179688 3 C 43.65348052978516 3 37.49866485595703 4.242240905761719 31.70623016357422 6.692230224609375 C 26.10989379882812 9.059272766113281 21.08323669433594 12.44853210449219 16.76589202880859 16.76587677001953 C 12.44855499267578 21.08321380615234 9.059295654296875 26.10985565185547 6.692230224609375 31.70618438720703 C 4.24224853515625 37.49859619140625 3 43.65341186523438 3 50.00022888183594 C 3 56.34645843505859 4.24224853515625 62.50127410888672 6.692230224609375 68.29368591308594 C 9.059295654296875 73.8900146484375 12.44855499267578 78.91665649414062 16.76589202880859 83.23399353027344 C 21.08323669433594 87.55132293701172 26.10989379882812 90.94059753417969 31.70623016357422 93.30764007568359 C 37.49866485595703 95.75762939453125 43.65348052978516 96.99987030029297 49.99972534179688 96.99987030029297 C 56.34597015380859 96.99987030029297 62.50078582763672 95.75762939453125 68.293212890625 93.30764007568359 C 73.88955688476562 90.94059753417969 78.91621398925781 87.55132293701172 83.23355865478516 83.23399353027344 C 87.55089569091797 78.91665649414062 90.94015502929688 73.8900146484375 93.30722045898438 68.29368591308594 C 95.7572021484375 62.50127410888672 96.99945068359375 56.34645843505859 96.99945068359375 49.99964141845703 C 96.99945068359375 43.65341186523438 95.7572021484375 37.49859619140625 93.30722045898438 31.70618438720703 C 90.94015502929688 26.10985565185547 87.55089569091797 21.08321380615234 83.23355865478516 16.76587677001953 C 78.91621398925781 12.44853210449219 73.88955688476562 9.059272766113281 68.293212890625 6.692230224609375 C 62.50078582763672 4.242240905761719 56.34597015380859 3 49.99972534179688 3 M 49.99972534179688 0 C 77.61381530761719 0 99.99945068359375 22.38559722900391 99.99945068359375 49.99964141845703 L 99.99945068359375 50.00022888183594 C 99.99945068359375 77.6142578125 77.61381530761719 99.99987030029297 49.99972534179688 99.99987030029297 C 22.38563537597656 99.99987030029297 0 77.6142578125 0 50.00022888183594 L 0 49.99964141845703 C 0 22.38559722900391 22.38563537597656 0 49.99972534179688 0 Z" stroke="none" fill="#fff"/>
              </g>
            </g>
          </g>
        </g>
      </g>
    </g>
    <g id="g6048" transform="translate(1093.051 9057.665)">
      <g id="g6050" transform="translate(0 -682.665)">
        <g id="g6052" clip-path="url(#clip-path)">
          <g id="g6058" transform="translate(8.966 9.082)">
            <path id="path6060" d="M-439.354-219.676a21.628,21.628,0,0,1-21.628,21.628,21.628,21.628,0,0,1-21.629-21.628A21.628,21.628,0,0,1-460.982-241.3a21.628,21.628,0,0,1,21.628,21.628" transform="translate(482.611 241.305)" fill="#fb7073"/>
          </g>
          <g id="g6062" transform="translate(20.906 0.896)">
            <path id="path6064" d="M0-123.119v-12.122H19.834v12.122l-9.917,2.405Z" transform="translate(0 135.241)" fill="#5bb68d"/>
          </g>
          <g id="g6066" transform="translate(15.576 20.554)">
            <path id="path6068" d="M-25.18,0a2.48,2.48,0,0,0-2.479,2.48A2.479,2.479,0,0,0-25.18,4.959h2.851l1.407-2.48L-22.328,0Z" transform="translate(27.659)" fill="#e2b09a"/>
          </g>
          <g id="g6070" transform="translate(22.252 48.324)">
            <path id="path6072" d="M-20.477-56.092a2.48,2.48,0,0,0,3.506,0,2.479,2.479,0,0,0,0-3.506l-2.016-2.016-2.748.758-.758,2.748Z" transform="translate(22.493 61.615)" fill="#e2b09a"/>
          </g>
          <g id="g6074" transform="translate(32.688 48.324)">
            <path id="path6076" d="M-42.988-56.092a2.48,2.48,0,0,1-3.506,0,2.479,2.479,0,0,1,0-3.506l2.016-2.016,2.748.758.758,2.748Z" transform="translate(47.221 61.615)" fill="#e2b09a"/>
          </g>
          <g id="g6078" transform="translate(20.906 15.424)">
            <path id="path6080" d="M-75.546-159.028a2.479,2.479,0,0,1-2.48-2.479,2.479,2.479,0,0,1-2.479,2.479,2.479,2.479,0,0,1-2.479-2.479v-10.773l9.917-2.406,9.917,2.406v10.773a2.479,2.479,0,0,1-2.479,2.479,2.479,2.479,0,0,1-2.479-2.479,2.479,2.479,0,0,1-2.48,2.479,2.479,2.479,0,0,1-2.479-2.479,2.479,2.479,0,0,1-2.479,2.479" transform="translate(82.984 174.685)" fill="#fac4ae"/>
          </g>
          <g id="g6082" transform="translate(6.3 31.389)">
            <path id="path6084" d="M-184.2-78.6a2.479,2.479,0,0,1,0,3.506,2.479,2.479,0,0,1,3.506,0,2.479,2.479,0,0,1,0,3.506l-7.617,7.617-8.713-5.311-5.311-8.713,7.617-7.617a2.479,2.479,0,0,1,3.506,0,2.479,2.479,0,0,1,0,3.506,2.48,2.48,0,0,1,3.506,0,2.479,2.479,0,0,1,0,3.506,2.479,2.479,0,0,1,3.506,0" transform="translate(202.337 86.335)" fill="#fac4ae"/>
          </g>
          <g id="g6086" transform="translate(0.896 43.134)">
            <path id="path6088" d="M0-20.336H0V-5.181H12.894l3.133-3.133-5.311-8.713L2-22.339Z" transform="translate(0 22.339)" fill="#87cde9"/>
          </g>
          <g id="g6090" transform="translate(32.519 31.389)">
            <path id="path6092" d="M-42.989-78.6a2.479,2.479,0,0,0,0,3.506,2.479,2.479,0,0,0-3.506,0,2.479,2.479,0,0,0,0,3.506l7.617,7.617,8.713-5.311,5.311-8.713-7.617-7.617a2.479,2.479,0,0,0-3.506,0,2.479,2.479,0,0,0,0,3.506,2.48,2.48,0,0,0-3.506,0,2.479,2.479,0,0,0,0,3.506,2.479,2.479,0,0,0-3.506,0" transform="translate(47.221 86.335)" fill="#fac4ae"/>
          </g>
          <g id="g6094" transform="translate(44.265 43.134)">
            <path id="path6096" d="M-162.783-20.336h0V-5.181h-12.894l-3.133-3.133,5.311-8.713,8.713-5.311Z" transform="translate(178.81 22.339)" fill="#f9db69"/>
          </g>
          <path id="path6098" d="M233.245-532.613h19.834v-4.811H233.245Z" transform="translate(-212.339 550.442)" fill="#efedee"/>
          <g id="g6100" transform="translate(2.899 39.732)">
            <path id="path6102" d="M-177-142.447l-14.025-14.025-3.4,3.4,14.025,14.025Z" transform="translate(194.426 156.472)" fill="#efedee"/>
          </g>
          <g id="g6104" transform="translate(40.863 39.732)">
            <path id="path6106" d="M0-142.447l14.025-14.025,3.4,3.4L3.4-139.045Z" transform="translate(0 156.472)" fill="#efedee"/>
          </g>
          <g id="g6108" transform="translate(22.858 14.72)">
            <path id="path6110" d="M-7.146-14.29a.7.7,0,0,1-.7-.7.7.7,0,0,1,.7-.7.7.7,0,0,1,.7.7.7.7,0,0,1-.7.7" transform="translate(7.849 15.697)"/>
          </g>
          <g id="g6112" transform="translate(16.043 52.877)">
            <path id="path6114" d="M-12.2-2.093a.7.7,0,0,1,0,.995.7.7,0,0,1-.995,0,.7.7,0,0,1,0-.995.7.7,0,0,1,.995,0" transform="translate(13.399 2.299)"/>
          </g>
          <g id="g6116" transform="translate(43.738 52.877)">
            <path id="path6118" d="M-2.093-2.093a.7.7,0,0,0,0,.995.7.7,0,0,0,.995,0,.7.7,0,0,0,0-.995.7.7,0,0,0-.995,0" transform="translate(2.299 2.299)"/>
          </g>
          <g id="g6120" transform="translate(21.356 47.428)">
            <path id="path6122" d="M-44.718-10a.894.894,0,0,1,.634.263l2.016,2.016a3.353,3.353,0,0,1,.989,2.387,3.353,3.353,0,0,1-.989,2.387,3.354,3.354,0,0,1-2.388.989,3.353,3.353,0,0,1-2.387-.988l-2.016-2.016a.9.9,0,0,1,0-1.268l3.506-3.506A.894.894,0,0,1-44.718-10Zm.262,6.249a1.573,1.573,0,0,0,1.12-.464,1.572,1.572,0,0,0,.464-1.119,1.572,1.572,0,0,0-.463-1.119l-1.382-1.382L-46.957-5.6l1.382,1.382A1.572,1.572,0,0,0-44.456-3.751Z" transform="translate(49.121 10)"/>
          </g>
          <g id="g6124" transform="translate(31.791 47.428)">
            <path id="path6126" d="M-14.462-32.493a.894.894,0,0,1,.634.263l3.506,3.506a.9.9,0,0,1,0,1.268l-2.016,2.016a3.353,3.353,0,0,1-2.387.988,3.354,3.354,0,0,1-2.388-.989,3.353,3.353,0,0,1-.989-2.387,3.353,3.353,0,0,1,.989-2.387l2.016-2.016A.894.894,0,0,1-14.462-32.493Zm2.239,4.4-2.239-2.239-1.382,1.382a1.572,1.572,0,0,0-.463,1.119,1.572,1.572,0,0,0,.463,1.119,1.574,1.574,0,0,0,1.12.464,1.572,1.572,0,0,0,1.119-.463Z" transform="translate(18.1 32.493)"/>
          </g>
          <g id="g6128" transform="translate(31.623 30.493)">
            <path id="path6130" d="M-160.677-18.1a3.353,3.353,0,0,1,2.387.988l7.617,7.617a.9.9,0,0,1,0,1.268L-164.7,5.8a.9.9,0,0,1-1.268,0l-7.617-7.617a3.353,3.353,0,0,1-.988-2.387,3.353,3.353,0,0,1,.988-2.387A3.353,3.353,0,0,1-171.2-7.58l.133,0q0-.066,0-.133a3.355,3.355,0,0,1,.989-2.387,3.353,3.353,0,0,1,2.387-.988l.135,0a3.367,3.367,0,0,1,.984-2.52,3.355,3.355,0,0,1,2.388-.989l.135,0a3.367,3.367,0,0,1,.984-2.52A3.353,3.353,0,0,1-160.677-18.1Zm8.1,9.24-6.984-6.984a1.572,1.572,0,0,0-1.119-.463,1.573,1.573,0,0,0-1.119.463,1.585,1.585,0,0,0,0,2.238.893.893,0,0,1,.263.634.894.894,0,0,1-.263.634.9.9,0,0,1-1.268,0,1.572,1.572,0,0,0-1.119-.463,1.574,1.574,0,0,0-1.12.464,1.584,1.584,0,0,0,0,2.238.894.894,0,0,1,.263.634.894.894,0,0,1-.263.634.9.9,0,0,1-1.268,0,1.572,1.572,0,0,0-1.119-.463,1.572,1.572,0,0,0-1.119.463,1.574,1.574,0,0,0-.464,1.12,1.572,1.572,0,0,0,.463,1.119.894.894,0,0,1,.263.634.894.894,0,0,1-.262.634.9.9,0,0,1-1.268,0,1.573,1.573,0,0,0-1.119-.464,1.572,1.572,0,0,0-1.119.464,1.572,1.572,0,0,0-.463,1.119,1.572,1.572,0,0,0,.463,1.119l6.984,6.984Z" transform="translate(174.571 18.099)"/>
          </g>
          <g id="g6132" transform="translate(43.368 42.238)">
            <path id="path6134" d="M-173.889-32.339a.894.894,0,0,1,.634.263l2,2a.9.9,0,0,1,.263.634v15.155a.9.9,0,0,1-.9.9h-12.894a.9.9,0,0,1-.634-.263l-3.133-3.133a.9.9,0,0,1,0-1.268l14.025-14.025A.894.894,0,0,1-173.889-32.339Zm1.106,3.27-1.106-1.106-12.757,12.757,2.236,2.236h11.627Z" transform="translate(188.81 32.339)"/>
          </g>
          <g id="g6136" transform="translate(39.967 38.836)">
            <path id="path6138" d="M-5.7-147.252a.9.9,0,0,1-.634-.263l-3.4-3.4a.9.9,0,0,1,0-1.268L4.287-166.209a.9.9,0,0,1,1.268,0l3.4,3.4a.9.9,0,0,1,.263.634.9.9,0,0,1-.263.634L-5.068-147.515A.9.9,0,0,1-5.7-147.252Zm-2.134-4.3,2.134,2.134L7.055-162.173l-2.134-2.134Z" transform="translate(10 166.472)"/>
          </g>
          <g id="g6140" transform="translate(5.404 30.493)">
            <path id="path6142" d="M-236.537-111.3a.893.893,0,0,1-.634-.263L-251.2-125.583a.9.9,0,0,1,0-1.268l7.617-7.617a3.353,3.353,0,0,1,2.387-.989,3.353,3.353,0,0,1,2.387.989,3.367,3.367,0,0,1,.984,2.52l.134,0a3.355,3.355,0,0,1,2.388.989,3.367,3.367,0,0,1,.984,2.52l.135,0a3.353,3.353,0,0,1,2.387.989,3.354,3.354,0,0,1,.989,2.387q0,.067,0,.133l.133,0a3.353,3.353,0,0,1,2.387.989,3.353,3.353,0,0,1,.988,2.387,3.353,3.353,0,0,1-.989,2.387l-7.617,7.617A.894.894,0,0,1-236.537-111.3Zm-12.757-14.921,12.757,12.757,6.984-6.984a1.572,1.572,0,0,0,.463-1.119,1.572,1.572,0,0,0-.463-1.119,1.572,1.572,0,0,0-1.119-.464,1.572,1.572,0,0,0-1.119.464.9.9,0,0,1-1.268,0,.893.893,0,0,1-.263-.634.893.893,0,0,1,.263-.634,1.572,1.572,0,0,0,.463-1.119,1.573,1.573,0,0,0-.464-1.12,1.572,1.572,0,0,0-1.119-.464,1.572,1.572,0,0,0-1.119.463.9.9,0,0,1-1.268,0,.894.894,0,0,1-.263-.634.893.893,0,0,1,.262-.634,1.585,1.585,0,0,0,0-2.238,1.574,1.574,0,0,0-1.12-.464,1.572,1.572,0,0,0-1.119.463.9.9,0,0,1-1.268,0,.893.893,0,0,1-.263-.634.893.893,0,0,1,.263-.634,1.572,1.572,0,0,0,.464-1.119,1.572,1.572,0,0,0-.464-1.119,1.572,1.572,0,0,0-1.119-.463,1.572,1.572,0,0,0-1.119.463Z" transform="translate(251.458 135.457)"/>
          </g>
          <g id="g6144" transform="translate(0 42.238)">
            <path id="path6146" d="M-51.96-24.46H-64.854a.9.9,0,0,1-.9-.9V-40.512a.9.9,0,0,1,.263-.634l2-2a.9.9,0,0,1,1.268,0l2.995,2.995a.9.9,0,0,1,0,1.268.9.9,0,0,1-1.268,0l-2.361-2.361-1.106,1.106v13.888h11.627l2.236-2.236-7.878-7.878a.9.9,0,0,1,0-1.268.9.9,0,0,1,1.268,0l8.512,8.512a.9.9,0,0,1,0,1.268l-3.133,3.133A.9.9,0,0,1-51.96-24.46Z" transform="translate(65.751 43.411)"/>
          </g>
          <g id="g6148" transform="translate(2.002 38.836)">
            <path id="path6150" d="M-56.581-90.238a.894.894,0,0,1-.634-.263l-8.512-8.512a.9.9,0,0,1,0-1.268.9.9,0,0,1,1.268,0l7.878,7.878,2.134-2.134L-67.2-107.293l-2.134,2.134,2.361,2.361a.9.9,0,0,1,0,1.268.9.9,0,0,1-1.268,0l-2.995-2.995a.9.9,0,0,1,0-1.268l3.4-3.4a.9.9,0,0,1,.634-.263.9.9,0,0,1,.634.263L-52.546-95.17a.9.9,0,0,1,.263.634.9.9,0,0,1-.263.634l-3.4,3.4A.893.893,0,0,1-56.581-90.238Z" transform="translate(71.502 109.457)"/>
          </g>
          <g id="g6152" transform="translate(14.679 19.658)">
            <path id="path6154" d="M-66.094-10h2.851a.9.9,0,0,1,.9.9v4.959a.9.9,0,0,1-.9.9h-2.851a3.379,3.379,0,0,1-3.375-3.375A3.38,3.38,0,0,1-66.094-10Zm1.955,1.793h-1.955a1.585,1.585,0,0,0-1.583,1.584,1.585,1.585,0,0,0,1.583,1.583h1.955Z" transform="translate(69.469 10)"/>
          </g>
          <g id="g6156" transform="translate(20.01 16.933)">
            <path id="path6158" d="M8.251-115.145a3.367,3.367,0,0,1-2.479-1.087,3.369,3.369,0,0,1-2.48,1.087,3.367,3.367,0,0,1-2.479-1.087,3.367,3.367,0,0,1-2.479,1.087,3.369,3.369,0,0,1-2.48-1.087,3.367,3.367,0,0,1-2.479,1.087A3.379,3.379,0,0,1-10-118.52v-10.773a.9.9,0,0,1,.9-.9H10.73a.9.9,0,0,1,.9.9v10.773A3.379,3.379,0,0,1,8.251-115.145ZM6.669-118.52a1.584,1.584,0,0,0,1.583,1.583,1.585,1.585,0,0,0,1.583-1.583V-128.4H-8.207v9.876a1.585,1.585,0,0,0,1.583,1.583,1.584,1.584,0,0,0,1.583-1.583.9.9,0,0,1,.9-.9.9.9,0,0,1,.9.9,1.585,1.585,0,0,0,1.584,1.583A1.585,1.585,0,0,0-.083-118.52a.9.9,0,0,1,.9-.9.9.9,0,0,1,.9.9,1.585,1.585,0,0,0,1.583,1.583,1.585,1.585,0,0,0,1.584-1.583.9.9,0,0,1,.9-.9A.9.9,0,0,1,6.669-118.52Z" transform="translate(10 130.189)"/>
          </g>
          <g id="g6160" transform="translate(20.01 12.122)">
            <path id="path6162" d="M-125.827-3.4h-19.834a.9.9,0,0,1-.9-.9V-9.1a.9.9,0,0,1,.9-.9h12.24a.9.9,0,0,1,.9.9.9.9,0,0,1-.9.9h-11.343v3.018h18.041V-8.207h-3.126a.9.9,0,0,1-.9-.9.9.9,0,0,1,.9-.9h4.023a.9.9,0,0,1,.9.9v4.811A.9.9,0,0,1-125.827-3.4Z" transform="translate(146.557 10)"/>
          </g>
          <g id="g6164" transform="translate(8.069 10.473)">
            <path id="path6166" d="M-257.251,14.362c-.721,0-1.456-.036-2.186-.106a.9.9,0,0,1-.809-.944A1.584,1.584,0,0,0-260.7,12.1l-2.016-2.016a.9.9,0,0,1,0-1.268l2.184-2.184a1.572,1.572,0,0,0,.464-1.119,1.572,1.572,0,0,0-.463-1.119,1.572,1.572,0,0,0-1.119-.464,1.572,1.572,0,0,0-1.119.464.9.9,0,0,1-1.268,0,.9.9,0,0,1,0-1.268,1.585,1.585,0,0,0,0-2.239,1.572,1.572,0,0,0-1.119-.463,1.572,1.572,0,0,0-1.119.463.9.9,0,0,1-1.268,0,.894.894,0,0,1-.263-.634.894.894,0,0,1,.263-.634,1.585,1.585,0,0,0,0-2.238,1.585,1.585,0,0,0-2.239,0,.9.9,0,0,1-1.268,0,.893.893,0,0,1-.263-.634.893.893,0,0,1,.263-.634,1.584,1.584,0,0,0,0-2.238,1.585,1.585,0,0,0-2.238,0l-4.214,4.214a.9.9,0,0,1-.866.232.9.9,0,0,1-.634-.634,22.585,22.585,0,0,1-.769-5.851A22.422,22.422,0,0,1-267.341-28.3a.9.9,0,0,1,.873.038.9.9,0,0,1,.426.763v.753H-254.7a.9.9,0,0,1,.9.9.9.9,0,0,1-.9.9h-12.24a.9.9,0,0,1-.9-.9v-.139A20.624,20.624,0,0,0-277.983-8.163a20.841,20.841,0,0,0,.356,3.838l3.066-3.066a3.379,3.379,0,0,1,4.773,0A3.367,3.367,0,0,1-268.8-4.87a3.368,3.368,0,0,1,2.522.985,3.367,3.367,0,0,1,.984,2.52l.135,0a3.353,3.353,0,0,1,2.387.988,3.368,3.368,0,0,1,.985,2.52l.135,0a3.353,3.353,0,0,1,2.387.989,3.353,3.353,0,0,1,.988,2.387,3.353,3.353,0,0,1-.989,2.387l-1.55,1.551,1.382,1.382a3.369,3.369,0,0,1,.915,1.7,20.69,20.69,0,0,0,2.542,0,3.37,3.37,0,0,1,.915-1.7l1.382-1.382L-255.233,7.9a3.379,3.379,0,0,1,0-4.773,3.353,3.353,0,0,1,2.387-.989l.135,0a3.369,3.369,0,0,1,.985-2.52,3.353,3.353,0,0,1,2.387-.988l.135,0a3.367,3.367,0,0,1,.984-2.52A3.369,3.369,0,0,1-245.7-4.87q0-.067,0-.135a3.353,3.353,0,0,1,.989-2.387,3.379,3.379,0,0,1,4.773,0l3.066,3.066a20.841,20.841,0,0,0,.356-3.838,20.7,20.7,0,0,0-9.7-17.556.9.9,0,0,1-.252.5.9.9,0,0,1-.634.263h-4.023a.9.9,0,0,1-.9-.9.9.9,0,0,1,.9-.9H-248v-.516a.9.9,0,0,1,.435-.768.9.9,0,0,1,.883-.023,22.5,22.5,0,0,1,11.958,19.9,22.585,22.585,0,0,1-.769,5.851.9.9,0,0,1-.634.634.9.9,0,0,1-.866-.232l-4.214-4.214a1.585,1.585,0,0,0-2.238,0A1.572,1.572,0,0,0-243.91-5a1.572,1.572,0,0,0,.464,1.119.9.9,0,0,1,0,1.268.9.9,0,0,1-1.268,0,1.585,1.585,0,0,0-2.239,0,1.585,1.585,0,0,0,0,2.238.894.894,0,0,1,.263.634.894.894,0,0,1-.263.634.9.9,0,0,1-1.268,0A1.572,1.572,0,0,0-249.34.425a1.572,1.572,0,0,0-1.119.463,1.585,1.585,0,0,0,0,2.239.893.893,0,0,1,.262.634.893.893,0,0,1-.263.634.9.9,0,0,1-1.268,0,1.577,1.577,0,0,0-1.119-.464,1.572,1.572,0,0,0-1.119.464,1.584,1.584,0,0,0,0,2.238l2.184,2.184a.9.9,0,0,1,0,1.268L-253.8,12.1a1.584,1.584,0,0,0-.458,1.211.9.9,0,0,1-.809.944C-255.794,14.327-256.53,14.362-257.251,14.362Z" transform="translate(279.775 28.4)"/>
          </g>
          <g id="g6168" transform="translate(20.01 0)">
            <path id="path6170" d="M-165.675-131.327H-169.7a.9.9,0,0,1-.9-.9.9.9,0,0,1,.9-.9h3.126v-10.329h-18.041v10.329h11.343a.9.9,0,0,1,.9.9.9.9,0,0,1-.9.9h-12.24a.9.9,0,0,1-.9-.9v-12.122a.9.9,0,0,1,.9-.9h19.834a.9.9,0,0,1,.9.9v12.122A.9.9,0,0,1-165.675-131.327Z" transform="translate(186.405 145.241)"/>
          </g>
        </g>
      </g>
    </g>
  </g>
</svg>
