<svg xmlns="http://www.w3.org/2000/svg" xmlns:xlink="http://www.w3.org/1999/xlink" width="102.949" height="102.949" viewBox="0 0 102.949 102.949">
  <defs>
    <filter id="Trazado_874925" x="0" y="0" width="102.949" height="102.949" filterUnits="userSpaceOnUse">
      <feOffset dy="3" input="SourceAlpha"/>
      <feGaussianBlur stdDeviation="3" result="blur"/>
      <feFlood flood-opacity="0.161"/>
      <feComposite operator="in" in2="blur"/>
      <feComposite in="SourceGraphic"/>
    </filter>
  </defs>
  <g id="Grupo_1182201" data-name="Grupo 1182201" transform="translate(-906.806 -10206)">
    <g id="Grupo_1181907" data-name="Grupo 1181907" transform="translate(107.306 7694.843)">
      <g id="Grupo_1111316" data-name="Grupo 1111316" transform="translate(808.5 2517.157)">
        <g id="Grupo_1109835" data-name="Grupo 1109835" transform="translate(0 0)">
          <g id="Grupo_1107913" data-name="Grupo 1107913" transform="translate(0 0)">
            <g transform="matrix(1, 0, 0, 1, -9, -6)" filter="url(#Trazado_874925)">
              <g id="Trazado_874925-2" data-name="Trazado 874925" transform="translate(9 6)" fill="#4c6929" opacity="0.859">
                <path d="M 42.47446823120117 83.44929504394531 C 36.94229125976562 83.44929504394531 31.57638549804688 82.36614227294922 26.52582168579102 80.22994232177734 C 21.64678573608398 78.16628265380859 17.26464462280273 75.211669921875 13.50113868713379 71.44816589355469 C 9.737632751464844 67.68466949462891 6.78300952911377 63.30253982543945 4.719362258911133 58.42351913452148 C 2.583150625228882 53.37295150756836 1.499997615814209 48.00706100463867 1.499997615814209 42.47489547729492 C 1.499997615814209 36.94223403930664 2.583150625228882 31.57634162902832 4.719362258911133 26.52577781677246 C 6.78300952911377 21.64675331115723 9.737632751464844 17.26462364196777 13.50113868713379 13.50113010406494 C 17.26464462280273 9.737624168395996 21.64678573608398 6.783012390136719 26.52582168579102 4.719353199005127 C 31.57638549804688 2.583153486251831 36.94229125976562 1.500000476837158 42.47446823120117 1.500000476837158 C 48.00664520263672 1.500000476837158 53.37255096435547 2.583153486251831 58.42311477661133 4.719353199005127 C 63.30215072631836 6.783012390136719 67.68428802490234 9.737624168395996 71.44779968261719 13.50113010406494 C 75.2113037109375 17.26462364196777 78.16592407226562 21.64675331115723 80.22957611083984 26.52577781677246 C 82.36578369140625 31.57634162902832 83.44893646240234 36.94223403930664 83.44893646240234 42.47439956665039 C 83.44893646240234 48.00706100463867 82.36578369140625 53.37295150756836 80.22957611083984 58.42351913452148 C 78.16592407226562 63.30253982543945 75.2113037109375 67.68466949462891 71.44779968261719 71.44816589355469 C 67.68428802490234 75.211669921875 63.30215072631836 78.16628265380859 58.42311477661133 80.22994232177734 C 53.37255096435547 82.36614227294922 48.00664520263672 83.44929504394531 42.47446823120117 83.44929504394531 Z" stroke="none"/>
                <path d="M 42.47446823120117 2.999992370605469 C 37.14412307739258 2.999992370605469 31.97481536865234 4.04327392578125 27.11014938354492 6.100860595703125 C 22.40990829467773 8.088890075683594 18.18804168701172 10.93555450439453 14.56179809570312 14.56178283691406 C 10.93557739257812 18.18801116943359 8.088897705078125 22.40987396240234 6.100868225097656 27.11009979248047 C 4.043281555175781 31.97476577758789 3 37.14406204223633 3 42.47488784790039 C 3 47.80522155761719 4.043281555175781 52.97451400756836 6.100868225097656 57.83917999267578 C 8.088897705078125 62.53940582275391 10.93557739257812 66.76127624511719 14.56179809570312 70.38749694824219 C 18.18804168701172 74.01372528076172 22.40990829467773 76.86039733886719 27.11014938354492 78.84841918945312 C 31.97481536865234 80.906005859375 37.14412307739258 81.94928741455078 42.47446823120117 81.94928741455078 C 47.80481338500977 81.94928741455078 52.97412109375 80.906005859375 57.83879089355469 78.84841918945312 C 62.53902816772461 76.86039733886719 66.76089477539062 74.01372528076172 70.38713073730469 70.38749694824219 C 74.01335906982422 66.76127624511719 76.86003875732422 62.53940582275391 78.84806823730469 57.83917999267578 C 80.90565490722656 52.97451400756836 81.94893646240234 47.80522155761719 81.94893646240234 42.47439575195312 C 81.94893646240234 37.14406204223633 80.90565490722656 31.97476577758789 78.84806823730469 27.11009979248047 C 76.86003875732422 22.40987396240234 74.01335906982422 18.18801116943359 70.38713073730469 14.56178283691406 C 66.76089477539062 10.93555450439453 62.53902816772461 8.088890075683594 57.83879089355469 6.100860595703125 C 52.97412109375 4.04327392578125 47.80481338500977 2.999992370605469 42.47446823120117 2.999992370605469 M 42.47446823120117 -7.62939453125e-06 C 65.93246459960938 -7.62939453125e-06 84.94893646240234 19.01643371582031 84.94893646240234 42.47439575195312 L 84.94893646240234 42.47488784790039 C 84.94893646240234 65.93284606933594 65.93246459960938 84.94928741455078 42.47446823120117 84.94928741455078 C 19.01647186279297 84.94928741455078 0 65.93284606933594 0 42.47488784790039 L 0 42.47439575195312 C 0 19.01643371582031 19.01647186279297 -7.62939453125e-06 42.47446823120117 -7.62939453125e-06 Z" stroke="none" fill="#fff"/>
              </g>
            </g>
            <g id="Trazado_874923" data-name="Trazado 874923" transform="translate(0 0)" fill="none">
              <path d="M42.474,0A42.474,42.474,0,0,1,84.949,42.474h0A42.474,42.474,0,0,1,0,42.475H0A42.474,42.474,0,0,1,42.474,0Z" stroke="none"/>
              <path d="M 42.47446823120117 2.999992370605469 C 37.14412307739258 2.999992370605469 31.97481536865234 4.04327392578125 27.11014938354492 6.100860595703125 C 22.40990829467773 8.088890075683594 18.18804168701172 10.93555450439453 14.56179809570312 14.56178283691406 C 10.93557739257812 18.18801116943359 8.088897705078125 22.40987396240234 6.100868225097656 27.11009979248047 C 4.043281555175781 31.97476577758789 3 37.14406204223633 3 42.47488784790039 C 3 47.80522155761719 4.043281555175781 52.97451400756836 6.100868225097656 57.83917999267578 C 8.088897705078125 62.53940582275391 10.93557739257812 66.76127624511719 14.56179809570312 70.38749694824219 C 18.18804168701172 74.01372528076172 22.40990829467773 76.86039733886719 27.11014938354492 78.84841918945312 C 31.97481536865234 80.906005859375 37.14412307739258 81.94928741455078 42.47446823120117 81.94928741455078 C 47.80481338500977 81.94928741455078 52.97412109375 80.906005859375 57.83879089355469 78.84841918945312 C 62.53902816772461 76.86039733886719 66.76089477539062 74.01372528076172 70.38713073730469 70.38749694824219 C 74.01335906982422 66.76127624511719 76.86003875732422 62.53940582275391 78.84806823730469 57.83917999267578 C 80.90565490722656 52.97451400756836 81.94893646240234 47.80522155761719 81.94893646240234 42.47439575195312 C 81.94893646240234 37.14406204223633 80.90565490722656 31.97476577758789 78.84806823730469 27.11009979248047 C 76.86003875732422 22.40987396240234 74.01335906982422 18.18801116943359 70.38713073730469 14.56178283691406 C 66.76089477539062 10.93555450439453 62.53902816772461 8.088890075683594 57.83879089355469 6.100860595703125 C 52.97412109375 4.04327392578125 47.80481338500977 2.999992370605469 42.47446823120117 2.999992370605469 M 42.47446823120117 -7.62939453125e-06 C 65.93246459960938 -7.62939453125e-06 84.94893646240234 19.01643371582031 84.94893646240234 42.47439575195312 L 84.94893646240234 42.47488784790039 C 84.94893646240234 65.93284606933594 65.93246459960938 84.94928741455078 42.47446823120117 84.94928741455078 C 19.01647186279297 84.94928741455078 0 65.93284606933594 0 42.47488784790039 L 0 42.47439575195312 C 0 19.01643371582031 19.01647186279297 -7.62939453125e-06 42.47446823120117 -7.62939453125e-06 Z" stroke="none" fill="#fff"/>
            </g>
          </g>
        </g>
      </g>
    </g>
    <g id="capacitacion" transform="translate(932.669 10231.427)">
      <g id="Grupo_1182199" data-name="Grupo 1182199" transform="translate(0.761 0.761)">
        <g id="Grupo_1182179" data-name="Grupo 1182179" transform="translate(36.52 32.716)">
          <path id="Trazado_910358" data-name="Trazado 910358" d="M58.13,48.565H49a4.565,4.565,0,0,1,9.13,0Z" transform="translate(-49 -44)" fill="#b27946"/>
        </g>
        <g id="Grupo_1182180" data-name="Grupo 1182180" transform="translate(0 32.716)">
          <path id="Trazado_910359" data-name="Trazado 910359" d="M10.13,48.565H1a4.565,4.565,0,1,1,9.13,0Z" transform="translate(-1 -44)" fill="#b27946"/>
        </g>
        <g id="Grupo_1182181" data-name="Grupo 1182181" transform="translate(16.738 39.564)">
          <path id="Trazado_910360" data-name="Trazado 910360" d="M35.173,59.087H23a6.087,6.087,0,1,1,12.173,0Z" transform="translate(-23 -53)" fill="#b27946"/>
        </g>
        <g id="Grupo_1182182" data-name="Grupo 1182182" transform="translate(24.347 32.716)">
          <path id="Trazado_910361" data-name="Trazado 910361" d="M42.13,48.565H33a4.565,4.565,0,0,1,9.13,0Z" transform="translate(-33 -44)" fill="#656d78"/>
        </g>
        <g id="Grupo_1182183" data-name="Grupo 1182183" transform="translate(1.522 39.564)">
          <path id="Trazado_910362" data-name="Trazado 910362" d="M15.173,59.087H3a6.087,6.087,0,1,1,12.173,0Z" transform="translate(-3 -53)" fill="#fcd770"/>
        </g>
        <g id="Grupo_1182184" data-name="Grupo 1182184" transform="translate(31.955 39.564)">
          <path id="Trazado_910363" data-name="Trazado 910363" d="M55.173,59.087H43a6.087,6.087,0,1,1,12.173,0Z" transform="translate(-43 -53)" fill="#fcd770"/>
        </g>
        <g id="Grupo_1182185" data-name="Grupo 1182185" transform="translate(12.173 32.716)">
          <path id="Trazado_910364" data-name="Trazado 910364" d="M26.13,48.565H17a4.565,4.565,0,1,1,9.13,0Z" transform="translate(-17 -44)" fill="#fcd770"/>
        </g>
        <g id="Grupo_1182186" data-name="Grupo 1182186" transform="translate(18.26 25.868)">
          <path id="Trazado_910365" data-name="Trazado 910365" d="M34.13,39.565H25a4.565,4.565,0,1,1,9.13,0Z" transform="translate(-25 -35)" fill="#b27946"/>
        </g>
        <g id="Grupo_1182187" data-name="Grupo 1182187" transform="translate(30.433 25.868)">
          <path id="Trazado_910366" data-name="Trazado 910366" d="M50.13,39.565H41a4.565,4.565,0,1,1,9.13,0Z" transform="translate(-41 -35)" fill="#656d78"/>
        </g>
        <g id="Grupo_1182188" data-name="Grupo 1182188" transform="translate(6.087 25.868)">
          <path id="Trazado_910367" data-name="Trazado 910367" d="M18.13,39.565H9a4.565,4.565,0,1,1,9.13,0Z" transform="translate(-9 -35)" fill="#656d78"/>
        </g>
        <g id="Grupo_1182189" data-name="Grupo 1182189" transform="translate(15.087 1.522)">
          <path id="Trazado_910368" data-name="Trazado 910368" d="M21.72,5.534A4.04,4.04,0,0,0,20.83,3h29.8a.763.763,0,0,1,.761.761V5.283a.763.763,0,0,1-.761.761H21.682A2.823,2.823,0,0,0,21.72,5.534Z" transform="translate(-20.83 -3)" fill="#ccd1d9"/>
        </g>
        <g id="Grupo_1182190" data-name="Grupo 1182190" transform="translate(11.413 4.565)">
          <path id="Trazado_910369" data-name="Trazado 910369" d="M32.472,15.544a2.979,2.979,0,0,0,1.788.586,3.054,3.054,0,1,0-1.788-.586ZM48.716,7V26.782H18.283V20.7l1.012.761a7.6,7.6,0,0,0,4.565,1.522h4.3a1.533,1.533,0,0,0,1.522-1.522,1.505,1.505,0,0,0-.616-1.217,1.46,1.46,0,0,0-.905-.3H22.848L21.6,18.686a4.594,4.594,0,0,0-2.48-1.278L16,16.891V14.471a2.258,2.258,0,0,0,1.522-2.146v-.761h1.522a1.526,1.526,0,0,0,1.522-1.522,1.492,1.492,0,0,0-.449-1.08,1.251,1.251,0,0,0-.251-.2A3.958,3.958,0,0,0,20.527,7H48.716Z" transform="translate(-16 -7)" fill="#e6e9ed"/>
        </g>
        <g id="Grupo_1182191" data-name="Grupo 1182191" transform="translate(3.804)">
          <path id="Trazado_910370" data-name="Trazado 910370" d="M18.173,5.055a2.823,2.823,0,0,1-.038.51,3.958,3.958,0,0,1-.662,1.765,1.45,1.45,0,0,0-.822-.243H15.13a3.674,3.674,0,0,1-2.594-1.073l-.449-.449-.449.449A3.674,3.674,0,0,1,9.043,7.087H7.522A1.45,1.45,0,0,0,6.7,7.33,4.053,4.053,0,0,1,10.055,1h4.063a4.058,4.058,0,0,1,4.055,4.055Z" transform="translate(-6 -1)" fill="#b27946"/>
        </g>
        <g id="Grupo_1182192" data-name="Grupo 1182192" transform="translate(3.036 14.456)">
          <path id="Trazado_910371" data-name="Trazado 910371" d="M16.486,20.517a4.594,4.594,0,0,1,2.48,1.278l1.248,1.248h3.8v3.043H21.226a7.6,7.6,0,0,1-4.565-1.522L15.649,23.8v6.087H5L4.99,24.732A4.572,4.572,0,0,1,8.908,20.2l1.415-.2,1.522,1.522L13.367,20Z" transform="translate(-4.99 -20)" fill="#ff826e"/>
        </g>
        <g id="Grupo_1182193" data-name="Grupo 1182193" transform="translate(26.629 7.608)">
          <path id="Trazado_910372" data-name="Trazado 910372" d="M39.043,11a3.043,3.043,0,1,1,0,6.087,2.979,2.979,0,0,1-1.788-.586A3.04,3.04,0,0,1,39.043,11Z" transform="translate(-36 -11)" fill="#69d6f4"/>
        </g>
        <g id="Grupo_1182194" data-name="Grupo 1182194" transform="translate(22.064 17.499)">
          <path id="Trazado_910373" data-name="Trazado 910373" d="M32.412,24.3a1.505,1.505,0,0,1,.616,1.217,1.533,1.533,0,0,1-1.522,1.522H30V24h1.506A1.46,1.46,0,0,1,32.412,24.3Z" transform="translate(-30 -24)" fill="#f0d0b4"/>
        </g>
        <g id="Grupo_1182195" data-name="Grupo 1182195" transform="translate(8.369 12.036)">
          <path id="Trazado_910374" data-name="Trazado 910374" d="M14.283,16.957a2.109,2.109,0,0,0,.761-.137v2.419l-1.522,1.522L12,19.239V16.82a2.109,2.109,0,0,0,.761.137Z" transform="translate(-12 -16.82)" fill="#f0d0b4"/>
        </g>
        <g id="Grupo_1182196" data-name="Grupo 1182196" transform="translate(12.934 6.087)">
          <path id="Trazado_910375" data-name="Trazado 910375" d="M20.594,9.441a1.492,1.492,0,0,1,.449,1.08,1.526,1.526,0,0,1-1.522,1.522H18V9h1.522a1.45,1.45,0,0,1,.822.243A1.25,1.25,0,0,1,20.594,9.441Z" transform="translate(-18 -9)" fill="#f0d0b4"/>
        </g>
        <g id="Grupo_1182197" data-name="Grupo 1182197" transform="translate(6.848 4.565)">
          <path id="Trazado_910376" data-name="Trazado 910376" d="M16.087,11.565v.761a2.258,2.258,0,0,1-1.522,2.146,2.109,2.109,0,0,1-.761.137H12.283a2.109,2.109,0,0,1-.761-.137A2.258,2.258,0,0,1,10,12.326v-3.8a3.674,3.674,0,0,0,2.594-1.073L13.043,7l.449.449a3.674,3.674,0,0,0,2.594,1.073Z" transform="translate(-10 -7)" fill="#f0d0b4"/>
        </g>
        <g id="Grupo_1182198" data-name="Grupo 1182198" transform="translate(3.804 6.087)">
          <path id="Trazado_910377" data-name="Trazado 910377" d="M9.043,9v3.043H7.522A1.533,1.533,0,0,1,6,10.522a1.513,1.513,0,0,1,.7-1.278A1.45,1.45,0,0,1,7.522,9Z" transform="translate(-6 -9)" fill="#f0d0b4"/>
        </g>
      </g>
      <g id="Grupo_1182200" data-name="Grupo 1182200">
        <path id="Trazado_910378" data-name="Trazado 910378" d="M8,24H9.522v6.848H8Z" transform="translate(-1.913 -5.74)"/>
        <path id="Trazado_910379" data-name="Trazado 910379" d="M46.6,1.522H17.139A4.8,4.8,0,0,0,13.634,0H9.577A4.81,4.81,0,0,0,5.263,6.955a2.27,2.27,0,0,0,1.778,3.7H7.8A3.026,3.026,0,0,0,8.692,12.8a3.062,3.062,0,0,0,.631.471v1.282l-.759.108A5.35,5.35,0,0,0,3.989,19.95L4,25.109l1.522,0-.008-5.16a3.82,3.82,0,0,1,3.267-3.775l1.037-.148,1.791,1.791,1.783-1.783,2.736.456a3.78,3.78,0,0,1,2.064,1.062l1.471,1.471h3.358v1.522H20.989a6.887,6.887,0,0,1-4.109-1.37l-.71-.532V17.5H14.649v7.608h1.522V20.53a8.415,8.415,0,0,0,4.818,1.535h4.294A2.281,2.281,0,0,0,27.172,18.5l2.644-3.635a3.752,3.752,0,0,0,1.572.35,3.84,3.84,0,1,0-2.8-1.249l-2.647,3.64a2.271,2.271,0,0,0-.658-.108H20.29l-1.026-1.026a5.3,5.3,0,0,0-2.89-1.487l-2.486-.414v-1.3a3.062,3.062,0,0,0,.631-.471,3.024,3.024,0,0,0,.891-2.152h.761a2.27,2.27,0,0,0,1.778-3.7,4.747,4.747,0,0,0,.326-.869H45.083V25.868H46.6V6.087a1.523,1.523,0,0,0,1.522-1.522V3.043A1.523,1.523,0,0,0,46.6,1.522ZM31.387,9.13A2.283,2.283,0,1,1,29.1,11.413,2.285,2.285,0,0,1,31.387,9.13ZM26.044,19.782a.762.762,0,0,1-.761.761H24.54V19.021h.743A.762.762,0,0,1,26.044,19.782ZM6.28,8.369a.762.762,0,0,1,.761-.761H7.8V9.13H7.041A.762.762,0,0,1,6.28,8.369Zm6.087,3.8H10.845a1.521,1.521,0,0,1-1.522-1.522V7.544A4.4,4.4,0,0,0,11.606,6.4a4.39,4.39,0,0,0,2.282,1.144v3.108A1.523,1.523,0,0,1,12.367,12.173ZM10.845,14.9V13.7h1.522V14.9l-.761.761Zm1.745-9.668-.984-.984-.984.984a2.894,2.894,0,0,1-2.06.853H7.041a2.255,2.255,0,0,0-.479.052A3.285,3.285,0,0,1,9.577,1.522h4.058a3.285,3.285,0,0,1,3.015,4.617,2.305,2.305,0,0,0-.479-.052H14.648A2.893,2.893,0,0,1,12.589,5.234Zm3.581,3.9h-.762V7.608h.762a.761.761,0,0,1,0,1.522ZM46.6,4.565H18.44a4.775,4.775,0,0,0-.33-1.522H46.6Z" transform="translate(-0.954)"/>
        <path id="Trazado_910380" data-name="Trazado 910380" d="M48.848,52A6.855,6.855,0,0,0,42,58.848h1.522a5.326,5.326,0,1,1,10.652,0H55.7A6.856,6.856,0,0,0,48.848,52Z" transform="translate(-10.045 -12.436)"/>
        <path id="Trazado_910381" data-name="Trazado 910381" d="M28.848,52A6.855,6.855,0,0,0,22,58.848h1.522a5.326,5.326,0,1,1,10.652,0H35.7A6.856,6.856,0,0,0,28.848,52Z" transform="translate(-5.262 -12.436)"/>
        <path id="Trazado_910382" data-name="Trazado 910382" d="M8.848,52A6.855,6.855,0,0,0,2,58.848H3.522a5.326,5.326,0,1,1,10.652,0H15.7A6.856,6.856,0,0,0,8.848,52Z" transform="translate(-0.478 -12.436)"/>
        <path id="Trazado_910383" data-name="Trazado 910383" d="M5.326,44.522a3.809,3.809,0,0,1,3.8,3.8h1.522A5.326,5.326,0,0,0,0,48.326H1.522A3.809,3.809,0,0,1,5.326,44.522Z" transform="translate(0 -10.284)"/>
        <path id="Trazado_910384" data-name="Trazado 910384" d="M16,48.326h1.522a3.8,3.8,0,1,1,7.608,0h1.522a5.326,5.326,0,0,0-10.652,0Z" transform="translate(-3.827 -10.284)"/>
        <path id="Trazado_910385" data-name="Trazado 910385" d="M32,48.326h1.522a3.8,3.8,0,1,1,7.608,0h1.522a5.326,5.326,0,0,0-10.652,0Z" transform="translate(-7.653 -10.284)"/>
        <path id="Trazado_910386" data-name="Trazado 910386" d="M53.326,43A5.332,5.332,0,0,0,48,48.326h1.522a3.8,3.8,0,0,1,7.608,0h1.522A5.332,5.332,0,0,0,53.326,43Z" transform="translate(-11.48 -10.284)"/>
        <path id="Trazado_910387" data-name="Trazado 910387" d="M9.522,39.326a3.8,3.8,0,1,1,7.608,0h1.522A5.326,5.326,0,1,0,8,39.326Z" transform="translate(-1.913 -8.132)"/>
        <path id="Trazado_910388" data-name="Trazado 910388" d="M29.326,34A5.332,5.332,0,0,0,24,39.326h1.522a3.8,3.8,0,1,1,7.608,0h1.522A5.332,5.332,0,0,0,29.326,34Z" transform="translate(-5.74 -8.132)"/>
        <path id="Trazado_910389" data-name="Trazado 910389" d="M41.522,39.326a3.8,3.8,0,0,1,7.608,0h1.522a5.326,5.326,0,1,0-10.652,0Z" transform="translate(-9.567 -8.132)"/>
        <path id="Trazado_910390" data-name="Trazado 910390" d="M54,30h1.522v1.522H54Z" transform="translate(-12.915 -7.175)"/>
        <path id="Trazado_910391" data-name="Trazado 910391" d="M42,30h7.608v1.522H42Z" transform="translate(-10.045 -7.175)"/>
        <path id="Trazado_910392" data-name="Trazado 910392" d="M42,26H52.652v1.522H42Z" transform="translate(-10.045 -6.218)"/>
        <path id="Trazado_910393" data-name="Trazado 910393" d="M42,22H52.652v1.522H42Z" transform="translate(-10.045 -5.262)"/>
        <path id="Trazado_910394" data-name="Trazado 910394" d="M46,18h7.608v1.522H46Z" transform="translate(-11.002 -4.305)"/>
      </g>
    </g>
  </g>
</svg>
