<svg xmlns="http://www.w3.org/2000/svg" xmlns:xlink="http://www.w3.org/1999/xlink" width="118" height="118" viewBox="0 0 118 118">
  <defs>
    <filter id="Trazado_874925" x="0" y="0" width="118" height="118" filterUnits="userSpaceOnUse">
      <feOffset dy="3" input="SourceAlpha"/>
      <feGaussianBlur stdDeviation="3" result="blur"/>
      <feFlood flood-opacity="0.161"/>
      <feComposite operator="in" in2="blur"/>
      <feComposite in="SourceGraphic"/>
    </filter>
  </defs>
  <g id="Grupo_1182150" data-name="Grupo 1182150" transform="translate(-3858 2787)">
    <g id="Grupo_1181904" data-name="Grupo 1181904" transform="translate(2749.866 -4720.999)">
      <g id="Grupo_1111553" data-name="Grupo 1111553" transform="translate(308.634 -577.158)">
        <g id="Grupo_1111316" data-name="Grupo 1111316" transform="translate(808.5 2517.157)">
          <g id="Grupo_1109835" data-name="Grupo 1109835" transform="translate(0 0)">
            <g id="Grupo_1107913" data-name="Grupo 1107913" transform="translate(0 0)">
              <g transform="matrix(1, 0, 0, 1, -9, -6)" filter="url(#Trazado_874925)">
                <g id="Trazado_874925-2" data-name="Trazado 874925" transform="translate(9 6)" fill="#9cc8ff" opacity="0.859">
                  <path d="M 49.99972534179688 98.4998779296875 C 43.45164108276367 98.4998779296875 37.10022354125977 97.21776580810547 31.12189674377441 94.68914794921875 C 25.34676742553711 92.24647521972656 20.15985298156738 88.74925994873047 15.70523929595947 84.29464721679688 C 11.25062561035156 79.84004974365234 7.753411293029785 74.65313720703125 5.310725212097168 68.87800598144531 C 2.782111167907715 62.89969253540039 1.499996781349182 56.54829406738281 1.499996781349182 50.00022125244141 C 1.499996781349182 43.45157623291016 2.782111167907715 37.10017776489258 5.310725212097168 31.12186431884766 C 7.753411293029785 25.34673500061035 11.25062561035156 20.15983581542969 15.70523929595947 15.70522117614746 C 20.15985298156738 11.25062084197998 25.34676742553711 7.753406524658203 31.12189674377441 5.31073522567749 C 37.10022354125977 2.782120943069458 43.45164108276367 1.500006556510925 49.99972534179688 1.500006556510925 C 56.54780960083008 1.500006556510925 62.89922714233398 2.782120943069458 68.87755584716797 5.31073522567749 C 74.65267944335938 7.753406524658203 79.839599609375 11.25062084197998 84.29421234130859 15.70522117614746 C 88.74882507324219 20.15983581542969 92.24604034423828 25.34673500061035 94.68872833251953 31.12186431884766 C 97.21733856201172 37.10017776489258 98.49945068359375 43.45157623291016 98.49945068359375 49.99964904785156 C 98.49945068359375 56.54829406738281 97.21733856201172 62.89969253540039 94.68872833251953 68.87800598144531 C 92.24604034423828 74.65313720703125 88.74882507324219 79.84004974365234 84.29421234130859 84.29464721679688 C 79.839599609375 88.74925994873047 74.65267944335938 92.24647521972656 68.87755584716797 94.68914794921875 C 62.89922714233398 97.21776580810547 56.54780960083008 98.4998779296875 49.99972534179688 98.4998779296875 Z" stroke="none"/>
                  <path d="M 49.99972534179688 3 C 43.65348052978516 3 37.49866485595703 4.242240905761719 31.70623016357422 6.692230224609375 C 26.10989379882812 9.059272766113281 21.08323669433594 12.44853210449219 16.76589202880859 16.76587677001953 C 12.44855499267578 21.08321380615234 9.059295654296875 26.10985565185547 6.692230224609375 31.70618438720703 C 4.24224853515625 37.49859619140625 3 43.65341186523438 3 50.00022888183594 C 3 56.34645843505859 4.24224853515625 62.50127410888672 6.692230224609375 68.29368591308594 C 9.059295654296875 73.8900146484375 12.44855499267578 78.91665649414062 16.76589202880859 83.23399353027344 C 21.08323669433594 87.55132293701172 26.10989379882812 90.94059753417969 31.70623016357422 93.30764007568359 C 37.49866485595703 95.75762939453125 43.65348052978516 96.99987030029297 49.99972534179688 96.99987030029297 C 56.34597015380859 96.99987030029297 62.50078582763672 95.75762939453125 68.293212890625 93.30764007568359 C 73.88955688476562 90.94059753417969 78.91621398925781 87.55132293701172 83.23355865478516 83.23399353027344 C 87.55089569091797 78.91665649414062 90.94015502929688 73.8900146484375 93.30722045898438 68.29368591308594 C 95.7572021484375 62.50127410888672 96.99945068359375 56.34645843505859 96.99945068359375 49.99964141845703 C 96.99945068359375 43.65341186523438 95.7572021484375 37.49859619140625 93.30722045898438 31.70618438720703 C 90.94015502929688 26.10985565185547 87.55089569091797 21.08321380615234 83.23355865478516 16.76587677001953 C 78.91621398925781 12.44853210449219 73.88955688476562 9.059272766113281 68.293212890625 6.692230224609375 C 62.50078582763672 4.242240905761719 56.34597015380859 3 49.99972534179688 3 M 49.99972534179688 0 C 77.61381530761719 0 99.99945068359375 22.38559722900391 99.99945068359375 49.99964141845703 L 99.99945068359375 50.00022888183594 C 99.99945068359375 77.6142578125 77.61381530761719 99.99987030029297 49.99972534179688 99.99987030029297 C 22.38563537597656 99.99987030029297 0 77.6142578125 0 50.00022888183594 L 0 49.99964141845703 C 0 22.38559722900391 22.38563537597656 0 49.99972534179688 0 Z" stroke="none" fill="#fff"/>
                </g>
              </g>
              <g id="Trazado_874923" data-name="Trazado 874923" transform="translate(0 0)" fill="none">
                <path d="M50,0a50,50,0,0,1,50,50h0A50,50,0,0,1,0,50H0A50,50,0,0,1,50,0Z" stroke="none"/>
                <path d="M 49.99972534179688 3 C 43.65348052978516 3 37.49866485595703 4.242240905761719 31.70623016357422 6.692230224609375 C 26.10989379882812 9.059272766113281 21.08323669433594 12.44853210449219 16.76589202880859 16.76587677001953 C 12.44855499267578 21.08321380615234 9.059295654296875 26.10985565185547 6.692230224609375 31.70618438720703 C 4.24224853515625 37.49859619140625 3 43.65341186523438 3 50.00022888183594 C 3 56.34645843505859 4.24224853515625 62.50127410888672 6.692230224609375 68.29368591308594 C 9.059295654296875 73.8900146484375 12.44855499267578 78.91665649414062 16.76589202880859 83.23399353027344 C 21.08323669433594 87.55132293701172 26.10989379882812 90.94059753417969 31.70623016357422 93.30764007568359 C 37.49866485595703 95.75762939453125 43.65348052978516 96.99987030029297 49.99972534179688 96.99987030029297 C 56.34597015380859 96.99987030029297 62.50078582763672 95.75762939453125 68.293212890625 93.30764007568359 C 73.88955688476562 90.94059753417969 78.91621398925781 87.55132293701172 83.23355865478516 83.23399353027344 C 87.55089569091797 78.91665649414062 90.94015502929688 73.8900146484375 93.30722045898438 68.29368591308594 C 95.7572021484375 62.50127410888672 96.99945068359375 56.34645843505859 96.99945068359375 49.99964141845703 C 96.99945068359375 43.65341186523438 95.7572021484375 37.49859619140625 93.30722045898438 31.70618438720703 C 90.94015502929688 26.10985565185547 87.55089569091797 21.08321380615234 83.23355865478516 16.76587677001953 C 78.91621398925781 12.44853210449219 73.88955688476562 9.059272766113281 68.293212890625 6.692230224609375 C 62.50078582763672 4.242240905761719 56.34597015380859 3 49.99972534179688 3 M 49.99972534179688 0 C 77.61381530761719 0 99.99945068359375 22.38559722900391 99.99945068359375 49.99964141845703 L 99.99945068359375 50.00022888183594 C 99.99945068359375 77.6142578125 77.61381530761719 99.99987030029297 49.99972534179688 99.99987030029297 C 22.38563537597656 99.99987030029297 0 77.6142578125 0 50.00022888183594 L 0 49.99964141845703 C 0 22.38559722900391 22.38563537597656 0 49.99972534179688 0 Z" stroke="none" fill="#fff"/>
              </g>
            </g>
          </g>
        </g>
      </g>
    </g>
    <g id="premios" transform="translate(3854.63 -2770.003)">
      <g id="Grupo_1182148" data-name="Grupo 1182148" transform="translate(35.378 9.011)">
        <g id="Grupo_1182146" data-name="Grupo 1182146" transform="translate(0 37.655)">
          <path id="Trazado_910320" data-name="Trazado 910320" d="M71.778,322.264l10.523-6.1c1.975-1.144,3.983-1.955,6.154-1.251,2.42.785,6.372,2.47,10.4,3.2a2.923,2.923,0,0,1,2.022,3.5,2.829,2.829,0,0,1-3.5,2.022l1.409.226a6.56,6.56,0,0,0,4.51-.786l10.117-5.893c7.864-4.58,9.02,2.466,6.4,4.076l-18.36,11.306a6.733,6.733,0,0,1-5.452.769l-13.317-3.568-4.932,2.847a1.992,1.992,0,0,1-2.716-.728l-3.988-6.908A1.992,1.992,0,0,1,71.778,322.264Z" transform="translate(-67.204 -314.653)" fill="#f6dccd" fill-rule="evenodd"/>
          <path id="Trazado_910321" data-name="Trazado 910321" d="M233.984,357.454a2.887,2.887,0,0,1-3.262,1.392c-2.182-.577-4.36-1.168-6.54-1.752a1.094,1.094,0,1,1,.566-2.114Z" transform="translate(-200.549 -349.862)" fill="#f1cbbc" fill-rule="evenodd"/>
          <path id="Trazado_910322" data-name="Trazado 910322" d="M71.778,322.265l10.523-6.1c1.975-1.144,3.983-1.955,6.154-1.251,1.295.42,3.028,1.1,4.977,1.748L73.048,328.434l-1.995-3.455A1.992,1.992,0,0,1,71.778,322.265Z" transform="translate(-67.204 -314.654)" fill="#f1cbbc" fill-rule="evenodd"/>
          <path id="Trazado_910323" data-name="Trazado 910323" d="M47.989,343.448l8.345,14.746a1.494,1.494,0,0,1-.563,2.03l-2.839,1.607a1.494,1.494,0,0,1-2.03-.563l-8.345-14.746a1.494,1.494,0,0,1,.563-2.03l2.839-1.607A1.494,1.494,0,0,1,47.989,343.448Z" transform="translate(-42.366 -339.157)" fill="#d1d1d6" fill-rule="evenodd"/>
          <path id="Trazado_910324" data-name="Trazado 910324" d="M79.331,353.58l1.477,2.61,1.461,2.581a1.494,1.494,0,0,1-.558,2.028l1.014-.574a1.494,1.494,0,0,0,.563-2.03l-1.466-2.59-2.943-5.2L75.933,345.2l-.991-1.751a1.5,1.5,0,0,0-1.735-.69l1.715,3.031,2.943,5.2,1.466,2.59Z" transform="translate(-69.318 -339.158)" fill="#b1b1b5" fill-rule="evenodd"/>
        </g>
        <g id="Grupo_1182147" data-name="Grupo 1182147" transform="translate(19.92 0)">
          <path id="Trazado_910325" data-name="Trazado 910325" d="M334.017,175.882l-6.432,5.334,3.449,8.009a.346.346,0,0,0,.612.046l2.227-3.588,4.137.847a.346.346,0,0,0,.387-.476Z" transform="translate(-311.543 -155.724)" fill="#fe646f" fill-rule="evenodd"/>
          <path id="Trazado_910326" data-name="Trazado 910326" d="M356.467,175.882l-.85.705,4.077,9.466a.342.342,0,0,1-.02.315l.787.161a.346.346,0,0,0,.387-.476Zm-3.193,12.854,2.025-3.264,1.024.21L354.1,189.27a.346.346,0,0,1-.612-.046Z" transform="translate(-333.993 -155.724)" fill="#fd4755" fill-rule="evenodd"/>
          <path id="Trazado_910327" data-name="Trazado 910327" d="M220.676,192.2l-4.624,9.933a.346.346,0,0,1-.613.028l-2.122-3.651-4.16.727a.346.346,0,0,1-.373-.487l4.574-9.824Z" transform="translate(-207.692 -167.126)" fill="#fe646f" fill-rule="evenodd"/>
          <path id="Trazado_910328" data-name="Trazado 910328" d="M220.676,212.2l-4.625,9.933a.346.346,0,0,1-.613.028l-2.122-3.651-4.16.727a.346.346,0,0,1-.373-.487l.281-.6,3.668-.641,2.122,3.651a.346.346,0,0,0,.613-.028l4.338-9.317Z" transform="translate(-207.691 -187.125)" fill="#fd4755" fill-rule="evenodd"/>
          <path id="Trazado_910329" data-name="Trazado 910329" d="M216.082,16.6c2.765,2.07,2.138,1.842,5.587,2.033a2.908,2.908,0,0,1,2.7,2.268c.286,1.22.426,2.758,1.357,3.633l1.616,1.516a2.908,2.908,0,0,1,.613,3.475c-1.558,3.083-1.442,2.425-1.032,5.855a2.908,2.908,0,0,1-1.764,3.056c-3.175,1.36-2.664.931-4.555,3.822a2.908,2.908,0,0,1-3.316,1.207c-3.306-1-2.639-1-5.945,0a2.909,2.909,0,0,1-3.316-1.207c-1.891-2.891-1.379-2.462-4.555-3.822a2.908,2.908,0,0,1-1.764-3.056c.41-3.43.526-2.773-1.032-5.855a2.909,2.909,0,0,1,.613-3.475c2.519-2.364,2.185-1.786,2.973-5.149a2.909,2.909,0,0,1,2.7-2.268c3.449-.192,2.822.036,5.587-2.033A2.908,2.908,0,0,1,216.082,16.6Z" transform="translate(-200.354 -16.001)" fill="#ffe177" fill-rule="evenodd"/>
          <path id="Trazado_910330" data-name="Trazado 910330" d="M281.007,16.6c2.765,2.07,2.138,1.842,5.587,2.033a2.908,2.908,0,0,1,2.7,2.268c.286,1.22.426,2.758,1.357,3.633l1.616,1.516a2.909,2.909,0,0,1,.613,3.475c-1.558,3.083-1.442,2.425-1.032,5.855a2.909,2.909,0,0,1-1.764,3.056c-3.175,1.36-2.664.931-4.555,3.822a2.906,2.906,0,0,1-3.2,1.239,2.924,2.924,0,0,0,1.691-1.239c1.891-2.891,1.379-2.462,4.555-3.822a2.908,2.908,0,0,0,1.764-3.056c-.41-3.43-.526-2.772,1.032-5.855a2.908,2.908,0,0,0-.613-3.475l-1.616-1.516c-.932-.874-1.071-2.413-1.357-3.633a2.909,2.909,0,0,0-2.7-2.268c-3.449-.192-2.822.036-5.587-2.033a2.992,2.992,0,0,0-1.008-.5A2.908,2.908,0,0,1,281.007,16.6Zm-2.52,26.213c-1.07-.243-1.483-.026-3.729.653l-.112.032a2.951,2.951,0,0,0,1.625-.032C277.33,43.142,277.981,42.925,278.486,42.81Z" transform="translate(-265.278 -16.001)" fill="#ffd064" fill-rule="evenodd"/>
          <ellipse id="Elipse_11659" data-name="Elipse 11659" cx="8.24" cy="8.24" rx="8.24" ry="8.24" transform="translate(4.347 7.229) rotate(-10.602)" fill="#eceff1"/>
          <path id="Trazado_910331" data-name="Trazado 910331" d="M253.992,60.064q.332,0,.659.026a8.241,8.241,0,0,0,0,16.428q-.326.026-.659.026a8.24,8.24,0,0,1,0-16.481Z" transform="translate(-240.028 -54.508)" fill="#d1d1d6" fill-rule="evenodd"/>
        </g>
      </g>
      <g id="Grupo_1182149" data-name="Grupo 1182149" transform="translate(34.37 8.003)">
        <path id="Trazado_910332" data-name="Trazado 910332" d="M66.7,26.38l-2.6-2.6a1.009,1.009,0,0,1,1.426-1.427l1.916,1.917L73.037,19.2a1.009,1.009,0,1,1,1.355,1.494l-6.3,5.722A1.008,1.008,0,0,1,66.7,26.38Zm2.567-10.806A7.232,7.232,0,1,0,76.5,22.806,7.24,7.24,0,0,0,69.263,15.574Zm0,16.48a9.249,9.249,0,1,0-9.248-9.248A9.26,9.26,0,0,0,69.263,32.054ZM56.927,19.792a1.9,1.9,0,0,0-.4,2.284c.142.284.271.535.387.761,1.115,2.173,1.155,2.4.851,4.821-.032.252-.067.533-.105.848a1.9,1.9,0,0,0,1.16,2.01c.291.125.552.234.786.333,2.25.948,2.425,1.1,3.751,3.147l.464.716a1.9,1.9,0,0,0,2.18.793l.817-.25c2.334-.72,2.562-.72,4.9,0,.242.075.513.158.817.25a1.9,1.9,0,0,0,2.179-.793c.174-.266.328-.5.465-.716,1.325-2.052,1.5-2.2,3.751-3.147.233-.1.494-.208.786-.333a1.9,1.9,0,0,0,1.16-2.01c-.037-.315-.073-.6-.1-.847-.3-2.424-.264-2.649.851-4.822.116-.226.244-.477.387-.761a1.9,1.9,0,0,0-.4-2.284c-.231-.217-.439-.41-.625-.582-1.79-1.661-1.9-1.859-2.447-4.24-.057-.248-.12-.523-.192-.832a1.9,1.9,0,0,0-1.778-1.491c-.316-.018-.6-.032-.852-.045-2.439-.122-2.654-.2-4.6-1.675-.2-.153-.427-.324-.682-.514a1.9,1.9,0,0,0-2.319,0c-.255.19-.48.361-.682.514-1.947,1.475-2.163,1.553-4.6,1.675-.253.012-.535.027-.852.045a1.9,1.9,0,0,0-1.778,1.491c-.072.309-.135.585-.192.832-.544,2.381-.658,2.579-2.447,4.24C57.366,19.383,57.159,19.574,56.927,19.792Zm20.9,18.187a1.007,1.007,0,0,0-1.059.456l-1.558,2.51-1.462-3.393A3.926,3.926,0,0,0,76.4,35.816c.176-.269.331-.51.471-.726A7.471,7.471,0,0,1,78,33.552a2.416,2.416,0,0,1,.445-.282l2.284,5.3ZM63.28,42.445,61.8,39.891a1.008,1.008,0,0,0-1.045-.487l-2.91.509,2.876-6.177a12.175,12.175,0,0,1,.943,1.355c.138.216.295.457.47.726a3.924,3.924,0,0,0,3.293,1.793c.036,0,.074,0,.11,0ZM55.118,23.757a7.458,7.458,0,0,1,.766,1.747,7.387,7.387,0,0,1-.123,1.9c-.031.256-.068.54-.106.859a3.923,3.923,0,0,0,2.368,4.1c.3.127.56.238.8.338l.125.053L55.2,40.813a1.009,1.009,0,0,0,1.088,1.42l4.12-.72,2.1,3.617a1.009,1.009,0,0,0,.872.5h.045a1.01,1.01,0,0,0,.869-.582l3.722-7.993-.075-.034a4.99,4.99,0,0,1,1.323-.29,7.485,7.485,0,0,1,1.852.453l.324.1,2.685,6.235a1.009,1.009,0,0,0,.852.607l.075,0a1.011,1.011,0,0,0,.858-.477l2.2-3.554,4.1.839a1.01,1.01,0,0,0,1.13-1.387l-3.054-7.088.214-.091a3.924,3.924,0,0,0,2.369-4.1c-.037-.319-.074-.6-.106-.859a7.464,7.464,0,0,1-.125-1.9,7.517,7.517,0,0,1,.767-1.746c.119-.229.249-.484.394-.771a3.925,3.925,0,0,0-.822-4.666c-.234-.22-.445-.415-.633-.59a7.446,7.446,0,0,1-1.319-1.379,7.455,7.455,0,0,1-.535-1.831c-.057-.252-.121-.531-.194-.844a3.926,3.926,0,0,0-3.63-3.046c-.321-.018-.607-.031-.863-.045a7.487,7.487,0,0,1-1.9-.208A7.483,7.483,0,0,1,72.323,9.32c-.2-.155-.432-.328-.691-.521a3.922,3.922,0,0,0-4.737,0c-.259.193-.487.366-.691.521a7.483,7.483,0,0,1-1.588,1.059,7.486,7.486,0,0,1-1.9.208c-.258.013-.542.027-.864.045a3.925,3.925,0,0,0-3.63,3.046c-.073.313-.137.592-.195.843a7.445,7.445,0,0,1-.534,1.831,7.442,7.442,0,0,1-1.319,1.379c-.187.175-.4.37-.633.59a3.924,3.924,0,0,0-.822,4.666c.145.287.275.542.393.77ZM40.24,54.02a1.014,1.014,0,1,1-1.15-.856A1.014,1.014,0,0,1,40.24,54.02Zm25.3,2.651,1.26.2a7.535,7.535,0,0,0,5.177-.91L82.1,50.072c2.853-1.662,5.039-1.849,5.846-.5a2.244,2.244,0,0,1-.478,2.846L69.1,63.725a5.743,5.743,0,0,1-4.662.653l-13.32-3.569a1.012,1.012,0,0,0-.766.1l-1.928,1.113-4.9-8.654,7.449-4.312c1.664-.964,3.464-1.773,5.337-1.165.614.2,1.322.455,2.142.751a52.647,52.647,0,0,0,8.32,2.466,1.9,1.9,0,0,1,1.3,2.262,1.822,1.822,0,0,1-2.215,1.307c-1.484-.306-2.9-.709-4.39-1.135-.71-.2-1.446-.413-2.2-.615a1.009,1.009,0,1,0-.522,1.948c.74.2,1.466.406,2.17.607,1.547.442,3.007.859,4.583,1.18ZM48.29,66.853a.486.486,0,0,0,.182-.655L40.127,51.45a.482.482,0,0,0-.291-.226.523.523,0,0,0-.132-.018.463.463,0,0,0-.232.061l-2.839,1.607a.488.488,0,0,0-.182.656L44.8,68.278a.473.473,0,0,0,.29.224.479.479,0,0,0,.366-.043ZM89.673,48.535a4.247,4.247,0,0,1-1.151,5.6L70.161,65.442a7.721,7.721,0,0,1-4.088,1.175,8.264,8.264,0,0,1-2.156-.291L51,62.866l-1.581.913.807,1.425a2.5,2.5,0,0,1-.945,3.405l-2.838,1.607a2.486,2.486,0,0,1-1.224.324,2.53,2.53,0,0,1-.674-.093,2.483,2.483,0,0,1-1.508-1.176L34.694,54.524a2.5,2.5,0,0,1,.944-3.4l2.84-1.607a2.5,2.5,0,0,1,3.4.944l.655,1.157,7.431-4.3c1.97-1.141,4.34-2.192,6.971-1.338.645.21,1.4.483,2.2.773a50.622,50.622,0,0,0,8.066,2.391.9.9,0,0,1,.132.033,3.945,3.945,0,0,1,2.685,4.723,4.293,4.293,0,0,1-.342.88,5.6,5.6,0,0,0,1.278-.551l10.118-5.894C86.907,44.936,89.131,47.629,89.673,48.535Z" transform="translate(-34.37 -8.003)" fill-rule="evenodd"/>
      </g>
    </g>
  </g>
</svg>
