<svg xmlns="http://www.w3.org/2000/svg" xmlns:xlink="http://www.w3.org/1999/xlink" width="102.949" height="102.949" viewBox="0 0 102.949 102.949">
  <defs>
    <filter id="Trazado_874925" x="0" y="0" width="102.949" height="102.949" filterUnits="userSpaceOnUse">
      <feOffset dy="3" input="SourceAlpha"/>
      <feGaussianBlur stdDeviation="3" result="blur"/>
      <feFlood flood-opacity="0.161"/>
      <feComposite operator="in" in2="blur"/>
      <feComposite in="SourceGraphic"/>
    </filter>
  </defs>
  <g id="Grupo_1182270" data-name="Grupo 1182270" transform="translate(-1221.051 -766)">
    <g id="Grupo_1181899" data-name="Grupo 1181899" transform="translate(421.551 -1745.157)">
      <g id="Grupo_1111316" data-name="Grupo 1111316" transform="translate(808.5 2517.157)">
        <g id="Grupo_1109835" data-name="Grupo 1109835" transform="translate(0 0)">
          <g id="Grupo_1107913" data-name="Grupo 1107913" transform="translate(0 0)">
            <g transform="matrix(1, 0, 0, 1, -9, -6)" filter="url(#Trazado_874925)">
              <g id="Trazado_874925-2" data-name="Trazado 874925" transform="translate(9 6)" fill="#4c6929" opacity="0.859">
                <path d="M 42.47446823120117 83.44929504394531 C 36.94229125976562 83.44929504394531 31.57638549804688 82.36614227294922 26.52582168579102 80.22994232177734 C 21.64678573608398 78.16628265380859 17.26464462280273 75.211669921875 13.50113868713379 71.44816589355469 C 9.737632751464844 67.68466949462891 6.78300952911377 63.30253982543945 4.719362258911133 58.42351913452148 C 2.583150625228882 53.37295150756836 1.499997615814209 48.00706100463867 1.499997615814209 42.47489547729492 C 1.499997615814209 36.94223403930664 2.583150625228882 31.57634162902832 4.719362258911133 26.52577781677246 C 6.78300952911377 21.64675331115723 9.737632751464844 17.26462364196777 13.50113868713379 13.50113010406494 C 17.26464462280273 9.737624168395996 21.64678573608398 6.783012390136719 26.52582168579102 4.719353199005127 C 31.57638549804688 2.583153486251831 36.94229125976562 1.500000476837158 42.47446823120117 1.500000476837158 C 48.00664520263672 1.500000476837158 53.37255096435547 2.583153486251831 58.42311477661133 4.719353199005127 C 63.30215072631836 6.783012390136719 67.68428802490234 9.737624168395996 71.44779968261719 13.50113010406494 C 75.2113037109375 17.26462364196777 78.16592407226562 21.64675331115723 80.22957611083984 26.52577781677246 C 82.36578369140625 31.57634162902832 83.44893646240234 36.94223403930664 83.44893646240234 42.47439956665039 C 83.44893646240234 48.00706100463867 82.36578369140625 53.37295150756836 80.22957611083984 58.42351913452148 C 78.16592407226562 63.30253982543945 75.2113037109375 67.68466949462891 71.44779968261719 71.44816589355469 C 67.68428802490234 75.211669921875 63.30215072631836 78.16628265380859 58.42311477661133 80.22994232177734 C 53.37255096435547 82.36614227294922 48.00664520263672 83.44929504394531 42.47446823120117 83.44929504394531 Z" stroke="none"/>
                <path d="M 42.47446823120117 2.999992370605469 C 37.14412307739258 2.999992370605469 31.97481536865234 4.04327392578125 27.11014938354492 6.100860595703125 C 22.40990829467773 8.088890075683594 18.18804168701172 10.93555450439453 14.56179809570312 14.56178283691406 C 10.93557739257812 18.18801116943359 8.088897705078125 22.40987396240234 6.100868225097656 27.11009979248047 C 4.043281555175781 31.97476577758789 3 37.14406204223633 3 42.47488784790039 C 3 47.80522155761719 4.043281555175781 52.97451400756836 6.100868225097656 57.83917999267578 C 8.088897705078125 62.53940582275391 10.93557739257812 66.76127624511719 14.56179809570312 70.38749694824219 C 18.18804168701172 74.01372528076172 22.40990829467773 76.86039733886719 27.11014938354492 78.84841918945312 C 31.97481536865234 80.906005859375 37.14412307739258 81.94928741455078 42.47446823120117 81.94928741455078 C 47.80481338500977 81.94928741455078 52.97412109375 80.906005859375 57.83879089355469 78.84841918945312 C 62.53902816772461 76.86039733886719 66.76089477539062 74.01372528076172 70.38713073730469 70.38749694824219 C 74.01335906982422 66.76127624511719 76.86003875732422 62.53940582275391 78.84806823730469 57.83917999267578 C 80.90565490722656 52.97451400756836 81.94893646240234 47.80522155761719 81.94893646240234 42.47439575195312 C 81.94893646240234 37.14406204223633 80.90565490722656 31.97476577758789 78.84806823730469 27.11009979248047 C 76.86003875732422 22.40987396240234 74.01335906982422 18.18801116943359 70.38713073730469 14.56178283691406 C 66.76089477539062 10.93555450439453 62.53902816772461 8.088890075683594 57.83879089355469 6.100860595703125 C 52.97412109375 4.04327392578125 47.80481338500977 2.999992370605469 42.47446823120117 2.999992370605469 M 42.47446823120117 -7.62939453125e-06 C 65.93246459960938 -7.62939453125e-06 84.94893646240234 19.01643371582031 84.94893646240234 42.47439575195312 L 84.94893646240234 42.47488784790039 C 84.94893646240234 65.93284606933594 65.93246459960938 84.94928741455078 42.47446823120117 84.94928741455078 C 19.01647186279297 84.94928741455078 0 65.93284606933594 0 42.47488784790039 L 0 42.47439575195312 C 0 19.01643371582031 19.01647186279297 -7.62939453125e-06 42.47446823120117 -7.62939453125e-06 Z" stroke="none" fill="#fff"/>
              </g>
            </g>
            <g id="Trazado_874923" data-name="Trazado 874923" transform="translate(0 0)" fill="none">
              <path d="M42.474,0A42.474,42.474,0,0,1,84.949,42.474h0A42.474,42.474,0,0,1,0,42.475H0A42.474,42.474,0,0,1,42.474,0Z" stroke="none"/>
              <path d="M 42.47446823120117 2.999992370605469 C 37.14412307739258 2.999992370605469 31.97481536865234 4.04327392578125 27.11014938354492 6.100860595703125 C 22.40990829467773 8.088890075683594 18.18804168701172 10.93555450439453 14.56179809570312 14.56178283691406 C 10.93557739257812 18.18801116943359 8.088897705078125 22.40987396240234 6.100868225097656 27.11009979248047 C 4.043281555175781 31.97476577758789 3 37.14406204223633 3 42.47488784790039 C 3 47.80522155761719 4.043281555175781 52.97451400756836 6.100868225097656 57.83917999267578 C 8.088897705078125 62.53940582275391 10.93557739257812 66.76127624511719 14.56179809570312 70.38749694824219 C 18.18804168701172 74.01372528076172 22.40990829467773 76.86039733886719 27.11014938354492 78.84841918945312 C 31.97481536865234 80.906005859375 37.14412307739258 81.94928741455078 42.47446823120117 81.94928741455078 C 47.80481338500977 81.94928741455078 52.97412109375 80.906005859375 57.83879089355469 78.84841918945312 C 62.53902816772461 76.86039733886719 66.76089477539062 74.01372528076172 70.38713073730469 70.38749694824219 C 74.01335906982422 66.76127624511719 76.86003875732422 62.53940582275391 78.84806823730469 57.83917999267578 C 80.90565490722656 52.97451400756836 81.94893646240234 47.80522155761719 81.94893646240234 42.47439575195312 C 81.94893646240234 37.14406204223633 80.90565490722656 31.97476577758789 78.84806823730469 27.11009979248047 C 76.86003875732422 22.40987396240234 74.01335906982422 18.18801116943359 70.38713073730469 14.56178283691406 C 66.76089477539062 10.93555450439453 62.53902816772461 8.088890075683594 57.83879089355469 6.100860595703125 C 52.97412109375 4.04327392578125 47.80481338500977 2.999992370605469 42.47446823120117 2.999992370605469 M 42.47446823120117 -7.62939453125e-06 C 65.93246459960938 -7.62939453125e-06 84.94893646240234 19.01643371582031 84.94893646240234 42.47439575195312 L 84.94893646240234 42.47488784790039 C 84.94893646240234 65.93284606933594 65.93246459960938 84.94928741455078 42.47446823120117 84.94928741455078 C 19.01647186279297 84.94928741455078 0 65.93284606933594 0 42.47488784790039 L 0 42.47439575195312 C 0 19.01643371582031 19.01647186279297 -7.62939453125e-06 42.47446823120117 -7.62939453125e-06 Z" stroke="none" fill="#fff"/>
            </g>
          </g>
        </g>
      </g>
    </g>
    <g id="escucha-activa" transform="translate(1249.051 791.195)">
      <path id="Trazado_910620" data-name="Trazado 910620" d="M300.874,366.607l-3-.749a2.016,2.016,0,0,1-.3-.1c-.033-.014-.1-.045-.1-.045h-7.708c-.032.016-.065.031-.1.045a2.011,2.011,0,0,1-.3.1l-3,.749a3.658,3.658,0,0,0-2.771,3.549v7.984a.091.091,0,0,0,.091.091h19.859a.091.091,0,0,0,.091-.091v-7.984A3.658,3.658,0,0,0,300.874,366.607Z" transform="translate(-257.875 -331.801)" fill="#0681af"/>
      <path id="Trazado_910621" data-name="Trazado 910621" d="M370.195,407.06H367.69l-1.253,8.768h5.01Z" transform="translate(-333.192 -369.398)" fill="#feb237"/>
      <rect id="Rectángulo_408445" data-name="Rectángulo 408445" width="2.505" height="2.892" transform="translate(34.498 34.77)" fill="#ffc344"/>
      <path id="Trazado_910622" data-name="Trazado 910622" d="M364.638,336.177a2,2,0,0,1-.527-1.355v-1.1h-5.465v1.1a2,2,0,0,1-.527,1.355l3.26,2.137Z" transform="translate(-325.629 -302.711)" fill="#ffcebf"/>
      <path id="Trazado_910623" data-name="Trazado 910623" d="M349.217,356.97l3.293,1.646-1.666,2.5-2.467-3.289a.061.061,0,0,1,.006-.08l.765-.765A.06.06,0,0,1,349.217,356.97Z" transform="translate(-316.759 -323.846)" fill="#3692bc"/>
      <path id="Trazado_910624" data-name="Trazado 910624" d="M397.341,356.97l-3.293,1.646,1.666,2.5,2.467-3.289a.061.061,0,0,0-.006-.08l-.765-.765A.06.06,0,0,0,397.341,356.97Z" transform="translate(-358.298 -323.846)" fill="#3692bc"/>
      <path id="Trazado_910625" data-name="Trazado 910625" d="M24.769,366.607l-3-.749a2.015,2.015,0,0,1-.3-.1c-.033-.014-.1-.045-.1-.045H13.666c-.032.016-.065.031-.1.045a2.011,2.011,0,0,1-.3.1l-3,.749A3.658,3.658,0,0,0,7.5,370.156v7.984a.091.091,0,0,0,.091.091H27.449a.091.091,0,0,0,.091-.091v-7.984A3.658,3.658,0,0,0,24.769,366.607Z" transform="translate(-6.82 -331.801)" fill="#01c0fa"/>
      <path id="Trazado_910626" data-name="Trazado 910626" d="M94.091,407.06H91.586l-1.253,8.768h5.01Z" transform="translate(-82.138 -369.398)" fill="#fd5426"/>
      <rect id="Rectángulo_408446" data-name="Rectángulo 408446" width="2.505" height="2.892" transform="translate(9.448 34.77)" fill="#fd6930"/>
      <path id="Trazado_910627" data-name="Trazado 910627" d="M88.534,336.177a2,2,0,0,1-.527-1.355v-1.1H82.542v1.1a2,2,0,0,1-.527,1.355l3.26,2.137Z" transform="translate(-74.574 -302.711)" fill="#f6a96c"/>
      <path id="Trazado_910628" data-name="Trazado 910628" d="M73.113,356.97l3.293,1.646-1.666,2.5-2.467-3.289a.061.061,0,0,1,.006-.08l.765-.765A.06.06,0,0,1,73.113,356.97Z" transform="translate(-65.705 -323.846)" fill="#01d0fb"/>
      <path id="Trazado_910629" data-name="Trazado 910629" d="M121.237,356.97l-3.293,1.646,1.666,2.5,2.467-3.289a.061.061,0,0,0-.006-.08l-.765-.765A.06.06,0,0,0,121.237,356.97Z" transform="translate(-107.244 -323.846)" fill="#01d0fb"/>
      <circle id="Elipse_11678" data-name="Elipse 11678" cx="2.505" cy="2.505" r="2.505" transform="translate(23.226 6.422)" fill="#0681af"/>
      <path id="Trazado_910630" data-name="Trazado 910630" d="M202.03,11.986l-1.253,3.758L202.03,19.5l6.119,3.671a.1.1,0,0,0,.144-.081V8.4a.1.1,0,0,0-.144-.081Z" transform="translate(-182.561 -6.816)" fill="#b4d2e2"/>
      <path id="Trazado_910631" data-name="Trazado 910631" d="M229.718,8.315l-3.485,2.091v7.8a1.833,1.833,0,0,1-1.734,1.831l5.219,3.131a.1.1,0,0,0,.144-.081V8.4A.1.1,0,0,0,229.718,8.315Z" transform="translate(-204.131 -6.816)" fill="#8abbd5"/>
      <path id="Trazado_910632" data-name="Trazado 910632" d="M164.371,48.917v7.515h-4.915a.1.1,0,0,1-.1-.095V49.012a.1.1,0,0,1,.1-.095Z" transform="translate(-144.903 -43.747)" fill="#b4d2e2"/>
      <path id="Trazado_910633" data-name="Trazado 910633" d="M161.649,48.917v4.872a1.282,1.282,0,0,1-1.282,1.282h-1.006v1.266a.1.1,0,0,0,.1.095h4.915V48.917Z" transform="translate(-144.903 -43.747)" fill="#8abbd5"/>
      <path id="Trazado_910634" data-name="Trazado 910634" d="M1.261,205.118a.681.681,0,0,1-.642-.454,10.758,10.758,0,0,1,0-7.133.68.68,0,0,1,1.283.453,9.393,9.393,0,0,0,0,6.227.681.681,0,0,1-.642.907Z" transform="translate(-0.01 -178.465)"/>
      <path id="Trazado_910635" data-name="Trazado 910635" d="M215.279,205.118a.681.681,0,0,1-.642-.907,9.393,9.393,0,0,0,0-6.227.68.68,0,1,1,1.283-.453,10.758,10.758,0,0,1,0,7.133A.681.681,0,0,1,215.279,205.118Z" transform="translate(-195.129 -178.465)"/>
      <path id="Trazado_910636" data-name="Trazado 910636" d="M28.728,212.651a.681.681,0,0,1-.642-.454,8.24,8.24,0,0,1,0-5.463.68.68,0,0,1,1.283.453,6.874,6.874,0,0,0,0,4.557.681.681,0,0,1-.642.907Z" transform="translate(-25.114 -186.833)"/>
      <path id="Trazado_910637" data-name="Trazado 910637" d="M189.239,212.652a.681.681,0,0,1-.642-.907,6.874,6.874,0,0,0,0-4.557.68.68,0,1,1,1.283-.453,8.24,8.24,0,0,1,0,5.463A.681.681,0,0,1,189.239,212.652Z" transform="translate(-171.451 -186.834)"/>
      <path id="Trazado_910638" data-name="Trazado 910638" d="M491.39,205.118a.681.681,0,0,1-.642-.907,9.393,9.393,0,0,0,0-6.227.68.68,0,0,1,1.283-.453,10.759,10.759,0,0,1,0,7.133A.681.681,0,0,1,491.39,205.118Z" transform="translate(-446.189 -178.465)"/>
      <path id="Trazado_910639" data-name="Trazado 910639" d="M277.372,205.118a.681.681,0,0,1-.642-.454,10.758,10.758,0,0,1,0-7.133.68.68,0,0,1,1.283.453,9.393,9.393,0,0,0,0,6.227.681.681,0,0,1-.642.907Z" transform="translate(-251.071 -178.465)"/>
      <path id="Trazado_910640" data-name="Trazado 910640" d="M465.351,212.651a.681.681,0,0,1-.642-.907,6.875,6.875,0,0,0,0-4.557.68.68,0,0,1,1.283-.453,8.24,8.24,0,0,1,0,5.463A.681.681,0,0,1,465.351,212.651Z" transform="translate(-422.513 -186.833)"/>
      <path id="Trazado_910641" data-name="Trazado 910641" d="M304.84,212.652a.681.681,0,0,1-.642-.454,8.24,8.24,0,0,1,0-5.463.68.68,0,1,1,1.283.453,6.874,6.874,0,0,0,0,4.557.681.681,0,0,1-.642.907Z" transform="translate(-276.176 -186.834)"/>
      <path id="Trazado_910642" data-name="Trazado 910642" d="M213.93,17.05a.775.775,0,0,1-.4-.11l-6.119-3.671a.68.68,0,1,1,.7-1.167l5.232,3.139V2.614l-5.232,3.139a.68.68,0,1,1-.7-1.167L213.531.915a.775.775,0,0,1,1.174.665V16.274a.775.775,0,0,1-.775.775Z" transform="translate(-188.294)"/>
      <path id="Trazado_910643" data-name="Trazado 910643" d="M157.551,50.293h-4.915a.776.776,0,0,1-.775-.775V47.488a.68.68,0,1,1,1.361,0v1.444h3.649V42.778h-3.649v1.535a.68.68,0,1,1-1.361,0V42.192a.776.776,0,0,1,.775-.775h4.915a.68.68,0,0,1,.68.68v7.515A.68.68,0,0,1,157.551,50.293Z" transform="translate(-138.083 -36.928)"/>
      <path id="Línea_603" data-name="Línea 603" d="M-5.567-6.139H-6.82a.68.68,0,0,1-.68-.68.68.68,0,0,1,.68-.68h1.253a.68.68,0,0,1,.68.68A.68.68,0,0,1-5.567-6.139Z" transform="translate(37.56 15.674)"/>
      <path id="Línea_604" data-name="Línea 604" d="M-6.82-5.253a.678.678,0,0,1-.481-.2.68.68,0,0,1,0-.962l.886-.886a.68.68,0,0,1,.962,0,.68.68,0,0,1,0,.962l-.886.886A.678.678,0,0,1-6.82-5.253Z" transform="translate(36.093 11.246)"/>
      <path id="Línea_605" data-name="Línea 605" d="M-5.934-5.253a.678.678,0,0,1-.481-.2L-7.3-6.338a.68.68,0,0,1,0-.962.68.68,0,0,1,.962,0l.886.886a.68.68,0,0,1,0,.962A.678.678,0,0,1-5.934-5.253Z" transform="translate(36.093 19.217)"/>
      <path id="Línea_606" data-name="Línea 606" d="M-6.82-2.808a.68.68,0,0,1-.68-.68V-6.82a.68.68,0,0,1,.68-.68.68.68,0,0,1,.68.68v3.331A.68.68,0,0,1-6.82-2.808Z" transform="translate(10.857 49.918)"/>
      <path id="Línea_607" data-name="Línea 607" d="M-6.82-2.808a.68.68,0,0,1-.68-.68V-6.82a.68.68,0,0,1,.68-.68.68.68,0,0,1,.68.68v3.331A.68.68,0,0,1-6.82-2.808Z" transform="translate(24.183 49.918)"/>
      <path id="Trazado_910644" data-name="Trazado 910644" d="M162.3,365.564a.68.68,0,0,1-.68-.68v-.516a2.973,2.973,0,0,0-2.256-2.889l-3-.75q-.1-.024-.193-.056a.68.68,0,1,1,.427-1.292l.1.028,3,.75a4.332,4.332,0,0,1,3.286,4.209v.516A.68.68,0,0,1,162.3,365.564Z" transform="translate(-141.58 -326.013)"/>
      <path id="Trazado_910645" data-name="Trazado 910645" d="M20.63,373.123H.771A.772.772,0,0,1,0,372.352v-7.984a4.332,4.332,0,0,1,3.286-4.209l3-.749.1-.028a.68.68,0,0,1,.427,1.292q-.1.032-.194.056l-3,.749a2.973,2.973,0,0,0-2.256,2.889v7.394H20.04v-3.7a.68.68,0,1,1,1.361,0v4.293A.772.772,0,0,1,20.63,373.123Z" transform="translate(0 -326.013)"/>
      <path id="Trazado_910646" data-name="Trazado 910646" d="M141.583,329.8a.68.68,0,0,1-.565-.3,2.675,2.675,0,0,1-.459-1.5v-1.1a.68.68,0,1,1,1.361,0V328a1.319,1.319,0,0,0,.226.741.681.681,0,0,1-.563,1.061Z" transform="translate(-127.807 -295.892)"/>
      <path id="Trazado_910647" data-name="Trazado 910647" d="M77.219,329.8a.681.681,0,0,1-.563-1.061,1.319,1.319,0,0,0,.226-.74v-1.1a.68.68,0,1,1,1.361,0V328a2.674,2.674,0,0,1-.459,1.5A.68.68,0,0,1,77.219,329.8Z" transform="translate(-69.595 -295.892)"/>
      <path id="Trazado_910648" data-name="Trazado 910648" d="M66.412,349.464a.8.8,0,0,1,.331.078l3.293,1.646a.68.68,0,0,1,.262.986l-1.666,2.5a.68.68,0,0,1-1.11.031l-2.467-3.289a.793.793,0,0,1,.069-.969l.765-.765A.8.8,0,0,1,66.412,349.464Zm2.326,2.6-2.2-1.1-.069.069,1.567,2.09Z" transform="translate(-59.031 -317.027)"/>
      <path id="Trazado_910649" data-name="Trazado 910649" d="M114.444,349.464h0a.8.8,0,0,1,.525.218l.763.763a.793.793,0,0,1,.069.969l-2.467,3.289a.68.68,0,0,1-1.111-.031l-1.666-2.5a.68.68,0,0,1,.262-.986l3.293-1.646A.805.805,0,0,1,114.444,349.464Zm-.054,1.564-.069-.069-2.2,1.1.7,1.057Z" transform="translate(-100.424 -317.027)"/>
      <path id="Trazado_910650" data-name="Trazado 910650" d="M99.824,390.762H97.319a.68.68,0,0,1-.68-.68v-1.014a.68.68,0,1,1,1.361,0v.333h1.144v-.333a.68.68,0,1,1,1.361,0v1.014A.68.68,0,0,1,99.824,390.762Z" transform="translate(-87.871 -352.42)"/>
      <path id="Línea_608" data-name="Línea 608" d="M-5.569,2.628a.681.681,0,0,1-.673-.584L-7.494-6.724a.68.68,0,0,1,.577-.77.68.68,0,0,1,.77.577l1.253,8.768a.68.68,0,0,1-.577.77A.686.686,0,0,1-5.569,2.628Z" transform="translate(18.773 44.483)"/>
      <path id="Línea_609" data-name="Línea 609" d="M-6.82,2.628a.686.686,0,0,1-.1-.007.68.68,0,0,1-.577-.77l1.253-8.768a.68.68,0,0,1,.77-.577.68.68,0,0,1,.577.77L-6.147,2.043A.681.681,0,0,1-6.82,2.628Z" transform="translate(15.016 44.483)"/>
      <path id="Línea_610" data-name="Línea 610" d="M-6.82-2.808a.68.68,0,0,1-.68-.68V-6.82a.68.68,0,0,1,.68-.68.68.68,0,0,1,.68.68v3.331A.68.68,0,0,1-6.82-2.808Z" transform="translate(35.907 49.918)"/>
      <path id="Línea_611" data-name="Línea 611" d="M-6.82-2.808a.68.68,0,0,1-.68-.68V-6.82a.68.68,0,0,1,.68-.68.68.68,0,0,1,.68.68v3.331A.68.68,0,0,1-6.82-2.808Z" transform="translate(49.233 49.918)"/>
      <path id="Trazado_910651" data-name="Trazado 910651" d="M296.742,373.123H276.883a.772.772,0,0,1-.771-.771v-7.984a4.332,4.332,0,0,1,3.286-4.209l3-.75.1-.028a.68.68,0,0,1,.427,1.292q-.1.032-.194.056l-3,.749a2.973,2.973,0,0,0-2.255,2.889v7.394h18.679v-7.394a2.973,2.973,0,0,0-2.255-2.889l-3-.749q-.1-.024-.193-.056a.68.68,0,0,1,.427-1.292l.1.028,3,.75a4.332,4.332,0,0,1,3.286,4.209v7.984A.772.772,0,0,1,296.742,373.123Z" transform="translate(-251.062 -326.013)"/>
      <path id="Trazado_910652" data-name="Trazado 910652" d="M417.694,329.8a.68.68,0,0,1-.565-.3,2.675,2.675,0,0,1-.459-1.5v-1.1a.68.68,0,1,1,1.361,0V328a1.319,1.319,0,0,0,.226.741.681.681,0,0,1-.563,1.061Z" transform="translate(-378.868 -295.892)"/>
      <path id="Trazado_910653" data-name="Trazado 910653" d="M353.33,329.8a.681.681,0,0,1-.563-1.061,1.318,1.318,0,0,0,.226-.74v-1.1a.68.68,0,1,1,1.361,0V328a2.675,2.675,0,0,1-.459,1.5A.68.68,0,0,1,353.33,329.8Z" transform="translate(-320.656 -295.892)"/>
      <path id="Trazado_910654" data-name="Trazado 910654" d="M342.523,349.464a.8.8,0,0,1,.331.078l3.293,1.646a.68.68,0,0,1,.262.986l-1.666,2.5a.68.68,0,0,1-1.11.031l-2.467-3.289a.792.792,0,0,1,.069-.969l.765-.765A.8.8,0,0,1,342.523,349.464Zm2.326,2.6-2.2-1.1-.069.069,1.567,2.09Z" transform="translate(-310.092 -317.027)"/>
      <path id="Trazado_910655" data-name="Trazado 910655" d="M390.555,349.464h0a.8.8,0,0,1,.525.218l.764.764a.793.793,0,0,1,.069.969l-2.467,3.289a.681.681,0,0,1-1.111-.031l-1.666-2.5a.681.681,0,0,1,.262-.986l3.293-1.646A.805.805,0,0,1,390.555,349.464Zm-.054,1.564-.069-.069-2.2,1.1.7,1.057Z" transform="translate(-351.485 -317.027)"/>
      <path id="Trazado_910656" data-name="Trazado 910656" d="M375.935,390.762H373.43a.68.68,0,0,1-.68-.68v-1.014a.68.68,0,0,1,1.361,0v.333h1.144v-.333a.68.68,0,0,1,1.361,0v1.014A.68.68,0,0,1,375.935,390.762Z" transform="translate(-338.932 -352.42)"/>
      <path id="Línea_612" data-name="Línea 612" d="M-5.569,2.628a.681.681,0,0,1-.673-.584L-7.494-6.724a.68.68,0,0,1,.577-.77.68.68,0,0,1,.77.577l1.253,8.768a.68.68,0,0,1-.577.77A.686.686,0,0,1-5.569,2.628Z" transform="translate(43.824 44.483)"/>
      <path id="Línea_613" data-name="Línea 613" d="M-6.82,2.628a.686.686,0,0,1-.1-.007.68.68,0,0,1-.577-.77l1.253-8.768a.68.68,0,0,1,.77-.577.68.68,0,0,1,.577.77L-6.147,2.043A.681.681,0,0,1-6.82,2.628Z" transform="translate(40.066 44.483)"/>
      <path id="Trazado_910657" data-name="Trazado 910657" d="M276.791,61.593a.68.68,0,1,1,0-1.361,1.825,1.825,0,0,0,0-3.649.68.68,0,1,1,0-1.361,3.185,3.185,0,1,1,0,6.371Z" transform="translate(-251.061 -49.48)"/>
      <path id="Trazado_910658" data-name="Trazado 910658" d="M71.087,180.706l.126-1.977a5.178,5.178,0,1,0-10.335,0l.116,1.821Z" transform="translate(-55.345 -156.774)" fill="#017297"/>
      <path id="Trazado_910659" data-name="Trazado 910659" d="M71.52,229.157a2.052,2.052,0,0,0-1.782-1.035h-5.03a2.052,2.052,0,0,0-1.835,1.134l-.607,1.214.227,3.552a4.835,4.835,0,0,0,9.65,0l.217-3.4Z" transform="translate(-56.617 -206.694)" fill="#fed2a4"/>
      <path id="Trazado_910660" data-name="Trazado 910660" d="M84.911,234.023l.217-3.4-.839-1.469a2.052,2.052,0,0,0-1.782-1.035h-.964l-.261,4.085a4.835,4.835,0,0,1-4.825,4.527l-.148,0,0,0a4.835,4.835,0,0,0,8.6-2.712Z" transform="translate(-69.386 -206.695)" fill="#ffbd86"/>
      <path id="Trazado_910661" data-name="Trazado 910661" d="M59.222,165.72a5.859,5.859,0,0,1,5.847,6.232l-.343,5.373a5.515,5.515,0,0,1-11.008,0l-.343-5.373a5.859,5.859,0,0,1,5.847-6.232Zm0,15.408a4.163,4.163,0,0,0,4.146-3.89l.343-5.373a4.5,4.5,0,1,0-8.977,0l.343,5.373A4.163,4.163,0,0,0,59.222,181.128Z" transform="translate(-48.521 -149.953)"/>
      <path id="Trazado_910662" data-name="Trazado 910662" d="M106.509,269.776h-.115a.68.68,0,1,1,0-1.361h.115l.062-1.034a.68.68,0,1,1,1.361,0v.973A1.424,1.424,0,0,1,106.509,269.776Z" transform="translate(-96.122 -241.772)"/>
      <path id="Trazado_910663" data-name="Trazado 910663" d="M65.538,224.488a.68.68,0,0,1-.592-.343l-.839-1.469a1.375,1.375,0,0,0-1.191-.692h-5.03a1.364,1.364,0,0,0-1.227.758l-.607,1.214a.68.68,0,1,1-1.217-.609l.607-1.214a2.718,2.718,0,0,1,2.444-1.511h5.03A2.738,2.738,0,0,1,65.289,222l.839,1.469a.681.681,0,0,1-.59,1.018Z" transform="translate(-49.795 -199.875)"/>
      <path id="Trazado_910664" data-name="Trazado 910664" d="M347.243,179.884l.073-1.151a5.178,5.178,0,1,0-10.335,0l.074,1.156Z" transform="translate(-306.399 -156.773)" fill="#ffc344"/>
      <path id="Trazado_910665" data-name="Trazado 910665" d="M344.9,218.8a3.24,3.24,0,0,0-1.908.616,3.269,3.269,0,0,0-5.094,1.913l.269,4.217a4.835,4.835,0,0,0,9.65,0l.269-4.217A3.273,3.273,0,0,0,344.9,218.8Z" transform="translate(-307.246 -198.222)" fill="#ffeee6"/>
      <path id="Trazado_910666" data-name="Trazado 910666" d="M358.1,218.8a3.3,3.3,0,0,0-.4.024l-.313,4.907a4.835,4.835,0,0,1-4.825,4.527l-.148,0a4.835,4.835,0,0,0,8.6-2.71l.269-4.217A3.272,3.272,0,0,0,358.1,218.8Z" transform="translate(-320.44 -198.222)" fill="#ffdfcf"/>
      <path id="Trazado_910667" data-name="Trazado 910667" d="M382.62,269.776H382.5a.68.68,0,1,1,0-1.361h.115l.062-1.034a.68.68,0,1,1,1.361,0v.973A1.424,1.424,0,0,1,382.62,269.776Z" transform="translate(-347.183 -241.772)"/>
      <path id="Trazado_910668" data-name="Trazado 910668" d="M335.326,165.721a5.878,5.878,0,0,1,4.269,1.853,5.8,5.8,0,0,1,1.578,4.363c0,.005,0,.01,0,.015l-.343,5.373a5.515,5.515,0,0,1-11.008,0l-.343-5.373a5.859,5.859,0,0,1,5.847-6.232Zm4.488,6.164v-.014a4.5,4.5,0,1,0-8.977-.005l.343,5.373a4.154,4.154,0,0,0,8.292,0Z" transform="translate(-299.576 -149.954)"/>
      <path id="Trazado_910669" data-name="Trazado 910669" d="M341.267,215.194a.681.681,0,0,1-.662-.527,2.589,2.589,0,0,0-4.032-1.515.68.68,0,0,1-.8,0,2.589,2.589,0,0,0-4.032,1.515.68.68,0,1,1-1.326-.307,3.952,3.952,0,0,1,5.757-2.564,3.952,3.952,0,0,1,5.757,2.564.681.681,0,0,1-.663.834Z" transform="translate(-300.424 -191.402)"/>
    </g>
  </g>
</svg>
