<svg xmlns="http://www.w3.org/2000/svg" xmlns:xlink="http://www.w3.org/1999/xlink" width="118" height="118" viewBox="0 0 118 118">
  <defs>
    <filter id="Trazado_874925" x="0" y="0" width="118" height="118" filterUnits="userSpaceOnUse">
      <feOffset dy="3" input="SourceAlpha"/>
      <feGaussianBlur stdDeviation="3" result="blur"/>
      <feFlood flood-opacity="0.161"/>
      <feComposite operator="in" in2="blur"/>
      <feComposite in="SourceGraphic"/>
    </filter>
  </defs>
  <g id="Grupo_1182143" data-name="Grupo 1182143" transform="translate(-3858 3176)">
    <g id="Grupo_1181901" data-name="Grupo 1181901" transform="translate(2749.866 -5109.999)">
      <g id="Grupo_1111553" data-name="Grupo 1111553" transform="translate(308.634 -577.158)">
        <g id="Grupo_1111316" data-name="Grupo 1111316" transform="translate(808.5 2517.157)">
          <g id="Grupo_1109835" data-name="Grupo 1109835" transform="translate(0 0)">
            <g id="Grupo_1107913" data-name="Grupo 1107913" transform="translate(0 0)">
              <g transform="matrix(1, 0, 0, 1, -9, -6)" filter="url(#Trazado_874925)">
                <g id="Trazado_874925-2" data-name="Trazado 874925" transform="translate(9 6)" fill="#9cc8ff" opacity="0.859">
                  <path d="M 49.99972534179688 98.4998779296875 C 43.45164108276367 98.4998779296875 37.10022354125977 97.21776580810547 31.12189674377441 94.68914794921875 C 25.34676742553711 92.24647521972656 20.15985298156738 88.74925994873047 15.70523929595947 84.29464721679688 C 11.25062561035156 79.84004974365234 7.753411293029785 74.65313720703125 5.310725212097168 68.87800598144531 C 2.782111167907715 62.89969253540039 1.499996781349182 56.54829406738281 1.499996781349182 50.00022125244141 C 1.499996781349182 43.45157623291016 2.782111167907715 37.10017776489258 5.310725212097168 31.12186431884766 C 7.753411293029785 25.34673500061035 11.25062561035156 20.15983581542969 15.70523929595947 15.70522117614746 C 20.15985298156738 11.25062084197998 25.34676742553711 7.753406524658203 31.12189674377441 5.31073522567749 C 37.10022354125977 2.782120943069458 43.45164108276367 1.500006556510925 49.99972534179688 1.500006556510925 C 56.54780960083008 1.500006556510925 62.89922714233398 2.782120943069458 68.87755584716797 5.31073522567749 C 74.65267944335938 7.753406524658203 79.839599609375 11.25062084197998 84.29421234130859 15.70522117614746 C 88.74882507324219 20.15983581542969 92.24604034423828 25.34673500061035 94.68872833251953 31.12186431884766 C 97.21733856201172 37.10017776489258 98.49945068359375 43.45157623291016 98.49945068359375 49.99964904785156 C 98.49945068359375 56.54829406738281 97.21733856201172 62.89969253540039 94.68872833251953 68.87800598144531 C 92.24604034423828 74.65313720703125 88.74882507324219 79.84004974365234 84.29421234130859 84.29464721679688 C 79.839599609375 88.74925994873047 74.65267944335938 92.24647521972656 68.87755584716797 94.68914794921875 C 62.89922714233398 97.21776580810547 56.54780960083008 98.4998779296875 49.99972534179688 98.4998779296875 Z" stroke="none"/>
                  <path d="M 49.99972534179688 3 C 43.65348052978516 3 37.49866485595703 4.242240905761719 31.70623016357422 6.692230224609375 C 26.10989379882812 9.059272766113281 21.08323669433594 12.44853210449219 16.76589202880859 16.76587677001953 C 12.44855499267578 21.08321380615234 9.059295654296875 26.10985565185547 6.692230224609375 31.70618438720703 C 4.24224853515625 37.49859619140625 3 43.65341186523438 3 50.00022888183594 C 3 56.34645843505859 4.24224853515625 62.50127410888672 6.692230224609375 68.29368591308594 C 9.059295654296875 73.8900146484375 12.44855499267578 78.91665649414062 16.76589202880859 83.23399353027344 C 21.08323669433594 87.55132293701172 26.10989379882812 90.94059753417969 31.70623016357422 93.30764007568359 C 37.49866485595703 95.75762939453125 43.65348052978516 96.99987030029297 49.99972534179688 96.99987030029297 C 56.34597015380859 96.99987030029297 62.50078582763672 95.75762939453125 68.293212890625 93.30764007568359 C 73.88955688476562 90.94059753417969 78.91621398925781 87.55132293701172 83.23355865478516 83.23399353027344 C 87.55089569091797 78.91665649414062 90.94015502929688 73.8900146484375 93.30722045898438 68.29368591308594 C 95.7572021484375 62.50127410888672 96.99945068359375 56.34645843505859 96.99945068359375 49.99964141845703 C 96.99945068359375 43.65341186523438 95.7572021484375 37.49859619140625 93.30722045898438 31.70618438720703 C 90.94015502929688 26.10985565185547 87.55089569091797 21.08321380615234 83.23355865478516 16.76587677001953 C 78.91621398925781 12.44853210449219 73.88955688476562 9.059272766113281 68.293212890625 6.692230224609375 C 62.50078582763672 4.242240905761719 56.34597015380859 3 49.99972534179688 3 M 49.99972534179688 0 C 77.61381530761719 0 99.99945068359375 22.38559722900391 99.99945068359375 49.99964141845703 L 99.99945068359375 50.00022888183594 C 99.99945068359375 77.6142578125 77.61381530761719 99.99987030029297 49.99972534179688 99.99987030029297 C 22.38563537597656 99.99987030029297 0 77.6142578125 0 50.00022888183594 L 0 49.99964141845703 C 0 22.38559722900391 22.38563537597656 0 49.99972534179688 0 Z" stroke="none" fill="#fff"/>
                </g>
              </g>
              <g id="Trazado_874923" data-name="Trazado 874923" transform="translate(0 0)" fill="none">
                <path d="M50,0a50,50,0,0,1,50,50h0A50,50,0,0,1,0,50H0A50,50,0,0,1,50,0Z" stroke="none"/>
                <path d="M 49.99972534179688 3 C 43.65348052978516 3 37.49866485595703 4.242240905761719 31.70623016357422 6.692230224609375 C 26.10989379882812 9.059272766113281 21.08323669433594 12.44853210449219 16.76589202880859 16.76587677001953 C 12.44855499267578 21.08321380615234 9.059295654296875 26.10985565185547 6.692230224609375 31.70618438720703 C 4.24224853515625 37.49859619140625 3 43.65341186523438 3 50.00022888183594 C 3 56.34645843505859 4.24224853515625 62.50127410888672 6.692230224609375 68.29368591308594 C 9.059295654296875 73.8900146484375 12.44855499267578 78.91665649414062 16.76589202880859 83.23399353027344 C 21.08323669433594 87.55132293701172 26.10989379882812 90.94059753417969 31.70623016357422 93.30764007568359 C 37.49866485595703 95.75762939453125 43.65348052978516 96.99987030029297 49.99972534179688 96.99987030029297 C 56.34597015380859 96.99987030029297 62.50078582763672 95.75762939453125 68.293212890625 93.30764007568359 C 73.88955688476562 90.94059753417969 78.91621398925781 87.55132293701172 83.23355865478516 83.23399353027344 C 87.55089569091797 78.91665649414062 90.94015502929688 73.8900146484375 93.30722045898438 68.29368591308594 C 95.7572021484375 62.50127410888672 96.99945068359375 56.34645843505859 96.99945068359375 49.99964141845703 C 96.99945068359375 43.65341186523438 95.7572021484375 37.49859619140625 93.30722045898438 31.70618438720703 C 90.94015502929688 26.10985565185547 87.55089569091797 21.08321380615234 83.23355865478516 16.76587677001953 C 78.91621398925781 12.44853210449219 73.88955688476562 9.059272766113281 68.293212890625 6.692230224609375 C 62.50078582763672 4.242240905761719 56.34597015380859 3 49.99972534179688 3 M 49.99972534179688 0 C 77.61381530761719 0 99.99945068359375 22.38559722900391 99.99945068359375 49.99964141845703 L 99.99945068359375 50.00022888183594 C 99.99945068359375 77.6142578125 77.61381530761719 99.99987030029297 49.99972534179688 99.99987030029297 C 22.38563537597656 99.99987030029297 0 77.6142578125 0 50.00022888183594 L 0 49.99964141845703 C 0 22.38559722900391 22.38563537597656 0 49.99972534179688 0 Z" stroke="none" fill="#fff"/>
              </g>
            </g>
          </g>
        </g>
      </g>
    </g>
    <g id="difusion" transform="translate(3872.75 -3164.25)">
      <g id="Grupo_1182142" data-name="Grupo 1182142" transform="translate(18.234 18.277)">
        <path id="Trazado_910314" data-name="Trazado 910314" d="M57.519,23.148V38.717H36.555a4.122,4.122,0,0,0-4.123,4.123V44.4H31.76l-8.686,6.307V44.425A4.122,4.122,0,0,1,18.951,40.3V23.148a4.122,4.122,0,0,1,4.123-4.123H53.4a4.122,4.122,0,0,1,4.123,4.123Z" transform="translate(-18.951 -19.025)" fill="#fd3a69"/>
        <path id="Trazado_910315" data-name="Trazado 910315" d="M80.829,57.2V74.351a4.122,4.122,0,0,1-4.123,4.123v6.281l-8.687-6.278H46.384a4.122,4.122,0,0,1-4.123-4.123V57.2a4.122,4.122,0,0,1,4.123-4.123H76.706A4.122,4.122,0,0,1,80.829,57.2Z" transform="translate(-28.78 -33.383)" fill="#22b1dd"/>
        <g id="Grupo_1182141" data-name="Grupo 1182141" transform="translate(6.755 10.096)">
          <circle id="Elipse_11656" data-name="Elipse 11656" cx="2.362" cy="2.362" r="2.362" fill="#fff8cd"/>
          <circle id="Elipse_11657" data-name="Elipse 11657" cx="2.362" cy="2.362" r="2.362" transform="translate(10.643)" fill="#fff8cd"/>
          <circle id="Elipse_11658" data-name="Elipse 11658" cx="2.362" cy="2.362" r="2.362" transform="translate(21.285)" fill="#fff8cd"/>
          <path id="Trazado_910316" data-name="Trazado 910316" d="M84.739,75.653l-8.494-3.428V65.433L84.739,62Z" transform="translate(-49.865 -47.245)" fill="#fff8cd"/>
        </g>
        <path id="Trazado_910317" data-name="Trazado 910317" d="M63.675,74.725h5.838V67.933H63.675a3.4,3.4,0,0,0,0,6.792Z" transform="translate(-36.378 -39.648)" fill="#fecd1a"/>
        <path id="Trazado_910318" data-name="Trazado 910318" d="M69.437,85.186a1.974,1.974,0,0,0,1.96-2.208L71,79.682H67.027l.451,3.767a1.973,1.973,0,0,0,1.959,1.738Z" transform="translate(-39.224 -44.603)" fill="#fc852d"/>
      </g>
      <path id="Trazado_910319" data-name="Trazado 910319" d="M66.188,36.942H57.842V22.385a5.141,5.141,0,0,0-5.135-5.135H22.385a5.141,5.141,0,0,0-5.135,5.135V39.538a5.147,5.147,0,0,0,4.123,5.037v5.367a1.011,1.011,0,0,0,1.607.821l7.75-5.628V59.23a5.141,5.141,0,0,0,5.135,5.135h1.713a1.012,1.012,0,0,0,0-2.024H35.866a3.115,3.115,0,0,1-3.111-3.111V42.078a3.115,3.115,0,0,1,3.111-3.111H66.188A3.115,3.115,0,0,1,69.3,42.078V59.23a3.115,3.115,0,0,1-3.111,3.111,1.012,1.012,0,0,0-1.012,1.012v4.3l-7.081-5.12a1.013,1.013,0,0,0-.593-.192H51a1.012,1.012,0,1,0,0,2.024h6.179l8.421,6.089a1.011,1.011,0,0,0,1.6-.82V64.266a5.147,5.147,0,0,0,4.123-5.035V42.077a5.141,5.141,0,0,0-5.135-5.135ZM30.731,42.077v.6c-.26.093.116-.116-7.333,5.275V43.662a1.012,1.012,0,0,0-1.012-1.012,3.115,3.115,0,0,1-3.111-3.111V22.385a3.115,3.115,0,0,1,3.111-3.111H52.707a3.115,3.115,0,0,1,3.111,3.111V36.942H35.866a5.141,5.141,0,0,0-5.135,5.135ZM46.739,63.354a1.012,1.012,0,0,1-1.012,1.012h-2.88a1.012,1.012,0,1,1,0-2.024h2.88a1.011,1.011,0,0,1,1.012,1.012ZM27.379,27.346a3.375,3.375,0,1,0,3.375,3.375,3.375,3.375,0,0,0-3.375-3.375Zm0,4.725a1.35,1.35,0,1,1,1.35-1.35A1.35,1.35,0,0,1,27.379,32.071ZM38.02,27.346a3.375,3.375,0,1,0,3.375,3.375,3.375,3.375,0,0,0-3.375-3.375Zm0,4.725a1.35,1.35,0,1,1,1.35-1.35,1.35,1.35,0,0,1-1.35,1.35Zm10.641-4.725a3.375,3.375,0,1,0,3.375,3.375,3.375,3.375,0,0,0-3.375-3.375Zm0,4.725a1.35,1.35,0,1,1,1.35-1.35,1.35,1.35,0,0,1-1.35,1.35Zm2.776,24.444-.256-2.166H51.2L59.512,57.7a1.013,1.013,0,0,0,1.391-.939V43.118a1.013,1.013,0,0,0-1.391-.939L51.2,45.534H45.559a4.407,4.407,0,0,0-.394,8.8l.347,2.894a2.986,2.986,0,1,0,5.93-.71Zm7.438-1.249-6.467-2.611V47.23l6.47-2.611Zm-15.7-5.324a2.387,2.387,0,0,1,2.384-2.384h4.826v4.767H45.559a2.387,2.387,0,0,1-2.384-2.383Zm5.3,7.889a.962.962,0,0,1-.955-.847l-.316-2.635h1.939l.289,2.4a.96.96,0,0,1-.958,1.077Z" fill="#09074f"/>
    </g>
  </g>
</svg>
