<svg xmlns="http://www.w3.org/2000/svg" xmlns:xlink="http://www.w3.org/1999/xlink" width="118" height="118" viewBox="0 0 118 118">
  <defs>
    <filter id="Trazado_874925" x="0" y="0" width="118" height="118" filterUnits="userSpaceOnUse">
      <feOffset dy="3" input="SourceAlpha"/>
      <feGaussianBlur stdDeviation="3" result="blur"/>
      <feFlood flood-opacity="0.161"/>
      <feComposite operator="in" in2="blur"/>
      <feComposite in="SourceGraphic"/>
    </filter>
    <clipPath id="clip-path">
      <path id="path1167" d="M0-682.665H55.644v55.644H0Z" transform="translate(0 682.665)"/>
    </clipPath>
  </defs>
  <g id="Grupo_1182144" data-name="Grupo 1182144" transform="translate(-4178.219 3176.144)">
    <g id="Grupo_1181902" data-name="Grupo 1181902" transform="translate(3070.084 -5110.143)">
      <g id="Grupo_1111553" data-name="Grupo 1111553" transform="translate(308.634 -577.158)">
        <g id="Grupo_1111316" data-name="Grupo 1111316" transform="translate(808.5 2517.157)">
          <g id="Grupo_1109835" data-name="Grupo 1109835" transform="translate(0 0)">
            <g id="Grupo_1107913" data-name="Grupo 1107913" transform="translate(0 0)">
              <g transform="matrix(1, 0, 0, 1, -9, -6)" filter="url(#Trazado_874925)">
                <g id="Trazado_874925-2" data-name="Trazado 874925" transform="translate(9 6)" fill="#9cc8ff" opacity="0.859">
                  <path d="M 49.99972534179688 98.4998779296875 C 43.45164108276367 98.4998779296875 37.10022354125977 97.21776580810547 31.12189674377441 94.68914794921875 C 25.34676742553711 92.24647521972656 20.15985298156738 88.74925994873047 15.70523929595947 84.29464721679688 C 11.25062561035156 79.84004974365234 7.753411293029785 74.65313720703125 5.310725212097168 68.87800598144531 C 2.782111167907715 62.89969253540039 1.499996781349182 56.54829406738281 1.499996781349182 50.00022125244141 C 1.499996781349182 43.45157623291016 2.782111167907715 37.10017776489258 5.310725212097168 31.12186431884766 C 7.753411293029785 25.34673500061035 11.25062561035156 20.15983581542969 15.70523929595947 15.70522117614746 C 20.15985298156738 11.25062084197998 25.34676742553711 7.753406524658203 31.12189674377441 5.31073522567749 C 37.10022354125977 2.782120943069458 43.45164108276367 1.500006556510925 49.99972534179688 1.500006556510925 C 56.54780960083008 1.500006556510925 62.89922714233398 2.782120943069458 68.87755584716797 5.31073522567749 C 74.65267944335938 7.753406524658203 79.839599609375 11.25062084197998 84.29421234130859 15.70522117614746 C 88.74882507324219 20.15983581542969 92.24604034423828 25.34673500061035 94.68872833251953 31.12186431884766 C 97.21733856201172 37.10017776489258 98.49945068359375 43.45157623291016 98.49945068359375 49.99964904785156 C 98.49945068359375 56.54829406738281 97.21733856201172 62.89969253540039 94.68872833251953 68.87800598144531 C 92.24604034423828 74.65313720703125 88.74882507324219 79.84004974365234 84.29421234130859 84.29464721679688 C 79.839599609375 88.74925994873047 74.65267944335938 92.24647521972656 68.87755584716797 94.68914794921875 C 62.89922714233398 97.21776580810547 56.54780960083008 98.4998779296875 49.99972534179688 98.4998779296875 Z" stroke="none"/>
                  <path d="M 49.99972534179688 3 C 43.65348052978516 3 37.49866485595703 4.242240905761719 31.70623016357422 6.692230224609375 C 26.10989379882812 9.059272766113281 21.08323669433594 12.44853210449219 16.76589202880859 16.76587677001953 C 12.44855499267578 21.08321380615234 9.059295654296875 26.10985565185547 6.692230224609375 31.70618438720703 C 4.24224853515625 37.49859619140625 3 43.65341186523438 3 50.00022888183594 C 3 56.34645843505859 4.24224853515625 62.50127410888672 6.692230224609375 68.29368591308594 C 9.059295654296875 73.8900146484375 12.44855499267578 78.91665649414062 16.76589202880859 83.23399353027344 C 21.08323669433594 87.55132293701172 26.10989379882812 90.94059753417969 31.70623016357422 93.30764007568359 C 37.49866485595703 95.75762939453125 43.65348052978516 96.99987030029297 49.99972534179688 96.99987030029297 C 56.34597015380859 96.99987030029297 62.50078582763672 95.75762939453125 68.293212890625 93.30764007568359 C 73.88955688476562 90.94059753417969 78.91621398925781 87.55132293701172 83.23355865478516 83.23399353027344 C 87.55089569091797 78.91665649414062 90.94015502929688 73.8900146484375 93.30722045898438 68.29368591308594 C 95.7572021484375 62.50127410888672 96.99945068359375 56.34645843505859 96.99945068359375 49.99964141845703 C 96.99945068359375 43.65341186523438 95.7572021484375 37.49859619140625 93.30722045898438 31.70618438720703 C 90.94015502929688 26.10985565185547 87.55089569091797 21.08321380615234 83.23355865478516 16.76587677001953 C 78.91621398925781 12.44853210449219 73.88955688476562 9.059272766113281 68.293212890625 6.692230224609375 C 62.50078582763672 4.242240905761719 56.34597015380859 3 49.99972534179688 3 M 49.99972534179688 0 C 77.61381530761719 0 99.99945068359375 22.38559722900391 99.99945068359375 49.99964141845703 L 99.99945068359375 50.00022888183594 C 99.99945068359375 77.6142578125 77.61381530761719 99.99987030029297 49.99972534179688 99.99987030029297 C 22.38563537597656 99.99987030029297 0 77.6142578125 0 50.00022888183594 L 0 49.99964141845703 C 0 22.38559722900391 22.38563537597656 0 49.99972534179688 0 Z" stroke="none" fill="#fff"/>
                </g>
              </g>
              <g id="Trazado_874923" data-name="Trazado 874923" transform="translate(0 0)" fill="none">
                <path d="M50,0a50,50,0,0,1,50,50h0A50,50,0,0,1,0,50H0A50,50,0,0,1,50,0Z" stroke="none"/>
                <path d="M 49.99972534179688 3 C 43.65348052978516 3 37.49866485595703 4.242240905761719 31.70623016357422 6.692230224609375 C 26.10989379882812 9.059272766113281 21.08323669433594 12.44853210449219 16.76589202880859 16.76587677001953 C 12.44855499267578 21.08321380615234 9.059295654296875 26.10985565185547 6.692230224609375 31.70618438720703 C 4.24224853515625 37.49859619140625 3 43.65341186523438 3 50.00022888183594 C 3 56.34645843505859 4.24224853515625 62.50127410888672 6.692230224609375 68.29368591308594 C 9.059295654296875 73.8900146484375 12.44855499267578 78.91665649414062 16.76589202880859 83.23399353027344 C 21.08323669433594 87.55132293701172 26.10989379882812 90.94059753417969 31.70623016357422 93.30764007568359 C 37.49866485595703 95.75762939453125 43.65348052978516 96.99987030029297 49.99972534179688 96.99987030029297 C 56.34597015380859 96.99987030029297 62.50078582763672 95.75762939453125 68.293212890625 93.30764007568359 C 73.88955688476562 90.94059753417969 78.91621398925781 87.55132293701172 83.23355865478516 83.23399353027344 C 87.55089569091797 78.91665649414062 90.94015502929688 73.8900146484375 93.30722045898438 68.29368591308594 C 95.7572021484375 62.50127410888672 96.99945068359375 56.34645843505859 96.99945068359375 49.99964141845703 C 96.99945068359375 43.65341186523438 95.7572021484375 37.49859619140625 93.30722045898438 31.70618438720703 C 90.94015502929688 26.10985565185547 87.55089569091797 21.08321380615234 83.23355865478516 16.76587677001953 C 78.91621398925781 12.44853210449219 73.88955688476562 9.059272766113281 68.293212890625 6.692230224609375 C 62.50078582763672 4.242240905761719 56.34597015380859 3 49.99972534179688 3 M 49.99972534179688 0 C 77.61381530761719 0 99.99945068359375 22.38559722900391 99.99945068359375 49.99964141845703 L 99.99945068359375 50.00022888183594 C 99.99945068359375 77.6142578125 77.61381530761719 99.99987030029297 49.99972534179688 99.99987030029297 C 22.38563537597656 99.99987030029297 0 77.6142578125 0 50.00022888183594 L 0 49.99964141845703 C 0 22.38559722900391 22.38563537597656 0 49.99972534179688 0 Z" stroke="none" fill="#fff"/>
              </g>
            </g>
          </g>
        </g>
      </g>
    </g>
    <g id="g1161" transform="translate(4209.396 -2465.157)">
      <g id="g1163" transform="translate(0 -682.665)">
        <g id="g1165" clip-path="url(#clip-path)">
          <g id="g1171" transform="translate(25.972 0.815)">
            <path id="path1173" d="M-83.1,0h-4.143l-3.231,4.953,3.231,4.953H-83.1a2.32,2.32,0,0,0,2.32-2.32V2.319A2.32,2.32,0,0,0-83.1,0" transform="translate(90.474 0)" fill="#ff6f7f"/>
          </g>
          <g id="g1175" transform="translate(14.284 0.815)">
            <path id="path1177" d="M-95.285-111.621h-6.463l-1.993-4.953,1.993-4.953h6.463l3.231,4.953Z" transform="translate(103.741 121.526)" fill="#7292df"/>
          </g>
          <g id="g1179" transform="translate(2.61 24.361)">
            <path id="path1181" d="M-475.828-216.147c0,3.73-9.453,6.754-21.113,6.754s-21.113-3.024-21.113-6.754v-19.182h42.227Z" transform="translate(518.055 235.329)" fill="#ffca8a"/>
          </g>
          <g id="g1183" transform="translate(2.61 24.361)">
            <path id="path1185" d="M-33.7-95.411a25.083,25.083,0,0,1,1.464-8.467H-36.7V-84.7c0,2.28,3.532,4.3,8.94,5.519A25.027,25.027,0,0,1-33.7-95.411" transform="translate(36.696 103.878)" fill="#ffbe73"/>
          </g>
          <g id="g1187" transform="translate(2.61 17.607)">
            <path id="path1189" d="M-475.828-76.107c0,3.73-9.453,6.754-21.113,6.754s-21.113-3.024-21.113-6.754,9.453-6.754,21.113-6.754,21.113,3.024,21.113,6.754" transform="translate(518.055 82.861)" fill="#f9f097"/>
          </g>
          <g id="g1191" transform="translate(12.291 0.815)">
            <path id="path1193" d="M-18.149,0A1.611,1.611,0,0,0-19.76,1.611V21.552a1.993,1.993,0,0,0,1.993,1.993,1.993,1.993,0,0,0,1.993-1.993V0Z" transform="translate(19.76)" fill="#e8a882"/>
          </g>
          <g id="g1195" transform="translate(29.203 21.276)">
            <path id="path1197" d="M-54.933-27.466a2.437,2.437,0,0,1-2.437,2.437,2.437,2.437,0,0,1-2.437-2.437A2.437,2.437,0,0,1-57.37-29.9a2.437,2.437,0,0,1,2.437,2.437" transform="translate(59.808 29.904)" fill="#ffca8a"/>
          </g>
          <g id="g1199" transform="translate(20.8 23.69)">
            <path id="path1201" d="M-43.738-21.87a1.941,1.941,0,0,1-1.941,1.941A1.941,1.941,0,0,1-47.62-21.87a1.941,1.941,0,0,1,1.941-1.941,1.941,1.941,0,0,1,1.941,1.941" transform="translate(47.62 23.811)" fill="#ffca8a"/>
          </g>
          <g id="g1203" transform="translate(16.395 30.826)">
            <path id="path1205" d="M-252.59,0a8.475,8.475,0,0,0-6.032,2.5l-15.695,15.695a5.029,5.029,0,0,0-.689.859,62.675,62.675,0,0,0,7.328.418c11.661,0,21.113-3.024,21.113-6.754V0Z" transform="translate(275.006)" fill="#ffbe73"/>
          </g>
          <g id="g1207" transform="translate(18.333 33.543)">
            <path id="path1209" d="M-184.423-19.188-200.118-3.493A2.278,2.278,0,0,0-198.507.4h15.556l10.172-6.325,6.69-14.961h-14.223a5.814,5.814,0,0,0-4.111,1.7" transform="translate(200.79 20.891)" fill="#f9f097"/>
          </g>
          <g id="g1211" transform="translate(34.335 33.543)">
            <path id="path1213" d="M-6.09-204.61a1.833,1.833,0,0,0,1.3,3.129H6.759a5.309,5.309,0,0,0,5.309-5.309v-15.978Z" transform="translate(6.63 222.767)" fill="#ffca8a"/>
          </g>
          <g id="g1215" transform="translate(35.921 37.601)">
            <path id="path1217" d="M-54.912-27.457a2.436,2.436,0,0,1-2.437,2.436,2.436,2.436,0,0,1-2.436-2.436,2.437,2.437,0,0,1,2.436-2.437,2.437,2.437,0,0,1,2.437,2.437" transform="translate(59.785 29.893)" fill="#ffca8a"/>
          </g>
          <g id="g1219" transform="translate(29.555 43.903)">
            <path id="path1221" d="M-44.341-22.171A1.967,1.967,0,0,1-46.308-20.2a1.967,1.967,0,0,1-1.967-1.967,1.967,1.967,0,0,1,1.967-1.968,1.967,1.967,0,0,1,1.968,1.968" transform="translate(48.276 24.139)" fill="#ffca8a"/>
          </g>
          <path id="path1223" d="M285.45-662.759h-6.463v-9.906h6.463Z" transform="translate(-256.247 673.48)" fill="#eaeaea"/>
          <g id="g1225" transform="translate(2.61 19.367)">
            <path id="path1227" d="M-77.727,0c-4.238,1.235-6.9,3.015-6.9,4.994,0,1.365,1.268,2.636,3.445,3.7A24.978,24.978,0,0,1-77.727,0" transform="translate(84.625)" fill="#f8e86a"/>
          </g>
          <path id="path1229" d="M276.265-671.129H269.8a.815.815,0,0,1-.815-.815v-9.906a.815.815,0,0,1,.815-.815h6.463a.815.815,0,0,1,.815.815v9.906A.815.815,0,0,1,276.265-671.129Zm-5.648-1.63h4.833v-8.275h-4.833Z" transform="translate(-247.062 682.665)"/>
          <g id="g1231" transform="translate(28.388 0)">
            <path id="path1233" d="M-60.017-10h4.143a3.138,3.138,0,0,1,3.135,3.135V-1.6a3.138,3.138,0,0,1-3.135,3.135h-4.143a.815.815,0,0,1-.815-.815V-9.185A.815.815,0,0,1-60.017-10Zm4.143,9.906a1.506,1.506,0,0,0,1.5-1.5V-6.865a1.506,1.506,0,0,0-1.5-1.5H-59.2V-.094Z" transform="translate(60.832 10)"/>
          </g>
          <path id="path1235" d="M196.977-671.129h-6.463a.815.815,0,0,1-.815-.815v-9.906a.815.815,0,0,1,.815-.815h6.463a.815.815,0,0,1,.815.815v9.906A.815.815,0,0,1,196.977-671.129Zm-5.648-1.63h4.833v-8.275H191.33Z" transform="translate(-174.237 682.665)"/>
          <g id="g1237" transform="translate(28.388 20.46)">
            <path id="path1239" d="M-66.555-39.9A3.256,3.256,0,0,1-63.3-36.651,3.256,3.256,0,0,1-66.555-33.4a3.256,3.256,0,0,1-3.253-3.253A3.256,3.256,0,0,1-66.555-39.9Zm0,4.875a1.624,1.624,0,0,0,1.622-1.622,1.624,1.624,0,0,0-1.622-1.622,1.624,1.624,0,0,0-1.622,1.622A1.624,1.624,0,0,0-66.555-35.029Z" transform="translate(69.808 39.904)"/>
          </g>
          <g id="g1241" transform="translate(19.984 22.875)">
            <path id="path1243" d="M-54.864-28.3a2.759,2.759,0,0,1-2.756-2.756,2.759,2.759,0,0,1,2.756-2.756,2.759,2.759,0,0,1,2.756,2.756A2.759,2.759,0,0,1-54.864-28.3Zm0-3.881a1.127,1.127,0,0,0-1.126,1.126,1.127,1.127,0,0,0,1.126,1.126,1.127,1.127,0,0,0,1.126-1.126A1.127,1.127,0,0,0-54.864-32.18Z" transform="translate(57.62 33.811)"/>
          </g>
          <g id="g1245" transform="translate(7.877 35.434)">
            <path id="path1247" d="M-9.185-6.744A.815.815,0,0,1-10-7.559V-9.185A.815.815,0,0,1-9.185-10a.815.815,0,0,1,.815.815v1.626A.815.815,0,0,1-9.185-6.744Z" transform="translate(10 10)"/>
          </g>
          <g id="g1249" transform="translate(24.803 35.434)">
            <path id="path1251" d="M-9.185-6.744A.815.815,0,0,1-10-7.559V-9.185A.815.815,0,0,1-9.185-10a.815.815,0,0,1,.815.815v1.626A.815.815,0,0,1-9.185-6.744Z" transform="translate(10 10)"/>
          </g>
          <g id="g1253" transform="translate(14.108 37.012)">
            <path id="path1255" d="M-6.954-7.353A3.774,3.774,0,0,1-9.8-8.649.815.815,0,0,1-9.721-9.8a.815.815,0,0,1,1.15.079,2.145,2.145,0,0,0,1.617.737,2.145,2.145,0,0,0,1.617-.737A.815.815,0,0,1-4.187-9.8a.815.815,0,0,1,.079,1.15A3.775,3.775,0,0,1-6.954-7.353Z" transform="translate(10 10)"/>
          </g>
          <g id="g1257" transform="translate(35.106 36.786)">
            <path id="path1259" d="M-66.534-33.39a3.255,3.255,0,0,1-3.252-3.252,3.255,3.255,0,0,1,3.252-3.252,3.255,3.255,0,0,1,3.252,3.252A3.255,3.255,0,0,1-66.534-33.39Zm0-4.873a1.623,1.623,0,0,0-1.621,1.622,1.623,1.623,0,0,0,1.621,1.621,1.623,1.623,0,0,0,1.621-1.621A1.623,1.623,0,0,0-66.534-38.263Z" transform="translate(69.785 39.893)"/>
          </g>
          <g id="g1261" transform="translate(28.74 43.087)">
            <path id="path1263" d="M-55.493-34.137a2.786,2.786,0,0,1,2.783,2.783,2.786,2.786,0,0,1-2.783,2.783,2.786,2.786,0,0,1-2.783-2.783A2.786,2.786,0,0,1-55.493-34.137Zm0,3.935a1.154,1.154,0,0,0,1.152-1.152,1.154,1.154,0,0,0-1.152-1.152,1.154,1.154,0,0,0-1.152,1.152A1.154,1.154,0,0,0-55.493-30.2Z" transform="translate(58.276 34.137)"/>
          </g>
          <g id="g1265" transform="translate(11.476 0)">
            <path id="path1267" d="M-27.334-10h2.376a.815.815,0,0,1,.815.815V12.367a2.811,2.811,0,0,1-2.808,2.808,2.811,2.811,0,0,1-2.808-2.808V-7.574A2.428,2.428,0,0,1-27.334-10Zm1.561,1.63h-1.561a.8.8,0,0,0-.8.8V12.367a1.179,1.179,0,0,0,1.178,1.178,1.179,1.179,0,0,0,1.178-1.178Z" transform="translate(29.76 10)"/>
          </g>
          <g id="g1269" transform="translate(1.795 16.791)">
            <path id="path1271" d="M-102.3-146.439a57.869,57.869,0,0,1-11.975-1.171.815.815,0,0,1-.625-.969.815.815,0,0,1,.969-.625,56.22,56.22,0,0,0,11.63,1.135c11.962,0,20.3-3.13,20.3-5.939s-8.336-5.939-20.3-5.939a62.308,62.308,0,0,0-6.631.345v3.6a2.811,2.811,0,0,1-2.808,2.808A2.811,2.811,0,0,1-114.547-156v-2.672c-4.925,1.15-8.051,2.944-8.051,4.665,0,1.375,2.089,2.867,5.589,3.99a.815.815,0,0,1,.527,1.025.815.815,0,0,1-1.025.527c-4.4-1.412-6.721-3.329-6.721-5.543,0-2.761,3.766-5.122,10.331-6.477a.815.815,0,0,1,.68.166.815.815,0,0,1,.3.632V-156a1.179,1.179,0,0,0,1.178,1.178A1.179,1.179,0,0,0-110.561-156v-4.328a.815.815,0,0,1,.717-.809,63.279,63.279,0,0,1,7.544-.438c10.63,0,21.928,2.653,21.928,7.569S-91.669-146.439-102.3-146.439Z" transform="translate(124.228 161.577)"/>
          </g>
          <g id="g1273" transform="translate(1.795 23.546)">
            <path id="path1275" d="M-67.543-41.029h-.049c-8.921-.541-17.923-3.054-17.923-7.449V-67.66h0a.815.815,0,0,1,.815-.815.815.815,0,0,1,.815.815c0,1.375,2.09,2.866,5.589,3.99a.815.815,0,0,1,.527,1.025.815.815,0,0,1-1.025.527,15.068,15.068,0,0,1-5.091-2.539v16.178c0,2.345,5.986,5.132,16.026,5.8l14.672-14.672A6.586,6.586,0,0,1-48.5-59.294h5.211v-5.353c-3.5,2.977-12.1,4.555-20.3,4.555a57.868,57.868,0,0,1-11.975-1.171.815.815,0,0,1-.625-.969.815.815,0,0,1,.969-.625,56.22,56.22,0,0,0,11.63,1.135c11.962,0,20.3-3.13,20.3-5.939a.815.815,0,0,1,.815-.815.815.815,0,0,1,.815.815v9.182a.815.815,0,0,1-.815.815H-48.5A4.967,4.967,0,0,0-52.035-56.2L-66.967-41.268A.815.815,0,0,1-67.543-41.029Z" transform="translate(85.516 68.476)"/>
          </g>
          <g id="g1277" transform="translate(17.515 32.727)">
            <path id="path1279" d="M-271.02-133.164h-15.556a3.045,3.045,0,0,1-2.858-1.909,3.045,3.045,0,0,1,.671-3.371l15.695-15.695a6.586,6.586,0,0,1,4.688-1.942h14.223a.815.815,0,0,1,.753.5.815.815,0,0,1-.177.888l-11.907,11.907a.815.815,0,0,1-1.153,0,.815.815,0,0,1,0-1.153l10.516-10.516H-268.38a4.967,4.967,0,0,0-3.535,1.464l-15.695,15.695a1.423,1.423,0,0,0-.317,1.594,1.423,1.423,0,0,0,1.352.9h13.111l0,0a2.607,2.607,0,0,1,.574-2.885l3.97-3.97a.815.815,0,0,1,1.153,0,.815.815,0,0,1,0,1.153l-3.97,3.97a1,1,0,0,0-.221,1.109,1,1,0,0,0,.94.628.815.815,0,0,1,.815.815A.815.815,0,0,1-271.02-133.164Z" transform="translate(289.676 156.081)"/>
          </g>
          <g id="g1281" transform="translate(33.517 32.727)">
            <path id="path1283" d="M-51.163-161.149H-62.716a2.607,2.607,0,0,1-2.446-1.634,2.607,2.607,0,0,1,.574-2.886l3.97-3.97a.815.815,0,0,1,1.153,0,.815.815,0,0,1,0,1.153l-3.97,3.97a1,1,0,0,0-.221,1.109,1,1,0,0,0,.94.628h11.553a4.5,4.5,0,0,0,4.494-4.494v-14.01l-10.516,10.516a.815.815,0,0,1-1.153,0,.815.815,0,0,1,0-1.153l11.907-11.907a.815.815,0,0,1,.888-.177.815.815,0,0,1,.5.753v15.978A6.131,6.131,0,0,1-51.163-161.149Z" transform="translate(65.371 184.065)"/>
          </g>
        </g>
      </g>
    </g>
  </g>
</svg>
