<svg xmlns="http://www.w3.org/2000/svg" xmlns:xlink="http://www.w3.org/1999/xlink" width="102.949" height="102.949" viewBox="0 0 102.949 102.949">
  <defs>
    <filter id="Trazado_874925" x="0" y="0" width="102.949" height="102.949" filterUnits="userSpaceOnUse">
      <feOffset dy="3" input="SourceAlpha"/>
      <feGaussianBlur stdDeviation="3" result="blur"/>
      <feFlood flood-opacity="0.161"/>
      <feComposite operator="in" in2="blur"/>
      <feComposite in="SourceGraphic"/>
    </filter>
  </defs>
  <g id="Grupo_1182127" data-name="Grupo 1182127" transform="translate(-1222.051 -7808)">
    <g id="Grupo_1181899" data-name="Grupo 1181899" transform="translate(422.551 5296.843)">
      <g id="Grupo_1111316" data-name="Grupo 1111316" transform="translate(808.5 2517.157)">
        <g id="Grupo_1109835" data-name="Grupo 1109835" transform="translate(0 0)">
          <g id="Grupo_1107913" data-name="Grupo 1107913" transform="translate(0 0)">
            <g transform="matrix(1, 0, 0, 1, -9, -6)" filter="url(#Trazado_874925)">
              <g id="Trazado_874925-2" data-name="Trazado 874925" transform="translate(9 6)" fill="#4c6929" opacity="0.859">
                <path d="M 42.47446823120117 83.44929504394531 C 36.94229125976562 83.44929504394531 31.57638549804688 82.36614227294922 26.52582168579102 80.22994232177734 C 21.64678573608398 78.16628265380859 17.26464462280273 75.211669921875 13.50113868713379 71.44816589355469 C 9.737632751464844 67.68466949462891 6.78300952911377 63.30253982543945 4.719362258911133 58.42351913452148 C 2.583150625228882 53.37295150756836 1.499997615814209 48.00706100463867 1.499997615814209 42.47489547729492 C 1.499997615814209 36.94223403930664 2.583150625228882 31.57634162902832 4.719362258911133 26.52577781677246 C 6.78300952911377 21.64675331115723 9.737632751464844 17.26462364196777 13.50113868713379 13.50113010406494 C 17.26464462280273 9.737624168395996 21.64678573608398 6.783012390136719 26.52582168579102 4.719353199005127 C 31.57638549804688 2.583153486251831 36.94229125976562 1.500000476837158 42.47446823120117 1.500000476837158 C 48.00664520263672 1.500000476837158 53.37255096435547 2.583153486251831 58.42311477661133 4.719353199005127 C 63.30215072631836 6.783012390136719 67.68428802490234 9.737624168395996 71.44779968261719 13.50113010406494 C 75.2113037109375 17.26462364196777 78.16592407226562 21.64675331115723 80.22957611083984 26.52577781677246 C 82.36578369140625 31.57634162902832 83.44893646240234 36.94223403930664 83.44893646240234 42.47439956665039 C 83.44893646240234 48.00706100463867 82.36578369140625 53.37295150756836 80.22957611083984 58.42351913452148 C 78.16592407226562 63.30253982543945 75.2113037109375 67.68466949462891 71.44779968261719 71.44816589355469 C 67.68428802490234 75.211669921875 63.30215072631836 78.16628265380859 58.42311477661133 80.22994232177734 C 53.37255096435547 82.36614227294922 48.00664520263672 83.44929504394531 42.47446823120117 83.44929504394531 Z" stroke="none"/>
                <path d="M 42.47446823120117 2.999992370605469 C 37.14412307739258 2.999992370605469 31.97481536865234 4.04327392578125 27.11014938354492 6.100860595703125 C 22.40990829467773 8.088890075683594 18.18804168701172 10.93555450439453 14.56179809570312 14.56178283691406 C 10.93557739257812 18.18801116943359 8.088897705078125 22.40987396240234 6.100868225097656 27.11009979248047 C 4.043281555175781 31.97476577758789 3 37.14406204223633 3 42.47488784790039 C 3 47.80522155761719 4.043281555175781 52.97451400756836 6.100868225097656 57.83917999267578 C 8.088897705078125 62.53940582275391 10.93557739257812 66.76127624511719 14.56179809570312 70.38749694824219 C 18.18804168701172 74.01372528076172 22.40990829467773 76.86039733886719 27.11014938354492 78.84841918945312 C 31.97481536865234 80.906005859375 37.14412307739258 81.94928741455078 42.47446823120117 81.94928741455078 C 47.80481338500977 81.94928741455078 52.97412109375 80.906005859375 57.83879089355469 78.84841918945312 C 62.53902816772461 76.86039733886719 66.76089477539062 74.01372528076172 70.38713073730469 70.38749694824219 C 74.01335906982422 66.76127624511719 76.86003875732422 62.53940582275391 78.84806823730469 57.83917999267578 C 80.90565490722656 52.97451400756836 81.94893646240234 47.80522155761719 81.94893646240234 42.47439575195312 C 81.94893646240234 37.14406204223633 80.90565490722656 31.97476577758789 78.84806823730469 27.11009979248047 C 76.86003875732422 22.40987396240234 74.01335906982422 18.18801116943359 70.38713073730469 14.56178283691406 C 66.76089477539062 10.93555450439453 62.53902816772461 8.088890075683594 57.83879089355469 6.100860595703125 C 52.97412109375 4.04327392578125 47.80481338500977 2.999992370605469 42.47446823120117 2.999992370605469 M 42.47446823120117 -7.62939453125e-06 C 65.93246459960938 -7.62939453125e-06 84.94893646240234 19.01643371582031 84.94893646240234 42.47439575195312 L 84.94893646240234 42.47488784790039 C 84.94893646240234 65.93284606933594 65.93246459960938 84.94928741455078 42.47446823120117 84.94928741455078 C 19.01647186279297 84.94928741455078 0 65.93284606933594 0 42.47488784790039 L 0 42.47439575195312 C 0 19.01643371582031 19.01647186279297 -7.62939453125e-06 42.47446823120117 -7.62939453125e-06 Z" stroke="none" fill="#fff"/>
              </g>
            </g>
            <g id="Trazado_874923" data-name="Trazado 874923" transform="translate(0 0)" fill="none">
              <path d="M42.474,0A42.474,42.474,0,0,1,84.949,42.474h0A42.474,42.474,0,0,1,0,42.475H0A42.474,42.474,0,0,1,42.474,0Z" stroke="none"/>
              <path d="M 42.47446823120117 2.999992370605469 C 37.14412307739258 2.999992370605469 31.97481536865234 4.04327392578125 27.11014938354492 6.100860595703125 C 22.40990829467773 8.088890075683594 18.18804168701172 10.93555450439453 14.56179809570312 14.56178283691406 C 10.93557739257812 18.18801116943359 8.088897705078125 22.40987396240234 6.100868225097656 27.11009979248047 C 4.043281555175781 31.97476577758789 3 37.14406204223633 3 42.47488784790039 C 3 47.80522155761719 4.043281555175781 52.97451400756836 6.100868225097656 57.83917999267578 C 8.088897705078125 62.53940582275391 10.93557739257812 66.76127624511719 14.56179809570312 70.38749694824219 C 18.18804168701172 74.01372528076172 22.40990829467773 76.86039733886719 27.11014938354492 78.84841918945312 C 31.97481536865234 80.906005859375 37.14412307739258 81.94928741455078 42.47446823120117 81.94928741455078 C 47.80481338500977 81.94928741455078 52.97412109375 80.906005859375 57.83879089355469 78.84841918945312 C 62.53902816772461 76.86039733886719 66.76089477539062 74.01372528076172 70.38713073730469 70.38749694824219 C 74.01335906982422 66.76127624511719 76.86003875732422 62.53940582275391 78.84806823730469 57.83917999267578 C 80.90565490722656 52.97451400756836 81.94893646240234 47.80522155761719 81.94893646240234 42.47439575195312 C 81.94893646240234 37.14406204223633 80.90565490722656 31.97476577758789 78.84806823730469 27.11009979248047 C 76.86003875732422 22.40987396240234 74.01335906982422 18.18801116943359 70.38713073730469 14.56178283691406 C 66.76089477539062 10.93555450439453 62.53902816772461 8.088890075683594 57.83879089355469 6.100860595703125 C 52.97412109375 4.04327392578125 47.80481338500977 2.999992370605469 42.47446823120117 2.999992370605469 M 42.47446823120117 -7.62939453125e-06 C 65.93246459960938 -7.62939453125e-06 84.94893646240234 19.01643371582031 84.94893646240234 42.47439575195312 L 84.94893646240234 42.47488784790039 C 84.94893646240234 65.93284606933594 65.93246459960938 84.94928741455078 42.47446823120117 84.94928741455078 C 19.01647186279297 84.94928741455078 0 65.93284606933594 0 42.47488784790039 L 0 42.47439575195312 C 0 19.01643371582031 19.01647186279297 -7.62939453125e-06 42.47446823120117 -7.62939453125e-06 Z" stroke="none" fill="#fff"/>
            </g>
          </g>
        </g>
      </g>
    </g>
    <g id="ventas" transform="translate(1248.552 7830)">
      <path id="Trazado_910267" data-name="Trazado 910267" d="M240.394,162.453h-6.9v-24.08a2.752,2.752,0,0,1,2.752-2.752h1.395a2.751,2.751,0,0,1,2.752,2.752Zm0,0" transform="translate(-208.693 -121.474)" fill="#abebf4"/>
      <path id="Trazado_910268" data-name="Trazado 910268" d="M240.394,280.238a37.483,37.483,0,0,1-6.9,2.457v9.289h6.9Zm0,0" transform="translate(-208.693 -251.006)" fill="#8ed7e8"/>
      <path id="Trazado_910269" data-name="Trazado 910269" d="M145.539,217.671h-6.9v-18a2.4,2.4,0,0,1,2.4-2.4h2.1a2.4,2.4,0,0,1,2.4,2.4Zm0,0" transform="translate(-123.732 -176.692)" fill="#b2e59c"/>
      <path id="Trazado_910270" data-name="Trazado 910270" d="M335.254,93.914h-6.9V66.129a2.734,2.734,0,0,1,2.734-2.734h1.429a2.734,2.734,0,0,1,2.735,2.734Zm0,0" transform="translate(-293.657 -56.782)" fill="#ffde55"/>
      <path id="Trazado_910271" data-name="Trazado 910271" d="M335.25,218.594a45.01,45.01,0,0,1-6.9,4.874v9.457h6.9Zm0,0" transform="translate(-293.654 -195.792)" fill="#ffcd00"/>
      <path id="Trazado_910272" data-name="Trazado 910272" d="M109.477,243.168l13.87-7.362a2.32,2.32,0,0,1,3.361,2.512,6.72,6.72,0,0,1-2.3,3.989l-1.422,1.152a.964.964,0,0,0,.607,1.714l5.7,0a9.021,9.021,0,0,0,5.193-1.642l6.37-4.48a2.995,2.995,0,0,1,3.624,4.763l-8.344,6.856a9.02,9.02,0,0,1-3.582,1.792l-18.289,4.478Zm0,0" transform="translate(-97.61 -210.961)" fill="#ffe2d9"/>
      <path id="Trazado_910273" data-name="Trazado 910273" d="M117.161,303.123c-5.253-1.541-4.862-8.728-4.862-8.728l-2.823,1.5,4.788,13.775,13.941-3.413C125.268,305.438,120.543,304.115,117.161,303.123Zm0,0" transform="translate(-97.61 -263.686)" fill="#ffcfc2"/>
      <path id="Trazado_910274" data-name="Trazado 910274" d="M21.277,308.758l5.183,13.832a4.04,4.04,0,0,1-2.889,5.358l-4.956,1.126a4.041,4.041,0,0,1-4.805-2.924l-2.669-10.27a4.162,4.162,0,0,1,2.884-5.049Zm0,0" transform="translate(-9.41 -276.551)" fill="#8ed7e8"/>
      <path id="Trazado_910275" data-name="Trazado 910275" d="M26.459,335.745l-.808-2.157a13.366,13.366,0,0,0-6.13-1.086,4.053,4.053,0,0,1-4.232-4.175,27.973,27.973,0,0,1,.626-4.882l-1.891.54a4.162,4.162,0,0,0-2.884,5.049l2.669,10.27a4.041,4.041,0,0,0,4.805,2.924l4.956-1.126A4.041,4.041,0,0,0,26.459,335.745Zm0,0" transform="translate(-9.41 -289.706)" fill="#7ac1dd"/>
      <path id="Trazado_910276" data-name="Trazado 910276" d="M76.42,429.038a2.3,2.3,0,1,1-2.3-2.3A2.3,2.3,0,0,1,76.42,429.038Zm0,0" transform="translate(-63.882 -382.224)" fill="#ffeb99"/>
      <path id="Trazado_910277" data-name="Trazado 910277" d="M36.622,7.5H30.366a1.624,1.624,0,1,0,0,3.248h2.226l-6.524,6.281-3.094-1.6a1.625,1.625,0,0,0-1.9.3L8.459,28.442a1.624,1.624,0,0,0,2.306,2.288L22.542,18.862l3.068,1.587a1.625,1.625,0,0,0,1.873-.273L35,12.943v2.492a1.624,1.624,0,1,0,3.248,0V9.124s0,0,0,0A1.5,1.5,0,0,0,36.622,7.5Zm0,0" transform="translate(-6.707 -6.718)" fill="#97f7e5"/>
      <path id="Trazado_910278" data-name="Trazado 910278" d="M50.356,77.966c-2.454-2.443-5.291-.156-5.291-.156V64.947a.782.782,0,1,0-1.565,0V78.91a42.64,42.64,0,0,1-5.334,3.659V59.411a1.954,1.954,0,0,1,1.952-1.952h1.429A1.954,1.954,0,0,1,43.5,59.411v2.334a.782.782,0,0,0,1.565,0V59.411a3.521,3.521,0,0,0-3.517-3.516H40.119A3.521,3.521,0,0,0,36.6,59.411V83.189a8.214,8.214,0,0,1-1.432.266V66.963a3.538,3.538,0,0,0-3.534-3.534H30.242a3.538,3.538,0,0,0-3.534,3.534v7.971l-1.432.76V73.041a3.185,3.185,0,0,0-3.182-3.182h-2.1a3.185,3.185,0,0,0-3.182,3.182v7.145l-2.554,1.356-7.173,2.05a4.944,4.944,0,0,0-3.426,6l.8,3.087a.782.782,0,1,0,1.514-.394l-.8-3.087a3.36,3.36,0,0,1,2.343-4.1l6.558-1.874L19,96.377a3.5,3.5,0,0,1-2.329,4.32l-4.956,1.126a3.244,3.244,0,0,1-3.875-2.358L6.836,95.594a.782.782,0,0,0-1.515.394l1.006,3.872a4.8,4.8,0,0,0,4.648,3.612,38.37,38.37,0,0,0,6.044-1.248,4.821,4.821,0,0,0,3.65-5.7l17.146-4.2a9.866,9.866,0,0,0,3.892-1.948l8.344-6.856A3.711,3.711,0,0,0,50.356,77.966ZM30.242,64.993h1.395a1.972,1.972,0,0,1,1.969,1.97V83.495l-4.936,0c-.454,0-.139-.3-.115-.324l1.422-1.152a7.434,7.434,0,0,0,2.574-4.441,3.1,3.1,0,0,0-4.278-3.463V66.963A1.972,1.972,0,0,1,30.242,64.993ZM18.378,73.041a1.619,1.619,0,0,1,1.617-1.617h2.1a1.619,1.619,0,0,1,1.617,1.617v3.483l-5.333,2.831ZM49.06,82.315l-8.344,6.856a8.288,8.288,0,0,1-3.271,1.637L20.172,95.037l-4.645-12.4L28.79,75.6a1.537,1.537,0,0,1,2.228,1.664A5.913,5.913,0,0,1,28.991,80.8l-1.422,1.152a1.747,1.747,0,0,0,1.1,3.1l5.7,0h0a9.755,9.755,0,0,0,5.64-1.785l6.37-4.48a2.2,2.2,0,0,1,2.855.263A2.172,2.172,0,0,1,49.06,82.315Zm0,0" transform="translate(-2.687 -50.064)"/>
      <path id="Trazado_910279" data-name="Trazado 910279" d="M70.485,422.321A3.082,3.082,0,1,0,67.4,425.4,3.086,3.086,0,0,0,70.485,422.321Zm-4.6,0a1.517,1.517,0,1,1,1.517,1.517A1.519,1.519,0,0,1,65.885,422.321Zm0,0" transform="translate(-57.164 -375.507)"/>
      <path id="Trazado_910280" data-name="Trazado 910280" d="M4.613,24.564,15.985,13.1l2.558,1.323a2.406,2.406,0,0,0,2.775-.4l6.19-5.959s-.17,3.061,2.407,3.061a2.41,2.41,0,0,0,2.407-2.407V2.407c0-.007,0-.015,0-.023A2.278,2.278,0,0,0,29.915,0H23.659a2.409,2.409,0,0,0-2.407,2.407,2.372,2.372,0,0,0,2.692,2.407L19.222,9.359l-2.6-1.342a2.4,2.4,0,0,0-2.814.442L1.2,21.173a2.409,2.409,0,0,0,.013,3.4A2.373,2.373,0,0,0,4.613,24.564ZM2.307,22.275,14.924,9.561a.711.711,0,0,1,.984-.154L19,11.006a.782.782,0,0,0,.9-.131l6.524-6.28a.782.782,0,0,0-.542-1.346H23.659a.842.842,0,0,1,0-1.684h6.256a.735.735,0,0,1,.841.837c0,.007,0,.014,0,.021V8.717a.842.842,0,1,1-1.684,0V6.225a.782.782,0,0,0-1.325-.564L20.233,12.9a.842.842,0,0,1-.971.141L16.194,11.45a.783.783,0,0,0-.915.144L3.5,23.461a.807.807,0,0,1-1.191,0A.843.843,0,0,1,2.307,22.275Zm0,0" transform="translate(0)"/>
    </g>
  </g>
</svg>
