<svg xmlns="http://www.w3.org/2000/svg" xmlns:xlink="http://www.w3.org/1999/xlink" width="102.949" height="102.949" viewBox="0 0 102.949 102.949">
  <defs>
    <filter id="Trazado_874925" x="0" y="0" width="102.949" height="102.949" filterUnits="userSpaceOnUse">
      <feOffset dy="3" input="SourceAlpha"/>
      <feGaussianBlur stdDeviation="3" result="blur"/>
      <feFlood flood-opacity="0.161"/>
      <feComposite operator="in" in2="blur"/>
      <feComposite in="SourceGraphic"/>
    </filter>
  </defs>
  <g id="Grupo_1182279" data-name="Grupo 1182279" transform="translate(-1064.5 -2041.358)">
    <g id="Grupo_1181887" data-name="Grupo 1181887" transform="translate(265 -469.799)">
      <g id="Grupo_1111316" data-name="Grupo 1111316" transform="translate(808.5 2517.157)">
        <g id="Grupo_1109835" data-name="Grupo 1109835" transform="translate(0 0)">
          <g id="Grupo_1107913" data-name="Grupo 1107913" transform="translate(0 0)">
            <g transform="matrix(1, 0, 0, 1, -9, -6)" filter="url(#Trazado_874925)">
              <g id="Trazado_874925-2" data-name="Trazado 874925" transform="translate(9 6)" fill="#9ad354" opacity="0.859">
                <path d="M 42.47446823120117 83.44929504394531 C 36.94229125976562 83.44929504394531 31.57638549804688 82.36614227294922 26.52582168579102 80.22994232177734 C 21.64678573608398 78.16628265380859 17.26464462280273 75.211669921875 13.50113868713379 71.44816589355469 C 9.737632751464844 67.68466949462891 6.78300952911377 63.30253982543945 4.719362258911133 58.42351913452148 C 2.583150625228882 53.37295150756836 1.499997615814209 48.00706100463867 1.499997615814209 42.47489547729492 C 1.499997615814209 36.94223403930664 2.583150625228882 31.57634162902832 4.719362258911133 26.52577781677246 C 6.78300952911377 21.64675331115723 9.737632751464844 17.26462364196777 13.50113868713379 13.50113010406494 C 17.26464462280273 9.737624168395996 21.64678573608398 6.783012390136719 26.52582168579102 4.719353199005127 C 31.57638549804688 2.583153486251831 36.94229125976562 1.500000476837158 42.47446823120117 1.500000476837158 C 48.00664520263672 1.500000476837158 53.37255096435547 2.583153486251831 58.42311477661133 4.719353199005127 C 63.30215072631836 6.783012390136719 67.68428802490234 9.737624168395996 71.44779968261719 13.50113010406494 C 75.2113037109375 17.26462364196777 78.16592407226562 21.64675331115723 80.22957611083984 26.52577781677246 C 82.36578369140625 31.57634162902832 83.44893646240234 36.94223403930664 83.44893646240234 42.47439956665039 C 83.44893646240234 48.00706100463867 82.36578369140625 53.37295150756836 80.22957611083984 58.42351913452148 C 78.16592407226562 63.30253982543945 75.2113037109375 67.68466949462891 71.44779968261719 71.44816589355469 C 67.68428802490234 75.211669921875 63.30215072631836 78.16628265380859 58.42311477661133 80.22994232177734 C 53.37255096435547 82.36614227294922 48.00664520263672 83.44929504394531 42.47446823120117 83.44929504394531 Z" stroke="none"/>
                <path d="M 42.47446823120117 2.999992370605469 C 37.14412307739258 2.999992370605469 31.97481536865234 4.04327392578125 27.11014938354492 6.100860595703125 C 22.40990829467773 8.088890075683594 18.18804168701172 10.93555450439453 14.56179809570312 14.56178283691406 C 10.93557739257812 18.18801116943359 8.088897705078125 22.40987396240234 6.100868225097656 27.11009979248047 C 4.043281555175781 31.97476577758789 3 37.14406204223633 3 42.47488784790039 C 3 47.80522155761719 4.043281555175781 52.97451400756836 6.100868225097656 57.83917999267578 C 8.088897705078125 62.53940582275391 10.93557739257812 66.76127624511719 14.56179809570312 70.38749694824219 C 18.18804168701172 74.01372528076172 22.40990829467773 76.86039733886719 27.11014938354492 78.84841918945312 C 31.97481536865234 80.906005859375 37.14412307739258 81.94928741455078 42.47446823120117 81.94928741455078 C 47.80481338500977 81.94928741455078 52.97412109375 80.906005859375 57.83879089355469 78.84841918945312 C 62.53902816772461 76.86039733886719 66.76089477539062 74.01372528076172 70.38713073730469 70.38749694824219 C 74.01335906982422 66.76127624511719 76.86003875732422 62.53940582275391 78.84806823730469 57.83917999267578 C 80.90565490722656 52.97451400756836 81.94893646240234 47.80522155761719 81.94893646240234 42.47439575195312 C 81.94893646240234 37.14406204223633 80.90565490722656 31.97476577758789 78.84806823730469 27.11009979248047 C 76.86003875732422 22.40987396240234 74.01335906982422 18.18801116943359 70.38713073730469 14.56178283691406 C 66.76089477539062 10.93555450439453 62.53902816772461 8.088890075683594 57.83879089355469 6.100860595703125 C 52.97412109375 4.04327392578125 47.80481338500977 2.999992370605469 42.47446823120117 2.999992370605469 M 42.47446823120117 -7.62939453125e-06 C 65.93246459960938 -7.62939453125e-06 84.94893646240234 19.01643371582031 84.94893646240234 42.47439575195312 L 84.94893646240234 42.47488784790039 C 84.94893646240234 65.93284606933594 65.93246459960938 84.94928741455078 42.47446823120117 84.94928741455078 C 19.01647186279297 84.94928741455078 0 65.93284606933594 0 42.47488784790039 L 0 42.47439575195312 C 0 19.01643371582031 19.01647186279297 -7.62939453125e-06 42.47446823120117 -7.62939453125e-06 Z" stroke="none" fill="#fff"/>
              </g>
            </g>
            <g id="Trazado_874923" data-name="Trazado 874923" transform="translate(0 0)" fill="none">
              <path d="M42.474,0A42.474,42.474,0,0,1,84.949,42.474h0A42.474,42.474,0,0,1,0,42.475H0A42.474,42.474,0,0,1,42.474,0Z" stroke="none"/>
              <path d="M 42.47446823120117 2.999992370605469 C 37.14412307739258 2.999992370605469 31.97481536865234 4.04327392578125 27.11014938354492 6.100860595703125 C 22.40990829467773 8.088890075683594 18.18804168701172 10.93555450439453 14.56179809570312 14.56178283691406 C 10.93557739257812 18.18801116943359 8.088897705078125 22.40987396240234 6.100868225097656 27.11009979248047 C 4.043281555175781 31.97476577758789 3 37.14406204223633 3 42.47488784790039 C 3 47.80522155761719 4.043281555175781 52.97451400756836 6.100868225097656 57.83917999267578 C 8.088897705078125 62.53940582275391 10.93557739257812 66.76127624511719 14.56179809570312 70.38749694824219 C 18.18804168701172 74.01372528076172 22.40990829467773 76.86039733886719 27.11014938354492 78.84841918945312 C 31.97481536865234 80.906005859375 37.14412307739258 81.94928741455078 42.47446823120117 81.94928741455078 C 47.80481338500977 81.94928741455078 52.97412109375 80.906005859375 57.83879089355469 78.84841918945312 C 62.53902816772461 76.86039733886719 66.76089477539062 74.01372528076172 70.38713073730469 70.38749694824219 C 74.01335906982422 66.76127624511719 76.86003875732422 62.53940582275391 78.84806823730469 57.83917999267578 C 80.90565490722656 52.97451400756836 81.94893646240234 47.80522155761719 81.94893646240234 42.47439575195312 C 81.94893646240234 37.14406204223633 80.90565490722656 31.97476577758789 78.84806823730469 27.11009979248047 C 76.86003875732422 22.40987396240234 74.01335906982422 18.18801116943359 70.38713073730469 14.56178283691406 C 66.76089477539062 10.93555450439453 62.53902816772461 8.088890075683594 57.83879089355469 6.100860595703125 C 52.97412109375 4.04327392578125 47.80481338500977 2.999992370605469 42.47446823120117 2.999992370605469 M 42.47446823120117 -7.62939453125e-06 C 65.93246459960938 -7.62939453125e-06 84.94893646240234 19.01643371582031 84.94893646240234 42.47439575195312 L 84.94893646240234 42.47488784790039 C 84.94893646240234 65.93284606933594 65.93246459960938 84.94928741455078 42.47446823120117 84.94928741455078 C 19.01647186279297 84.94928741455078 0 65.93284606933594 0 42.47488784790039 L 0 42.47439575195312 C 0 19.01643371582031 19.01647186279297 -7.62939453125e-06 42.47446823120117 -7.62939453125e-06 Z" stroke="none" fill="#fff"/>
            </g>
          </g>
        </g>
      </g>
    </g>
    <g id="Page-1" transform="translate(1090.056 2063.995)">
      <g id="_029---Approval" data-name="029---Approval" transform="translate(-0.005 0.005)">
        <g id="Icons" transform="translate(0.839 0.83)">
          <path id="Shape" d="M48.817,48.966c-.467.25-1.052.593-1.778,1.077-2.5,1.669-4.173,1.669-7.512,1.669H27.008a2.5,2.5,0,1,1,0-5.008H25.339a2.5,2.5,0,1,1,0-5.008H24.5a2.493,2.493,0,0,1-2.354-1.669,2.314,2.314,0,0,1-.15-.835,2.5,2.5,0,0,1,2.5-2.5h1.811a2.74,2.74,0,0,1-1.269-.309,2.477,2.477,0,0,1,1.127-4.7l6.677-.008a.835.835,0,0,0,.7-1.285c-1.644-2.579-2.6-4.732-2.37-8.038a2.5,2.5,0,0,1,4.991-.134,8.294,8.294,0,0,0,.576,2.287,5.225,5.225,0,0,0,1.494,2.112c.751.618.81.609,1.169.9.317.242.86.726,2.3,2.045a15.4,15.4,0,0,1,2.245,2.554,7.921,7.921,0,0,0,4.766,2.713,1.418,1.418,0,0,0-.008.192V48.373a1.736,1.736,0,0,0,.109.593Z" transform="translate(-3.638 -3.302)" fill="#ffe0b2"/>
          <path id="Shape-2" data-name="Shape" d="M50.775,48.377V35.023a1.418,1.418,0,0,1,.008-.192,7.921,7.921,0,0,1-4.766-2.713,15.4,15.4,0,0,0-2.245-2.554c-1.436-1.319-1.978-1.8-2.3-2.045-.359-.292-.417-.284-1.169-.9a5.225,5.225,0,0,1-1.494-2.112,8.294,8.294,0,0,1-.576-2.287,2.487,2.487,0,0,0-3.745-1.874,2.493,2.493,0,0,1,1.241,1.874,8.294,8.294,0,0,0,.576,2.287A5.225,5.225,0,0,0,37.8,26.618c.751.618.81.609,1.169.9.317.242.86.726,2.3,2.045a15.4,15.4,0,0,1,2.245,2.554,7.921,7.921,0,0,0,4.766,2.713,1.419,1.419,0,0,0-.008.192V48.377a1.736,1.736,0,0,0,.109.593c-.467.25-1.052.593-1.778,1.077-2.5,1.669-4.173,1.669-7.512,1.669h2.5c3.339,0,5.008,0,7.512-1.669.726-.484,1.31-.826,1.778-1.077A1.736,1.736,0,0,1,50.775,48.377Z" transform="translate(-5.703 -3.306)" fill="#dfc49c"/>
          <path id="Shape-3" data-name="Shape" d="M57.339,37.669V51.024a1.669,1.669,0,0,1-1.669,1.669,1.7,1.7,0,0,1-1.561-1.077A1.736,1.736,0,0,1,54,51.024V37.669a1.418,1.418,0,0,1,.008-.192h.008A1.669,1.669,0,0,1,55.669,36a1.637,1.637,0,0,1,1.185.492,1.658,1.658,0,0,1,.484,1.177Z" transform="translate(-8.929 -5.953)" fill="#02a9f4"/>
          <path id="Shape-4" data-name="Shape" d="M34.047,19.024a14.477,14.477,0,0,1-.275,2.838,8.294,8.294,0,0,1-.576-2.287,2.5,2.5,0,0,0-4.991.134c-.225,3.305.726,5.459,2.37,8.038a.835.835,0,0,1-.7,1.285l-6.677.008a2.477,2.477,0,0,0-1.127,4.7,15.269,15.269,0,0,1-3.046.309A15.024,15.024,0,1,1,34.047,19.024Z" transform="translate(-0.661 -0.661)" fill="#a4c400"/>
          <path id="Shape-5" data-name="Shape" d="M36.725,18.362a18.33,18.33,0,0,1-.951,5.851c-.359-.292-.417-.284-1.169-.9A5.225,5.225,0,0,1,33.111,21.2a14.478,14.478,0,0,0,.275-2.838A15.024,15.024,0,1,0,18.362,33.386a15.269,15.269,0,0,0,3.046-.309,2.74,2.74,0,0,0,1.269.309H20.866a2.5,2.5,0,0,0-2.5,2.5,2.314,2.314,0,0,0,.15.835h-.15A18.362,18.362,0,1,1,36.725,18.362Z" fill="#60a917"/>
          <path id="Shape-6" data-name="Shape" d="M21.752,0c-.417,0-.835.019-1.252.048A18.324,18.324,0,0,1,37.153,22.4a4.591,4.591,0,0,0,.841.912c.751.618.81.609,1.169.9A18.376,18.376,0,0,0,21.752,0Z" transform="translate(-3.39)" fill="#549414"/>
        </g>
        <g id="Icons_copy">
          <path id="Shape-7" data-name="Shape" d="M48.574,30.048a2.5,2.5,0,0,0-2.193,1.321,6.661,6.661,0,0,1-3.545-2.193,16.143,16.143,0,0,0-2.367-2.7c-.972-.9-1.537-1.408-1.91-1.731A19.192,19.192,0,1,0,19.824,38.386,3.344,3.344,0,0,0,21,39.584a3.3,3.3,0,0,0,1.437,5.288A3.339,3.339,0,0,0,25.2,50.08h12.52c3.392,0,5.258,0,7.975-1.81.369-.25.714-.46,1.052-.659a2.5,2.5,0,0,0,4.328-1.7V32.552a2.5,2.5,0,0,0-2.5-2.5ZM2.668,19.2a17.528,17.528,0,1,1,34.479,4.447c-.057-.046-.109-.083-.176-.144A4.321,4.321,0,0,1,35.8,21.915a15.348,15.348,0,0,0,.252-2.718,15.858,15.858,0,1,0-16.216,15.84,3.3,3.3,0,0,0-.47,1.646A17.534,17.534,0,0,1,2.668,19.2Zm28.378,9.173-6.677.008a3.359,3.359,0,0,0-2.42,1.042,3.306,3.306,0,0,0-.912,2.476,3.192,3.192,0,0,0,.437,1.425c-.426.038-.853.065-1.277.065A14.189,14.189,0,1,1,34.313,17.763a3.327,3.327,0,0,0-5.765,2.062C28.311,23.318,29.285,25.6,31.047,28.371ZM44.776,46.881c-2.294,1.529-3.783,1.529-7.052,1.529H25.2a1.669,1.669,0,1,1,0-3.339h.835a.835.835,0,0,0,0-1.669h-2.5a1.669,1.669,0,1,1,0-3.339h2.5a.835.835,0,0,0,0-1.669H22.7a1.669,1.669,0,1,1,0-3.339h3.339a.835.835,0,0,0,0-1.669H24.511A1.774,1.774,0,0,1,22.7,31.808a1.669,1.669,0,0,1,1.669-1.759l6.677-.008a1.67,1.67,0,0,0,1.406-2.568c-1.614-2.532-2.45-4.483-2.242-7.537a1.669,1.669,0,0,1,3.329-.091,7.565,7.565,0,0,0,2.37,4.946,11.234,11.234,0,0,0,.893.689A25.247,25.247,0,0,1,39.333,27.7a14.773,14.773,0,0,1,2.158,2.458,8.414,8.414,0,0,0,4.58,2.86V45.907c0,.055.013.107.016.161-.417.244-.851.507-1.31.814Zm4.633-.975a.835.835,0,1,1-1.669,0V32.552a.835.835,0,1,1,1.669,0Z" transform="translate(-0.995 -0.005)"/>
          <path id="Shape-8" data-name="Shape" d="M31.12,15.245a.835.835,0,0,0-1.18,0L18.01,27.174l-3.583-3.583a.835.835,0,0,0-1.18,1.18l4.173,4.173a.835.835,0,0,0,1.18,0l12.52-12.52A.835.835,0,0,0,31.12,15.245Z" transform="translate(-2.982 -2.485)"/>
        </g>
      </g>
    </g>
  </g>
</svg>
