<svg xmlns="http://www.w3.org/2000/svg" xmlns:xlink="http://www.w3.org/1999/xlink" width="102.949" height="102.949" viewBox="0 0 102.949 102.949">
  <defs>
    <filter id="Trazado_874925" x="0" y="0" width="102.949" height="102.949" filterUnits="userSpaceOnUse">
      <feOffset dy="3" input="SourceAlpha"/>
      <feGaussianBlur stdDeviation="3" result="blur"/>
      <feFlood flood-opacity="0.161"/>
      <feComposite operator="in" in2="blur"/>
      <feComposite in="SourceGraphic"/>
    </filter>
  </defs>
  <g id="Grupo_1182123" data-name="Grupo 1182123" transform="translate(-592.051 -7808)">
    <g id="Grupo_1181897" data-name="Grupo 1181897" transform="translate(-207.449 5296.843)">
      <g id="Grupo_1111316" data-name="Grupo 1111316" transform="translate(808.5 2517.157)">
        <g id="Grupo_1109835" data-name="Grupo 1109835" transform="translate(0 0)">
          <g id="Grupo_1107913" data-name="Grupo 1107913" transform="translate(0 0)">
            <g transform="matrix(1, 0, 0, 1, -9, -6)" filter="url(#Trazado_874925)">
              <g id="Trazado_874925-2" data-name="Trazado 874925" transform="translate(9 6)" fill="#4c6929" opacity="0.859">
                <path d="M 42.47446823120117 83.44929504394531 C 36.94229125976562 83.44929504394531 31.57638549804688 82.36614227294922 26.52582168579102 80.22994232177734 C 21.64678573608398 78.16628265380859 17.26464462280273 75.211669921875 13.50113868713379 71.44816589355469 C 9.737632751464844 67.68466949462891 6.78300952911377 63.30253982543945 4.719362258911133 58.42351913452148 C 2.583150625228882 53.37295150756836 1.499997615814209 48.00706100463867 1.499997615814209 42.47489547729492 C 1.499997615814209 36.94223403930664 2.583150625228882 31.57634162902832 4.719362258911133 26.52577781677246 C 6.78300952911377 21.64675331115723 9.737632751464844 17.26462364196777 13.50113868713379 13.50113010406494 C 17.26464462280273 9.737624168395996 21.64678573608398 6.783012390136719 26.52582168579102 4.719353199005127 C 31.57638549804688 2.583153486251831 36.94229125976562 1.500000476837158 42.47446823120117 1.500000476837158 C 48.00664520263672 1.500000476837158 53.37255096435547 2.583153486251831 58.42311477661133 4.719353199005127 C 63.30215072631836 6.783012390136719 67.68428802490234 9.737624168395996 71.44779968261719 13.50113010406494 C 75.2113037109375 17.26462364196777 78.16592407226562 21.64675331115723 80.22957611083984 26.52577781677246 C 82.36578369140625 31.57634162902832 83.44893646240234 36.94223403930664 83.44893646240234 42.47439956665039 C 83.44893646240234 48.00706100463867 82.36578369140625 53.37295150756836 80.22957611083984 58.42351913452148 C 78.16592407226562 63.30253982543945 75.2113037109375 67.68466949462891 71.44779968261719 71.44816589355469 C 67.68428802490234 75.211669921875 63.30215072631836 78.16628265380859 58.42311477661133 80.22994232177734 C 53.37255096435547 82.36614227294922 48.00664520263672 83.44929504394531 42.47446823120117 83.44929504394531 Z" stroke="none"/>
                <path d="M 42.47446823120117 2.999992370605469 C 37.14412307739258 2.999992370605469 31.97481536865234 4.04327392578125 27.11014938354492 6.100860595703125 C 22.40990829467773 8.088890075683594 18.18804168701172 10.93555450439453 14.56179809570312 14.56178283691406 C 10.93557739257812 18.18801116943359 8.088897705078125 22.40987396240234 6.100868225097656 27.11009979248047 C 4.043281555175781 31.97476577758789 3 37.14406204223633 3 42.47488784790039 C 3 47.80522155761719 4.043281555175781 52.97451400756836 6.100868225097656 57.83917999267578 C 8.088897705078125 62.53940582275391 10.93557739257812 66.76127624511719 14.56179809570312 70.38749694824219 C 18.18804168701172 74.01372528076172 22.40990829467773 76.86039733886719 27.11014938354492 78.84841918945312 C 31.97481536865234 80.906005859375 37.14412307739258 81.94928741455078 42.47446823120117 81.94928741455078 C 47.80481338500977 81.94928741455078 52.97412109375 80.906005859375 57.83879089355469 78.84841918945312 C 62.53902816772461 76.86039733886719 66.76089477539062 74.01372528076172 70.38713073730469 70.38749694824219 C 74.01335906982422 66.76127624511719 76.86003875732422 62.53940582275391 78.84806823730469 57.83917999267578 C 80.90565490722656 52.97451400756836 81.94893646240234 47.80522155761719 81.94893646240234 42.47439575195312 C 81.94893646240234 37.14406204223633 80.90565490722656 31.97476577758789 78.84806823730469 27.11009979248047 C 76.86003875732422 22.40987396240234 74.01335906982422 18.18801116943359 70.38713073730469 14.56178283691406 C 66.76089477539062 10.93555450439453 62.53902816772461 8.088890075683594 57.83879089355469 6.100860595703125 C 52.97412109375 4.04327392578125 47.80481338500977 2.999992370605469 42.47446823120117 2.999992370605469 M 42.47446823120117 -7.62939453125e-06 C 65.93246459960938 -7.62939453125e-06 84.94893646240234 19.01643371582031 84.94893646240234 42.47439575195312 L 84.94893646240234 42.47488784790039 C 84.94893646240234 65.93284606933594 65.93246459960938 84.94928741455078 42.47446823120117 84.94928741455078 C 19.01647186279297 84.94928741455078 0 65.93284606933594 0 42.47488784790039 L 0 42.47439575195312 C 0 19.01643371582031 19.01647186279297 -7.62939453125e-06 42.47446823120117 -7.62939453125e-06 Z" stroke="none" fill="#fff"/>
              </g>
            </g>
            <g id="Trazado_874923" data-name="Trazado 874923" transform="translate(0 0)" fill="none">
              <path d="M42.474,0A42.474,42.474,0,0,1,84.949,42.474h0A42.474,42.474,0,0,1,0,42.475H0A42.474,42.474,0,0,1,42.474,0Z" stroke="none"/>
              <path d="M 42.47446823120117 2.999992370605469 C 37.14412307739258 2.999992370605469 31.97481536865234 4.04327392578125 27.11014938354492 6.100860595703125 C 22.40990829467773 8.088890075683594 18.18804168701172 10.93555450439453 14.56179809570312 14.56178283691406 C 10.93557739257812 18.18801116943359 8.088897705078125 22.40987396240234 6.100868225097656 27.11009979248047 C 4.043281555175781 31.97476577758789 3 37.14406204223633 3 42.47488784790039 C 3 47.80522155761719 4.043281555175781 52.97451400756836 6.100868225097656 57.83917999267578 C 8.088897705078125 62.53940582275391 10.93557739257812 66.76127624511719 14.56179809570312 70.38749694824219 C 18.18804168701172 74.01372528076172 22.40990829467773 76.86039733886719 27.11014938354492 78.84841918945312 C 31.97481536865234 80.906005859375 37.14412307739258 81.94928741455078 42.47446823120117 81.94928741455078 C 47.80481338500977 81.94928741455078 52.97412109375 80.906005859375 57.83879089355469 78.84841918945312 C 62.53902816772461 76.86039733886719 66.76089477539062 74.01372528076172 70.38713073730469 70.38749694824219 C 74.01335906982422 66.76127624511719 76.86003875732422 62.53940582275391 78.84806823730469 57.83917999267578 C 80.90565490722656 52.97451400756836 81.94893646240234 47.80522155761719 81.94893646240234 42.47439575195312 C 81.94893646240234 37.14406204223633 80.90565490722656 31.97476577758789 78.84806823730469 27.11009979248047 C 76.86003875732422 22.40987396240234 74.01335906982422 18.18801116943359 70.38713073730469 14.56178283691406 C 66.76089477539062 10.93555450439453 62.53902816772461 8.088890075683594 57.83879089355469 6.100860595703125 C 52.97412109375 4.04327392578125 47.80481338500977 2.999992370605469 42.47446823120117 2.999992370605469 M 42.47446823120117 -7.62939453125e-06 C 65.93246459960938 -7.62939453125e-06 84.94893646240234 19.01643371582031 84.94893646240234 42.47439575195312 L 84.94893646240234 42.47488784790039 C 84.94893646240234 65.93284606933594 65.93246459960938 84.94928741455078 42.47446823120117 84.94928741455078 C 19.01647186279297 84.94928741455078 0 65.93284606933594 0 42.47488784790039 L 0 42.47439575195312 C 0 19.01643371582031 19.01647186279297 -7.62939453125e-06 42.47446823120117 -7.62939453125e-06 Z" stroke="none" fill="#fff"/>
            </g>
          </g>
        </g>
      </g>
    </g>
    <g id="clientes" transform="translate(588.349 7827.999)">
      <g id="Grupo_1182122" data-name="Grupo 1182122" transform="translate(32.492 1.791)">
        <g id="Grupo_1182118" data-name="Grupo 1182118" transform="translate(0 27.211)">
          <path id="Trazado_910244" data-name="Trazado 910244" d="M39.652,368.759H56.06a.447.447,0,0,0,.446-.446v-3.7a7.381,7.381,0,0,0-7.359-7.359H46.565a7.381,7.381,0,0,0-7.359,7.359v3.7A.447.447,0,0,0,39.652,368.759Z" transform="translate(-39.206 -347.729)" fill="#ffd54f" fill-rule="evenodd"/>
          <ellipse id="Elipse_11646" data-name="Elipse 11646" cx="5.209" cy="5.145" rx="5.209" ry="5.145" transform="translate(3.441)" fill="#fedfc5"/>
        </g>
        <g id="Grupo_1182119" data-name="Grupo 1182119" transform="translate(28.373 27.211)">
          <path id="Trazado_910245" data-name="Trazado 910245" d="M325.413,368.759H309.005a.447.447,0,0,1-.446-.446v-3.7a7.381,7.381,0,0,1,7.359-7.359H318.5a7.381,7.381,0,0,1,7.359,7.359v3.7A.447.447,0,0,1,325.413,368.759Z" transform="translate(-308.559 -347.729)" fill="#6ce75a" fill-rule="evenodd"/>
          <ellipse id="Elipse_11647" data-name="Elipse 11647" cx="5.209" cy="5.145" rx="5.209" ry="5.145" transform="translate(3.441)" fill="#fedfc5"/>
        </g>
        <g id="Grupo_1182120" data-name="Grupo 1182120" transform="translate(14.186 31.111)">
          <path id="Trazado_910246" data-name="Trazado 910246" d="M190.736,405.787H174.328a.447.447,0,0,1-.446-.446v-3.7a7.381,7.381,0,0,1,7.359-7.359h2.581a7.381,7.381,0,0,1,7.359,7.359v3.7A.447.447,0,0,1,190.736,405.787Z" transform="translate(-173.882 -384.757)" fill="#ff6372" fill-rule="evenodd"/>
          <ellipse id="Elipse_11648" data-name="Elipse 11648" cx="5.209" cy="5.145" rx="5.209" ry="5.145" transform="translate(3.441)" fill="#fedfc5"/>
        </g>
        <g id="Grupo_1182121" data-name="Grupo 1182121" transform="translate(6.473 0)">
          <circle id="Elipse_11649" data-name="Elipse 11649" cx="11.234" cy="11.234" r="11.234" transform="translate(5.129 5.129)" fill="#ff6372"/>
          <circle id="Elipse_11650" data-name="Elipse 11650" cx="7.202" cy="7.202" r="7.202" transform="translate(9.161 9.161)" fill="#f0f0f0"/>
          <ellipse id="Elipse_11651" data-name="Elipse 11651" cx="2.068" cy="2.068" rx="2.068" ry="2.068" transform="translate(14.257 18.378) rotate(-88.625)" fill="#ff6372"/>
          <path id="Trazado_910247" data-name="Trazado 910247" d="M108.945,16.792l-4.119-.117L100.653,12.5l4.119.117L104.655,8.5l4.173,4.173Z" transform="translate(-100.653 -8.5)" fill="#7a7785" fill-rule="evenodd"/>
        </g>
      </g>
      <path id="Trazado_910248" data-name="Trazado 910248" d="M43.06,6.7a.79.79,0,0,0,.812-.812l-.06-2.133L46.359,6.3l.084,2.968-2.969-.084L40.927,6.639ZM55.328,16.877a1.278,1.278,0,1,1-1.278,1.278A1.279,1.279,0,0,1,55.328,16.877Zm-2.5-.105-2.555-2.554A6.422,6.422,0,1,0,51.391,13.1l2.554,2.556a2.86,2.86,0,1,1-1.117,1.116Zm12.943,1.383a10.438,10.438,0,0,0-17.245-7.919l1.739,1.74a7.988,7.988,0,1,1-1.118,1.116l-1.739-1.739a10.442,10.442,0,1,0,18.363,6.8Zm-23.193-7.63a.787.787,0,0,0,.536.231l2.682.076A12.035,12.035,0,1,0,48,8.624l-.076-2.682a.788.788,0,0,0-.231-.536L43.525,1.232a.79.79,0,0,0-1.348.582L42.271,5.1,38.987,5a.79.79,0,0,0-.581,1.348Zm34.8,38.718H64.747a8.138,8.138,0,0,0-1.923-4.724,8.265,8.265,0,0,0-.794-.811,6.611,6.611,0,0,1,4.82-4.244,6.042,6.042,0,0,0,5.328,0,6.558,6.558,0,0,1,5.2,6.422v3.356Zm-14.187,3.9V49.787a6.559,6.559,0,0,0-5.2-6.423,6.038,6.038,0,0,1-5.327,0,6.559,6.559,0,0,0-5.2,6.423v3.355Zm-17.28-3.9H33.282V45.886a6.557,6.557,0,0,1,5.2-6.422,6.041,6.041,0,0,0,5.327,0,6.61,6.61,0,0,1,4.82,4.244,8.261,8.261,0,0,0-.794.811,8.138,8.138,0,0,0-1.924,4.724Zm-4.767-19.45a4.356,4.356,0,1,1-4.419,4.356A4.393,4.393,0,0,1,41.142,29.792Zm14.186,3.9a4.356,4.356,0,1,1-4.419,4.354,4.392,4.392,0,0,1,4.419-4.354Zm14.187-3.9a4.356,4.356,0,1,1-4.42,4.356A4.392,4.392,0,0,1,69.515,29.792Zm7.493,10.825a8.128,8.128,0,0,1,1.947,5.269v3.7a1.239,1.239,0,0,1-1.237,1.237H64.768v2.664a1.238,1.238,0,0,1-1.237,1.235H47.125a1.237,1.237,0,0,1-1.237-1.235V50.823H32.938A1.238,1.238,0,0,1,31.7,49.586v-3.7a8.173,8.173,0,0,1,5.167-7.578,5.883,5.883,0,0,1-1.726-4.161,6,6,0,0,1,12,0,5.883,5.883,0,0,1-1.725,4.16,8.207,8.207,0,0,1,4.533,4.44,8.218,8.218,0,0,1,1.106-.539,5.882,5.882,0,0,1-1.725-4.161,6,6,0,0,1,12,0A5.882,5.882,0,0,1,59.6,42.208a8.2,8.2,0,0,1,1.106.539,8.211,8.211,0,0,1,4.533-4.44,5.884,5.884,0,0,1-1.726-4.16,6,6,0,0,1,12,0,5.882,5.882,0,0,1-1.726,4.161,8.191,8.191,0,0,1,3.221,2.309Z" fill-rule="evenodd"/>
    </g>
  </g>
</svg>
