<svg xmlns="http://www.w3.org/2000/svg" xmlns:xlink="http://www.w3.org/1999/xlink" width="102.949" height="102.949" viewBox="0 0 102.949 102.949">
  <defs>
    <filter id="Trazado_874925" x="0" y="0" width="102.949" height="102.949" filterUnits="userSpaceOnUse">
      <feOffset dy="3" input="SourceAlpha"/>
      <feGaussianBlur stdDeviation="3" result="blur"/>
      <feFlood flood-opacity="0.161"/>
      <feComposite operator="in" in2="blur"/>
      <feComposite in="SourceGraphic"/>
    </filter>
  </defs>
  <g id="Grupo_1182267" data-name="Grupo 1182267" transform="translate(-276.051 -766)">
    <g id="Grupo_1181896" data-name="Grupo 1181896" transform="translate(-523.449 -1745.157)">
      <g id="Grupo_1111316" data-name="Grupo 1111316" transform="translate(808.5 2517.157)">
        <g id="Grupo_1109835" data-name="Grupo 1109835" transform="translate(0 0)">
          <g id="Grupo_1107913" data-name="Grupo 1107913" transform="translate(0 0)">
            <g transform="matrix(1, 0, 0, 1, -9, -6)" filter="url(#Trazado_874925)">
              <g id="Trazado_874925-2" data-name="Trazado 874925" transform="translate(9 6)" fill="#4c6929" opacity="0.859">
                <path d="M 42.47446823120117 83.44929504394531 C 36.94229125976562 83.44929504394531 31.57638549804688 82.36614227294922 26.52582168579102 80.22994232177734 C 21.64678573608398 78.16628265380859 17.26464462280273 75.211669921875 13.50113868713379 71.44816589355469 C 9.737632751464844 67.68466949462891 6.78300952911377 63.30253982543945 4.719362258911133 58.42351913452148 C 2.583150625228882 53.37295150756836 1.499997615814209 48.00706100463867 1.499997615814209 42.47489547729492 C 1.499997615814209 36.94223403930664 2.583150625228882 31.57634162902832 4.719362258911133 26.52577781677246 C 6.78300952911377 21.64675331115723 9.737632751464844 17.26462364196777 13.50113868713379 13.50113010406494 C 17.26464462280273 9.737624168395996 21.64678573608398 6.783012390136719 26.52582168579102 4.719353199005127 C 31.57638549804688 2.583153486251831 36.94229125976562 1.500000476837158 42.47446823120117 1.500000476837158 C 48.00664520263672 1.500000476837158 53.37255096435547 2.583153486251831 58.42311477661133 4.719353199005127 C 63.30215072631836 6.783012390136719 67.68428802490234 9.737624168395996 71.44779968261719 13.50113010406494 C 75.2113037109375 17.26462364196777 78.16592407226562 21.64675331115723 80.22957611083984 26.52577781677246 C 82.36578369140625 31.57634162902832 83.44893646240234 36.94223403930664 83.44893646240234 42.47439956665039 C 83.44893646240234 48.00706100463867 82.36578369140625 53.37295150756836 80.22957611083984 58.42351913452148 C 78.16592407226562 63.30253982543945 75.2113037109375 67.68466949462891 71.44779968261719 71.44816589355469 C 67.68428802490234 75.211669921875 63.30215072631836 78.16628265380859 58.42311477661133 80.22994232177734 C 53.37255096435547 82.36614227294922 48.00664520263672 83.44929504394531 42.47446823120117 83.44929504394531 Z" stroke="none"/>
                <path d="M 42.47446823120117 2.999992370605469 C 37.14412307739258 2.999992370605469 31.97481536865234 4.04327392578125 27.11014938354492 6.100860595703125 C 22.40990829467773 8.088890075683594 18.18804168701172 10.93555450439453 14.56179809570312 14.56178283691406 C 10.93557739257812 18.18801116943359 8.088897705078125 22.40987396240234 6.100868225097656 27.11009979248047 C 4.043281555175781 31.97476577758789 3 37.14406204223633 3 42.47488784790039 C 3 47.80522155761719 4.043281555175781 52.97451400756836 6.100868225097656 57.83917999267578 C 8.088897705078125 62.53940582275391 10.93557739257812 66.76127624511719 14.56179809570312 70.38749694824219 C 18.18804168701172 74.01372528076172 22.40990829467773 76.86039733886719 27.11014938354492 78.84841918945312 C 31.97481536865234 80.906005859375 37.14412307739258 81.94928741455078 42.47446823120117 81.94928741455078 C 47.80481338500977 81.94928741455078 52.97412109375 80.906005859375 57.83879089355469 78.84841918945312 C 62.53902816772461 76.86039733886719 66.76089477539062 74.01372528076172 70.38713073730469 70.38749694824219 C 74.01335906982422 66.76127624511719 76.86003875732422 62.53940582275391 78.84806823730469 57.83917999267578 C 80.90565490722656 52.97451400756836 81.94893646240234 47.80522155761719 81.94893646240234 42.47439575195312 C 81.94893646240234 37.14406204223633 80.90565490722656 31.97476577758789 78.84806823730469 27.11009979248047 C 76.86003875732422 22.40987396240234 74.01335906982422 18.18801116943359 70.38713073730469 14.56178283691406 C 66.76089477539062 10.93555450439453 62.53902816772461 8.088890075683594 57.83879089355469 6.100860595703125 C 52.97412109375 4.04327392578125 47.80481338500977 2.999992370605469 42.47446823120117 2.999992370605469 M 42.47446823120117 -7.62939453125e-06 C 65.93246459960938 -7.62939453125e-06 84.94893646240234 19.01643371582031 84.94893646240234 42.47439575195312 L 84.94893646240234 42.47488784790039 C 84.94893646240234 65.93284606933594 65.93246459960938 84.94928741455078 42.47446823120117 84.94928741455078 C 19.01647186279297 84.94928741455078 0 65.93284606933594 0 42.47488784790039 L 0 42.47439575195312 C 0 19.01643371582031 19.01647186279297 -7.62939453125e-06 42.47446823120117 -7.62939453125e-06 Z" stroke="none" fill="#fff"/>
              </g>
            </g>
            <g id="Trazado_874923" data-name="Trazado 874923" transform="translate(0 0)" fill="none">
              <path d="M42.474,0A42.474,42.474,0,0,1,84.949,42.474h0A42.474,42.474,0,0,1,0,42.475H0A42.474,42.474,0,0,1,42.474,0Z" stroke="none"/>
              <path d="M 42.47446823120117 2.999992370605469 C 37.14412307739258 2.999992370605469 31.97481536865234 4.04327392578125 27.11014938354492 6.100860595703125 C 22.40990829467773 8.088890075683594 18.18804168701172 10.93555450439453 14.56179809570312 14.56178283691406 C 10.93557739257812 18.18801116943359 8.088897705078125 22.40987396240234 6.100868225097656 27.11009979248047 C 4.043281555175781 31.97476577758789 3 37.14406204223633 3 42.47488784790039 C 3 47.80522155761719 4.043281555175781 52.97451400756836 6.100868225097656 57.83917999267578 C 8.088897705078125 62.53940582275391 10.93557739257812 66.76127624511719 14.56179809570312 70.38749694824219 C 18.18804168701172 74.01372528076172 22.40990829467773 76.86039733886719 27.11014938354492 78.84841918945312 C 31.97481536865234 80.906005859375 37.14412307739258 81.94928741455078 42.47446823120117 81.94928741455078 C 47.80481338500977 81.94928741455078 52.97412109375 80.906005859375 57.83879089355469 78.84841918945312 C 62.53902816772461 76.86039733886719 66.76089477539062 74.01372528076172 70.38713073730469 70.38749694824219 C 74.01335906982422 66.76127624511719 76.86003875732422 62.53940582275391 78.84806823730469 57.83917999267578 C 80.90565490722656 52.97451400756836 81.94893646240234 47.80522155761719 81.94893646240234 42.47439575195312 C 81.94893646240234 37.14406204223633 80.90565490722656 31.97476577758789 78.84806823730469 27.11009979248047 C 76.86003875732422 22.40987396240234 74.01335906982422 18.18801116943359 70.38713073730469 14.56178283691406 C 66.76089477539062 10.93555450439453 62.53902816772461 8.088890075683594 57.83879089355469 6.100860595703125 C 52.97412109375 4.04327392578125 47.80481338500977 2.999992370605469 42.47446823120117 2.999992370605469 M 42.47446823120117 -7.62939453125e-06 C 65.93246459960938 -7.62939453125e-06 84.94893646240234 19.01643371582031 84.94893646240234 42.47439575195312 L 84.94893646240234 42.47488784790039 C 84.94893646240234 65.93284606933594 65.93246459960938 84.94928741455078 42.47446823120117 84.94928741455078 C 19.01647186279297 84.94928741455078 0 65.93284606933594 0 42.47488784790039 L 0 42.47439575195312 C 0 19.01643371582031 19.01647186279297 -7.62939453125e-06 42.47446823120117 -7.62939453125e-06 Z" stroke="none" fill="#fff"/>
            </g>
          </g>
        </g>
      </g>
    </g>
    <g id="compra_segura" data-name="compra segura" transform="translate(300.652 786.781)">
      <g id="Color" transform="translate(3.253 12.449)">
        <path id="Trazado_910588" data-name="Trazado 910588" d="M48.173,14.185h6.9V51.29a2.794,2.794,0,0,1-2.794,2.794H42.24l4.188-38.45Z" transform="translate(-9.032 -14.185)" fill="#dbb453"/>
        <path id="Trazado_910589" data-name="Trazado 910589" d="M16.8,54.084H40.7a2.794,2.794,0,0,0,2.794-2.794V14.185H9.963V31.351Z" transform="translate(-4.35 -14.185)" fill="#fcd770"/>
        <g id="Grupo_1182254" data-name="Grupo 1182254" transform="translate(11.286 5.63)">
          <path id="Trazado_910590" data-name="Trazado 910590" d="M16.6,55.841l1.168,3.88H41.66a2.794,2.794,0,0,0,2.794-2.794V53.04H19.568s-1.4,1.176-2.969,2.8Z" transform="translate(-16.599 -25.451)" fill="#ff826e"/>
          <circle id="Elipse_11674" data-name="Elipse 11674" cx="1.604" cy="1.604" r="1.604" transform="translate(1.105)" fill="#ff826e"/>
          <circle id="Elipse_11675" data-name="Elipse 11675" cx="1.604" cy="1.604" r="1.604" transform="translate(17.868)" fill="#ff826e"/>
        </g>
        <path id="Trazado_910591" data-name="Trazado 910591" d="M15,57.34l-.922.648-.922-.648A22.964,22.964,0,0,1,3.4,38.552V35.858l10.681-3.581L24.76,35.858v2.694A22.962,22.962,0,0,1,15,57.34Z" transform="translate(-3.398 -16.809)" fill="#69d6f4"/>
        <path id="Trazado_910592" data-name="Trazado 910592" d="M24.86,35.879v2.435A22.965,22.965,0,0,1,15.1,57.1l-.7.5c.12.087.233.18.355.266l.922.648.922-.648a22.963,22.963,0,0,0,9.758-18.787V36.381Z" transform="translate(-4.994 -17.332)" fill="#429fce"/>
        <g id="Grupo_1182255" data-name="Grupo 1182255" transform="translate(3.595 21.53)">
          <path id="Trazado_910593" data-name="Trazado 910593" d="M13.562,50.448a1.923,1.923,0,0,1-1.36-.563L8.166,45.849a1.924,1.924,0,0,1,2.72-2.72L13.562,45.8l5.873-5.873a1.923,1.923,0,1,1,2.72,2.72l-7.233,7.233a1.92,1.92,0,0,1-1.359.564Z" transform="translate(-7.603 -39.368)" fill="#ff826e"/>
        </g>
      </g>
      <g id="Line" transform="translate(2.398 2.219)">
        <g id="Grupo_1182266" data-name="Grupo 1182266">
          <g id="Grupo_1182256" data-name="Grupo 1182256" transform="translate(5.613 9.374)">
            <path id="Trazado_910594" data-name="Trazado 910594" d="M40.552,54.793H16.659v-1.71H40.552a1.942,1.942,0,0,0,1.94-1.939V14.894H10.673V31.205H8.963V14.039a.854.854,0,0,1,.855-.855H43.346a.854.854,0,0,1,.855.855V51.144A3.653,3.653,0,0,1,40.552,54.793Z" transform="translate(-8.963 -13.184)" fill="#071923"/>
          </g>
          <g id="Grupo_1182257" data-name="Grupo 1182257" transform="translate(34.063 9.374)">
            <path id="Trazado_910595" data-name="Trazado 910595" d="M52.277,54.793H42.24v-1.71H52.277a1.942,1.942,0,0,0,1.94-1.939V14.894H48.173v-1.71h6.9a.854.854,0,0,1,.855.855V51.144a3.653,3.653,0,0,1-3.65,3.649Z" transform="translate(-42.24 -13.184)" fill="#071923"/>
          </g>
          <g id="Grupo_1182258" data-name="Grupo 1182258" transform="translate(12.391 15.004)">
            <path id="Trazado_910596" data-name="Trazado 910596" d="M19.351,24.688a2.459,2.459,0,1,1,2.459-2.459A2.462,2.462,0,0,1,19.351,24.688Zm0-3.209a.749.749,0,1,0,.749.75A.751.751,0,0,0,19.351,21.479Z" transform="translate(-16.891 -19.769)" fill="#071923"/>
          </g>
          <g id="Grupo_1182259" data-name="Grupo 1182259" transform="translate(29.154 15.004)">
            <path id="Trazado_910597" data-name="Trazado 910597" d="M38.958,24.688a2.459,2.459,0,1,1,2.46-2.459A2.461,2.461,0,0,1,38.958,24.688Zm0-3.209a.749.749,0,1,0,.75.75A.751.751,0,0,0,38.958,21.479Z" transform="translate(-36.499 -19.769)" fill="#071923"/>
          </g>
          <g id="Grupo_1182260" data-name="Grupo 1182260" transform="translate(13.995 0.156)">
            <path id="Trazado_910598" data-name="Trazado 910598" d="M37.241,18.141h-1.71v-6.5a7.527,7.527,0,1,0-15.054,0V18.1h-1.71V11.638a9.237,9.237,0,1,1,18.474,0Z" transform="translate(-18.767 -2.401)" fill="#071923"/>
          </g>
          <g id="Grupo_1182261" data-name="Grupo 1182261" transform="translate(19.777)">
            <path id="Trazado_910599" data-name="Trazado 910599" d="M44,12.448h-1.71v-.993a7.527,7.527,0,0,0-15.055,0v.993H25.53v-.993a9.237,9.237,0,0,1,18.475,0Z" transform="translate(-25.53 -2.219)" fill="#071923"/>
          </g>
          <g id="Grupo_1182262" data-name="Grupo 1182262" transform="translate(19.14 42.593)">
            <path id="Trazado_910600" data-name="Trazado 910600" d="M24.785,52.039H45.641v1.71H24.785Z" transform="translate(-24.785 -52.039)" fill="#071923"/>
          </g>
          <g id="Grupo_1182263" data-name="Grupo 1182263" transform="translate(0 24.843)">
            <path id="Trazado_910601" data-name="Trazado 910601" d="M13.934,58.7a.85.85,0,0,1-.492-.156l-.922-.649A23.84,23.84,0,0,1,2.4,38.406V35.712a.853.853,0,0,1,.583-.81l10.681-3.581a.872.872,0,0,1,.545,0L24.888,34.9a.856.856,0,0,1,.583.81v2.694A23.843,23.843,0,0,1,15.349,57.893l-.922.649a.855.855,0,0,1-.492.156ZM4.107,36.328v2.079a22.129,22.129,0,0,0,9.4,18.087l.43.3.431-.3a22.129,22.129,0,0,0,9.4-18.087V36.328l-9.827-3.295Z" transform="translate(-2.398 -31.277)" fill="#071923"/>
          </g>
          <g id="Grupo_1182265" data-name="Grupo 1182265" transform="translate(3.595 30.907)">
            <g id="Grupo_1182264" data-name="Grupo 1182264">
              <path id="Trazado_910602" data-name="Trazado 910602" d="M13.416,51.158a2.764,2.764,0,0,1-1.964-.813L7.416,46.309a2.779,2.779,0,0,1,0-3.929,2.844,2.844,0,0,1,3.929,0l2.07,2.071,5.269-5.268a2.778,2.778,0,1,1,3.929,3.929l-7.234,7.233a2.76,2.76,0,0,1-1.965.814ZM9.382,43.276A1.069,1.069,0,0,0,8.626,45.1l4.035,4.035a1.1,1.1,0,0,0,1.512,0L21.406,41.9a1.069,1.069,0,0,0-1.512-1.512l-5.873,5.873a.855.855,0,0,1-1.209,0l-2.674-2.675A1.065,1.065,0,0,0,9.382,43.276Z" transform="translate(-6.603 -38.37)" fill="#071923"/>
            </g>
          </g>
        </g>
      </g>
    </g>
  </g>
</svg>
