<svg xmlns="http://www.w3.org/2000/svg" xmlns:xlink="http://www.w3.org/1999/xlink" width="102.949" height="102.949" viewBox="0 0 102.949 102.949">
  <defs>
    <filter id="Trazado_874925" x="0" y="0" width="102.949" height="102.949" filterUnits="userSpaceOnUse">
      <feOffset dy="3" input="SourceAlpha"/>
      <feGaussianBlur stdDeviation="3" result="blur"/>
      <feFlood flood-opacity="0.161"/>
      <feComposite operator="in" in2="blur"/>
      <feComposite in="SourceGraphic"/>
    </filter>
  </defs>
  <g id="Grupo_1182232" data-name="Grupo 1182232" transform="translate(-277.051 -11316)">
    <g id="Grupo_1181917" data-name="Grupo 1181917" transform="translate(-522.449 8804.843)">
      <g id="Grupo_1111316" data-name="Grupo 1111316" transform="translate(808.5 2517.157)">
        <g id="Grupo_1109835" data-name="Grupo 1109835" transform="translate(0 0)">
          <g id="Grupo_1107913" data-name="Grupo 1107913" transform="translate(0 0)">
            <g transform="matrix(1, 0, 0, 1, -9, -6)" filter="url(#Trazado_874925)">
              <g id="Trazado_874925-2" data-name="Trazado 874925" transform="translate(9 6)" fill="#4c6929" opacity="0.859">
                <path d="M 42.47446823120117 83.44929504394531 C 36.94229125976562 83.44929504394531 31.57638549804688 82.36614227294922 26.52582168579102 80.22994232177734 C 21.64678573608398 78.16628265380859 17.26464462280273 75.211669921875 13.50113868713379 71.44816589355469 C 9.737632751464844 67.68466949462891 6.78300952911377 63.30253982543945 4.719362258911133 58.42351913452148 C 2.583150625228882 53.37295150756836 1.499997615814209 48.00706100463867 1.499997615814209 42.47489547729492 C 1.499997615814209 36.94223403930664 2.583150625228882 31.57634162902832 4.719362258911133 26.52577781677246 C 6.78300952911377 21.64675331115723 9.737632751464844 17.26462364196777 13.50113868713379 13.50113010406494 C 17.26464462280273 9.737624168395996 21.64678573608398 6.783012390136719 26.52582168579102 4.719353199005127 C 31.57638549804688 2.583153486251831 36.94229125976562 1.500000476837158 42.47446823120117 1.500000476837158 C 48.00664520263672 1.500000476837158 53.37255096435547 2.583153486251831 58.42311477661133 4.719353199005127 C 63.30215072631836 6.783012390136719 67.68428802490234 9.737624168395996 71.44779968261719 13.50113010406494 C 75.2113037109375 17.26462364196777 78.16592407226562 21.64675331115723 80.22957611083984 26.52577781677246 C 82.36578369140625 31.57634162902832 83.44893646240234 36.94223403930664 83.44893646240234 42.47439956665039 C 83.44893646240234 48.00706100463867 82.36578369140625 53.37295150756836 80.22957611083984 58.42351913452148 C 78.16592407226562 63.30253982543945 75.2113037109375 67.68466949462891 71.44779968261719 71.44816589355469 C 67.68428802490234 75.211669921875 63.30215072631836 78.16628265380859 58.42311477661133 80.22994232177734 C 53.37255096435547 82.36614227294922 48.00664520263672 83.44929504394531 42.47446823120117 83.44929504394531 Z" stroke="none"/>
                <path d="M 42.47446823120117 2.999992370605469 C 37.14412307739258 2.999992370605469 31.97481536865234 4.04327392578125 27.11014938354492 6.100860595703125 C 22.40990829467773 8.088890075683594 18.18804168701172 10.93555450439453 14.56179809570312 14.56178283691406 C 10.93557739257812 18.18801116943359 8.088897705078125 22.40987396240234 6.100868225097656 27.11009979248047 C 4.043281555175781 31.97476577758789 3 37.14406204223633 3 42.47488784790039 C 3 47.80522155761719 4.043281555175781 52.97451400756836 6.100868225097656 57.83917999267578 C 8.088897705078125 62.53940582275391 10.93557739257812 66.76127624511719 14.56179809570312 70.38749694824219 C 18.18804168701172 74.01372528076172 22.40990829467773 76.86039733886719 27.11014938354492 78.84841918945312 C 31.97481536865234 80.906005859375 37.14412307739258 81.94928741455078 42.47446823120117 81.94928741455078 C 47.80481338500977 81.94928741455078 52.97412109375 80.906005859375 57.83879089355469 78.84841918945312 C 62.53902816772461 76.86039733886719 66.76089477539062 74.01372528076172 70.38713073730469 70.38749694824219 C 74.01335906982422 66.76127624511719 76.86003875732422 62.53940582275391 78.84806823730469 57.83917999267578 C 80.90565490722656 52.97451400756836 81.94893646240234 47.80522155761719 81.94893646240234 42.47439575195312 C 81.94893646240234 37.14406204223633 80.90565490722656 31.97476577758789 78.84806823730469 27.11009979248047 C 76.86003875732422 22.40987396240234 74.01335906982422 18.18801116943359 70.38713073730469 14.56178283691406 C 66.76089477539062 10.93555450439453 62.53902816772461 8.088890075683594 57.83879089355469 6.100860595703125 C 52.97412109375 4.04327392578125 47.80481338500977 2.999992370605469 42.47446823120117 2.999992370605469 M 42.47446823120117 -7.62939453125e-06 C 65.93246459960938 -7.62939453125e-06 84.94893646240234 19.01643371582031 84.94893646240234 42.47439575195312 L 84.94893646240234 42.47488784790039 C 84.94893646240234 65.93284606933594 65.93246459960938 84.94928741455078 42.47446823120117 84.94928741455078 C 19.01647186279297 84.94928741455078 0 65.93284606933594 0 42.47488784790039 L 0 42.47439575195312 C 0 19.01643371582031 19.01647186279297 -7.62939453125e-06 42.47446823120117 -7.62939453125e-06 Z" stroke="none" fill="#fff"/>
              </g>
            </g>
            <g id="Trazado_874923" data-name="Trazado 874923" transform="translate(0 0)" fill="none">
              <path d="M42.474,0A42.474,42.474,0,0,1,84.949,42.474h0A42.474,42.474,0,0,1,0,42.475H0A42.474,42.474,0,0,1,42.474,0Z" stroke="none"/>
              <path d="M 42.47446823120117 2.999992370605469 C 37.14412307739258 2.999992370605469 31.97481536865234 4.04327392578125 27.11014938354492 6.100860595703125 C 22.40990829467773 8.088890075683594 18.18804168701172 10.93555450439453 14.56179809570312 14.56178283691406 C 10.93557739257812 18.18801116943359 8.088897705078125 22.40987396240234 6.100868225097656 27.11009979248047 C 4.043281555175781 31.97476577758789 3 37.14406204223633 3 42.47488784790039 C 3 47.80522155761719 4.043281555175781 52.97451400756836 6.100868225097656 57.83917999267578 C 8.088897705078125 62.53940582275391 10.93557739257812 66.76127624511719 14.56179809570312 70.38749694824219 C 18.18804168701172 74.01372528076172 22.40990829467773 76.86039733886719 27.11014938354492 78.84841918945312 C 31.97481536865234 80.906005859375 37.14412307739258 81.94928741455078 42.47446823120117 81.94928741455078 C 47.80481338500977 81.94928741455078 52.97412109375 80.906005859375 57.83879089355469 78.84841918945312 C 62.53902816772461 76.86039733886719 66.76089477539062 74.01372528076172 70.38713073730469 70.38749694824219 C 74.01335906982422 66.76127624511719 76.86003875732422 62.53940582275391 78.84806823730469 57.83917999267578 C 80.90565490722656 52.97451400756836 81.94893646240234 47.80522155761719 81.94893646240234 42.47439575195312 C 81.94893646240234 37.14406204223633 80.90565490722656 31.97476577758789 78.84806823730469 27.11009979248047 C 76.86003875732422 22.40987396240234 74.01335906982422 18.18801116943359 70.38713073730469 14.56178283691406 C 66.76089477539062 10.93555450439453 62.53902816772461 8.088890075683594 57.83879089355469 6.100860595703125 C 52.97412109375 4.04327392578125 47.80481338500977 2.999992370605469 42.47446823120117 2.999992370605469 M 42.47446823120117 -7.62939453125e-06 C 65.93246459960938 -7.62939453125e-06 84.94893646240234 19.01643371582031 84.94893646240234 42.47439575195312 L 84.94893646240234 42.47488784790039 C 84.94893646240234 65.93284606933594 65.93246459960938 84.94928741455078 42.47446823120117 84.94928741455078 C 19.01647186279297 84.94928741455078 0 65.93284606933594 0 42.47488784790039 L 0 42.47439575195312 C 0 19.01643371582031 19.01647186279297 -7.62939453125e-06 42.47446823120117 -7.62939453125e-06 Z" stroke="none" fill="#fff"/>
            </g>
          </g>
        </g>
      </g>
    </g>
    <g id="identificar" transform="translate(304.051 11341)">
      <g id="Grupo_1182230" data-name="Grupo 1182230" transform="translate(0.77 0.77)">
        <g id="Grupo_1182219" data-name="Grupo 1182219">
          <path id="Trazado_910494" data-name="Trazado 910494" d="M37.974,4.081v4.73A11.246,11.246,0,0,0,36.433,8.7,10.786,10.786,0,0,0,25.649,19.487a11.246,11.246,0,0,0,.108,1.541H15.635l-.524,2.1a1.291,1.291,0,0,1-2.165.6l-2.7-2.7H4.081A3.08,3.08,0,0,1,1,17.946V4.081A3.08,3.08,0,0,1,4.081,1H34.893A3.08,3.08,0,0,1,37.974,4.081Z" transform="translate(-1 -1)" fill="#e6e9ed"/>
        </g>
        <g id="Grupo_1182220" data-name="Grupo 1182220" transform="translate(16.946 13.865)">
          <circle id="Elipse_11664" data-name="Elipse 11664" cx="1.5" cy="1.5" r="1.5" transform="translate(0.041 0.122)" fill="#ff826e"/>
        </g>
        <g id="Grupo_1182221" data-name="Grupo 1182221" transform="translate(0 30.811)">
          <path id="Trazado_910495" data-name="Trazado 910495" d="M25.649,42.541v7.7a1.545,1.545,0,0,1-1.541,1.541H1V41H24.109A1.545,1.545,0,0,1,25.649,42.541Z" transform="translate(-1 -41)" fill="#ff826e"/>
        </g>
        <g id="Grupo_1182222" data-name="Grupo 1182222" transform="translate(32.352 32.352)">
          <path id="Trazado_910496" data-name="Trazado 910496" d="M49.162,53.784v1.541a1.545,1.545,0,0,1-1.541,1.541H44.541A1.545,1.545,0,0,1,43,55.325V43h3.081a1.545,1.545,0,0,0,1.541,1.541,1.552,1.552,0,0,0-1.541,1.541,1.545,1.545,0,0,0,1.541,1.541,1.552,1.552,0,0,0-1.541,1.541A1.545,1.545,0,0,0,47.622,50.7a1.552,1.552,0,0,0-1.541,1.541,1.545,1.545,0,0,0,1.541,1.541Z" transform="translate(-43 -43)" fill="#969faa"/>
        </g>
        <g id="Grupo_1182223" data-name="Grupo 1182223" transform="translate(35.433 33.893)">
          <path id="Trazado_910497" data-name="Trazado 910497" d="M51.622,45a1.545,1.545,0,0,1,1.541,1.541,1.552,1.552,0,0,1-1.541,1.541H48.541A1.545,1.545,0,0,1,47,46.541,1.552,1.552,0,0,1,48.541,45Z" transform="translate(-47 -45)" fill="#f0d0b4"/>
        </g>
        <g id="Grupo_1182224" data-name="Grupo 1182224" transform="translate(35.433 36.974)">
          <path id="Trazado_910498" data-name="Trazado 910498" d="M51.622,49a1.545,1.545,0,0,1,1.541,1.541,1.552,1.552,0,0,1-1.541,1.541H48.541A1.545,1.545,0,0,1,47,50.541,1.552,1.552,0,0,1,48.541,49Z" transform="translate(-47 -49)" fill="#f0d0b4"/>
        </g>
        <g id="Grupo_1182225" data-name="Grupo 1182225" transform="translate(35.433 40.055)">
          <path id="Trazado_910499" data-name="Trazado 910499" d="M51.622,53a1.545,1.545,0,0,1,1.541,1.541,1.552,1.552,0,0,1-1.541,1.541H48.541A1.545,1.545,0,0,1,47,54.541,1.552,1.552,0,0,1,48.541,53Z" transform="translate(-47 -53)" fill="#f0d0b4"/>
        </g>
        <g id="Grupo_1182226" data-name="Grupo 1182226" transform="translate(35.433 30.811)">
          <path id="Trazado_910500" data-name="Trazado 910500" d="M51.622,41a1.545,1.545,0,0,1,1.541,1.541,1.552,1.552,0,0,1-1.541,1.541H48.541A1.545,1.545,0,0,1,47,42.541h1.541a2.305,2.305,0,0,0,1.633-.678L50.713,41h.909Z" transform="translate(-47 -41)" fill="#f0d0b4"/>
        </g>
        <g id="Grupo_1182227" data-name="Grupo 1182227" transform="translate(24.649 29.271)">
          <path id="Trazado_910501" data-name="Trazado 910501" d="M40.7,42.081V52.865H38.469a4.6,4.6,0,0,1-2.881-1.009L33,49.784v-7.7l2.588-2.072A4.6,4.6,0,0,1,38.469,39h8.4a.773.773,0,0,1,.77.77,2.135,2.135,0,0,1-.139.77l-.539.863a2.305,2.305,0,0,1-1.633.678H40.7Z" transform="translate(-33 -39)" fill="#f0d0b4"/>
        </g>
        <g id="Grupo_1182228" data-name="Grupo 1182228" transform="translate(24.649 7.703)">
          <path id="Trazado_910502" data-name="Trazado 910502" d="M45.325,11.108A10.786,10.786,0,1,1,33.108,23.325,11.246,11.246,0,0,1,33,21.784,10.786,10.786,0,0,1,43.784,11,11.246,11.246,0,0,1,45.325,11.108Z" transform="translate(-33 -11)" fill="#fcd770"/>
        </g>
        <g id="Grupo_1182229" data-name="Grupo 1182229" transform="translate(27.73 10.784)">
          <circle id="Elipse_11665" data-name="Elipse 11665" cx="7.5" cy="7.5" r="7.5" transform="translate(0.257 0.203)" fill="#69d6f4"/>
        </g>
      </g>
      <g id="Grupo_1182231" data-name="Grupo 1182231">
        <path id="Trazado_910503" data-name="Trazado 910503" d="M47.758,19.257A11.574,11.574,0,0,0,38.514,7.936V3.851A3.856,3.856,0,0,0,34.663,0H3.851A3.856,3.856,0,0,0,0,3.851V17.717a3.856,3.856,0,0,0,3.851,3.851H9.695l2.478,2.479a2.06,2.06,0,0,0,3.454-.957l.381-1.521h8.875A11.584,11.584,0,0,0,30.517,29.3a5.4,5.4,0,0,0-2.993,1.149L25.8,31.834a2.312,2.312,0,0,0-1.918-1.023H0V43.136H23.879A2.31,2.31,0,0,0,25.8,42.113L27.524,43.5a5.412,5.412,0,0,0,3.368,1.182h1.46v.77a2.314,2.314,0,0,0,2.311,2.311h3.081a2.314,2.314,0,0,0,2.311-2.311v-.77h.77a2.3,2.3,0,0,0,1.71-3.851,2.276,2.276,0,0,0,0-3.081,2.276,2.276,0,0,0,0-3.081,2.3,2.3,0,0,0-1.71-3.851,1.532,1.532,0,0,0-.263-.86A11.566,11.566,0,0,0,47.758,19.257Zm-32.954.77-.672,2.688a.539.539,0,0,1-.87.241l-2.929-2.929H3.851a2.314,2.314,0,0,1-2.311-2.311V3.851A2.314,2.314,0,0,1,3.851,1.541H34.663a2.314,2.314,0,0,1,2.311,2.311V7.742c-.256-.017-.51-.039-.77-.039A11.567,11.567,0,0,0,24.649,19.257c0,.26.022.515.039.77Zm9.845,20.8a.771.771,0,0,1-.77.77H1.541V32.352H23.879a.771.771,0,0,1,.77.77Zm13.865,4.622a.771.771,0,0,1-.77.77H34.663a.771.771,0,0,1-.77-.77V33.893h1.682a2.289,2.289,0,0,0,.459.77,2.276,2.276,0,0,0,0,3.081,2.276,2.276,0,0,0,0,3.081,2.3,2.3,0,0,0,1.71,3.851h.77ZM41.6,36.2a.771.771,0,0,1-.77.77H37.744a.77.77,0,0,1,0-1.541h3.081A.771.771,0,0,1,41.6,36.2Zm0,3.081a.771.771,0,0,1-.77.77H37.744a.77.77,0,0,1,0-1.541h3.081A.771.771,0,0,1,41.6,39.285Zm-.77,3.851H37.744a.77.77,0,0,1,0-1.541h3.081a.77.77,0,0,1,0,1.541Zm0-10.784a.77.77,0,1,1,0,1.541H37.744A3.071,3.071,0,0,0,40.4,32.352Zm-1.541-1.541a1.542,1.542,0,0,1-1.541,1.541H32.71l-.229.343A4.409,4.409,0,0,1,28.8,34.663h-.3V36.2h.3a5.938,5.938,0,0,0,3.547-1.181v8.113h-1.46a3.868,3.868,0,0,1-2.406-.844l-2.3-1.837V33.493l2.3-1.837a3.865,3.865,0,0,1,2.406-.844ZM36.2,29.271A10.014,10.014,0,1,1,46.217,19.257,10.025,10.025,0,0,1,36.2,29.271Z"/>
        <path id="Trazado_910504" data-name="Trazado 910504" d="M44.473,14a8.473,8.473,0,1,0,8.473,8.473A8.483,8.483,0,0,0,44.473,14Zm0,15.406a6.933,6.933,0,1,1,6.933-6.933A6.941,6.941,0,0,1,44.473,29.406Z" transform="translate(-8.27 -3.216)"/>
        <path id="Trazado_910505" data-name="Trazado 910505" d="M24.076,4h-.45A3.631,3.631,0,0,0,20,7.627v.225h1.541V7.627a2.088,2.088,0,0,1,2.086-2.086h.45a2.086,2.086,0,0,1,.933,3.952l-1.928.964v2.787h1.541V11.409l1.077-.538A3.627,3.627,0,0,0,24.076,4Z" transform="translate(-4.594 -0.919)"/>
        <path id="Trazado_910506" data-name="Trazado 910506" d="M24.311,18a2.311,2.311,0,1,0,2.311,2.311A2.314,2.314,0,0,0,24.311,18Zm0,3.081a.77.77,0,1,1,.77-.77A.771.771,0,0,1,24.311,21.081Z" transform="translate(-5.054 -4.135)"/>
        <ellipse id="Elipse_11666" data-name="Elipse 11666" cx="0.5" cy="1" rx="0.5" ry="1" transform="translate(35.758 22.758)"/>
        <path id="Trazado_910507" data-name="Trazado 910507" d="M46.081,18A3.084,3.084,0,0,0,43,21.081h1.541a1.541,1.541,0,0,1,3.081,0v.3a1.537,1.537,0,0,1-.686,1.282L45.311,23.75V25.7h1.541V24.574l.939-.626a3.075,3.075,0,0,0,1.372-2.563v-.3A3.084,3.084,0,0,0,46.081,18Z" transform="translate(-9.878 -4.135)"/>
        <path id="Trazado_910508" data-name="Trazado 910508" d="M11,34h1.541v1.541H11Z" transform="translate(-2.527 -7.81)"/>
        <path id="Trazado_910509" data-name="Trazado 910509" d="M15,34h1.541v1.541H15Z" transform="translate(-3.446 -7.81)"/>
        <path id="Trazado_910510" data-name="Trazado 910510" d="M23,34h1.541v1.541H23Z" transform="translate(-5.283 -7.81)"/>
        <path id="Trazado_910511" data-name="Trazado 910511" d="M19,34h1.541v1.541H19Z" transform="translate(-4.365 -7.81)"/>
      </g>
    </g>
  </g>
</svg>
