<svg xmlns="http://www.w3.org/2000/svg" xmlns:xlink="http://www.w3.org/1999/xlink" width="102.949" height="102.949" viewBox="0 0 102.949 102.949">
  <defs>
    <filter id="Trazado_874925" x="0" y="0" width="102.949" height="102.949" filterUnits="userSpaceOnUse">
      <feOffset dy="3" input="SourceAlpha"/>
      <feGaussianBlur stdDeviation="3" result="blur"/>
      <feFlood flood-opacity="0.161"/>
      <feComposite operator="in" in2="blur"/>
      <feComposite in="SourceGraphic"/>
    </filter>
  </defs>
  <g id="Grupo_1182112" data-name="Grupo 1182112" transform="translate(-748.051 -6389)">
    <g id="Grupo_1181886" data-name="Grupo 1181886" transform="translate(-51.449 3877.843)">
      <g id="Grupo_1111316" data-name="Grupo 1111316" transform="translate(808.5 2517.157)">
        <g id="Grupo_1109835" data-name="Grupo 1109835" transform="translate(0 0)">
          <g id="Grupo_1107913" data-name="Grupo 1107913" transform="translate(0 0)">
            <g transform="matrix(1, 0, 0, 1, -9, -6)" filter="url(#Trazado_874925)">
              <g id="Trazado_874925-2" data-name="Trazado 874925" transform="translate(9 6)" fill="#4c6929" opacity="0.859">
                <path d="M 42.47446823120117 83.44929504394531 C 36.94229125976562 83.44929504394531 31.57638549804688 82.36614227294922 26.52582168579102 80.22994232177734 C 21.64678573608398 78.16628265380859 17.26464462280273 75.211669921875 13.50113868713379 71.44816589355469 C 9.737632751464844 67.68466949462891 6.78300952911377 63.30253982543945 4.719362258911133 58.42351913452148 C 2.583150625228882 53.37295150756836 1.499997615814209 48.00706100463867 1.499997615814209 42.47489547729492 C 1.499997615814209 36.94223403930664 2.583150625228882 31.57634162902832 4.719362258911133 26.52577781677246 C 6.78300952911377 21.64675331115723 9.737632751464844 17.26462364196777 13.50113868713379 13.50113010406494 C 17.26464462280273 9.737624168395996 21.64678573608398 6.783012390136719 26.52582168579102 4.719353199005127 C 31.57638549804688 2.583153486251831 36.94229125976562 1.500000476837158 42.47446823120117 1.500000476837158 C 48.00664520263672 1.500000476837158 53.37255096435547 2.583153486251831 58.42311477661133 4.719353199005127 C 63.30215072631836 6.783012390136719 67.68428802490234 9.737624168395996 71.44779968261719 13.50113010406494 C 75.2113037109375 17.26462364196777 78.16592407226562 21.64675331115723 80.22957611083984 26.52577781677246 C 82.36578369140625 31.57634162902832 83.44893646240234 36.94223403930664 83.44893646240234 42.47439956665039 C 83.44893646240234 48.00706100463867 82.36578369140625 53.37295150756836 80.22957611083984 58.42351913452148 C 78.16592407226562 63.30253982543945 75.2113037109375 67.68466949462891 71.44779968261719 71.44816589355469 C 67.68428802490234 75.211669921875 63.30215072631836 78.16628265380859 58.42311477661133 80.22994232177734 C 53.37255096435547 82.36614227294922 48.00664520263672 83.44929504394531 42.47446823120117 83.44929504394531 Z" stroke="none"/>
                <path d="M 42.47446823120117 2.999992370605469 C 37.14412307739258 2.999992370605469 31.97481536865234 4.04327392578125 27.11014938354492 6.100860595703125 C 22.40990829467773 8.088890075683594 18.18804168701172 10.93555450439453 14.56179809570312 14.56178283691406 C 10.93557739257812 18.18801116943359 8.088897705078125 22.40987396240234 6.100868225097656 27.11009979248047 C 4.043281555175781 31.97476577758789 3 37.14406204223633 3 42.47488784790039 C 3 47.80522155761719 4.043281555175781 52.97451400756836 6.100868225097656 57.83917999267578 C 8.088897705078125 62.53940582275391 10.93557739257812 66.76127624511719 14.56179809570312 70.38749694824219 C 18.18804168701172 74.01372528076172 22.40990829467773 76.86039733886719 27.11014938354492 78.84841918945312 C 31.97481536865234 80.906005859375 37.14412307739258 81.94928741455078 42.47446823120117 81.94928741455078 C 47.80481338500977 81.94928741455078 52.97412109375 80.906005859375 57.83879089355469 78.84841918945312 C 62.53902816772461 76.86039733886719 66.76089477539062 74.01372528076172 70.38713073730469 70.38749694824219 C 74.01335906982422 66.76127624511719 76.86003875732422 62.53940582275391 78.84806823730469 57.83917999267578 C 80.90565490722656 52.97451400756836 81.94893646240234 47.80522155761719 81.94893646240234 42.47439575195312 C 81.94893646240234 37.14406204223633 80.90565490722656 31.97476577758789 78.84806823730469 27.11009979248047 C 76.86003875732422 22.40987396240234 74.01335906982422 18.18801116943359 70.38713073730469 14.56178283691406 C 66.76089477539062 10.93555450439453 62.53902816772461 8.088890075683594 57.83879089355469 6.100860595703125 C 52.97412109375 4.04327392578125 47.80481338500977 2.999992370605469 42.47446823120117 2.999992370605469 M 42.47446823120117 -7.62939453125e-06 C 65.93246459960938 -7.62939453125e-06 84.94893646240234 19.01643371582031 84.94893646240234 42.47439575195312 L 84.94893646240234 42.47488784790039 C 84.94893646240234 65.93284606933594 65.93246459960938 84.94928741455078 42.47446823120117 84.94928741455078 C 19.01647186279297 84.94928741455078 0 65.93284606933594 0 42.47488784790039 L 0 42.47439575195312 C 0 19.01643371582031 19.01647186279297 -7.62939453125e-06 42.47446823120117 -7.62939453125e-06 Z" stroke="none" fill="#fff"/>
              </g>
            </g>
            <g id="Trazado_874923" data-name="Trazado 874923" transform="translate(0 0)" fill="none">
              <path d="M42.474,0A42.474,42.474,0,0,1,84.949,42.474h0A42.474,42.474,0,0,1,0,42.475H0A42.474,42.474,0,0,1,42.474,0Z" stroke="none"/>
              <path d="M 42.47446823120117 2.999992370605469 C 37.14412307739258 2.999992370605469 31.97481536865234 4.04327392578125 27.11014938354492 6.100860595703125 C 22.40990829467773 8.088890075683594 18.18804168701172 10.93555450439453 14.56179809570312 14.56178283691406 C 10.93557739257812 18.18801116943359 8.088897705078125 22.40987396240234 6.100868225097656 27.11009979248047 C 4.043281555175781 31.97476577758789 3 37.14406204223633 3 42.47488784790039 C 3 47.80522155761719 4.043281555175781 52.97451400756836 6.100868225097656 57.83917999267578 C 8.088897705078125 62.53940582275391 10.93557739257812 66.76127624511719 14.56179809570312 70.38749694824219 C 18.18804168701172 74.01372528076172 22.40990829467773 76.86039733886719 27.11014938354492 78.84841918945312 C 31.97481536865234 80.906005859375 37.14412307739258 81.94928741455078 42.47446823120117 81.94928741455078 C 47.80481338500977 81.94928741455078 52.97412109375 80.906005859375 57.83879089355469 78.84841918945312 C 62.53902816772461 76.86039733886719 66.76089477539062 74.01372528076172 70.38713073730469 70.38749694824219 C 74.01335906982422 66.76127624511719 76.86003875732422 62.53940582275391 78.84806823730469 57.83917999267578 C 80.90565490722656 52.97451400756836 81.94893646240234 47.80522155761719 81.94893646240234 42.47439575195312 C 81.94893646240234 37.14406204223633 80.90565490722656 31.97476577758789 78.84806823730469 27.11009979248047 C 76.86003875732422 22.40987396240234 74.01335906982422 18.18801116943359 70.38713073730469 14.56178283691406 C 66.76089477539062 10.93555450439453 62.53902816772461 8.088890075683594 57.83879089355469 6.100860595703125 C 52.97412109375 4.04327392578125 47.80481338500977 2.999992370605469 42.47446823120117 2.999992370605469 M 42.47446823120117 -7.62939453125e-06 C 65.93246459960938 -7.62939453125e-06 84.94893646240234 19.01643371582031 84.94893646240234 42.47439575195312 L 84.94893646240234 42.47488784790039 C 84.94893646240234 65.93284606933594 65.93246459960938 84.94928741455078 42.47446823120117 84.94928741455078 C 19.01647186279297 84.94928741455078 0 65.93284606933594 0 42.47488784790039 L 0 42.47439575195312 C 0 19.01643371582031 19.01647186279297 -7.62939453125e-06 42.47446823120117 -7.62939453125e-06 Z" stroke="none" fill="#fff"/>
            </g>
          </g>
        </g>
      </g>
    </g>
    <g id="anuncios" transform="translate(774.98 6412.93)">
      <g id="Grupo_1182110" data-name="Grupo 1182110" transform="translate(1.776 1.776)">
        <g id="Grupo_1182098" data-name="Grupo 1182098" transform="translate(0 10.083)">
          <path id="Trazado_910200" data-name="Trazado 910200" d="M39.231,44.474H3.551A1.551,1.551,0,0,1,2,42.923V15H39.231Z" transform="translate(-2 -15)" fill="#e6e9ed"/>
        </g>
        <g id="Grupo_1182099" data-name="Grupo 1182099" transform="translate(0 3.878)">
          <path id="Trazado_910201" data-name="Trazado 910201" d="M29.923,10.878h1.551a1.556,1.556,0,0,0-1.551,1.551v.776H2V8.551A1.556,1.556,0,0,1,3.551,7H26.89a4.243,4.243,0,0,0-.07.776,3.1,3.1,0,0,0,3.1,3.1Z" transform="translate(-2 -7)" fill="#5cd6b3"/>
        </g>
        <g id="Grupo_1182100" data-name="Grupo 1182100" transform="translate(16.288 24.192)">
          <path id="Trazado_910202" data-name="Trazado 910202" d="M48.6,55.536H34.635V41.575l-1.893,4.266a4.625,4.625,0,0,1-1.691,1.978,4.577,4.577,0,0,1-7.027-3.234L23,36.921h4.654l1.551,7.756V43.219A10.144,10.144,0,0,1,37.83,33.19l.683,6.833,3.1-3.878,3.1,3.878.675-6.756a10.162,10.162,0,0,1,7.857,9.889V55.536Z" transform="translate(-23 -33.19)" fill="#fcd770"/>
        </g>
        <g id="Grupo_1182101" data-name="Grupo 1182101" transform="translate(34.904 24.045)">
          <path id="Trazado_910203" data-name="Trazado 910203" d="M50.777,33.225,50.1,39.981,47,36.1,49.327,33A9.911,9.911,0,0,1,50.777,33.225Z" transform="translate(-47 -33)" fill="#ffc729"/>
        </g>
        <g id="Grupo_1182102" data-name="Grupo 1182102" transform="translate(31.119 24.045)">
          <path id="Trazado_910204" data-name="Trazado 910204" d="M43.578,33l2.327,3.1-3.1,3.878-.683-6.833c.248-.047.5-.07.745-.093Z" transform="translate(-42.12 -33)" fill="#ffc729"/>
        </g>
        <g id="Grupo_1182103" data-name="Grupo 1182103" transform="translate(10.859 11.635)">
          <path id="Trazado_910205" data-name="Trazado 910205" d="M25.308,27.083c-.279,0-.543.008-.814.031a2.267,2.267,0,0,0-.4-.031H22.205a1.549,1.549,0,0,0-1.35.791c-.334.116-.659.256-.977.4A13.124,13.124,0,0,0,16,30.962V17a13.257,13.257,0,0,0,9.308,3.878Z" transform="translate(-16 -17)" fill="#aab2bd"/>
        </g>
        <g id="Grupo_1182104" data-name="Grupo 1182104" transform="translate(20.167 15.513)">
          <path id="Trazado_910206" data-name="Trazado 910206" d="M29.551,22a3.1,3.1,0,1,1,0,6.205H28V22h1.551Z" transform="translate(-28 -22)" fill="#ef7385"/>
        </g>
        <g id="Grupo_1182105" data-name="Grupo 1182105" transform="translate(7.756 10.083)">
          <path id="Trazado_910207" data-name="Trazado 910207" d="M15.1,16.551V30.513a1.551,1.551,0,0,1-3.1,0V16.551A1.563,1.563,0,0,1,13.551,15,1.556,1.556,0,0,1,15.1,16.551Z" transform="translate(-12 -15)" fill="#ef7385"/>
        </g>
        <g id="Grupo_1182106" data-name="Grupo 1182106" transform="translate(4.654 15.513)">
          <path id="Trazado_910208" data-name="Trazado 910208" d="M11.1,22v6.205A3.1,3.1,0,1,1,11.1,22Z" transform="translate(-8 -22)" fill="#fcd770"/>
        </g>
        <g id="Grupo_1182107" data-name="Grupo 1182107" transform="translate(24.821 0)">
          <path id="Trazado_910209" data-name="Trazado 910209" d="M54.167,12.176a10.18,10.18,0,0,1-6.4,9.447l-1.357.543V18.288l2.071-1.551a2.586,2.586,0,0,0,1.032-2.071,2.6,2.6,0,0,0-2.583-2.583h-.52a2.33,2.33,0,0,0-2.327-2.327H37.1a3.1,3.1,0,0,1-3.1-3.1,4.243,4.243,0,0,1,.07-.776A4.646,4.646,0,0,1,38.654,2H43.99A10.169,10.169,0,0,1,54.167,12.176Z" transform="translate(-34 -2)" fill="#656d78"/>
        </g>
        <g id="Grupo_1182108" data-name="Grupo 1182108" transform="translate(26.372 7.756)">
          <path id="Trazado_910210" data-name="Trazado 910210" d="M46.859,24.41v3.878l-2.327,3.1-2.327-3.1v-3.1H40.654a3.1,3.1,0,0,1-3.1-3.1v-.776L36.931,21a1.679,1.679,0,0,1-.931-1.5,1.749,1.749,0,0,1,.279-.939l.752-1.117a3.1,3.1,0,0,0,.52-1.722V13.551A1.556,1.556,0,0,1,39.1,12h5.429a2.33,2.33,0,0,1,2.327,2.327h.52a2.6,2.6,0,0,1,2.583,2.583,2.586,2.586,0,0,1-1.032,2.071l-2.071,1.551Z" transform="translate(-36 -12)" fill="#f0d0b4"/>
        </g>
        <g id="Grupo_1182109" data-name="Grupo 1182109" transform="translate(14.737 21.718)">
          <path id="Trazado_910211" data-name="Trazado 910211" d="M27.9,33.436l-.69,2.769H22.551l-.644-.644a3.106,3.106,0,0,1-.908-2.2V31.194c.318-.147.644-.287.977-.4A1.549,1.549,0,0,1,23.327,30h1.893a2.267,2.267,0,0,1,.4.031,2.746,2.746,0,0,1,2.366,2.73,2.873,2.873,0,0,1-.085.675Z" transform="translate(-21 -30)" fill="#f0d0b4"/>
        </g>
      </g>
      <g id="Grupo_1182111" data-name="Grupo 1182111" transform="translate(1 1)">
        <path id="Trazado_910212" data-name="Trazado 910212" d="M39.782,25.13V22.467l.872-.349A10.951,10.951,0,0,0,36.587,1H31.25a5.436,5.436,0,0,0-5.2,3.878H3.327A2.33,2.33,0,0,0,1,7.205V39.782a2.33,2.33,0,0,0,2.327,2.327h25.6V49.09H49.09V35.936A11,11,0,0,0,39.782,25.13Zm-3.1,2.5-1.551-2.069V23.494H36.68V21.942H32.8a2.33,2.33,0,0,1-2.327-2.327V18.36l-1.049-.525a.908.908,0,0,1-.349-1.316l.747-1.121a3.872,3.872,0,0,0,.652-2.151V11.083a.777.777,0,0,1,.776-.776H36.68a1.553,1.553,0,0,1,1.551,1.551v.776h1.293a1.81,1.81,0,0,1,1.085,3.258l-2.378,1.784v7.886ZM11.859,13.41V27.372a.776.776,0,0,1-1.551,0V13.41a.776.776,0,0,1,1.551,0Zm-3.1,9.165a2.313,2.313,0,0,1,0-4.368Zm4.654-7.463a13.872,13.872,0,0,0,7.756,2.912v4.722c-.031,0-.062,0-.093,0v0a3.31,3.31,0,0,0-.343-.035H18.84a2.315,2.315,0,0,0-1.858.942,14.127,14.127,0,0,0-3.571,2.012Zm9.308,7.606V18.064h.776a2.327,2.327,0,1,1,0,4.654Zm-4.333,6.205-.416-.416a2.342,2.342,0,0,1-.681-1.645v-.1a2.308,2.308,0,0,0,1.551.605h2.327V25.821H18.84a.776.776,0,0,1,0-1.551h1.891a1.986,1.986,0,0,1,1.927,2.469l-.546,2.185Zm5.69,3.609-.563-2.814.651-2.6a3.517,3.517,0,0,0-.52-2.861,3.872,3.872,0,0,0-.15-7.742H22a12.376,12.376,0,0,1-8.625-3.48,2.282,2.282,0,0,0-.1-.4H28.923v.612a2.319,2.319,0,0,1-.391,1.291l-.747,1.121a2.46,2.46,0,0,0,.946,3.566l.192.1v.3A3.883,3.883,0,0,0,32.8,23.494h.776V25.1a10.981,10.981,0,0,0-9.5,7.43Zm9.912-5.906L35.7,28.908l-1.539,1.924-.419-4.186Zm5.368.022c.087.011.174.021.259.034L39.2,30.831l-1.539-1.924ZM31.25,2.551h5.337a9.4,9.4,0,0,1,3.49,18.127l-.3.119V18.452l1.758-1.319a3.362,3.362,0,0,0-1.855-6.047,3.109,3.109,0,0,0-3.006-2.33H29.7a2.33,2.33,0,0,1-2.326-2.327A3.883,3.883,0,0,1,31.25,2.551ZM3.327,6.429H25.821a3.875,3.875,0,0,0,3.265,3.816,2.314,2.314,0,0,0-.162.838H2.551V7.205A.777.777,0,0,1,3.327,6.429Zm0,34.128a.777.777,0,0,1-.776-.776V12.635H8.9a2.3,2.3,0,0,0-.143.776v3.181a3.878,3.878,0,0,0,0,7.6v3.181a2.323,2.323,0,0,0,4.616.379,12.5,12.5,0,0,1,2.365-1.774v.885A3.853,3.853,0,0,0,16.873,29.6l.457.457.987,7.4a5.325,5.325,0,0,0,1.551,3.093Zm24.043,0a5.3,5.3,0,0,0,1.142-1.627l.411-.924v2.551Zm20.168,6.981h-3.1V32.8H42.885V47.539H30.474V32.8H28.923v1.387L27.095,38.3a3.8,3.8,0,0,1-7.24-1.041l-.905-6.785h3.132l1.412,7.058v.7h1.551V36a9.422,9.422,0,0,1,7.162-9.1l.787,7.875,3.685-4.607,3.685,4.607.771-7.711a9.438,9.438,0,0,1,6.4,8.877Z" transform="translate(-1 -1)"/>
        <path id="Trazado_910213" data-name="Trazado 910213" d="M13,10h1.551v1.551H13Z" transform="translate(-3.692 -3.019)"/>
        <path id="Trazado_910214" data-name="Trazado 910214" d="M5,10H6.551v1.551H5Z" transform="translate(-1.897 -3.019)"/>
        <path id="Trazado_910215" data-name="Trazado 910215" d="M9,10h1.551v1.551H9Z" transform="translate(-2.795 -3.019)"/>
        <path id="Trazado_910216" data-name="Trazado 910216" d="M5,40H16.635v1.551H5Z" transform="translate(-1.897 -9.75)"/>
        <path id="Trazado_910217" data-name="Trazado 910217" d="M16,44h3.1v1.551H16Z" transform="translate(-4.365 -10.647)"/>
        <path id="Trazado_910218" data-name="Trazado 910218" d="M5,44h6.981v1.551H5Z" transform="translate(-1.897 -10.647)"/>
        <path id="Trazado_910219" data-name="Trazado 910219" d="M5,48H16.635v1.551H5Z" transform="translate(-1.897 -11.545)"/>
        <ellipse id="Elipse_11644" data-name="Elipse 11644" cx="1.094" cy="0.547" rx="1.094" ry="0.547" transform="translate(30.638 10.887)"/>
      </g>
    </g>
  </g>
</svg>
