<svg xmlns="http://www.w3.org/2000/svg" xmlns:xlink="http://www.w3.org/1999/xlink" width="117.999" height="118" viewBox="0 0 117.999 118">
  <defs>
    <filter id="Trazado_874925" x="0" y="0" width="117.999" height="118" filterUnits="userSpaceOnUse">
      <feOffset dy="3" input="SourceAlpha"/>
      <feGaussianBlur stdDeviation="3" result="blur"/>
      <feFlood flood-opacity="0.161"/>
      <feComposite operator="in" in2="blur"/>
      <feComposite in="SourceGraphic"/>
    </filter>
  </defs>
  <g id="Grupo_1182204" data-name="Grupo 1182204" transform="translate(-418.23 -10784.856)">
    <g id="Grupo_1181912" data-name="Grupo 1181912" transform="translate(-375.551 8850.857)">
      <g id="Grupo_1111552" data-name="Grupo 1111552" transform="translate(-5.719 -577.158)">
        <g id="Grupo_1111316" data-name="Grupo 1111316" transform="translate(808.5 2517.157)">
          <g id="Grupo_1109835" data-name="Grupo 1109835" transform="translate(0 0)">
            <g id="Grupo_1107913" data-name="Grupo 1107913" transform="translate(0 0)">
              <g transform="matrix(1, 0, 0, 1, -9, -6)" filter="url(#Trazado_874925)">
                <g id="Trazado_874925-2" data-name="Trazado 874925" transform="translate(9 6)" fill="#9cc8ff" opacity="0.859">
                  <path d="M 49.99972534179688 98.4998779296875 C 43.45164108276367 98.4998779296875 37.10022354125977 97.21776580810547 31.12189674377441 94.68914794921875 C 25.34676742553711 92.24647521972656 20.15985298156738 88.74925994873047 15.70523929595947 84.29464721679688 C 11.25062561035156 79.84004974365234 7.753411293029785 74.65313720703125 5.310725212097168 68.87800598144531 C 2.782111167907715 62.89969253540039 1.499996781349182 56.54829406738281 1.499996781349182 50.00022125244141 C 1.499996781349182 43.45157623291016 2.782111167907715 37.10017776489258 5.310725212097168 31.12186431884766 C 7.753411293029785 25.34673500061035 11.25062561035156 20.15983581542969 15.70523929595947 15.70522117614746 C 20.15985298156738 11.25062084197998 25.34676742553711 7.753406524658203 31.12189674377441 5.31073522567749 C 37.10022354125977 2.782120943069458 43.45164108276367 1.500006556510925 49.99972534179688 1.500006556510925 C 56.54780960083008 1.500006556510925 62.89922714233398 2.782120943069458 68.87755584716797 5.31073522567749 C 74.65267944335938 7.753406524658203 79.839599609375 11.25062084197998 84.29421234130859 15.70522117614746 C 88.74882507324219 20.15983581542969 92.24604034423828 25.34673500061035 94.68872833251953 31.12186431884766 C 97.21733856201172 37.10017776489258 98.49945068359375 43.45157623291016 98.49945068359375 49.99964904785156 C 98.49945068359375 56.54829406738281 97.21733856201172 62.89969253540039 94.68872833251953 68.87800598144531 C 92.24604034423828 74.65313720703125 88.74882507324219 79.84004974365234 84.29421234130859 84.29464721679688 C 79.839599609375 88.74925994873047 74.65267944335938 92.24647521972656 68.87755584716797 94.68914794921875 C 62.89922714233398 97.21776580810547 56.54780960083008 98.4998779296875 49.99972534179688 98.4998779296875 Z" stroke="none"/>
                  <path d="M 49.99972534179688 3 C 43.65348052978516 3 37.49866485595703 4.242240905761719 31.70623016357422 6.692230224609375 C 26.10989379882812 9.059272766113281 21.08323669433594 12.44853210449219 16.76589202880859 16.76587677001953 C 12.44855499267578 21.08321380615234 9.059295654296875 26.10985565185547 6.692230224609375 31.70618438720703 C 4.24224853515625 37.49859619140625 3 43.65341186523438 3 50.00022888183594 C 3 56.34645843505859 4.24224853515625 62.50127410888672 6.692230224609375 68.29368591308594 C 9.059295654296875 73.8900146484375 12.44855499267578 78.91665649414062 16.76589202880859 83.23399353027344 C 21.08323669433594 87.55132293701172 26.10989379882812 90.94059753417969 31.70623016357422 93.30764007568359 C 37.49866485595703 95.75762939453125 43.65348052978516 96.99987030029297 49.99972534179688 96.99987030029297 C 56.34597015380859 96.99987030029297 62.50078582763672 95.75762939453125 68.293212890625 93.30764007568359 C 73.88955688476562 90.94059753417969 78.91621398925781 87.55132293701172 83.23355865478516 83.23399353027344 C 87.55089569091797 78.91665649414062 90.94015502929688 73.8900146484375 93.30722045898438 68.29368591308594 C 95.7572021484375 62.50127410888672 96.99945068359375 56.34645843505859 96.99945068359375 49.99964141845703 C 96.99945068359375 43.65341186523438 95.7572021484375 37.49859619140625 93.30722045898438 31.70618438720703 C 90.94015502929688 26.10985565185547 87.55089569091797 21.08321380615234 83.23355865478516 16.76587677001953 C 78.91621398925781 12.44853210449219 73.88955688476562 9.059272766113281 68.293212890625 6.692230224609375 C 62.50078582763672 4.242240905761719 56.34597015380859 3 49.99972534179688 3 M 49.99972534179688 0 C 77.61381530761719 0 99.99945068359375 22.38559722900391 99.99945068359375 49.99964141845703 L 99.99945068359375 50.00022888183594 C 99.99945068359375 77.6142578125 77.61381530761719 99.99987030029297 49.99972534179688 99.99987030029297 C 22.38563537597656 99.99987030029297 0 77.6142578125 0 50.00022888183594 L 0 49.99964141845703 C 0 22.38559722900391 22.38563537597656 0 49.99972534179688 0 Z" stroke="none" fill="#fff"/>
                </g>
              </g>
              <g id="Trazado_874923" data-name="Trazado 874923" transform="translate(0 0)" fill="none">
                <path d="M50,0a50,50,0,0,1,50,50h0A50,50,0,0,1,0,50H0A50,50,0,0,1,50,0Z" stroke="none"/>
                <path d="M 49.99972534179688 3 C 43.65348052978516 3 37.49866485595703 4.242240905761719 31.70623016357422 6.692230224609375 C 26.10989379882812 9.059272766113281 21.08323669433594 12.44853210449219 16.76589202880859 16.76587677001953 C 12.44855499267578 21.08321380615234 9.059295654296875 26.10985565185547 6.692230224609375 31.70618438720703 C 4.24224853515625 37.49859619140625 3 43.65341186523438 3 50.00022888183594 C 3 56.34645843505859 4.24224853515625 62.50127410888672 6.692230224609375 68.29368591308594 C 9.059295654296875 73.8900146484375 12.44855499267578 78.91665649414062 16.76589202880859 83.23399353027344 C 21.08323669433594 87.55132293701172 26.10989379882812 90.94059753417969 31.70623016357422 93.30764007568359 C 37.49866485595703 95.75762939453125 43.65348052978516 96.99987030029297 49.99972534179688 96.99987030029297 C 56.34597015380859 96.99987030029297 62.50078582763672 95.75762939453125 68.293212890625 93.30764007568359 C 73.88955688476562 90.94059753417969 78.91621398925781 87.55132293701172 83.23355865478516 83.23399353027344 C 87.55089569091797 78.91665649414062 90.94015502929688 73.8900146484375 93.30722045898438 68.29368591308594 C 95.7572021484375 62.50127410888672 96.99945068359375 56.34645843505859 96.99945068359375 49.99964141845703 C 96.99945068359375 43.65341186523438 95.7572021484375 37.49859619140625 93.30722045898438 31.70618438720703 C 90.94015502929688 26.10985565185547 87.55089569091797 21.08321380615234 83.23355865478516 16.76587677001953 C 78.91621398925781 12.44853210449219 73.88955688476562 9.059272766113281 68.293212890625 6.692230224609375 C 62.50078582763672 4.242240905761719 56.34597015380859 3 49.99972534179688 3 M 49.99972534179688 0 C 77.61381530761719 0 99.99945068359375 22.38559722900391 99.99945068359375 49.99964141845703 L 99.99945068359375 50.00022888183594 C 99.99945068359375 77.6142578125 77.61381530761719 99.99987030029297 49.99972534179688 99.99987030029297 C 22.38563537597656 99.99987030029297 0 77.6142578125 0 50.00022888183594 L 0 49.99964141845703 C 0 22.38559722900391 22.38563537597656 0 49.99972534179688 0 Z" stroke="none" fill="#fff"/>
              </g>
            </g>
          </g>
        </g>
      </g>
    </g>
    <g id="produccion" transform="translate(445.338 10814.201)">
      <path id="Trazado_910415" data-name="Trazado 910415" d="M16.971,15.929h15.72a.969.969,0,0,1,.969.969v15.72a.969.969,0,0,1-.969.969H16.971A.969.969,0,0,1,16,32.618V16.9A.969.969,0,0,1,16.971,15.929Z" transform="translate(-8.958 -8.842)" fill="#ffcec0"/>
      <path id="Trazado_910416" data-name="Trazado 910416" d="M72.854,15.929H78.74v5.886H72.854Z" transform="translate(-59.924 -8.842)" fill="#fdb0a0"/>
      <path id="Trazado_910417" data-name="Trazado 910417" d="M126.476,93.177a14.949,14.949,0,0,1,13.668,21.07c-2.207,4.971-10.276,15.456-13.668,20.628-3.392-5.172-11.461-15.657-13.668-20.628a14.949,14.949,0,0,1,13.668-21.07Z" transform="translate(-94.585 -78.092)" fill="#ff879b" fill-rule="evenodd"/>
      <circle id="Elipse_11662" data-name="Elipse 11662" cx="9.914" cy="9.914" r="9.914" transform="translate(21.978 20.129)" fill="#fff"/>
      <rect id="Rectángulo_408439" data-name="Rectángulo 408439" width="17.658" height="17.658" rx="8.829" transform="translate(39.081 7.087)" fill="#ffcec0"/>
      <path id="Trazado_910418" data-name="Trazado 910418" d="M382.3,15.929h5.886v5.886H382.3Z" transform="translate(-337.33 -8.842)" fill="#fdb0a0"/>
      <g id="Grupo_1182203" data-name="Grupo 1182203" transform="translate(6.01 6.066)">
        <path id="Trazado_910419" data-name="Trazado 910419" d="M227.527,157.111c-7.417-6.841-21.514-3.108-18.486,9.148C219.973,169.891,222.437,158.162,227.527,157.111Z" transform="translate(-187.645 -138.432)" fill="#adffad" fill-rule="evenodd"/>
        <path id="Trazado_910420" data-name="Trazado 910420" d="M56.706,49.725v2.64A1.036,1.036,0,0,1,55.669,53.4H52.861a1.035,1.035,0,1,1,0-2.071h1.776v-1.6a1.035,1.035,0,1,1,2.07,0ZM56,6.066H39.82a2.007,2.007,0,0,0-1.773,1.99v7.214a16.148,16.148,0,0,0-6.154-1.221,15.943,15.943,0,0,0-15.751,13.2,16.078,16.078,0,0,0,1.137,9.328c1.551,3.491,5.76,9.413,9.474,14.637,1.651,2.323,3.21,4.516,4.275,6.138a1.035,1.035,0,0,0,1.731,0c1.064-1.621,2.623-3.814,4.274-6.136,3.715-5.225,7.924-11.147,9.475-14.639a16.251,16.251,0,0,0,.807-10.794h8.46a2,2,0,0,0,2-2V8.056A2.006,2.006,0,0,0,56,6.066Zm-32.038,0a2.007,2.007,0,0,1,1.773,1.99v5.435a1.035,1.035,0,0,1-2.071,0V8.123H19.853v4.85a1.035,1.035,0,0,1-1.035,1.035H12.931A1.036,1.036,0,0,1,11.9,12.973V8.123H8.081V23.71h6.667a1.035,1.035,0,1,1,0,2.07H8.014a2.007,2.007,0,0,1-2-2V8.056a2.007,2.007,0,0,1,1.773-1.99H23.966Zm25.282,46.3A1.035,1.035,0,0,1,48.212,53.4H45.4a1.035,1.035,0,1,1,0-2.071h2.809A1.035,1.035,0,0,1,49.248,52.365Zm-22.372,0A1.036,1.036,0,0,1,25.84,53.4H23.03a1.035,1.035,0,1,1,0-2.071h2.81A1.035,1.035,0,0,1,26.876,52.365Zm14.914,0A1.035,1.035,0,0,1,40.755,53.4h-2.81a1.035,1.035,0,0,1,0-2.071h2.81A1.035,1.035,0,0,1,41.79,52.365ZM56.706,28.7v2.64a1.035,1.035,0,1,1-2.07,0V28.7a1.035,1.035,0,1,1,2.07,0Zm0,14.015v2.64a1.035,1.035,0,1,1-2.07,0v-2.64a1.035,1.035,0,1,1,2.07,0Zm0-7.007v2.64a1.035,1.035,0,1,1-2.07,0V35.71a1.035,1.035,0,1,1,2.07,0ZM9.151,38.349a1.035,1.035,0,1,1-2.07,0V35.71a1.035,1.035,0,1,1,2.07,0ZM19.417,52.365A1.035,1.035,0,0,1,18.382,53.4H15.573a1.035,1.035,0,1,1,0-2.071h2.809A1.034,1.034,0,0,1,19.417,52.365ZM9.151,42.717v2.64a1.035,1.035,0,1,1-2.07,0v-2.64a1.035,1.035,0,0,1,2.07,0Zm0-11.375a1.035,1.035,0,0,1-2.07,0V28.7a1.035,1.035,0,1,1,2.07,0ZM11.96,52.365A1.035,1.035,0,0,1,10.924,53.4H8.116a1.035,1.035,0,0,1-1.035-1.035v-2.64a1.035,1.035,0,1,1,2.07,0v1.6h1.773a1.035,1.035,0,0,1,1.035,1.035ZM55.7,23.71H46.286a14.032,14.032,0,0,0-6.168-3.064V8.123h3.816v4.85a1.034,1.034,0,0,0,1.035,1.035h5.886a1.034,1.034,0,0,0,1.033-1.035V8.123H55.7V23.71ZM44.615,35.735c-1.466,3.3-5.793,9.388-9.27,14.279-1.261,1.773-2.468,3.472-3.452,4.911-.984-1.439-2.191-3.139-3.453-4.913-3.476-4.89-7.8-10.976-9.269-14.277a14.052,14.052,0,0,1,2.863-15.549,13.843,13.843,0,0,1,9.858-4.065,14.048,14.048,0,0,1,6.154,1.419v2.811c-.375-.025-.748-.035-1.118-.03a11.035,11.035,0,0,0-6.5-1.129,10.95,10.95,0,1,0,12.275,9.131,10.194,10.194,0,0,1,2.542-2.244,14.159,14.159,0,0,1-.633,9.656ZM26.4,34.142a1.033,1.033,0,0,0,.678.734,13.551,13.551,0,0,0,4.275.751,10.043,10.043,0,0,0,4.873-1.24,17.32,17.32,0,0,0,4.53-3.837,8.883,8.883,0,1,1-8.371-9.365,11.184,11.184,0,0,0-1.615.782,9.593,9.593,0,0,0-4.1,4.733,12.068,12.068,0,0,0-.27,7.443Zm17.488-9.668a17.845,17.845,0,0,0-3.674,3.55c-2.744,3.174-5.572,6.447-11,5.291a26.939,26.939,0,0,1,6.277-5.347A1.035,1.035,0,1,0,34.4,26.206,29.028,29.028,0,0,0,28.056,31.5a7.724,7.724,0,0,1,3.77-7.747,11.592,11.592,0,0,1,12.065.725ZM46,8.123h3.815v3.815H46V8.123Zm-32.038,0h3.816v3.815H13.967V8.123Z" transform="translate(-6.01 -6.066)" fill-rule="evenodd"/>
      </g>
    </g>
  </g>
</svg>
