<svg xmlns="http://www.w3.org/2000/svg" xmlns:xlink="http://www.w3.org/1999/xlink" width="102.949" height="102.949" viewBox="0 0 102.949 102.949">
  <defs>
    <filter id="Trazado_874925" x="0" y="0" width="102.949" height="102.949" filterUnits="userSpaceOnUse">
      <feOffset dy="3" input="SourceAlpha"/>
      <feGaussianBlur stdDeviation="3" result="blur"/>
      <feFlood flood-opacity="0.161"/>
      <feComposite operator="in" in2="blur"/>
      <feComposite in="SourceGraphic"/>
    </filter>
  </defs>
  <g id="Grupo_1182114" data-name="Grupo 1182114" transform="translate(-1064.052 -6389)">
    <g id="Grupo_1181887" data-name="Grupo 1181887" transform="translate(264.551 3877.843)">
      <g id="Grupo_1111316" data-name="Grupo 1111316" transform="translate(808.5 2517.157)">
        <g id="Grupo_1109835" data-name="Grupo 1109835" transform="translate(0 0)">
          <g id="Grupo_1107913" data-name="Grupo 1107913" transform="translate(0 0)">
            <g transform="matrix(1, 0, 0, 1, -9, -6)" filter="url(#Trazado_874925)">
              <g id="Trazado_874925-2" data-name="Trazado 874925" transform="translate(9 6)" fill="#4c6929" opacity="0.859">
                <path d="M 42.47446823120117 83.44929504394531 C 36.94229125976562 83.44929504394531 31.57638549804688 82.36614227294922 26.52582168579102 80.22994232177734 C 21.64678573608398 78.16628265380859 17.26464462280273 75.211669921875 13.50113868713379 71.44816589355469 C 9.737632751464844 67.68466949462891 6.78300952911377 63.30253982543945 4.719362258911133 58.42351913452148 C 2.583150625228882 53.37295150756836 1.499997615814209 48.00706100463867 1.499997615814209 42.47489547729492 C 1.499997615814209 36.94223403930664 2.583150625228882 31.57634162902832 4.719362258911133 26.52577781677246 C 6.78300952911377 21.64675331115723 9.737632751464844 17.26462364196777 13.50113868713379 13.50113010406494 C 17.26464462280273 9.737624168395996 21.64678573608398 6.783012390136719 26.52582168579102 4.719353199005127 C 31.57638549804688 2.583153486251831 36.94229125976562 1.500000476837158 42.47446823120117 1.500000476837158 C 48.00664520263672 1.500000476837158 53.37255096435547 2.583153486251831 58.42311477661133 4.719353199005127 C 63.30215072631836 6.783012390136719 67.68428802490234 9.737624168395996 71.44779968261719 13.50113010406494 C 75.2113037109375 17.26462364196777 78.16592407226562 21.64675331115723 80.22957611083984 26.52577781677246 C 82.36578369140625 31.57634162902832 83.44893646240234 36.94223403930664 83.44893646240234 42.47439956665039 C 83.44893646240234 48.00706100463867 82.36578369140625 53.37295150756836 80.22957611083984 58.42351913452148 C 78.16592407226562 63.30253982543945 75.2113037109375 67.68466949462891 71.44779968261719 71.44816589355469 C 67.68428802490234 75.211669921875 63.30215072631836 78.16628265380859 58.42311477661133 80.22994232177734 C 53.37255096435547 82.36614227294922 48.00664520263672 83.44929504394531 42.47446823120117 83.44929504394531 Z" stroke="none"/>
                <path d="M 42.47446823120117 2.999992370605469 C 37.14412307739258 2.999992370605469 31.97481536865234 4.04327392578125 27.11014938354492 6.100860595703125 C 22.40990829467773 8.088890075683594 18.18804168701172 10.93555450439453 14.56179809570312 14.56178283691406 C 10.93557739257812 18.18801116943359 8.088897705078125 22.40987396240234 6.100868225097656 27.11009979248047 C 4.043281555175781 31.97476577758789 3 37.14406204223633 3 42.47488784790039 C 3 47.80522155761719 4.043281555175781 52.97451400756836 6.100868225097656 57.83917999267578 C 8.088897705078125 62.53940582275391 10.93557739257812 66.76127624511719 14.56179809570312 70.38749694824219 C 18.18804168701172 74.01372528076172 22.40990829467773 76.86039733886719 27.11014938354492 78.84841918945312 C 31.97481536865234 80.906005859375 37.14412307739258 81.94928741455078 42.47446823120117 81.94928741455078 C 47.80481338500977 81.94928741455078 52.97412109375 80.906005859375 57.83879089355469 78.84841918945312 C 62.53902816772461 76.86039733886719 66.76089477539062 74.01372528076172 70.38713073730469 70.38749694824219 C 74.01335906982422 66.76127624511719 76.86003875732422 62.53940582275391 78.84806823730469 57.83917999267578 C 80.90565490722656 52.97451400756836 81.94893646240234 47.80522155761719 81.94893646240234 42.47439575195312 C 81.94893646240234 37.14406204223633 80.90565490722656 31.97476577758789 78.84806823730469 27.11009979248047 C 76.86003875732422 22.40987396240234 74.01335906982422 18.18801116943359 70.38713073730469 14.56178283691406 C 66.76089477539062 10.93555450439453 62.53902816772461 8.088890075683594 57.83879089355469 6.100860595703125 C 52.97412109375 4.04327392578125 47.80481338500977 2.999992370605469 42.47446823120117 2.999992370605469 M 42.47446823120117 -7.62939453125e-06 C 65.93246459960938 -7.62939453125e-06 84.94893646240234 19.01643371582031 84.94893646240234 42.47439575195312 L 84.94893646240234 42.47488784790039 C 84.94893646240234 65.93284606933594 65.93246459960938 84.94928741455078 42.47446823120117 84.94928741455078 C 19.01647186279297 84.94928741455078 0 65.93284606933594 0 42.47488784790039 L 0 42.47439575195312 C 0 19.01643371582031 19.01647186279297 -7.62939453125e-06 42.47446823120117 -7.62939453125e-06 Z" stroke="none" fill="#fff"/>
              </g>
            </g>
            <g id="Trazado_874923" data-name="Trazado 874923" transform="translate(0 0)" fill="none">
              <path d="M42.474,0A42.474,42.474,0,0,1,84.949,42.474h0A42.474,42.474,0,0,1,0,42.475H0A42.474,42.474,0,0,1,42.474,0Z" stroke="none"/>
              <path d="M 42.47446823120117 2.999992370605469 C 37.14412307739258 2.999992370605469 31.97481536865234 4.04327392578125 27.11014938354492 6.100860595703125 C 22.40990829467773 8.088890075683594 18.18804168701172 10.93555450439453 14.56179809570312 14.56178283691406 C 10.93557739257812 18.18801116943359 8.088897705078125 22.40987396240234 6.100868225097656 27.11009979248047 C 4.043281555175781 31.97476577758789 3 37.14406204223633 3 42.47488784790039 C 3 47.80522155761719 4.043281555175781 52.97451400756836 6.100868225097656 57.83917999267578 C 8.088897705078125 62.53940582275391 10.93557739257812 66.76127624511719 14.56179809570312 70.38749694824219 C 18.18804168701172 74.01372528076172 22.40990829467773 76.86039733886719 27.11014938354492 78.84841918945312 C 31.97481536865234 80.906005859375 37.14412307739258 81.94928741455078 42.47446823120117 81.94928741455078 C 47.80481338500977 81.94928741455078 52.97412109375 80.906005859375 57.83879089355469 78.84841918945312 C 62.53902816772461 76.86039733886719 66.76089477539062 74.01372528076172 70.38713073730469 70.38749694824219 C 74.01335906982422 66.76127624511719 76.86003875732422 62.53940582275391 78.84806823730469 57.83917999267578 C 80.90565490722656 52.97451400756836 81.94893646240234 47.80522155761719 81.94893646240234 42.47439575195312 C 81.94893646240234 37.14406204223633 80.90565490722656 31.97476577758789 78.84806823730469 27.11009979248047 C 76.86003875732422 22.40987396240234 74.01335906982422 18.18801116943359 70.38713073730469 14.56178283691406 C 66.76089477539062 10.93555450439453 62.53902816772461 8.088890075683594 57.83879089355469 6.100860595703125 C 52.97412109375 4.04327392578125 47.80481338500977 2.999992370605469 42.47446823120117 2.999992370605469 M 42.47446823120117 -7.62939453125e-06 C 65.93246459960938 -7.62939453125e-06 84.94893646240234 19.01643371582031 84.94893646240234 42.47439575195312 L 84.94893646240234 42.47488784790039 C 84.94893646240234 65.93284606933594 65.93246459960938 84.94928741455078 42.47446823120117 84.94928741455078 C 19.01647186279297 84.94928741455078 0 65.93284606933594 0 42.47488784790039 L 0 42.47439575195312 C 0 19.01643371582031 19.01647186279297 -7.62939453125e-06 42.47446823120117 -7.62939453125e-06 Z" stroke="none" fill="#fff"/>
            </g>
          </g>
        </g>
      </g>
    </g>
    <g id="Grupo_1182113" data-name="Grupo 1182113">
      <path id="Trazado_910223" data-name="Trazado 910223" d="M4.915,1.173H42.484a3.964,3.964,0,0,1,3.955,3.955V33.8a3.964,3.964,0,0,1-3.955,3.955H38.107L34.891,45.6l-.566,1.381-1.048-1.064-8.039-8.161H4.915A3.964,3.964,0,0,1,.96,33.8V5.128A3.964,3.964,0,0,1,4.915,1.173ZM42.484,3.151H4.915A1.986,1.986,0,0,0,2.937,5.128V33.8a1.986,1.986,0,0,0,1.977,1.977H26.057l.293.3,7.284,7.394,2.9-7.078.252-.614h5.7A1.986,1.986,0,0,0,44.461,33.8V5.128a1.986,1.986,0,0,0-1.977-1.977Z" transform="translate(1091.85 6416.112)" fill="#333"/>
      <g id="_258643512" transform="translate(1100.883 6420.55)">
        <path id="_258643176" d="M8.8,4.857H3.808v9.887H8.8ZM3.32,2.88H9.287a1.473,1.473,0,0,1,1.063.458,1.516,1.516,0,0,1,.426,1.049V15.214l-.073.371c-.043.106-.033.079-.036.088-.218.584-.391,1.049-1.378,1.049H3.32a1.476,1.476,0,0,1-1.063-.458,1.514,1.514,0,0,1-.426-1.049V4.385a1.514,1.514,0,0,1,.43-1.051A1.474,1.474,0,0,1,3.32,2.88Z" transform="translate(-1.831 9.674)" fill="#333"/>
        <path id="_258643608" d="M20.142,13.693c0-.579-.169-.85-.424-.967a5.265,5.265,0,0,0-1.82-.215l-2.562-.045-2.561-.047L10.79,12.38l1.223-1.558c.244-.311.427-.536.615-.769h0a17,17,0,0,0,2.153-3.075v0a3.251,3.251,0,0,0,.274-2.6,1.5,1.5,0,0,0-.471-.626,1.179,1.179,0,0,0-.609-.237,1.4,1.4,0,0,0-1.114.474,6.745,6.745,0,0,0-.6.99c-.112.2-.218.4-.343.6h0c-.358.584-1.9,2.834-3.474,5.118C6.691,13.245,4.9,15.472,4.9,15.66V25.944H18.6a1.747,1.747,0,0,0,.817-.186,1.326,1.326,0,0,0,.382-.3l.344-11.764h0Zm.394-2.759a2.7,2.7,0,0,1,1.575,2.794v.019L21.759,25.81l-.143.483A3.272,3.272,0,0,1,20.335,27.5a3.707,3.707,0,0,1-1.736.418H4.414a1.5,1.5,0,0,1-1.489-1.49V15.66c0-.407,1.967-3.271,3.9-6.083,1.524-2.218,3.024-4.4,3.412-5.033l0,0c.061-.1.173-.3.292-.52A6.993,6.993,0,0,1,11.46,2.6,3.333,3.333,0,0,1,14.15,1.537a3.149,3.149,0,0,1,1.629.631,3.47,3.47,0,0,1,1.1,1.437,5.153,5.153,0,0,1-.3,4.2h0a14.38,14.38,0,0,1-1.763,2.677l.554.01,2.562.045a6.493,6.493,0,0,1,2.608.393Z" transform="translate(7.217 -1.526)" fill="#333"/>
      </g>
      <path id="Trazado_910224" data-name="Trazado 910224" d="M13.571,10.7l-2.561-.047-1.984-.037,1.223-1.558c.244-.311.427-.536.615-.769h0a17,17,0,0,0,2.153-3.075v0a3.251,3.251,0,0,0,.274-2.6,1.5,1.5,0,0,0-.471-.626,1.179,1.179,0,0,0-.609-.237,1.4,1.4,0,0,0-1.114.474,6.745,6.745,0,0,0-.6.99c-.112.2-.218.4-.343.6h0c-.358.584-1.9,2.834-3.474,5.118C4.927,11.482,3.139,13.708,3.139,13.9V24.18h13.7a1.747,1.747,0,0,0,.817-.186,1.326,1.326,0,0,0,.382-.3l.344-11.764c0-.579-.169-.85-.424-.967a5.265,5.265,0,0,0-1.82-.215L13.571,10.7Z" transform="translate(1109.864 6420.788)" fill="#ffd3b3" fill-rule="evenodd"/>
      <path id="Trazado_910225" data-name="Trazado 910225" d="M7.034,12.98V3.093H2.044V12.98Z" transform="translate(1100.816 6431.988)" fill="#feca5f" fill-rule="evenodd"/>
      <path id="Trazado_910226" data-name="Trazado 910226" d="M14.726,15.228a1.473,1.473,0,0,1,1.063.458,1.516,1.516,0,0,1,.426,1.049V27.562l-.073.371c-.043.106-.033.079-.036.088-.218.584-.391,1.049-1.378,1.049H8.758A1.476,1.476,0,0,1,7.7,28.611a1.514,1.514,0,0,1-.426-1.049V16.733a1.514,1.514,0,0,1,.43-1.051,1.474,1.474,0,0,1,1.059-.454h5.967ZM40.72,1.387H3.151A1.986,1.986,0,0,0,1.173,3.364V32.035a1.986,1.986,0,0,0,1.977,1.977H24.293l.293.3L31.87,41.7l2.9-7.078.252-.614h5.7A1.986,1.986,0,0,0,42.7,32.035V3.364A1.986,1.986,0,0,0,40.72,1.387ZM21.311,10.725c1.524-2.218,3.024-4.4,3.412-5.033l0,0c.061-.1.173-.3.292-.52a6.993,6.993,0,0,1,.927-1.422,3.334,3.334,0,0,1,2.689-1.061,3.149,3.149,0,0,1,1.629.631,3.47,3.47,0,0,1,1.1,1.437,5.153,5.153,0,0,1-.3,4.2h0A14.381,14.381,0,0,1,29.3,11.634l.554.01,2.562.045a6.493,6.493,0,0,1,2.608.393A2.7,2.7,0,0,1,36.6,14.876V14.9l-.352,12.062-.143.483a3.272,3.272,0,0,1-1.281,1.211,3.707,3.707,0,0,1-1.736.418H18.9a1.5,1.5,0,0,1-1.489-1.49V16.808c0-.407,1.967-3.271,3.9-6.083Z" transform="translate(1093.614 6417.876)" fill="#aed581" fill-rule="evenodd"/>
    </g>
  </g>
</svg>
