<svg xmlns="http://www.w3.org/2000/svg" xmlns:xlink="http://www.w3.org/1999/xlink" width="118" height="118" viewBox="0 0 118 118">
  <defs>
    <filter id="Trazado_874925" x="0" y="0" width="117.999" height="118" filterUnits="userSpaceOnUse">
      <feOffset dy="3" input="SourceAlpha"/>
      <feGaussianBlur stdDeviation="3" result="blur"/>
      <feFlood flood-opacity="0.161"/>
      <feComposite operator="in" in2="blur"/>
      <feComposite in="SourceGraphic"/>
    </filter>
  </defs>
  <g id="Grupo_1181983" data-name="Grupo 1181983" transform="translate(-1083.052 -4562)">
    <g id="Grupo_1118042" data-name="Grupo 1118042" transform="translate(-25.082 2628.001)">
      <g id="Grupo_1111553" data-name="Grupo 1111553" transform="translate(308.634 -577.158)">
        <g id="Grupo_1111316" data-name="Grupo 1111316" transform="translate(808.5 2517.157)">
          <g id="Grupo_1109835" data-name="Grupo 1109835" transform="translate(0 0)">
            <g id="Grupo_1107913" data-name="Grupo 1107913" transform="translate(0 0)">
              <g transform="matrix(1, 0, 0, 1, -9, -6)" filter="url(#Trazado_874925)">
                <g id="Trazado_874925-2" data-name="Trazado 874925" transform="translate(9 6)" fill="#9cc8ff" opacity="0.859">
                  <path d="M 49.99972534179688 98.4998779296875 C 43.45164108276367 98.4998779296875 37.10022354125977 97.21776580810547 31.12189674377441 94.68914794921875 C 25.34676742553711 92.24647521972656 20.15985298156738 88.74925994873047 15.70523929595947 84.29464721679688 C 11.25062561035156 79.84004974365234 7.753411293029785 74.65313720703125 5.310725212097168 68.87800598144531 C 2.782111167907715 62.89969253540039 1.499996781349182 56.54829406738281 1.499996781349182 50.00022125244141 C 1.499996781349182 43.45157623291016 2.782111167907715 37.10017776489258 5.310725212097168 31.12186431884766 C 7.753411293029785 25.34673500061035 11.25062561035156 20.15983581542969 15.70523929595947 15.70522117614746 C 20.15985298156738 11.25062084197998 25.34676742553711 7.753406524658203 31.12189674377441 5.31073522567749 C 37.10022354125977 2.782120943069458 43.45164108276367 1.500006556510925 49.99972534179688 1.500006556510925 C 56.54780960083008 1.500006556510925 62.89922714233398 2.782120943069458 68.87755584716797 5.31073522567749 C 74.65267944335938 7.753406524658203 79.839599609375 11.25062084197998 84.29421234130859 15.70522117614746 C 88.74882507324219 20.15983581542969 92.24604034423828 25.34673500061035 94.68872833251953 31.12186431884766 C 97.21733856201172 37.10017776489258 98.49945068359375 43.45157623291016 98.49945068359375 49.99964904785156 C 98.49945068359375 56.54829406738281 97.21733856201172 62.89969253540039 94.68872833251953 68.87800598144531 C 92.24604034423828 74.65313720703125 88.74882507324219 79.84004974365234 84.29421234130859 84.29464721679688 C 79.839599609375 88.74925994873047 74.65267944335938 92.24647521972656 68.87755584716797 94.68914794921875 C 62.89922714233398 97.21776580810547 56.54780960083008 98.4998779296875 49.99972534179688 98.4998779296875 Z" stroke="none"/>
                  <path d="M 49.99972534179688 3 C 43.65348052978516 3 37.49866485595703 4.242240905761719 31.70623016357422 6.692230224609375 C 26.10989379882812 9.059272766113281 21.08323669433594 12.44853210449219 16.76589202880859 16.76587677001953 C 12.44855499267578 21.08321380615234 9.059295654296875 26.10985565185547 6.692230224609375 31.70618438720703 C 4.24224853515625 37.49859619140625 3 43.65341186523438 3 50.00022888183594 C 3 56.34645843505859 4.24224853515625 62.50127410888672 6.692230224609375 68.29368591308594 C 9.059295654296875 73.8900146484375 12.44855499267578 78.91665649414062 16.76589202880859 83.23399353027344 C 21.08323669433594 87.55132293701172 26.10989379882812 90.94059753417969 31.70623016357422 93.30764007568359 C 37.49866485595703 95.75762939453125 43.65348052978516 96.99987030029297 49.99972534179688 96.99987030029297 C 56.34597015380859 96.99987030029297 62.50078582763672 95.75762939453125 68.293212890625 93.30764007568359 C 73.88955688476562 90.94059753417969 78.91621398925781 87.55132293701172 83.23355865478516 83.23399353027344 C 87.55089569091797 78.91665649414062 90.94015502929688 73.8900146484375 93.30722045898438 68.29368591308594 C 95.7572021484375 62.50127410888672 96.99945068359375 56.34645843505859 96.99945068359375 49.99964141845703 C 96.99945068359375 43.65341186523438 95.7572021484375 37.49859619140625 93.30722045898438 31.70618438720703 C 90.94015502929688 26.10985565185547 87.55089569091797 21.08321380615234 83.23355865478516 16.76587677001953 C 78.91621398925781 12.44853210449219 73.88955688476562 9.059272766113281 68.293212890625 6.692230224609375 C 62.50078582763672 4.242240905761719 56.34597015380859 3 49.99972534179688 3 M 49.99972534179688 0 C 77.61381530761719 0 99.99945068359375 22.38559722900391 99.99945068359375 49.99964141845703 L 99.99945068359375 50.00022888183594 C 99.99945068359375 77.6142578125 77.61381530761719 99.99987030029297 49.99972534179688 99.99987030029297 C 22.38563537597656 99.99987030029297 0 77.6142578125 0 50.00022888183594 L 0 49.99964141845703 C 0 22.38559722900391 22.38563537597656 0 49.99972534179688 0 Z" stroke="none" fill="#fff"/>
                </g>
              </g>
              <g id="Trazado_874923" data-name="Trazado 874923" transform="translate(0 0)" fill="none">
                <path d="M50,0a50,50,0,0,1,50,50h0A50,50,0,0,1,0,50H0A50,50,0,0,1,50,0Z" stroke="none"/>
                <path d="M 49.99972534179688 3 C 43.65348052978516 3 37.49866485595703 4.242240905761719 31.70623016357422 6.692230224609375 C 26.10989379882812 9.059272766113281 21.08323669433594 12.44853210449219 16.76589202880859 16.76587677001953 C 12.44855499267578 21.08321380615234 9.059295654296875 26.10985565185547 6.692230224609375 31.70618438720703 C 4.24224853515625 37.49859619140625 3 43.65341186523438 3 50.00022888183594 C 3 56.34645843505859 4.24224853515625 62.50127410888672 6.692230224609375 68.29368591308594 C 9.059295654296875 73.8900146484375 12.44855499267578 78.91665649414062 16.76589202880859 83.23399353027344 C 21.08323669433594 87.55132293701172 26.10989379882812 90.94059753417969 31.70623016357422 93.30764007568359 C 37.49866485595703 95.75762939453125 43.65348052978516 96.99987030029297 49.99972534179688 96.99987030029297 C 56.34597015380859 96.99987030029297 62.50078582763672 95.75762939453125 68.293212890625 93.30764007568359 C 73.88955688476562 90.94059753417969 78.91621398925781 87.55132293701172 83.23355865478516 83.23399353027344 C 87.55089569091797 78.91665649414062 90.94015502929688 73.8900146484375 93.30722045898438 68.29368591308594 C 95.7572021484375 62.50127410888672 96.99945068359375 56.34645843505859 96.99945068359375 49.99964141845703 C 96.99945068359375 43.65341186523438 95.7572021484375 37.49859619140625 93.30722045898438 31.70618438720703 C 90.94015502929688 26.10985565185547 87.55089569091797 21.08321380615234 83.23355865478516 16.76587677001953 C 78.91621398925781 12.44853210449219 73.88955688476562 9.059272766113281 68.293212890625 6.692230224609375 C 62.50078582763672 4.242240905761719 56.34597015380859 3 49.99972534179688 3 M 49.99972534179688 0 C 77.61381530761719 0 99.99945068359375 22.38559722900391 99.99945068359375 49.99964141845703 L 99.99945068359375 50.00022888183594 C 99.99945068359375 77.6142578125 77.61381530761719 99.99987030029297 49.99972534179688 99.99987030029297 C 22.38563537597656 99.99987030029297 0 77.6142578125 0 50.00022888183594 L 0 49.99964141845703 C 0 22.38559722900391 22.38563537597656 0 49.99972534179688 0 Z" stroke="none" fill="#fff"/>
              </g>
            </g>
          </g>
        </g>
      </g>
    </g>
    <g id="altruismo" transform="translate(1105.051 4529.855)">
      <g id="Grupo_1181982" data-name="Grupo 1181982" transform="translate(1.081 61.227)">
        <path id="Trazado_909852" data-name="Trazado 909852" d="M137.485,227.061l-1.621-2.749H121.587l-2.679,2.749a1.351,1.351,0,0,0-1.351,1.351v3.64a1.351,1.351,0,0,0,1.351,1.351h18.577a1.351,1.351,0,0,0,1.351-1.351v-3.64A1.351,1.351,0,0,0,137.485,227.061Z" transform="translate(-101.682 -201.715)" fill="#fcf0b6"/>
        <path id="Trazado_909853" data-name="Trazado 909853" d="M123.329,232.051v-3.64a1.351,1.351,0,0,1,1.351-1.351l2.679-2.749h-5.771l-2.679,2.749a1.351,1.351,0,0,0-1.351,1.351v3.64a1.351,1.351,0,0,0,1.351,1.351h5.771A1.351,1.351,0,0,1,123.329,232.051Z" transform="translate(-101.683 -201.715)" fill="#fbe88c"/>
        <path id="Trazado_909854" data-name="Trazado 909854" d="M139.735,141.77v-2.327H122.548l-1.389,2.327a1.351,1.351,0,0,0-1.351,1.351v3.64a1.351,1.351,0,0,0,1.351,1.351l1.344,1.643h17.233v-1.643a1.351,1.351,0,0,0,1.351-1.351v-3.64A1.351,1.351,0,0,0,139.735,141.77Z" transform="translate(-103.608 -129.087)" fill="#fcf0b6"/>
        <path id="Trazado_909855" data-name="Trazado 909855" d="M126.91,148.35a1.4,1.4,0,0,1-1.351-1.443V143.02a1.4,1.4,0,0,1,1.351-1.443l1.194-2.135h-5.556l-1.389,2.327a1.351,1.351,0,0,0-1.351,1.351v3.64a1.351,1.351,0,0,0,1.351,1.351l1.344,1.643h5.484Z" transform="translate(-103.608 -129.086)" fill="#fbe88c"/>
        <path id="Trazado_909856" data-name="Trazado 909856" d="M139.735,67.645H121.158A1.351,1.351,0,0,0,119.807,69v3.64a1.351,1.351,0,0,0,1.351,1.351l.269,1.485h18.308V73.987a1.351,1.351,0,0,0,1.351-1.351V69A1.351,1.351,0,0,0,139.735,67.645Z" transform="translate(-103.608 -67.645)" fill="#fcf0b6"/>
        <g id="Grupo_1181975" data-name="Grupo 1181975" transform="translate(15.875 0)">
          <path id="Trazado_909857" data-name="Trazado 909857" d="M126.122,74.177a1.415,1.415,0,0,1-1.351-1.471V68.744a1.525,1.525,0,0,1,.455-1.1h-4.068A1.351,1.351,0,0,0,119.807,69v3.64a1.351,1.351,0,0,0,1.351,1.351l.269,1.485h4.911Z" transform="translate(-119.483 -67.645)" fill="#fbe88c"/>
          <path id="Trazado_909858" data-name="Trazado 909858" d="M139.735,205.887H121.158a1.351,1.351,0,0,1-1.351-1.351V200.9a1.351,1.351,0,0,1,1.351-1.351h18.577a1.351,1.351,0,0,1,1.351,1.351v3.64A1.351,1.351,0,0,1,139.735,205.887Z" transform="translate(-119.483 -180.52)" fill="#fbe88c"/>
          <path id="Trazado_909859" data-name="Trazado 909859" d="M137.486,292.574H118.909a1.351,1.351,0,0,1-1.351-1.351v-3.64a1.351,1.351,0,0,1,1.351-1.351h18.577a1.351,1.351,0,0,1,1.351,1.351v3.64A1.351,1.351,0,0,1,137.486,292.574Z" transform="translate(-117.558 -254.704)" fill="#fbe88c"/>
        </g>
        <path id="Trazado_909860" data-name="Trazado 909860" d="M266.067,202.23l3.836-8.071a9.369,9.369,0,0,0-12.7-12.379l-1.377.7-1.377-.7a9.369,9.369,0,0,0-12.7,12.379l1.808,3.8,5.639,11,13.908-.3Z" transform="translate(-207.188 -164.451)" fill="#ea9a98"/>
        <g id="Grupo_1181976" data-name="Grupo 1181976" transform="translate(33.657 16.317)">
          <path id="Trazado_909861" data-name="Trazado 909861" d="M250.513,197.966l-1.808-3.8a9.366,9.366,0,0,1,4.987-12.721,9.369,9.369,0,0,0-11.94,12.721l1.808,3.8,5.639,11,6.877-.15Z" transform="translate(-240.844 -180.771)" fill="#e5827f"/>
        </g>
        <g id="Grupo_1181981" data-name="Grupo 1181981" transform="translate(0 6.342)">
          <g id="XMLID_337_" transform="translate(0 23.471)">
            <g id="Grupo_1181977" data-name="Grupo 1181977" transform="translate(0 0)">
              <path id="Trazado_909862" data-name="Trazado 909862" d="M59.48,284.311l.138.039h2.207L75.9,278.029a2.4,2.4,0,0,1,2.214,4.249l-23.74,14.183a17.693,17.693,0,0,1-14.109,1.773l-14.108-4.19H8.886A1.388,1.388,0,0,1,7.5,292.655v-14.52a1.388,1.388,0,0,1,1.388-1.388H21.154l1.553-.653A22.455,22.455,0,0,1,42.4,277.212l5.017,2.816h8.869a3.333,3.333,0,0,1,3.195,4.284Z" transform="translate(-7.498 -274.339)" fill="#fabf8e"/>
            </g>
            <path id="Trazado_909863" data-name="Trazado 909863" d="M78.554,303.15,54.826,316.769a19.073,19.073,0,0,1-14.685,1.773l-13.615-3.885a7.947,7.947,0,0,0-2.181-.305H7.5v2.959A1.388,1.388,0,0,0,8.885,318.7H26.156l14.108,4.19a17.693,17.693,0,0,0,14.109-1.773l23.74-14.183a2.4,2.4,0,0,0,.6-3.617C78.659,303.257,78.608,303.2,78.554,303.15Z" transform="translate(-7.497 -298.994)" fill="#ecab76"/>
            <g id="Grupo_1181979" data-name="Grupo 1181979" transform="translate(25.409 0.05)">
              <g id="XMLID_339_">
                <g id="Grupo_1181978" data-name="Grupo 1181978">
                  <path id="Trazado_909864" data-name="Trazado 909864" d="M237.9,342.046H235.69l-.138-.039c.012-.04.021-.081.032-.122H213.247a5.389,5.389,0,0,0,5.389,5.389h13.721a6.248,6.248,0,0,0,5.957-4.435,6.112,6.112,0,0,0,.221-1.08Z" transform="translate(-208.979 -332.085)" fill="#ecab76"/>
                  <path id="Trazado_909865" data-name="Trazado 909865" d="M210.368,283.658a3.285,3.285,0,0,1-.138.951,3.334,3.334,0,0,1-3.195,2.383H183.657v-12.3a22.433,22.433,0,0,1,9.492,2.823l5.017,2.816h8.869a3.334,3.334,0,0,1,3.333,3.333Z" transform="translate(-183.657 -274.686)" fill="#fabf8e"/>
                </g>
              </g>
            </g>
          </g>
          <path id="Trazado_909866" data-name="Trazado 909866" d="M302.013,123.217h3.379v-2.192a3.25,3.25,0,0,0-3.25-3.25h-2.778a.6.6,0,0,0-.6.6v1.591A3.25,3.25,0,0,0,302.013,123.217Z" transform="translate(-256.751 -116.886)" fill="#b1f5d5"/>
          <path id="Trazado_909867" data-name="Trazado 909867" d="M139.735,117.954H121.158a1.351,1.351,0,0,1-1.351-1.351v-3.64a1.351,1.351,0,0,1,1.351-1.351h18.577a1.351,1.351,0,0,1,1.351,1.351v3.64A1.351,1.351,0,0,1,139.735,117.954Z" transform="translate(-103.608 -111.612)" fill="#fbe88c"/>
          <g id="Grupo_1181980" data-name="Grupo 1181980" transform="translate(16.199 0)">
            <path id="Trazado_909868" data-name="Trazado 909868" d="M125.583,204.547v-3.64a1.351,1.351,0,0,1,1.351-1.351l-5.776-.01a1.351,1.351,0,0,0-1.351,1.351v3.64a1.351,1.351,0,0,0,1.351,1.351h5.615A1.351,1.351,0,0,1,125.583,204.547Z" transform="translate(-119.807 -186.863)" fill="#fbe372"/>
            <path id="Trazado_909869" data-name="Trazado 909869" d="M125.583,116.613v-3.64a1.351,1.351,0,0,1,1.351-1.351l-5.776-.01a1.351,1.351,0,0,0-1.351,1.351v3.64a1.351,1.351,0,0,0,1.351,1.351h5.615A1.351,1.351,0,0,1,125.583,116.613Z" transform="translate(-119.807 -111.612)" fill="#fbe372"/>
          </g>
        </g>
      </g>
      <path id="Trazado_909870" data-name="Trazado 909870" d="M73.115,94.658a3.5,3.5,0,0,0-4.075-.916L62.2,96.814,64.773,91.4a10.384,10.384,0,0,0,.825-6.445,1.082,1.082,0,1,0-2.125.405,8.233,8.233,0,0,1-.654,5.111l-3.665,7.711-3.978,1.786h-.895a4.419,4.419,0,0,0-4.413-4.322H41.282l-3-1.683-1.66-3.493a8.287,8.287,0,0,1,11.232-10.95l.784.4v1.787a1.082,1.082,0,0,0,2.164,0V79.919l.784-.4A8.277,8.277,0,0,1,61.593,81.48c.047.054.091.108.136.163l.009.011a1.076,1.076,0,0,0,1.518.144A1.088,1.088,0,0,0,63.4,80.27c-.058-.07-.115-.14-.175-.209A10.435,10.435,0,0,0,50.8,77.5V75.874a5.093,5.093,0,0,1,1.5-3.625L53.652,70.9a1.082,1.082,0,0,0-1.53-1.53l-1.348,1.348c-.024.024-.046.049-.07.073a4.339,4.339,0,0,0-4.233-3.416H43.694a1.684,1.684,0,0,0-1.682,1.682V70.65a4.337,4.337,0,0,0,4.332,4.332H48.7a7.415,7.415,0,0,0-.056.893V77.5a10.434,10.434,0,0,0-9-.036v-2.2a2.418,2.418,0,0,0-.411-1.351,2.418,2.418,0,0,0,.411-1.351V68.92a2.418,2.418,0,0,0-.411-1.351,2.418,2.418,0,0,0,.411-1.351v-3.64a2.436,2.436,0,0,0-2.433-2.433H33.635a1.082,1.082,0,0,0,0,2.164h3.574a.27.27,0,0,1,.269.269v3.64a.27.27,0,0,1-.269.269H18.632a.27.27,0,0,1-.269-.269v-3.64a.27.27,0,0,1,.269-.269H29.025a1.082,1.082,0,0,0,0-2.164H18.632A2.436,2.436,0,0,0,16.2,62.578v3.64a2.418,2.418,0,0,0,.411,1.351A2.418,2.418,0,0,0,16.2,68.92v3.64a2.418,2.418,0,0,0,.411,1.351,2.418,2.418,0,0,0-.411,1.351V78.9a2.418,2.418,0,0,0,.411,1.351A2.418,2.418,0,0,0,16.2,81.6v3.64a2.418,2.418,0,0,0,.411,1.351,2.418,2.418,0,0,0-.411,1.351v3.721c-.109.044-.219.086-.327.131l-1.352.568H1.082a1.082,1.082,0,1,0,0,2.164H14.738a1.082,1.082,0,0,0,.419-.085l1.553-.653a21.37,21.37,0,0,1,5.308-1.462,1.082,1.082,0,1,0-.3-2.143,23.533,23.533,0,0,0-3.355.727v-2.97a.27.27,0,0,1,.269-.269H33.686a10.434,10.434,0,0,0,.984,3.724l.392.824a23.7,23.7,0,0,0-8.512-2.212,1.082,1.082,0,1,0-.143,2.159,21.5,21.5,0,0,1,9.047,2.686l5.017,2.816A1.082,1.082,0,0,0,41,97.81h8.869a2.252,2.252,0,0,1,0,4.5H36.623a1.082,1.082,0,0,0,0,2.164H49.869a4.419,4.419,0,0,0,3.9-2.345h1.642a1.082,1.082,0,0,0,.443-.095l14.076-6.321a1.318,1.318,0,0,1,1.216,2.334L47.4,112.233A16.654,16.654,0,0,1,34.156,113.9l-14.108-4.189a1.081,1.081,0,0,0-.308-.045H1.082a1.082,1.082,0,0,0,0,2.164h18.5L33.54,115.97a18.817,18.817,0,0,0,14.972-1.88L72.253,99.907a3.482,3.482,0,0,0,.863-5.249ZM48.64,72.817h-2.3a2.171,2.171,0,0,1-2.168-2.168v-1.11h2.3a2.171,2.171,0,0,1,2.168,2.168ZM37.09,79.17H18.632a.27.27,0,0,1-.269-.269v-3.64a.269.269,0,0,1,.269-.269H37.209a.27.27,0,0,1,.269.269v3.572C37.346,78.941,37.217,79.054,37.09,79.17Zm.119-10.52a.27.27,0,0,1,.269.269v3.64a.27.27,0,0,1-.269.269H18.632a.269.269,0,0,1-.269-.269V68.92a.27.27,0,0,1,.269-.269ZM18.362,85.242V81.6a.27.27,0,0,1,.269-.269h16.64a10.445,10.445,0,0,0-1.52,4.178H18.632a.27.27,0,0,1-.269-.269Z" transform="translate(0 0)"/>
    </g>
  </g>
</svg>
