<svg xmlns="http://www.w3.org/2000/svg" xmlns:xlink="http://www.w3.org/1999/xlink" width="117.999" height="118" viewBox="0 0 117.999 118">
  <defs>
    <filter id="Trazado_874925" x="0" y="0" width="117.999" height="118" filterUnits="userSpaceOnUse">
      <feOffset dy="3" input="SourceAlpha"/>
      <feGaussianBlur stdDeviation="3" result="blur"/>
      <feFlood flood-opacity="0.161"/>
      <feComposite operator="in" in2="blur"/>
      <feComposite in="SourceGraphic"/>
    </filter>
    <clipPath id="clip-path">
      <path id="path1203" d="M0-682.665H62.875v62.875H0Z" transform="translate(0 682.665)"/>
    </clipPath>
  </defs>
  <g id="Grupo_1181974" data-name="Grupo 1181974" transform="translate(-770.051 -4562)">
    <g id="Grupo_1118041" data-name="Grupo 1118041" transform="translate(-23.73 2628.001)">
      <g id="Grupo_1111552" data-name="Grupo 1111552" transform="translate(-5.719 -577.158)">
        <g id="Grupo_1111316" data-name="Grupo 1111316" transform="translate(808.5 2517.157)">
          <g id="Grupo_1109835" data-name="Grupo 1109835" transform="translate(0 0)">
            <g id="Grupo_1107913" data-name="Grupo 1107913" transform="translate(0 0)">
              <g transform="matrix(1, 0, 0, 1, -9, -6)" filter="url(#Trazado_874925)">
                <g id="Trazado_874925-2" data-name="Trazado 874925" transform="translate(9 6)" fill="#9cc8ff" opacity="0.859">
                  <path d="M 49.99972534179688 98.4998779296875 C 43.45164108276367 98.4998779296875 37.10022354125977 97.21776580810547 31.12189674377441 94.68914794921875 C 25.34676742553711 92.24647521972656 20.15985298156738 88.74925994873047 15.70523929595947 84.29464721679688 C 11.25062561035156 79.84004974365234 7.753411293029785 74.65313720703125 5.310725212097168 68.87800598144531 C 2.782111167907715 62.89969253540039 1.499996781349182 56.54829406738281 1.499996781349182 50.00022125244141 C 1.499996781349182 43.45157623291016 2.782111167907715 37.10017776489258 5.310725212097168 31.12186431884766 C 7.753411293029785 25.34673500061035 11.25062561035156 20.15983581542969 15.70523929595947 15.70522117614746 C 20.15985298156738 11.25062084197998 25.34676742553711 7.753406524658203 31.12189674377441 5.31073522567749 C 37.10022354125977 2.782120943069458 43.45164108276367 1.500006556510925 49.99972534179688 1.500006556510925 C 56.54780960083008 1.500006556510925 62.89922714233398 2.782120943069458 68.87755584716797 5.31073522567749 C 74.65267944335938 7.753406524658203 79.839599609375 11.25062084197998 84.29421234130859 15.70522117614746 C 88.74882507324219 20.15983581542969 92.24604034423828 25.34673500061035 94.68872833251953 31.12186431884766 C 97.21733856201172 37.10017776489258 98.49945068359375 43.45157623291016 98.49945068359375 49.99964904785156 C 98.49945068359375 56.54829406738281 97.21733856201172 62.89969253540039 94.68872833251953 68.87800598144531 C 92.24604034423828 74.65313720703125 88.74882507324219 79.84004974365234 84.29421234130859 84.29464721679688 C 79.839599609375 88.74925994873047 74.65267944335938 92.24647521972656 68.87755584716797 94.68914794921875 C 62.89922714233398 97.21776580810547 56.54780960083008 98.4998779296875 49.99972534179688 98.4998779296875 Z" stroke="none"/>
                  <path d="M 49.99972534179688 3 C 43.65348052978516 3 37.49866485595703 4.242240905761719 31.70623016357422 6.692230224609375 C 26.10989379882812 9.059272766113281 21.08323669433594 12.44853210449219 16.76589202880859 16.76587677001953 C 12.44855499267578 21.08321380615234 9.059295654296875 26.10985565185547 6.692230224609375 31.70618438720703 C 4.24224853515625 37.49859619140625 3 43.65341186523438 3 50.00022888183594 C 3 56.34645843505859 4.24224853515625 62.50127410888672 6.692230224609375 68.29368591308594 C 9.059295654296875 73.8900146484375 12.44855499267578 78.91665649414062 16.76589202880859 83.23399353027344 C 21.08323669433594 87.55132293701172 26.10989379882812 90.94059753417969 31.70623016357422 93.30764007568359 C 37.49866485595703 95.75762939453125 43.65348052978516 96.99987030029297 49.99972534179688 96.99987030029297 C 56.34597015380859 96.99987030029297 62.50078582763672 95.75762939453125 68.293212890625 93.30764007568359 C 73.88955688476562 90.94059753417969 78.91621398925781 87.55132293701172 83.23355865478516 83.23399353027344 C 87.55089569091797 78.91665649414062 90.94015502929688 73.8900146484375 93.30722045898438 68.29368591308594 C 95.7572021484375 62.50127410888672 96.99945068359375 56.34645843505859 96.99945068359375 49.99964141845703 C 96.99945068359375 43.65341186523438 95.7572021484375 37.49859619140625 93.30722045898438 31.70618438720703 C 90.94015502929688 26.10985565185547 87.55089569091797 21.08321380615234 83.23355865478516 16.76587677001953 C 78.91621398925781 12.44853210449219 73.88955688476562 9.059272766113281 68.293212890625 6.692230224609375 C 62.50078582763672 4.242240905761719 56.34597015380859 3 49.99972534179688 3 M 49.99972534179688 0 C 77.61381530761719 0 99.99945068359375 22.38559722900391 99.99945068359375 49.99964141845703 L 99.99945068359375 50.00022888183594 C 99.99945068359375 77.6142578125 77.61381530761719 99.99987030029297 49.99972534179688 99.99987030029297 C 22.38563537597656 99.99987030029297 0 77.6142578125 0 50.00022888183594 L 0 49.99964141845703 C 0 22.38559722900391 22.38563537597656 0 49.99972534179688 0 Z" stroke="none" fill="#fff"/>
                </g>
              </g>
              <g id="Trazado_874923" data-name="Trazado 874923" transform="translate(0 0)" fill="none">
                <path d="M50,0a50,50,0,0,1,50,50h0A50,50,0,0,1,0,50H0A50,50,0,0,1,50,0Z" stroke="none"/>
                <path d="M 49.99972534179688 3 C 43.65348052978516 3 37.49866485595703 4.242240905761719 31.70623016357422 6.692230224609375 C 26.10989379882812 9.059272766113281 21.08323669433594 12.44853210449219 16.76589202880859 16.76587677001953 C 12.44855499267578 21.08321380615234 9.059295654296875 26.10985565185547 6.692230224609375 31.70618438720703 C 4.24224853515625 37.49859619140625 3 43.65341186523438 3 50.00022888183594 C 3 56.34645843505859 4.24224853515625 62.50127410888672 6.692230224609375 68.29368591308594 C 9.059295654296875 73.8900146484375 12.44855499267578 78.91665649414062 16.76589202880859 83.23399353027344 C 21.08323669433594 87.55132293701172 26.10989379882812 90.94059753417969 31.70623016357422 93.30764007568359 C 37.49866485595703 95.75762939453125 43.65348052978516 96.99987030029297 49.99972534179688 96.99987030029297 C 56.34597015380859 96.99987030029297 62.50078582763672 95.75762939453125 68.293212890625 93.30764007568359 C 73.88955688476562 90.94059753417969 78.91621398925781 87.55132293701172 83.23355865478516 83.23399353027344 C 87.55089569091797 78.91665649414062 90.94015502929688 73.8900146484375 93.30722045898438 68.29368591308594 C 95.7572021484375 62.50127410888672 96.99945068359375 56.34645843505859 96.99945068359375 49.99964141845703 C 96.99945068359375 43.65341186523438 95.7572021484375 37.49859619140625 93.30722045898438 31.70618438720703 C 90.94015502929688 26.10985565185547 87.55089569091797 21.08321380615234 83.23355865478516 16.76587677001953 C 78.91621398925781 12.44853210449219 73.88955688476562 9.059272766113281 68.293212890625 6.692230224609375 C 62.50078582763672 4.242240905761719 56.34597015380859 3 49.99972534179688 3 M 49.99972534179688 0 C 77.61381530761719 0 99.99945068359375 22.38559722900391 99.99945068359375 49.99964141845703 L 99.99945068359375 50.00022888183594 C 99.99945068359375 77.6142578125 77.61381530761719 99.99987030029297 49.99972534179688 99.99987030029297 C 22.38563537597656 99.99987030029297 0 77.6142578125 0 50.00022888183594 L 0 49.99964141845703 C 0 22.38559722900391 22.38563537597656 0 49.99972534179688 0 Z" stroke="none" fill="#fff"/>
              </g>
            </g>
          </g>
        </g>
      </g>
    </g>
    <g id="g1197" transform="translate(797.051 5268.665)">
      <g id="g1199" transform="translate(0 -682.665)">
        <g id="g1201" clip-path="url(#clip-path)">
          <g id="g1207" transform="translate(1.228 9.822)">
            <path id="path1209" d="M-318.238,0l-.153.1a5.233,5.233,0,0,0-2.3,4.336h0a5.233,5.233,0,0,0,1.565,3.732l3.93,3.862a21.32,21.32,0,0,1,6.376,15.206h0a21.32,21.32,0,0,1-5.846,14.666l-6.025,6.358h-17.957l-6.025-6.358a21.32,21.32,0,0,1-5.846-14.666h0a21.321,21.321,0,0,1,6.376-15.206l3.93-3.862a5.233,5.233,0,0,0,1.565-3.732h0A5.233,5.233,0,0,0-340.954.1l-.153-.1Z" transform="translate(350.522)" fill="#da8b63"/>
          </g>
          <g id="g1211" transform="translate(3.628 17.993)">
            <path id="path1213" d="M-363.731-91.125a21.311,21.311,0,0,0-3.976-5.382l-3.93-3.862h-21.087l-3.93,3.862a21.308,21.308,0,0,0-3.976,5.382Z" transform="translate(400.63 100.369)" fill="#5993af"/>
          </g>
          <g id="g1215" transform="translate(10.643 9.822)">
            <path id="path1217" d="M-1.51-1.02a5.233,5.233,0,0,1,2.3,4.336A5.232,5.232,0,0,1-.772,7.047H20.315a5.233,5.233,0,0,1,.738-8.068l.153-.1H-1.663Z" transform="translate(1.663 1.124)" fill="#60b7ff"/>
          </g>
          <g id="g1219" transform="translate(14.276 10.193)">
            <path id="path1221" d="M0-76.9l7.8-7.8,7.8,7.8Z" transform="translate(0 84.698)" fill="#ff7c7a"/>
          </g>
          <g id="g1223" transform="translate(1.228 27.238)">
            <path id="path1225" d="M-23.656,0a21.317,21.317,0,0,0-2.4,9.824h41.7A21.316,21.316,0,0,0,13.243,0Z" transform="translate(26.056)" fill="#ffce62"/>
          </g>
          <g id="g1227" transform="translate(9.306 4.789)">
            <path id="path1229" d="M-225.158-53.263H-245.3a2.7,2.7,0,0,1-2.7-2.7h0a2.7,2.7,0,0,1,2.7-2.7h20.14a2.7,2.7,0,0,1,2.7,2.7h0a2.7,2.7,0,0,1-2.7,2.7" transform="translate(247.999 58.667)" fill="#eabaa3"/>
          </g>
          <g id="g1231" transform="translate(8.078 3.561)">
            <path id="path1233" d="M-187.93-5.474h-20.14A3.934,3.934,0,0,1-212-9.4a3.934,3.934,0,0,1,3.93-3.93h4.544a1.228,1.228,0,0,1,1.228,1.228,1.228,1.228,0,0,1-1.228,1.228h-4.544A1.475,1.475,0,0,0-209.543-9.4,1.475,1.475,0,0,0-208.07-7.93h20.14A1.475,1.475,0,0,0-186.456-9.4a1.475,1.475,0,0,0-1.473-1.474h-4.544a1.228,1.228,0,0,1-1.228-1.228,1.228,1.228,0,0,1,1.228-1.228h4.544A3.934,3.934,0,0,1-184-9.4,3.934,3.934,0,0,1-187.93-5.474Z" transform="translate(211.999 13.333)"/>
          </g>
          <g id="g1235" transform="translate(10.306 16.765)">
            <path id="path1237" d="M8.981-10.877H-12.105a1.228,1.228,0,0,1-1.228-1.228,1.228,1.228,0,0,1,1.228-1.228H8.981a1.228,1.228,0,0,1,1.228,1.228A1.228,1.228,0,0,1,8.981-10.877Z" transform="translate(13.333 13.333)"/>
          </g>
          <g id="g1239" transform="translate(35.852 32.15)">
            <path id="path1241"/>
          </g>
          <g id="g1243" transform="translate(28.965 32.15)">
            <path id="path1245"/>
          </g>
          <g id="g1247" transform="translate(22.077 32.15)">
            <path id="path1249"/>
          </g>
          <g id="g1251" transform="translate(15.19 32.15)">
            <path id="path1253"/>
          </g>
          <g id="g1255" transform="translate(8.303 32.15)">
            <path id="path1257"/>
          </g>
          <g id="g1259" transform="translate(0 8.594)">
            <path id="path1261" d="M-336.209-454.9h-17.957a1.228,1.228,0,0,1-.891-.383l-6.025-6.358a22.459,22.459,0,0,1-6.182-15.511,22.685,22.685,0,0,1,6.744-16.082l3.93-3.862a4.029,4.029,0,0,0,1.2-2.856,4,4,0,0,0-1.762-3.318l-.153-.1a1.228,1.228,0,0,1-.33-1.705,1.228,1.228,0,0,1,1.7-.33l.153.1a6.453,6.453,0,0,1,2.843,5.353,6.5,6.5,0,0,1-1.932,4.608l-3.93,3.862a20.214,20.214,0,0,0-6.009,14.331,20.013,20.013,0,0,0,5.509,13.821l5.662,5.975h16.9l2.407-2.54a1.228,1.228,0,0,1,1.736-.047,1.228,1.228,0,0,1,.047,1.736l-2.77,2.923A1.228,1.228,0,0,1-336.209-454.9Z" transform="translate(367.264 505.617)"/>
          </g>
          <g id="g1263" transform="translate(29.828 8.594)">
            <path id="path1265" d="M-28.179,23.631a1.226,1.226,0,0,1-.419-.074,1.228,1.228,0,0,1-.736-1.573,20.034,20.034,0,0,0,1.2-6.851A20.214,20.214,0,0,0-34.138.8l-3.93-3.862A6.5,6.5,0,0,1-40-7.667a6.453,6.453,0,0,1,2.843-5.353l.153-.1a1.228,1.228,0,0,1,1.705.33,1.228,1.228,0,0,1-.33,1.705l-.153.1a4,4,0,0,0-1.763,3.318,4.029,4.029,0,0,0,1.2,2.856l3.93,3.862a22.685,22.685,0,0,1,6.744,16.082,22.483,22.483,0,0,1-1.351,7.689A1.229,1.229,0,0,1-28.179,23.631Z" transform="translate(40 13.335)"/>
          </g>
          <g id="g1267" transform="translate(0 35.834)">
            <path id="path1269" d="M-423.149-10.877h-41.7a1.228,1.228,0,0,1-1.228-1.228,1.228,1.228,0,0,1,1.228-1.228h41.7a1.228,1.228,0,0,1,1.228,1.228A1.228,1.228,0,0,1-423.149-10.877Z" transform="translate(466.076 13.333)"/>
          </g>
          <g id="g1271" transform="translate(2.77 26.01)">
            <path id="path1273" d="M-370.432-10.877h-36.351a1.228,1.228,0,0,1-1.228-1.228,1.228,1.228,0,0,1,1.228-1.228h36.351a1.228,1.228,0,0,1,1.228,1.228A1.228,1.228,0,0,1-370.432-10.877Z" transform="translate(408.011 13.333)"/>
          </g>
          <g id="g1275" transform="translate(13.048 8.965)">
            <path id="path1277" d="M3.5-87.775a1.224,1.224,0,0,1-.868-.36L-4.3-95.067l-6.933,6.933a1.228,1.228,0,0,1-1.737,0,1.228,1.228,0,0,1,0-1.737l7.8-7.8a1.228,1.228,0,0,1,.868-.36,1.228,1.228,0,0,1,.868.36l7.8,7.8a1.228,1.228,0,0,1,0,1.737A1.224,1.224,0,0,1,3.5-87.775Z" transform="translate(13.333 98.032)"/>
          </g>
          <g id="g1279" transform="translate(31.437 44.332)">
            <path id="path1281" d="M-206.6-135.579H-218.3a9.251,9.251,0,0,1-9.251-9.251v-4.5h30.209v4.5a9.251,9.251,0,0,1-9.251,9.251" transform="translate(227.555 149.333)" fill="#ffce62"/>
          </g>
          <g id="g1283" transform="translate(31.438 44.332)">
            <path id="path1285" d="M0-44.386a9.257,9.257,0,0,0,.309,2.374H29.9a9.257,9.257,0,0,0,.309-2.374v-4.5H0Z" transform="translate(0 48.889)" fill="#ff7c7a"/>
          </g>
          <g id="g1287" transform="translate(32.788 44.332)">
            <path id="path1289" d="M0-67.79l6.877-6.877,6.877,6.877Z" transform="translate(0 74.666)" fill="#c1e649"/>
          </g>
          <g id="g1291" transform="translate(46.542 44.332)">
            <path id="path1293" d="M0-67.79l6.877-6.877,6.877,6.877Z" transform="translate(0 74.666)" fill="#c1e649"/>
          </g>
          <g id="g1295" transform="translate(30.209 43.104)">
            <path id="path1297" d="M-218.7-146.456h-11.707a10.491,10.491,0,0,1-10.479-10.479v-4.5a1.228,1.228,0,0,1,1.228-1.228h30.209a1.228,1.228,0,0,1,1.228,1.228v4.5A10.491,10.491,0,0,1-218.7-146.456Zm-19.73-13.754v3.275a8.032,8.032,0,0,0,8.023,8.023H-218.7a8.032,8.032,0,0,0,8.023-8.023v-3.275Z" transform="translate(240.889 162.666)"/>
          </g>
          <g id="g1299" transform="translate(31.233 49.981)">
            <path id="path1301" d="M16.057-10.877H-12.105a1.228,1.228,0,0,1-1.228-1.228,1.228,1.228,0,0,1,1.228-1.228H16.057a1.228,1.228,0,0,1,1.228,1.228A1.228,1.228,0,0,1,16.057-10.877Z" transform="translate(13.333 13.333)"/>
          </g>
          <g id="g1303" transform="translate(31.56 43.104)">
            <path id="path1305" d="M1.649-78.667a1.224,1.224,0,0,1-.868-.36l-6.009-6.009-6.009,6.009a1.228,1.228,0,0,1-1.737,0,1.228,1.228,0,0,1,0-1.737L-6.1-87.64a1.228,1.228,0,0,1,1.737,0l6.877,6.877a1.228,1.228,0,0,1,0,1.737A1.224,1.224,0,0,1,1.649-78.667Z" transform="translate(13.333 88)"/>
          </g>
          <g id="g1307" transform="translate(45.314 43.104)">
            <path id="path1309" d="M1.649-78.667a1.224,1.224,0,0,1-.868-.36l-6.009-6.009-6.009,6.009a1.228,1.228,0,0,1-1.737,0,1.228,1.228,0,0,1,0-1.737L-6.1-87.64a1.228,1.228,0,0,1,1.737,0l6.877,6.877a1.228,1.228,0,0,1,0,1.737A1.224,1.224,0,0,1,1.649-78.667Z" transform="translate(13.333 88)"/>
          </g>
          <g id="g1311" transform="translate(22.077 4.789)">
            <path id="path1313"/>
          </g>
        </g>
      </g>
    </g>
  </g>
</svg>
