<svg xmlns="http://www.w3.org/2000/svg" xmlns:xlink="http://www.w3.org/1999/xlink" width="102.949" height="102.949" viewBox="0 0 102.949 102.949">
  <defs>
    <filter id="Trazado_874925" x="0" y="0" width="102.949" height="102.949" filterUnits="userSpaceOnUse">
      <feOffset dy="3" input="SourceAlpha"/>
      <feGaussianBlur stdDeviation="3" result="blur"/>
      <feFlood flood-opacity="0.161"/>
      <feComposite operator="in" in2="blur"/>
      <feComposite in="SourceGraphic"/>
    </filter>
  </defs>
  <g id="Grupo_1181989" data-name="Grupo 1181989" transform="translate(-537.052 -1713.413)">
    <g id="Grupo_1112444" data-name="Grupo 1112444" transform="translate(-262.449 -797.744)">
      <g id="Grupo_1111316" data-name="Grupo 1111316" transform="translate(808.5 2517.157)">
        <g id="Grupo_1109835" data-name="Grupo 1109835" transform="translate(0 0)">
          <g id="Grupo_1107913" data-name="Grupo 1107913" transform="translate(0 0)">
            <g transform="matrix(1, 0, 0, 1, -9, -6)" filter="url(#Trazado_874925)">
              <g id="Trazado_874925-2" data-name="Trazado 874925" transform="translate(9 6)" fill="#9ad354" opacity="0.859">
                <path d="M 42.47446823120117 83.44929504394531 C 36.94229125976562 83.44929504394531 31.57638549804688 82.36614227294922 26.52582168579102 80.22994232177734 C 21.64678573608398 78.16628265380859 17.26464462280273 75.211669921875 13.50113868713379 71.44816589355469 C 9.737632751464844 67.68466949462891 6.78300952911377 63.30253982543945 4.719362258911133 58.42351913452148 C 2.583150625228882 53.37295150756836 1.499997615814209 48.00706100463867 1.499997615814209 42.47489547729492 C 1.499997615814209 36.94223403930664 2.583150625228882 31.57634162902832 4.719362258911133 26.52577781677246 C 6.78300952911377 21.64675331115723 9.737632751464844 17.26462364196777 13.50113868713379 13.50113010406494 C 17.26464462280273 9.737624168395996 21.64678573608398 6.783012390136719 26.52582168579102 4.719353199005127 C 31.57638549804688 2.583153486251831 36.94229125976562 1.500000476837158 42.47446823120117 1.500000476837158 C 48.00664520263672 1.500000476837158 53.37255096435547 2.583153486251831 58.42311477661133 4.719353199005127 C 63.30215072631836 6.783012390136719 67.68428802490234 9.737624168395996 71.44779968261719 13.50113010406494 C 75.2113037109375 17.26462364196777 78.16592407226562 21.64675331115723 80.22957611083984 26.52577781677246 C 82.36578369140625 31.57634162902832 83.44893646240234 36.94223403930664 83.44893646240234 42.47439956665039 C 83.44893646240234 48.00706100463867 82.36578369140625 53.37295150756836 80.22957611083984 58.42351913452148 C 78.16592407226562 63.30253982543945 75.2113037109375 67.68466949462891 71.44779968261719 71.44816589355469 C 67.68428802490234 75.211669921875 63.30215072631836 78.16628265380859 58.42311477661133 80.22994232177734 C 53.37255096435547 82.36614227294922 48.00664520263672 83.44929504394531 42.47446823120117 83.44929504394531 Z" stroke="none"/>
                <path d="M 42.47446823120117 2.999992370605469 C 37.14412307739258 2.999992370605469 31.97481536865234 4.04327392578125 27.11014938354492 6.100860595703125 C 22.40990829467773 8.088890075683594 18.18804168701172 10.93555450439453 14.56179809570312 14.56178283691406 C 10.93557739257812 18.18801116943359 8.088897705078125 22.40987396240234 6.100868225097656 27.11009979248047 C 4.043281555175781 31.97476577758789 3 37.14406204223633 3 42.47488784790039 C 3 47.80522155761719 4.043281555175781 52.97451400756836 6.100868225097656 57.83917999267578 C 8.088897705078125 62.53940582275391 10.93557739257812 66.76127624511719 14.56179809570312 70.38749694824219 C 18.18804168701172 74.01372528076172 22.40990829467773 76.86039733886719 27.11014938354492 78.84841918945312 C 31.97481536865234 80.906005859375 37.14412307739258 81.94928741455078 42.47446823120117 81.94928741455078 C 47.80481338500977 81.94928741455078 52.97412109375 80.906005859375 57.83879089355469 78.84841918945312 C 62.53902816772461 76.86039733886719 66.76089477539062 74.01372528076172 70.38713073730469 70.38749694824219 C 74.01335906982422 66.76127624511719 76.86003875732422 62.53940582275391 78.84806823730469 57.83917999267578 C 80.90565490722656 52.97451400756836 81.94893646240234 47.80522155761719 81.94893646240234 42.47439575195312 C 81.94893646240234 37.14406204223633 80.90565490722656 31.97476577758789 78.84806823730469 27.11009979248047 C 76.86003875732422 22.40987396240234 74.01335906982422 18.18801116943359 70.38713073730469 14.56178283691406 C 66.76089477539062 10.93555450439453 62.53902816772461 8.088890075683594 57.83879089355469 6.100860595703125 C 52.97412109375 4.04327392578125 47.80481338500977 2.999992370605469 42.47446823120117 2.999992370605469 M 42.47446823120117 -7.62939453125e-06 C 65.93246459960938 -7.62939453125e-06 84.94893646240234 19.01643371582031 84.94893646240234 42.47439575195312 L 84.94893646240234 42.47488784790039 C 84.94893646240234 65.93284606933594 65.93246459960938 84.94928741455078 42.47446823120117 84.94928741455078 C 19.01647186279297 84.94928741455078 0 65.93284606933594 0 42.47488784790039 L 0 42.47439575195312 C 0 19.01643371582031 19.01647186279297 -7.62939453125e-06 42.47446823120117 -7.62939453125e-06 Z" stroke="none" fill="#fff"/>
              </g>
            </g>
            <g id="Trazado_874923" data-name="Trazado 874923" transform="translate(0 0)" fill="none">
              <path d="M42.474,0A42.474,42.474,0,0,1,84.949,42.474h0A42.474,42.474,0,0,1,0,42.475H0A42.474,42.474,0,0,1,42.474,0Z" stroke="none"/>
              <path d="M 42.47446823120117 2.999992370605469 C 37.14412307739258 2.999992370605469 31.97481536865234 4.04327392578125 27.11014938354492 6.100860595703125 C 22.40990829467773 8.088890075683594 18.18804168701172 10.93555450439453 14.56179809570312 14.56178283691406 C 10.93557739257812 18.18801116943359 8.088897705078125 22.40987396240234 6.100868225097656 27.11009979248047 C 4.043281555175781 31.97476577758789 3 37.14406204223633 3 42.47488784790039 C 3 47.80522155761719 4.043281555175781 52.97451400756836 6.100868225097656 57.83917999267578 C 8.088897705078125 62.53940582275391 10.93557739257812 66.76127624511719 14.56179809570312 70.38749694824219 C 18.18804168701172 74.01372528076172 22.40990829467773 76.86039733886719 27.11014938354492 78.84841918945312 C 31.97481536865234 80.906005859375 37.14412307739258 81.94928741455078 42.47446823120117 81.94928741455078 C 47.80481338500977 81.94928741455078 52.97412109375 80.906005859375 57.83879089355469 78.84841918945312 C 62.53902816772461 76.86039733886719 66.76089477539062 74.01372528076172 70.38713073730469 70.38749694824219 C 74.01335906982422 66.76127624511719 76.86003875732422 62.53940582275391 78.84806823730469 57.83917999267578 C 80.90565490722656 52.97451400756836 81.94893646240234 47.80522155761719 81.94893646240234 42.47439575195312 C 81.94893646240234 37.14406204223633 80.90565490722656 31.97476577758789 78.84806823730469 27.11009979248047 C 76.86003875732422 22.40987396240234 74.01335906982422 18.18801116943359 70.38713073730469 14.56178283691406 C 66.76089477539062 10.93555450439453 62.53902816772461 8.088890075683594 57.83879089355469 6.100860595703125 C 52.97412109375 4.04327392578125 47.80481338500977 2.999992370605469 42.47446823120117 2.999992370605469 M 42.47446823120117 -7.62939453125e-06 C 65.93246459960938 -7.62939453125e-06 84.94893646240234 19.01643371582031 84.94893646240234 42.47439575195312 L 84.94893646240234 42.47488784790039 C 84.94893646240234 65.93284606933594 65.93246459960938 84.94928741455078 42.47446823120117 84.94928741455078 C 19.01647186279297 84.94928741455078 0 65.93284606933594 0 42.47488784790039 L 0 42.47439575195312 C 0 19.01643371582031 19.01647186279297 -7.62939453125e-06 42.47446823120117 -7.62939453125e-06 Z" stroke="none" fill="#fff"/>
            </g>
          </g>
        </g>
      </g>
    </g>
    <g id="herramientas-agricolas" transform="translate(551.812 1736.413)">
      <g id="Grupo_1181987" data-name="Grupo 1181987" transform="translate(17.937 0.699)">
        <path id="Trazado_909882" data-name="Trazado 909882" d="M22.029,1.753V7.441A4.475,4.475,0,0,0,26.5,11.916H33.5a4.475,4.475,0,0,0,4.475-4.475V1.753ZM34.988,7.441A1.493,1.493,0,0,1,33.5,8.933H26.5a1.493,1.493,0,0,1-1.492-1.492v-2.7h9.976Z" transform="translate(-20.817 -1.753)" fill="#ffe671"/>
        <path id="Trazado_909883" data-name="Trazado 909883" d="M39.349,51.892H39.2a1.745,1.745,0,0,1-1.745-1.745V27.241h3.636V50.147a1.745,1.745,0,0,1-1.745,1.745Z" transform="translate(-30.094 -17.077)" fill="#bc8871"/>
        <path id="Trazado_909884" data-name="Trazado 909884" d="M29.99,75.969v3.4a1.816,1.816,0,0,1-1.816,1.816h0a1.816,1.816,0,0,1-1.816-1.816v-3.4H18.989v6.4a14.729,14.729,0,0,0,9.183,13.645h0a14.729,14.729,0,0,0,9.183-13.645v-6.4Z" transform="translate(-18.989 -46.375)" fill="#edf1d3"/>
        <path id="Trazado_909885" data-name="Trazado 909885" d="M34.75,109.11a.693.693,0,0,1-.35-.095,11.648,11.648,0,0,1-4.386-4.509.7.7,0,0,1,1.226-.666,10.255,10.255,0,0,0,3.861,3.969.7.7,0,0,1-.351,1.3Z" transform="translate(-25.567 -62.914)" fill="#d0daad"/>
        <path id="Trazado_909886" data-name="Trazado 909886" d="M87.424,112.485v-5.108a4.019,4.019,0,0,0-4.019-4.019H77.127a4.019,4.019,0,0,0-4.019,4.019v5.108Zm-11.637-5.108a1.341,1.341,0,0,1,1.339-1.339h6.279a1.341,1.341,0,0,1,1.339,1.339v2.429H75.787Z" transform="translate(-51.528 -62.844)" fill="#ffe671"/>
        <path id="Trazado_909887" data-name="Trazado 909887" d="M88.534,29.746h.131a1.567,1.567,0,0,1,1.567,1.567V59.1H86.965V31.313A1.567,1.567,0,0,1,88.534,29.746Z" transform="translate(-59.86 -18.584)" fill="#bc8871"/>
        <path id="Trazado_909888" data-name="Trazado 909888" d="M77.347,17.524l1.622.837v-3.88a1.567,1.567,0,0,1,1.567-1.567h.131a1.567,1.567,0,0,1,1.567,1.567v3.881l1.623-.837a6.8,6.8,0,0,0,3.68-6.043v-8.6a1.112,1.112,0,0,0-.969-1.124,1.073,1.073,0,0,0-1.174.976l-.313,6.52a1.572,1.572,0,0,1-1.57,1.5h0A1.572,1.572,0,0,1,81.94,9.2l-.1-6.408a1.073,1.073,0,0,0-1.073-1.042h-.331a1.073,1.073,0,0,0-1.073,1.042l-.1,6.408a1.572,1.572,0,0,1-1.572,1.547h0a1.572,1.572,0,0,1-1.57-1.5l-.307-6.475a1.105,1.105,0,0,0-.9-1.011,1.073,1.073,0,0,0-1.25,1.059v8.655a6.8,6.8,0,0,0,3.682,6.043Z" transform="translate(-51.863 -1.752)" fill="#edf1d3"/>
      </g>
      <g id="Grupo_1181988" data-name="Grupo 1181988" transform="translate(17.239 0)">
        <path id="Trazado_909889" data-name="Trazado 909889" d="M39.132,10.888V8.183a.7.7,0,0,0-.7-.7H28.459a.7.7,0,0,0-.7.7v2.705a2.193,2.193,0,0,0,2.19,2.189h6.992a2.193,2.193,0,0,0,2.19-2.189Zm-9.976,0V8.881h8.58v2.007a.8.8,0,0,1-.794.793H29.951A.8.8,0,0,1,29.157,10.888Z" transform="translate(-23.565 -4.5)"/>
        <path id="Trazado_909890" data-name="Trazado 909890" d="M45.527,46.5a.7.7,0,0,0-.7.7v3.784a.7.7,0,0,0,1.4,0V47.2A.7.7,0,0,0,45.527,46.5Z" transform="translate(-33.828 -27.958)"/>
        <path id="Trazado_909891" data-name="Trazado 909891" d="M36.3,29.594H29.636V28.008a.7.7,0,1,0-1.4,0V33.7a1.12,1.12,0,1,1-2.24,0V11.56h2.24v2.7a.7.7,0,1,0,1.4,0v-2.7h.981A5.179,5.179,0,0,0,35.79,6.387V.7a.7.7,0,0,0-.7-.7H19.149a.7.7,0,0,0-.7.7v5.69a5.178,5.178,0,0,0,5.173,5.173H24.6V29.594H17.937a.7.7,0,0,0-.7.7v6.4a15.366,15.366,0,0,0,9.619,14.291.7.7,0,0,0,.526,0A15.366,15.366,0,0,0,37,36.7v-6.4a.7.7,0,0,0-.7-.7ZM19.847,6.387V1.4H34.394V6.387a3.782,3.782,0,0,1-3.778,3.777H23.624a3.781,3.781,0,0,1-3.777-3.777ZM35.605,36.7A13.975,13.975,0,0,1,27.12,49.584,13.975,13.975,0,0,1,18.635,36.7V30.99H24.6v2.778a2.445,2.445,0,0,0,2.443,2.443h.144a2.445,2.445,0,0,0,2.443-2.443V30.99h5.97Z" transform="translate(-17.239 0)"/>
        <path id="Trazado_909892" data-name="Trazado 909892" d="M35.1,107.809a10.255,10.255,0,0,1-3.861-3.969.7.7,0,1,0-1.226.666,11.648,11.648,0,0,0,4.386,4.509.7.7,0,0,0,.7-1.207Z" transform="translate(-24.87 -62.215)"/>
        <path id="Trazado_909893" data-name="Trazado 909893" d="M82.353,40.516h-.811V17.734l1.245-.644a7.447,7.447,0,0,0,2.335-1.88.7.7,0,1,0-1.077-.89,6.067,6.067,0,0,1-1.9,1.53l-.6.312V13.428a2.267,2.267,0,0,0-2.262-2.263H79.15a2.267,2.267,0,0,0-2.265,2.265v2.735l-.606-.314a6.083,6.083,0,0,1-3.3-5.423V1.772a.376.376,0,0,1,.132-.286.371.371,0,0,1,.31-.084.4.4,0,0,1,.309.355l.308,6.475a2.27,2.27,0,0,0,4.537-.072l.1-6.4a.373.373,0,0,1,.375-.364h.331a.372.372,0,0,1,.375.355l.1,6.408a2.27,2.27,0,0,0,4.537.072l.31-6.493a.375.375,0,0,1,.412-.341.417.417,0,0,1,.337.429V9.006a.7.7,0,0,0,1.4,0V1.828a1.816,1.816,0,0,0-1.6-1.819A1.771,1.771,0,0,0,83.31,1.646L83,8.166a.874.874,0,0,1-1.747-.028l-.1-6.417A1.762,1.762,0,0,0,79.379,0h-.331a1.764,1.764,0,0,0-1.77,1.729l-.1,6.409a.874.874,0,0,1-1.747.028l-.31-6.5a1.771,1.771,0,0,0-3.539.108v8.655a7.472,7.472,0,0,0,4.058,6.663l1.245.644V40.516h-.809a4.722,4.722,0,0,0-4.716,4.716V50.34a.7.7,0,0,0,.7.7H86.371a.7.7,0,0,0,.7-.7V45.232A4.722,4.722,0,0,0,82.353,40.516ZM78.279,17.309V13.428a.87.87,0,0,1,.871-.868h.131a.87.87,0,0,1,.869.869V40.518H78.279Zm7.4,32.335H72.755v-4.41a3.324,3.324,0,0,1,3.32-3.321h6.278a3.325,3.325,0,0,1,3.321,3.321Z" transform="translate(-49.778 0)"/>
        <path id="Trazado_909894" data-name="Trazado 909894" d="M86.393,108.328H80.113a2.04,2.04,0,0,0-2.037,2.037v2.429a.7.7,0,0,0,.7.7h8.958a.7.7,0,0,0,.7-.7v-2.429A2.04,2.04,0,0,0,86.393,108.328Zm.642,3.768H79.472v-1.731a.642.642,0,0,1,.642-.642h6.279a.642.642,0,0,1,.642.642Z" transform="translate(-53.818 -65.133)"/>
      </g>
    </g>
  </g>
</svg>
