<svg xmlns="http://www.w3.org/2000/svg" xmlns:xlink="http://www.w3.org/1999/xlink" width="102.949" height="102.949" viewBox="0 0 102.949 102.949">
  <defs>
    <filter id="Trazado_874925" x="0" y="0" width="102.949" height="102.949" filterUnits="userSpaceOnUse">
      <feOffset dy="3" input="SourceAlpha"/>
      <feGaussianBlur stdDeviation="3" result="blur"/>
      <feFlood flood-opacity="0.161"/>
      <feComposite operator="in" in2="blur"/>
      <feComposite in="SourceGraphic"/>
    </filter>
  </defs>
  <g id="Grupo_1181973" data-name="Grupo 1181973" transform="translate(-591.051 -1214.358)">
    <g id="Grupo_1112444" data-name="Grupo 1112444" transform="translate(-208.449 -1296.799)">
      <g id="Grupo_1111316" data-name="Grupo 1111316" transform="translate(808.5 2517.157)">
        <g id="Grupo_1109835" data-name="Grupo 1109835" transform="translate(0 0)">
          <g id="Grupo_1107913" data-name="Grupo 1107913" transform="translate(0 0)">
            <g transform="matrix(1, 0, 0, 1, -9, -6)" filter="url(#Trazado_874925)">
              <g id="Trazado_874925-2" data-name="Trazado 874925" transform="translate(9 6)" fill="#4c6929" opacity="0.859">
                <path d="M 42.47446823120117 83.44929504394531 C 36.94229125976562 83.44929504394531 31.57638549804688 82.36614227294922 26.52582168579102 80.22994232177734 C 21.64678573608398 78.16628265380859 17.26464462280273 75.211669921875 13.50113868713379 71.44816589355469 C 9.737632751464844 67.68466949462891 6.78300952911377 63.30253982543945 4.719362258911133 58.42351913452148 C 2.583150625228882 53.37295150756836 1.499997615814209 48.00706100463867 1.499997615814209 42.47489547729492 C 1.499997615814209 36.94223403930664 2.583150625228882 31.57634162902832 4.719362258911133 26.52577781677246 C 6.78300952911377 21.64675331115723 9.737632751464844 17.26462364196777 13.50113868713379 13.50113010406494 C 17.26464462280273 9.737624168395996 21.64678573608398 6.783012390136719 26.52582168579102 4.719353199005127 C 31.57638549804688 2.583153486251831 36.94229125976562 1.500000476837158 42.47446823120117 1.500000476837158 C 48.00664520263672 1.500000476837158 53.37255096435547 2.583153486251831 58.42311477661133 4.719353199005127 C 63.30215072631836 6.783012390136719 67.68428802490234 9.737624168395996 71.44779968261719 13.50113010406494 C 75.2113037109375 17.26462364196777 78.16592407226562 21.64675331115723 80.22957611083984 26.52577781677246 C 82.36578369140625 31.57634162902832 83.44893646240234 36.94223403930664 83.44893646240234 42.47439956665039 C 83.44893646240234 48.00706100463867 82.36578369140625 53.37295150756836 80.22957611083984 58.42351913452148 C 78.16592407226562 63.30253982543945 75.2113037109375 67.68466949462891 71.44779968261719 71.44816589355469 C 67.68428802490234 75.211669921875 63.30215072631836 78.16628265380859 58.42311477661133 80.22994232177734 C 53.37255096435547 82.36614227294922 48.00664520263672 83.44929504394531 42.47446823120117 83.44929504394531 Z" stroke="none"/>
                <path d="M 42.47446823120117 2.999992370605469 C 37.14412307739258 2.999992370605469 31.97481536865234 4.04327392578125 27.11014938354492 6.100860595703125 C 22.40990829467773 8.088890075683594 18.18804168701172 10.93555450439453 14.56179809570312 14.56178283691406 C 10.93557739257812 18.18801116943359 8.088897705078125 22.40987396240234 6.100868225097656 27.11009979248047 C 4.043281555175781 31.97476577758789 3 37.14406204223633 3 42.47488784790039 C 3 47.80522155761719 4.043281555175781 52.97451400756836 6.100868225097656 57.83917999267578 C 8.088897705078125 62.53940582275391 10.93557739257812 66.76127624511719 14.56179809570312 70.38749694824219 C 18.18804168701172 74.01372528076172 22.40990829467773 76.86039733886719 27.11014938354492 78.84841918945312 C 31.97481536865234 80.906005859375 37.14412307739258 81.94928741455078 42.47446823120117 81.94928741455078 C 47.80481338500977 81.94928741455078 52.97412109375 80.906005859375 57.83879089355469 78.84841918945312 C 62.53902816772461 76.86039733886719 66.76089477539062 74.01372528076172 70.38713073730469 70.38749694824219 C 74.01335906982422 66.76127624511719 76.86003875732422 62.53940582275391 78.84806823730469 57.83917999267578 C 80.90565490722656 52.97451400756836 81.94893646240234 47.80522155761719 81.94893646240234 42.47439575195312 C 81.94893646240234 37.14406204223633 80.90565490722656 31.97476577758789 78.84806823730469 27.11009979248047 C 76.86003875732422 22.40987396240234 74.01335906982422 18.18801116943359 70.38713073730469 14.56178283691406 C 66.76089477539062 10.93555450439453 62.53902816772461 8.088890075683594 57.83879089355469 6.100860595703125 C 52.97412109375 4.04327392578125 47.80481338500977 2.999992370605469 42.47446823120117 2.999992370605469 M 42.47446823120117 -7.62939453125e-06 C 65.93246459960938 -7.62939453125e-06 84.94893646240234 19.01643371582031 84.94893646240234 42.47439575195312 L 84.94893646240234 42.47488784790039 C 84.94893646240234 65.93284606933594 65.93246459960938 84.94928741455078 42.47446823120117 84.94928741455078 C 19.01647186279297 84.94928741455078 0 65.93284606933594 0 42.47488784790039 L 0 42.47439575195312 C 0 19.01643371582031 19.01647186279297 -7.62939453125e-06 42.47446823120117 -7.62939453125e-06 Z" stroke="none" fill="#fff"/>
              </g>
            </g>
            <g id="Trazado_874923" data-name="Trazado 874923" transform="translate(0 0)" fill="none">
              <path d="M42.474,0A42.474,42.474,0,0,1,84.949,42.474h0A42.474,42.474,0,0,1,0,42.475H0A42.474,42.474,0,0,1,42.474,0Z" stroke="none"/>
              <path d="M 42.47446823120117 2.999992370605469 C 37.14412307739258 2.999992370605469 31.97481536865234 4.04327392578125 27.11014938354492 6.100860595703125 C 22.40990829467773 8.088890075683594 18.18804168701172 10.93555450439453 14.56179809570312 14.56178283691406 C 10.93557739257812 18.18801116943359 8.088897705078125 22.40987396240234 6.100868225097656 27.11009979248047 C 4.043281555175781 31.97476577758789 3 37.14406204223633 3 42.47488784790039 C 3 47.80522155761719 4.043281555175781 52.97451400756836 6.100868225097656 57.83917999267578 C 8.088897705078125 62.53940582275391 10.93557739257812 66.76127624511719 14.56179809570312 70.38749694824219 C 18.18804168701172 74.01372528076172 22.40990829467773 76.86039733886719 27.11014938354492 78.84841918945312 C 31.97481536865234 80.906005859375 37.14412307739258 81.94928741455078 42.47446823120117 81.94928741455078 C 47.80481338500977 81.94928741455078 52.97412109375 80.906005859375 57.83879089355469 78.84841918945312 C 62.53902816772461 76.86039733886719 66.76089477539062 74.01372528076172 70.38713073730469 70.38749694824219 C 74.01335906982422 66.76127624511719 76.86003875732422 62.53940582275391 78.84806823730469 57.83917999267578 C 80.90565490722656 52.97451400756836 81.94893646240234 47.80522155761719 81.94893646240234 42.47439575195312 C 81.94893646240234 37.14406204223633 80.90565490722656 31.97476577758789 78.84806823730469 27.11009979248047 C 76.86003875732422 22.40987396240234 74.01335906982422 18.18801116943359 70.38713073730469 14.56178283691406 C 66.76089477539062 10.93555450439453 62.53902816772461 8.088890075683594 57.83879089355469 6.100860595703125 C 52.97412109375 4.04327392578125 47.80481338500977 2.999992370605469 42.47446823120117 2.999992370605469 M 42.47446823120117 -7.62939453125e-06 C 65.93246459960938 -7.62939453125e-06 84.94893646240234 19.01643371582031 84.94893646240234 42.47439575195312 L 84.94893646240234 42.47488784790039 C 84.94893646240234 65.93284606933594 65.93246459960938 84.94928741455078 42.47446823120117 84.94928741455078 C 19.01647186279297 84.94928741455078 0 65.93284606933594 0 42.47488784790039 L 0 42.47439575195312 C 0 19.01643371582031 19.01647186279297 -7.62939453125e-06 42.47446823120117 -7.62939453125e-06 Z" stroke="none" fill="#fff"/>
            </g>
          </g>
        </g>
      </g>
    </g>
    <g id="verduras" transform="translate(614.525 1225.546)">
      <g id="Grupo_1181969" data-name="Grupo 1181969" transform="translate(0.969 11.403)">
        <g id="Grupo_1181968" data-name="Grupo 1181968" transform="translate(0 0)">
          <g id="Grupo_1181967" data-name="Grupo 1181967">
            <path id="Trazado_909805" data-name="Trazado 909805" d="M390.26,19.128a6.508,6.508,0,0,0-6.508,6.508h3.225a3.254,3.254,0,0,1,3.254-3.254h.069V19.128h-.04Z" transform="translate(-342.787 -19.128)" fill="#f0b582"/>
            <path id="Trazado_909806" data-name="Trazado 909806" d="M384.755,46.864a6.56,6.56,0,0,1,.071-.96,6.477,6.477,0,0,0-1.076,3.583h3.225l1-2.623Z" transform="translate(-342.786 -42.978)" fill="#d69660"/>
            <path id="Trazado_909807" data-name="Trazado 909807" d="M416.66,79.426c1.5,1.058,2.989,6.081,2.989,6.081h-7.173l1.106-6.477A3.326,3.326,0,0,1,416.66,79.426Z" transform="translate(-368.372 -72.297)" fill="#39c17b"/>
            <path id="Trazado_909808" data-name="Trazado 909808" d="M321.061,79.426c-1.5,1.058-2.989,6.081-2.989,6.081h7.173l-1.106-6.477A3.326,3.326,0,0,0,321.061,79.426Z" transform="translate(-284.284 -72.297)" fill="#39c17b"/>
            <path id="Trazado_909809" data-name="Trazado 909809" d="M33.474,270.244a9.02,9.02,0,0,0-6.677-8.71H15.549a9.018,9.018,0,0,0,2.339,17.726h7.919l-.006-.1a9.018,9.018,0,0,0,7.672-8.916Z" transform="translate(-8.872 -235.045)" fill="#d15573"/>
            <path id="Trazado_909810" data-name="Trazado 909810" d="M31.72,287.544a8.971,8.971,0,0,1-4.023,1.672l.006.1H19.783a9.015,9.015,0,0,1-7.263-14.356,9.016,9.016,0,0,0,5.368,16.259h7.919l-.006-.1A9.012,9.012,0,0,0,31.72,287.544Z" transform="translate(-8.872 -247.003)" fill="#c21d44"/>
            <path id="Trazado_909811" data-name="Trazado 909811" d="M63.3,114.135a6.546,6.546,0,0,0,.248,5.728,2.46,2.46,0,0,1,1.81.573h0a2.448,2.448,0,0,1,1.578-.574,4.8,4.8,0,0,1,1.7.574,2.46,2.46,0,0,1,3.076-.086,7.118,7.118,0,0,1,.959,1.158,6.528,6.528,0,0,1,1.368-3.266,6.553,6.553,0,0,1-.838-6.763,5.887,5.887,0,0,0-3.132-1.245,4.917,4.917,0,1,0-6.766,3.9Z" transform="translate(-54.683 -95.318)" fill="#8edf78"/>
            <path id="Trazado_909812" data-name="Trazado 909812" d="M72.723,118.977a7.112,7.112,0,0,0-.959-1.158,2.46,2.46,0,0,0-3.076.086,2.734,2.734,0,0,0-3.275,0h0a2.415,2.415,0,0,0-.207-.157,6.568,6.568,0,0,1,.484-3.47c-4.5-1.724-3.675-8.727,1.089-9.411-5.927-1.963-9.132,6.731-3.424,9.192a6.559,6.559,0,0,0,.248,5.728,2.46,2.46,0,0,1,1.81.573h0a2.566,2.566,0,0,1,.571-.356,3.038,3.038,0,0,1,2.7.356,2.46,2.46,0,0,1,3.076-.086,7.118,7.118,0,0,1,.959,1.158v-2.455Z" transform="translate(-54.738 -95.244)" fill="#39c17b"/>
            <path id="Trazado_909813" data-name="Trazado 909813" d="M123.139,356.231c-3.278,0-30.057,5.588-31.143,5.737v3.278c.9.121,13.628,2.776,22.633,4.415l5.124.9a28.812,28.812,0,0,0,3.387.418C132.867,370.736,132.867,356.477,123.139,356.231Z" transform="translate(-82.913 -319.394)" fill="#e8ab4c"/>
            <path id="Trazado_909814" data-name="Trazado 909814" d="M125.371,412.081a28.814,28.814,0,0,1-3.387-.418l-5.124-.9c-9-1.639-21.73-4.293-22.633-4.415v-1.562c-1.252.25-2.06.408-2.231.432v3.278c.9.121,13.628,2.776,22.633,4.415l5.124.9a28.812,28.812,0,0,0,3.387.418,7.157,7.157,0,0,0,6.091-3.191A7.87,7.87,0,0,1,125.371,412.081Z" transform="translate(-82.913 -362.639)" fill="#e1763a"/>
            <path id="Trazado_909815" data-name="Trazado 909815" d="M431.431,437.776a7.413,7.413,0,0,1-1.345,3.06L433.9,443.5l1.88-2.685Z" transform="translate(-384.057 -392.028)" fill="#8edf78"/>
            <path id="Trazado_909816" data-name="Trazado 909816" d="M431.942,442.092a7.4,7.4,0,0,0,1.337-3.022l-1.847-1.293a7.413,7.413,0,0,1-1.345,3.06Z" transform="translate(-384.057 -392.028)" fill="#39c17b"/>
            <path id="Trazado_909817" data-name="Trazado 909817" d="M442.213,408.731a8.074,8.074,0,0,1,0,3.278h6.752v-3.278Z" transform="translate(-394.859 -366.157)" fill="#8edf78"/>
            <path id="Trazado_909818" data-name="Trazado 909818" d="M444.473,408.731h-2.26a8.074,8.074,0,0,1,0,3.278h2.26A8.075,8.075,0,0,0,444.473,408.731Z" transform="translate(-394.859 -366.157)" fill="#39c17b"/>
            <path id="Trazado_909819" data-name="Trazado 909819" d="M432.726,365.845l4.3-3.008-1.88-2.685-3.659,2.562A7.5,7.5,0,0,1,432.726,365.845Z" transform="translate(-385.303 -322.885)" fill="#8edf78"/>
            <path id="Trazado_909820" data-name="Trazado 909820" d="M433.382,372.174l-1.9,1.248a7.5,7.5,0,0,1,1.242,3.132l1.886-1.321A7.486,7.486,0,0,0,433.382,372.174Z" transform="translate(-385.302 -333.595)" fill="#39c17b"/>
            <path id="Trazado_909821" data-name="Trazado 909821" d="M187.142,162.853a7.819,7.819,0,0,1,3.961,1.106h0c4.684-7.062,5.785-16.246,5.763-23.962v-.867l-14.752.092V140c.173,7.344-3.484,15.782-11.1,17.481-3.936.99-6.513,3.742-6.967,7.486l-.194,2.068c8.5-1.7,21.108-4.179,23.291-4.179Z" transform="translate(-146.916 -126.016)" fill="#a070ce"/>
            <g id="Grupo_1181963" data-name="Grupo 1181963" transform="translate(16.935 13.206)">
              <path id="Trazado_909822" data-name="Trazado 909822" d="M187.58,161.184c-1.987,0-12.608,2.053-20.909,3.7.792-2.75,2.883-3.968,6.3-4.826,8.254-1.767,12.108-12.6,11.83-20.083l-2.681,0c.356,7.558-3.182,16.484-11.1,18.256a8.84,8.84,0,0,0-6.6,5.8,9.347,9.347,0,0,0-.369,1.688l-.194,2.068c8.5-1.7,21.108-4.179,23.291-4.179a7.819,7.819,0,0,1,3.961,1.106h0l1-2.094A10.262,10.262,0,0,0,187.58,161.184Z" transform="translate(-163.851 -139.975)" fill="#8040be"/>
              <path id="Trazado_909823" data-name="Trazado 909823" d="M408.682,363.807c.172.087.338.179.5.278h0c.039-.059.076-.12.115-.18C409.1,363.866,408.893,363.833,408.682,363.807Z" transform="translate(-381.928 -339.348)" fill="#8040be"/>
            </g>
            <path id="Trazado_909824" data-name="Trazado 909824" d="M173,84.291a6.526,6.526,0,0,0,1.417,4.069,6.528,6.528,0,0,0-1.368,3.266l.346.421a9.038,9.038,0,0,1,5.493,4.926,12.8,12.8,0,0,0,6.973-4.085l.253-.459A6.526,6.526,0,0,0,184.7,88.36a6.622,6.622,0,0,0-1.234-9.335,4.917,4.917,0,1,0-7.81,0A6.547,6.547,0,0,0,173,84.291Z" transform="translate(-155.068 -65.438)" fill="#8edf78"/>
            <path id="Trazado_909825" data-name="Trazado 909825" d="M185.15,88.43a6.561,6.561,0,0,1,.163,1.452l-.253.459a12.834,12.834,0,0,1-5.3,3.607,9.051,9.051,0,0,0-3.9-3.883,6.554,6.554,0,0,1,1.076-1.981,6.622,6.622,0,0,1,1.234-9.335,4.974,4.974,0,0,1,2.744-7.784c-4.383-1.141-7.907,4.273-5.067,7.784a6.622,6.622,0,0,0-1.234,9.335,6.548,6.548,0,0,0-1.368,3.266l.346.42a9.038,9.038,0,0,1,5.493,4.926,12.839,12.839,0,0,0,6.973-4.085l.253-.459a6.521,6.521,0,0,0-1.163-3.723Z" transform="translate(-155.265 -65.162)" fill="#39c17b"/>
            <path id="Trazado_909826" data-name="Trazado 909826" d="M384.124,410.37v-1.639" transform="translate(-343.118 -366.157)" fill="none" stroke="#fff" stroke-miterlimit="10" stroke-width="15"/>
            <g id="Grupo_1181965" data-name="Grupo 1181965" transform="translate(37.101 18.495)">
              <g id="Grupo_1181964" data-name="Grupo 1181964">
                <path id="Trazado_909827" data-name="Trazado 909827" d="M357.435,188.38c-.065.536-.16,1.089-.272,1.616" transform="translate(-356.204 -188.38)" fill="none" stroke="#fff" stroke-miterlimit="10" stroke-width="15"/>
                <path id="Trazado_909828" data-name="Trazado 909828" d="M348.935,217.68c-.157.517-.345,1.045-.547,1.545" transform="translate(-348.388 -214.478)" fill="none" stroke="#fff" stroke-miterlimit="10" stroke-width="15"/>
              </g>
            </g>
            <path id="Trazado_909829" data-name="Trazado 909829" d="M374.012,77.33c0,1.814-3.285,5.912-3.285,5.912s-3.284-4.1-3.284-5.912a3.285,3.285,0,1,1,6.569,0Z" transform="translate(-328.26 -68.044)" fill="#8edf78"/>
            <g id="Grupo_1181966" data-name="Grupo 1181966" transform="translate(5.815 6.183)">
              <path id="Trazado_909830" data-name="Trazado 909830" d="M369.214,77.342a3.269,3.269,0,0,1,.434-1.631,3.285,3.285,0,0,0-2.206,3.1c0,1.814,3.285,5.912,3.285,5.912s.676-.843,1.414-1.934C371.29,81.67,369.214,78.785,369.214,77.342Z" transform="translate(-334.074 -75.711)" fill="#39c17b"/>
              <path id="Trazado_909831" data-name="Trazado 909831" d="M66.946,244.213a2.46,2.46,0,0,0-3.076-.086c-1.083.82-1.783,4.434-1.783,4.434h5.14Z" transform="translate(-62.086 -225.279)" fill="#39c17b"/>
              <path id="Trazado_909832" data-name="Trazado 909832" d="M134.242,244.213a2.46,2.46,0,0,1,3.076-.086c1.083.82,1.783,4.434,1.783,4.434h-5.14Z" transform="translate(-126.108 -225.279)" fill="#39c17b"/>
            </g>
            <path id="Trazado_909833" data-name="Trazado 909833" d="M103.417,246.19c0,1.358-2.459,4.1-2.459,4.1s-2.459-2.74-2.459-4.1a2.459,2.459,0,1,1,4.917,0Z" transform="translate(-88.706 -219.187)" fill="#8edf78"/>
            <path id="Trazado_909834" data-name="Trazado 909834" d="M100.431,245.022a2.447,2.447,0,0,1,.313-1.2,2.459,2.459,0,0,0-2.245,2.449c0,1.358,2.459,4.1,2.459,4.1a20.238,20.238,0,0,0,1.436-1.834C101.675,247.654,100.431,245.989,100.431,245.022Z" transform="translate(-88.705 -219.268)" fill="#39c17b"/>
            <path id="Trazado_909835" data-name="Trazado 909835" d="M46,311.23v1.639" transform="translate(-41.943 -279.31)" fill="none" stroke="#fff" stroke-miterlimit="10" stroke-width="15"/>
          </g>
        </g>
      </g>
      <g id="Grupo_1181970" data-name="Grupo 1181970" transform="translate(0 10.455)">
        <path id="Trazado_909836" data-name="Trazado 909836" d="M0,0H1.645V1.676H0Z" transform="translate(34.247 52.432) rotate(-80.038)"/>
        <path id="Trazado_909837" data-name="Trazado 909837" d="M55.949,53.216H51.581l2.3-1.608-2.831-4.043-3.707,2.6-.035-.042a7.581,7.581,0,0,0-.981-.926c3.564-5.358,5.457-15.837,5.457-21.679V25.385H53.4c-.573-1.687-1.534-5.64-3.594-7.521a4.2,4.2,0,0,0-3.721-.664c.493-1.57,1.725-1.9,3.249-1.8V10.485a7.472,7.472,0,0,0-8.2,6.819,4.2,4.2,0,0,0-4.031.559c-2.048,1.881-2.832,5.845-3.328,7.521h1.664c-.052,1.883-.5,7.248-2.9,11.033a7.3,7.3,0,0,0-.961-2.1,7.314,7.314,0,0,0,1.229-4.084,7.442,7.442,0,0,0-2.392-5.447,5.7,5.7,0,0,0,.746-2.837,5.758,5.758,0,1,0-11.516,0,5.7,5.7,0,0,0,.746,2.837,7.427,7.427,0,0,0-1.3,1.6,7.372,7.372,0,0,0-1.958-.742,5.7,5.7,0,0,0-.772-2.828A5.769,5.769,0,0,0,13.411,20.3l-.582,1.539a4.12,4.12,0,0,1,2.105,1.79,4.586,4.586,0,0,1,.408,3.414,6.949,6.949,0,0,1,3.049.828,7.367,7.367,0,0,0,.839,6.441,7.392,7.392,0,0,0-.766,1.506c-.019-.016-.334-.237-.48-.315l-3.837-6.657-1.425.822,3.163,5.488a3.284,3.284,0,0,0-1.126.4,3.281,3.281,0,0,0-3.223-.033,3.3,3.3,0,0,0-1.315-.4,6.113,6.113,0,0,1,.341-5.322c-4.871-1.422-4.151-8.081.893-8.229l.036-1.645A5.751,5.751,0,0,0,8.45,30.65a7.352,7.352,0,0,0,.116,4.762,3.194,3.194,0,0,0-1.636,1.8A9.873,9.873,0,0,0,9.117,56.479v1.569s17.719,3.489,23.391,4.521L32.8,60.95c-1.031-.188-2.112-.389-3.218-.6V54.038H27.939v6c-4.5-.863-9.231-1.812-12.677-2.5-2.243-.45-3.7-.741-4.5-.9V54.723c.745-.144,2.062-.408,4.057-.809,1.836-.368,4.14-.831,6.621-1.323v3.091h1.645V52.267c3.917-.772,8.1-1.579,11.491-2.185v7.246h1.645V49.793a45.013,45.013,0,0,1,4.966-.691A6.59,6.59,0,0,1,42.8,62.061V57.328H41.156v4.935a28.148,28.148,0,0,1-3.229-.409l-.26,1.624a28.458,28.458,0,0,0,3.53.43h.021A8.179,8.179,0,0,0,47.163,61.4l3.884,2.719,2.831-4.043-2.75-1.925h4.821Zm-5.306-3.36.944,1.348-2.641,1.849a8.245,8.245,0,0,0-.662-1.545Zm-1.832-30.68c.756.572,1.715,2.79,2.339,4.564H46.512a6.265,6.265,0,0,0,1.114-2.91,4.148,4.148,0,0,0-.6-2.149A2.534,2.534,0,0,1,48.811,19.175Zm-7.887,1.654a2.528,2.528,0,1,1,5.057,0c0,.9-1.329,2.86-2.528,4.321C42.253,23.689,40.924,21.728,40.924,20.829Zm6.763-8.645v1.637a4.1,4.1,0,0,0-3.2,2.965,4.178,4.178,0,0,0-1.614-.09,5.724,5.724,0,0,1,4.81-4.512ZM38.1,19.175a2.533,2.533,0,0,1,1.778-.5,4.148,4.148,0,0,0-.6,2.149,6.265,6.265,0,0,0,1.114,2.91h-4.46c.566-1.832,1.448-4.021,2.166-4.564ZM22.646,25.107a4.756,4.756,0,0,1-1.354-3.161,4.113,4.113,0,1,1,8.226,0,4.755,4.755,0,0,1-1.354,3.161,5.879,5.879,0,0,1,1.35,9.207,6.057,6.057,0,0,1,1.648,4.012,11.358,11.358,0,0,1-4.824,3.322V26.07H24.692V41.265a9.993,9.993,0,0,0-4.948-3.923A6.336,6.336,0,0,1,21.3,34.314,5.916,5.916,0,0,1,19.661,30.2c0-3.248,2.985-5.1,2.985-5.1ZM16,36.811a1.654,1.654,0,0,1,1.419.275,7.253,7.253,0,0,1,1.257,2.971H15.9a3.837,3.837,0,0,0,.511-1.648A3.269,3.269,0,0,0,16,36.811Zm-1.23,1.6a7.379,7.379,0,0,1-1.645,2.839,7.378,7.378,0,0,1-1.645-2.839,1.645,1.645,0,0,1,3.29,0Zm-5.82-1.323a1.653,1.653,0,0,1,1.315-.3,3.269,3.269,0,0,0-.43,1.623,3.839,3.839,0,0,0,.511,1.648H7.688A7.255,7.255,0,0,1,8.945,37.086ZM41.2,47.458c-2.174,0-13.779,2.263-22.4,3.983a7.787,7.787,0,0,1,.827-3.61l-1.466-.747a9.469,9.469,0,0,0-1,4.684c-.943.189-8.039,1.552-8.039,1.552v1.506A8.227,8.227,0,0,1,6.194,39.275c-.184.665-.532,2.428-.532,2.428h5.732c.485.653,1.727,2.051,1.727,2.051s1.242-1.4,1.727-2.051H20.7s-.343-1.735-.519-2.378a8.347,8.347,0,0,1,3.335,3.163,9.9,9.9,0,0,0-4.273,2.944l1.265,1.051a8.749,8.749,0,0,1,4.692-2.8A14.578,14.578,0,0,0,32.808,38.9c3.344-4,4.236-10.489,4.283-13.516h4.445c.575.752,1.916,2.261,1.916,2.261s1.341-1.509,1.916-2.261h4.767v2.128A51.419,51.419,0,0,1,48.628,38.87a30.93,30.93,0,0,1-3.7,9.447,8.955,8.955,0,0,0-3.712-.859Zm9.446,14.37-2.489-1.743a8.176,8.176,0,0,0,.705-1.515l2.727,1.91ZM54.3,56.506h-5a8.964,8.964,0,0,0,0-1.645h5Z" transform="translate(0 -10.455)"/>
      </g>
    </g>
  </g>
</svg>
