<svg xmlns="http://www.w3.org/2000/svg" xmlns:xlink="http://www.w3.org/1999/xlink" width="102.949" height="102.949" viewBox="0 0 102.949 102.949">
  <defs>
    <filter id="Trazado_874925" x="0" y="0" width="102.949" height="102.949" filterUnits="userSpaceOnUse">
      <feOffset dy="3" input="SourceAlpha"/>
      <feGaussianBlur stdDeviation="3" result="blur"/>
      <feFlood flood-opacity="0.161"/>
      <feComposite operator="in" in2="blur"/>
      <feComposite in="SourceGraphic"/>
    </filter>
  </defs>
  <g id="Grupo_1181990" data-name="Grupo 1181990" transform="translate(-748.052 -1713.413)">
    <g id="Grupo_1181786" data-name="Grupo 1181786" transform="translate(-51.449 -797.744)">
      <g id="Grupo_1111316" data-name="Grupo 1111316" transform="translate(808.5 2517.157)">
        <g id="Grupo_1109835" data-name="Grupo 1109835" transform="translate(0 0)">
          <g id="Grupo_1107913" data-name="Grupo 1107913" transform="translate(0 0)">
            <g transform="matrix(1, 0, 0, 1, -9, -6)" filter="url(#Trazado_874925)">
              <g id="Trazado_874925-2" data-name="Trazado 874925" transform="translate(9 6)" fill="#9ad354" opacity="0.859">
                <path d="M 42.47446823120117 83.44929504394531 C 36.94229125976562 83.44929504394531 31.57638549804688 82.36614227294922 26.52582168579102 80.22994232177734 C 21.64678573608398 78.16628265380859 17.26464462280273 75.211669921875 13.50113868713379 71.44816589355469 C 9.737632751464844 67.68466949462891 6.78300952911377 63.30253982543945 4.719362258911133 58.42351913452148 C 2.583150625228882 53.37295150756836 1.499997615814209 48.00706100463867 1.499997615814209 42.47489547729492 C 1.499997615814209 36.94223403930664 2.583150625228882 31.57634162902832 4.719362258911133 26.52577781677246 C 6.78300952911377 21.64675331115723 9.737632751464844 17.26462364196777 13.50113868713379 13.50113010406494 C 17.26464462280273 9.737624168395996 21.64678573608398 6.783012390136719 26.52582168579102 4.719353199005127 C 31.57638549804688 2.583153486251831 36.94229125976562 1.500000476837158 42.47446823120117 1.500000476837158 C 48.00664520263672 1.500000476837158 53.37255096435547 2.583153486251831 58.42311477661133 4.719353199005127 C 63.30215072631836 6.783012390136719 67.68428802490234 9.737624168395996 71.44779968261719 13.50113010406494 C 75.2113037109375 17.26462364196777 78.16592407226562 21.64675331115723 80.22957611083984 26.52577781677246 C 82.36578369140625 31.57634162902832 83.44893646240234 36.94223403930664 83.44893646240234 42.47439956665039 C 83.44893646240234 48.00706100463867 82.36578369140625 53.37295150756836 80.22957611083984 58.42351913452148 C 78.16592407226562 63.30253982543945 75.2113037109375 67.68466949462891 71.44779968261719 71.44816589355469 C 67.68428802490234 75.211669921875 63.30215072631836 78.16628265380859 58.42311477661133 80.22994232177734 C 53.37255096435547 82.36614227294922 48.00664520263672 83.44929504394531 42.47446823120117 83.44929504394531 Z" stroke="none"/>
                <path d="M 42.47446823120117 2.999992370605469 C 37.14412307739258 2.999992370605469 31.97481536865234 4.04327392578125 27.11014938354492 6.100860595703125 C 22.40990829467773 8.088890075683594 18.18804168701172 10.93555450439453 14.56179809570312 14.56178283691406 C 10.93557739257812 18.18801116943359 8.088897705078125 22.40987396240234 6.100868225097656 27.11009979248047 C 4.043281555175781 31.97476577758789 3 37.14406204223633 3 42.47488784790039 C 3 47.80522155761719 4.043281555175781 52.97451400756836 6.100868225097656 57.83917999267578 C 8.088897705078125 62.53940582275391 10.93557739257812 66.76127624511719 14.56179809570312 70.38749694824219 C 18.18804168701172 74.01372528076172 22.40990829467773 76.86039733886719 27.11014938354492 78.84841918945312 C 31.97481536865234 80.906005859375 37.14412307739258 81.94928741455078 42.47446823120117 81.94928741455078 C 47.80481338500977 81.94928741455078 52.97412109375 80.906005859375 57.83879089355469 78.84841918945312 C 62.53902816772461 76.86039733886719 66.76089477539062 74.01372528076172 70.38713073730469 70.38749694824219 C 74.01335906982422 66.76127624511719 76.86003875732422 62.53940582275391 78.84806823730469 57.83917999267578 C 80.90565490722656 52.97451400756836 81.94893646240234 47.80522155761719 81.94893646240234 42.47439575195312 C 81.94893646240234 37.14406204223633 80.90565490722656 31.97476577758789 78.84806823730469 27.11009979248047 C 76.86003875732422 22.40987396240234 74.01335906982422 18.18801116943359 70.38713073730469 14.56178283691406 C 66.76089477539062 10.93555450439453 62.53902816772461 8.088890075683594 57.83879089355469 6.100860595703125 C 52.97412109375 4.04327392578125 47.80481338500977 2.999992370605469 42.47446823120117 2.999992370605469 M 42.47446823120117 -7.62939453125e-06 C 65.93246459960938 -7.62939453125e-06 84.94893646240234 19.01643371582031 84.94893646240234 42.47439575195312 L 84.94893646240234 42.47488784790039 C 84.94893646240234 65.93284606933594 65.93246459960938 84.94928741455078 42.47446823120117 84.94928741455078 C 19.01647186279297 84.94928741455078 0 65.93284606933594 0 42.47488784790039 L 0 42.47439575195312 C 0 19.01643371582031 19.01647186279297 -7.62939453125e-06 42.47446823120117 -7.62939453125e-06 Z" stroke="none" fill="#fff"/>
              </g>
            </g>
            <g id="Trazado_874923" data-name="Trazado 874923" transform="translate(0 0)" fill="none">
              <path d="M42.474,0A42.474,42.474,0,0,1,84.949,42.474h0A42.474,42.474,0,0,1,0,42.475H0A42.474,42.474,0,0,1,42.474,0Z" stroke="none"/>
              <path d="M 42.47446823120117 2.999992370605469 C 37.14412307739258 2.999992370605469 31.97481536865234 4.04327392578125 27.11014938354492 6.100860595703125 C 22.40990829467773 8.088890075683594 18.18804168701172 10.93555450439453 14.56179809570312 14.56178283691406 C 10.93557739257812 18.18801116943359 8.088897705078125 22.40987396240234 6.100868225097656 27.11009979248047 C 4.043281555175781 31.97476577758789 3 37.14406204223633 3 42.47488784790039 C 3 47.80522155761719 4.043281555175781 52.97451400756836 6.100868225097656 57.83917999267578 C 8.088897705078125 62.53940582275391 10.93557739257812 66.76127624511719 14.56179809570312 70.38749694824219 C 18.18804168701172 74.01372528076172 22.40990829467773 76.86039733886719 27.11014938354492 78.84841918945312 C 31.97481536865234 80.906005859375 37.14412307739258 81.94928741455078 42.47446823120117 81.94928741455078 C 47.80481338500977 81.94928741455078 52.97412109375 80.906005859375 57.83879089355469 78.84841918945312 C 62.53902816772461 76.86039733886719 66.76089477539062 74.01372528076172 70.38713073730469 70.38749694824219 C 74.01335906982422 66.76127624511719 76.86003875732422 62.53940582275391 78.84806823730469 57.83917999267578 C 80.90565490722656 52.97451400756836 81.94893646240234 47.80522155761719 81.94893646240234 42.47439575195312 C 81.94893646240234 37.14406204223633 80.90565490722656 31.97476577758789 78.84806823730469 27.11009979248047 C 76.86003875732422 22.40987396240234 74.01335906982422 18.18801116943359 70.38713073730469 14.56178283691406 C 66.76089477539062 10.93555450439453 62.53902816772461 8.088890075683594 57.83879089355469 6.100860595703125 C 52.97412109375 4.04327392578125 47.80481338500977 2.999992370605469 42.47446823120117 2.999992370605469 M 42.47446823120117 -7.62939453125e-06 C 65.93246459960938 -7.62939453125e-06 84.94893646240234 19.01643371582031 84.94893646240234 42.47439575195312 L 84.94893646240234 42.47488784790039 C 84.94893646240234 65.93284606933594 65.93246459960938 84.94928741455078 42.47446823120117 84.94928741455078 C 19.01647186279297 84.94928741455078 0 65.93284606933594 0 42.47488784790039 L 0 42.47439575195312 C 0 19.01643371582031 19.01647186279297 -7.62939453125e-06 42.47446823120117 -7.62939453125e-06 Z" stroke="none" fill="#fff"/>
            </g>
          </g>
        </g>
      </g>
    </g>
    <g id="grano-de-trigo" transform="translate(774.051 1736.413)">
      <path id="Trazado_909895" data-name="Trazado 909895" d="M241,256l1.519,6.954a1.87,1.87,0,0,0,1.139.421c1.887,0,3.417-3.3,3.417-7.375H241Z" transform="translate(-216.597 -230.079)" fill="#ff974f"/>
      <path id="Trazado_909896" data-name="Trazado 909896" d="M233.594,190.542c0-4.073-1.53-7.375-3.417-7.375a1.87,1.87,0,0,0-1.139.421L226,190.542l3.038,4.089a2.77,2.77,0,0,0,1.139.248C232.064,194.879,233.594,192.937,233.594,190.542Z" transform="translate(-203.116 -164.62)" fill="#ffb35c"/>
      <path id="Trazado_909897" data-name="Trazado 909897" d="M215.557,260.09v2.864a1.87,1.87,0,0,1-1.139.421c-1.887,0-3.417-3.3-3.417-7.375Z" transform="translate(-189.635 -230.079)" fill="#ffb35c"/>
      <path id="Trazado_909898" data-name="Trazado 909898" d="M211,190.542c0-4.073,1.53-7.375,3.417-7.375a1.87,1.87,0,0,1,1.139.421v11.043a2.77,2.77,0,0,1-1.139.248C212.53,194.879,211,192.937,211,190.542Z" transform="translate(-189.635 -164.62)" fill="#ffd06a"/>
      <path id="Trazado_909899" data-name="Trazado 909899" d="M207.677,175.667a2.462,2.462,0,0,1,1.139.284,2.462,2.462,0,0,1,1.139-.284c2.381,0,4.177,3.5,4.177,8.134s-1.8,8.134-4.177,8.134a2.462,2.462,0,0,1-1.139-.284,2.462,2.462,0,0,1-1.139.284c-2.381,0-4.177-3.5-4.177-8.134S205.3,175.667,207.677,175.667Zm1.139,1.94a.758.758,0,0,1-.461-.156,1.131,1.131,0,0,0-.679-.266c-1.255,0-2.658,2.829-2.658,6.615s1.4,6.615,2.658,6.615a1.131,1.131,0,0,0,.678-.266.759.759,0,0,1,.921,0,1.131,1.131,0,0,0,.679.266c1.255,0,2.658-2.829,2.658-6.615s-1.4-6.615-2.658-6.615a1.131,1.131,0,0,0-.678.266A.758.758,0,0,1,208.816,177.607Z" transform="translate(-182.894 -157.88)"/>
      <path id="Línea_603" data-name="Línea 603" d="M-6.741,7.926A.759.759,0,0,1-7.5,7.166V-6.741A.759.759,0,0,1-6.741-7.5a.759.759,0,0,1,.759.759V7.166A.759.759,0,0,1-6.741,7.926Z" transform="translate(32.662 25.708)"/>
      <path id="Trazado_909900" data-name="Trazado 909900" d="M241,431.667l1.519,6.954a1.87,1.87,0,0,0,1.139.421c1.887,0,3.417-3.3,3.417-7.375H241Z" transform="translate(-216.597 -387.958)" fill="#ff974f"/>
      <path id="Trazado_909901" data-name="Trazado 909901" d="M233.594,366.209c0-4.073-1.53-7.375-3.417-7.375a1.87,1.87,0,0,0-1.139.421L226,366.209l3.038,4.089a2.77,2.77,0,0,0,1.139.248C232.064,370.546,233.594,368.6,233.594,366.209Z" transform="translate(-203.116 -322.5)" fill="#ffb35c"/>
      <path id="Trazado_909902" data-name="Trazado 909902" d="M215.557,435.757v2.864a1.87,1.87,0,0,1-1.139.421c-1.887,0-3.417-3.3-3.417-7.375Z" transform="translate(-189.635 -387.959)" fill="#ffb35c"/>
      <path id="Trazado_909903" data-name="Trazado 909903" d="M211,366.209c0-4.073,1.53-7.375,3.417-7.375a1.87,1.87,0,0,1,1.139.421V370.3a2.77,2.77,0,0,1-1.139.248C212.53,370.546,211,368.6,211,366.209Z" transform="translate(-189.635 -322.5)" fill="#ffd06a"/>
      <path id="Trazado_909904" data-name="Trazado 909904" d="M207.677,351.333a2.462,2.462,0,0,1,1.139.284,2.462,2.462,0,0,1,1.139-.284c2.381,0,4.177,3.5,4.177,8.134s-1.8,8.134-4.177,8.134a2.462,2.462,0,0,1-1.139-.284,2.462,2.462,0,0,1-1.139.284c-2.381,0-4.177-3.5-4.177-8.134S205.3,351.333,207.677,351.333Zm1.139,1.94a.758.758,0,0,1-.461-.156,1.131,1.131,0,0,0-.679-.266c-1.255,0-2.658,2.829-2.658,6.615s1.4,6.615,2.658,6.615a1.131,1.131,0,0,0,.678-.266.759.759,0,0,1,.921,0,1.132,1.132,0,0,0,.679.266c1.255,0,2.658-2.829,2.658-6.615s-1.4-6.615-2.658-6.615a1.131,1.131,0,0,0-.678.266A.758.758,0,0,1,208.816,353.273Z" transform="translate(-182.894 -315.759)"/>
      <path id="Línea_604" data-name="Línea 604" d="M-6.741,7.926A.759.759,0,0,1-7.5,7.166V-6.741A.759.759,0,0,1-6.741-7.5a.759.759,0,0,1,.759.759V7.166A.759.759,0,0,1-6.741,7.926Z" transform="translate(32.662 43.496)"/>
      <path id="Trazado_909905" data-name="Trazado 909905" d="M241,14.874l1.519-6.954a1.87,1.87,0,0,1,1.139-.421c1.887,0,3.417,3.3,3.417,7.375Z" transform="translate(-216.597 -6.74)" fill="#ff974f"/>
      <path id="Trazado_909906" data-name="Trazado 909906" d="M233.594,41.836c0,4.073-1.53,7.375-3.417,7.375a1.87,1.87,0,0,1-1.139-.421L226,41.836l3.038-4.089a2.77,2.77,0,0,1,1.139-.248C232.064,37.5,233.594,39.441,233.594,41.836Z" transform="translate(-203.116 -33.702)" fill="#ffb35c"/>
      <path id="Trazado_909907" data-name="Trazado 909907" d="M215.557,10.785V7.921a1.87,1.87,0,0,0-1.139-.421C212.53,7.5,211,10.8,211,14.875Z" transform="translate(-189.635 -6.741)" fill="#ffb35c"/>
      <path id="Trazado_909908" data-name="Trazado 909908" d="M211,41.837c0,4.073,1.53,7.375,3.417,7.375a1.87,1.87,0,0,0,1.139-.421V37.748a2.77,2.77,0,0,0-1.139-.248C212.53,37.5,211,39.442,211,41.837Z" transform="translate(-189.635 -33.703)" fill="#ffd06a"/>
      <path id="Trazado_909909" data-name="Trazado 909909" d="M209.955,16.268a2.462,2.462,0,0,1-1.139-.284,2.462,2.462,0,0,1-1.139.284c-2.381,0-4.177-3.5-4.177-8.134S205.3,0,207.677,0a2.462,2.462,0,0,1,1.139.284A2.462,2.462,0,0,1,209.955,0c2.381,0,4.177,3.5,4.177,8.134S212.336,16.268,209.955,16.268Zm-1.139-1.94a.758.758,0,0,1,.461.156,1.131,1.131,0,0,0,.678.266c1.255,0,2.658-2.829,2.658-6.615s-1.4-6.615-2.658-6.615a1.131,1.131,0,0,0-.679.266.759.759,0,0,1-.921,0,1.131,1.131,0,0,0-.678-.266c-1.255,0-2.658,2.829-2.658,6.615s1.4,6.615,2.658,6.615a1.131,1.131,0,0,0,.679-.266A.758.758,0,0,1,208.816,14.328Z" transform="translate(-182.894 0)"/>
      <path id="Línea_605" data-name="Línea 605" d="M-6.741,7.926A.759.759,0,0,1-7.5,7.166V-6.741A.759.759,0,0,1-6.741-7.5a.759.759,0,0,1,.759.759V7.166A.759.759,0,0,1-6.741,7.926Z" transform="translate(32.662 7.921)"/>
      <path id="Trazado_909910" data-name="Trazado 909910" d="M369.608,352.691l5.991,3.843a1.87,1.87,0,0,0,1.1-.508c1.335-1.335.082-4.751-2.8-7.631Z" transform="translate(-332.183 -313.118)" fill="#ff974f"/>
      <path id="Trazado_909911" data-name="Trazado 909911" d="M339.795,318.817c-2.88-2.88-6.3-4.133-7.631-2.8a1.87,1.87,0,0,0-.508,1.1l2.769,7.065,5.04.744a2.77,2.77,0,0,0,.981-.63C341.78,322.966,341.489,320.511,339.795,318.817Z" transform="translate(-298.074 -283.54)" fill="#ffb35c"/>
      <path id="Trazado_909912" data-name="Trazado 909912" d="M354.509,408.772l2.025,2.025a1.87,1.87,0,0,1-.508,1.1c-1.335,1.335-4.751.082-7.631-2.8Z" transform="translate(-313.118 -367.382)" fill="#ffb35c"/>
      <path id="Trazado_909913" data-name="Trazado 909913" d="M318.817,339.795c-2.88-2.88-4.133-6.3-2.8-7.631a1.87,1.87,0,0,1,1.1-.508l7.808,7.808a2.77,2.77,0,0,1-.63.981C322.966,341.78,320.511,341.489,318.817,339.795Z" transform="translate(-283.54 -298.074)" fill="#ffd06a"/>
      <path id="Trazado_909914" data-name="Trazado 909914" d="M312.381,307.985h0c1.923,0,4.48,1.362,6.673,3.555,3.279,3.279,4.482,7.021,2.8,8.705a2.429,2.429,0,0,0-1.611,1.611,2.8,2.8,0,0,1-2.033.756c-1.923,0-4.48-1.362-6.673-3.555a13.512,13.512,0,0,1-3.156-4.671c-.636-1.735-.509-3.168.357-4.034a2.429,2.429,0,0,0,1.611-1.611A2.8,2.8,0,0,1,312.381,307.985Zm5.828,13.109a1.311,1.311,0,0,0,.959-.312,1.131,1.131,0,0,0,.292-.668.759.759,0,0,1,.651-.651,1.131,1.131,0,0,0,.668-.292c.887-.887-.121-3.88-2.8-6.557-1.86-1.86-4.11-3.11-5.6-3.11h0a1.311,1.311,0,0,0-.958.312,1.131,1.131,0,0,0-.292.668.759.759,0,0,1-.651.651,1.131,1.131,0,0,0-.668.292c-.412.412-.414,1.323-.005,2.438a11.981,11.981,0,0,0,2.8,4.12C314.47,319.844,316.72,321.093,318.209,321.093Z" transform="translate(-276.796 -276.8)"/>
      <path id="Línea_606" data-name="Línea 606" d="M3.093,3.853a.757.757,0,0,1-.537-.222L-7.278-6.2a.759.759,0,0,1,0-1.074.759.759,0,0,1,1.074,0L3.63,2.556a.759.759,0,0,1-.537,1.3Z" transform="translate(40.323 40.323)"/>
      <path id="Trazado_909915" data-name="Trazado 909915" d="M87.069,74.683l-3.843-5.991a1.87,1.87,0,0,1,.508-1.1c1.335-1.335,4.751-.082,7.631,2.8Z" transform="translate(-74.799 -60.265)" fill="#ff974f"/>
      <path id="Trazado_909916" data-name="Trazado 909916" d="M109.341,86.756c2.88,2.88,4.133,6.3,2.8,7.631a1.87,1.87,0,0,1-1.1.508l-7.065-2.769-.744-5.04a2.77,2.77,0,0,1,.63-.981C105.193,84.772,107.648,85.063,109.341,86.756Z" transform="translate(-92.776 -76.634)" fill="#ffb35c"/>
      <path id="Trazado_909917" data-name="Trazado 909917" d="M70.718,85.251l-2.025-2.025a1.87,1.87,0,0,0-1.1.508c-1.335,1.335-.082,4.751,2.8,7.631Z" transform="translate(-60.265 -74.799)" fill="#ffb35c"/>
      <path id="Trazado_909918" data-name="Trazado 909918" d="M86.757,109.342c2.88,2.88,6.3,4.133,7.631,2.8a1.87,1.87,0,0,0,.508-1.1l-7.808-7.808a2.77,2.77,0,0,0-.981.63C84.772,105.193,85.063,107.648,86.757,109.342Z" transform="translate(-76.635 -92.776)" fill="#ffd06a"/>
      <path id="Línea_607" data-name="Línea 607" d="M-3.972-3.212a.757.757,0,0,1-.537-.222L-7.278-6.2a.759.759,0,0,1,0-1.074.759.759,0,0,1,1.074,0l2.769,2.769a.759.759,0,0,1,0,1.074A.757.757,0,0,1-3.972-3.212Z" transform="translate(22.232 22.232)"/>
      <path id="Línea_608" data-name="Línea 608" d="M-1.824-1.064a.757.757,0,0,1-.537-.222L-7.278-6.2a.759.759,0,0,1,0-1.074.759.759,0,0,1,1.074,0l4.917,4.917a.759.759,0,0,1,0,1.074A.757.757,0,0,1-1.824-1.064Z" transform="translate(15.168 15.168)"/>
      <path id="Trazado_909919" data-name="Trazado 909919" d="M69.769,74.182c-1.923,0-4.48-1.362-6.673-3.555-3.279-3.279-4.482-7.021-2.8-8.705a2.462,2.462,0,0,1,1.006-.6,2.462,2.462,0,0,1,.6-1.006,2.8,2.8,0,0,1,2.033-.756c1.923,0,4.48,1.362,6.673,3.555a13.512,13.512,0,0,1,3.156,4.671c.636,1.735.509,3.168-.357,4.035a2.462,2.462,0,0,1-1.006.6,2.462,2.462,0,0,1-.6,1.006A2.8,2.8,0,0,1,69.769,74.182ZM63.941,61.074a1.311,1.311,0,0,0-.959.312,1.131,1.131,0,0,0-.292.668.759.759,0,0,1-.651.651,1.131,1.131,0,0,0-.668.292c-.887.887.121,3.88,2.8,6.557,1.86,1.86,4.11,3.11,5.6,3.11a1.311,1.311,0,0,0,.959-.312,1.131,1.131,0,0,0,.292-.668.759.759,0,0,1,.651-.651,1.131,1.131,0,0,0,.668-.292c.412-.412.414-1.323.005-2.438a11.981,11.981,0,0,0-2.8-4.12C67.68,62.323,65.43,61.074,63.941,61.074Z" transform="translate(-53.511 -53.525)"/>
      <path id="Trazado_909920" data-name="Trazado 909920" d="M431.667,217.075l6.954-1.519a1.87,1.87,0,0,0,.421-1.139c0-1.887-3.3-3.417-7.375-3.417v6.075Z" transform="translate(-387.958 -189.635)" fill="#ff974f"/>
      <path id="Trazado_909921" data-name="Trazado 909921" d="M366.209,211c-4.073,0-7.375,1.53-7.375,3.417a1.87,1.87,0,0,0,.421,1.139l6.954,3.038,4.089-3.038a2.77,2.77,0,0,0,.248-1.139C370.546,212.53,368.6,211,366.209,211Z" transform="translate(-322.5 -189.635)" fill="#ffb35c"/>
      <path id="Trazado_909922" data-name="Trazado 909922" d="M435.757,256h2.864a1.87,1.87,0,0,1,.421,1.139c0,1.887-3.3,3.417-7.375,3.417Z" transform="translate(-387.959 -230.079)" fill="#ffb35c"/>
      <path id="Trazado_909923" data-name="Trazado 909923" d="M366.209,260.557c-4.073,0-7.375-1.53-7.375-3.417a1.87,1.87,0,0,1,.421-1.139H370.3a2.77,2.77,0,0,1,.248,1.139C370.546,259.027,368.6,260.557,366.209,260.557Z" transform="translate(-322.5 -230.079)" fill="#ffd06a"/>
      <path id="Trazado_909924" data-name="Trazado 909924" d="M359.467,203.5c4.637,0,8.134,1.8,8.134,4.177a2.462,2.462,0,0,1-.284,1.139,2.462,2.462,0,0,1,.284,1.139c0,2.381-3.5,4.177-8.134,4.177s-8.134-1.8-8.134-4.177a2.462,2.462,0,0,1,.284-1.139,2.462,2.462,0,0,1-.284-1.139C351.333,205.3,354.83,203.5,359.467,203.5Zm0,9.113c3.786,0,6.615-1.4,6.615-2.658a1.131,1.131,0,0,0-.266-.678.759.759,0,0,1,0-.921,1.132,1.132,0,0,0,.266-.679c0-1.255-2.829-2.658-6.615-2.658s-6.615,1.4-6.615,2.658a1.131,1.131,0,0,0,.266.678.759.759,0,0,1,0,.921,1.131,1.131,0,0,0-.266.679C352.852,211.21,355.681,212.613,359.467,212.613Z" transform="translate(-315.759 -182.894)"/>
      <path id="Línea_609" data-name="Línea 609" d="M7.166-5.981H-6.741A.759.759,0,0,1-7.5-6.741.759.759,0,0,1-6.741-7.5H7.166a.759.759,0,0,1,.759.759A.759.759,0,0,1,7.166-5.981Z" transform="translate(43.496 32.662)"/>
      <path id="Trazado_909925" data-name="Trazado 909925" d="M14.874,217.075,7.92,215.557a1.87,1.87,0,0,1-.421-1.139c0-1.887,3.3-3.417,7.375-3.417Z" transform="translate(-6.74 -189.635)" fill="#ff974f"/>
      <path id="Trazado_909926" data-name="Trazado 909926" d="M41.836,211c4.073,0,7.375,1.53,7.375,3.417a1.87,1.87,0,0,1-.421,1.139l-6.954,3.038-4.089-3.038a2.77,2.77,0,0,1-.248-1.139C37.5,212.53,39.441,211,41.836,211Z" transform="translate(-33.702 -189.635)" fill="#ffb35c"/>
      <path id="Trazado_909927" data-name="Trazado 909927" d="M10.785,256H7.921a1.87,1.87,0,0,0-.421,1.139c0,1.887,3.3,3.417,7.375,3.417Z" transform="translate(-6.741 -230.079)" fill="#ffb35c"/>
      <path id="Trazado_909928" data-name="Trazado 909928" d="M41.837,260.557c4.073,0,7.375-1.53,7.375-3.417A1.87,1.87,0,0,0,48.791,256H37.748a2.77,2.77,0,0,0-.248,1.139C37.5,259.027,39.442,260.557,41.837,260.557Z" transform="translate(-33.703 -230.079)" fill="#ffd06a"/>
      <path id="Trazado_909929" data-name="Trazado 909929" d="M8.134,203.5c4.637,0,8.134,1.8,8.134,4.177a2.462,2.462,0,0,1-.284,1.139,2.462,2.462,0,0,1,.284,1.139c0,2.381-3.5,4.177-8.134,4.177S0,212.336,0,209.955a2.462,2.462,0,0,1,.284-1.139A2.462,2.462,0,0,1,0,207.677C0,205.3,3.5,203.5,8.134,203.5Zm0,9.113c3.786,0,6.615-1.4,6.615-2.658a1.131,1.131,0,0,0-.266-.679.759.759,0,0,1,0-.921,1.131,1.131,0,0,0,.266-.678c0-1.255-2.829-2.658-6.615-2.658s-6.615,1.4-6.615,2.658a1.131,1.131,0,0,0,.266.679.759.759,0,0,1,0,.921,1.131,1.131,0,0,0-.266.678C1.519,211.21,4.348,212.613,8.134,212.613Z" transform="translate(0 -182.894)"/>
      <path id="Línea_610" data-name="Línea 610" d="M7.166-5.981H-6.741A.759.759,0,0,1-7.5-6.741.759.759,0,0,1-6.741-7.5H7.166a.759.759,0,0,1,.759.759A.759.759,0,0,1,7.166-5.981Z" transform="translate(7.921 32.662)"/>
      <path id="Trazado_909930" data-name="Trazado 909930" d="M352.691,74.683l3.843-5.991a1.87,1.87,0,0,0-.508-1.1c-1.335-1.335-4.751-.082-7.631,2.8Z" transform="translate(-313.118 -60.265)" fill="#ff974f"/>
      <path id="Trazado_909931" data-name="Trazado 909931" d="M318.817,86.756c-2.88,2.88-4.133,6.3-2.8,7.631a1.87,1.87,0,0,0,1.1.508l7.065-2.769.744-5.04a2.77,2.77,0,0,0-.63-.981C322.966,84.772,320.511,85.063,318.817,86.756Z" transform="translate(-283.54 -76.634)" fill="#ffb35c"/>
      <path id="Trazado_909932" data-name="Trazado 909932" d="M408.772,85.251l2.025-2.025a1.87,1.87,0,0,1,1.1.508c1.335,1.335.082,4.751-2.8,7.631Z" transform="translate(-367.382 -74.799)" fill="#ffb35c"/>
      <path id="Trazado_909933" data-name="Trazado 909933" d="M339.795,109.342c-2.88,2.88-6.3,4.133-7.631,2.8a1.87,1.87,0,0,1-.508-1.1l7.808-7.808a2.77,2.77,0,0,1,.981.63C341.78,105.193,341.489,107.648,339.795,109.342Z" transform="translate(-298.074 -92.776)" fill="#ffd06a"/>
      <path id="Trazado_909934" data-name="Trazado 909934" d="M312.371,74.182h0a2.8,2.8,0,0,1-2.033-.756,2.462,2.462,0,0,1-.6-1.006,2.462,2.462,0,0,1-1.006-.6c-1.684-1.684-.481-5.426,2.8-8.705,2.193-2.193,4.749-3.555,6.673-3.555a2.8,2.8,0,0,1,2.033.756,2.462,2.462,0,0,1,.6,1.006,2.462,2.462,0,0,1,1.006.6c.867.867.994,2.3.357,4.035a13.511,13.511,0,0,1-3.156,4.671C316.851,72.82,314.294,74.182,312.371,74.182ZM318.2,61.074c-1.489,0-3.739,1.25-5.6,3.11-2.677,2.677-3.685,5.67-2.8,6.557a1.131,1.131,0,0,0,.668.292.759.759,0,0,1,.651.651,1.131,1.131,0,0,0,.292.668,1.312,1.312,0,0,0,.959.312c1.488,0,3.738-1.25,5.6-3.11a11.982,11.982,0,0,0,2.8-4.12c.409-1.114.407-2.026-.005-2.438a1.131,1.131,0,0,0-.668-.292.759.759,0,0,1-.651-.651,1.131,1.131,0,0,0-.292-.668A1.311,1.311,0,0,0,318.2,61.074Z" transform="translate(-276.786 -53.525)"/>
      <path id="Línea_611" data-name="Línea 611" d="M-6.741,3.853a.757.757,0,0,1-.537-.222.759.759,0,0,1,0-1.074L2.556-7.278a.759.759,0,0,1,1.074,0,.759.759,0,0,1,0,1.074L-6.2,3.63A.757.757,0,0,1-6.741,3.853Z" transform="translate(40.323 15.168)"/>
      <path id="Trazado_909935" data-name="Trazado 909935" d="M74.683,352.691l-5.991,3.843a1.87,1.87,0,0,1-1.1-.508c-1.335-1.335-.082-4.751,2.8-7.631Z" transform="translate(-60.265 -313.118)" fill="#ff974f"/>
      <path id="Trazado_909936" data-name="Trazado 909936" d="M86.756,318.817c2.88-2.88,6.3-4.133,7.631-2.8a1.87,1.87,0,0,1,.508,1.1l-2.769,7.065-5.04.744a2.77,2.77,0,0,1-.981-.63C84.772,322.966,85.063,320.511,86.756,318.817Z" transform="translate(-76.634 -283.54)" fill="#ffb35c"/>
      <path id="Trazado_909937" data-name="Trazado 909937" d="M85.251,408.772,83.226,410.8a1.87,1.87,0,0,0,.508,1.1c1.335,1.335,4.751.082,7.631-2.8Z" transform="translate(-74.799 -367.382)" fill="#ffb35c"/>
      <path id="Trazado_909938" data-name="Trazado 909938" d="M109.342,339.795c2.88-2.88,4.133-6.3,2.8-7.631a1.87,1.87,0,0,0-1.1-.508l-7.808,7.808a2.77,2.77,0,0,0,.63.981C105.193,341.78,107.648,341.489,109.342,339.795Z" transform="translate(-92.776 -298.074)" fill="#ffd06a"/>
      <path id="Trazado_909939" data-name="Trazado 909939" d="M69.769,307.985a2.8,2.8,0,0,1,2.033.756,2.462,2.462,0,0,1,.6,1.006,2.462,2.462,0,0,1,1.006.6c.867.867.994,2.3.357,4.034a13.512,13.512,0,0,1-3.156,4.671c-2.193,2.193-4.749,3.555-6.673,3.555a2.8,2.8,0,0,1-2.033-.756,2.462,2.462,0,0,1-.6-1.006,2.462,2.462,0,0,1-1.006-.6c-1.684-1.684-.481-5.426,2.8-8.705C65.289,309.347,67.845,307.985,69.769,307.985Zm-5.827,13.109c1.489,0,3.739-1.25,5.6-3.11a11.981,11.981,0,0,0,2.8-4.12c.409-1.114.407-2.026-.005-2.438a1.131,1.131,0,0,0-.668-.292.759.759,0,0,1-.651-.651,1.131,1.131,0,0,0-.292-.668,1.311,1.311,0,0,0-.959-.312c-1.489,0-3.739,1.25-5.6,3.11-2.677,2.677-3.686,5.67-2.8,6.557a1.131,1.131,0,0,0,.668.292.759.759,0,0,1,.651.651,1.131,1.131,0,0,0,.292.668A1.311,1.311,0,0,0,63.941,321.093Z" transform="translate(-53.511 -276.8)"/>
      <path id="Línea_612" data-name="Línea 612" d="M-6.741,3.853a.757.757,0,0,1-.537-.222.759.759,0,0,1,0-1.074L2.556-7.278a.759.759,0,0,1,1.074,0,.759.759,0,0,1,0,1.074L-6.2,3.63A.757.757,0,0,1-6.741,3.853Z" transform="translate(15.168 40.323)"/>
    </g>
  </g>
</svg>
