<svg xmlns="http://www.w3.org/2000/svg" xmlns:xlink="http://www.w3.org/1999/xlink" width="102.949" height="102.949" viewBox="0 0 102.949 102.949">
  <defs>
    <filter id="Trazado_874925" x="0" y="0" width="102.949" height="102.949" filterUnits="userSpaceOnUse">
      <feOffset dy="3" input="SourceAlpha"/>
      <feGaussianBlur stdDeviation="3" result="blur"/>
      <feFlood flood-opacity="0.161"/>
      <feComposite operator="in" in2="blur"/>
      <feComposite in="SourceGraphic"/>
    </filter>
  </defs>
  <g id="Grupo_1182019" data-name="Grupo 1182019" transform="translate(-276.051 -5256.413)">
    <g id="Grupo_1181814" data-name="Grupo 1181814" transform="translate(-523.449 2745.256)">
      <g id="Grupo_1111316" data-name="Grupo 1111316" transform="translate(808.5 2517.157)">
        <g id="Grupo_1109835" data-name="Grupo 1109835" transform="translate(0 0)">
          <g id="Grupo_1107913" data-name="Grupo 1107913" transform="translate(0 0)">
            <g transform="matrix(1, 0, 0, 1, -9, -6)" filter="url(#Trazado_874925)">
              <g id="Trazado_874925-2" data-name="Trazado 874925" transform="translate(9 6)" fill="#4c6929" opacity="0.859">
                <path d="M 42.47446823120117 83.44929504394531 C 36.94229125976562 83.44929504394531 31.57638549804688 82.36614227294922 26.52582168579102 80.22994232177734 C 21.64678573608398 78.16628265380859 17.26464462280273 75.211669921875 13.50113868713379 71.44816589355469 C 9.737632751464844 67.68466949462891 6.78300952911377 63.30253982543945 4.719362258911133 58.42351913452148 C 2.583150625228882 53.37295150756836 1.499997615814209 48.00706100463867 1.499997615814209 42.47489547729492 C 1.499997615814209 36.94223403930664 2.583150625228882 31.57634162902832 4.719362258911133 26.52577781677246 C 6.78300952911377 21.64675331115723 9.737632751464844 17.26462364196777 13.50113868713379 13.50113010406494 C 17.26464462280273 9.737624168395996 21.64678573608398 6.783012390136719 26.52582168579102 4.719353199005127 C 31.57638549804688 2.583153486251831 36.94229125976562 1.500000476837158 42.47446823120117 1.500000476837158 C 48.00664520263672 1.500000476837158 53.37255096435547 2.583153486251831 58.42311477661133 4.719353199005127 C 63.30215072631836 6.783012390136719 67.68428802490234 9.737624168395996 71.44779968261719 13.50113010406494 C 75.2113037109375 17.26462364196777 78.16592407226562 21.64675331115723 80.22957611083984 26.52577781677246 C 82.36578369140625 31.57634162902832 83.44893646240234 36.94223403930664 83.44893646240234 42.47439956665039 C 83.44893646240234 48.00706100463867 82.36578369140625 53.37295150756836 80.22957611083984 58.42351913452148 C 78.16592407226562 63.30253982543945 75.2113037109375 67.68466949462891 71.44779968261719 71.44816589355469 C 67.68428802490234 75.211669921875 63.30215072631836 78.16628265380859 58.42311477661133 80.22994232177734 C 53.37255096435547 82.36614227294922 48.00664520263672 83.44929504394531 42.47446823120117 83.44929504394531 Z" stroke="none"/>
                <path d="M 42.47446823120117 2.999992370605469 C 37.14412307739258 2.999992370605469 31.97481536865234 4.04327392578125 27.11014938354492 6.100860595703125 C 22.40990829467773 8.088890075683594 18.18804168701172 10.93555450439453 14.56179809570312 14.56178283691406 C 10.93557739257812 18.18801116943359 8.088897705078125 22.40987396240234 6.100868225097656 27.11009979248047 C 4.043281555175781 31.97476577758789 3 37.14406204223633 3 42.47488784790039 C 3 47.80522155761719 4.043281555175781 52.97451400756836 6.100868225097656 57.83917999267578 C 8.088897705078125 62.53940582275391 10.93557739257812 66.76127624511719 14.56179809570312 70.38749694824219 C 18.18804168701172 74.01372528076172 22.40990829467773 76.86039733886719 27.11014938354492 78.84841918945312 C 31.97481536865234 80.906005859375 37.14412307739258 81.94928741455078 42.47446823120117 81.94928741455078 C 47.80481338500977 81.94928741455078 52.97412109375 80.906005859375 57.83879089355469 78.84841918945312 C 62.53902816772461 76.86039733886719 66.76089477539062 74.01372528076172 70.38713073730469 70.38749694824219 C 74.01335906982422 66.76127624511719 76.86003875732422 62.53940582275391 78.84806823730469 57.83917999267578 C 80.90565490722656 52.97451400756836 81.94893646240234 47.80522155761719 81.94893646240234 42.47439575195312 C 81.94893646240234 37.14406204223633 80.90565490722656 31.97476577758789 78.84806823730469 27.11009979248047 C 76.86003875732422 22.40987396240234 74.01335906982422 18.18801116943359 70.38713073730469 14.56178283691406 C 66.76089477539062 10.93555450439453 62.53902816772461 8.088890075683594 57.83879089355469 6.100860595703125 C 52.97412109375 4.04327392578125 47.80481338500977 2.999992370605469 42.47446823120117 2.999992370605469 M 42.47446823120117 -7.62939453125e-06 C 65.93246459960938 -7.62939453125e-06 84.94893646240234 19.01643371582031 84.94893646240234 42.47439575195312 L 84.94893646240234 42.47488784790039 C 84.94893646240234 65.93284606933594 65.93246459960938 84.94928741455078 42.47446823120117 84.94928741455078 C 19.01647186279297 84.94928741455078 0 65.93284606933594 0 42.47488784790039 L 0 42.47439575195312 C 0 19.01643371582031 19.01647186279297 -7.62939453125e-06 42.47446823120117 -7.62939453125e-06 Z" stroke="none" fill="#fff"/>
              </g>
            </g>
            <g id="Trazado_874923" data-name="Trazado 874923" transform="translate(0 0)" fill="none">
              <path d="M42.474,0A42.474,42.474,0,0,1,84.949,42.474h0A42.474,42.474,0,0,1,0,42.475H0A42.474,42.474,0,0,1,42.474,0Z" stroke="none"/>
              <path d="M 42.47446823120117 2.999992370605469 C 37.14412307739258 2.999992370605469 31.97481536865234 4.04327392578125 27.11014938354492 6.100860595703125 C 22.40990829467773 8.088890075683594 18.18804168701172 10.93555450439453 14.56179809570312 14.56178283691406 C 10.93557739257812 18.18801116943359 8.088897705078125 22.40987396240234 6.100868225097656 27.11009979248047 C 4.043281555175781 31.97476577758789 3 37.14406204223633 3 42.47488784790039 C 3 47.80522155761719 4.043281555175781 52.97451400756836 6.100868225097656 57.83917999267578 C 8.088897705078125 62.53940582275391 10.93557739257812 66.76127624511719 14.56179809570312 70.38749694824219 C 18.18804168701172 74.01372528076172 22.40990829467773 76.86039733886719 27.11014938354492 78.84841918945312 C 31.97481536865234 80.906005859375 37.14412307739258 81.94928741455078 42.47446823120117 81.94928741455078 C 47.80481338500977 81.94928741455078 52.97412109375 80.906005859375 57.83879089355469 78.84841918945312 C 62.53902816772461 76.86039733886719 66.76089477539062 74.01372528076172 70.38713073730469 70.38749694824219 C 74.01335906982422 66.76127624511719 76.86003875732422 62.53940582275391 78.84806823730469 57.83917999267578 C 80.90565490722656 52.97451400756836 81.94893646240234 47.80522155761719 81.94893646240234 42.47439575195312 C 81.94893646240234 37.14406204223633 80.90565490722656 31.97476577758789 78.84806823730469 27.11009979248047 C 76.86003875732422 22.40987396240234 74.01335906982422 18.18801116943359 70.38713073730469 14.56178283691406 C 66.76089477539062 10.93555450439453 62.53902816772461 8.088890075683594 57.83879089355469 6.100860595703125 C 52.97412109375 4.04327392578125 47.80481338500977 2.999992370605469 42.47446823120117 2.999992370605469 M 42.47446823120117 -7.62939453125e-06 C 65.93246459960938 -7.62939453125e-06 84.94893646240234 19.01643371582031 84.94893646240234 42.47439575195312 L 84.94893646240234 42.47488784790039 C 84.94893646240234 65.93284606933594 65.93246459960938 84.94928741455078 42.47446823120117 84.94928741455078 C 19.01647186279297 84.94928741455078 0 65.93284606933594 0 42.47488784790039 L 0 42.47439575195312 C 0 19.01643371582031 19.01647186279297 -7.62939453125e-06 42.47446823120117 -7.62939453125e-06 Z" stroke="none" fill="#fff"/>
            </g>
          </g>
        </g>
      </g>
    </g>
    <g id="_04-Schedule" data-name="04-Schedule" transform="translate(300.051 5278.413)">
      <rect id="Rectángulo_408426" data-name="Rectángulo 408426" width="40" height="38" rx="4" transform="translate(3 7.188)" fill="#eee"/>
      <path id="Trazado_909989" data-name="Trazado 909989" d="M43.15,11.346V43.131A3.345,3.345,0,0,1,39.8,46.477H6.346A3.345,3.345,0,0,1,3,43.131V40.622a3.345,3.345,0,0,0,3.346,3.346H35.622a3.345,3.345,0,0,0,3.346-3.346V11.346A3.345,3.345,0,0,0,35.622,8H39.8a3.345,3.345,0,0,1,3.346,3.346Z" transform="translate(-0.164 -0.981)" fill="#e0e0e0"/>
      <path id="Trazado_909990" data-name="Trazado 909990" d="M43.15,11.346v3.346H3V11.346A3.345,3.345,0,0,1,6.346,8H39.8a3.345,3.345,0,0,1,3.346,3.346Z" transform="translate(-0.164 -0.981)" fill="#64b5f6"/>
      <path id="Trazado_909991" data-name="Trazado 909991" d="M49.528,11.346v3.346H45.346V11.346A3.345,3.345,0,0,0,42,8h4.182a3.345,3.345,0,0,1,3.346,3.346Z" transform="translate(-6.542 -0.981)" fill="#42a5f5"/>
      <rect id="Rectángulo_408427" data-name="Rectángulo 408427" width="3" height="7" rx="1.5" transform="translate(10 3.188)" fill="#eee"/>
      <path id="Trazado_909992" data-name="Trazado 909992" d="M14.346,4.673V8.855a1.673,1.673,0,1,1-3.346,0,1.678,1.678,0,0,0,1.673-1.673V4.673a1.635,1.635,0,0,0-.494-1.179,1.515,1.515,0,0,0-.343-.268A1.668,1.668,0,0,1,12.673,3a1.685,1.685,0,0,1,1.673,1.673Z" transform="translate(-1.472 -0.164)" fill="#e0e0e0"/>
      <rect id="Rectángulo_408428" data-name="Rectángulo 408428" width="4" height="7" rx="2" transform="translate(21 3.188)" fill="#eee"/>
      <rect id="Rectángulo_408429" data-name="Rectángulo 408429" width="3" height="7" rx="1.5" transform="translate(33 3.188)" fill="#eee"/>
      <path id="Trazado_909993" data-name="Trazado 909993" d="M19,22h5.019v5.019H19Z" transform="translate(-2.78 -3.271)" fill="#ffb74d"/>
      <path id="Trazado_909994" data-name="Trazado 909994" d="M29,22h5.019v5.019H29Z" transform="translate(-4.416 -3.271)" fill="#ffb74d"/>
      <path id="Trazado_909995" data-name="Trazado 909995" d="M29,32h5.019v5.019H29Z" transform="translate(-4.416 -4.906)" fill="#ffb74d"/>
      <path id="Trazado_909996" data-name="Trazado 909996" d="M39,22h5.019v5.019H39Z" transform="translate(-6.051 -3.271)" fill="#ffb74d"/>
      <path id="Trazado_909997" data-name="Trazado 909997" d="M9,32h5.019v5.019H9Z" transform="translate(-1.145 -4.906)" fill="#ffb74d"/>
      <path id="Trazado_909998" data-name="Trazado 909998" d="M14.019,32v5.019H9V35.346h1.673a1.678,1.678,0,0,0,1.673-1.673V32Z" transform="translate(-1.145 -4.906)" fill="#ffa726"/>
      <path id="Trazado_909999" data-name="Trazado 909999" d="M19,32h5.019v5.019H19Z" transform="translate(-2.78 -4.906)" fill="#ffb74d"/>
      <path id="Trazado_910000" data-name="Trazado 910000" d="M34.019,32v5.019H29V35.346h1.673a1.678,1.678,0,0,0,1.673-1.673V32Z" transform="translate(-4.416 -4.906)" fill="#ffa726"/>
      <path id="Trazado_910001" data-name="Trazado 910001" d="M9,42h5.019v5.019H9Z" transform="translate(-1.145 -6.542)" fill="#ffb74d"/>
      <path id="Trazado_910002" data-name="Trazado 910002" d="M19,42h5.019v5.019H19Z" transform="translate(-2.78 -6.542)" fill="#ffb74d"/>
      <ellipse id="Elipse_11640" data-name="Elipse 11640" cx="13" cy="13.5" rx="13" ry="13.5" transform="translate(25 24.188)" fill="#64b5f6"/>
      <circle id="Elipse_11641" data-name="Elipse 11641" cx="10" cy="10" r="10" transform="translate(28 28.188)" fill="#eee"/>
      <path id="Trazado_910003" data-name="Trazado 910003" d="M53.647,43.123A10.043,10.043,0,0,1,36.5,50.216a9.916,9.916,0,0,0,2.928.435,10.043,10.043,0,0,0,7.11-17.131,10.042,10.042,0,0,1,7.11,9.6Z" transform="translate(-5.642 -5.155)" fill="#e0e0e0"/>
      <g id="Grupo_1182018" data-name="Grupo 1182018" transform="translate(7.855 18.729)">
        <path id="Trazado_910004" data-name="Trazado 910004" d="M24.019,32v5.019H19V35.346h1.673a1.678,1.678,0,0,0,1.673-1.673V32Z" transform="translate(-10.635 -23.635)" fill="#ffa726"/>
        <path id="Trazado_910005" data-name="Trazado 910005" d="M24.019,22v5.019H19V25.346h1.673a1.678,1.678,0,0,0,1.673-1.673V22Z" transform="translate(-10.635 -22)" fill="#ffa726"/>
        <path id="Trazado_910006" data-name="Trazado 910006" d="M34.019,22v5.019H29V25.346h1.673a1.678,1.678,0,0,0,1.673-1.673V22Z" transform="translate(-12.271 -22)" fill="#ffa726"/>
        <path id="Trazado_910007" data-name="Trazado 910007" d="M44.019,22v5.019H39V25.346h1.673a1.678,1.678,0,0,0,1.673-1.673V22Z" transform="translate(-13.906 -22)" fill="#ffa726"/>
        <path id="Trazado_910008" data-name="Trazado 910008" d="M14.019,42v5.019H9V45.346h1.673a1.678,1.678,0,0,0,1.673-1.673V42Z" transform="translate(-9 -25.271)" fill="#ffa726"/>
        <path id="Trazado_910009" data-name="Trazado 910009" d="M24.019,42v5.019H19V45.346h1.673a1.678,1.678,0,0,0,1.673-1.673V42Z" transform="translate(-10.635 -25.271)" fill="#ffa726"/>
      </g>
      <path id="Trazado_910010" data-name="Trazado 910010" d="M28.346,4.673V8.855a1.673,1.673,0,1,1-3.346,0,1.678,1.678,0,0,0,1.673-1.673V4.673a1.635,1.635,0,0,0-.494-1.179,1.515,1.515,0,0,0-.343-.268A1.668,1.668,0,0,1,26.673,3a1.685,1.685,0,0,1,1.673,1.673Z" transform="translate(-3.761 -0.164)" fill="#e0e0e0"/>
      <path id="Trazado_910011" data-name="Trazado 910011" d="M42.346,4.673V8.855a1.673,1.673,0,1,1-3.346,0,1.678,1.678,0,0,0,1.673-1.673V4.673a1.635,1.635,0,0,0-.494-1.179,1.515,1.515,0,0,0-.343-.268A1.668,1.668,0,0,1,40.673,3a1.685,1.685,0,0,1,1.673,1.673Z" transform="translate(-6.051 -0.164)" fill="#e0e0e0"/>
      <path id="Trazado_910012" data-name="Trazado 910012" d="M22.075,18.729a.836.836,0,0,0-.836-.836H16.22a.836.836,0,0,0-.836.836v5.019a.836.836,0,0,0,.836.836h5.019a.836.836,0,0,0,.836-.836ZM20.4,22.911H17.056V19.566H20.4Zm4.182-5.019a.836.836,0,0,0-.836.836v5.019a.836.836,0,0,0,.836.836H29.6a.836.836,0,0,0,.836-.836V18.729a.836.836,0,0,0-.836-.836Zm4.182,5.019H25.421V19.566h3.346ZM13.71,27.094a.836.836,0,0,0-.836-.836H7.855a.836.836,0,0,0-.836.836v5.019a.836.836,0,0,0,.836.836h5.019a.836.836,0,0,0,.836-.836Zm-1.673,4.182H8.692V27.93h3.346Zm10.038-4.182a.836.836,0,0,0-.836-.836H16.22a.836.836,0,0,0-.836.836v5.019a.836.836,0,0,0,.836.836h5.019a.836.836,0,0,0,.836-.836ZM20.4,31.276H17.056V27.93H20.4Zm-7.528,3.346H7.855a.836.836,0,0,0-.836.836v5.019a.836.836,0,0,0,.836.836h5.019a.836.836,0,0,0,.836-.836V35.458a.836.836,0,0,0-.836-.836Zm-.836,5.019H8.692V36.295h3.346Zm9.2-5.019H16.22a.836.836,0,0,0-.836.836v5.019a.836.836,0,0,0,.836.836h5.019a.836.836,0,0,0,.836-.836V35.458a.836.836,0,0,0-.836-.836ZM20.4,39.641H17.056V36.295H20.4ZM37.968,23.748a14.22,14.22,0,1,0,14.22,14.22,14.22,14.22,0,0,0-14.22-14.22Zm0,26.767A12.547,12.547,0,1,1,50.515,37.968,12.547,12.547,0,0,1,37.968,50.515ZM22.911,44.659H6.182A2.512,2.512,0,0,1,3.673,42.15v-27.6H42.15v7.528a.836.836,0,1,0,1.673,0V10.365a4.187,4.187,0,0,0-4.182-4.182H37.131V4.509a2.509,2.509,0,1,0-5.019,0V6.182H25.421V4.509a2.509,2.509,0,1,0-5.019,0V6.182H13.71V4.509a2.509,2.509,0,0,0-5.019,0V6.182H6.182A4.187,4.187,0,0,0,2,10.365V42.15a4.187,4.187,0,0,0,4.182,4.182H22.911a.836.836,0,1,0,0-1.673ZM33.785,4.509a.836.836,0,0,1,1.673,0V8.692a.836.836,0,1,1-1.673,0Zm-11.71,0a.836.836,0,0,1,1.673,0V8.692a.836.836,0,1,1-1.673,0Zm-11.71,0a.836.836,0,0,1,1.673,0V8.692a.836.836,0,0,1-1.673,0ZM6.182,7.855H8.692v.836a2.509,2.509,0,1,0,5.019,0V7.855H20.4v.836a2.509,2.509,0,1,0,5.019,0V7.855h6.692v.836a2.509,2.509,0,1,0,5.019,0V7.855h2.509a2.512,2.512,0,0,1,2.509,2.509v2.509H3.673V10.365A2.512,2.512,0,0,1,6.182,7.855ZM37.131,21.239V19.566H33.785v2.441a.836.836,0,1,1-1.673,0V18.729a.836.836,0,0,1,.836-.836h5.019a.836.836,0,0,1,.836.836v2.509a.836.836,0,1,1-1.673,0Zm.836,5.855A10.874,10.874,0,1,0,48.842,37.968,10.874,10.874,0,0,0,37.968,27.094ZM38.8,47.126V45.5a.836.836,0,1,0-1.673,0v1.631A9.211,9.211,0,0,1,28.809,38.8H30.44a.836.836,0,1,0,0-1.673H28.809a9.211,9.211,0,0,1,8.322-8.322V30.44a.836.836,0,1,0,1.673,0V28.809a9.211,9.211,0,0,1,8.322,8.322H45.5a.836.836,0,1,0,0,1.673h1.631A9.211,9.211,0,0,1,38.8,47.126Zm2.264-7.241a.836.836,0,1,1-1.183,1.183l-2.509-2.509a.837.837,0,0,1-.245-.591V33.785a.836.836,0,0,1,1.673,0v3.836Z" transform="translate(0 0)"/>
    </g>
  </g>
</svg>
