<svg xmlns="http://www.w3.org/2000/svg" xmlns:xlink="http://www.w3.org/1999/xlink" width="102.949" height="102.949" viewBox="0 0 102.949 102.949">
  <defs>
    <filter id="Trazado_874925" x="0" y="0" width="102.949" height="102.949" filterUnits="userSpaceOnUse">
      <feOffset dy="3" input="SourceAlpha"/>
      <feGaussianBlur stdDeviation="3" result="blur"/>
      <feFlood flood-opacity="0.161"/>
      <feComposite operator="in" in2="blur"/>
      <feComposite in="SourceGraphic"/>
    </filter>
  </defs>
  <g id="Grupo_1182087" data-name="Grupo 1182087" transform="translate(-1221.051 -10627.413)">
    <g id="Grupo_1181860" data-name="Grupo 1181860" transform="translate(421.551 8116.256)">
      <g id="Grupo_1111316" data-name="Grupo 1111316" transform="translate(808.5 2517.157)">
        <g id="Grupo_1109835" data-name="Grupo 1109835" transform="translate(0 0)">
          <g id="Grupo_1107913" data-name="Grupo 1107913" transform="translate(0 0)">
            <g transform="matrix(1, 0, 0, 1, -9, -6)" filter="url(#Trazado_874925)">
              <g id="Trazado_874925-2" data-name="Trazado 874925" transform="translate(9 6)" fill="#4c6929" opacity="0.859">
                <path d="M 42.47446823120117 83.44929504394531 C 36.94229125976562 83.44929504394531 31.57638549804688 82.36614227294922 26.52582168579102 80.22994232177734 C 21.64678573608398 78.16628265380859 17.26464462280273 75.211669921875 13.50113868713379 71.44816589355469 C 9.737632751464844 67.68466949462891 6.78300952911377 63.30253982543945 4.719362258911133 58.42351913452148 C 2.583150625228882 53.37295150756836 1.499997615814209 48.00706100463867 1.499997615814209 42.47489547729492 C 1.499997615814209 36.94223403930664 2.583150625228882 31.57634162902832 4.719362258911133 26.52577781677246 C 6.78300952911377 21.64675331115723 9.737632751464844 17.26462364196777 13.50113868713379 13.50113010406494 C 17.26464462280273 9.737624168395996 21.64678573608398 6.783012390136719 26.52582168579102 4.719353199005127 C 31.57638549804688 2.583153486251831 36.94229125976562 1.500000476837158 42.47446823120117 1.500000476837158 C 48.00664520263672 1.500000476837158 53.37255096435547 2.583153486251831 58.42311477661133 4.719353199005127 C 63.30215072631836 6.783012390136719 67.68428802490234 9.737624168395996 71.44779968261719 13.50113010406494 C 75.2113037109375 17.26462364196777 78.16592407226562 21.64675331115723 80.22957611083984 26.52577781677246 C 82.36578369140625 31.57634162902832 83.44893646240234 36.94223403930664 83.44893646240234 42.47439956665039 C 83.44893646240234 48.00706100463867 82.36578369140625 53.37295150756836 80.22957611083984 58.42351913452148 C 78.16592407226562 63.30253982543945 75.2113037109375 67.68466949462891 71.44779968261719 71.44816589355469 C 67.68428802490234 75.211669921875 63.30215072631836 78.16628265380859 58.42311477661133 80.22994232177734 C 53.37255096435547 82.36614227294922 48.00664520263672 83.44929504394531 42.47446823120117 83.44929504394531 Z" stroke="none"/>
                <path d="M 42.47446823120117 2.999992370605469 C 37.14412307739258 2.999992370605469 31.97481536865234 4.04327392578125 27.11014938354492 6.100860595703125 C 22.40990829467773 8.088890075683594 18.18804168701172 10.93555450439453 14.56179809570312 14.56178283691406 C 10.93557739257812 18.18801116943359 8.088897705078125 22.40987396240234 6.100868225097656 27.11009979248047 C 4.043281555175781 31.97476577758789 3 37.14406204223633 3 42.47488784790039 C 3 47.80522155761719 4.043281555175781 52.97451400756836 6.100868225097656 57.83917999267578 C 8.088897705078125 62.53940582275391 10.93557739257812 66.76127624511719 14.56179809570312 70.38749694824219 C 18.18804168701172 74.01372528076172 22.40990829467773 76.86039733886719 27.11014938354492 78.84841918945312 C 31.97481536865234 80.906005859375 37.14412307739258 81.94928741455078 42.47446823120117 81.94928741455078 C 47.80481338500977 81.94928741455078 52.97412109375 80.906005859375 57.83879089355469 78.84841918945312 C 62.53902816772461 76.86039733886719 66.76089477539062 74.01372528076172 70.38713073730469 70.38749694824219 C 74.01335906982422 66.76127624511719 76.86003875732422 62.53940582275391 78.84806823730469 57.83917999267578 C 80.90565490722656 52.97451400756836 81.94893646240234 47.80522155761719 81.94893646240234 42.47439575195312 C 81.94893646240234 37.14406204223633 80.90565490722656 31.97476577758789 78.84806823730469 27.11009979248047 C 76.86003875732422 22.40987396240234 74.01335906982422 18.18801116943359 70.38713073730469 14.56178283691406 C 66.76089477539062 10.93555450439453 62.53902816772461 8.088890075683594 57.83879089355469 6.100860595703125 C 52.97412109375 4.04327392578125 47.80481338500977 2.999992370605469 42.47446823120117 2.999992370605469 M 42.47446823120117 -7.62939453125e-06 C 65.93246459960938 -7.62939453125e-06 84.94893646240234 19.01643371582031 84.94893646240234 42.47439575195312 L 84.94893646240234 42.47488784790039 C 84.94893646240234 65.93284606933594 65.93246459960938 84.94928741455078 42.47446823120117 84.94928741455078 C 19.01647186279297 84.94928741455078 0 65.93284606933594 0 42.47488784790039 L 0 42.47439575195312 C 0 19.01643371582031 19.01647186279297 -7.62939453125e-06 42.47446823120117 -7.62939453125e-06 Z" stroke="none" fill="#fff"/>
              </g>
            </g>
            <g id="Trazado_874923" data-name="Trazado 874923" transform="translate(0 0)" fill="none">
              <path d="M42.474,0A42.474,42.474,0,0,1,84.949,42.474h0A42.474,42.474,0,0,1,0,42.475H0A42.474,42.474,0,0,1,42.474,0Z" stroke="none"/>
              <path d="M 42.47446823120117 2.999992370605469 C 37.14412307739258 2.999992370605469 31.97481536865234 4.04327392578125 27.11014938354492 6.100860595703125 C 22.40990829467773 8.088890075683594 18.18804168701172 10.93555450439453 14.56179809570312 14.56178283691406 C 10.93557739257812 18.18801116943359 8.088897705078125 22.40987396240234 6.100868225097656 27.11009979248047 C 4.043281555175781 31.97476577758789 3 37.14406204223633 3 42.47488784790039 C 3 47.80522155761719 4.043281555175781 52.97451400756836 6.100868225097656 57.83917999267578 C 8.088897705078125 62.53940582275391 10.93557739257812 66.76127624511719 14.56179809570312 70.38749694824219 C 18.18804168701172 74.01372528076172 22.40990829467773 76.86039733886719 27.11014938354492 78.84841918945312 C 31.97481536865234 80.906005859375 37.14412307739258 81.94928741455078 42.47446823120117 81.94928741455078 C 47.80481338500977 81.94928741455078 52.97412109375 80.906005859375 57.83879089355469 78.84841918945312 C 62.53902816772461 76.86039733886719 66.76089477539062 74.01372528076172 70.38713073730469 70.38749694824219 C 74.01335906982422 66.76127624511719 76.86003875732422 62.53940582275391 78.84806823730469 57.83917999267578 C 80.90565490722656 52.97451400756836 81.94893646240234 47.80522155761719 81.94893646240234 42.47439575195312 C 81.94893646240234 37.14406204223633 80.90565490722656 31.97476577758789 78.84806823730469 27.11009979248047 C 76.86003875732422 22.40987396240234 74.01335906982422 18.18801116943359 70.38713073730469 14.56178283691406 C 66.76089477539062 10.93555450439453 62.53902816772461 8.088890075683594 57.83879089355469 6.100860595703125 C 52.97412109375 4.04327392578125 47.80481338500977 2.999992370605469 42.47446823120117 2.999992370605469 M 42.47446823120117 -7.62939453125e-06 C 65.93246459960938 -7.62939453125e-06 84.94893646240234 19.01643371582031 84.94893646240234 42.47439575195312 L 84.94893646240234 42.47488784790039 C 84.94893646240234 65.93284606933594 65.93246459960938 84.94928741455078 42.47446823120117 84.94928741455078 C 19.01647186279297 84.94928741455078 0 65.93284606933594 0 42.47488784790039 L 0 42.47439575195312 C 0 19.01643371582031 19.01647186279297 -7.62939453125e-06 42.47446823120117 -7.62939453125e-06 Z" stroke="none" fill="#fff"/>
            </g>
          </g>
        </g>
      </g>
    </g>
    <g id="aceite-de-cbd" transform="translate(1248.051 10651.413)">
      <g id="Grupo_1182086" data-name="Grupo 1182086" transform="translate(0.783 1.03)">
        <g id="Grupo_1182076" data-name="Grupo 1182076" transform="translate(32.102 12.528)">
          <path id="Trazado_910113" data-name="Trazado 910113" d="M52.523,17.316h4.353A9.4,9.4,0,0,1,49.8,26.422a9.749,9.749,0,0,0-4.823-1.276H42a10.843,10.843,0,0,0,5.027-6.358h.008A10.963,10.963,0,0,1,52.523,17.316Z" transform="translate(-42 -17.316)" fill="#b4dd7f"/>
        </g>
        <g id="Grupo_1182077" data-name="Grupo 1182077" transform="translate(32.102 20.357)">
          <path id="Trazado_910114" data-name="Trazado 910114" d="M54.528,35.146h-4.7A7.833,7.833,0,0,1,42,27.316h2.975a9.737,9.737,0,0,1,9.552,7.83Z" transform="translate(-42 -27.316)" fill="#b4dd7f"/>
        </g>
        <g id="Grupo_1182078" data-name="Grupo 1182078" transform="translate(20.357 20.357)">
          <path id="Trazado_910115" data-name="Trazado 910115" d="M38.745,27.316a7.833,7.833,0,0,1-7.83,7.83H27V32.812a9.738,9.738,0,0,1,8.769-5.5Z" transform="translate(-27 -27.316)" fill="#b4dd7f"/>
        </g>
        <g id="Grupo_1182079" data-name="Grupo 1182079" transform="translate(17.225 12.528)">
          <path id="Trazado_910116" data-name="Trazado 910116" d="M32.85,18.788a10.826,10.826,0,0,0,5.027,6.358H34.9a9.749,9.749,0,0,0-4.823,1.276,9.39,9.39,0,0,1-4.729-2.889V22.014a1.571,1.571,0,0,0-1.566-1.566h-.251A9.428,9.428,0,0,1,23,17.316h4.353a10.963,10.963,0,0,1,5.489,1.472Z" transform="translate(-23 -17.316)" fill="#b4dd7f"/>
        </g>
        <g id="Grupo_1182080" data-name="Grupo 1182080" transform="translate(26.621)">
          <path id="Trazado_910117" data-name="Trazado 910117" d="M41.24,1.966a13.512,13.512,0,0,1,4.721,10.265l-.454,3.085a10.843,10.843,0,0,1-5.027,6.358,10.826,10.826,0,0,1-5.027-6.358A10.7,10.7,0,0,1,35,12.231,13.5,13.5,0,0,1,39.721,1.966l.759-.65Z" transform="translate(-35 -1.316)" fill="#a0d468"/>
        </g>
        <g id="Grupo_1182081" data-name="Grupo 1182081" transform="translate(6.264 6.264)">
          <path id="Trazado_910118" data-name="Trazado 910118" d="M16.83,13.231v5.481H9V13.231a3.915,3.915,0,1,1,7.83,0Z" transform="translate(-9 -9.316)" fill="#ff826e"/>
        </g>
        <g id="Grupo_1182082" data-name="Grupo 1182082" transform="translate(0.783 15.659)">
          <path id="Trazado_910119" data-name="Trazado 910119" d="M20.791,24.4v.047a1.571,1.571,0,0,1-1.566,1.566H3.566A1.571,1.571,0,0,1,2,24.448V22.882a1.571,1.571,0,0,1,1.566-1.566H19.225a1.571,1.571,0,0,1,1.566,1.566Z" transform="translate(-2 -21.316)" fill="#cf9e76"/>
        </g>
        <g id="Grupo_1182083" data-name="Grupo 1182083" transform="translate(0 20.357)">
          <path id="Trazado_910120" data-name="Trazado 910120" d="M19.478,28.256l-1.253-.94H4.132l-1.253.94A4.7,4.7,0,0,0,1,32.014V50.805a3.131,3.131,0,0,0,3.132,3.132H18.225a3.131,3.131,0,0,0,3.132-3.132V32.014A4.7,4.7,0,0,0,19.478,28.256Z" transform="translate(-1 -27.316)" fill="#dfb28b"/>
        </g>
        <g id="Grupo_1182084" data-name="Grupo 1182084" transform="translate(3.132 28.187)">
          <path id="Trazado_910121" data-name="Trazado 910121" d="M5,37.316V51.409a1.571,1.571,0,0,0,1.566,1.566H17.528a1.571,1.571,0,0,0,1.566-1.566V37.316Z" transform="translate(-5 -37.316)" fill="#b4dd7f"/>
        </g>
        <g id="Grupo_1182085" data-name="Grupo 1182085" transform="translate(7.83 20.357)">
          <path id="Trazado_910122" data-name="Trazado 910122" d="M15.7,35.146v8.613a2.349,2.349,0,0,1-4.7,0V27.316h4.7Z" transform="translate(-11 -27.316)" fill="#e6e9ed"/>
        </g>
      </g>
      <path id="Trazado_910123" data-name="Trazado 910123" d="M48.544,13.558v-.783H43.408a11.792,11.792,0,0,0-4.386.851,11.544,11.544,0,0,0,.127-1.683A14.279,14.279,0,0,0,34.156,1.089L32.885,0,31.613,1.09a14.277,14.277,0,0,0-4.992,10.854,11.655,11.655,0,0,0,.126,1.683,11.792,11.792,0,0,0-4.386-.851H17.225v.783a10.2,10.2,0,0,0,.28,2.349H15.659v-4.7a4.7,4.7,0,1,0-9.4,0v4.7H3.132A2.352,2.352,0,0,0,.783,18.256v1.566A2.34,2.34,0,0,0,2,21.866a5.5,5.5,0,0,0-2,4.219V44.877a3.919,3.919,0,0,0,3.915,3.915H18.008a3.919,3.919,0,0,0,3.915-3.915V30h3.132A8.6,8.6,0,0,0,32.1,26.324v17.77h1.566V26.324A8.6,8.6,0,0,0,40.714,30h5.653l-.188-.936A10.5,10.5,0,0,0,42.4,22.9a10.166,10.166,0,0,0,6.142-9.345ZM32.632,2.278l.253-.217.253.216a12.718,12.718,0,0,1,4.445,9.666,10.1,10.1,0,0,1-3.915,7.962V16.3l2.819-2.114-.939-1.253-1.879,1.409V12.383l2.819-2.114-.939-1.253-1.879,1.409V4.945H32.1v5.481L30.224,9.017l-.939,1.253L32.1,12.383v1.957l-1.879-1.409-.939,1.253L32.1,16.3v3.607a10.106,10.106,0,0,1-3.915-7.962,12.7,12.7,0,0,1,4.442-9.665ZM22.362,14.341a10.21,10.21,0,0,1,4.849,1.242A11.705,11.705,0,0,0,30.483,20.6h-.575a10.5,10.5,0,0,0-4.9,1.222,8.553,8.553,0,0,1-3.869-2.367v-1.2a2.346,2.346,0,0,0-2-2.314,8.624,8.624,0,0,1-.316-1.6Zm-.667,10.219a5.5,5.5,0,0,0-1.77-2.693,2.352,2.352,0,0,0,.76-.668,10.11,10.11,0,0,0,2.681,1.7A10.585,10.585,0,0,0,21.695,24.559ZM7.83,11.209a3.132,3.132,0,1,1,6.264,0v4.7H7.83ZM2.349,18.256a.783.783,0,0,1,.783-.783H18.791a.783.783,0,0,1,.783.783v1.566a.783.783,0,0,1-.783.783H3.132a.783.783,0,0,1-.783-.783Zm8.613,22.706a3.135,3.135,0,0,0,3.132-3.132V30h3.132V43.311a.783.783,0,0,1-.783.783H5.481a.783.783,0,0,1-.783-.783V30H7.83v7.83A3.135,3.135,0,0,0,10.962,40.962Zm1.566-3.132a1.566,1.566,0,0,1-3.132,0V30h3.132ZM9.4,28.434V22.171h3.132v6.264ZM20.357,44.877a2.352,2.352,0,0,1-2.349,2.349H3.915a2.352,2.352,0,0,1-2.349-2.349V26.085a3.933,3.933,0,0,1,1.567-3.132l1.044-.783H7.83v6.264h-4.7V43.311A2.352,2.352,0,0,0,5.481,45.66H16.442a2.352,2.352,0,0,0,2.349-2.349V28.434h-4.7V22.171h3.653l1.044.783a3.935,3.935,0,0,1,1.566,3.132Zm4.7-16.442H21.923V27.077a9,9,0,0,1,7.985-4.907h2.15a7.055,7.055,0,0,1-7,6.264Zm19.349,0H40.714a7.056,7.056,0,0,1-7-6.264h2.15A8.985,8.985,0,0,1,44.4,28.434Zm-3.65-6.606A10.45,10.45,0,0,0,35.862,20.6h-.575a11.705,11.705,0,0,0,3.273-5.022,10.21,10.21,0,0,1,4.849-1.242h3.535a8.6,8.6,0,0,1-6.19,7.488Z"/>
    </g>
  </g>
</svg>
