<svg xmlns="http://www.w3.org/2000/svg" xmlns:xlink="http://www.w3.org/1999/xlink" width="102.949" height="102.949" viewBox="0 0 102.949 102.949">
  <defs>
    <filter id="Trazado_874925" x="0" y="0" width="102.949" height="102.949" filterUnits="userSpaceOnUse">
      <feOffset dy="3" input="SourceAlpha"/>
      <feGaussianBlur stdDeviation="3" result="blur"/>
      <feFlood flood-opacity="0.161"/>
      <feComposite operator="in" in2="blur"/>
      <feComposite in="SourceGraphic"/>
    </filter>
  </defs>
  <g id="Grupo_1182287" data-name="Grupo 1182287" transform="translate(-276.051 -10627.413)">
    <g id="Grupo_1181857" data-name="Grupo 1181857" transform="translate(-523.449 8116.256)">
      <g id="Grupo_1111316" data-name="Grupo 1111316" transform="translate(808.5 2517.157)">
        <g id="Grupo_1109835" data-name="Grupo 1109835" transform="translate(0 0)">
          <g id="Grupo_1107913" data-name="Grupo 1107913" transform="translate(0 0)">
            <g transform="matrix(1, 0, 0, 1, -9, -6)" filter="url(#Trazado_874925)">
              <g id="Trazado_874925-2" data-name="Trazado 874925" transform="translate(9 6)" fill="#4c6929" opacity="0.859">
                <path d="M 42.47446823120117 83.44929504394531 C 36.94229125976562 83.44929504394531 31.57638549804688 82.36614227294922 26.52582168579102 80.22994232177734 C 21.64678573608398 78.16628265380859 17.26464462280273 75.211669921875 13.50113868713379 71.44816589355469 C 9.737632751464844 67.68466949462891 6.78300952911377 63.30253982543945 4.719362258911133 58.42351913452148 C 2.583150625228882 53.37295150756836 1.499997615814209 48.00706100463867 1.499997615814209 42.47489547729492 C 1.499997615814209 36.94223403930664 2.583150625228882 31.57634162902832 4.719362258911133 26.52577781677246 C 6.78300952911377 21.64675331115723 9.737632751464844 17.26462364196777 13.50113868713379 13.50113010406494 C 17.26464462280273 9.737624168395996 21.64678573608398 6.783012390136719 26.52582168579102 4.719353199005127 C 31.57638549804688 2.583153486251831 36.94229125976562 1.500000476837158 42.47446823120117 1.500000476837158 C 48.00664520263672 1.500000476837158 53.37255096435547 2.583153486251831 58.42311477661133 4.719353199005127 C 63.30215072631836 6.783012390136719 67.68428802490234 9.737624168395996 71.44779968261719 13.50113010406494 C 75.2113037109375 17.26462364196777 78.16592407226562 21.64675331115723 80.22957611083984 26.52577781677246 C 82.36578369140625 31.57634162902832 83.44893646240234 36.94223403930664 83.44893646240234 42.47439956665039 C 83.44893646240234 48.00706100463867 82.36578369140625 53.37295150756836 80.22957611083984 58.42351913452148 C 78.16592407226562 63.30253982543945 75.2113037109375 67.68466949462891 71.44779968261719 71.44816589355469 C 67.68428802490234 75.211669921875 63.30215072631836 78.16628265380859 58.42311477661133 80.22994232177734 C 53.37255096435547 82.36614227294922 48.00664520263672 83.44929504394531 42.47446823120117 83.44929504394531 Z" stroke="none"/>
                <path d="M 42.47446823120117 2.999992370605469 C 37.14412307739258 2.999992370605469 31.97481536865234 4.04327392578125 27.11014938354492 6.100860595703125 C 22.40990829467773 8.088890075683594 18.18804168701172 10.93555450439453 14.56179809570312 14.56178283691406 C 10.93557739257812 18.18801116943359 8.088897705078125 22.40987396240234 6.100868225097656 27.11009979248047 C 4.043281555175781 31.97476577758789 3 37.14406204223633 3 42.47488784790039 C 3 47.80522155761719 4.043281555175781 52.97451400756836 6.100868225097656 57.83917999267578 C 8.088897705078125 62.53940582275391 10.93557739257812 66.76127624511719 14.56179809570312 70.38749694824219 C 18.18804168701172 74.01372528076172 22.40990829467773 76.86039733886719 27.11014938354492 78.84841918945312 C 31.97481536865234 80.906005859375 37.14412307739258 81.94928741455078 42.47446823120117 81.94928741455078 C 47.80481338500977 81.94928741455078 52.97412109375 80.906005859375 57.83879089355469 78.84841918945312 C 62.53902816772461 76.86039733886719 66.76089477539062 74.01372528076172 70.38713073730469 70.38749694824219 C 74.01335906982422 66.76127624511719 76.86003875732422 62.53940582275391 78.84806823730469 57.83917999267578 C 80.90565490722656 52.97451400756836 81.94893646240234 47.80522155761719 81.94893646240234 42.47439575195312 C 81.94893646240234 37.14406204223633 80.90565490722656 31.97476577758789 78.84806823730469 27.11009979248047 C 76.86003875732422 22.40987396240234 74.01335906982422 18.18801116943359 70.38713073730469 14.56178283691406 C 66.76089477539062 10.93555450439453 62.53902816772461 8.088890075683594 57.83879089355469 6.100860595703125 C 52.97412109375 4.04327392578125 47.80481338500977 2.999992370605469 42.47446823120117 2.999992370605469 M 42.47446823120117 -7.62939453125e-06 C 65.93246459960938 -7.62939453125e-06 84.94893646240234 19.01643371582031 84.94893646240234 42.47439575195312 L 84.94893646240234 42.47488784790039 C 84.94893646240234 65.93284606933594 65.93246459960938 84.94928741455078 42.47446823120117 84.94928741455078 C 19.01647186279297 84.94928741455078 0 65.93284606933594 0 42.47488784790039 L 0 42.47439575195312 C 0 19.01643371582031 19.01647186279297 -7.62939453125e-06 42.47446823120117 -7.62939453125e-06 Z" stroke="none" fill="#fff"/>
              </g>
            </g>
            <g id="Trazado_874923" data-name="Trazado 874923" transform="translate(0 0)" fill="none">
              <path d="M42.474,0A42.474,42.474,0,0,1,84.949,42.474h0A42.474,42.474,0,0,1,0,42.475H0A42.474,42.474,0,0,1,42.474,0Z" stroke="none"/>
              <path d="M 42.47446823120117 2.999992370605469 C 37.14412307739258 2.999992370605469 31.97481536865234 4.04327392578125 27.11014938354492 6.100860595703125 C 22.40990829467773 8.088890075683594 18.18804168701172 10.93555450439453 14.56179809570312 14.56178283691406 C 10.93557739257812 18.18801116943359 8.088897705078125 22.40987396240234 6.100868225097656 27.11009979248047 C 4.043281555175781 31.97476577758789 3 37.14406204223633 3 42.47488784790039 C 3 47.80522155761719 4.043281555175781 52.97451400756836 6.100868225097656 57.83917999267578 C 8.088897705078125 62.53940582275391 10.93557739257812 66.76127624511719 14.56179809570312 70.38749694824219 C 18.18804168701172 74.01372528076172 22.40990829467773 76.86039733886719 27.11014938354492 78.84841918945312 C 31.97481536865234 80.906005859375 37.14412307739258 81.94928741455078 42.47446823120117 81.94928741455078 C 47.80481338500977 81.94928741455078 52.97412109375 80.906005859375 57.83879089355469 78.84841918945312 C 62.53902816772461 76.86039733886719 66.76089477539062 74.01372528076172 70.38713073730469 70.38749694824219 C 74.01335906982422 66.76127624511719 76.86003875732422 62.53940582275391 78.84806823730469 57.83917999267578 C 80.90565490722656 52.97451400756836 81.94893646240234 47.80522155761719 81.94893646240234 42.47439575195312 C 81.94893646240234 37.14406204223633 80.90565490722656 31.97476577758789 78.84806823730469 27.11009979248047 C 76.86003875732422 22.40987396240234 74.01335906982422 18.18801116943359 70.38713073730469 14.56178283691406 C 66.76089477539062 10.93555450439453 62.53902816772461 8.088890075683594 57.83879089355469 6.100860595703125 C 52.97412109375 4.04327392578125 47.80481338500977 2.999992370605469 42.47446823120117 2.999992370605469 M 42.47446823120117 -7.62939453125e-06 C 65.93246459960938 -7.62939453125e-06 84.94893646240234 19.01643371582031 84.94893646240234 42.47439575195312 L 84.94893646240234 42.47488784790039 C 84.94893646240234 65.93284606933594 65.93246459960938 84.94928741455078 42.47446823120117 84.94928741455078 C 19.01647186279297 84.94928741455078 0 65.93284606933594 0 42.47488784790039 L 0 42.47439575195312 C 0 19.01643371582031 19.01647186279297 -7.62939453125e-06 42.47446823120117 -7.62939453125e-06 Z" stroke="none" fill="#fff"/>
            </g>
          </g>
        </g>
      </g>
    </g>
    <g id="mermelada-de-fruta" transform="translate(236.122 10647.368)">
      <g id="Grupo_1182027" data-name="Grupo 1182027" transform="translate(74.656 16.773)">
        <path id="Trazado_910072" data-name="Trazado 910072" d="M123.068,133.31v30.428a5.285,5.285,0,0,1-5.285,5.285H95.755a5.285,5.285,0,0,1-5.285-5.285V133.31" transform="translate(-90.47 -133.31)" fill="#ee7067"/>
      </g>
      <g id="Grupo_1182028" data-name="Grupo 1182028" transform="translate(100.92 16.773)">
        <path id="Trazado_910073" data-name="Trazado 910073" d="M359.833,134.608v17.516a4.367,4.367,0,0,1-.953,2.724l-.727.911a4.373,4.373,0,0,0-.953,2.724V168.56l.167.463h.881a5.285,5.285,0,0,0,5.285-5.285V133.31h-3.9a4.335,4.335,0,0,1,.2,1.3Z" transform="translate(-357.2 -133.31)" fill="#cd5252"/>
      </g>
      <g id="Grupo_1182029" data-name="Grupo 1182029" transform="translate(74.535 24.851)">
        <path id="Trazado_910074" data-name="Trazado 910074" d="M121.838,236.4H89.24V215.35h32.6" transform="translate(-89.24 -215.35)" fill="#efb338"/>
      </g>
      <g id="Grupo_1182030" data-name="Grupo 1182030" transform="translate(100.92 24.851)">
        <path id="Trazado_910075" data-name="Trazado 910075" d="M359.833,226.087a4.367,4.367,0,0,1-.953,2.724l-.727.911a4.373,4.373,0,0,0-.953,2.724V236.4h6.212V215.35h-3.58v10.737Z" transform="translate(-357.2 -215.35)" fill="#d39629"/>
      </g>
      <g id="Grupo_1182031" data-name="Grupo 1182031" transform="translate(77.06 48.142)">
        <path id="Trazado_910076" data-name="Trazado 910076" d="M123.755,453.932c-1.605.131-3.212.173-4.82.192l-.9.006a3.1,3.1,0,0,1-3.141-2.2l.088-.035a3.333,3.333,0,0,0,2.763,1.747l1.194.008c1.609.019,3.215.061,4.82.192Z" transform="translate(-114.89 -451.89)" fill="#fff"/>
      </g>
      <g id="Grupo_1182032" data-name="Grupo 1182032" transform="translate(86.37 49.89)">
        <path id="Trazado_910077" data-name="Trazado 910077" d="M210.285,469.933a.548.548,0,0,1-.845,0v-.1a.548.548,0,0,1,.845,0Z" transform="translate(-209.44 -469.639)" fill="#fff"/>
      </g>
      <g id="Grupo_1182033" data-name="Grupo 1182033" transform="translate(73.226 5.221)">
        <path id="Trazado_910078" data-name="Trazado 910078" d="M76.615,26.067a2.771,2.771,0,0,0,.289,3.887c1.038.9,1.81,2.063,3.79,2.063,3.246,0,3.246-3.117,6.494-3.117s3.247,3.117,6.494,3.117,3.247-3.117,6.494-3.117,3.247,3.117,6.495,3.117c1.98,0,2.752-1.159,3.79-2.063a2.771,2.771,0,0,0,.289-3.887l-4.139-4.854V17.4A1.412,1.412,0,0,0,105.2,15.99H82.165A1.412,1.412,0,0,0,80.753,17.4v3.811Z" transform="translate(-75.952 -15.99)" fill="#e4e8eb"/>
      </g>
      <g id="Grupo_1182034" data-name="Grupo 1182034" transform="translate(88.464 5.084)">
        <path id="Trazado_910079" data-name="Trazado 910079" d="M242.4,19.96V18.413a1.465,1.465,0,0,0-1.464-1.464h-8.394a1.466,1.466,0,0,1-1.389-1L230.7,14.6h15.564v5.53Z" transform="translate(-230.7 -14.6)" fill="#cad0d7"/>
      </g>
      <g id="Grupo_1182035" data-name="Grupo 1182035" transform="translate(100.159 10.375)">
        <path id="Trazado_910080" data-name="Trazado 910080" d="M349.48,68.408v1.359a1.33,1.33,0,0,0,.288.825l2.162,2.732a4.371,4.371,0,0,1,.943,2.711v3.16c.125.011.254.018.39.018,1.98,0,2.752-1.159,3.79-2.063a2.771,2.771,0,0,0,.289-3.887L353.2,68.408V68.34Z" transform="translate(-349.48 -68.34)" fill="#cad0d7"/>
      </g>
      <g id="Grupo_1182036" data-name="Grupo 1182036" transform="translate(90.115 16.189)">
        <path id="Trazado_910081" data-name="Trazado 910081" d="M247.471,130.523c2.8-.292,3.08-2.718,5.541-3.113a3.593,3.593,0,0,1,.953,0v.1c-1.925.242-2.425,1.181-3.784,2.318a3.523,3.523,0,0,1-2.711.8S247.471,130.523,247.471,130.523Z" transform="translate(-247.47 -127.377)" fill="#fff"/>
      </g>
      <g id="Grupo_1182037" data-name="Grupo 1182037" transform="translate(92.735 31.496)">
        <path id="Trazado_910082" data-name="Trazado 910082" d="M274.08,284.669a3.727,3.727,0,0,0,6.6.352,3.727,3.727,0,0,0-6.6-.352" transform="translate(-274.08 -282.836)" fill="#46ceac"/>
      </g>
      <g id="Grupo_1182038" data-name="Grupo 1182038" transform="translate(92.738 33.333)">
        <path id="Trazado_910083" data-name="Trazado 910083" d="M277.3,303.665a3.741,3.741,0,0,0,.83-.048.968.968,0,0,0-.111-1.921l-3.911-.206A3.727,3.727,0,0,0,277.3,303.665Z" transform="translate(-274.11 -301.49)" fill="#2ba585"/>
      </g>
      <g id="Grupo_1182039" data-name="Grupo 1182039" transform="translate(90.852 27.94)">
        <path id="Trazado_910084" data-name="Trazado 910084" d="M256.691,251.96a2.958,2.958,0,0,1-.28-5.24,2.958,2.958,0,0,1,.28,5.24" transform="translate(-254.956 -246.72)" fill="#46ceac"/>
      </g>
      <g id="Grupo_1182040" data-name="Grupo 1182040" transform="translate(92.416 29.393)">
        <path id="Trazado_910085" data-name="Trazado 910085" d="M271.008,265.264a2.961,2.961,0,0,0,1.39-3.168.789.789,0,0,0-1.559.209l.142,2.944.027.015Z" transform="translate(-270.838 -261.477)" fill="#2ba585"/>
      </g>
      <g id="Grupo_1182041" data-name="Grupo 1182041" transform="translate(83.631 31.201)">
        <path id="Trazado_910086" data-name="Trazado 910086" d="M183.6,281.991l-1.7,4.076a3.49,3.49,0,0,0,4.564,4.564l4.076-1.7a3.49,3.49,0,0,0,1.125-5.689l-2.377-2.377A3.491,3.491,0,0,0,183.6,281.991Z" transform="translate(-181.624 -279.843)" fill="#ee7067"/>
      </g>
      <g id="Grupo_1182042" data-name="Grupo 1182042" transform="translate(83.631 35.353)">
        <path id="Trazado_910087" data-name="Trazado 910087" d="M192.239,322.01l-5.458,2.749a2.325,2.325,0,0,1-2.584-.333l-1.783-1.574-.512,1.23a3.49,3.49,0,0,0,4.564,4.564l4.076-1.7A3.493,3.493,0,0,0,192.239,322.01Z" transform="translate(-181.624 -322.01)" fill="#cd5252"/>
      </g>
      <g id="Grupo_1182043" data-name="Grupo 1182043" transform="translate(72.928 4.044)">
        <path id="Trazado_910088" data-name="Trazado 910088" d="M187.5,238.007a4.259,4.259,0,0,0-1.166.2q.016-.134.021-.269a3.806,3.806,0,0,0-2.235-3.6,1.243,1.243,0,0,0-1.136.06,3.823,3.823,0,0,0-1.866,3.656,3.885,3.885,0,0,0-4.428,2.724c-.671,1.256-1.331,2.529-1.98,3.8a4.151,4.151,0,0,0-.478,2.448,4.405,4.405,0,0,0,5.485,3.68,6.515,6.515,0,0,0,.62-.2c1.333-.5,2.664-1,3.976-1.551a4.824,4.824,0,0,0,1.221-.744,4.617,4.617,0,0,0,1.6-4.168l.046.007a4.573,4.573,0,0,0,4.527-2.225,1.23,1.23,0,0,0,.056-1.129A4.572,4.572,0,0,0,187.5,238.007Zm-3.146,1.2a2.869,2.869,0,0,1-.223.673l-.419-.373c-.125-.109-.328-.293-.494-.437a2.375,2.375,0,0,1-.041-.959,2.272,2.272,0,0,1,.513-1.13A2.4,2.4,0,0,1,184.357,239.207Zm-.987,7.473c-1.354.565-2.691,1.17-4.022,1.788a2.485,2.485,0,0,1-2.739-.357,2.747,2.747,0,0,1-.779-3.068c.446-1.355.877-2.716,1.3-4.079a3.146,3.146,0,0,1,3.13-1.514,2.761,2.761,0,0,1,1.745,1.011l.354.4c.55.621,1.225,1.371,1.791,1.981A2.378,2.378,0,0,1,183.37,246.68Zm2.92-4.733a4.34,4.34,0,0,0-.484-.545c-.287-.269-.6-.556-.916-.843a2.858,2.858,0,0,0,.29-.21,3.436,3.436,0,0,1,2.215-.312,3.019,3.019,0,0,1,1.769,1.085,2.943,2.943,0,0,1-.529.43A3.079,3.079,0,0,1,186.29,241.947Z" transform="translate(-164.233 -211.565)"/>
        <path id="Trazado_910089" data-name="Trazado 910089" d="M108.97,14.516c-.018-.023-.026-.031-.037-.045l-.033-.04-.272-.319c-.893-1.046-2.5-2.914-3.53-4.12,0-.867-.017-2.274-.018-2.838l0-.571a2.6,2.6,0,0,0-2.606-2.537c-7.482.068-15,.2-22.477.419a3.365,3.365,0,0,0-1.355.191,2.114,2.114,0,0,0-1.271,2.018c.045,1.171.076,2.42.126,3.6-1.126,1.436-2.734,3.493-3.783,4.873a3.09,3.09,0,0,0-.194,3.864,9.938,9.938,0,0,0,.869.916c-.473,8.638-.687,17.283-.828,25.931,0,.236-.016.881-.017,1.107a6.451,6.451,0,0,0,6.333,6.717c3.026.025,8.014.033,11.081.038s8.07-.013,11.081-.037a6.451,6.451,0,0,0,6.337-6.323c0-1.015-.055-3.412-.068-4.455-.139-7.3-.342-14.634-.724-21.931.283-.253.546-.515.817-.756a4.071,4.071,0,0,0,1.3-1.861,4,4,0,0,0-.728-3.836ZM78.637,8.251c.013-.276.038-1.254.052-1.508a.725.725,0,0,1,.754-.782c7.663.231,15.36.367,23.025.435a.23.23,0,0,1,.221.231l0,.526c0,.572-.014,1.981-.018,2.845a78.076,78.076,0,0,0-11.713-.787,75.033,75.033,0,0,0-12.385.9c.024-.618.042-1.238.065-1.857ZM74.961,20.5a4.349,4.349,0,0,0,2.57,1.236,4.445,4.445,0,0,0,3.522-1.076c.465-.385.856-.783,1.253-1.089a3.065,3.065,0,0,1,1.917-.713,3.135,3.135,0,0,1,1.93.534c.6.411,1.175,1.141,1.8,1.653a4.876,4.876,0,0,0,4.831.807,5.59,5.59,0,0,0,1.689-1.08c.456-.4.83-.78,1.2-1.042a2.905,2.905,0,0,1,2.37-.472c1.24.248,1.892,1.44,2.939,2.19a4.8,4.8,0,0,0,2.328.929v1.765l-.127-.012a145.734,145.734,0,0,0-24.449,0c-1.193.112-2.385.235-3.572.41Q75.07,22.516,74.961,20.5Zm25.714,30.785c-4.918-.023-10.9-.037-15.624-.018-.952.006-3.514.015-4.428.023a9.764,9.764,0,0,1-1.3-.038,4.173,4.173,0,0,1-3.555-4.289c0-.135-.006-.409-.01-.66.988.131,1.977.231,2.969.325a145.763,145.763,0,0,0,21.944.19Zm0-6.308c-3.235-.22-6.482-.289-9.72-.3a129.228,129.228,0,0,0-14.262.718c-.314.036-.629.075-.943.116q-.111-7.206-.342-14.411c-.071-1.977-.142-3.953-.224-5.931a118.234,118.234,0,0,0,15.77.918c4.119-.009,8.247-.139,12.352-.521V35.588a4.139,4.139,0,0,1-.9,2.57l-.727.911a4.632,4.632,0,0,0-1.006,2.876Zm1.337,6.315-.845,0v-4.5q1.007-.071,2.013-.154c.991-.094,1.98-.194,2.967-.325,0,.22-.007.438-.01.658A4.164,4.164,0,0,1,102.012,51.289Zm4.146-5.778q-.792-.1-1.584-.191l1.614-1.614q-.016.9-.03,1.8ZM106.2,43l-2.255,2.255q-1.058-.109-2.118-.193l4.419-4.419Q106.222,41.819,106.2,43Zm.061-3.069-5.081,5.081h-.015v-2.3l5.15-5.15Q106.288,38.746,106.261,39.928Zm.073-3.079-5.168,5.168v-.071a4.139,4.139,0,0,1,.9-2.57l.727-.911a4.555,4.555,0,0,0,.6-.984l3.007-3.007Q106.364,35.662,106.334,36.849Zm.084-3.092-2.7,2.7a4.564,4.564,0,0,0,.086-.875V34.065l2.694-2.694Q106.453,32.565,106.418,33.757Zm.1-3.1L103.8,33.369V31.058l2.8-2.8Q106.556,29.455,106.515,30.653Zm.2-5.462q-.049,1.17-.093,2.343L103.8,30.362V28.051l2.874-2.874.048-.007c0,.007,0,.014,0,.021ZM103.8,27.355V25.513q.709-.069,1.418-.149l.652-.079Zm2.95-2.819c-.981-.144-1.964-.252-2.95-.349V22.415a5.562,5.562,0,0,0,1.425-.131,4.947,4.947,0,0,0,1.668-.758c-.052,1.022-.1,2.091-.143,3.01Zm.191-6.268a10.091,10.091,0,0,1-1.825,1.546,2.815,2.815,0,0,1-1.316.266V18.073a4.634,4.634,0,0,0-1-2.864l-2.45-3.095a.246.246,0,0,0-.386.305l2.45,3.095a4.137,4.137,0,0,1,.89,2.558v1.954a2.461,2.461,0,0,1-.474-.138c-.914-.391-1.494-1.26-2.428-1.908a5.008,5.008,0,0,0-5.95.148c-1.29,1.037-1.872,2.264-3.632,2.216-1.706.05-2.444-1.4-3.816-2.259a4.709,4.709,0,0,0-4.75-.078,11.622,11.622,0,0,0-1.991,1.744,3.276,3.276,0,0,1-1.906.949,3.446,3.446,0,0,1-2.139-.358,6.831,6.831,0,0,1-1.246-.964c-.289-.277-.633-.515-.886-.812a2.49,2.49,0,0,1-.018-3.112c1.245-1.31,3.119-3.321,4.36-4.665a.212.212,0,0,0,.018-.024c.878.162,1.76.279,2.645.386a7.914,7.914,0,0,0-2.85,4.2,7.606,7.606,0,0,0-.043,3.887.27.27,0,0,0,.465.1,5.386,5.386,0,0,0,.4-.562c.214-.32.457-.805.634-1.147.643-1.292,1.7-3.413,2.359-4.7.164-.312.382-.768.545-1.092.079-.171.161-.338.239-.506l.085.008a5.692,5.692,0,0,0,.266.772,5.511,5.511,0,0,0,1.517,2.034,4.919,4.919,0,0,0,1.3.8.323.323,0,0,0,.431-.2,3.517,3.517,0,0,0-.8-3.208c1.768.1,3.54.142,5.309.143a77.806,77.806,0,0,0,11.789-.8,1.2,1.2,0,0,0,.212.357c.7.828,2.577,3.042,3.255,3.836.19.222.666.789.849,1a1.565,1.565,0,0,1-.121,2.2Z" transform="translate(-72.928 -4.044)"/>
      </g>
    </g>
  </g>
</svg>
