<svg xmlns="http://www.w3.org/2000/svg" xmlns:xlink="http://www.w3.org/1999/xlink" width="102.949" height="102.949" viewBox="0 0 102.949 102.949">
  <defs>
    <filter id="Trazado_874925" x="0" y="0" width="102.949" height="102.949" filterUnits="userSpaceOnUse">
      <feOffset dy="3" input="SourceAlpha"/>
      <feGaussianBlur stdDeviation="3" result="blur"/>
      <feFlood flood-opacity="0.161"/>
      <feComposite operator="in" in2="blur"/>
      <feComposite in="SourceGraphic"/>
    </filter>
  </defs>
  <g id="Grupo_1182075" data-name="Grupo 1182075" transform="translate(-906.051 -10627.413)">
    <g id="Grupo_1181859" data-name="Grupo 1181859" transform="translate(106.551 8116.256)">
      <g id="Grupo_1111316" data-name="Grupo 1111316" transform="translate(808.5 2517.157)">
        <g id="Grupo_1109835" data-name="Grupo 1109835" transform="translate(0 0)">
          <g id="Grupo_1107913" data-name="Grupo 1107913" transform="translate(0 0)">
            <g transform="matrix(1, 0, 0, 1, -9, -6)" filter="url(#Trazado_874925)">
              <g id="Trazado_874925-2" data-name="Trazado 874925" transform="translate(9 6)" fill="#4c6929" opacity="0.859">
                <path d="M 42.47446823120117 83.44929504394531 C 36.94229125976562 83.44929504394531 31.57638549804688 82.36614227294922 26.52582168579102 80.22994232177734 C 21.64678573608398 78.16628265380859 17.26464462280273 75.211669921875 13.50113868713379 71.44816589355469 C 9.737632751464844 67.68466949462891 6.78300952911377 63.30253982543945 4.719362258911133 58.42351913452148 C 2.583150625228882 53.37295150756836 1.499997615814209 48.00706100463867 1.499997615814209 42.47489547729492 C 1.499997615814209 36.94223403930664 2.583150625228882 31.57634162902832 4.719362258911133 26.52577781677246 C 6.78300952911377 21.64675331115723 9.737632751464844 17.26462364196777 13.50113868713379 13.50113010406494 C 17.26464462280273 9.737624168395996 21.64678573608398 6.783012390136719 26.52582168579102 4.719353199005127 C 31.57638549804688 2.583153486251831 36.94229125976562 1.500000476837158 42.47446823120117 1.500000476837158 C 48.00664520263672 1.500000476837158 53.37255096435547 2.583153486251831 58.42311477661133 4.719353199005127 C 63.30215072631836 6.783012390136719 67.68428802490234 9.737624168395996 71.44779968261719 13.50113010406494 C 75.2113037109375 17.26462364196777 78.16592407226562 21.64675331115723 80.22957611083984 26.52577781677246 C 82.36578369140625 31.57634162902832 83.44893646240234 36.94223403930664 83.44893646240234 42.47439956665039 C 83.44893646240234 48.00706100463867 82.36578369140625 53.37295150756836 80.22957611083984 58.42351913452148 C 78.16592407226562 63.30253982543945 75.2113037109375 67.68466949462891 71.44779968261719 71.44816589355469 C 67.68428802490234 75.211669921875 63.30215072631836 78.16628265380859 58.42311477661133 80.22994232177734 C 53.37255096435547 82.36614227294922 48.00664520263672 83.44929504394531 42.47446823120117 83.44929504394531 Z" stroke="none"/>
                <path d="M 42.47446823120117 2.999992370605469 C 37.14412307739258 2.999992370605469 31.97481536865234 4.04327392578125 27.11014938354492 6.100860595703125 C 22.40990829467773 8.088890075683594 18.18804168701172 10.93555450439453 14.56179809570312 14.56178283691406 C 10.93557739257812 18.18801116943359 8.088897705078125 22.40987396240234 6.100868225097656 27.11009979248047 C 4.043281555175781 31.97476577758789 3 37.14406204223633 3 42.47488784790039 C 3 47.80522155761719 4.043281555175781 52.97451400756836 6.100868225097656 57.83917999267578 C 8.088897705078125 62.53940582275391 10.93557739257812 66.76127624511719 14.56179809570312 70.38749694824219 C 18.18804168701172 74.01372528076172 22.40990829467773 76.86039733886719 27.11014938354492 78.84841918945312 C 31.97481536865234 80.906005859375 37.14412307739258 81.94928741455078 42.47446823120117 81.94928741455078 C 47.80481338500977 81.94928741455078 52.97412109375 80.906005859375 57.83879089355469 78.84841918945312 C 62.53902816772461 76.86039733886719 66.76089477539062 74.01372528076172 70.38713073730469 70.38749694824219 C 74.01335906982422 66.76127624511719 76.86003875732422 62.53940582275391 78.84806823730469 57.83917999267578 C 80.90565490722656 52.97451400756836 81.94893646240234 47.80522155761719 81.94893646240234 42.47439575195312 C 81.94893646240234 37.14406204223633 80.90565490722656 31.97476577758789 78.84806823730469 27.11009979248047 C 76.86003875732422 22.40987396240234 74.01335906982422 18.18801116943359 70.38713073730469 14.56178283691406 C 66.76089477539062 10.93555450439453 62.53902816772461 8.088890075683594 57.83879089355469 6.100860595703125 C 52.97412109375 4.04327392578125 47.80481338500977 2.999992370605469 42.47446823120117 2.999992370605469 M 42.47446823120117 -7.62939453125e-06 C 65.93246459960938 -7.62939453125e-06 84.94893646240234 19.01643371582031 84.94893646240234 42.47439575195312 L 84.94893646240234 42.47488784790039 C 84.94893646240234 65.93284606933594 65.93246459960938 84.94928741455078 42.47446823120117 84.94928741455078 C 19.01647186279297 84.94928741455078 0 65.93284606933594 0 42.47488784790039 L 0 42.47439575195312 C 0 19.01643371582031 19.01647186279297 -7.62939453125e-06 42.47446823120117 -7.62939453125e-06 Z" stroke="none" fill="#fff"/>
              </g>
            </g>
            <g id="Trazado_874923" data-name="Trazado 874923" transform="translate(0 0)" fill="none">
              <path d="M42.474,0A42.474,42.474,0,0,1,84.949,42.474h0A42.474,42.474,0,0,1,0,42.475H0A42.474,42.474,0,0,1,42.474,0Z" stroke="none"/>
              <path d="M 42.47446823120117 2.999992370605469 C 37.14412307739258 2.999992370605469 31.97481536865234 4.04327392578125 27.11014938354492 6.100860595703125 C 22.40990829467773 8.088890075683594 18.18804168701172 10.93555450439453 14.56179809570312 14.56178283691406 C 10.93557739257812 18.18801116943359 8.088897705078125 22.40987396240234 6.100868225097656 27.11009979248047 C 4.043281555175781 31.97476577758789 3 37.14406204223633 3 42.47488784790039 C 3 47.80522155761719 4.043281555175781 52.97451400756836 6.100868225097656 57.83917999267578 C 8.088897705078125 62.53940582275391 10.93557739257812 66.76127624511719 14.56179809570312 70.38749694824219 C 18.18804168701172 74.01372528076172 22.40990829467773 76.86039733886719 27.11014938354492 78.84841918945312 C 31.97481536865234 80.906005859375 37.14412307739258 81.94928741455078 42.47446823120117 81.94928741455078 C 47.80481338500977 81.94928741455078 52.97412109375 80.906005859375 57.83879089355469 78.84841918945312 C 62.53902816772461 76.86039733886719 66.76089477539062 74.01372528076172 70.38713073730469 70.38749694824219 C 74.01335906982422 66.76127624511719 76.86003875732422 62.53940582275391 78.84806823730469 57.83917999267578 C 80.90565490722656 52.97451400756836 81.94893646240234 47.80522155761719 81.94893646240234 42.47439575195312 C 81.94893646240234 37.14406204223633 80.90565490722656 31.97476577758789 78.84806823730469 27.11009979248047 C 76.86003875732422 22.40987396240234 74.01335906982422 18.18801116943359 70.38713073730469 14.56178283691406 C 66.76089477539062 10.93555450439453 62.53902816772461 8.088890075683594 57.83879089355469 6.100860595703125 C 52.97412109375 4.04327392578125 47.80481338500977 2.999992370605469 42.47446823120117 2.999992370605469 M 42.47446823120117 -7.62939453125e-06 C 65.93246459960938 -7.62939453125e-06 84.94893646240234 19.01643371582031 84.94893646240234 42.47439575195312 L 84.94893646240234 42.47488784790039 C 84.94893646240234 65.93284606933594 65.93246459960938 84.94928741455078 42.47446823120117 84.94928741455078 C 19.01647186279297 84.94928741455078 0 65.93284606933594 0 42.47488784790039 L 0 42.47439575195312 C 0 19.01643371582031 19.01647186279297 -7.62939453125e-06 42.47446823120117 -7.62939453125e-06 Z" stroke="none" fill="#fff"/>
            </g>
          </g>
        </g>
      </g>
    </g>
    <g id="comida-sana" transform="translate(931.14 10649.397)">
      <g id="Grupo_1182060" data-name="Grupo 1182060" transform="translate(0.693 0.786)">
        <g id="Grupo_1182050" data-name="Grupo 1182050" transform="translate(3.807)">
          <g id="Grupo_1182047" data-name="Grupo 1182047" transform="translate(5.029)">
            <path id="Trazado_910099" data-name="Trazado 910099" d="M114.96,17.586a3.942,3.942,0,0,0-3.184-.214c.729-2.46.236-4.833-1.341-5.713-1.286-.718-2.964-.259-4.385,1.016-.547-2.379-2.723-5.919-5.559-5.036S97.752,12.709,98.579,15c-1.869-.251-3.513.325-4.2,1.656-.838,1.633.03,3.889,1.962,5.52a4.063,4.063,0,0,0-2.535,1.995c-2.541,4.951,4.739,9.535,8.561,9.817l2.717,9.238a5.625,5.625,0,0,0,7.022,3.921h0a5.846,5.846,0,0,0,3.732-7.27l-2.717-9.238C116.156,28.224,119.741,20.256,114.96,17.586Z" transform="translate(-93.284 -7.501)" fill="#9be69d"/>
          </g>
          <g id="Grupo_1182049" data-name="Grupo 1182049" transform="translate(0 17.137)">
            <path id="Trazado_910100" data-name="Trazado 910100" d="M61.706,201.764c4.028-.844,11.232-6.686,7.975-11.5a4.185,4.185,0,0,0-2.916-1.724c1.866-1.984,2.532-4.468,1.457-6.057-.876-1.295-2.686-1.661-4.642-1.131.617-2.516.245-6.912-2.865-7.429s-5.019,3.5-5.33,6.066c-1.653-1.131-3.485-1.37-4.769-.434-1.574,1.148-1.828,3.7-.776,6.17a4.314,4.314,0,0,0-3.356.681c-4.774,3.48-.061,11.3,3.427,13.4Z" transform="translate(-44.46 -173.879)" fill="#9be69d"/>
            <g id="Grupo_1182048" data-name="Grupo 1182048" transform="translate(11.629)">
              <path id="Trazado_910101" data-name="Trazado 910101" d="M159.453,177.111c2.738.455,3.441,3.8,3.205,6.4a1.024,1.024,0,0,0,1.089,1.114,3.744,3.744,0,0,1,3.532,1.407c1.12,1.656.425,4.246-1.52,6.314a4.362,4.362,0,0,1,3.041,1.8,4.748,4.748,0,0,1,.8,3.466c1.961-2.187,3.01-4.9,1.354-7.349a4.185,4.185,0,0,0-2.916-1.724c1.866-1.984,2.532-4.468,1.457-6.057-.876-1.295-2.686-1.661-4.642-1.131.617-2.516.245-6.912-2.865-7.429-2.174-.362-3.762,1.493-4.626,3.519A3.289,3.289,0,0,1,159.453,177.111Z" transform="translate(-157.361 -173.879)" fill="#6fd7a3"/>
            </g>
            <path id="Trazado_910102" data-name="Trazado 910102" d="M129.724,358.758l-5.452,2.249-4.333-3.876" transform="translate(-112.165 -338.256)" fill="none"/>
          </g>
        </g>
        <g id="Grupo_1182053" data-name="Grupo 1182053" transform="translate(21.3 5.279)">
          <path id="Trazado_910103" data-name="Trazado 910103" d="M232.838,91.965a44.615,44.615,0,0,0,26.071,0l-2.881-7.809-8.853-23.992a1.387,1.387,0,0,0-2.6,0l-8.853,23.992Z" transform="translate(-230.928 -59.206)" fill="#fd8087"/>
          <path id="Trazado_910103_-_Contorno" data-name="Trazado 910103 - Contorno" d="M245.288,93.515a44.608,44.608,0,0,1-13.05-1.949l-.052-.016.019-.051,2.881-7.809L243.938,59.7a1.424,1.424,0,0,1,.552-.706,1.47,1.47,0,0,1,1.6,0,1.424,1.424,0,0,1,.552.706L258.391,91.55l-.052.016A44.608,44.608,0,0,1,245.288,93.515ZM232.32,91.483a44.564,44.564,0,0,0,25.936,0l-11.715-31.75a1.321,1.321,0,0,0-.512-.655,1.367,1.367,0,0,0-1.482,0,1.321,1.321,0,0,0-.512.655Z" transform="translate(-230.343 -58.757)"/>
          <path id="Trazado_910104" data-name="Trazado 910104" d="M347.49,84.156l3.286,8.77q1.873-.4,3.716-.961l-2.881-7.809-8.853-23.992a1.387,1.387,0,0,0-2.6,0L339.4,62.22Z" transform="translate(-326.51 -59.206)" fill="#fe646f"/>
          <path id="Trazado_910104_-_Contorno" data-name="Trazado 910104 - Contorno" d="M350.265,92.537l-.016-.042-3.286-8.77-8.1-21.954.765-2.073a1.424,1.424,0,0,1,.552-.706,1.47,1.47,0,0,1,1.6,0,1.424,1.424,0,0,1,.552.706L354.081,91.55l-.052.016c-1.208.369-2.459.693-3.72.962ZM338.973,61.772,347.06,83.69l3.27,8.728c1.225-.263,2.441-.577,3.616-.935l-11.715-31.75a1.321,1.321,0,0,0-.512-.655,1.367,1.367,0,0,0-1.482,0,1.321,1.321,0,0,0-.512.655Z" transform="translate(-326.032 -58.757)"/>
          <g id="Grupo_1182051" data-name="Grupo 1182051" transform="translate(0 32.759)">
            <path id="Trazado_910105" data-name="Trazado 910105" d="M216.2,376.809l-1.824,4.944a1.39,1.39,0,0,0,.877,1.8,45.245,45.245,0,0,0,27.966,0,1.39,1.39,0,0,0,.877-1.8l-1.824-4.944A44.616,44.616,0,0,1,216.2,376.809Z" transform="translate(-214.292 -376.809)" fill="#9be69d"/>
          </g>
          <g id="Grupo_1182052" data-name="Grupo 1182052" transform="translate(24.228 32.759)">
            <path id="Trazado_910106" data-name="Trazado 910106" d="M455.093,381.753l-1.824-4.944q-1.859.568-3.753.969l1.939,5.12a1.387,1.387,0,0,1-.448,1.571q1.619-.4,3.21-.914A1.39,1.39,0,0,0,455.093,381.753Z" transform="translate(-449.516 -376.809)" fill="#6fd7a3"/>
          </g>
        </g>
        <g id="Grupo_1182056" data-name="Grupo 1182056" transform="translate(0 18.526)">
          <path id="Trazado_910107" data-name="Trazado 910107" d="M17.036,187.367a16.083,16.083,0,0,0-3.227,5.369q-.2.551-.355,1.106l4.19.01a13.543,13.543,0,0,1,.467-5.611Z" transform="translate(-12.841 -187.367)" fill="#ae6c6c"/>
          <g id="Grupo_1182054" data-name="Grupo 1182054" transform="translate(0 6.475)">
            <path id="Trazado_910108" data-name="Trazado 910108" d="M21.357,261.471A13.719,13.719,0,0,1,12.3,250.239l-4.19-.01a16.134,16.134,0,0,0,28.662,13.742,2.676,2.676,0,0,0-.083-3.21l-.015-.019a2.689,2.689,0,0,0-3.545-.594A13.649,13.649,0,0,1,21.357,261.471Z" transform="translate(-7.5 -250.229)" fill="#ffe177"/>
          </g>
          <g id="Grupo_1182055" data-name="Grupo 1182055" transform="translate(0.611 6.475)">
            <path id="Trazado_910109" data-name="Trazado 910109" d="M159.323,343.5l-.015-.019a2.689,2.689,0,0,0-3.545-.594q-.355.223-.724.422c.052.055.1.112.15.172l.015.019a2.676,2.676,0,0,1,.083,3.21,16.17,16.17,0,0,1-11.074,6.63,16.157,16.157,0,0,0,15.194-6.63A2.675,2.675,0,0,0,159.323,343.5Z" transform="translate(-130.74 -332.969)" fill="#ffd15b"/>
            <path id="Trazado_910110" data-name="Trazado 910110" d="M13.5,250.239a13.67,13.67,0,0,0,15.626,11.844,13.676,13.676,0,0,1-11.506-11.844l-4.19-.01,0,.009Z" transform="translate(-13.429 -250.229)" fill="#ffd15b"/>
          </g>
        </g>
        <g id="Grupo_1182059" data-name="Grupo 1182059" transform="translate(0 40.935)">
          <g id="Grupo_1182058" data-name="Grupo 1182058">
            <path id="Trazado_910111" data-name="Trazado 910111" d="M11.943,411.819l.168,0c-.74.514-1.117,1.072-.947,1.538.322.88,2.482,1.093,4.824.477q.217-.057.426-.121a1.058,1.058,0,0,0,.052,1.143c1.5,1.795,6.886-1.439,7.49-3.2l8-.007L31.949,409l-8,.007c-1.183-2.535-5.953-4.932-7.506-3.171a1.038,1.038,0,0,0-.047,1.143q-.209-.063-.426-.119c-2.345-.606-4.5-.383-4.821.5-.168.466.212,1.023.954,1.533h-.168c-2.452.006-4.438.554-4.436,1.476S9.491,411.825,11.943,411.819Z" transform="translate(-7.5 -405.197)" fill="#9be69d"/>
            <g id="Grupo_1182057" data-name="Grupo 1182057" transform="translate(15.67)">
              <path id="Trazado_910112" data-name="Trazado 910112" d="M190.139,415.184H164.766a5.127,5.127,0,0,1-5.127-5.127h0a5.127,5.127,0,0,1,6.316-4.987l24.681,5.888a2.142,2.142,0,0,1,1.645,2.084h0A2.142,2.142,0,0,1,190.139,415.184Z" transform="translate(-159.639 -404.928)" fill="#fe9738"/>
            </g>
          </g>
        </g>
      </g>
      <g id="Grupo_1182074" data-name="Grupo 1182074" transform="translate(-0.089 0.015)">
        <g id="Grupo_1182063" data-name="Grupo 1182063" transform="translate(6.461 0)">
          <g id="Grupo_1182061" data-name="Grupo 1182061" transform="translate(2.386)">
            <path id="Trazado_910113" data-name="Trazado 910113" d="M88.2,24.082a.773.773,0,0,1-.581-.263c-1.892-2.156-2.32-4.54-1.2-6.714a4.55,4.55,0,0,1,1.85-1.9c-1.614-1.8-2.134-3.951-1.278-5.618A4.141,4.141,0,0,1,90.4,7.49c.33-.827.6-.851.939-.88.754-.065,1.014.7,1.186,1.2l.074.214a.773.773,0,0,1-.829,1.028q-.123-.017-.244-.028c-.339,1.329-.776,3.642-1.2,6.083a.773.773,0,0,1-.158.919c-.5,2.907-.958,5.845-1.2,7.4a.773.773,0,0,1-.763.653Zm.237-7.106a2.9,2.9,0,0,0-.647.835,3.739,3.739,0,0,0-.048,3.445C88,19.66,88.231,18.241,88.442,16.976Zm1.473-7.831A2.372,2.372,0,0,0,88.367,10.3a3.32,3.32,0,0,0,.643,3.371C89.375,11.62,89.667,10.171,89.915,9.145Zm20.441,5.111a.773.773,0,0,1-.74-.554,3.551,3.551,0,0,0-1.734-2.156,3.23,3.23,0,0,0-2.572-.153.772.772,0,0,1-.976-.955c.64-2.159.238-4.141-.977-4.819-.94-.525-2.278-.174-3.492.916a.773.773,0,0,1-1.269-.4,7.088,7.088,0,0,0-2.753-4.24,2.188,2.188,0,0,0-1.823-.231A.772.772,0,1,1,93.559.187a3.753,3.753,0,0,1,3.052.366,8.134,8.134,0,0,1,3.15,4.123,4.2,4.2,0,0,1,4.347-.406c1.615.9,2.348,2.988,1.978,5.4a4.4,4.4,0,0,1,2.547.53,5.047,5.047,0,0,1,2.462,3.067.773.773,0,0,1-.741.992Z" transform="translate(-85.811 -0.015)"/>
            <path id="Línea_603" data-name="Línea 603" d="M-4.284,2.359A.773.773,0,0,1-5.025,1.8L-7.47-6.511a.772.772,0,0,1,.523-.959.772.772,0,0,1,.959.523l2.445,8.316a.772.772,0,0,1-.523.959A.773.773,0,0,1-4.284,2.359Z" transform="translate(17.394 16.775)"/>
            <path id="Línea_604" data-name="Línea 604" d="M-6.728-2.707a.769.769,0,0,1-.5-.188.773.773,0,0,1-.079-1.09L-4.5-7.233a.773.773,0,0,1,1.09-.079.773.773,0,0,1,.079,1.09L-6.143-2.974A.771.771,0,0,1-6.728-2.707Z" transform="translate(21.665 24.295)"/>
            <path id="Trazado_910114" data-name="Trazado 910114" d="M163.013,101.591a.772.772,0,0,1-.2-.027l-3.379-.91a.773.773,0,0,1,.4-1.492l2.91.784,2-2.318a.772.772,0,1,1,1.169,1.01l-2.321,2.685A.773.773,0,0,1,163.013,101.591Z" transform="translate(-151.338 -87.334)"/>
          </g>
          <g id="Grupo_1182062" data-name="Grupo 1182062" transform="translate(0 17.136)">
            <path id="Trazado_910115" data-name="Trazado 910115" d="M63.415,180.091a.773.773,0,0,1-.332-1.471,4.96,4.96,0,0,1,1.949-.462c-.692-2.477-.167-4.775,1.438-5.945a4.506,4.506,0,0,1,4.668-.153A8.88,8.88,0,0,1,74,167.251a4.048,4.048,0,0,1,3.147-.808,3.938,3.938,0,0,1,2.686,1.784,8.617,8.617,0,0,1,1,5.44,4.434,4.434,0,0,1,4.33,1.664.773.773,0,1,1-1.28.866c-.652-.964-2.108-1.277-3.8-.818a.772.772,0,0,1-.952-.93,7.575,7.575,0,0,0-.592-5.372,2.368,2.368,0,0,0-1.65-1.11,2.474,2.474,0,0,0-1.967.521,7.792,7.792,0,0,0-2.469,4.876.773.773,0,0,1-1.2.545c-1.429-.978-2.915-1.149-3.878-.447-1.238.9-1.452,3.058-.52,5.243a.773.773,0,0,1-.843,1.064,3.722,3.722,0,0,0-2.271.248A.769.769,0,0,1,63.415,180.091Z" transform="translate(-62.642 -166.388)"/>
            <path id="Línea_605" data-name="Línea 605" d="M-6.728,3.8a.777.777,0,0,1-.14-.013.773.773,0,0,1-.621-.9l1.781-9.751a.773.773,0,0,1,.9-.621.773.773,0,0,1,.621.9L-5.969,3.162A.773.773,0,0,1-6.728,3.8Z" transform="translate(17.513 17.49)"/>
            <path id="Trazado_910116" data-name="Trazado 910116" d="M147.166,279.683a.772.772,0,0,1-.515-.2l-2.768-2.477a.772.772,0,1,1,1.03-1.151l2.407,2.153,3.035-1.252a.773.773,0,0,1,.589,1.428l-3.483,1.437A.772.772,0,0,1,147.166,279.683Z" transform="translate(-135.284 -264.407)"/>
          </g>
        </g>
        <g id="Grupo_1182067" data-name="Grupo 1182067" transform="translate(24.055 5.329)">
          <path id="Trazado_910117" data-name="Trazado 910117" d="M259.459,86.011a.773.773,0,0,1-.725-.505L247,53.7a.615.615,0,0,0-1.154,0l-10.9,29.535A.773.773,0,1,1,233.5,82.7L244.4,53.17a2.16,2.16,0,0,1,4.053,0l11.734,31.8a.773.773,0,0,1-.725,1.04Z" transform="translate(-233.451 -51.757)"/>
          <g id="Grupo_1182065" data-name="Grupo 1182065" transform="translate(8.086 19.487)">
            <path id="Línea_606" data-name="Línea 606" d="M-6.727-4.149A.773.773,0,0,1-7.5-4.921V-6.727A.772.772,0,0,1-6.727-7.5a.772.772,0,0,1,.773.773v1.806A.772.772,0,0,1-6.727-4.149Z" transform="translate(11.567 7.5)"/>
            <g id="Grupo_1182064" data-name="Grupo 1182064" transform="translate(0 4.737)">
              <path id="Línea_607" data-name="Línea 607" d="M-6.71-3.964a.772.772,0,0,1-.772-.766L-7.5-6.721A.773.773,0,0,1-6.734-7.5a.772.772,0,0,1,.779.766l.018,1.991a.773.773,0,0,1-.766.779Z" transform="translate(15.616 7.5)"/>
              <path id="Línea_608" data-name="Línea 608" d="M-6.71-3.964a.772.772,0,0,1-.772-.766L-7.5-6.721A.772.772,0,0,1-6.734-7.5a.772.772,0,0,1,.779.766l.018,1.991a.772.772,0,0,1-.766.779Z" transform="translate(7.5 7.5)"/>
            </g>
          </g>
          <g id="Grupo_1182066" data-name="Grupo 1182066" transform="translate(4.765 32.708)">
            <path id="Trazado_910118" data-name="Trazado 910118" d="M295.684,379.145a.773.773,0,0,1-.131-1.534,44.12,44.12,0,0,0,6.115-1.52.618.618,0,0,0,.368-.321.608.608,0,0,0,.023-.479l-1.574-4.265a45.626,45.626,0,0,1-20.124,1.138.773.773,0,0,1,.257-1.523,44.055,44.055,0,0,0,20.115-1.3.773.773,0,0,1,.951.471l1.824,4.944a2.163,2.163,0,0,1-1.362,2.8,45.661,45.661,0,0,1-6.329,1.573A.774.774,0,0,1,295.684,379.145Z" transform="translate(-279.717 -369.307)"/>
          </g>
        </g>
        <g id="Grupo_1182069" data-name="Grupo 1182069" transform="translate(0 18.525)">
          <path id="Trazado_910119" data-name="Trazado 910119" d="M10.309,179.867a.77.77,0,0,1,.487.173l1.075.873a.773.773,0,0,1,.253.822,12.718,12.718,0,0,0-.441,5.292.773.773,0,0,1-.768.869l-4.19-.01a.773.773,0,0,1-.741-.983q.164-.58.372-1.157a16.809,16.809,0,0,1,3.382-5.627A.771.771,0,0,1,10.309,179.867Zm.194,1.925-.1-.082a15.287,15.287,0,0,0-2.594,4.56l-.026.073,2.284.005A14.218,14.218,0,0,1,10.5,181.792Z" transform="translate(-5.332 -179.867)"/>
          <g id="Grupo_1182068" data-name="Grupo 1182068" transform="translate(0 6.475)">
            <path id="Trazado_910120" data-name="Trazado 910120" d="M7.07,261.5a.769.769,0,0,1-.465-.156A16.761,16.761,0,0,1,.563,243.29a.773.773,0,0,1,.745-.562l4.19.01a.773.773,0,0,1,.765.676,12.9,12.9,0,0,0,19.653,9.352,3.465,3.465,0,0,1,4.682,4.926,16.817,16.817,0,0,1-3.317,3.472.772.772,0,1,1-.954-1.216,15.273,15.273,0,0,0,3.013-3.153,1.92,1.92,0,0,0-2.6-2.72,14.439,14.439,0,0,1-21.9-9.793l-2.93-.007a15.217,15.217,0,0,0,5.636,15.833A.773.773,0,0,1,7.07,261.5Z" transform="translate(0.089 -242.728)"/>
          </g>
        </g>
        <g id="Grupo_1182073" data-name="Grupo 1182073" transform="translate(0.009 40.934)">
          <g id="Grupo_1182072" data-name="Grupo 1182072" transform="translate(0)">
            <path id="Trazado_910121" data-name="Trazado 910121" d="M11.084,409.425a2.4,2.4,0,0,1-1.938-.8,1.588,1.588,0,0,1-.32-.623c-2.214.458-4.6.307-5.115-1.106A1.5,1.5,0,0,1,3.74,405.8a9.432,9.432,0,0,1-1.893-.351C.323,404.977,0,404.2,0,403.638c0-1.512,2.109-2.013,3.731-2.175a1.5,1.5,0,0,1-.035-1.1c.511-1.414,2.89-1.578,5.1-1.13a1.535,1.535,0,0,1,.337-.641,2.851,2.851,0,0,1,2.39-.86,8.794,8.794,0,0,1,5.94,3.441.773.773,0,0,1-1.261.892,7.3,7.3,0,0,0-4.761-2.79,1.439,1.439,0,0,0-1.149.339.739.739,0,0,0,.082.324.773.773,0,0,1-.931,1.048q-.195-.059-.4-.111c-2.289-.592-3.742-.216-3.908.027a2.694,2.694,0,0,0,.672.621.773.773,0,0,1-.447,1.409H5.21c-2.271.005-3.371.469-3.628.7.257.231,1.36.69,3.632.685l.157,0a.772.772,0,0,1,.454,1.407c-.509.354-.648.615-.656.679.154.187,1.609.556,3.9-.046q.2-.053.4-.113a.773.773,0,0,1,.935,1.043c-.091.212-.08.325-.066.342a.959.959,0,0,0,.767.249,8.644,8.644,0,0,0,5.1-2.729.772.772,0,1,1,1.2.979c-1.266,1.546-4.224,3.284-6.286,3.3Z" transform="translate(0 -397.698)"/>
            <g id="Grupo_1182071" data-name="Grupo 1182071" transform="translate(15.67)">
              <path id="Trazado_910122" data-name="Trazado 910122" d="M174.892,409.231H158.038a5.9,5.9,0,1,1,1.369-11.638l24.681,5.888a2.915,2.915,0,0,1-.676,5.75h-5.435a.773.773,0,0,1,0-1.545h5.435a1.37,1.37,0,0,0,.318-2.7L159.049,399.1a4.354,4.354,0,1,0-1.01,8.59h16.854a.773.773,0,0,1,0,1.545Z" transform="translate(-152.139 -397.43)"/>
              <g id="Grupo_1182070" data-name="Grupo 1182070" transform="translate(10.572 1.288)">
                <path id="Línea_609" data-name="Línea 609" d="M-6.727-3.811A.773.773,0,0,1-7.5-4.584V-6.727A.773.773,0,0,1-6.727-7.5a.773.773,0,0,1,.773.773v2.144A.773.773,0,0,1-6.727-3.811Z" transform="translate(20.232 10.715)"/>
                <path id="Línea_610" data-name="Línea 610" d="M-6.727-3.425A.773.773,0,0,1-7.5-4.2v-2.53A.773.773,0,0,1-6.727-7.5a.773.773,0,0,1,.773.773V-4.2A.773.773,0,0,1-6.727-3.425Z" transform="translate(13.866 9.04)"/>
                <path id="Línea_611" data-name="Línea 611" d="M-6.727-3.174A.773.773,0,0,1-7.5-3.946V-6.727A.773.773,0,0,1-6.727-7.5a.773.773,0,0,1,.773.773v2.781A.773.773,0,0,1-6.727-3.174Z" transform="translate(7.5 7.5)"/>
              </g>
            </g>
          </g>
        </g>
      </g>
    </g>
  </g>
</svg>
