<svg xmlns="http://www.w3.org/2000/svg" xmlns:xlink="http://www.w3.org/1999/xlink" width="102.949" height="102.949" viewBox="0 0 102.949 102.949">
  <defs>
    <filter id="Trazado_874925" x="0" y="0" width="102.949" height="102.949" filterUnits="userSpaceOnUse">
      <feOffset dy="3" input="SourceAlpha"/>
      <feGaussianBlur stdDeviation="3" result="blur"/>
      <feFlood flood-opacity="0.161"/>
      <feComposite operator="in" in2="blur"/>
      <feComposite in="SourceGraphic"/>
    </filter>
  </defs>
  <g id="Grupo_1182094" data-name="Grupo 1182094" transform="translate(-591 -5423.47)">
    <g id="Grupo_1181885" data-name="Grupo 1181885" transform="translate(-208.5 2912.313)">
      <g id="Grupo_1111316" data-name="Grupo 1111316" transform="translate(808.5 2517.157)">
        <g id="Grupo_1109835" data-name="Grupo 1109835" transform="translate(0 0)">
          <g id="Grupo_1107913" data-name="Grupo 1107913" transform="translate(0 0)">
            <g transform="matrix(1, 0, 0, 1, -9, -6)" filter="url(#Trazado_874925)">
              <g id="Trazado_874925-2" data-name="Trazado 874925" transform="translate(9 6)" fill="#4c6929" opacity="0.859">
                <path d="M 42.47446823120117 83.44929504394531 C 36.94229125976562 83.44929504394531 31.57638549804688 82.36614227294922 26.52582168579102 80.22994232177734 C 21.64678573608398 78.16628265380859 17.26464462280273 75.211669921875 13.50113868713379 71.44816589355469 C 9.737632751464844 67.68466949462891 6.78300952911377 63.30253982543945 4.719362258911133 58.42351913452148 C 2.583150625228882 53.37295150756836 1.499997615814209 48.00706100463867 1.499997615814209 42.47489547729492 C 1.499997615814209 36.94223403930664 2.583150625228882 31.57634162902832 4.719362258911133 26.52577781677246 C 6.78300952911377 21.64675331115723 9.737632751464844 17.26462364196777 13.50113868713379 13.50113010406494 C 17.26464462280273 9.737624168395996 21.64678573608398 6.783012390136719 26.52582168579102 4.719353199005127 C 31.57638549804688 2.583153486251831 36.94229125976562 1.500000476837158 42.47446823120117 1.500000476837158 C 48.00664520263672 1.500000476837158 53.37255096435547 2.583153486251831 58.42311477661133 4.719353199005127 C 63.30215072631836 6.783012390136719 67.68428802490234 9.737624168395996 71.44779968261719 13.50113010406494 C 75.2113037109375 17.26462364196777 78.16592407226562 21.64675331115723 80.22957611083984 26.52577781677246 C 82.36578369140625 31.57634162902832 83.44893646240234 36.94223403930664 83.44893646240234 42.47439956665039 C 83.44893646240234 48.00706100463867 82.36578369140625 53.37295150756836 80.22957611083984 58.42351913452148 C 78.16592407226562 63.30253982543945 75.2113037109375 67.68466949462891 71.44779968261719 71.44816589355469 C 67.68428802490234 75.211669921875 63.30215072631836 78.16628265380859 58.42311477661133 80.22994232177734 C 53.37255096435547 82.36614227294922 48.00664520263672 83.44929504394531 42.47446823120117 83.44929504394531 Z" stroke="none"/>
                <path d="M 42.47446823120117 2.999992370605469 C 37.14412307739258 2.999992370605469 31.97481536865234 4.04327392578125 27.11014938354492 6.100860595703125 C 22.40990829467773 8.088890075683594 18.18804168701172 10.93555450439453 14.56179809570312 14.56178283691406 C 10.93557739257812 18.18801116943359 8.088897705078125 22.40987396240234 6.100868225097656 27.11009979248047 C 4.043281555175781 31.97476577758789 3 37.14406204223633 3 42.47488784790039 C 3 47.80522155761719 4.043281555175781 52.97451400756836 6.100868225097656 57.83917999267578 C 8.088897705078125 62.53940582275391 10.93557739257812 66.76127624511719 14.56179809570312 70.38749694824219 C 18.18804168701172 74.01372528076172 22.40990829467773 76.86039733886719 27.11014938354492 78.84841918945312 C 31.97481536865234 80.906005859375 37.14412307739258 81.94928741455078 42.47446823120117 81.94928741455078 C 47.80481338500977 81.94928741455078 52.97412109375 80.906005859375 57.83879089355469 78.84841918945312 C 62.53902816772461 76.86039733886719 66.76089477539062 74.01372528076172 70.38713073730469 70.38749694824219 C 74.01335906982422 66.76127624511719 76.86003875732422 62.53940582275391 78.84806823730469 57.83917999267578 C 80.90565490722656 52.97451400756836 81.94893646240234 47.80522155761719 81.94893646240234 42.47439575195312 C 81.94893646240234 37.14406204223633 80.90565490722656 31.97476577758789 78.84806823730469 27.11009979248047 C 76.86003875732422 22.40987396240234 74.01335906982422 18.18801116943359 70.38713073730469 14.56178283691406 C 66.76089477539062 10.93555450439453 62.53902816772461 8.088890075683594 57.83879089355469 6.100860595703125 C 52.97412109375 4.04327392578125 47.80481338500977 2.999992370605469 42.47446823120117 2.999992370605469 M 42.47446823120117 -7.62939453125e-06 C 65.93246459960938 -7.62939453125e-06 84.94893646240234 19.01643371582031 84.94893646240234 42.47439575195312 L 84.94893646240234 42.47488784790039 C 84.94893646240234 65.93284606933594 65.93246459960938 84.94928741455078 42.47446823120117 84.94928741455078 C 19.01647186279297 84.94928741455078 0 65.93284606933594 0 42.47488784790039 L 0 42.47439575195312 C 0 19.01643371582031 19.01647186279297 -7.62939453125e-06 42.47446823120117 -7.62939453125e-06 Z" stroke="none" fill="#fff"/>
              </g>
            </g>
            <g id="Trazado_874923" data-name="Trazado 874923" transform="translate(0 0)" fill="none">
              <path d="M42.474,0A42.474,42.474,0,0,1,84.949,42.474h0A42.474,42.474,0,0,1,0,42.475H0A42.474,42.474,0,0,1,42.474,0Z" stroke="none"/>
              <path d="M 42.47446823120117 2.999992370605469 C 37.14412307739258 2.999992370605469 31.97481536865234 4.04327392578125 27.11014938354492 6.100860595703125 C 22.40990829467773 8.088890075683594 18.18804168701172 10.93555450439453 14.56179809570312 14.56178283691406 C 10.93557739257812 18.18801116943359 8.088897705078125 22.40987396240234 6.100868225097656 27.11009979248047 C 4.043281555175781 31.97476577758789 3 37.14406204223633 3 42.47488784790039 C 3 47.80522155761719 4.043281555175781 52.97451400756836 6.100868225097656 57.83917999267578 C 8.088897705078125 62.53940582275391 10.93557739257812 66.76127624511719 14.56179809570312 70.38749694824219 C 18.18804168701172 74.01372528076172 22.40990829467773 76.86039733886719 27.11014938354492 78.84841918945312 C 31.97481536865234 80.906005859375 37.14412307739258 81.94928741455078 42.47446823120117 81.94928741455078 C 47.80481338500977 81.94928741455078 52.97412109375 80.906005859375 57.83879089355469 78.84841918945312 C 62.53902816772461 76.86039733886719 66.76089477539062 74.01372528076172 70.38713073730469 70.38749694824219 C 74.01335906982422 66.76127624511719 76.86003875732422 62.53940582275391 78.84806823730469 57.83917999267578 C 80.90565490722656 52.97451400756836 81.94893646240234 47.80522155761719 81.94893646240234 42.47439575195312 C 81.94893646240234 37.14406204223633 80.90565490722656 31.97476577758789 78.84806823730469 27.11009979248047 C 76.86003875732422 22.40987396240234 74.01335906982422 18.18801116943359 70.38713073730469 14.56178283691406 C 66.76089477539062 10.93555450439453 62.53902816772461 8.088890075683594 57.83879089355469 6.100860595703125 C 52.97412109375 4.04327392578125 47.80481338500977 2.999992370605469 42.47446823120117 2.999992370605469 M 42.47446823120117 -7.62939453125e-06 C 65.93246459960938 -7.62939453125e-06 84.94893646240234 19.01643371582031 84.94893646240234 42.47439575195312 L 84.94893646240234 42.47488784790039 C 84.94893646240234 65.93284606933594 65.93246459960938 84.94928741455078 42.47446823120117 84.94928741455078 C 19.01647186279297 84.94928741455078 0 65.93284606933594 0 42.47488784790039 L 0 42.47439575195312 C 0 19.01643371582031 19.01647186279297 -7.62939453125e-06 42.47446823120117 -7.62939453125e-06 Z" stroke="none" fill="#fff"/>
            </g>
          </g>
        </g>
      </g>
    </g>
    <g id="whatsapp" transform="translate(617.077 5446.568)">
      <path id="Trazado_910179" data-name="Trazado 910179" d="M21.708,54.629,15.887,56.57A6.116,6.116,0,0,1,8.15,48.833l1.9-5.707a24.7,24.7,0,1,1,11.656,11.5Z" transform="translate(-6.791 -6.728)" fill="#fbf1cf"/>
      <path id="Trazado_910180" data-name="Trazado 910180" d="M21.708,54.629,15.887,56.57A6.116,6.116,0,0,1,8.15,48.833l1.9-5.707a24.7,24.7,0,1,1,11.656,11.5Z" transform="translate(-6.791 -6.728)" fill="#fbf1cf"/>
      <path id="Trazado_910181" data-name="Trazado 910181" d="M22.612,27.282A24.758,24.758,0,0,0,10.053,60.9L8.15,66.6a6.116,6.116,0,0,0,7.737,7.737L21.709,72.4a24.666,24.666,0,0,0,26.734-3.693C16.029,63.535,19.155,33.669,22.612,27.282Z" transform="translate(-6.792 -24.499)" fill="#fae0bd"/>
      <path id="Trazado_910182" data-name="Trazado 910182" d="M71.395,50.974A20.408,20.408,0,0,0,53.159,80.532a3.634,3.634,0,0,1,.212,2.784l-2,5.988a1.8,1.8,0,0,0,2.274,2.274l6.1-2.032a3.632,3.632,0,0,1,2.738.189,20.4,20.4,0,1,0,8.911-38.76Z" transform="translate(-45.919 -45.833)" fill="#89d47f"/>
      <path id="Trazado_910183" data-name="Trazado 910183" d="M63.25,68.04A20.409,20.409,0,0,0,53.159,95.9a3.634,3.634,0,0,1,.212,2.784l-2,5.988a1.8,1.8,0,0,0,2.274,2.274l6.1-2.032a3.632,3.632,0,0,1,2.738.189,20.364,20.364,0,0,0,22.354-3.042C66.809,98.192,60.475,76.628,63.25,68.04Z" transform="translate(-45.919 -61.201)" fill="#5ec783"/>
      <path id="Trazado_910184" data-name="Trazado 910184" d="M137.905,151.754a22.163,22.163,0,0,0,5.509,4.068,11.494,11.494,0,0,0,12.674-1.41,2.906,2.906,0,0,0,.187-4.282l-2.049-2.049a2.906,2.906,0,0,0-3.465-.487l-2.792,1.549a2.4,2.4,0,0,1-2.45-.065,16.795,16.795,0,0,1-4.939-4.939,2.4,2.4,0,0,1-.065-2.45l1.549-2.792a2.906,2.906,0,0,0-.487-3.465l-2.049-2.049a2.906,2.906,0,0,0-4.282.187,11.494,11.494,0,0,0-1.41,12.674A22.162,22.162,0,0,0,137.905,151.754Z" transform="translate(-119.364 -119.277)" fill="#fbf1cf"/>
      <path id="Trazado_910185" data-name="Trazado 910185" d="M40.023,44.577a23.926,23.926,0,0,1-24.787,2.649.747.747,0,0,0-.555-.033L8.86,49.133A5.37,5.37,0,0,1,2.067,42.34l1.9-5.707a.747.747,0,0,0-.038-.564A23.923,23.923,0,0,1,8.511,8.614,24.307,24.307,0,0,1,11.524,6.05a.746.746,0,1,0-.871-1.212,25.813,25.813,0,0,0-3.2,2.722,25.414,25.414,0,0,0-5,28.889L.651,41.868a6.863,6.863,0,0,0,8.681,8.681l5.54-1.847A25.417,25.417,0,0,0,40.933,45.76a.746.746,0,1,0-.909-1.183ZM43.6,7.654a25.457,25.457,0,0,0-29.83-4.732.746.746,0,0,0,.687,1.325A23.963,23.963,0,0,1,42.57,42.32a.746.746,0,0,0,1.064,1.046A25.413,25.413,0,0,0,43.6,7.654Zm-19.9,29.553a12.2,12.2,0,0,0,13.5-1.5,3.655,3.655,0,0,0,.235-5.381L35.39,28.277a3.669,3.669,0,0,0-4.354-.612l-2.792,1.549a1.652,1.652,0,0,1-1.688-.042,15.99,15.99,0,0,1-4.709-4.709,1.653,1.653,0,0,1-.042-1.688l1.549-2.792a3.669,3.669,0,0,0-.611-4.354l-2.049-2.049a3.655,3.655,0,0,0-5.381.235,12.2,12.2,0,0,0-1.5,13.5,23.694,23.694,0,0,0,9.9,9.9ZM16.454,14.773a2.159,2.159,0,0,1,3.182-.139l2.049,2.049a2.17,2.17,0,0,1,.362,2.575L20.5,22.051a3.144,3.144,0,0,0,.088,3.211,17.476,17.476,0,0,0,5.169,5.169,3.144,3.144,0,0,0,3.211.087L31.76,28.97a2.169,2.169,0,0,1,2.575.362l2.049,2.049a2.159,2.159,0,0,1-.139,3.182,10.716,10.716,0,0,1-11.851,1.319,22.207,22.207,0,0,1-9.258-9.258,10.716,10.716,0,0,1,1.319-11.851ZM4.748,43.234a2.545,2.545,0,0,0,3.218,3.218l6.1-2.032a2.872,2.872,0,0,1,2.175.152,21.141,21.141,0,1,0-9.666-9.538,2.871,2.871,0,0,1,.171,2.212Zm3.158-8.871a19.631,19.631,0,1,1,8.986,8.867,4.356,4.356,0,0,0-3.3-.226l-6.1,2.032a1.051,1.051,0,0,1-1.33-1.33l2-5.988a4.355,4.355,0,0,0-.254-3.355Z" transform="translate(0 0)"/>
    </g>
  </g>
</svg>
