<svg xmlns="http://www.w3.org/2000/svg" xmlns:xlink="http://www.w3.org/1999/xlink" width="102.949" height="102.949" viewBox="0 0 102.949 102.949">
  <defs>
    <filter id="Trazado_874925" x="0" y="0" width="102.949" height="102.949" filterUnits="userSpaceOnUse">
      <feOffset dy="3" input="SourceAlpha"/>
      <feGaussianBlur stdDeviation="3" result="blur"/>
      <feFlood flood-opacity="0.161"/>
      <feComposite operator="in" in2="blur"/>
      <feComposite in="SourceGraphic"/>
    </filter>
  </defs>
  <g id="Grupo_1182126" data-name="Grupo 1182126" transform="translate(-907.051 -7808)">
    <g id="Grupo_1181898" data-name="Grupo 1181898" transform="translate(107.551 5296.843)">
      <g id="Grupo_1111316" data-name="Grupo 1111316" transform="translate(808.5 2517.157)">
        <g id="Grupo_1109835" data-name="Grupo 1109835" transform="translate(0 0)">
          <g id="Grupo_1107913" data-name="Grupo 1107913" transform="translate(0 0)">
            <g transform="matrix(1, 0, 0, 1, -9, -6)" filter="url(#Trazado_874925)">
              <g id="Trazado_874925-2" data-name="Trazado 874925" transform="translate(9 6)" fill="#4c6929" opacity="0.859">
                <path d="M 42.47446823120117 83.44929504394531 C 36.94229125976562 83.44929504394531 31.57638549804688 82.36614227294922 26.52582168579102 80.22994232177734 C 21.64678573608398 78.16628265380859 17.26464462280273 75.211669921875 13.50113868713379 71.44816589355469 C 9.737632751464844 67.68466949462891 6.78300952911377 63.30253982543945 4.719362258911133 58.42351913452148 C 2.583150625228882 53.37295150756836 1.499997615814209 48.00706100463867 1.499997615814209 42.47489547729492 C 1.499997615814209 36.94223403930664 2.583150625228882 31.57634162902832 4.719362258911133 26.52577781677246 C 6.78300952911377 21.64675331115723 9.737632751464844 17.26462364196777 13.50113868713379 13.50113010406494 C 17.26464462280273 9.737624168395996 21.64678573608398 6.783012390136719 26.52582168579102 4.719353199005127 C 31.57638549804688 2.583153486251831 36.94229125976562 1.500000476837158 42.47446823120117 1.500000476837158 C 48.00664520263672 1.500000476837158 53.37255096435547 2.583153486251831 58.42311477661133 4.719353199005127 C 63.30215072631836 6.783012390136719 67.68428802490234 9.737624168395996 71.44779968261719 13.50113010406494 C 75.2113037109375 17.26462364196777 78.16592407226562 21.64675331115723 80.22957611083984 26.52577781677246 C 82.36578369140625 31.57634162902832 83.44893646240234 36.94223403930664 83.44893646240234 42.47439956665039 C 83.44893646240234 48.00706100463867 82.36578369140625 53.37295150756836 80.22957611083984 58.42351913452148 C 78.16592407226562 63.30253982543945 75.2113037109375 67.68466949462891 71.44779968261719 71.44816589355469 C 67.68428802490234 75.211669921875 63.30215072631836 78.16628265380859 58.42311477661133 80.22994232177734 C 53.37255096435547 82.36614227294922 48.00664520263672 83.44929504394531 42.47446823120117 83.44929504394531 Z" stroke="none"/>
                <path d="M 42.47446823120117 2.999992370605469 C 37.14412307739258 2.999992370605469 31.97481536865234 4.04327392578125 27.11014938354492 6.100860595703125 C 22.40990829467773 8.088890075683594 18.18804168701172 10.93555450439453 14.56179809570312 14.56178283691406 C 10.93557739257812 18.18801116943359 8.088897705078125 22.40987396240234 6.100868225097656 27.11009979248047 C 4.043281555175781 31.97476577758789 3 37.14406204223633 3 42.47488784790039 C 3 47.80522155761719 4.043281555175781 52.97451400756836 6.100868225097656 57.83917999267578 C 8.088897705078125 62.53940582275391 10.93557739257812 66.76127624511719 14.56179809570312 70.38749694824219 C 18.18804168701172 74.01372528076172 22.40990829467773 76.86039733886719 27.11014938354492 78.84841918945312 C 31.97481536865234 80.906005859375 37.14412307739258 81.94928741455078 42.47446823120117 81.94928741455078 C 47.80481338500977 81.94928741455078 52.97412109375 80.906005859375 57.83879089355469 78.84841918945312 C 62.53902816772461 76.86039733886719 66.76089477539062 74.01372528076172 70.38713073730469 70.38749694824219 C 74.01335906982422 66.76127624511719 76.86003875732422 62.53940582275391 78.84806823730469 57.83917999267578 C 80.90565490722656 52.97451400756836 81.94893646240234 47.80522155761719 81.94893646240234 42.47439575195312 C 81.94893646240234 37.14406204223633 80.90565490722656 31.97476577758789 78.84806823730469 27.11009979248047 C 76.86003875732422 22.40987396240234 74.01335906982422 18.18801116943359 70.38713073730469 14.56178283691406 C 66.76089477539062 10.93555450439453 62.53902816772461 8.088890075683594 57.83879089355469 6.100860595703125 C 52.97412109375 4.04327392578125 47.80481338500977 2.999992370605469 42.47446823120117 2.999992370605469 M 42.47446823120117 -7.62939453125e-06 C 65.93246459960938 -7.62939453125e-06 84.94893646240234 19.01643371582031 84.94893646240234 42.47439575195312 L 84.94893646240234 42.47488784790039 C 84.94893646240234 65.93284606933594 65.93246459960938 84.94928741455078 42.47446823120117 84.94928741455078 C 19.01647186279297 84.94928741455078 0 65.93284606933594 0 42.47488784790039 L 0 42.47439575195312 C 0 19.01643371582031 19.01647186279297 -7.62939453125e-06 42.47446823120117 -7.62939453125e-06 Z" stroke="none" fill="#fff"/>
              </g>
            </g>
            <g id="Trazado_874923" data-name="Trazado 874923" transform="translate(0 0)" fill="none">
              <path d="M42.474,0A42.474,42.474,0,0,1,84.949,42.474h0A42.474,42.474,0,0,1,0,42.475H0A42.474,42.474,0,0,1,42.474,0Z" stroke="none"/>
              <path d="M 42.47446823120117 2.999992370605469 C 37.14412307739258 2.999992370605469 31.97481536865234 4.04327392578125 27.11014938354492 6.100860595703125 C 22.40990829467773 8.088890075683594 18.18804168701172 10.93555450439453 14.56179809570312 14.56178283691406 C 10.93557739257812 18.18801116943359 8.088897705078125 22.40987396240234 6.100868225097656 27.11009979248047 C 4.043281555175781 31.97476577758789 3 37.14406204223633 3 42.47488784790039 C 3 47.80522155761719 4.043281555175781 52.97451400756836 6.100868225097656 57.83917999267578 C 8.088897705078125 62.53940582275391 10.93557739257812 66.76127624511719 14.56179809570312 70.38749694824219 C 18.18804168701172 74.01372528076172 22.40990829467773 76.86039733886719 27.11014938354492 78.84841918945312 C 31.97481536865234 80.906005859375 37.14412307739258 81.94928741455078 42.47446823120117 81.94928741455078 C 47.80481338500977 81.94928741455078 52.97412109375 80.906005859375 57.83879089355469 78.84841918945312 C 62.53902816772461 76.86039733886719 66.76089477539062 74.01372528076172 70.38713073730469 70.38749694824219 C 74.01335906982422 66.76127624511719 76.86003875732422 62.53940582275391 78.84806823730469 57.83917999267578 C 80.90565490722656 52.97451400756836 81.94893646240234 47.80522155761719 81.94893646240234 42.47439575195312 C 81.94893646240234 37.14406204223633 80.90565490722656 31.97476577758789 78.84806823730469 27.11009979248047 C 76.86003875732422 22.40987396240234 74.01335906982422 18.18801116943359 70.38713073730469 14.56178283691406 C 66.76089477539062 10.93555450439453 62.53902816772461 8.088890075683594 57.83879089355469 6.100860595703125 C 52.97412109375 4.04327392578125 47.80481338500977 2.999992370605469 42.47446823120117 2.999992370605469 M 42.47446823120117 -7.62939453125e-06 C 65.93246459960938 -7.62939453125e-06 84.94893646240234 19.01643371582031 84.94893646240234 42.47439575195312 L 84.94893646240234 42.47488784790039 C 84.94893646240234 65.93284606933594 65.93246459960938 84.94928741455078 42.47446823120117 84.94928741455078 C 19.01647186279297 84.94928741455078 0 65.93284606933594 0 42.47488784790039 L 0 42.47439575195312 C 0 19.01643371582031 19.01647186279297 -7.62939453125e-06 42.47446823120117 -7.62939453125e-06 Z" stroke="none" fill="#fff"/>
            </g>
          </g>
        </g>
      </g>
    </g>
    <g id="comunidad" transform="translate(933.906 7834.001)">
      <g id="Grupo_1182124" data-name="Grupo 1182124" transform="translate(3.023 0.88)">
        <path id="Trazado_910249" data-name="Trazado 910249" d="M226.419,203.612a3.379,3.379,0,1,0-6.758,0v1.69a3.379,3.379,0,0,0,6.759,0v-1.69Z" transform="translate(-201.439 -183.531)" fill="#bb6b57" fill-rule="evenodd"/>
        <path id="Trazado_910250" data-name="Trazado 910250" d="M199.223,283.625a3.367,3.367,0,0,1-5.025,0,5.932,5.932,0,0,0-3.4,5.35v10.492h11.827V288.975A5.932,5.932,0,0,0,199.223,283.625Z" transform="translate(-175.11 -259.601)" fill="#ff5a58" fill-rule="evenodd"/>
        <path id="Trazado_910251" data-name="Trazado 910251" d="M107.317,203.612a3.379,3.379,0,1,0-6.758,0v1.69a3.379,3.379,0,0,0,6.759,0v-1.69Z" transform="translate(-92.795 -183.531)" fill="#cc9081" fill-rule="evenodd"/>
        <path id="Trazado_910252" data-name="Trazado 910252" d="M80.121,283.625a3.367,3.367,0,0,1-5.025,0,5.932,5.932,0,0,0-3.4,5.35v10.492H83.522V288.975A5.932,5.932,0,0,0,80.121,283.625Z" transform="translate(-66.466 -259.601)" fill="#66e0f7" fill-rule="evenodd"/>
        <path id="Trazado_910253" data-name="Trazado 910253" d="M345.521,203.612a3.379,3.379,0,1,0-6.758,0v1.69a3.379,3.379,0,0,0,6.759,0v-1.69Z" transform="translate(-310.083 -183.531)" fill="#cc9081" fill-rule="evenodd"/>
        <path id="Trazado_910254" data-name="Trazado 910254" d="M318.324,283.625a3.367,3.367,0,0,1-5.025,0,5.932,5.932,0,0,0-3.4,5.35v10.492h11.827V288.975A5.932,5.932,0,0,0,318.324,283.625Z" transform="translate(-283.753 -259.601)" fill="#ff9346" fill-rule="evenodd"/>
        <path id="Trazado_910255" data-name="Trazado 910255" d="M176.668,11.167a3.942,3.942,0,0,0-5.546,0c-4.144,4.131,3.834,11.35,6.574,12.082,2.74-.732,10.718-7.951,6.574-12.082a3.942,3.942,0,0,0-5.546,0A1.434,1.434,0,0,1,176.668,11.167Z" transform="translate(-156.094 -10.027)" fill="#ff5a58" fill-rule="evenodd"/>
        <path id="Trazado_910256" data-name="Trazado 910256" d="M47.767,341.145a3.379,3.379,0,1,0-6.758,0v1.69a3.379,3.379,0,0,0,6.759,0v-1.69Z" transform="translate(-38.474 -308.988)" fill="#bb6b57" fill-rule="evenodd"/>
        <path id="Trazado_910257" data-name="Trazado 910257" d="M20.57,421.158a3.367,3.367,0,0,1-5.025,0,5.933,5.933,0,0,0-3.4,5.35v2.126H23.971v-2.126a5.932,5.932,0,0,0-3.4-5.349Z" transform="translate(-12.144 -385.057)" fill="#ffc144" fill-rule="evenodd"/>
        <path id="Trazado_910258" data-name="Trazado 910258" d="M166.868,341.145a3.379,3.379,0,1,0-6.758,0v1.69a3.379,3.379,0,0,0,6.758,0Z" transform="translate(-147.117 -308.988)" fill="#e5ae8c" fill-rule="evenodd"/>
        <path id="Trazado_910259" data-name="Trazado 910259" d="M139.673,421.158a3.367,3.367,0,0,1-5.025,0,5.933,5.933,0,0,0-3.4,5.35v2.126h11.827v-2.126A5.933,5.933,0,0,0,139.673,421.158Z" transform="translate(-120.789 -385.057)" fill="#8481e2" fill-rule="evenodd"/>
        <path id="Trazado_910260" data-name="Trazado 910260" d="M285.97,341.145a3.379,3.379,0,1,0-6.758,0v1.69a3.379,3.379,0,0,0,6.759,0v-1.69Z" transform="translate(-255.761 -308.988)" fill="#cc9081" fill-rule="evenodd"/>
        <path id="Trazado_910261" data-name="Trazado 910261" d="M258.774,421.158a3.367,3.367,0,0,1-5.025,0,5.933,5.933,0,0,0-3.4,5.35v2.126h11.827v-2.126A5.932,5.932,0,0,0,258.774,421.158Z" transform="translate(-229.432 -385.057)" fill="#fff" fill-rule="evenodd"/>
        <path id="Trazado_910262" data-name="Trazado 910262" d="M405.072,341.145a3.379,3.379,0,1,0-6.758,0v1.69a3.379,3.379,0,0,0,6.758,0Z" transform="translate(-364.405 -308.988)" fill="#e5ae8c" fill-rule="evenodd"/>
        <path id="Trazado_910263" data-name="Trazado 910263" d="M377.876,421.158a3.367,3.367,0,0,1-5.025,0,5.932,5.932,0,0,0-3.4,5.35v2.126h11.827v-2.126A5.932,5.932,0,0,0,377.876,421.158Z" transform="translate(-338.075 -385.057)" fill="#cbe558" fill-rule="evenodd"/>
      </g>
      <g id="Grupo_1182125" data-name="Grupo 1182125" transform="translate(2.145 -0.001)">
        <path id="Trazado_910264" data-name="Trazado 910264" d="M44.087,210.221a4.229,4.229,0,0,0,.482-1.964v-1.69a4.265,4.265,0,0,0-2.805-4,6.76,6.76,0,0,0-2.905-4.421,4.23,4.23,0,0,0,.482-1.963v-1.69a4.257,4.257,0,0,0-8.515,0v1.69a4.23,4.23,0,0,0,.482,1.963,6.818,6.818,0,0,0-1.456,1.312,6.8,6.8,0,0,0-1.451-1.311,4.23,4.23,0,0,0,.482-1.965v-1.69a4.257,4.257,0,1,0-8.515,0v1.69a4.229,4.229,0,0,0,.482,1.965,6.8,6.8,0,0,0-1.458,1.32,6.868,6.868,0,0,0-1.45-1.319,4.23,4.23,0,0,0,.483-1.965v-1.69a4.257,4.257,0,0,0-8.515,0v1.69a4.23,4.23,0,0,0,.482,1.963,6.764,6.764,0,0,0-2.905,4.421,4.264,4.264,0,0,0-2.805,4v1.69a4.23,4.23,0,0,0,.482,1.964,6.753,6.753,0,0,0-3.016,5.639v2.126a.878.878,0,0,0,.878.878h43.2a.878.878,0,0,0,.878-.878v-2.126a6.753,6.753,0,0,0-3.016-5.639Zm-1.274-3.654v1.69a2.5,2.5,0,0,1-5,0v-1.69a2.5,2.5,0,0,1,5,0ZM39.9,202.331a4.263,4.263,0,0,0-3.846,4.237v1.69a4.23,4.23,0,0,0,.483,1.965,6.811,6.811,0,0,0-1.45,1.31,6.821,6.821,0,0,0-1.458-1.311,4.23,4.23,0,0,0,.482-1.964v-1.69a4.263,4.263,0,0,0-3.846-4.237,5.127,5.127,0,0,1,2.168-2.821,4.244,4.244,0,0,0,5.3,0A5.124,5.124,0,0,1,39.9,202.331Zm-12.548,5.927v-1.69a2.5,2.5,0,0,1,5,0v1.69a2.5,2.5,0,0,1-5,0Zm5.229-13.766a2.5,2.5,0,1,1,5,0v1.69a2.5,2.5,0,1,1-5,0Zm-10.458,0a2.5,2.5,0,1,1,5,0v1.69a2.5,2.5,0,0,1-5,0v-1.69Zm-.149,5.018a4.244,4.244,0,0,0,5.3,0,5.063,5.063,0,0,1,1.583,1.559,6.77,6.77,0,0,0-.456,1.5,4.264,4.264,0,0,0-2.805,4v1.69a4.229,4.229,0,0,0,.482,1.964,6.818,6.818,0,0,0-1.458,1.31,6.8,6.8,0,0,0-1.45-1.309,4.229,4.229,0,0,0,.482-1.965v-1.69a4.264,4.264,0,0,0-2.806-4,6.722,6.722,0,0,0-.46-1.489A5.063,5.063,0,0,1,21.974,199.509Zm-5.08,8.748v-1.69a2.5,2.5,0,0,1,5,0v1.69a2.5,2.5,0,0,1-5,0Zm-5.229-13.766a2.5,2.5,0,0,1,5,0v1.69a2.5,2.5,0,0,1-5,0Zm-.149,5.018a4.244,4.244,0,0,0,5.3,0,5.123,5.123,0,0,1,2.168,2.821,4.263,4.263,0,0,0-3.846,4.237v1.69a4.23,4.23,0,0,0,.482,1.964,6.821,6.821,0,0,0-1.458,1.31,6.793,6.793,0,0,0-1.45-1.309,4.23,4.23,0,0,0,.482-1.965v-1.69a4.263,4.263,0,0,0-3.846-4.237A5.128,5.128,0,0,1,11.516,199.509Zm-5.08,7.058a2.5,2.5,0,0,1,5,0v1.69a2.5,2.5,0,0,1-5,0ZM3.9,215.861a5.011,5.011,0,0,1,2.385-4.275,4.244,4.244,0,0,0,5.3,0,5.058,5.058,0,0,1,1.582,1.556,6.782,6.782,0,0,0-.565,2.719v1.248H3.9Zm10.458,0a5.011,5.011,0,0,1,2.385-4.275,4.244,4.244,0,0,0,5.3,0,5.061,5.061,0,0,1,1.581,1.557,6.782,6.782,0,0,0-.565,2.718v1.248h-8.7v-1.248Zm10.458,0a5.011,5.011,0,0,1,2.385-4.275,4.244,4.244,0,0,0,5.3,0,5.012,5.012,0,0,1,2.385,4.275v1.248H24.817Zm20.529,1.247h-8.7v-1.248a6.781,6.781,0,0,0-.565-2.718,5.071,5.071,0,0,1,1.582-1.557,4.244,4.244,0,0,0,5.3,0,5.01,5.01,0,0,1,2.385,4.275v1.248Z" transform="translate(-2.145 -173.53)"/>
        <path id="Trazado_910265" data-name="Trazado 910265" d="M161.476,7.464A.878.878,0,0,0,162,6.34a3.238,3.238,0,0,1,.61-3.7,3.055,3.055,0,0,1,4.307,0,2.31,2.31,0,0,0,3.294,0,3.056,3.056,0,0,1,4.307,0,3.09,3.09,0,0,1,.759,3.227c-.88,3.289-4.961,6.647-6.712,7.31a8.821,8.821,0,0,1-1.93-1.157.878.878,0,0,0-1.055,1.4,8.97,8.97,0,0,0,2.758,1.524.878.878,0,0,0,.453,0,12.553,12.553,0,0,0,4.533-3.048,13.475,13.475,0,0,0,3.65-5.579,4.839,4.839,0,0,0-8-4.925.559.559,0,0,1-.815,0,4.815,4.815,0,0,0-6.786,0,4.962,4.962,0,0,0-1.022,5.538.878.878,0,0,0,1.124.528Z" transform="translate(-146.088 0.001)"/>
        <path id="Trazado_910266" data-name="Trazado 910266" d="M188.341,104a.878.878,0,1,0,.879.878.878.878,0,0,0-.879-.878Z" transform="translate(-171.191 -94.872)"/>
      </g>
    </g>
  </g>
</svg>
