<svg xmlns="http://www.w3.org/2000/svg" xmlns:xlink="http://www.w3.org/1999/xlink" width="117.999" height="118" viewBox="0 0 117.999 118">
  <defs>
    <filter id="Trazado_874925" x="0" y="0" width="117.999" height="118" filterUnits="userSpaceOnUse">
      <feOffset dy="3" input="SourceAlpha"/>
      <feGaussianBlur stdDeviation="3" result="blur"/>
      <feFlood flood-opacity="0.161"/>
      <feComposite operator="in" in2="blur"/>
      <feComposite in="SourceGraphic"/>
    </filter>
  </defs>
  <g id="Grupo_1182210" data-name="Grupo 1182210" transform="translate(-741.75 -10784.856)">
    <g id="Grupo_1181913" data-name="Grupo 1181913" transform="translate(-366.384 8850.857)">
      <g id="Grupo_1111553" data-name="Grupo 1111553" transform="translate(308.634 -577.158)">
        <g id="Grupo_1111316" data-name="Grupo 1111316" transform="translate(808.5 2517.157)">
          <g id="Grupo_1109835" data-name="Grupo 1109835" transform="translate(0 0)">
            <g id="Grupo_1107913" data-name="Grupo 1107913" transform="translate(0 0)">
              <g transform="matrix(1, 0, 0, 1, -9, -6)" filter="url(#Trazado_874925)">
                <g id="Trazado_874925-2" data-name="Trazado 874925" transform="translate(9 6)" fill="#9cc8ff" opacity="0.859">
                  <path d="M 49.99972534179688 98.4998779296875 C 43.45164108276367 98.4998779296875 37.10022354125977 97.21776580810547 31.12189674377441 94.68914794921875 C 25.34676742553711 92.24647521972656 20.15985298156738 88.74925994873047 15.70523929595947 84.29464721679688 C 11.25062561035156 79.84004974365234 7.753411293029785 74.65313720703125 5.310725212097168 68.87800598144531 C 2.782111167907715 62.89969253540039 1.499996781349182 56.54829406738281 1.499996781349182 50.00022125244141 C 1.499996781349182 43.45157623291016 2.782111167907715 37.10017776489258 5.310725212097168 31.12186431884766 C 7.753411293029785 25.34673500061035 11.25062561035156 20.15983581542969 15.70523929595947 15.70522117614746 C 20.15985298156738 11.25062084197998 25.34676742553711 7.753406524658203 31.12189674377441 5.31073522567749 C 37.10022354125977 2.782120943069458 43.45164108276367 1.500006556510925 49.99972534179688 1.500006556510925 C 56.54780960083008 1.500006556510925 62.89922714233398 2.782120943069458 68.87755584716797 5.31073522567749 C 74.65267944335938 7.753406524658203 79.839599609375 11.25062084197998 84.29421234130859 15.70522117614746 C 88.74882507324219 20.15983581542969 92.24604034423828 25.34673500061035 94.68872833251953 31.12186431884766 C 97.21733856201172 37.10017776489258 98.49945068359375 43.45157623291016 98.49945068359375 49.99964904785156 C 98.49945068359375 56.54829406738281 97.21733856201172 62.89969253540039 94.68872833251953 68.87800598144531 C 92.24604034423828 74.65313720703125 88.74882507324219 79.84004974365234 84.29421234130859 84.29464721679688 C 79.839599609375 88.74925994873047 74.65267944335938 92.24647521972656 68.87755584716797 94.68914794921875 C 62.89922714233398 97.21776580810547 56.54780960083008 98.4998779296875 49.99972534179688 98.4998779296875 Z" stroke="none"/>
                  <path d="M 49.99972534179688 3 C 43.65348052978516 3 37.49866485595703 4.242240905761719 31.70623016357422 6.692230224609375 C 26.10989379882812 9.059272766113281 21.08323669433594 12.44853210449219 16.76589202880859 16.76587677001953 C 12.44855499267578 21.08321380615234 9.059295654296875 26.10985565185547 6.692230224609375 31.70618438720703 C 4.24224853515625 37.49859619140625 3 43.65341186523438 3 50.00022888183594 C 3 56.34645843505859 4.24224853515625 62.50127410888672 6.692230224609375 68.29368591308594 C 9.059295654296875 73.8900146484375 12.44855499267578 78.91665649414062 16.76589202880859 83.23399353027344 C 21.08323669433594 87.55132293701172 26.10989379882812 90.94059753417969 31.70623016357422 93.30764007568359 C 37.49866485595703 95.75762939453125 43.65348052978516 96.99987030029297 49.99972534179688 96.99987030029297 C 56.34597015380859 96.99987030029297 62.50078582763672 95.75762939453125 68.293212890625 93.30764007568359 C 73.88955688476562 90.94059753417969 78.91621398925781 87.55132293701172 83.23355865478516 83.23399353027344 C 87.55089569091797 78.91665649414062 90.94015502929688 73.8900146484375 93.30722045898438 68.29368591308594 C 95.7572021484375 62.50127410888672 96.99945068359375 56.34645843505859 96.99945068359375 49.99964141845703 C 96.99945068359375 43.65341186523438 95.7572021484375 37.49859619140625 93.30722045898438 31.70618438720703 C 90.94015502929688 26.10985565185547 87.55089569091797 21.08321380615234 83.23355865478516 16.76587677001953 C 78.91621398925781 12.44853210449219 73.88955688476562 9.059272766113281 68.293212890625 6.692230224609375 C 62.50078582763672 4.242240905761719 56.34597015380859 3 49.99972534179688 3 M 49.99972534179688 0 C 77.61381530761719 0 99.99945068359375 22.38559722900391 99.99945068359375 49.99964141845703 L 99.99945068359375 50.00022888183594 C 99.99945068359375 77.6142578125 77.61381530761719 99.99987030029297 49.99972534179688 99.99987030029297 C 22.38563537597656 99.99987030029297 0 77.6142578125 0 50.00022888183594 L 0 49.99964141845703 C 0 22.38559722900391 22.38563537597656 0 49.99972534179688 0 Z" stroke="none" fill="#fff"/>
                </g>
              </g>
              <g id="Trazado_874923" data-name="Trazado 874923" transform="translate(0 0)" fill="none">
                <path d="M50,0a50,50,0,0,1,50,50h0A50,50,0,0,1,0,50H0A50,50,0,0,1,50,0Z" stroke="none"/>
                <path d="M 49.99972534179688 3 C 43.65348052978516 3 37.49866485595703 4.242240905761719 31.70623016357422 6.692230224609375 C 26.10989379882812 9.059272766113281 21.08323669433594 12.44853210449219 16.76589202880859 16.76587677001953 C 12.44855499267578 21.08321380615234 9.059295654296875 26.10985565185547 6.692230224609375 31.70618438720703 C 4.24224853515625 37.49859619140625 3 43.65341186523438 3 50.00022888183594 C 3 56.34645843505859 4.24224853515625 62.50127410888672 6.692230224609375 68.29368591308594 C 9.059295654296875 73.8900146484375 12.44855499267578 78.91665649414062 16.76589202880859 83.23399353027344 C 21.08323669433594 87.55132293701172 26.10989379882812 90.94059753417969 31.70623016357422 93.30764007568359 C 37.49866485595703 95.75762939453125 43.65348052978516 96.99987030029297 49.99972534179688 96.99987030029297 C 56.34597015380859 96.99987030029297 62.50078582763672 95.75762939453125 68.293212890625 93.30764007568359 C 73.88955688476562 90.94059753417969 78.91621398925781 87.55132293701172 83.23355865478516 83.23399353027344 C 87.55089569091797 78.91665649414062 90.94015502929688 73.8900146484375 93.30722045898438 68.29368591308594 C 95.7572021484375 62.50127410888672 96.99945068359375 56.34645843505859 96.99945068359375 49.99964141845703 C 96.99945068359375 43.65341186523438 95.7572021484375 37.49859619140625 93.30722045898438 31.70618438720703 C 90.94015502929688 26.10985565185547 87.55089569091797 21.08321380615234 83.23355865478516 16.76587677001953 C 78.91621398925781 12.44853210449219 73.88955688476562 9.059272766113281 68.293212890625 6.692230224609375 C 62.50078582763672 4.242240905761719 56.34597015380859 3 49.99972534179688 3 M 49.99972534179688 0 C 77.61381530761719 0 99.99945068359375 22.38559722900391 99.99945068359375 49.99964141845703 L 99.99945068359375 50.00022888183594 C 99.99945068359375 77.6142578125 77.61381530761719 99.99987030029297 49.99972534179688 99.99987030029297 C 22.38563537597656 99.99987030029297 0 77.6142578125 0 50.00022888183594 L 0 49.99964141845703 C 0 22.38559722900391 22.38563537597656 0 49.99972534179688 0 Z" stroke="none" fill="#fff"/>
              </g>
            </g>
          </g>
        </g>
      </g>
    </g>
    <g id="meta" transform="translate(765.755 10808.406)">
      <g id="Grupo_1182208" data-name="Grupo 1182208" transform="translate(7.255 0.951)">
        <path id="Trazado_910421" data-name="Trazado 910421" d="M343.847,39.685H333.463c-5.425-2.482-5.536-11.85-.485-13.3h10.658a1.344,1.344,0,0,1,.826,2.4l-5.141,4.011,5.39,4.516A1.344,1.344,0,0,1,343.847,39.685Z" transform="translate(-294.803 -23.987)" fill="#fd7a6e"/>
        <path id="Trazado_910422" data-name="Trazado 910422" d="M278.049,39.685H265.831V26.38h11.733C274.015,30.576,275.741,37,278.049,39.685Z" transform="translate(-239.389 -23.987)" fill="#f85647"/>
        <path id="Trazado_910423" data-name="Trazado 910423" d="M237.714,423.362h2.264a1.635,1.635,0,0,0,1.635-1.635V411.584h-5.534v10.143A1.635,1.635,0,0,0,237.714,423.362Z" transform="translate(-213.409 -360.362)" fill="#7b849b"/>
        <g id="Grupo_1182207" data-name="Grupo 1182207" transform="translate(0 14.702)">
          <g id="Grupo_1182205" data-name="Grupo 1182205">
            <path id="Trazado_910424" data-name="Trazado 910424" d="M68.412,191.893V178.108H59.952a2.717,2.717,0,0,0-2.717,2.717v8.35a2.717,2.717,0,0,0,2.717,2.717Z" transform="translate(-57.235 -171.183)" fill="#736acc"/>
            <path id="Trazado_910425" data-name="Trazado 910425" d="M232.046,163.317l-2.193.005a2.358,2.358,0,0,1,0,4.715H228.54a2.358,2.358,0,0,1-.043,4.715l-4.994,2.209-.357-.138.357-1.7c-6.567-2.691-4.58-16.352-2.909-20.2l6.06.964h3.2a2.358,2.358,0,0,1,.079,4.714h2.114a2.358,2.358,0,0,1,0,4.715Z" transform="translate(-198.45 -149.191)" fill="#ffddcf"/>
            <path id="Trazado_910426" data-name="Trazado 910426" d="M179.781,147.411l-.357,1.7-5.361-2.071A6.052,6.052,0,0,1,169,144.3l-.117-14.717a17.336,17.336,0,0,1,4.092-4.43,7.982,7.982,0,0,1,4.845-1.677c.852.672,3.608,3.149,5.115,4.7H177.4C175.729,132.023,175.492,143.064,179.781,147.411Z" transform="translate(-154.729 -123.479)" fill="#ffcbbe"/>
            <path id="Trazado_910427" data-name="Trazado 910427" d="M138.5,175.111V161.06a2.322,2.322,0,1,1,4.645,0v14.051a2.322,2.322,0,0,1-4.645,0Z" transform="translate(-128.201 -154.269)" fill="#c5cff1"/>
          </g>
          <g id="Grupo_1182206" data-name="Grupo 1182206" transform="translate(14.152 23.317)">
            <path id="Trazado_910428" data-name="Trazado 910428" d="M364.346,340.579V326.794h8.459a2.717,2.717,0,0,1,2.717,2.717v8.35a2.717,2.717,0,0,1-2.717,2.717Z" transform="translate(-339.569 -324.339)" fill="#73da8c"/>
            <path id="Trazado_910429" data-name="Trazado 910429" d="M251.221,310.708l-.117,14.718a6.05,6.05,0,0,1-5.065,2.737h-2.23c-6.339-2.852-7.423-16.637-2.615-18.853l4.12.006C247.063,309.316,250.425,309.3,251.221,310.708Z" transform="translate(-229.419 -309.071)" fill="#db9e82"/>
            <path id="Trazado_910430" data-name="Trazado 910430" d="M183.271,328.084h-8.483a2.357,2.357,0,0,1-.043-4.714h-1.313a2.358,2.358,0,0,1,0-4.715l-2.193-.006a2.358,2.358,0,0,1,0-4.715h2.114a2.357,2.357,0,0,1,.079-4.713l7.224.011C177.266,314.117,179.791,324.6,183.271,328.084Z" transform="translate(-168.881 -308.992)" fill="#c8866a"/>
            <path id="Trazado_910431" data-name="Trazado 910431" d="M339.253,323.8V309.745a2.322,2.322,0,0,0-4.645,0V323.8a2.322,2.322,0,0,0,4.645,0Z" transform="translate(-313.601 -307.423)" fill="#e8ecf9"/>
          </g>
        </g>
        <path id="Trazado_910432" data-name="Trazado 910432" d="M236.078,26.9h5.534V9.309A1.809,1.809,0,0,0,239.8,7.5h-1.917a1.809,1.809,0,0,0-1.809,1.809V26.9Z" transform="translate(-213.408 -7.5)" fill="#7b849b"/>
      </g>
      <g id="Grupo_1182209" data-name="Grupo 1182209" transform="translate(0 0)">
        <path id="Línea_603" data-name="Línea 603" d="M-4.054-5.6h-2.5A.951.951,0,0,1-7.5-6.549.951.951,0,0,1-6.549-7.5h2.5a.951.951,0,0,1,.951.951A.951.951,0,0,1-4.054-5.6Z" transform="translate(32.429 50.459)"/>
        <path id="Línea_604" data-name="Línea 604" d="M-5.446-5.6h-1.1A.951.951,0,0,1-7.5-6.549.951.951,0,0,1-6.549-7.5h1.1a.951.951,0,0,1,.951.951A.951.951,0,0,1-5.446-5.6Z" transform="translate(33.82 59.896)"/>
        <path id="Línea_605" data-name="Línea 605" d="M-4.133-5.6H-6.549A.951.951,0,0,1-7.5-6.549.951.951,0,0,1-6.549-7.5h2.416a.951.951,0,0,1,.951.951A.951.951,0,0,1-4.133-5.6Z" transform="translate(32.508 55.181)"/>
        <path id="Trazado_910433" data-name="Trazado 910433" d="M330.38,320.52h0a3.277,3.277,0,0,1-3.273-3.273V303.2a3.273,3.273,0,0,1,6.546,0v14.051A3.277,3.277,0,0,1,330.38,320.52Zm0-18.7a1.373,1.373,0,0,0-1.372,1.372v14.051a1.372,1.372,0,0,0,2.743,0V303.2A1.373,1.373,0,0,0,330.38,301.824Z" transform="translate(-285.643 -261.905)"/>
        <path id="Trazado_910434" data-name="Trazado 910434" transform="translate(0 0)"/>
        <path id="Trazado_910435" data-name="Trazado 910435" d="M178.951,322.483H168.237a3.312,3.312,0,0,1-3.309-3.309,3.276,3.276,0,0,1,.5-1.742,3.307,3.307,0,0,1-1.5-4.472,3.309,3.309,0,0,1-.008-6.441,3.316,3.316,0,0,1,2.957-4.8h.632a.951.951,0,1,1,0,1.9h-.631a1.407,1.407,0,0,0-.046,2.813.951.951,0,0,1-.031,1.9h-2.114a1.407,1.407,0,1,0,0,2.814l2.2.005a.951.951,0,0,1,0,1.9,1.407,1.407,0,1,0,0,2.814h1.313a.951.951,0,0,1,.017,1.9,1.407,1.407,0,0,0,.026,2.813h10.713a5.112,5.112,0,0,0,3.793-1.694.951.951,0,1,1,1.413,1.272A7.016,7.016,0,0,1,178.951,322.483Z" transform="translate(-140.923 -263.47)"/>
        <path id="Línea_606" data-name="Línea 606" d="M-4.054-5.6h-2.5A.951.951,0,0,1-7.5-6.549.951.951,0,0,1-6.549-7.5h2.5a.951.951,0,0,1,.951.951A.951.951,0,0,1-4.054-5.6Z" transform="translate(42.791 31.612)"/>
        <path id="Línea_607" data-name="Línea 607" d="M-5.446-5.6h-1.1A.951.951,0,0,1-7.5-6.549.951.951,0,0,1-6.549-7.5h1.1a.951.951,0,0,1,.951.951A.951.951,0,0,1-5.446-5.6Z" transform="translate(42.791 41.049)"/>
        <path id="Línea_608" data-name="Línea 608" d="M-4.133-5.6H-6.549A.951.951,0,0,1-7.5-6.549.951.951,0,0,1-6.549-7.5h2.416a.951.951,0,0,1,.951.951A.951.951,0,0,1-4.133-5.6Z" transform="translate(42.791 36.333)"/>
        <path id="Trazado_910436" data-name="Trazado 910436" d="M134.275,171.835h0A3.277,3.277,0,0,1,131,168.562V154.511a3.273,3.273,0,0,1,6.546,0v14.051A3.277,3.277,0,0,1,134.275,171.835Zm0-18.7a1.373,1.373,0,0,0-1.372,1.372v14.051a1.372,1.372,0,1,0,2.743,0V154.511A1.373,1.373,0,0,0,134.275,153.139Z" transform="translate(-114.396 -132.067)"/>
        <path id="Trazado_910437" data-name="Trazado 910437" d="M182.924,173.8H172.21A7.016,7.016,0,0,1,167,171.473a.951.951,0,1,1,1.413-1.272,5.112,5.112,0,0,0,3.793,1.694h10.713a1.407,1.407,0,0,0,.026-2.813.951.951,0,0,1,.017-1.9h1.313a1.407,1.407,0,0,0,0-2.814.951.951,0,0,1,0-1.9l2.193-.005a1.407,1.407,0,1,0,0-2.814h-2.114a.951.951,0,0,1-.031-1.9,1.407,1.407,0,0,0-.048-2.813h-8.733a.951.951,0,1,1,0-1.9h8.733a3.316,3.316,0,0,1,2.957,4.8,3.309,3.309,0,0,1-.008,6.441,3.307,3.307,0,0,1-1.5,4.473,3.276,3.276,0,0,1,.5,1.742A3.312,3.312,0,0,1,182.924,173.8Z" transform="translate(-145.621 -133.632)"/>
        <path id="Trazado_910438" data-name="Trazado 910438" d="M165.426,123.407a.951.951,0,0,1-.781-1.491,19.742,19.742,0,0,1,3.9-4.024,8.862,8.862,0,0,1,4.967-1.867.951.951,0,0,1,.077,1.9,6.947,6.947,0,0,0-3.886,1.475,17.952,17.952,0,0,0-3.5,3.6A.95.95,0,0,1,165.426,123.407Z" transform="translate(-143.627 -101.317)"/>
        <path id="Línea_609" data-name="Línea 609" d="M-1.018-5.6H-6.549A.951.951,0,0,1-7.5-6.549.951.951,0,0,1-6.549-7.5h5.531a.951.951,0,0,1,.951.951A.951.951,0,0,1-1.018-5.6Z" transform="translate(42.008 9.893)"/>
        <path id="Trazado_910439" data-name="Trazado 910439" d="M294.025,34.085h-20.84a.951.951,0,1,1,0-1.9h20.84a.393.393,0,0,0,.253-.695l-5.39-4.517a.951.951,0,0,1,.026-1.478l5.141-4.01a.393.393,0,0,0-.242-.7h-10.66a.951.951,0,1,1,0-1.9h10.66a2.295,2.295,0,0,1,1.411,4.1L291.01,26.27l4.489,3.761a2.295,2.295,0,0,1-1.474,4.054Z" transform="translate(-237.726 -16.486)"/>
        <path id="Trazado_910440" data-name="Trazado 910440" d="M235.061,21.3a.951.951,0,0,1-.951-.951V2.759a.859.859,0,0,0-.858-.858h-1.917a.859.859,0,0,0-.858.858v17.59a.951.951,0,0,1-1.9,0V2.759A2.762,2.762,0,0,1,231.335,0h1.917a2.762,2.762,0,0,1,2.759,2.759v17.59A.951.951,0,0,1,235.061,21.3Z" transform="translate(-199.602 0)"/>
        <path id="Trazado_910441" data-name="Trazado 910441" d="M60.986,186.294H53.4a3.672,3.672,0,0,1-3.668-3.668v-8.35a3.672,3.672,0,0,1,3.668-3.668h7.584a.951.951,0,1,1,0,1.9H53.4a1.769,1.769,0,0,0-1.767,1.767v8.35a1.769,1.769,0,0,0,1.767,1.767h7.584a.951.951,0,1,1,0,1.9Z" transform="translate(-43.43 -148.982)"/>
        <path id="Trazado_910442" data-name="Trazado 910442" d="M375,326.738a.951.951,0,0,1-.951-.951v-2.825a1.769,1.769,0,0,0-1.767-1.767H364.7a.951.951,0,0,1,0-1.9h7.584a3.672,3.672,0,0,1,3.668,3.668v2.825A.951.951,0,0,1,375,326.738Z" transform="translate(-317.638 -278.82)"/>
        <path id="Trazado_910443" data-name="Trazado 910443" d="M372.282,403.723H364.7a.951.951,0,0,1,0-1.9h7.584a1.769,1.769,0,0,0,1.767-1.767v-1.089a.951.951,0,1,1,1.9,0v1.089A3.672,3.672,0,0,1,372.282,403.723Z" transform="translate(-317.638 -347.563)"/>
        <path id="Trazado_910444" data-name="Trazado 910444" d="M233.427,458.332h-2.264a2.589,2.589,0,0,1-2.586-2.586v-4.254a.951.951,0,1,1,1.9,0v4.254a.685.685,0,0,0,.685.685h2.264a.685.685,0,0,0,.685-.685v-4.254a.951.951,0,1,1,1.9,0v4.254A2.589,2.589,0,0,1,233.427,458.332Z" transform="translate(-199.603 -393.431)"/>
      </g>
    </g>
  </g>
</svg>
