<svg xmlns="http://www.w3.org/2000/svg" xmlns:xlink="http://www.w3.org/1999/xlink" width="117.999" height="118" viewBox="0 0 117.999 118">
  <defs>
    <filter id="Trazado_874925" x="0" y="0" width="117.999" height="118" filterUnits="userSpaceOnUse">
      <feOffset dy="3" input="SourceAlpha"/>
      <feGaussianBlur stdDeviation="3" result="blur"/>
      <feFlood flood-opacity="0.161"/>
      <feComposite operator="in" in2="blur"/>
      <feComposite in="SourceGraphic"/>
    </filter>
  </defs>
  <g id="Grupo_1182139" data-name="Grupo 1182139" transform="translate(-741.051 -8350)">
    <g id="Grupo_1118042" data-name="Grupo 1118042" transform="translate(-367.083 6416.001)">
      <g id="Grupo_1111553" data-name="Grupo 1111553" transform="translate(308.634 -577.158)">
        <g id="Grupo_1111316" data-name="Grupo 1111316" transform="translate(808.5 2517.157)">
          <g id="Grupo_1109835" data-name="Grupo 1109835" transform="translate(0 0)">
            <g id="Grupo_1107913" data-name="Grupo 1107913" transform="translate(0 0)">
              <g transform="matrix(1, 0, 0, 1, -9, -6)" filter="url(#Trazado_874925)">
                <g id="Trazado_874925-2" data-name="Trazado 874925" transform="translate(9 6)" fill="#9cc8ff" opacity="0.859">
                  <path d="M 49.99972534179688 98.4998779296875 C 43.45164108276367 98.4998779296875 37.10022354125977 97.21776580810547 31.12189674377441 94.68914794921875 C 25.34676742553711 92.24647521972656 20.15985298156738 88.74925994873047 15.70523929595947 84.29464721679688 C 11.25062561035156 79.84004974365234 7.753411293029785 74.65313720703125 5.310725212097168 68.87800598144531 C 2.782111167907715 62.89969253540039 1.499996781349182 56.54829406738281 1.499996781349182 50.00022125244141 C 1.499996781349182 43.45157623291016 2.782111167907715 37.10017776489258 5.310725212097168 31.12186431884766 C 7.753411293029785 25.34673500061035 11.25062561035156 20.15983581542969 15.70523929595947 15.70522117614746 C 20.15985298156738 11.25062084197998 25.34676742553711 7.753406524658203 31.12189674377441 5.31073522567749 C 37.10022354125977 2.782120943069458 43.45164108276367 1.500006556510925 49.99972534179688 1.500006556510925 C 56.54780960083008 1.500006556510925 62.89922714233398 2.782120943069458 68.87755584716797 5.31073522567749 C 74.65267944335938 7.753406524658203 79.839599609375 11.25062084197998 84.29421234130859 15.70522117614746 C 88.74882507324219 20.15983581542969 92.24604034423828 25.34673500061035 94.68872833251953 31.12186431884766 C 97.21733856201172 37.10017776489258 98.49945068359375 43.45157623291016 98.49945068359375 49.99964904785156 C 98.49945068359375 56.54829406738281 97.21733856201172 62.89969253540039 94.68872833251953 68.87800598144531 C 92.24604034423828 74.65313720703125 88.74882507324219 79.84004974365234 84.29421234130859 84.29464721679688 C 79.839599609375 88.74925994873047 74.65267944335938 92.24647521972656 68.87755584716797 94.68914794921875 C 62.89922714233398 97.21776580810547 56.54780960083008 98.4998779296875 49.99972534179688 98.4998779296875 Z" stroke="none"/>
                  <path d="M 49.99972534179688 3 C 43.65348052978516 3 37.49866485595703 4.242240905761719 31.70623016357422 6.692230224609375 C 26.10989379882812 9.059272766113281 21.08323669433594 12.44853210449219 16.76589202880859 16.76587677001953 C 12.44855499267578 21.08321380615234 9.059295654296875 26.10985565185547 6.692230224609375 31.70618438720703 C 4.24224853515625 37.49859619140625 3 43.65341186523438 3 50.00022888183594 C 3 56.34645843505859 4.24224853515625 62.50127410888672 6.692230224609375 68.29368591308594 C 9.059295654296875 73.8900146484375 12.44855499267578 78.91665649414062 16.76589202880859 83.23399353027344 C 21.08323669433594 87.55132293701172 26.10989379882812 90.94059753417969 31.70623016357422 93.30764007568359 C 37.49866485595703 95.75762939453125 43.65348052978516 96.99987030029297 49.99972534179688 96.99987030029297 C 56.34597015380859 96.99987030029297 62.50078582763672 95.75762939453125 68.293212890625 93.30764007568359 C 73.88955688476562 90.94059753417969 78.91621398925781 87.55132293701172 83.23355865478516 83.23399353027344 C 87.55089569091797 78.91665649414062 90.94015502929688 73.8900146484375 93.30722045898438 68.29368591308594 C 95.7572021484375 62.50127410888672 96.99945068359375 56.34645843505859 96.99945068359375 49.99964141845703 C 96.99945068359375 43.65341186523438 95.7572021484375 37.49859619140625 93.30722045898438 31.70618438720703 C 90.94015502929688 26.10985565185547 87.55089569091797 21.08321380615234 83.23355865478516 16.76587677001953 C 78.91621398925781 12.44853210449219 73.88955688476562 9.059272766113281 68.293212890625 6.692230224609375 C 62.50078582763672 4.242240905761719 56.34597015380859 3 49.99972534179688 3 M 49.99972534179688 0 C 77.61381530761719 0 99.99945068359375 22.38559722900391 99.99945068359375 49.99964141845703 L 99.99945068359375 50.00022888183594 C 99.99945068359375 77.6142578125 77.61381530761719 99.99987030029297 49.99972534179688 99.99987030029297 C 22.38563537597656 99.99987030029297 0 77.6142578125 0 50.00022888183594 L 0 49.99964141845703 C 0 22.38559722900391 22.38563537597656 0 49.99972534179688 0 Z" stroke="none" fill="#fff"/>
                </g>
              </g>
              <g id="Trazado_874923" data-name="Trazado 874923" transform="translate(0 0)" fill="none">
                <path d="M50,0a50,50,0,0,1,50,50h0A50,50,0,0,1,0,50H0A50,50,0,0,1,50,0Z" stroke="none"/>
                <path d="M 49.99972534179688 3 C 43.65348052978516 3 37.49866485595703 4.242240905761719 31.70623016357422 6.692230224609375 C 26.10989379882812 9.059272766113281 21.08323669433594 12.44853210449219 16.76589202880859 16.76587677001953 C 12.44855499267578 21.08321380615234 9.059295654296875 26.10985565185547 6.692230224609375 31.70618438720703 C 4.24224853515625 37.49859619140625 3 43.65341186523438 3 50.00022888183594 C 3 56.34645843505859 4.24224853515625 62.50127410888672 6.692230224609375 68.29368591308594 C 9.059295654296875 73.8900146484375 12.44855499267578 78.91665649414062 16.76589202880859 83.23399353027344 C 21.08323669433594 87.55132293701172 26.10989379882812 90.94059753417969 31.70623016357422 93.30764007568359 C 37.49866485595703 95.75762939453125 43.65348052978516 96.99987030029297 49.99972534179688 96.99987030029297 C 56.34597015380859 96.99987030029297 62.50078582763672 95.75762939453125 68.293212890625 93.30764007568359 C 73.88955688476562 90.94059753417969 78.91621398925781 87.55132293701172 83.23355865478516 83.23399353027344 C 87.55089569091797 78.91665649414062 90.94015502929688 73.8900146484375 93.30722045898438 68.29368591308594 C 95.7572021484375 62.50127410888672 96.99945068359375 56.34645843505859 96.99945068359375 49.99964141845703 C 96.99945068359375 43.65341186523438 95.7572021484375 37.49859619140625 93.30722045898438 31.70618438720703 C 90.94015502929688 26.10985565185547 87.55089569091797 21.08321380615234 83.23355865478516 16.76587677001953 C 78.91621398925781 12.44853210449219 73.88955688476562 9.059272766113281 68.293212890625 6.692230224609375 C 62.50078582763672 4.242240905761719 56.34597015380859 3 49.99972534179688 3 M 49.99972534179688 0 C 77.61381530761719 0 99.99945068359375 22.38559722900391 99.99945068359375 49.99964141845703 L 99.99945068359375 50.00022888183594 C 99.99945068359375 77.6142578125 77.61381530761719 99.99987030029297 49.99972534179688 99.99987030029297 C 22.38563537597656 99.99987030029297 0 77.6142578125 0 50.00022888183594 L 0 49.99964141845703 C 0 22.38559722900391 22.38563537597656 0 49.99972534179688 0 Z" stroke="none" fill="#fff"/>
              </g>
            </g>
          </g>
        </g>
      </g>
    </g>
    <g id="campo" transform="translate(772.051 8377.499)">
      <path id="Trazado_910298" data-name="Trazado 910298" d="M105,216.164h24.315v11.878H105Zm0,0" transform="translate(-93.72 -192.495)" fill="#fea02c"/>
      <path id="Trazado_910299" data-name="Trazado 910299" d="M143.727,253.626V250H139v2.082Zm0,0" transform="translate(-124.067 -222.692)" fill="#ff5d5d"/>
      <path id="Trazado_910300" data-name="Trazado 910300" d="M20.536,280.357a49.536,49.536,0,0,1,15.5-15.867l.238-.334A49.56,49.56,0,0,0,10,256.625v26.413h8.9Zm0,0" transform="translate(-8.926 -228.609)" fill="#62cd4d"/>
      <path id="Trazado_910301" data-name="Trazado 910301" d="M92.832,282.889l1.637-2.681a49.578,49.578,0,0,1,42.319-23.75v26.431Zm0,0" transform="translate(-82.859 -228.459)" fill="#a0e557"/>
      <path id="Trazado_910302" data-name="Trazado 910302" d="M105,165.884l6.016-6.052,6.016,6.052Zm0,0" transform="translate(-93.72 -142.214)" fill="#fe8f8d"/>
      <path id="Trazado_910303" data-name="Trazado 910303" d="M179.3,165.884l-6.016-6.052H161l6.016,6.052Zm0,0" transform="translate(-143.704 -142.214)" fill="#ff5d5d"/>
      <g id="Grupo_1182138" data-name="Grupo 1182138" transform="translate(1.074 1.575)">
        <path id="Trazado_910304" data-name="Trazado 910304" d="M357.427,33.85c-8.019-6.448-8.019-16.9,0-23.35C365.446,16.948,365.446,27.4,357.427,33.85Zm0,0" transform="translate(-314.735 -10.5)" fill="#a0e557"/>
        <path id="Trazado_910305" data-name="Trazado 910305" d="M26.219,63.986c-6.063-4.875-6.063-12.779,0-17.654C32.282,51.207,32.282,59.111,26.219,63.986Zm0,0" transform="translate(-20.418 -42.483)" fill="#a0e557"/>
        <path id="Trazado_910306" data-name="Trazado 910306" d="M29.362,335.95A41.547,41.547,0,0,0,10,331.125v8.648a32.819,32.819,0,0,1,13.413,2.886" transform="translate(-10 -296.681)" fill="#a0e557"/>
      </g>
      <path id="Trazado_910307" data-name="Trazado 910307" d="M180.547,349.385a41.847,41.847,0,0,1,34.533-18.428v8.648a33.15,33.15,0,0,0-23.4,9.78Zm0,0" transform="translate(-161.151 -294.956)" fill="#62cd4d"/>
      <path id="Trazado_910308" data-name="Trazado 910308" d="M298.67,401.457a34.328,34.328,0,0,0-24.16,10.1,1.074,1.074,0,0,0,1.523,1.515,32.165,32.165,0,0,1,22.636-9.464,1.074,1.074,0,0,0,0-2.149Zm0,0" transform="translate(-244.741 -357.882)"/>
      <path id="Trazado_910309" data-name="Trazado 910309" d="M183.749,388.265a1.074,1.074,0,0,0-1.491-.289,42.4,42.4,0,0,0-11.532,11.539,1.074,1.074,0,1,0,1.784,1.2,40.254,40.254,0,0,1,10.951-10.957A1.074,1.074,0,0,0,183.749,388.265Zm0,0" transform="translate(-152.222 -345.685)"/>
      <path id="Trazado_910310" data-name="Trazado 910310" d="M378.659,320.957A42.249,42.249,0,0,0,364.53,323.4a1.074,1.074,0,1,0,.717,2.025,40.109,40.109,0,0,1,13.412-2.315,1.074,1.074,0,1,0,0-2.149Zm0,0" transform="translate(-324.73 -286.03)"/>
      <path id="Trazado_910311" data-name="Trazado 910311" d="M15.392,48.132A48.964,48.964,0,0,1,43.98,30.121h.006a47.881,47.881,0,0,1,9.943-1.048,1.074,1.074,0,1,0,0-2.148,50.553,50.553,0,0,0-9.089.826V25.431A15.911,15.911,0,0,0,50.855,13.25,16.026,16.026,0,0,0,44.439.738a1.075,1.075,0,0,0-1.347,0A16.027,16.027,0,0,0,36.677,13.25a15.912,15.912,0,0,0,6.014,12.181V28.19a50.867,50.867,0,0,0-6.023,1.77v-6.29a1.07,1.07,0,0,0-.312-.757h0L30.34,16.86a1.075,1.075,0,0,0-.762-.317H17.3a1.074,1.074,0,0,0-.762.317l-6.016,6.052h0a1.071,1.071,0,0,0-.313.757v4.1q-1.123-.206-2.256-.361v-3.83A12.261,12.261,0,0,0,12.5,14.252,12.374,12.374,0,0,0,7.549,4.587a1.074,1.074,0,0,0-1.346,0,12.374,12.374,0,0,0-4.948,9.664A12.261,12.261,0,0,0,5.8,23.581v3.583q-2.35-.22-4.727-.222a1.074,1.074,0,1,0,0,2.149,48.453,48.453,0,0,1,24.4,6.585A50.713,50.713,0,0,0,20.4,39.616,42.739,42.739,0,0,0,1.074,34.945a1.074,1.074,0,0,0,0,2.149,40.556,40.556,0,0,1,17.637,4.083,50.772,50.772,0,0,0-4.569,5.057,33.6,33.6,0,0,0-13.068-2.64,1.074,1.074,0,0,0,0,2.149A31.44,31.44,0,0,1,12.8,48.009q-1.114,1.547-2.111,3.179L9.056,53.87a1.074,1.074,0,1,0,1.834,1.119l1.637-2.682a47.691,47.691,0,0,1,2.759-4.037A1.017,1.017,0,0,0,15.392,48.132ZM38.826,13.25a13.708,13.708,0,0,1,4.94-10.269,13.708,13.708,0,0,1,4.94,10.269,13.374,13.374,0,0,1-3.866,9.228V14.252a1.074,1.074,0,0,0-2.149,0v8.227A13.372,13.372,0,0,1,38.826,13.25Zm-35.424,1A10.053,10.053,0,0,1,6.875,6.841a10.052,10.052,0,0,1,3.473,7.411,9.712,9.712,0,0,1-2.4,6.289V13.392a1.074,1.074,0,0,0-2.149,0v7.149A9.712,9.712,0,0,1,3.4,14.252Zm29.609,8.343H23.759l-3.88-3.9h9.253ZM17.3,19.141l3.434,3.454H13.863Zm-4.942,5.6h9.883v6.832q-.747-.344-1.5-.663V27.3a1.074,1.074,0,0,0-1.074-1.074H14.933A1.075,1.075,0,0,0,13.858,27.3v1.277q-.749-.2-1.5-.368Zm6.231,5.321q-1.278-.471-2.578-.872v-.814h2.578Zm5.8,2.562V24.744H34.521v6.05A50.421,50.421,0,0,0,29.139,33.4q-.836.469-1.652.971Q25.964,33.445,24.386,32.626Zm0,0"/>
      <path id="Trazado_910312" data-name="Trazado 910312" d="M398.473,82.649a1.076,1.076,0,1,0-.759-.315A1.081,1.081,0,0,0,398.473,82.649Zm0,0" transform="translate(-354.707 -71.405)"/>
      <path id="Trazado_910313" data-name="Trazado 910313" d="M317.983,363.151a1.073,1.073,0,1,0,.76-.315A1.084,1.084,0,0,0,317.983,363.151Zm0,0" transform="translate(-283.542 -323.41)"/>
    </g>
  </g>
</svg>
