<svg xmlns="http://www.w3.org/2000/svg" xmlns:xlink="http://www.w3.org/1999/xlink" width="118" height="118" viewBox="0 0 118 118">
  <defs>
    <filter id="Trazado_874925" x="0" y="0" width="118" height="118" filterUnits="userSpaceOnUse">
      <feOffset dy="3" input="SourceAlpha"/>
      <feGaussianBlur stdDeviation="3" result="blur"/>
      <feFlood flood-opacity="0.161"/>
      <feComposite operator="in" in2="blur"/>
      <feComposite in="SourceGraphic"/>
    </filter>
  </defs>
  <g id="Grupo_1182218" data-name="Grupo 1182218" transform="translate(-4206.001 823)">
    <g id="Grupo_1181916" data-name="Grupo 1181916" transform="translate(3097.867 -2756.999)">
      <g id="Grupo_1111553" data-name="Grupo 1111553" transform="translate(308.634 -577.158)">
        <g id="Grupo_1111316" data-name="Grupo 1111316" transform="translate(808.5 2517.157)">
          <g id="Grupo_1109835" data-name="Grupo 1109835" transform="translate(0 0)">
            <g id="Grupo_1107913" data-name="Grupo 1107913" transform="translate(0 0)">
              <g transform="matrix(1, 0, 0, 1, -9, -6)" filter="url(#Trazado_874925)">
                <g id="Trazado_874925-2" data-name="Trazado 874925" transform="translate(9 6)" fill="#9cc8ff" opacity="0.859">
                  <path d="M 49.99972534179688 98.4998779296875 C 43.45164108276367 98.4998779296875 37.10022354125977 97.21776580810547 31.12189674377441 94.68914794921875 C 25.34676742553711 92.24647521972656 20.15985298156738 88.74925994873047 15.70523929595947 84.29464721679688 C 11.25062561035156 79.84004974365234 7.753411293029785 74.65313720703125 5.310725212097168 68.87800598144531 C 2.782111167907715 62.89969253540039 1.499996781349182 56.54829406738281 1.499996781349182 50.00022125244141 C 1.499996781349182 43.45157623291016 2.782111167907715 37.10017776489258 5.310725212097168 31.12186431884766 C 7.753411293029785 25.34673500061035 11.25062561035156 20.15983581542969 15.70523929595947 15.70522117614746 C 20.15985298156738 11.25062084197998 25.34676742553711 7.753406524658203 31.12189674377441 5.31073522567749 C 37.10022354125977 2.782120943069458 43.45164108276367 1.500006556510925 49.99972534179688 1.500006556510925 C 56.54780960083008 1.500006556510925 62.89922714233398 2.782120943069458 68.87755584716797 5.31073522567749 C 74.65267944335938 7.753406524658203 79.839599609375 11.25062084197998 84.29421234130859 15.70522117614746 C 88.74882507324219 20.15983581542969 92.24604034423828 25.34673500061035 94.68872833251953 31.12186431884766 C 97.21733856201172 37.10017776489258 98.49945068359375 43.45157623291016 98.49945068359375 49.99964904785156 C 98.49945068359375 56.54829406738281 97.21733856201172 62.89969253540039 94.68872833251953 68.87800598144531 C 92.24604034423828 74.65313720703125 88.74882507324219 79.84004974365234 84.29421234130859 84.29464721679688 C 79.839599609375 88.74925994873047 74.65267944335938 92.24647521972656 68.87755584716797 94.68914794921875 C 62.89922714233398 97.21776580810547 56.54780960083008 98.4998779296875 49.99972534179688 98.4998779296875 Z" stroke="none"/>
                  <path d="M 49.99972534179688 3 C 43.65348052978516 3 37.49866485595703 4.242240905761719 31.70623016357422 6.692230224609375 C 26.10989379882812 9.059272766113281 21.08323669433594 12.44853210449219 16.76589202880859 16.76587677001953 C 12.44855499267578 21.08321380615234 9.059295654296875 26.10985565185547 6.692230224609375 31.70618438720703 C 4.24224853515625 37.49859619140625 3 43.65341186523438 3 50.00022888183594 C 3 56.34645843505859 4.24224853515625 62.50127410888672 6.692230224609375 68.29368591308594 C 9.059295654296875 73.8900146484375 12.44855499267578 78.91665649414062 16.76589202880859 83.23399353027344 C 21.08323669433594 87.55132293701172 26.10989379882812 90.94059753417969 31.70623016357422 93.30764007568359 C 37.49866485595703 95.75762939453125 43.65348052978516 96.99987030029297 49.99972534179688 96.99987030029297 C 56.34597015380859 96.99987030029297 62.50078582763672 95.75762939453125 68.293212890625 93.30764007568359 C 73.88955688476562 90.94059753417969 78.91621398925781 87.55132293701172 83.23355865478516 83.23399353027344 C 87.55089569091797 78.91665649414062 90.94015502929688 73.8900146484375 93.30722045898438 68.29368591308594 C 95.7572021484375 62.50127410888672 96.99945068359375 56.34645843505859 96.99945068359375 49.99964141845703 C 96.99945068359375 43.65341186523438 95.7572021484375 37.49859619140625 93.30722045898438 31.70618438720703 C 90.94015502929688 26.10985565185547 87.55089569091797 21.08321380615234 83.23355865478516 16.76587677001953 C 78.91621398925781 12.44853210449219 73.88955688476562 9.059272766113281 68.293212890625 6.692230224609375 C 62.50078582763672 4.242240905761719 56.34597015380859 3 49.99972534179688 3 M 49.99972534179688 0 C 77.61381530761719 0 99.99945068359375 22.38559722900391 99.99945068359375 49.99964141845703 L 99.99945068359375 50.00022888183594 C 99.99945068359375 77.6142578125 77.61381530761719 99.99987030029297 49.99972534179688 99.99987030029297 C 22.38563537597656 99.99987030029297 0 77.6142578125 0 50.00022888183594 L 0 49.99964141845703 C 0 22.38559722900391 22.38563537597656 0 49.99972534179688 0 Z" stroke="none" fill="#fff"/>
                </g>
              </g>
              <g id="Trazado_874923" data-name="Trazado 874923" transform="translate(0 0)" fill="none">
                <path d="M50,0a50,50,0,0,1,50,50h0A50,50,0,0,1,0,50H0A50,50,0,0,1,50,0Z" stroke="none"/>
                <path d="M 49.99972534179688 3 C 43.65348052978516 3 37.49866485595703 4.242240905761719 31.70623016357422 6.692230224609375 C 26.10989379882812 9.059272766113281 21.08323669433594 12.44853210449219 16.76589202880859 16.76587677001953 C 12.44855499267578 21.08321380615234 9.059295654296875 26.10985565185547 6.692230224609375 31.70618438720703 C 4.24224853515625 37.49859619140625 3 43.65341186523438 3 50.00022888183594 C 3 56.34645843505859 4.24224853515625 62.50127410888672 6.692230224609375 68.29368591308594 C 9.059295654296875 73.8900146484375 12.44855499267578 78.91665649414062 16.76589202880859 83.23399353027344 C 21.08323669433594 87.55132293701172 26.10989379882812 90.94059753417969 31.70623016357422 93.30764007568359 C 37.49866485595703 95.75762939453125 43.65348052978516 96.99987030029297 49.99972534179688 96.99987030029297 C 56.34597015380859 96.99987030029297 62.50078582763672 95.75762939453125 68.293212890625 93.30764007568359 C 73.88955688476562 90.94059753417969 78.91621398925781 87.55132293701172 83.23355865478516 83.23399353027344 C 87.55089569091797 78.91665649414062 90.94015502929688 73.8900146484375 93.30722045898438 68.29368591308594 C 95.7572021484375 62.50127410888672 96.99945068359375 56.34645843505859 96.99945068359375 49.99964141845703 C 96.99945068359375 43.65341186523438 95.7572021484375 37.49859619140625 93.30722045898438 31.70618438720703 C 90.94015502929688 26.10985565185547 87.55089569091797 21.08321380615234 83.23355865478516 16.76587677001953 C 78.91621398925781 12.44853210449219 73.88955688476562 9.059272766113281 68.293212890625 6.692230224609375 C 62.50078582763672 4.242240905761719 56.34597015380859 3 49.99972534179688 3 M 49.99972534179688 0 C 77.61381530761719 0 99.99945068359375 22.38559722900391 99.99945068359375 49.99964141845703 L 99.99945068359375 50.00022888183594 C 99.99945068359375 77.6142578125 77.61381530761719 99.99987030029297 49.99972534179688 99.99987030029297 C 22.38563537597656 99.99987030029297 0 77.6142578125 0 50.00022888183594 L 0 49.99964141845703 C 0 22.38559722900391 22.38563537597656 0 49.99972534179688 0 Z" stroke="none" fill="#fff"/>
              </g>
            </g>
          </g>
        </g>
      </g>
    </g>
    <g id="edificio-del-gobierno" transform="translate(4238 -794)">
      <g id="Grupo_1182216" data-name="Grupo 1182216" transform="translate(0.794 0.794)">
        <g id="Grupo_1182214" data-name="Grupo 1182214">
          <path id="Trazado_910475" data-name="Trazado 910475" d="M7.5,18.831H60.13L35.4,7.5H32.227Zm26.315-3.177a2.118,2.118,0,1,1,2.118-2.118A2.118,2.118,0,0,1,33.815,15.654Z" transform="translate(-7.5 -7.5)" fill="#decba0" fill-rule="evenodd"/>
          <circle id="Elipse_11663" data-name="Elipse 11663" cx="2.118" cy="2.118" r="2.118" transform="matrix(0.987, -0.16, 0.16, 0.987, 23.882, 4.289)" fill="#e5ecf5"/>
          <path id="Trazado_910476" data-name="Trazado 910476" d="M60.13,120.853V114.5H7.5v6.354ZM7.5,155.8H60.13v-3.177H58.542v-3.177H9.088v3.177H7.5Z" transform="translate(-7.5 -103.168)" fill="#e5ecf5" fill-rule="evenodd"/>
          <path id="Trazado_910477" data-name="Trazado 910477" d="M52.5,226.737h7.942V204.5H52.5Zm35.157,0H95.6V204.5H87.657Zm-17.579,0h7.942V204.5H70.079Z" transform="translate(-47.735 -183.638)" fill="#e5ecf5" fill-rule="evenodd"/>
          <path id="Trazado_910478" data-name="Trazado 910478" d="M37.5,203.091H48.618v-3.177H37.5Zm35.158,0H83.776v-3.177H72.657Zm11.119-25.415V174.5H72.657v3.177Zm-28.7,25.415H66.2v-3.177H55.078ZM66.2,177.676V174.5H55.078v3.177Zm-17.579,0V174.5H37.5v3.177Z" transform="translate(-34.322 -156.814)" fill="#decba0" fill-rule="evenodd"/>
          <path id="Trazado_910479" data-name="Trazado 910479" d="M7.5,18.831h3.177L35.4,7.5H32.227Z" transform="translate(-7.5 -7.5)" fill="#d4b981" fill-rule="evenodd"/>
          <path id="Trazado_910480" data-name="Trazado 910480" d="M9.883,114.5H7.5v6.354H9.883ZM7.5,155.8H9.883v-3.177h1.588v-3.177H9.088v3.177H7.5Z" transform="translate(-7.5 -103.168)" fill="#cad8eb" fill-rule="evenodd"/>
          <path id="Trazado_910481" data-name="Trazado 910481" d="M52.5,226.737h2.383V204.5H52.5Zm35.157,0H90.04V204.5H87.657Zm-17.579,0h2.383V204.5H70.079Z" transform="translate(-47.735 -183.638)" fill="#cad8eb" fill-rule="evenodd"/>
          <path id="Trazado_910482" data-name="Trazado 910482" d="M37.5,203.091h2.383v-3.177H37.5Zm35.158,0H75.04v-3.177H72.657v3.177ZM75.04,174.5H72.657v3.177H75.04ZM55.079,203.091h2.383v-3.177H55.079ZM57.461,174.5H55.079v3.177h2.383Zm-17.579,0H37.5v3.177h2.383Z" transform="translate(-34.323 -156.814)" fill="#d4b981" fill-rule="evenodd"/>
          <path id="Trazado_910483" data-name="Trazado 910483" d="M129.087,203.091h6.46v-3.177h1.588V177.676h-1.588V174.5h-6.46v3.177H127.5v22.238h1.588Zm17.579,0h6.46v-3.177h1.588V177.676h-1.588V174.5h-6.46v3.177h-1.588v22.238h1.588Z" transform="translate(-114.792 -156.814)" fill="#87bcc4" fill-rule="evenodd"/>
          <path id="Trazado_910484" data-name="Trazado 910484" d="M129.087,178.47v20.65h1.588v3.971h-1.588v-3.177H127.5V177.676h1.588V174.5h1.588v3.971Zm17.579,0v20.65h1.588v3.971h-1.588v-3.177h-1.588V177.676h1.588V174.5h1.588v3.971Z" transform="translate(-114.792 -156.814)" fill="#5fa6b0" fill-rule="evenodd"/>
          <path id="Trazado_910485" data-name="Trazado 910485" d="M236,46.608a2.121,2.121,0,0,0,2.912,1.964,2.119,2.119,0,0,1,0-3.928A2.121,2.121,0,0,0,236,46.608Z" transform="translate(-211.803 -40.572)" fill="#cad8eb" fill-rule="evenodd"/>
        </g>
        <g id="Grupo_1182215" data-name="Grupo 1182215" transform="translate(7.148 13.713)">
          <path id="Trazado_910486" data-name="Trazado 910486" d="M111.745,164h-1.588v-1.588h1.588Zm-17.579,0H92.578v-1.588h1.588Zm-17.579,0H75v-1.588h1.588Zm36.746-9.531h-1.588v-4.765h1.588Zm-17.579,0H94.166v-4.765h1.588Zm-17.579,0H76.588v-4.765h1.588Zm35.158-6.354h-1.588V146.53h1.588Zm-17.579,0H94.166V146.53h1.588Zm-17.579,0H76.588V146.53h1.588Zm39.923-9.531H116.51V137H118.1Zm-3.177,0h-4.765V137h4.765Z" transform="translate(-74.999 -136.999)" fill="#fff"/>
        </g>
      </g>
      <g id="Grupo_1182217" data-name="Grupo 1182217" transform="translate(0)">
        <path id="Trazado_910487" data-name="Trazado 910487" d="M18.177,227V246.06H16.588v3.177H15v1.588H66.042v-1.588H64.453V246.06H62.865V227H61.277V246.06H58.894v1.588h3.971v1.588H53.334v-1.588h3.971V246.06H54.923V227H53.334V246.06H51.746v3.177H46.875V246.06H45.286V227H43.7V246.06H41.315v1.588h3.971v1.588H35.756v-1.588h3.971V246.06H37.344V227H35.756V246.06H34.167v3.177H29.3V246.06H27.708V227H26.119V246.06H23.736v1.588h3.971v1.588H18.177v-1.588h3.971V246.06H19.765V227Z" transform="translate(-13.412 -202.961)"/>
        <path id="Trazado_910488" data-name="Trazado 910488" d="M1.588,468.588H26.315V467H0v4.765H46.277v-1.588H1.588Z" transform="translate(0 -417.547)"/>
        <path id="Trazado_910489" data-name="Trazado 910489" d="M263.5,468.588h24.727v1.588h-4.765v1.588h6.354V467H263.5Z" transform="translate(-235.596 -417.547)"/>
        <path id="Trazado_910490" data-name="Trazado 910490" d="M28.871,0H25.348l-11.8,5.407.662,1.444L25.694,1.588h2.83l21.26,9.742H4.434l8.332-3.818L12.1,6.068,0,11.615v7.658H3.177V22.45H15.884V19.273h4.871V22.45H33.463V19.273h4.871V22.45H51.042V19.273h3.177V11.615ZM14.3,20.861H4.765V19.273H14.3Zm35.158,0H39.923V19.273h9.531ZM27.9,17.685v1.588h3.971v1.588H22.344V19.273h3.971V17.685H1.588V12.919H52.63v4.765Z" transform="translate(0)"/>
        <path id="Trazado_910491" data-name="Trazado 910491" d="M233.5,137h1.588v1.588H233.5Z" transform="translate(-208.773 -122.491)"/>
        <path id="Trazado_910492" data-name="Trazado 910492" d="M211.295,42.824a2.918,2.918,0,0,0,2.8-2.118h2.493V39.118H214.1a2.913,2.913,0,0,0-5.6,0H206v1.588h2.493A2.918,2.918,0,0,0,211.295,42.824Zm0-4.236a1.324,1.324,0,1,1-1.324,1.324A1.325,1.325,0,0,1,211.295,38.588Z" transform="translate(-184.185 -33.082)"/>
        <path id="Trazado_910493" data-name="Trazado 910493" d="M263.5,137h1.588v1.588H263.5Z" transform="translate(-235.596 -122.491)"/>
      </g>
    </g>
  </g>
</svg>
