<svg xmlns="http://www.w3.org/2000/svg" xmlns:xlink="http://www.w3.org/1999/xlink" width="102.949" height="102.949" viewBox="0 0 102.949 102.949">
  <defs>
    <filter id="Trazado_874925" x="0" y="0" width="102.949" height="102.949" filterUnits="userSpaceOnUse">
      <feOffset dy="3" input="SourceAlpha"/>
      <feGaussianBlur stdDeviation="3" result="blur"/>
      <feFlood flood-opacity="0.161"/>
      <feComposite operator="in" in2="blur"/>
      <feComposite in="SourceGraphic"/>
    </filter>
    <clipPath id="clip-path">
      <path id="path21" d="M0-682.665H58.05v58.05H0Z" transform="translate(0 682.665)"/>
    </clipPath>
  </defs>
  <g id="Grupo_1182245" data-name="Grupo 1182245" transform="translate(-749.051 -12641)">
    <g id="Grupo_1181923" data-name="Grupo 1181923" transform="translate(-50.449 10129.843)">
      <g id="Grupo_1111316" data-name="Grupo 1111316" transform="translate(808.5 2517.157)">
        <g id="Grupo_1109835" data-name="Grupo 1109835" transform="translate(0 0)">
          <g id="Grupo_1107913" data-name="Grupo 1107913" transform="translate(0 0)">
            <g transform="matrix(1, 0, 0, 1, -9, -6)" filter="url(#Trazado_874925)">
              <g id="Trazado_874925-2" data-name="Trazado 874925" transform="translate(9 6)" fill="#4c6929" opacity="0.859">
                <path d="M 42.47446823120117 83.44929504394531 C 36.94229125976562 83.44929504394531 31.57638549804688 82.36614227294922 26.52582168579102 80.22994232177734 C 21.64678573608398 78.16628265380859 17.26464462280273 75.211669921875 13.50113868713379 71.44816589355469 C 9.737632751464844 67.68466949462891 6.78300952911377 63.30253982543945 4.719362258911133 58.42351913452148 C 2.583150625228882 53.37295150756836 1.499997615814209 48.00706100463867 1.499997615814209 42.47489547729492 C 1.499997615814209 36.94223403930664 2.583150625228882 31.57634162902832 4.719362258911133 26.52577781677246 C 6.78300952911377 21.64675331115723 9.737632751464844 17.26462364196777 13.50113868713379 13.50113010406494 C 17.26464462280273 9.737624168395996 21.64678573608398 6.783012390136719 26.52582168579102 4.719353199005127 C 31.57638549804688 2.583153486251831 36.94229125976562 1.500000476837158 42.47446823120117 1.500000476837158 C 48.00664520263672 1.500000476837158 53.37255096435547 2.583153486251831 58.42311477661133 4.719353199005127 C 63.30215072631836 6.783012390136719 67.68428802490234 9.737624168395996 71.44779968261719 13.50113010406494 C 75.2113037109375 17.26462364196777 78.16592407226562 21.64675331115723 80.22957611083984 26.52577781677246 C 82.36578369140625 31.57634162902832 83.44893646240234 36.94223403930664 83.44893646240234 42.47439956665039 C 83.44893646240234 48.00706100463867 82.36578369140625 53.37295150756836 80.22957611083984 58.42351913452148 C 78.16592407226562 63.30253982543945 75.2113037109375 67.68466949462891 71.44779968261719 71.44816589355469 C 67.68428802490234 75.211669921875 63.30215072631836 78.16628265380859 58.42311477661133 80.22994232177734 C 53.37255096435547 82.36614227294922 48.00664520263672 83.44929504394531 42.47446823120117 83.44929504394531 Z" stroke="none"/>
                <path d="M 42.47446823120117 2.999992370605469 C 37.14412307739258 2.999992370605469 31.97481536865234 4.04327392578125 27.11014938354492 6.100860595703125 C 22.40990829467773 8.088890075683594 18.18804168701172 10.93555450439453 14.56179809570312 14.56178283691406 C 10.93557739257812 18.18801116943359 8.088897705078125 22.40987396240234 6.100868225097656 27.11009979248047 C 4.043281555175781 31.97476577758789 3 37.14406204223633 3 42.47488784790039 C 3 47.80522155761719 4.043281555175781 52.97451400756836 6.100868225097656 57.83917999267578 C 8.088897705078125 62.53940582275391 10.93557739257812 66.76127624511719 14.56179809570312 70.38749694824219 C 18.18804168701172 74.01372528076172 22.40990829467773 76.86039733886719 27.11014938354492 78.84841918945312 C 31.97481536865234 80.906005859375 37.14412307739258 81.94928741455078 42.47446823120117 81.94928741455078 C 47.80481338500977 81.94928741455078 52.97412109375 80.906005859375 57.83879089355469 78.84841918945312 C 62.53902816772461 76.86039733886719 66.76089477539062 74.01372528076172 70.38713073730469 70.38749694824219 C 74.01335906982422 66.76127624511719 76.86003875732422 62.53940582275391 78.84806823730469 57.83917999267578 C 80.90565490722656 52.97451400756836 81.94893646240234 47.80522155761719 81.94893646240234 42.47439575195312 C 81.94893646240234 37.14406204223633 80.90565490722656 31.97476577758789 78.84806823730469 27.11009979248047 C 76.86003875732422 22.40987396240234 74.01335906982422 18.18801116943359 70.38713073730469 14.56178283691406 C 66.76089477539062 10.93555450439453 62.53902816772461 8.088890075683594 57.83879089355469 6.100860595703125 C 52.97412109375 4.04327392578125 47.80481338500977 2.999992370605469 42.47446823120117 2.999992370605469 M 42.47446823120117 -7.62939453125e-06 C 65.93246459960938 -7.62939453125e-06 84.94893646240234 19.01643371582031 84.94893646240234 42.47439575195312 L 84.94893646240234 42.47488784790039 C 84.94893646240234 65.93284606933594 65.93246459960938 84.94928741455078 42.47446823120117 84.94928741455078 C 19.01647186279297 84.94928741455078 0 65.93284606933594 0 42.47488784790039 L 0 42.47439575195312 C 0 19.01643371582031 19.01647186279297 -7.62939453125e-06 42.47446823120117 -7.62939453125e-06 Z" stroke="none" fill="#fff"/>
              </g>
            </g>
            <g id="Trazado_874923" data-name="Trazado 874923" transform="translate(0 0)" fill="none">
              <path d="M42.474,0A42.474,42.474,0,0,1,84.949,42.474h0A42.474,42.474,0,0,1,0,42.475H0A42.474,42.474,0,0,1,42.474,0Z" stroke="none"/>
              <path d="M 42.47446823120117 2.999992370605469 C 37.14412307739258 2.999992370605469 31.97481536865234 4.04327392578125 27.11014938354492 6.100860595703125 C 22.40990829467773 8.088890075683594 18.18804168701172 10.93555450439453 14.56179809570312 14.56178283691406 C 10.93557739257812 18.18801116943359 8.088897705078125 22.40987396240234 6.100868225097656 27.11009979248047 C 4.043281555175781 31.97476577758789 3 37.14406204223633 3 42.47488784790039 C 3 47.80522155761719 4.043281555175781 52.97451400756836 6.100868225097656 57.83917999267578 C 8.088897705078125 62.53940582275391 10.93557739257812 66.76127624511719 14.56179809570312 70.38749694824219 C 18.18804168701172 74.01372528076172 22.40990829467773 76.86039733886719 27.11014938354492 78.84841918945312 C 31.97481536865234 80.906005859375 37.14412307739258 81.94928741455078 42.47446823120117 81.94928741455078 C 47.80481338500977 81.94928741455078 52.97412109375 80.906005859375 57.83879089355469 78.84841918945312 C 62.53902816772461 76.86039733886719 66.76089477539062 74.01372528076172 70.38713073730469 70.38749694824219 C 74.01335906982422 66.76127624511719 76.86003875732422 62.53940582275391 78.84806823730469 57.83917999267578 C 80.90565490722656 52.97451400756836 81.94893646240234 47.80522155761719 81.94893646240234 42.47439575195312 C 81.94893646240234 37.14406204223633 80.90565490722656 31.97476577758789 78.84806823730469 27.11009979248047 C 76.86003875732422 22.40987396240234 74.01335906982422 18.18801116943359 70.38713073730469 14.56178283691406 C 66.76089477539062 10.93555450439453 62.53902816772461 8.088890075683594 57.83879089355469 6.100860595703125 C 52.97412109375 4.04327392578125 47.80481338500977 2.999992370605469 42.47446823120117 2.999992370605469 M 42.47446823120117 -7.62939453125e-06 C 65.93246459960938 -7.62939453125e-06 84.94893646240234 19.01643371582031 84.94893646240234 42.47439575195312 L 84.94893646240234 42.47488784790039 C 84.94893646240234 65.93284606933594 65.93246459960938 84.94928741455078 42.47446823120117 84.94928741455078 C 19.01647186279297 84.94928741455078 0 65.93284606933594 0 42.47488784790039 L 0 42.47439575195312 C 0 19.01643371582031 19.01647186279297 -7.62939453125e-06 42.47446823120117 -7.62939453125e-06 Z" stroke="none" fill="#fff"/>
            </g>
          </g>
        </g>
      </g>
    </g>
    <g id="g15" transform="translate(771.051 13342.665)">
      <g id="g17" transform="translate(0 -682.665)">
        <g id="g19" clip-path="url(#clip-path)">
          <g id="g25" transform="translate(38.836 6.707)">
            <path id="path27" d="M-96.244-88.6a10.908,10.908,0,0,0-.616-3.631,9.026,9.026,0,0,0-3.334-4.508.536.536,0,0,0-.585-.018,9.01,9.01,0,0,0-3.566,4.232,9.422,9.422,0,0,0-.8,4.566,9.99,9.99,0,0,0,3.224,6.554c1.162,1,1.667.685,2.733-.333A9.846,9.846,0,0,0-96.244-88.6" transform="translate(105.189 96.837)" fill="#91deb6"/>
          </g>
          <g id="g29" transform="translate(42.186 6.708)">
            <path id="path31" d="M-60.2-88.6a9.845,9.845,0,0,1-2.948,6.862,8.548,8.548,0,0,1-1.261,1,.533.533,0,0,1-.58,0c-.139-.091-.283-.186-.316-.209-.082-.059-.161-.119-.24-.179.086-.075.17-.153.253-.231a9.845,9.845,0,0,0,2.948-6.863,10.9,10.9,0,0,0-.616-3.632,9.114,9.114,0,0,0-2.834-4.13,8.2,8.2,0,0,1,1.061-.77.537.537,0,0,1,.585.018,9.02,9.02,0,0,1,3.333,4.507A10.9,10.9,0,0,1-60.2-88.6" transform="translate(65.8 96.836)" fill="#6ed5a1"/>
          </g>
          <g id="g33" transform="translate(37.987 5.857)">
            <path id="path35" d="M-83.878-12.246a1.383,1.383,0,0,1-.756-.225c-.152-.1-.309-.2-.345-.228q-.325-.233-.626-.491a10.734,10.734,0,0,1-3.526-7.118,10.24,10.24,0,0,1,.867-4.986,9.814,9.814,0,0,1,3.907-4.627,1.387,1.387,0,0,1,1.514.045A9.365,9.365,0,0,1-80.932-28.1a.85.85,0,0,1-.122,1.2.85.85,0,0,1-1.2-.122,7.694,7.694,0,0,0-1.4-1.334A8.159,8.159,0,0,0-86.7-24.635a8.553,8.553,0,0,0-.743,4.146,9.171,9.171,0,0,0,2.94,6.006q.247.211.511.4l.109.073a7.717,7.717,0,0,0,.965-.783,9.043,9.043,0,0,0,2.685-6.255,9.824,9.824,0,0,0-.4-2.809.85.85,0,0,1,.581-1.053A.85.85,0,0,1-79-24.329a11.522,11.522,0,0,1,.466,3.3,10.651,10.651,0,0,1-3.211,7.47,9.412,9.412,0,0,1-1.387,1.095A1.381,1.381,0,0,1-83.878-12.246Z" transform="translate(89.175 30.125)"/>
          </g>
          <g id="g37" transform="translate(41.634 14.107)">
            <path id="path39" d="M-98.239-97.271a10.909,10.909,0,0,0,2.9-2.276,9.026,9.026,0,0,0,2.366-5.082.536.536,0,0,0-.264-.522,9.008,9.008,0,0,0-5.421-1.111,9.419,9.419,0,0,0-4.4,1.475,9.987,9.987,0,0,0-4.219,5.976c-.313,1.473.165,1.77,1.6,2.23a9.846,9.846,0,0,0,7.437-.69" transform="translate(107.369 106.311)" fill="#00c27a"/>
          </g>
          <g id="g41" transform="translate(41.601 14.518)">
            <path id="path43" d="M-155.214-13.676a9.026,9.026,0,0,1-2.366,5.083,10.915,10.915,0,0,1-2.9,2.276,9.846,9.846,0,0,1-7.436.69,8.5,8.5,0,0,1-1.477-.633.533.533,0,0,1-.249-.291A9.862,9.862,0,0,0-162.4-7.3a10.916,10.916,0,0,0,2.9-2.276,9.029,9.029,0,0,0,2.366-5.083.529.529,0,0,0-.049-.288,8.505,8.505,0,0,1,1.706.748.538.538,0,0,1,.264.523" transform="translate(169.64 14.947)" fill="#08b865"/>
          </g>
          <g id="g45" transform="translate(30.588 14.107)">
            <path id="path47" d="M-56.65-97.271a10.906,10.906,0,0,1-2.9-2.276,9.027,9.027,0,0,1-2.366-5.082.536.536,0,0,1,.264-.522,9.008,9.008,0,0,1,5.421-1.111,9.419,9.419,0,0,1,4.4,1.475,9.988,9.988,0,0,1,4.219,5.976c.3,1.425-.2,1.78-1.6,2.231a9.846,9.846,0,0,1-7.437-.69" transform="translate(61.915 106.311)" fill="#00c27a"/>
          </g>
          <g id="g49" transform="translate(30.588 14.107)">
            <path id="path51" d="M-152.567-97.891a8.389,8.389,0,0,1-.982.457l-.037-.18a9.984,9.984,0,0,0-4.219-5.976,9.415,9.415,0,0,0-4.4-1.475,9.179,9.179,0,0,0-4.4.611,8.193,8.193,0,0,1-.139-.853.536.536,0,0,1,.264-.523,9.01,9.01,0,0,1,5.421-1.11,9.411,9.411,0,0,1,4.4,1.475,9.99,9.99,0,0,1,4.219,5.976q.075.352.119.711c0,.04.019.211.033.376a.534.534,0,0,1-.277.51" transform="translate(166.746 106.989)" fill="#08b865"/>
          </g>
          <g id="g53" transform="translate(3.443 17.667)">
            <path id="path55" d="M-99.085-33.292a10.907,10.907,0,0,0-3-2.132,9.026,9.026,0,0,0-5.545-.83.536.536,0,0,0-.426.4,9.009,9.009,0,0,0,.47,5.514,9.422,9.422,0,0,0,2.66,3.8,9.991,9.991,0,0,0,6.917,2.354c1.5-.116,1.662-.754,1.695-2.168a9.846,9.846,0,0,0-2.768-6.937" transform="translate(108.294 36.386)" fill="#91deb6"/>
          </g>
          <g id="g57" transform="translate(3.475 17.667)">
            <path id="path59" d="M-128.522-107.93a8.594,8.594,0,0,1-.187,1.6.534.534,0,0,1-.412.409c-.162.034-.331.069-.371.076-.135.022-.271.041-.407.057.009-.126.015-.253.018-.38a9.847,9.847,0,0,0-2.769-6.938,10.911,10.911,0,0,0-3-2.132,9.151,9.151,0,0,0-4.815-.929,8.241,8.241,0,0,1,.2-1.258.536.536,0,0,1,.426-.4,9.03,9.03,0,0,1,5.544.83,10.914,10.914,0,0,1,3,2.133,9.846,9.846,0,0,1,2.768,6.936" transform="translate(140.466 117.96)" fill="#6ed5a1"/>
          </g>
          <g id="g61" transform="translate(2.591 16.817)">
            <path id="path63" d="M-115.314-46.386h0a10.193,10.193,0,0,1,4.43,1.048,11.672,11.672,0,0,1,3.237,2.3,10.651,10.651,0,0,1,3.011,7.552,9.425,9.425,0,0,1-.206,1.755,1.385,1.385,0,0,1-1.068,1.063c-.178.038-.364.075-.407.083q-.392.064-.788.1-.352.028-.7.027a11,11,0,0,1-6.824-2.567,10.242,10.242,0,0,1-2.913-4.139,9.812,9.812,0,0,1-.509-6.034,1.387,1.387,0,0,1,1.1-1.038A9.274,9.274,0,0,1-115.314-46.386Zm8.85,12.1a7.735,7.735,0,0,0,.129-1.236,9.042,9.042,0,0,0-2.525-6.321,10.118,10.118,0,0,0-2.768-1.963,8.484,8.484,0,0,0-3.686-.876,7.341,7.341,0,0,0-1.132.085,8.157,8.157,0,0,0,.477,4.791,8.554,8.554,0,0,0,2.406,3.457,9.3,9.3,0,0,0,5.755,2.189q.285,0,.571-.022.324-.025.644-.078Z" transform="translate(118.313 46.386)"/>
          </g>
          <g id="g65" transform="translate(11.651 15.33)">
            <path id="path67" d="M-95.9-98.178a10.908,10.908,0,0,0,.438-3.656,9.025,9.025,0,0,0-1.921-5.267.536.536,0,0,0-.556-.183,9.009,9.009,0,0,0-4.619,3.048,9.422,9.422,0,0,0-2.065,4.151,9.988,9.988,0,0,0,1.243,7.209c.232.357.578,1.231,1.218,1.042a8.538,8.538,0,0,0,1.491-.6A9.846,9.846,0,0,0-95.9-98.178" transform="translate(104.812 107.302)" fill="#00c27a"/>
          </g>
          <g id="g69" transform="translate(13.415 15.33)">
            <path id="path71" d="M-76.918-98.18a9.847,9.847,0,0,1-4.771,5.746,8.458,8.458,0,0,1-1.491.6A.531.531,0,0,1-83.737-92c-.108-.126-.219-.257-.244-.289s-.058-.076-.086-.113l.06-.029a9.847,9.847,0,0,0,4.771-5.746,10.9,10.9,0,0,0,.438-3.656,9.1,9.1,0,0,0-1.642-4.9,8.426,8.426,0,0,1,1.483-.551.536.536,0,0,1,.556.183,9.023,9.023,0,0,1,1.921,5.268,10.9,10.9,0,0,1-.438,3.656" transform="translate(84.066 107.305)" fill="#08b865"/>
          </g>
          <g id="g73" transform="translate(10.796 14.479)">
            <path id="path75" d="M-111.5-100.111h0a1.381,1.381,0,0,1-1.053-.487c-.118-.139-.24-.283-.267-.318q-.244-.314-.461-.647a10.735,10.735,0,0,1-1.366-7.826,10.241,10.241,0,0,1,2.244-4.537,9.813,9.813,0,0,1,5.058-3.331,1.385,1.385,0,0,1,.357-.047,1.38,1.38,0,0,1,1.081.519,9.824,9.824,0,0,1,2.107,5.761,11.673,11.673,0,0,1-.474,3.943,10.651,10.651,0,0,1-5.195,6.255,9.4,9.4,0,0,1-1.64.657A1.382,1.382,0,0,1-111.5-100.111Zm4.386-15.455a8.2,8.2,0,0,0-3.973,2.719,8.553,8.553,0,0,0-1.887,3.766,9.172,9.172,0,0,0,1.119,6.593q.177.272.376.528l.084.1a7.714,7.714,0,0,0,1.147-.478,9.043,9.043,0,0,0,4.346-5.239,10.119,10.119,0,0,0,.4-3.37A8.169,8.169,0,0,0-107.118-115.566Z" transform="translate(114.859 117.302)"/>
          </g>
          <g id="g77" transform="translate(0.895 26.085)">
            <path id="path79" d="M-98.178-95.9a10.908,10.908,0,0,1-3.656.438,9.025,9.025,0,0,1-5.267-1.921.536.536,0,0,1-.183-.556,9.009,9.009,0,0,1,3.048-4.619,9.423,9.423,0,0,1,4.151-2.065,9.988,9.988,0,0,1,7.209,1.243c.379.246,1.222.609,1.042,1.218a8.545,8.545,0,0,1-.6,1.492A9.846,9.846,0,0,1-98.178-95.9" transform="translate(107.302 104.812)" fill="#00c27a"/>
          </g>
          <g id="g81" transform="translate(0.895 26.085)">
            <path id="path83" d="M-166.441-28.516a8.558,8.558,0,0,1-.492,1.279l-.151-.1a9.988,9.988,0,0,0-7.209-1.243,9.434,9.434,0,0,0-4.152,2.066,9.25,9.25,0,0,0-2.565,3.281,8.072,8.072,0,0,1-.7-.5.536.536,0,0,1-.183-.557,9.007,9.007,0,0,1,3.048-4.619,9.416,9.416,0,0,1,4.151-2.065,9.986,9.986,0,0,1,7.21,1.243c.2.13.4.27.587.418.031.024.163.135.289.243a.533.533,0,0,1,.166.557" transform="translate(181.91 31.167)" fill="#08b865"/>
          </g>
          <g id="g85" transform="translate(0.045 25.235)">
            <path id="path87" d="M-110.453-103.749q-.285,0-.57-.013a9.824,9.824,0,0,1-5.761-2.107,1.386,1.386,0,0,1-.472-1.439,9.813,9.813,0,0,1,3.331-5.057,10.243,10.243,0,0,1,4.537-2.244,12.368,12.368,0,0,1,2.223-.2,10.237,10.237,0,0,1,5.6,1.57q.333.216.646.46c.035.027.18.149.318.267a1.385,1.385,0,0,1,.43,1.444,9.415,9.415,0,0,1-.657,1.64,10.651,10.651,0,0,1-6.255,5.195A11.546,11.546,0,0,1-110.453-103.749Zm-5.1-3.319a8.171,8.171,0,0,0,4.61,1.607q.246.011.493.011a9.847,9.847,0,0,0,2.877-.413,9.043,9.043,0,0,0,5.239-4.346,7.721,7.721,0,0,0,.478-1.147l-.1-.088c-.167-.13-.343-.255-.524-.373a8.545,8.545,0,0,0-4.676-1.295,10.663,10.663,0,0,0-1.916.176,8.555,8.555,0,0,0-3.766,1.887A8.158,8.158,0,0,0-115.556-107.068Z" transform="translate(117.302 114.812)"/>
          </g>
          <g id="g89" transform="translate(40.722 13.257)">
            <path id="path91" d="M-112.653-104.448a10.15,10.15,0,0,1-3.1-.473,9.4,9.4,0,0,1-1.625-.695,1.384,1.384,0,0,1-.717-1.325c.015-.181.031-.37.036-.413q.049-.4.132-.784a10.734,10.734,0,0,1,4.568-6.5,10.238,10.238,0,0,1,4.794-1.621q.53-.053,1.06-.053a9.728,9.728,0,0,1,4.872,1.274,1.387,1.387,0,0,1,.684,1.351,9.826,9.826,0,0,1-2.584,5.563,11.675,11.675,0,0,1-3.123,2.453A10.662,10.662,0,0,1-112.653-104.448Zm-3.73-2.565a7.708,7.708,0,0,0,1.148.473,8.445,8.445,0,0,0,2.582.392,9.081,9.081,0,0,0,4.2-1.023,10.121,10.121,0,0,0,2.667-2.1,8.172,8.172,0,0,0,2.123-4.4,8.064,8.064,0,0,0-3.84-.944q-.445,0-.891.045a8.55,8.55,0,0,0-4,1.329,9.171,9.171,0,0,0-3.87,5.453q-.068.317-.107.64C-116.374-107.124-116.378-107.075-116.383-107.014Z" transform="translate(118.1 116.311)"/>
          </g>
          <g id="g93" transform="translate(29.738 13.257)">
            <path id="path95" d="M-61.2-104.448a10.661,10.661,0,0,1-5-1.222,11.671,11.671,0,0,1-3.123-2.453,9.825,9.825,0,0,1-2.584-5.563,1.387,1.387,0,0,1,.684-1.351,9.727,9.727,0,0,1,4.872-1.274q.529,0,1.06.053a10.238,10.238,0,0,1,4.794,1.621,10.734,10.734,0,0,1,4.568,6.5q.082.388.132.783c.005.044.022.233.036.414a1.384,1.384,0,0,1-.717,1.325,9.407,9.407,0,0,1-1.625.695A10.142,10.142,0,0,1-61.2-104.448Zm-8.987-9.218a8.172,8.172,0,0,0,2.123,4.4,10.117,10.117,0,0,0,2.667,2.1,9.081,9.081,0,0,0,4.2,1.023,8.445,8.445,0,0,0,2.581-.392,7.713,7.713,0,0,0,1.149-.473c-.005-.062-.01-.112-.012-.136-.026-.21-.062-.423-.107-.635a9.171,9.171,0,0,0-3.87-5.453,8.55,8.55,0,0,0-4-1.329q-.445-.044-.891-.045A8.063,8.063,0,0,0-70.191-113.666Z" transform="translate(71.915 116.311)"/>
          </g>
          <g id="g97" transform="translate(29.463 18.468)">
            <path id="path99" d="M-297.96-148.979a13.846,13.846,0,0,0-13.846-13.846,13.846,13.846,0,0,0-13.846,13.846,14.742,14.742,0,0,0,1.76,6.759c1.521,3.054,4.828,8.618,9.937,11.675a4.189,4.189,0,0,0,4.292.007,24.529,24.529,0,0,0,7.5-7.492q.775-1.148,1.459-2.354a17.271,17.271,0,0,0,2.739-8.595" transform="translate(325.651 162.825)" fill="#e94444"/>
          </g>
          <g id="g101" transform="translate(41.287 18.577)">
            <path id="path103" d="M-170.732-147.809a17.26,17.26,0,0,1-2.739,8.594q-.684,1.2-1.459,2.355a24.54,24.54,0,0,1-7.5,7.492,4.188,4.188,0,0,1-4.164.066,4.162,4.162,0,0,0,1.81-.575,24.523,24.523,0,0,0,7.5-7.491q.775-1.148,1.459-2.355a17.272,17.272,0,0,0,2.739-8.594,13.852,13.852,0,0,0-9.746-13.229,13.847,13.847,0,0,1,12.1,13.737" transform="translate(186.6 161.546)" fill="#d83131"/>
          </g>
          <g id="g105" transform="translate(28.613 17.617)">
            <path id="path107" d="M-320.955-172.825a14.713,14.713,0,0,1,14.7,14.7,18.208,18.208,0,0,1-2.85,9.016c-.472.83-.975,1.64-1.493,2.409a25.212,25.212,0,0,1-7.774,7.747,5.033,5.033,0,0,1-2.574.707,5.045,5.045,0,0,1-2.59-.716c-5.3-3.169-8.7-8.895-10.261-12.026a15.438,15.438,0,0,1-1.849-7.138A14.713,14.713,0,0,1-320.955-172.825Zm0,32.874a3.331,3.331,0,0,0,1.7-.468,23.544,23.544,0,0,0,7.235-7.237c.495-.733.974-1.507,1.425-2.3a16.669,16.669,0,0,0,2.628-8.174,13.01,13.01,0,0,0-13-13,13.01,13.01,0,0,0-13,13,13.832,13.832,0,0,0,1.671,6.38c1.477,2.965,4.689,8.378,9.612,11.325A3.344,3.344,0,0,0-320.951-139.951Z" transform="translate(335.651 172.825)"/>
          </g>
          <g id="g109" transform="translate(46.207 35.258)">
            <path id="path111" d="M-9.15-24.627a.85.85,0,0,1-.85-.85v-1.517a.85.85,0,0,1,.85-.85.85.85,0,0,1,.85.85v1.517A.85.85,0,0,1-9.15-24.627Z" transform="translate(10 27.845)"/>
          </g>
          <g id="g113" transform="translate(38.71 35.258)">
            <path id="path115" d="M-9.15-24.627a.85.85,0,0,1-.85-.85v-1.517a.85.85,0,0,1,.85-.85.85.85,0,0,1,.85.85v1.517A.85.85,0,0,1-9.15-24.627Z" transform="translate(10 27.845)"/>
          </g>
          <g id="g117" transform="translate(42.458 29.367)">
            <path id="path119" d="M-9.15-24.627a.85.85,0,0,1-.85-.85v-1.517a.85.85,0,0,1,.85-.85.85.85,0,0,1,.85.85v1.517A.85.85,0,0,1-9.15-24.627Z" transform="translate(10 27.845)"/>
          </g>
          <g id="g121" transform="translate(50.464 29.367)">
            <path id="path123" d="M-9.15-24.627a.85.85,0,0,1-.85-.85v-1.517a.85.85,0,0,1,.85-.85.85.85,0,0,1,.85.85v1.517A.85.85,0,0,1-9.15-24.627Z" transform="translate(10 27.845)"/>
          </g>
          <g id="g125" transform="translate(42.458 40.374)">
            <path id="path127" d="M-9.15-24.627a.85.85,0,0,1-.85-.85v-1.517a.85.85,0,0,1,.85-.85.85.85,0,0,1,.85.85v1.517A.85.85,0,0,1-9.15-24.627Z" transform="translate(10 27.845)"/>
          </g>
          <g id="g129" transform="translate(7.927 22.362)">
            <path id="path131" d="M-254.325-43.635a13.846,13.846,0,0,0-19.581,0,13.846,13.846,0,0,0,0,19.581,14.74,14.74,0,0,0,6.023,3.534c3.235,1.084,9.508,2.68,15.282,1.229a4.189,4.189,0,0,0,3.04-3.03,24.53,24.53,0,0,0,.009-10.6q-.264-1.36-.633-2.7a17.272,17.272,0,0,0-4.141-8.014" transform="translate(277.961 47.69)" fill="#e94444"/>
          </g>
          <g id="g133" transform="translate(18.455 22.361)">
            <path id="path135" d="M-192.313-272.988a4.191,4.191,0,0,1-3.04,3.029,18.924,18.924,0,0,1-2.859.483c.161-.035.322-.073.483-.113a4.191,4.191,0,0,0,3.04-3.029,24.528,24.528,0,0,0,.009-10.6q-.264-1.361-.633-2.7a17.274,17.274,0,0,0-4.141-8.015,13.814,13.814,0,0,0-10.732-4.024,13.839,13.839,0,0,1,13.109,3.654,17.269,17.269,0,0,1,4.141,8.015q.367,1.335.633,2.7a24.528,24.528,0,0,1-.009,10.6" transform="translate(210.186 298.358)" fill="#d83131"/>
          </g>
          <g id="g137" transform="translate(7.084 21.511)">
            <path id="path139" d="M-101.176-296.746a34.43,34.43,0,0,1-10.568-1.852q-.269-.09-.532-.185a.85.85,0,0,1-.512-1.088.85.85,0,0,1,1.088-.512q.246.088.5.172c3.141,1.052,9.24,2.609,14.8,1.211a3.333,3.333,0,0,0,2.423-2.414,23.545,23.545,0,0,0,0-10.233c-.168-.867-.376-1.753-.618-2.634a16.67,16.67,0,0,0-3.922-7.638,12.91,12.91,0,0,0-9.189-3.806,12.91,12.91,0,0,0-9.189,3.806,13.01,13.01,0,0,0,0,18.378,12,12,0,0,0,1.814,1.493.85.85,0,0,1,.232,1.18.85.85,0,0,1-1.18.232,13.68,13.68,0,0,1-2.068-1.7,14.713,14.713,0,0,1,0-20.783,14.6,14.6,0,0,1,10.392-4.3,14.6,14.6,0,0,1,10.392,4.3,18.208,18.208,0,0,1,4.359,8.39c.253.922.471,1.851.648,2.76A25.212,25.212,0,0,1-92.328-301a5.032,5.032,0,0,1-3.657,3.645A21.341,21.341,0,0,1-101.176-296.746Z" transform="translate(122.396 327.426)"/>
          </g>
          <g id="g141" transform="translate(26.256 35.39)">
            <path id="path143" d="M-20.7-19.845a.848.848,0,0,1-.6-.249l-1.073-1.073a.85.85,0,0,1,0-1.2.85.85,0,0,1,1.2,0l1.073,1.073a.85.85,0,0,1,0,1.2A.848.848,0,0,1-20.7-19.845Z" transform="translate(22.619 22.619)"/>
          </g>
          <g id="g145" transform="translate(20.956 40.691)">
            <path id="path147" d="M-20.7-19.845a.848.848,0,0,1-.6-.249l-1.073-1.073a.85.85,0,0,1,0-1.2.85.85,0,0,1,1.2,0l1.073,1.073a.85.85,0,0,1,0,1.2A.848.848,0,0,1-20.7-19.845Z" transform="translate(22.619 22.619)"/>
          </g>
          <g id="g149" transform="translate(19.441 33.875)">
            <path id="path151" d="M-20.7-19.845a.848.848,0,0,1-.6-.249l-1.073-1.073a.85.85,0,0,1,0-1.2.85.85,0,0,1,1.2,0l1.073,1.073a.85.85,0,0,1,0,1.2A.848.848,0,0,1-20.7-19.845Z" transform="translate(22.619 22.619)"/>
          </g>
          <g id="g153" transform="translate(25.102 28.214)">
            <path id="path155" d="M-20.7-19.845a.848.848,0,0,1-.6-.249l-1.073-1.073a.85.85,0,0,1,0-1.2.85.85,0,0,1,1.2,0l1.073,1.073a.85.85,0,0,1,0,1.2A.848.848,0,0,1-20.7-19.845Z" transform="translate(22.619 22.619)"/>
          </g>
          <g id="g157" transform="translate(13.78 39.536)">
            <path id="path159" d="M-20.7-19.845a.848.848,0,0,1-.6-.249l-1.073-1.073a.85.85,0,0,1,0-1.2.85.85,0,0,1,1.2,0l1.073,1.073a.85.85,0,0,1,0,1.2A.848.848,0,0,1-20.7-19.845Z" transform="translate(22.619 22.619)"/>
          </g>
          <g id="g161" transform="translate(27.223 41.658)">
            <path id="path163" d="M-20.7-19.845a.848.848,0,0,1-.6-.249l-1.073-1.073a.85.85,0,0,1,0-1.2.85.85,0,0,1,1.2,0l1.073,1.073a.85.85,0,0,1,0,1.2A.848.848,0,0,1-20.7-19.845Z" transform="translate(22.619 22.619)"/>
          </g>
        </g>
      </g>
    </g>
  </g>
</svg>
