<svg xmlns="http://www.w3.org/2000/svg" xmlns:xlink="http://www.w3.org/1999/xlink" width="118" height="118" viewBox="0 0 118 118">
  <defs>
    <filter id="Trazado_874925" x="0" y="0" width="117.999" height="118" filterUnits="userSpaceOnUse">
      <feOffset dy="3" input="SourceAlpha"/>
      <feGaussianBlur stdDeviation="3" result="blur"/>
      <feFlood flood-opacity="0.161"/>
      <feComposite operator="in" in2="blur"/>
      <feComposite in="SourceGraphic"/>
    </filter>
  </defs>
  <g id="Grupo_1182211" data-name="Grupo 1182211" transform="translate(-1065.051 -10785)">
    <g id="Grupo_1181914" data-name="Grupo 1181914" transform="translate(-43.083 8851.001)">
      <g id="Grupo_1111553" data-name="Grupo 1111553" transform="translate(308.634 -577.158)">
        <g id="Grupo_1111316" data-name="Grupo 1111316" transform="translate(808.5 2517.157)">
          <g id="Grupo_1109835" data-name="Grupo 1109835" transform="translate(0 0)">
            <g id="Grupo_1107913" data-name="Grupo 1107913" transform="translate(0 0)">
              <g transform="matrix(1, 0, 0, 1, -9, -6)" filter="url(#Trazado_874925)">
                <g id="Trazado_874925-2" data-name="Trazado 874925" transform="translate(9 6)" fill="#9cc8ff" opacity="0.859">
                  <path d="M 49.99972534179688 98.4998779296875 C 43.45164108276367 98.4998779296875 37.10022354125977 97.21776580810547 31.12189674377441 94.68914794921875 C 25.34676742553711 92.24647521972656 20.15985298156738 88.74925994873047 15.70523929595947 84.29464721679688 C 11.25062561035156 79.84004974365234 7.753411293029785 74.65313720703125 5.310725212097168 68.87800598144531 C 2.782111167907715 62.89969253540039 1.499996781349182 56.54829406738281 1.499996781349182 50.00022125244141 C 1.499996781349182 43.45157623291016 2.782111167907715 37.10017776489258 5.310725212097168 31.12186431884766 C 7.753411293029785 25.34673500061035 11.25062561035156 20.15983581542969 15.70523929595947 15.70522117614746 C 20.15985298156738 11.25062084197998 25.34676742553711 7.753406524658203 31.12189674377441 5.31073522567749 C 37.10022354125977 2.782120943069458 43.45164108276367 1.500006556510925 49.99972534179688 1.500006556510925 C 56.54780960083008 1.500006556510925 62.89922714233398 2.782120943069458 68.87755584716797 5.31073522567749 C 74.65267944335938 7.753406524658203 79.839599609375 11.25062084197998 84.29421234130859 15.70522117614746 C 88.74882507324219 20.15983581542969 92.24604034423828 25.34673500061035 94.68872833251953 31.12186431884766 C 97.21733856201172 37.10017776489258 98.49945068359375 43.45157623291016 98.49945068359375 49.99964904785156 C 98.49945068359375 56.54829406738281 97.21733856201172 62.89969253540039 94.68872833251953 68.87800598144531 C 92.24604034423828 74.65313720703125 88.74882507324219 79.84004974365234 84.29421234130859 84.29464721679688 C 79.839599609375 88.74925994873047 74.65267944335938 92.24647521972656 68.87755584716797 94.68914794921875 C 62.89922714233398 97.21776580810547 56.54780960083008 98.4998779296875 49.99972534179688 98.4998779296875 Z" stroke="none"/>
                  <path d="M 49.99972534179688 3 C 43.65348052978516 3 37.49866485595703 4.242240905761719 31.70623016357422 6.692230224609375 C 26.10989379882812 9.059272766113281 21.08323669433594 12.44853210449219 16.76589202880859 16.76587677001953 C 12.44855499267578 21.08321380615234 9.059295654296875 26.10985565185547 6.692230224609375 31.70618438720703 C 4.24224853515625 37.49859619140625 3 43.65341186523438 3 50.00022888183594 C 3 56.34645843505859 4.24224853515625 62.50127410888672 6.692230224609375 68.29368591308594 C 9.059295654296875 73.8900146484375 12.44855499267578 78.91665649414062 16.76589202880859 83.23399353027344 C 21.08323669433594 87.55132293701172 26.10989379882812 90.94059753417969 31.70623016357422 93.30764007568359 C 37.49866485595703 95.75762939453125 43.65348052978516 96.99987030029297 49.99972534179688 96.99987030029297 C 56.34597015380859 96.99987030029297 62.50078582763672 95.75762939453125 68.293212890625 93.30764007568359 C 73.88955688476562 90.94059753417969 78.91621398925781 87.55132293701172 83.23355865478516 83.23399353027344 C 87.55089569091797 78.91665649414062 90.94015502929688 73.8900146484375 93.30722045898438 68.29368591308594 C 95.7572021484375 62.50127410888672 96.99945068359375 56.34645843505859 96.99945068359375 49.99964141845703 C 96.99945068359375 43.65341186523438 95.7572021484375 37.49859619140625 93.30722045898438 31.70618438720703 C 90.94015502929688 26.10985565185547 87.55089569091797 21.08321380615234 83.23355865478516 16.76587677001953 C 78.91621398925781 12.44853210449219 73.88955688476562 9.059272766113281 68.293212890625 6.692230224609375 C 62.50078582763672 4.242240905761719 56.34597015380859 3 49.99972534179688 3 M 49.99972534179688 0 C 77.61381530761719 0 99.99945068359375 22.38559722900391 99.99945068359375 49.99964141845703 L 99.99945068359375 50.00022888183594 C 99.99945068359375 77.6142578125 77.61381530761719 99.99987030029297 49.99972534179688 99.99987030029297 C 22.38563537597656 99.99987030029297 0 77.6142578125 0 50.00022888183594 L 0 49.99964141845703 C 0 22.38559722900391 22.38563537597656 0 49.99972534179688 0 Z" stroke="none" fill="#fff"/>
                </g>
              </g>
              <g id="Trazado_874923" data-name="Trazado 874923" transform="translate(0 0)" fill="none">
                <path d="M50,0a50,50,0,0,1,50,50h0A50,50,0,0,1,0,50H0A50,50,0,0,1,50,0Z" stroke="none"/>
                <path d="M 49.99972534179688 3 C 43.65348052978516 3 37.49866485595703 4.242240905761719 31.70623016357422 6.692230224609375 C 26.10989379882812 9.059272766113281 21.08323669433594 12.44853210449219 16.76589202880859 16.76587677001953 C 12.44855499267578 21.08321380615234 9.059295654296875 26.10985565185547 6.692230224609375 31.70618438720703 C 4.24224853515625 37.49859619140625 3 43.65341186523438 3 50.00022888183594 C 3 56.34645843505859 4.24224853515625 62.50127410888672 6.692230224609375 68.29368591308594 C 9.059295654296875 73.8900146484375 12.44855499267578 78.91665649414062 16.76589202880859 83.23399353027344 C 21.08323669433594 87.55132293701172 26.10989379882812 90.94059753417969 31.70623016357422 93.30764007568359 C 37.49866485595703 95.75762939453125 43.65348052978516 96.99987030029297 49.99972534179688 96.99987030029297 C 56.34597015380859 96.99987030029297 62.50078582763672 95.75762939453125 68.293212890625 93.30764007568359 C 73.88955688476562 90.94059753417969 78.91621398925781 87.55132293701172 83.23355865478516 83.23399353027344 C 87.55089569091797 78.91665649414062 90.94015502929688 73.8900146484375 93.30722045898438 68.29368591308594 C 95.7572021484375 62.50127410888672 96.99945068359375 56.34645843505859 96.99945068359375 49.99964141845703 C 96.99945068359375 43.65341186523438 95.7572021484375 37.49859619140625 93.30722045898438 31.70618438720703 C 90.94015502929688 26.10985565185547 87.55089569091797 21.08321380615234 83.23355865478516 16.76587677001953 C 78.91621398925781 12.44853210449219 73.88955688476562 9.059272766113281 68.293212890625 6.692230224609375 C 62.50078582763672 4.242240905761719 56.34597015380859 3 49.99972534179688 3 M 49.99972534179688 0 C 77.61381530761719 0 99.99945068359375 22.38559722900391 99.99945068359375 49.99964141845703 L 99.99945068359375 50.00022888183594 C 99.99945068359375 77.6142578125 77.61381530761719 99.99987030029297 49.99972534179688 99.99987030029297 C 22.38563537597656 99.99987030029297 0 77.6142578125 0 50.00022888183594 L 0 49.99964141845703 C 0 22.38559722900391 22.38563537597656 0 49.99972534179688 0 Z" stroke="none" fill="#fff"/>
              </g>
            </g>
          </g>
        </g>
      </g>
    </g>
    <g id="educacion-en-linea" transform="translate(1096.051 10814.001)">
      <path id="Trazado_910433" data-name="Trazado 910433" d="M288,400.848h19.483a1.77,1.77,0,0,0,1.771-1.771v-5.314a1.771,1.771,0,0,0-1.771-1.771H288Zm0,0" transform="translate(-256.118 -348.599)" fill="#33c0db"/>
      <path id="Trazado_910434" data-name="Trazado 910434" d="M48.738,120.857a20.369,20.369,0,0,0-40.738,0c0,.066.008.128.009.194S8,121.18,8,121.245a20.369,20.369,0,0,0,40.738,0c0-.065-.009-.128-.009-.194S48.738,120.923,48.738,120.857Zm0,0" transform="translate(-7.114 -89.365)" fill="#33c0db"/>
      <path id="Trazado_910435" data-name="Trazado 910435" d="M120.29,309.306v4.428a.886.886,0,0,1-.886.886h-1.3a.886.886,0,0,1-.737-.394l-1.245-1.868a.885.885,0,0,0-.737-.4h-1.544a.886.886,0,0,0-.841.606l-2.636,7.908a20.36,20.36,0,0,0,23.206-3.629v-6.655a.886.886,0,0,0-.886-.886H129.62a.886.886,0,0,1-.737-.394l-3.017-4.524a.885.885,0,0,0-.737-.4h-3.954a.886.886,0,0,0-.886.886v2.657" transform="translate(-98.149 -270.341)" fill="#fcb641"/>
      <path id="Trazado_910436" data-name="Trazado 910436" d="M162.8,100.948l2.278-.234A20.326,20.326,0,0,0,162.8,100.948Zm0,0" transform="translate(-144.779 -89.567)" fill="#33c0db"/>
      <path id="Trazado_910437" data-name="Trazado 910437" d="M94.954,102.954a19.922,19.922,0,0,0-7.024,3.186,20.248,20.248,0,0,1,8.288-3.315Zm0,0" transform="translate(-78.196 -91.442)" fill="#33c0db"/>
      <path id="Trazado_910438" data-name="Trazado 910438" d="M72.46,113.356a.884.884,0,0,0,.792.49h2.109a.886.886,0,0,1,.886.886v4.428a.886.886,0,0,0,.886.886h5.615a.883.883,0,0,0,.814-.537l2.2-5.126a.885.885,0,0,1,.814-.537h3.844a.886.886,0,0,0,.886-.886v-6.62a20.944,20.944,0,0,0-7.085-1.226c-.32,0-.638.009-.955.023l-2.278.226A19.522,19.522,0,0,0,70.8,110.038Zm0,0" transform="translate(-62.963 -93.478)" fill="#fcb641"/>
      <path id="Trazado_910439" data-name="Trazado 910439" d="M42.509,121.433a21.208,21.208,0,0,0-5.5-14.262L35.7,108.36a19.464,19.464,0,0,1,.608,25.425V129.4a1.773,1.773,0,0,0-1.771-1.771H31.47l-3.017-4.524a1.768,1.768,0,0,0-1.474-.789H23.026a1.773,1.773,0,0,0-1.771,1.771v2.657h1.771v-2.657H26.98L30,128.614a1.768,1.768,0,0,0,1.474.789h3.068v6.264l-.113.108c-.355.327-.723.636-1.1.932-.113.09-.225.18-.34.268-.367.278-.743.538-1.126.788-.135.088-.271.177-.409.263-.381.235-.77.454-1.165.662-.147.077-.294.153-.443.227q-.607.3-1.234.555c-.143.058-.285.114-.43.169-.439.167-.883.321-1.334.455-.122.037-.246.071-.369.105-.48.134-.965.251-1.456.348-.094.019-.189.033-.282.05-.525.095-1.052.173-1.586.224-.057.006-.113.008-.17.013-.57.049-1.147.08-1.728.08-.337,0-.674-.009-1.009-.026-.266-.013-.531-.036-.8-.06-.064-.006-.128-.009-.192-.015-.3-.031-.607-.071-.907-.116l-.065-.009c-.3-.045-.591-.1-.882-.157l-.081-.015c-.275-.057-.546-.122-.816-.189l-.142-.035c-.243-.063-.484-.134-.724-.206l-.233-.069c-.212-.067-.422-.14-.632-.214-.106-.037-.211-.074-.315-.112-.187-.07-.372-.144-.556-.22-.125-.051-.249-.1-.373-.156-.075-.033-.149-.067-.223-.1l2.386-7.156h1.544l1.245,1.868a1.768,1.768,0,0,0,1.474.789h1.3a1.773,1.773,0,0,0,1.771-1.771v-4.428H21.255v4.428h-1.3l-1.245-1.868a1.768,1.768,0,0,0-1.474-.789H15.694a1.767,1.767,0,0,0-1.679,1.211l-2.3,6.91A19.411,19.411,0,0,1,7.593,107.6L8.7,109.826a1.759,1.759,0,0,0,1.584.979H12.4v4.428A1.773,1.773,0,0,0,14.17,117h5.615a1.768,1.768,0,0,0,1.628-1.073l2.2-5.126h3.844a1.773,1.773,0,0,0,1.771-1.771v-1.771H27.454v1.771H23.609a1.768,1.768,0,0,0-1.628,1.074l-2.2,5.126H14.17v-4.428a1.773,1.773,0,0,0-1.771-1.771H10.289l-1.332-2.663a19.5,19.5,0,0,1,3.212-2.162c.078-.041.155-.083.234-.122.441-.227.889-.441,1.35-.635.046-.019.095-.035.141-.054.4-.164.806-.312,1.218-.449.148-.05.3-.1.446-.143.426-.131.857-.252,1.3-.352.034-.008.067-.019.1-.026l-.129-.572-.26-1.157c-.029.006-.056.016-.084.023-.493.113-.981.25-1.465.4-.172.053-.342.111-.512.167-.376.126-.749.265-1.119.413-.134.054-.271.1-.4.16q-.758.321-1.491.7l-.066.035c-.506.265-1,.554-1.483.859l-.025.016a21.353,21.353,0,0,0-2.661,1.975.816.816,0,0,0-.1.124,21.209,21.209,0,0,0,4.639,34.885c.013.007.02.019.033.025.05.025.1.045.15.069.178.086.358.166.539.249.3.137.6.265.909.387.182.073.363.148.547.215.213.078.428.147.642.218.137.045.274.093.413.135.221.068.445.129.669.19.135.036.27.074.406.108.224.056.45.108.675.156q.215.046.432.087c.219.043.438.083.659.118.164.026.33.048.5.071.2.027.406.056.611.078s.423.038.636.054c.164.012.326.029.491.037.384.021.768.032,1.156.032.662,0,1.316-.034,1.963-.094l.143-.01c.612-.06,1.215-.151,1.81-.263.088-.016.176-.029.262-.047.561-.112,1.112-.251,1.655-.406.123-.035.247-.068.369-.106.51-.156,1.011-.334,1.5-.527.15-.058.3-.115.448-.177.469-.2.928-.411,1.38-.638.16-.081.32-.16.478-.246.441-.237.871-.491,1.294-.757.151-.1.3-.19.451-.289.427-.285.841-.586,1.245-.9.129-.1.259-.2.385-.3.413-.336.811-.689,1.2-1.054.064-.061.135-.113.2-.176.013-.013.017-.029.029-.043A21.187,21.187,0,0,0,42.509,121.433Zm0,0" transform="translate(0 -89.553)"/>
      <path id="Trazado_910440" data-name="Trazado 910440" d="M57.29,275.083l-.966-.965a.887.887,0,0,0-.841-.233l-2.451.613a.886.886,0,0,1-.952-.368l-1.162-1.743a.882.882,0,0,0-.736-.4h-1.3a.886.886,0,0,0-.886.886v2.291a.884.884,0,0,0,.259.626l3.024,3.023a.885.885,0,0,0,.626.259h3.514a.884.884,0,0,0,.792-.49l1.241-2.483A.884.884,0,0,0,57.29,275.083Zm0,0" transform="translate(-42.686 -241.883)" fill="#fcb641"/>
      <path id="Trazado_910441" data-name="Trazado 910441" d="M48.309,272.848H44.795a1.781,1.781,0,0,1-1.252-.519l-3.024-3.023A1.759,1.759,0,0,1,40,268.054v-2.291a1.773,1.773,0,0,1,1.771-1.771h1.3a1.768,1.768,0,0,1,1.474.789l1.162,1.743,2.451-.613a1.777,1.777,0,0,1,1.682.467l.964.964a1.769,1.769,0,0,1,.332,2.045l-1.241,2.482A1.76,1.76,0,0,1,48.309,272.848Zm-6.537-7.085v2.291l3.024,3.023h3.514l1.241-2.482-.966-.965-2.451.613a1.775,1.775,0,0,1-1.9-.736l-1.162-1.743Zm0,0" transform="translate(-35.572 -234.769)"/>
      <path id="Trazado_910442" data-name="Trazado 910442" d="M264.974,227.207l-1.362-2.725a.886.886,0,0,0-.793-.49h-1.841a.884.884,0,0,0-.492.149L258.7,225.33a.885.885,0,0,0-.3,1.133l1.306,2.613a.887.887,0,0,0,.336.363l4,2.4a.884.884,0,0,0,.456.126h2.412a.886.886,0,0,0,.886-.886v-2.018a.885.885,0,0,0-.606-.84l-1.7-.568A.884.884,0,0,1,264.974,227.207Zm0,0" transform="translate(-229.713 -199.197)" fill="#fcb641"/>
      <path id="Trazado_910443" data-name="Trazado 910443" d="M259.793,225.734h-2.412a1.774,1.774,0,0,1-.911-.252l-4-2.4a1.774,1.774,0,0,1-.673-.726l-1.307-2.612a1.774,1.774,0,0,1,.6-2.266l1.783-1.188a1.763,1.763,0,0,1,.982-.3H255.7a1.759,1.759,0,0,1,1.584.98l1.361,2.722,0,0,1.7.568a1.77,1.77,0,0,1,1.212,1.681v2.018A1.773,1.773,0,0,1,259.793,225.734Zm-4.09-7.97h-1.841l-1.784,1.189,1.307,2.612,4,2.4h2.412v-2.018l-1.7-.568a1.762,1.762,0,0,1-1.023-.886h0Zm0,0" transform="translate(-222.598 -192.083)"/>
      <path id="Trazado_910444" data-name="Trazado 910444" d="M224,63.336l8.856,3.059,8.856-3.059v-5.8l-3.327-.99a19.479,19.479,0,0,0-11.2.026L224,57.539Zm0,0" transform="translate(-199.203 -49.571)" fill="#9c9792"/>
      <path id="Trazado_910445" data-name="Trazado 910445" d="M154.6,7.992,136,15.077l9.742,4.428V15.077L149,14.1a19.485,19.485,0,0,1,11.2,0l3.258.978v4.428l9.742-4.428Zm0,0" transform="translate(-120.945 -7.108)" fill="#706d69"/>
      <path id="Trazado_910446" data-name="Trazado 910446" d="M456,132.42v-2.657a1.771,1.771,0,1,1,3.542,0v2.657" transform="translate(-405.521 -113.824)" fill="#9bc53d"/>
      <path id="Trazado_910447" data-name="Trazado 910447" d="M453.314,125.306h-1.771v-2.657a.886.886,0,1,0-1.771,0v2.657H448v-2.657a2.657,2.657,0,1,1,5.314,0Zm0,0" transform="translate(-398.406 -106.71)"/>
      <path id="Trazado_910448" data-name="Trazado 910448" d="M464,191.992h1.771v2.657H464Zm0,0" transform="translate(-412.635 -170.739)"/>
      <path id="Trazado_910449" data-name="Trazado 910449" d="M483.086,182.468l1.534-.886,1.328,2.3-1.534.886Zm0,0" transform="translate(-429.608 -161.482)"/>
      <path id="Trazado_910450" data-name="Trazado 910450" d="M435.07,183.887l1.328-2.3,1.534.885-1.328,2.3Zm0,0" transform="translate(-386.908 -161.485)"/>
      <path id="Trazado_910451" data-name="Trazado 910451" d="M166.958,7.969c0-.01,0-.019,0-.027a.884.884,0,0,0-.57-.8L147.795.057a.887.887,0,0,0-.631,0l-18.6,7.085a.885.885,0,0,0-.051,1.633l9.224,4.192v.8a.886.886,0,0,0,.6.837l8.856,3.06a.891.891,0,0,0,.289.048.87.87,0,0,0,.289-.048l8.856-3.06a.885.885,0,0,0,.6-.837v-.8l7.97-3.623V12.4h1.771V7.969ZM155.45,13.134l-7.97,2.754-7.97-2.754V8.628l2.627-.788a18.574,18.574,0,0,1,3.991-.736c.057,0,.113,0,.17-.006.1-.006.2-.006.3-.01l0,6.2h1.771l0-6.2.15.005c.083,0,.165,0,.247.009a18.653,18.653,0,0,1,3.99.728l2.694.8Zm1.771-2.113V7.969a.885.885,0,0,0-.046-.282.964.964,0,0,0-.086-.165.83.83,0,0,0-.044-.082.834.834,0,0,0-.128-.125.989.989,0,0,0-.072-.07.862.862,0,0,0-.117-.057.963.963,0,0,0-.139-.068l-3.258-.978a20.432,20.432,0,0,0-4.448-.81l-.041,0c-.454-.03-.908-.048-1.363-.048l-.044,0c-.317,0-.634.019-.95.035-.166.008-.332.007-.5.019a20.367,20.367,0,0,0-4.434.82l-3.154.955-.031.009h0a.865.865,0,0,0-.2.1c-.016.01-.036.014-.051.025a.883.883,0,0,0-.375.723v3.053l-6.557-2.98,16.3-6.21,16.3,6.209Zm0,0" transform="translate(-113.827 0)"/>
      <path id="Trazado_910452" data-name="Trazado 910452" d="M392,247.992h8.856a1.771,1.771,0,0,1,1.771,1.771v5.314a1.77,1.77,0,0,1-1.771,1.771H392Zm0,0" transform="translate(-348.605 -220.54)" fill="#fcb641"/>
      <path id="Trazado_910453" data-name="Trazado 910453" d="M408,391.992h3.542v8.856H408Zm0,0" transform="translate(-362.834 -348.599)" fill="#c7ebf2"/>
      <path id="Trazado_910454" data-name="Trazado 910454" d="M392,327.992h10.627a1.771,1.771,0,0,1,1.771,1.771v3.542a1.77,1.77,0,0,1-1.771,1.771H392Zm0,0" transform="translate(-348.605 -291.684)" fill="#9bc53d"/>
      <path id="Trazado_910455" data-name="Trazado 910455" d="M432,327.992h3.542v7.085H432Zm0,0" transform="translate(-384.177 -291.684)" fill="#c5d998"/>
      <path id="Trazado_910456" data-name="Trazado 910456" d="M408,247.992h3.542v8.856H408Zm0,0" transform="translate(-362.834 -220.54)" fill="#fce0b0"/>
      <path id="Trazado_910457" data-name="Trazado 910457" d="M310.831,248.951a2.641,2.641,0,0,0,.2-.988v-5.314a2.66,2.66,0,0,0-2.657-2.657h-8.856v1.771h.886v7.085h-.886v1.771h3.542v5.314h-6.2V257.7H300.4v7.085H288v1.771h19.483a2.66,2.66,0,0,0,2.657-2.657V258.59a2.624,2.624,0,0,0-.163-.886h.163a2.66,2.66,0,0,0,2.657-2.657v-3.542A2.652,2.652,0,0,0,310.831,248.951Zm-1.576-6.3v5.314a.886.886,0,0,1-.886.886h-2.657v-7.085h2.657A.887.887,0,0,1,309.255,242.649Zm-7.085-.886h1.771v7.085H302.17Zm2.657,8.856H306.6v5.314h-1.771Zm-2.657,14.17V257.7h1.771v7.085Zm6.2-6.2V263.9a.886.886,0,0,1-.886.886h-1.771V257.7h1.771A.887.887,0,0,1,308.369,258.59Zm2.657-3.542a.886.886,0,0,1-.886.886h-1.771v-5.314h1.771a.887.887,0,0,1,.886.886Zm0,0" transform="translate(-256.118 -213.426)"/>
    </g>
  </g>
</svg>
