<svg xmlns="http://www.w3.org/2000/svg" xmlns:xlink="http://www.w3.org/1999/xlink" width="102.949" height="102.949" viewBox="0 0 102.949 102.949">
  <defs>
    <filter id="Trazado_874925" x="0" y="0" width="102.949" height="102.949" filterUnits="userSpaceOnUse">
      <feOffset dy="3" input="SourceAlpha"/>
      <feGaussianBlur stdDeviation="3" result="blur"/>
      <feFlood flood-opacity="0.161"/>
      <feComposite operator="in" in2="blur"/>
      <feComposite in="SourceGraphic"/>
    </filter>
  </defs>
  <g id="Grupo_1182177" data-name="Grupo 1182177" transform="translate(-276.755 -10206)">
    <g id="Grupo_1181905" data-name="Grupo 1181905" transform="translate(-522.745 7694.843)">
      <g id="Grupo_1111316" data-name="Grupo 1111316" transform="translate(808.5 2517.157)">
        <g id="Grupo_1109835" data-name="Grupo 1109835" transform="translate(0 0)">
          <g id="Grupo_1107913" data-name="Grupo 1107913" transform="translate(0 0)">
            <g transform="matrix(1, 0, 0, 1, -9, -6)" filter="url(#Trazado_874925)">
              <g id="Trazado_874925-2" data-name="Trazado 874925" transform="translate(9 6)" fill="#4c6929" opacity="0.859">
                <path d="M 42.47446823120117 83.44929504394531 C 36.94229125976562 83.44929504394531 31.57638549804688 82.36614227294922 26.52582168579102 80.22994232177734 C 21.64678573608398 78.16628265380859 17.26464462280273 75.211669921875 13.50113868713379 71.44816589355469 C 9.737632751464844 67.68466949462891 6.78300952911377 63.30253982543945 4.719362258911133 58.42351913452148 C 2.583150625228882 53.37295150756836 1.499997615814209 48.00706100463867 1.499997615814209 42.47489547729492 C 1.499997615814209 36.94223403930664 2.583150625228882 31.57634162902832 4.719362258911133 26.52577781677246 C 6.78300952911377 21.64675331115723 9.737632751464844 17.26462364196777 13.50113868713379 13.50113010406494 C 17.26464462280273 9.737624168395996 21.64678573608398 6.783012390136719 26.52582168579102 4.719353199005127 C 31.57638549804688 2.583153486251831 36.94229125976562 1.500000476837158 42.47446823120117 1.500000476837158 C 48.00664520263672 1.500000476837158 53.37255096435547 2.583153486251831 58.42311477661133 4.719353199005127 C 63.30215072631836 6.783012390136719 67.68428802490234 9.737624168395996 71.44779968261719 13.50113010406494 C 75.2113037109375 17.26462364196777 78.16592407226562 21.64675331115723 80.22957611083984 26.52577781677246 C 82.36578369140625 31.57634162902832 83.44893646240234 36.94223403930664 83.44893646240234 42.47439956665039 C 83.44893646240234 48.00706100463867 82.36578369140625 53.37295150756836 80.22957611083984 58.42351913452148 C 78.16592407226562 63.30253982543945 75.2113037109375 67.68466949462891 71.44779968261719 71.44816589355469 C 67.68428802490234 75.211669921875 63.30215072631836 78.16628265380859 58.42311477661133 80.22994232177734 C 53.37255096435547 82.36614227294922 48.00664520263672 83.44929504394531 42.47446823120117 83.44929504394531 Z" stroke="none"/>
                <path d="M 42.47446823120117 2.999992370605469 C 37.14412307739258 2.999992370605469 31.97481536865234 4.04327392578125 27.11014938354492 6.100860595703125 C 22.40990829467773 8.088890075683594 18.18804168701172 10.93555450439453 14.56179809570312 14.56178283691406 C 10.93557739257812 18.18801116943359 8.088897705078125 22.40987396240234 6.100868225097656 27.11009979248047 C 4.043281555175781 31.97476577758789 3 37.14406204223633 3 42.47488784790039 C 3 47.80522155761719 4.043281555175781 52.97451400756836 6.100868225097656 57.83917999267578 C 8.088897705078125 62.53940582275391 10.93557739257812 66.76127624511719 14.56179809570312 70.38749694824219 C 18.18804168701172 74.01372528076172 22.40990829467773 76.86039733886719 27.11014938354492 78.84841918945312 C 31.97481536865234 80.906005859375 37.14412307739258 81.94928741455078 42.47446823120117 81.94928741455078 C 47.80481338500977 81.94928741455078 52.97412109375 80.906005859375 57.83879089355469 78.84841918945312 C 62.53902816772461 76.86039733886719 66.76089477539062 74.01372528076172 70.38713073730469 70.38749694824219 C 74.01335906982422 66.76127624511719 76.86003875732422 62.53940582275391 78.84806823730469 57.83917999267578 C 80.90565490722656 52.97451400756836 81.94893646240234 47.80522155761719 81.94893646240234 42.47439575195312 C 81.94893646240234 37.14406204223633 80.90565490722656 31.97476577758789 78.84806823730469 27.11009979248047 C 76.86003875732422 22.40987396240234 74.01335906982422 18.18801116943359 70.38713073730469 14.56178283691406 C 66.76089477539062 10.93555450439453 62.53902816772461 8.088890075683594 57.83879089355469 6.100860595703125 C 52.97412109375 4.04327392578125 47.80481338500977 2.999992370605469 42.47446823120117 2.999992370605469 M 42.47446823120117 -7.62939453125e-06 C 65.93246459960938 -7.62939453125e-06 84.94893646240234 19.01643371582031 84.94893646240234 42.47439575195312 L 84.94893646240234 42.47488784790039 C 84.94893646240234 65.93284606933594 65.93246459960938 84.94928741455078 42.47446823120117 84.94928741455078 C 19.01647186279297 84.94928741455078 0 65.93284606933594 0 42.47488784790039 L 0 42.47439575195312 C 0 19.01643371582031 19.01647186279297 -7.62939453125e-06 42.47446823120117 -7.62939453125e-06 Z" stroke="none" fill="#fff"/>
              </g>
            </g>
            <g id="Trazado_874923" data-name="Trazado 874923" transform="translate(0 0)" fill="none">
              <path d="M42.474,0A42.474,42.474,0,0,1,84.949,42.474h0A42.474,42.474,0,0,1,0,42.475H0A42.474,42.474,0,0,1,42.474,0Z" stroke="none"/>
              <path d="M 42.47446823120117 2.999992370605469 C 37.14412307739258 2.999992370605469 31.97481536865234 4.04327392578125 27.11014938354492 6.100860595703125 C 22.40990829467773 8.088890075683594 18.18804168701172 10.93555450439453 14.56179809570312 14.56178283691406 C 10.93557739257812 18.18801116943359 8.088897705078125 22.40987396240234 6.100868225097656 27.11009979248047 C 4.043281555175781 31.97476577758789 3 37.14406204223633 3 42.47488784790039 C 3 47.80522155761719 4.043281555175781 52.97451400756836 6.100868225097656 57.83917999267578 C 8.088897705078125 62.53940582275391 10.93557739257812 66.76127624511719 14.56179809570312 70.38749694824219 C 18.18804168701172 74.01372528076172 22.40990829467773 76.86039733886719 27.11014938354492 78.84841918945312 C 31.97481536865234 80.906005859375 37.14412307739258 81.94928741455078 42.47446823120117 81.94928741455078 C 47.80481338500977 81.94928741455078 52.97412109375 80.906005859375 57.83879089355469 78.84841918945312 C 62.53902816772461 76.86039733886719 66.76089477539062 74.01372528076172 70.38713073730469 70.38749694824219 C 74.01335906982422 66.76127624511719 76.86003875732422 62.53940582275391 78.84806823730469 57.83917999267578 C 80.90565490722656 52.97451400756836 81.94893646240234 47.80522155761719 81.94893646240234 42.47439575195312 C 81.94893646240234 37.14406204223633 80.90565490722656 31.97476577758789 78.84806823730469 27.11009979248047 C 76.86003875732422 22.40987396240234 74.01335906982422 18.18801116943359 70.38713073730469 14.56178283691406 C 66.76089477539062 10.93555450439453 62.53902816772461 8.088890075683594 57.83879089355469 6.100860595703125 C 52.97412109375 4.04327392578125 47.80481338500977 2.999992370605469 42.47446823120117 2.999992370605469 M 42.47446823120117 -7.62939453125e-06 C 65.93246459960938 -7.62939453125e-06 84.94893646240234 19.01643371582031 84.94893646240234 42.47439575195312 L 84.94893646240234 42.47488784790039 C 84.94893646240234 65.93284606933594 65.93246459960938 84.94928741455078 42.47446823120117 84.94928741455078 C 19.01647186279297 84.94928741455078 0 65.93284606933594 0 42.47488784790039 L 0 42.47439575195312 C 0 19.01643371582031 19.01647186279297 -7.62939453125e-06 42.47446823120117 -7.62939453125e-06 Z" stroke="none" fill="#fff"/>
            </g>
          </g>
        </g>
      </g>
    </g>
    <g id="envio" transform="translate(300.511 10226.476)">
      <g id="Grupo_1182175" data-name="Grupo 1182175" transform="translate(1.84 5.84)">
        <g id="Grupo_1182151" data-name="Grupo 1182151" transform="translate(0 25.208)">
          <path id="Trazado_910333" data-name="Trazado 910333" d="M32.25,36v3.361H2.84a.843.843,0,0,1-.84-.84V36.84A.843.843,0,0,1,2.84,36H32.25Z" transform="translate(-2 -36)" fill="#fc6e51"/>
        </g>
        <g id="Grupo_1182152" data-name="Grupo 1182152" transform="translate(1.681 28.569)">
          <path id="Trazado_910334" data-name="Trazado 910334" d="M32.569,40V50.083H20.806a5.042,5.042,0,1,0-10.083,0H5.681A1.685,1.685,0,0,1,4,48.4V46.722H8.2l.84-3.361H4V40Z" transform="translate(-4 -40)" fill="#ff826e"/>
        </g>
        <g id="Grupo_1182153" data-name="Grupo 1182153" transform="translate(30.25 15.125)">
          <path id="Trazado_910335" data-name="Trazado 910335" d="M58.167,43.326v2.521a1.685,1.685,0,0,1-1.681,1.681H53.125a5.029,5.029,0,0,0-1.681-3.756V32.4l-.815-4.353a.837.837,0,0,0-.823-.689H42.2a.843.843,0,0,0-.84.84V47.528H38V27.361A3.369,3.369,0,0,1,41.361,24h8.915A3.358,3.358,0,0,1,53.6,26.807l1.21,7.277,1.5.748a3.378,3.378,0,0,1,1.857,3.008v1.286H54.806v2.521Z" transform="translate(-38 -24)" fill="#ff826e"/>
        </g>
        <g id="Grupo_1182154" data-name="Grupo 1182154" transform="translate(33.611 26.889)">
          <path id="Trazado_910336" data-name="Trazado 910336" d="M52.083,38v8.008a5.04,5.04,0,0,0-8.4,3.756H42V38H52.083Z" transform="translate(-42 -38)" fill="#fc6e51"/>
        </g>
        <g id="Grupo_1182155" data-name="Grupo 1182155" transform="translate(47.056 30.25)">
          <path id="Trazado_910337" data-name="Trazado 910337" d="M61.361,42v4.2L58,44.521V42Z" transform="translate(-58 -42)" fill="#fcd770"/>
        </g>
        <g id="Grupo_1182156" data-name="Grupo 1182156" transform="translate(1.681 31.931)">
          <path id="Trazado_910338" data-name="Trazado 910338" d="M9.042,44,8.2,47.361H4V44Z" transform="translate(-4 -44)" fill="#fcd770"/>
        </g>
        <g id="Grupo_1182157" data-name="Grupo 1182157" transform="translate(35.292 33.611)">
          <path id="Trazado_910339" data-name="Trazado 910339" d="M52.4,47.286A5.04,5.04,0,1,1,49.042,46,5.029,5.029,0,0,1,52.4,47.286Z" transform="translate(-44 -46)" fill="#969faa"/>
        </g>
        <g id="Grupo_1182158" data-name="Grupo 1182158" transform="translate(8.403 33.611)">
          <path id="Trazado_910340" data-name="Trazado 910340" d="M17.042,46A5.042,5.042,0,1,1,12,51.042,5.046,5.046,0,0,1,17.042,46Z" transform="translate(-12 -46)" fill="#969faa"/>
        </g>
        <g id="Grupo_1182159" data-name="Grupo 1182159" transform="translate(38.653 36.972)">
          <circle id="Elipse_11660" data-name="Elipse 11660" cx="2" cy="2" r="2" transform="translate(-0.396 -0.438)" fill="#ccd1d9"/>
        </g>
        <g id="Grupo_1182160" data-name="Grupo 1182160" transform="translate(11.764 36.972)">
          <ellipse id="Elipse_11661" data-name="Elipse 11661" cx="1.5" cy="2" rx="1.5" ry="2" transform="translate(0.493 -0.438)" fill="#ccd1d9"/>
        </g>
        <g id="Grupo_1182161" data-name="Grupo 1182161" transform="translate(33.611 18.486)">
          <path id="Trazado_910341" data-name="Trazado 910341" d="M47.042,33.882A2.517,2.517,0,0,0,49.563,36.4H42V28.84a.843.843,0,0,1,.84-.84h7.6a.837.837,0,0,1,.823.689l.815,4.353h-4.2A.843.843,0,0,0,47.042,33.882Z" transform="translate(-42 -28)" fill="#69d6f4"/>
        </g>
        <g id="Grupo_1182162" data-name="Grupo 1182162" transform="translate(38.653 23.528)">
          <path id="Trazado_910342" data-name="Trazado 910342" d="M53.042,34v3.361H50.521A2.517,2.517,0,0,1,48,34.84a.843.843,0,0,1,.84-.84Z" transform="translate(-48 -34)" fill="#aab2bd"/>
        </g>
        <g id="Grupo_1182163" data-name="Grupo 1182163" transform="translate(1.681 16.806)">
          <path id="Trazado_910343" data-name="Trazado 910343" d="M4,26H14.083v8.4H4Z" transform="translate(-4 -26)" fill="#d3a06c"/>
        </g>
        <g id="Grupo_1182164" data-name="Grupo 1182164" transform="translate(11.764 16.806)">
          <path id="Trazado_910344" data-name="Trazado 910344" d="M16,26H26.083v8.4H16Z" transform="translate(-16 -26)" fill="#d3a06c"/>
        </g>
        <g id="Grupo_1182165" data-name="Grupo 1182165" transform="translate(21.847 16.806)">
          <path id="Trazado_910345" data-name="Trazado 910345" d="M28,26H38.083v8.4H28Z" transform="translate(-28 -26)" fill="#d3a06c"/>
        </g>
        <g id="Grupo_1182166" data-name="Grupo 1182166" transform="translate(6.722 8.403)">
          <path id="Trazado_910346" data-name="Trazado 910346" d="M10,16H20.083v8.4H10Z" transform="translate(-10 -16)" fill="#d3a06c"/>
        </g>
        <g id="Grupo_1182167" data-name="Grupo 1182167" transform="translate(16.806 8.403)">
          <path id="Trazado_910347" data-name="Trazado 910347" d="M22,16H32.083v8.4H22Z" transform="translate(-22 -16)" fill="#d3a06c"/>
        </g>
        <g id="Grupo_1182168" data-name="Grupo 1182168" transform="translate(11.764)">
          <path id="Trazado_910348" data-name="Trazado 910348" d="M16,6H26.083v8.4H16Z" transform="translate(-16 -6)" fill="#d3a06c"/>
        </g>
        <g id="Grupo_1182169" data-name="Grupo 1182169" transform="translate(15.125)">
          <path id="Trazado_910349" data-name="Trazado 910349" d="M20,6h3.361V9.361H20Z" transform="translate(-20 -6)" fill="#b27946"/>
        </g>
        <g id="Grupo_1182170" data-name="Grupo 1182170" transform="translate(10.083 8.403)">
          <path id="Trazado_910350" data-name="Trazado 910350" d="M17.361,16v3.361H14V16h3.361Z" transform="translate(-14 -16)" fill="#b27946"/>
        </g>
        <g id="Grupo_1182171" data-name="Grupo 1182171" transform="translate(20.167 8.403)">
          <path id="Trazado_910351" data-name="Trazado 910351" d="M29.361,16v3.361H26V16h3.361Z" transform="translate(-26 -16)" fill="#b27946"/>
        </g>
        <g id="Grupo_1182172" data-name="Grupo 1182172" transform="translate(25.208 16.806)">
          <path id="Trazado_910352" data-name="Trazado 910352" d="M33.681,26H37.5a3.352,3.352,0,0,0-.454,1.681v1.681H32V26Z" transform="translate(-32 -26)" fill="#b27946"/>
        </g>
        <g id="Grupo_1182173" data-name="Grupo 1182173" transform="translate(15.125 16.806)">
          <path id="Trazado_910353" data-name="Trazado 910353" d="M23.361,26v3.361H20V26h3.361Z" transform="translate(-20 -26)" fill="#b27946"/>
        </g>
        <g id="Grupo_1182174" data-name="Grupo 1182174" transform="translate(5.042 16.806)">
          <path id="Trazado_910354" data-name="Trazado 910354" d="M11.361,26v3.361H8V26h3.361Z" transform="translate(-8 -26)" fill="#b27946"/>
        </g>
      </g>
      <g id="Grupo_1182176" data-name="Grupo 1182176" transform="translate(1 5)">
        <path id="Trazado_910355" data-name="Trazado 910355" d="M49.521,49a2.521,2.521,0,1,0,2.521,2.521A2.524,2.524,0,0,0,49.521,49Zm0,3.361a.84.84,0,1,1,.84-.84A.841.841,0,0,1,49.521,52.361Z" transform="translate(-8.347 -12.028)"/>
        <path id="Trazado_910356" data-name="Trazado 910356" d="M17.521,49a2.521,2.521,0,1,0,2.521,2.521A2.524,2.524,0,0,0,17.521,49Zm0,3.361a.84.84,0,1,1,.84-.84A.841.841,0,0,1,17.521,52.361Z" transform="translate(-3.236 -12.028)"/>
        <path id="Trazado_910357" data-name="Trazado 910357" d="M50.775,31.049l-1.121-.56-1.142-6.852a4.188,4.188,0,0,0-4.144-3.512H35.451a4.182,4.182,0,0,0-3.339,1.681H29.569V13.4H24.528V5H12.764v8.4H7.722v8.4H2.681v8.4A1.682,1.682,0,0,0,1,31.889v1.681A1.682,1.682,0,0,0,2.681,35.25v7.563A2.524,2.524,0,0,0,5.2,45.333H9.47a5.874,5.874,0,0,0,11.629,0H36.359a5.874,5.874,0,0,0,11.629,0h2.588A2.524,2.524,0,0,0,53.1,42.813V34.806A4.18,4.18,0,0,0,50.775,31.049Zm.642,7.883-1.681-.84V36.931h1.681ZM17.806,23.486h1.681v1.681H17.806Zm3.361,3.361V23.486h1.681v6.722h-8.4V23.486h1.681v3.361ZM31.25,30.208H24.528V23.486h1.681v3.361H31.25Zm0-5.882v.84H27.889V23.486h3.446a4.2,4.2,0,0,0-.085.84Zm-3.361-2.521h-8.4V15.083h1.681v3.361h5.042V15.083h1.681Zm-5.042-6.722h1.681v1.681H22.847Zm-5.042-8.4h1.681V8.361H17.806Zm-3.361,0h1.681v3.361h5.042V6.681h1.681V13.4h-8.4Zm-1.681,8.4h1.681v1.681H12.764Zm-3.361,0h1.681v3.361h5.042V15.083h1.681v6.722H9.4Zm-1.681,8.4H9.4v1.681H7.722Zm-3.361,0H6.042v3.361h5.042V23.486h1.681v6.722h-8.4Zm-1.681,8.4H31.25v1.681H2.681Zm1.681,6.722H7.486l-.42,1.681h-2.7Zm0,4.2v-.84H8.378l1.26-5.042H4.361V35.25H31.25v8.4H21.1a5.874,5.874,0,0,0-11.629,0H5.2A.841.841,0,0,1,4.361,42.813Zm10.924,5.882a4.2,4.2,0,1,1,4.2-4.2A4.206,4.206,0,0,1,15.285,48.694ZM41.333,30.208h3.361v1.681H43.014A1.682,1.682,0,0,1,41.333,30.208Zm0-1.681a1.682,1.682,0,0,0-1.681,1.681,3.327,3.327,0,0,0,.467,1.681H36.292V25.167h7.6l.629,3.361Zm-5.042,5.042h8.4v5.617a5.86,5.86,0,0,0-8.336,4.466h-.067Zm5.882,15.125a4.2,4.2,0,1,1,4.2-4.2A4.206,4.206,0,0,1,42.174,48.694Zm8.4-5.042H47.988a5.863,5.863,0,0,0-1.613-3.268V29.368l-.829-4.509a1.681,1.681,0,0,0-1.652-1.373h-7.6a1.682,1.682,0,0,0-1.681,1.681V43.653H32.931V24.326a2.524,2.524,0,0,1,2.521-2.521h8.916a2.513,2.513,0,0,1,2.486,2.107l1.283,7.7,1.886.943a2.508,2.508,0,0,1,1.394,2.254v.444H48.056v3.88l3.361,1.681v2A.841.841,0,0,1,50.576,43.653Z" transform="translate(-1 -5)"/>
      </g>
    </g>
  </g>
</svg>
