<svg xmlns="http://www.w3.org/2000/svg" xmlns:xlink="http://www.w3.org/1999/xlink" width="102.949" height="102.949" viewBox="0 0 102.949 102.949">
  <defs>
    <filter id="Trazado_874925" x="0" y="0" width="102.949" height="102.949" filterUnits="userSpaceOnUse">
      <feOffset dy="3" input="SourceAlpha"/>
      <feGaussianBlur stdDeviation="3" result="blur"/>
      <feFlood flood-opacity="0.161"/>
      <feComposite operator="in" in2="blur"/>
      <feComposite in="SourceGraphic"/>
    </filter>
  </defs>
  <g id="Grupo_1182234" data-name="Grupo 1182234" transform="translate(-591.051 -11316)">
    <g id="Grupo_1181918" data-name="Grupo 1181918" transform="translate(-208.449 8804.843)">
      <g id="Grupo_1111316" data-name="Grupo 1111316" transform="translate(808.5 2517.157)">
        <g id="Grupo_1109835" data-name="Grupo 1109835" transform="translate(0 0)">
          <g id="Grupo_1107913" data-name="Grupo 1107913" transform="translate(0 0)">
            <g transform="matrix(1, 0, 0, 1, -9, -6)" filter="url(#Trazado_874925)">
              <g id="Trazado_874925-2" data-name="Trazado 874925" transform="translate(9 6)" fill="#4c6929" opacity="0.859">
                <path d="M 42.47446823120117 83.44929504394531 C 36.94229125976562 83.44929504394531 31.57638549804688 82.36614227294922 26.52582168579102 80.22994232177734 C 21.64678573608398 78.16628265380859 17.26464462280273 75.211669921875 13.50113868713379 71.44816589355469 C 9.737632751464844 67.68466949462891 6.78300952911377 63.30253982543945 4.719362258911133 58.42351913452148 C 2.583150625228882 53.37295150756836 1.499997615814209 48.00706100463867 1.499997615814209 42.47489547729492 C 1.499997615814209 36.94223403930664 2.583150625228882 31.57634162902832 4.719362258911133 26.52577781677246 C 6.78300952911377 21.64675331115723 9.737632751464844 17.26462364196777 13.50113868713379 13.50113010406494 C 17.26464462280273 9.737624168395996 21.64678573608398 6.783012390136719 26.52582168579102 4.719353199005127 C 31.57638549804688 2.583153486251831 36.94229125976562 1.500000476837158 42.47446823120117 1.500000476837158 C 48.00664520263672 1.500000476837158 53.37255096435547 2.583153486251831 58.42311477661133 4.719353199005127 C 63.30215072631836 6.783012390136719 67.68428802490234 9.737624168395996 71.44779968261719 13.50113010406494 C 75.2113037109375 17.26462364196777 78.16592407226562 21.64675331115723 80.22957611083984 26.52577781677246 C 82.36578369140625 31.57634162902832 83.44893646240234 36.94223403930664 83.44893646240234 42.47439956665039 C 83.44893646240234 48.00706100463867 82.36578369140625 53.37295150756836 80.22957611083984 58.42351913452148 C 78.16592407226562 63.30253982543945 75.2113037109375 67.68466949462891 71.44779968261719 71.44816589355469 C 67.68428802490234 75.211669921875 63.30215072631836 78.16628265380859 58.42311477661133 80.22994232177734 C 53.37255096435547 82.36614227294922 48.00664520263672 83.44929504394531 42.47446823120117 83.44929504394531 Z" stroke="none"/>
                <path d="M 42.47446823120117 2.999992370605469 C 37.14412307739258 2.999992370605469 31.97481536865234 4.04327392578125 27.11014938354492 6.100860595703125 C 22.40990829467773 8.088890075683594 18.18804168701172 10.93555450439453 14.56179809570312 14.56178283691406 C 10.93557739257812 18.18801116943359 8.088897705078125 22.40987396240234 6.100868225097656 27.11009979248047 C 4.043281555175781 31.97476577758789 3 37.14406204223633 3 42.47488784790039 C 3 47.80522155761719 4.043281555175781 52.97451400756836 6.100868225097656 57.83917999267578 C 8.088897705078125 62.53940582275391 10.93557739257812 66.76127624511719 14.56179809570312 70.38749694824219 C 18.18804168701172 74.01372528076172 22.40990829467773 76.86039733886719 27.11014938354492 78.84841918945312 C 31.97481536865234 80.906005859375 37.14412307739258 81.94928741455078 42.47446823120117 81.94928741455078 C 47.80481338500977 81.94928741455078 52.97412109375 80.906005859375 57.83879089355469 78.84841918945312 C 62.53902816772461 76.86039733886719 66.76089477539062 74.01372528076172 70.38713073730469 70.38749694824219 C 74.01335906982422 66.76127624511719 76.86003875732422 62.53940582275391 78.84806823730469 57.83917999267578 C 80.90565490722656 52.97451400756836 81.94893646240234 47.80522155761719 81.94893646240234 42.47439575195312 C 81.94893646240234 37.14406204223633 80.90565490722656 31.97476577758789 78.84806823730469 27.11009979248047 C 76.86003875732422 22.40987396240234 74.01335906982422 18.18801116943359 70.38713073730469 14.56178283691406 C 66.76089477539062 10.93555450439453 62.53902816772461 8.088890075683594 57.83879089355469 6.100860595703125 C 52.97412109375 4.04327392578125 47.80481338500977 2.999992370605469 42.47446823120117 2.999992370605469 M 42.47446823120117 -7.62939453125e-06 C 65.93246459960938 -7.62939453125e-06 84.94893646240234 19.01643371582031 84.94893646240234 42.47439575195312 L 84.94893646240234 42.47488784790039 C 84.94893646240234 65.93284606933594 65.93246459960938 84.94928741455078 42.47446823120117 84.94928741455078 C 19.01647186279297 84.94928741455078 0 65.93284606933594 0 42.47488784790039 L 0 42.47439575195312 C 0 19.01643371582031 19.01647186279297 -7.62939453125e-06 42.47446823120117 -7.62939453125e-06 Z" stroke="none" fill="#fff"/>
              </g>
            </g>
            <g id="Trazado_874923" data-name="Trazado 874923" transform="translate(0 0)" fill="none">
              <path d="M42.474,0A42.474,42.474,0,0,1,84.949,42.474h0A42.474,42.474,0,0,1,0,42.475H0A42.474,42.474,0,0,1,42.474,0Z" stroke="none"/>
              <path d="M 42.47446823120117 2.999992370605469 C 37.14412307739258 2.999992370605469 31.97481536865234 4.04327392578125 27.11014938354492 6.100860595703125 C 22.40990829467773 8.088890075683594 18.18804168701172 10.93555450439453 14.56179809570312 14.56178283691406 C 10.93557739257812 18.18801116943359 8.088897705078125 22.40987396240234 6.100868225097656 27.11009979248047 C 4.043281555175781 31.97476577758789 3 37.14406204223633 3 42.47488784790039 C 3 47.80522155761719 4.043281555175781 52.97451400756836 6.100868225097656 57.83917999267578 C 8.088897705078125 62.53940582275391 10.93557739257812 66.76127624511719 14.56179809570312 70.38749694824219 C 18.18804168701172 74.01372528076172 22.40990829467773 76.86039733886719 27.11014938354492 78.84841918945312 C 31.97481536865234 80.906005859375 37.14412307739258 81.94928741455078 42.47446823120117 81.94928741455078 C 47.80481338500977 81.94928741455078 52.97412109375 80.906005859375 57.83879089355469 78.84841918945312 C 62.53902816772461 76.86039733886719 66.76089477539062 74.01372528076172 70.38713073730469 70.38749694824219 C 74.01335906982422 66.76127624511719 76.86003875732422 62.53940582275391 78.84806823730469 57.83917999267578 C 80.90565490722656 52.97451400756836 81.94893646240234 47.80522155761719 81.94893646240234 42.47439575195312 C 81.94893646240234 37.14406204223633 80.90565490722656 31.97476577758789 78.84806823730469 27.11009979248047 C 76.86003875732422 22.40987396240234 74.01335906982422 18.18801116943359 70.38713073730469 14.56178283691406 C 66.76089477539062 10.93555450439453 62.53902816772461 8.088890075683594 57.83879089355469 6.100860595703125 C 52.97412109375 4.04327392578125 47.80481338500977 2.999992370605469 42.47446823120117 2.999992370605469 M 42.47446823120117 -7.62939453125e-06 C 65.93246459960938 -7.62939453125e-06 84.94893646240234 19.01643371582031 84.94893646240234 42.47439575195312 L 84.94893646240234 42.47488784790039 C 84.94893646240234 65.93284606933594 65.93246459960938 84.94928741455078 42.47446823120117 84.94928741455078 C 19.01647186279297 84.94928741455078 0 65.93284606933594 0 42.47488784790039 L 0 42.47439575195312 C 0 19.01643371582031 19.01647186279297 -7.62939453125e-06 42.47446823120117 -7.62939453125e-06 Z" stroke="none" fill="#fff"/>
            </g>
          </g>
        </g>
      </g>
    </g>
    <g id="discusion" transform="translate(615.051 11337)">
      <path id="Trazado_910512" data-name="Trazado 910512" d="M29.055,16.661V8H12.6A2.6,2.6,0,0,0,10,10.6V19.26a2.6,2.6,0,0,0,2.6,2.6H21.26v3.464l5.2-3.464h1.732a2.6,2.6,0,0,0,2.572-2.209v-.009A3.442,3.442,0,0,1,29.055,16.661Z" transform="translate(-1.205 -0.937)" fill="#e6e9ed"/>
      <path id="Trazado_910513" data-name="Trazado 910513" d="M54.519,2H35.464A3.464,3.464,0,0,0,32,5.464V15.858a3.442,3.442,0,0,0,1.706,2.979,3.393,3.393,0,0,0,1.758.485h2.6l5.2,3.464V19.322h11.26a3.464,3.464,0,0,0,3.464-3.464V5.464A3.464,3.464,0,0,0,54.519,2Z" transform="translate(-4.15 -0.134)" fill="#fcd770"/>
      <path id="Trazado_910514" data-name="Trazado 910514" d="M6.331,57.448H2V48.787a8.664,8.664,0,0,1,8.661-8.661c0,1.914,1.161,3.464,2.6,3.464s2.6-1.55,2.6-3.464a2.19,2.19,0,0,0-.009-.243l.338-.052a12.137,12.137,0,0,0,6.86-3.43l7.682-7.682a2.45,2.45,0,1,1,3.464,3.464L20.907,45.47a2.452,2.452,0,0,0-.719,1.732V57.448Z" transform="translate(-0.134 -3.615)" fill="#fcd770"/>
      <path id="Trazado_910515" data-name="Trazado 910515" d="M45.26,55.858H36.165a2.165,2.165,0,1,1,0-4.331H45.26l1.412-5.188a5.894,5.894,0,0,1,11.58,1.55V59.322H45.26Z" transform="translate(-4.418 -5.489)" fill="#b4dd7f"/>
      <g id="Grupo_1182233" data-name="Grupo 1182233" transform="translate(7.063 24.385)">
        <path id="Trazado_910516" data-name="Trazado 910516" d="M17.188,41.72a2.19,2.19,0,0,1,.009.243c0,1.914-1.161,3.464-2.6,3.464S12,43.877,12,41.963h3.464Z" transform="translate(-8.536 -29.837)" fill="#f0d0b4"/>
        <circle id="Elipse_11667" data-name="Elipse 11667" cx="6" cy="6" r="6" transform="translate(-0.063 0.314)" fill="#f0d0b4"/>
        <circle id="Elipse_11668" data-name="Elipse 11668" cx="6" cy="6" r="6" transform="translate(31.937 0.314)" fill="#f0d0b4"/>
      </g>
      <path id="Trazado_910517" data-name="Trazado 910517" d="M35.645,30.316a3.315,3.315,0,0,0-5.66-2.345L22.3,35.656a11.316,11.316,0,0,1-3.643,2.429,6.925,6.925,0,1,0-9.9,1.213A9.538,9.538,0,0,0,1,48.653V58.18H20.921V47.069a1.574,1.574,0,0,1,.463-1.12L34.674,32.66a3.293,3.293,0,0,0,.971-2.344ZM13.992,40.858l.779-.108c-.223,1.05-.882,1.84-1.645,1.84-.737,0-1.377-.736-1.622-1.732ZM7.929,33.929a5.2,5.2,0,1,1,5.2,5.2A5.2,5.2,0,0,1,7.929,33.929Zm25.52-2.493L20.159,44.725a3.293,3.293,0,0,0-.971,2.344v9.379H7.063V46.055H5.331V56.448h-2.6v-7.8A7.806,7.806,0,0,1,9.74,40.9c.334,1.954,1.724,3.425,3.386,3.425,1.776,0,3.225-1.684,3.425-3.837a13.069,13.069,0,0,0,6.975-3.606L31.209,29.2a1.584,1.584,0,0,1,2.7,1.121,1.576,1.576,0,0,1-.463,1.12Z" transform="translate(0 -3.481)"/>
      <path id="Trazado_910518" data-name="Trazado 910518" d="M53.8,39.319a6.926,6.926,0,1,0-5.864,1.366A6.727,6.727,0,0,0,45.7,44.106l-1.24,4.547H36.031a3.031,3.031,0,0,0,0,6.063H44.26V58.18H58.983v-12.3A6.765,6.765,0,0,0,53.8,39.319Zm-9.541-5.39a5.2,5.2,0,1,1,5.2,5.2A5.2,5.2,0,0,1,44.26,33.929ZM57.251,56.448H45.992V54.716h.726A3.458,3.458,0,0,0,50,52.347l2.872-8.617-1.642-.548L48.361,51.8a1.731,1.731,0,0,1-1.644,1.185H36.031a1.3,1.3,0,1,1,0-2.6h9.756l1.588-5.824a5.026,5.026,0,0,1,9.875,1.323Z" transform="translate(-4.284 -3.481)"/>
      <path id="Trazado_910519" data-name="Trazado 910519" d="M13,11h1.732v1.732H13Z" transform="translate(-1.607 -1.339)"/>
      <path id="Trazado_910520" data-name="Trazado 910520" d="M17,11H27.393v1.732H17Z" transform="translate(-2.142 -1.339)"/>
      <path id="Trazado_910521" data-name="Trazado 910521" d="M13,15H26.858v1.732H13Z" transform="translate(-1.607 -1.874)"/>
      <path id="Trazado_910522" data-name="Trazado 910522" d="M13,19H26.858v1.732H13Z" transform="translate(-1.607 -2.41)"/>
      <path id="Trazado_910523" data-name="Trazado 910523" d="M57,9h1.732v1.732H57Z" transform="translate(-7.497 -1.071)"/>
      <path id="Trazado_910524" data-name="Trazado 910524" d="M35,9H52.322v1.732H35Z" transform="translate(-4.552 -1.071)"/>
      <path id="Trazado_910525" data-name="Trazado 910525" d="M35,13H55.787v1.732H35Z" transform="translate(-4.552 -1.607)"/>
      <path id="Trazado_910526" data-name="Trazado 910526" d="M35,17H55.787v1.732H35Z" transform="translate(-4.552 -2.142)"/>
      <path id="Trazado_910527" data-name="Trazado 910527" d="M51.44,1H32.385a4.335,4.335,0,0,0-4.331,4.331V6.2H12.464A3.468,3.468,0,0,0,9,9.661v8.661a3.468,3.468,0,0,0,3.464,3.464h7.8V26l6.325-4.217h1.47a3.479,3.479,0,0,0,3.094-1.934,4.275,4.275,0,0,0,1.237.2h2.336l6.325,4.217V20.055H51.44a4.335,4.335,0,0,0,4.331-4.331V5.331A4.335,4.335,0,0,0,51.44,1ZM28.055,20.055H26.06l-4.068,2.712V20.055H12.464a1.734,1.734,0,0,1-1.732-1.732V9.661a1.734,1.734,0,0,1,1.732-1.732h15.59v7.8a4.3,4.3,0,0,0,1.571,3.309A1.737,1.737,0,0,1,28.055,20.055Zm25.983-4.331a2.6,2.6,0,0,1-2.6,2.6H39.314v2.712l-4.068-2.712H32.385a2.6,2.6,0,0,1-2.6-2.6V5.331a2.6,2.6,0,0,1,2.6-2.6H51.44a2.6,2.6,0,0,1,2.6,2.6Z" transform="translate(-1.071)"/>
      <path id="Trazado_910528" data-name="Trazado 910528" d="M35,5h1.732V6.732H35Z" transform="translate(-4.552 -0.536)"/>
      <path id="Trazado_910529" data-name="Trazado 910529" d="M39,5h1.732V6.732H39Z" transform="translate(-5.088 -0.536)"/>
      <path id="Trazado_910530" data-name="Trazado 910530" d="M43,5H56.858V6.732H43Z" transform="translate(-5.623 -0.536)"/>
    </g>
  </g>
</svg>
