<svg xmlns="http://www.w3.org/2000/svg" xmlns:xlink="http://www.w3.org/1999/xlink" width="118" height="118" viewBox="0 0 118 118">
  <defs>
    <filter id="Trazado_874925" x="0" y="0" width="118" height="118" filterUnits="userSpaceOnUse">
      <feOffset dy="3" input="SourceAlpha"/>
      <feGaussianBlur stdDeviation="3" result="blur"/>
      <feFlood flood-opacity="0.161"/>
      <feComposite operator="in" in2="blur"/>
      <feComposite in="SourceGraphic"/>
    </filter>
    <clipPath id="clip-path">
      <path id="path6951" d="M0-682.665H58.605v58.605H0Z" transform="translate(0 682.665)"/>
    </clipPath>
  </defs>
  <g id="Grupo_1182145" data-name="Grupo 1182145" transform="translate(-4510.219 3176.144)">
    <g id="Grupo_1181903" data-name="Grupo 1181903" transform="translate(3402.084 -5110.143)">
      <g id="Grupo_1111553" data-name="Grupo 1111553" transform="translate(308.634 -577.158)">
        <g id="Grupo_1111316" data-name="Grupo 1111316" transform="translate(808.5 2517.157)">
          <g id="Grupo_1109835" data-name="Grupo 1109835" transform="translate(0 0)">
            <g id="Grupo_1107913" data-name="Grupo 1107913" transform="translate(0 0)">
              <g transform="matrix(1, 0, 0, 1, -9, -6)" filter="url(#Trazado_874925)">
                <g id="Trazado_874925-2" data-name="Trazado 874925" transform="translate(9 6)" fill="#9cc8ff" opacity="0.859">
                  <path d="M 49.99972534179688 98.4998779296875 C 43.45164108276367 98.4998779296875 37.10022354125977 97.21776580810547 31.12189674377441 94.68914794921875 C 25.34676742553711 92.24647521972656 20.15985298156738 88.74925994873047 15.70523929595947 84.29464721679688 C 11.25062561035156 79.84004974365234 7.753411293029785 74.65313720703125 5.310725212097168 68.87800598144531 C 2.782111167907715 62.89969253540039 1.499996781349182 56.54829406738281 1.499996781349182 50.00022125244141 C 1.499996781349182 43.45157623291016 2.782111167907715 37.10017776489258 5.310725212097168 31.12186431884766 C 7.753411293029785 25.34673500061035 11.25062561035156 20.15983581542969 15.70523929595947 15.70522117614746 C 20.15985298156738 11.25062084197998 25.34676742553711 7.753406524658203 31.12189674377441 5.31073522567749 C 37.10022354125977 2.782120943069458 43.45164108276367 1.500006556510925 49.99972534179688 1.500006556510925 C 56.54780960083008 1.500006556510925 62.89922714233398 2.782120943069458 68.87755584716797 5.31073522567749 C 74.65267944335938 7.753406524658203 79.839599609375 11.25062084197998 84.29421234130859 15.70522117614746 C 88.74882507324219 20.15983581542969 92.24604034423828 25.34673500061035 94.68872833251953 31.12186431884766 C 97.21733856201172 37.10017776489258 98.49945068359375 43.45157623291016 98.49945068359375 49.99964904785156 C 98.49945068359375 56.54829406738281 97.21733856201172 62.89969253540039 94.68872833251953 68.87800598144531 C 92.24604034423828 74.65313720703125 88.74882507324219 79.84004974365234 84.29421234130859 84.29464721679688 C 79.839599609375 88.74925994873047 74.65267944335938 92.24647521972656 68.87755584716797 94.68914794921875 C 62.89922714233398 97.21776580810547 56.54780960083008 98.4998779296875 49.99972534179688 98.4998779296875 Z" stroke="none"/>
                  <path d="M 49.99972534179688 3 C 43.65348052978516 3 37.49866485595703 4.242240905761719 31.70623016357422 6.692230224609375 C 26.10989379882812 9.059272766113281 21.08323669433594 12.44853210449219 16.76589202880859 16.76587677001953 C 12.44855499267578 21.08321380615234 9.059295654296875 26.10985565185547 6.692230224609375 31.70618438720703 C 4.24224853515625 37.49859619140625 3 43.65341186523438 3 50.00022888183594 C 3 56.34645843505859 4.24224853515625 62.50127410888672 6.692230224609375 68.29368591308594 C 9.059295654296875 73.8900146484375 12.44855499267578 78.91665649414062 16.76589202880859 83.23399353027344 C 21.08323669433594 87.55132293701172 26.10989379882812 90.94059753417969 31.70623016357422 93.30764007568359 C 37.49866485595703 95.75762939453125 43.65348052978516 96.99987030029297 49.99972534179688 96.99987030029297 C 56.34597015380859 96.99987030029297 62.50078582763672 95.75762939453125 68.293212890625 93.30764007568359 C 73.88955688476562 90.94059753417969 78.91621398925781 87.55132293701172 83.23355865478516 83.23399353027344 C 87.55089569091797 78.91665649414062 90.94015502929688 73.8900146484375 93.30722045898438 68.29368591308594 C 95.7572021484375 62.50127410888672 96.99945068359375 56.34645843505859 96.99945068359375 49.99964141845703 C 96.99945068359375 43.65341186523438 95.7572021484375 37.49859619140625 93.30722045898438 31.70618438720703 C 90.94015502929688 26.10985565185547 87.55089569091797 21.08321380615234 83.23355865478516 16.76587677001953 C 78.91621398925781 12.44853210449219 73.88955688476562 9.059272766113281 68.293212890625 6.692230224609375 C 62.50078582763672 4.242240905761719 56.34597015380859 3 49.99972534179688 3 M 49.99972534179688 0 C 77.61381530761719 0 99.99945068359375 22.38559722900391 99.99945068359375 49.99964141845703 L 99.99945068359375 50.00022888183594 C 99.99945068359375 77.6142578125 77.61381530761719 99.99987030029297 49.99972534179688 99.99987030029297 C 22.38563537597656 99.99987030029297 0 77.6142578125 0 50.00022888183594 L 0 49.99964141845703 C 0 22.38559722900391 22.38563537597656 0 49.99972534179688 0 Z" stroke="none" fill="#fff"/>
                </g>
              </g>
              <g id="Trazado_874923" data-name="Trazado 874923" transform="translate(0 0)" fill="none">
                <path d="M50,0a50,50,0,0,1,50,50h0A50,50,0,0,1,0,50H0A50,50,0,0,1,50,0Z" stroke="none"/>
                <path d="M 49.99972534179688 3 C 43.65348052978516 3 37.49866485595703 4.242240905761719 31.70623016357422 6.692230224609375 C 26.10989379882812 9.059272766113281 21.08323669433594 12.44853210449219 16.76589202880859 16.76587677001953 C 12.44855499267578 21.08321380615234 9.059295654296875 26.10985565185547 6.692230224609375 31.70618438720703 C 4.24224853515625 37.49859619140625 3 43.65341186523438 3 50.00022888183594 C 3 56.34645843505859 4.24224853515625 62.50127410888672 6.692230224609375 68.29368591308594 C 9.059295654296875 73.8900146484375 12.44855499267578 78.91665649414062 16.76589202880859 83.23399353027344 C 21.08323669433594 87.55132293701172 26.10989379882812 90.94059753417969 31.70623016357422 93.30764007568359 C 37.49866485595703 95.75762939453125 43.65348052978516 96.99987030029297 49.99972534179688 96.99987030029297 C 56.34597015380859 96.99987030029297 62.50078582763672 95.75762939453125 68.293212890625 93.30764007568359 C 73.88955688476562 90.94059753417969 78.91621398925781 87.55132293701172 83.23355865478516 83.23399353027344 C 87.55089569091797 78.91665649414062 90.94015502929688 73.8900146484375 93.30722045898438 68.29368591308594 C 95.7572021484375 62.50127410888672 96.99945068359375 56.34645843505859 96.99945068359375 49.99964141845703 C 96.99945068359375 43.65341186523438 95.7572021484375 37.49859619140625 93.30722045898438 31.70618438720703 C 90.94015502929688 26.10985565185547 87.55089569091797 21.08321380615234 83.23355865478516 16.76587677001953 C 78.91621398925781 12.44853210449219 73.88955688476562 9.059272766113281 68.293212890625 6.692230224609375 C 62.50078582763672 4.242240905761719 56.34597015380859 3 49.99972534179688 3 M 49.99972534179688 0 C 77.61381530761719 0 99.99945068359375 22.38559722900391 99.99945068359375 49.99964141845703 L 99.99945068359375 50.00022888183594 C 99.99945068359375 77.6142578125 77.61381530761719 99.99987030029297 49.99972534179688 99.99987030029297 C 22.38563537597656 99.99987030029297 0 77.6142578125 0 50.00022888183594 L 0 49.99964141845703 C 0 22.38559722900391 22.38563537597656 0 49.99972534179688 0 Z" stroke="none" fill="#fff"/>
              </g>
            </g>
          </g>
        </g>
      </g>
    </g>
    <g id="g6945" transform="translate(4540.166 -2464.275)">
      <g id="g6947" transform="translate(0 -682.665)">
        <g id="g6949" clip-path="url(#clip-path)">
          <g id="g6955" transform="translate(3.804 18.195)">
            <path id="path6957" d="M-543.053-340.22v-31.95h-51v31.95a.521.521,0,0,0,.519.519h49.96a.521.521,0,0,0,.519-.519" transform="translate(594.051 372.17)" fill="#eff6ff" fill-rule="evenodd"/>
          </g>
          <g id="g6959" transform="translate(18.557 30.764)">
            <path id="path6961" d="M-194.341-148.5l-17.384-13.945-.866,3,11.658,14.549Z" transform="translate(212.591 162.444)" fill="#fe8d94" fill-rule="evenodd"/>
          </g>
          <g id="g6963" transform="translate(17.184 33.762)">
            <path id="path6965" d="M-138.751-154.925l-11.658-14.549-1.372,4.75,9.429,11.765Z" transform="translate(151.781 169.474)" fill="#ccf49f" fill-rule="evenodd"/>
          </g>
          <g id="g6967" transform="translate(15.244 38.513)">
            <path id="path6969" d="M-121.062-125.28l-9.429-11.765-1.94,6.72,4.354,5.432,1.921,2.395,4.387-2.395Z" transform="translate(132.43 137.045)" fill="#fe8d94" fill-rule="evenodd"/>
          </g>
          <g id="g6971" transform="translate(13.872 45.232)">
            <path id="path6973" d="M-60.98-57.838l-4.354-5.432-1.372,4.747.548.684,3.5,4.361,3.6-1.966Z" transform="translate(66.706 63.269)" fill="#ccf49f" fill-rule="evenodd"/>
          </g>
          <g id="g6975" transform="translate(11.956 49.979)">
            <path id="path6977" d="M-63.484-53.725l-3.5-4.361-.548-.684-.195.684-1.609,5.568c-.224,1.038-.12,1.506.386,1.515h.029a2.9,2.9,0,0,0,1.042-.321Z" transform="translate(69.446 58.771)" fill="#fe8d94" fill-rule="evenodd"/>
          </g>
          <g id="g6979" transform="translate(3.804 14.168)">
            <path id="path6981" d="M0-55.074H51v-5.172H0Z" transform="translate(0 60.247)" fill="#9fd4fe" fill-rule="evenodd"/>
          </g>
          <g id="g6983" transform="translate(3.804 6.04)">
            <path id="path6985" d="M-184.357-98.711h33.685v-8.751a.521.521,0,0,0-.519-.519h-49.96a.521.521,0,0,0-.519.519v8.751Z" transform="translate(201.67 107.981)" fill="#fe8d94" fill-rule="evenodd"/>
          </g>
          <g id="g6987" transform="translate(8.974 0)">
            <path id="path6989" d="M-42.239-118.638a3.971,3.971,0,0,1-3.967-3.967v-4.147a3.971,3.971,0,0,1,3.967-3.967,3.973,3.973,0,0,1,3.97,3.967v2.073a.858.858,0,0,1-.858.858.858.858,0,0,1-.858-.858v-2.073A2.254,2.254,0,0,0-42.239-129a2.252,2.252,0,0,0-2.25,2.25v4.147a2.252,2.252,0,0,0,2.25,2.25.858.858,0,0,1,.858.858A.858.858,0,0,1-42.239-118.638Z" transform="translate(46.205 130.718)"/>
          </g>
          <g id="g6991" transform="translate(20.151 0)">
            <path id="path6993" d="M-42.24-118.638a3.971,3.971,0,0,1-3.967-3.967v-4.147a3.971,3.971,0,0,1,3.967-3.967,3.973,3.973,0,0,1,3.97,3.967v2.073a.858.858,0,0,1-.858.858.858.858,0,0,1-.858-.858v-2.073A2.254,2.254,0,0,0-42.24-129a2.252,2.252,0,0,0-2.25,2.25v4.147a2.252,2.252,0,0,0,2.25,2.25.858.858,0,0,1,.858.858A.858.858,0,0,1-42.24-118.638Z" transform="translate(46.207 130.718)"/>
          </g>
          <g id="g6995" transform="translate(31.329 0)">
            <path id="path6997" d="M-42.24-118.638a3.971,3.971,0,0,1-3.967-3.967v-4.147a3.971,3.971,0,0,1,3.967-3.967,3.973,3.973,0,0,1,3.97,3.967v2.073a.858.858,0,0,1-.858.858.858.858,0,0,1-.858-.858v-2.073A2.254,2.254,0,0,0-42.24-129a2.252,2.252,0,0,0-2.25,2.25v4.147a2.252,2.252,0,0,0,2.25,2.25.858.858,0,0,1,.858.858A.858.858,0,0,1-42.24-118.638Z" transform="translate(46.207 130.718)"/>
          </g>
          <g id="g6999" transform="translate(42.506 0)">
            <path id="path7001" d="M-42.275-118.638a3.973,3.973,0,0,1-3.97-3.967v-4.147a3.973,3.973,0,0,1,3.97-3.967,3.971,3.971,0,0,1,3.967,3.967v2.073a.858.858,0,0,1-.858.858.858.858,0,0,1-.858-.858v-2.073a2.252,2.252,0,0,0-2.25-2.25,2.254,2.254,0,0,0-2.253,2.25v4.147a2.254,2.254,0,0,0,2.253,2.25.858.858,0,0,1,.858.858A.858.858,0,0,1-42.275-118.638Z" transform="translate(46.245 130.718)"/>
          </g>
          <g id="g7003" transform="translate(16.984 28.64)">
            <path id="path7005" d="M11.4,8.193A.855.855,0,0,1,10.866,8L-9.679-8.472a.858.858,0,0,1-.133-1.207A.858.858,0,0,1-8.6-9.812L11.94,6.665A.858.858,0,0,1,11.4,8.193Z" transform="translate(10 10)"/>
          </g>
          <g id="g7007" transform="translate(32.166 25.899)">
            <path id="path7009" d="M-46.408-4.292a.855.855,0,0,1-.536-.189.858.858,0,0,1-.133-1.207l3.2-3.991a.858.858,0,0,1,1.207-.133A.858.858,0,0,1-42.538-8.6l-3.2,3.991A.857.857,0,0,1-46.408-4.292Z" transform="translate(47.266 10)"/>
          </g>
          <g id="g7011" transform="translate(26.024 26.298)">
            <path id="path7013" d="M-49.09-3.486a.855.855,0,0,1-.565-.212.858.858,0,0,1-.082-1.211,24.009,24.009,0,0,0,3.315-4.631A.858.858,0,0,1-45.263-9.9.858.858,0,0,1-44.9-8.746,25.59,25.59,0,0,1-48.443-3.78.856.856,0,0,1-49.09-3.486Z" transform="translate(49.948 10.002)"/>
          </g>
          <g id="g7015" transform="translate(32.321 31.759)">
            <path id="path7017" d="M-55.025-3.9a.855.855,0,0,1-.508-.167.858.858,0,0,1-.183-1.2A25.5,25.5,0,0,1-51.638-9.8a.858.858,0,0,1,1.21.105.858.858,0,0,1-.105,1.21,23.92,23.92,0,0,0-3.8,4.238A.857.857,0,0,1-55.025-3.9Z" transform="translate(55.883 10)"/>
          </g>
          <g id="g7019" transform="translate(36.283 34.607)">
            <path id="path7021" d="M-96.409-3.565a.854.854,0,0,1-.5-.159.858.858,0,0,1-.2-1.2C-95.5-7.181-93.127-9.8-88.958-10a.858.858,0,0,1,.9.817.858.858,0,0,1-.817.9c-3.409.162-5.367,2.294-6.832,4.357A.857.857,0,0,1-96.409-3.565Z" transform="translate(97.267 10)"/>
          </g>
          <g id="g7023" transform="translate(23.253 23.553)">
            <path id="path7025" d="M-19.652-4.429a.854.854,0,0,1-.437-.12.858.858,0,0,1-.3-1.176,5.034,5.034,0,0,0,.787-3.32.858.858,0,0,1,.756-.95.858.858,0,0,1,.95.756,6.712,6.712,0,0,1-1.017,4.39A.858.858,0,0,1-19.652-4.429Z" transform="translate(20.51 10.001)"/>
          </g>
          <g id="g7027" transform="translate(11.956 51.666)">
            <path id="path7029" d="M-11.556-12.715l-.973,3.371c-.224,1.038-.12,1.506.386,1.515h.029a2.9,2.9,0,0,0,1.042-.321l4.393-2.4-2.693-3.358Z" transform="translate(12.641 13.909)" fill="#ff6d75" fill-rule="evenodd"/>
          </g>
          <g id="g7031" transform="translate(15.225 49.7)">
            <path id="path7033" d="M0-20.939l2.693,3.358,3.6-1.966L4.374-21.942,3.6-22.905l-1.762.964Z" transform="translate(0 22.905)" fill="#b3e59f" fill-rule="evenodd"/>
          </g>
          <g id="g7035" transform="translate(18.826 46.916)">
            <path id="path7037" d="M0-29.644l.772.964,1.921,2.395L7.08-28.68l.707-.386L5.094-32.428Z" transform="translate(0 32.428)" fill="#ff6d75" fill-rule="evenodd"/>
          </g>
          <g id="g7039" transform="translate(23.92 44.95)">
            <path id="path7041" d="M0-20.938l2.693,3.361,3.6-1.966L3.6-22.9Z" transform="translate(0 22.904)" fill="#b3e59f" fill-rule="evenodd"/>
          </g>
          <g id="g7043" transform="translate(27.521 41.835)">
            <path id="path7045" d="M0-33.169l2.693,3.361,6.593-3.6L5.7-36.284Z" transform="translate(0 36.284)" fill="#ff6d75" fill-rule="evenodd"/>
          </g>
          <g id="g7047" transform="translate(11.097 29.906)">
            <path id="path7049" d="M-88.66-10a.858.858,0,0,1,.537.189L-70.739,4.134a.858.858,0,0,1,.318.745.858.858,0,0,1-.444.678L-94.147,18.273a3.57,3.57,0,0,1-1.469.426,1.313,1.313,0,0,1-1.048-.475,2.482,2.482,0,0,1-.191-2.08l7.37-25.524a.858.858,0,0,1,.566-.58A.858.858,0,0,1-88.66-10ZM-72.817,4.668-88.193-7.666l-7,24.23c-.027.125-.045.229-.057.316.09-.034.2-.079.33-.14Z" transform="translate(96.986 10)"/>
          </g>
          <g id="g7051" transform="translate(16.326 37.654)">
            <path id="path7053" d="M.287,3.482a.857.857,0,0,1-.67-.322L-9.812-8.6a.858.858,0,0,1,.133-1.207.858.858,0,0,1,1.207.133L.957,2.086a.859.859,0,0,1-.669,1.4Z" transform="translate(10 10)"/>
          </g>
          <g id="g7055" transform="translate(14.385 44.374)">
            <path id="path7057" d="M-2.866-.457a.857.857,0,0,1-.67-.321L-9.812-8.6a.858.858,0,0,1,.133-1.207.858.858,0,0,1,1.207.133L-2.2-1.853A.858.858,0,0,1-2.33-.646.855.855,0,0,1-2.866-.457Z" transform="translate(10 10)"/>
          </g>
          <g id="g7059" transform="translate(13.013 49.121)">
            <path id="path7061" d="M-5.1-3.238a.857.857,0,0,1-.67-.321L-9.812-8.6a.858.858,0,0,1,.133-1.207.858.858,0,0,1,1.207.133l4.046,5.045a.858.858,0,0,1-.133,1.207A.855.855,0,0,1-5.1-3.238Z" transform="translate(10 10)"/>
          </g>
          <g id="g7063" transform="translate(17.698 32.904)">
            <path id="path7065" d="M-83.435-101a.857.857,0,0,1-.671-.322l-4.2-5.25a.858.858,0,0,1,.133-1.207.858.858,0,0,1,1.207.133l4.2,5.25a.858.858,0,0,1-.133,1.207A.855.855,0,0,1-83.435-101Z" transform="translate(88.499 107.967)"/>
          </g>
          <g id="g7067" transform="translate(50.077 6.04)">
            <path id="path7069" d="M0,0V9.27H4.724V.519A.521.521,0,0,0,4.2,0H0Z" fill="#ff6d75" fill-rule="evenodd"/>
          </g>
          <g id="g7071" transform="translate(50.077 15.31)">
            <path id="path7073" d="M0,0V4.03H4.724V0Z" fill="#85beef" fill-rule="evenodd"/>
          </g>
          <g id="g7075" transform="translate(50.077 19.34)">
            <path id="path7077" d="M0,0V31.324H4.2a.521.521,0,0,0,.519-.519V0Z" fill="#d9eeff" fill-rule="evenodd"/>
          </g>
          <path id="path7079" d="M44.307-453.885h51v-3.5h-51Z" transform="translate(-40.503 476.723)" fill="#d9eeff" fill-rule="evenodd"/>
          <g id="g7081" transform="translate(2.945 5.182)">
            <path id="path7083" d="M-73.67-483.458h-28.377a.858.858,0,0,1-.858-.858.858.858,0,0,1,.858-.858H-74.01v-42.907h-49.281v42.907h9.015a.858.858,0,0,1,.858.858.858.858,0,0,1-.858.858h-9.354a1.379,1.379,0,0,1-1.378-1.378v-43.585a1.379,1.379,0,0,1,1.378-1.378h49.96a1.379,1.379,0,0,1,1.378,1.378v43.585A1.379,1.379,0,0,1-73.67-483.458Z" transform="translate(125.008 529.799)"/>
          </g>
          <g id="g7085" transform="translate(2.945 14.452)">
            <path id="path7087" d="M-230.338-55.224h-51a.858.858,0,0,1-.858-.858.858.858,0,0,1,.858-.858h51a.858.858,0,0,1,.858.858A.858.858,0,0,1-230.338-55.224Z" transform="translate(282.194 56.941)"/>
          </g>
        </g>
      </g>
    </g>
  </g>
</svg>
