<svg xmlns="http://www.w3.org/2000/svg" xmlns:xlink="http://www.w3.org/1999/xlink" width="102.949" height="102.949" viewBox="0 0 102.949 102.949">
  <defs>
    <filter id="Trazado_874925" x="0" y="0" width="102.949" height="102.949" filterUnits="userSpaceOnUse">
      <feOffset dy="3" input="SourceAlpha"/>
      <feGaussianBlur stdDeviation="3" result="blur"/>
      <feFlood flood-opacity="0.161"/>
      <feComposite operator="in" in2="blur"/>
      <feComposite in="SourceGraphic"/>
    </filter>
  </defs>
  <g id="Grupo_1182282" data-name="Grupo 1182282" transform="translate(-906.051 -2527)">
    <g id="Grupo_1181961" data-name="Grupo 1181961" transform="translate(106.551 15.843)">
      <g id="Grupo_1111316" data-name="Grupo 1111316" transform="translate(808.5 2517.157)">
        <g id="Grupo_1109835" data-name="Grupo 1109835" transform="translate(0 0)">
          <g id="Grupo_1107913" data-name="Grupo 1107913" transform="translate(0 0)">
            <g transform="matrix(1, 0, 0, 1, -9, -6)" filter="url(#Trazado_874925)">
              <g id="Trazado_874925-2" data-name="Trazado 874925" transform="translate(9 6)" fill="#9ad354" opacity="0.859">
                <path d="M 42.47446823120117 83.44929504394531 C 36.94229125976562 83.44929504394531 31.57638549804688 82.36614227294922 26.52582168579102 80.22994232177734 C 21.64678573608398 78.16628265380859 17.26464462280273 75.211669921875 13.50113868713379 71.44816589355469 C 9.737632751464844 67.68466949462891 6.78300952911377 63.30253982543945 4.719362258911133 58.42351913452148 C 2.583150625228882 53.37295150756836 1.499997615814209 48.00706100463867 1.499997615814209 42.47489547729492 C 1.499997615814209 36.94223403930664 2.583150625228882 31.57634162902832 4.719362258911133 26.52577781677246 C 6.78300952911377 21.64675331115723 9.737632751464844 17.26462364196777 13.50113868713379 13.50113010406494 C 17.26464462280273 9.737624168395996 21.64678573608398 6.783012390136719 26.52582168579102 4.719353199005127 C 31.57638549804688 2.583153486251831 36.94229125976562 1.500000476837158 42.47446823120117 1.500000476837158 C 48.00664520263672 1.500000476837158 53.37255096435547 2.583153486251831 58.42311477661133 4.719353199005127 C 63.30215072631836 6.783012390136719 67.68428802490234 9.737624168395996 71.44779968261719 13.50113010406494 C 75.2113037109375 17.26462364196777 78.16592407226562 21.64675331115723 80.22957611083984 26.52577781677246 C 82.36578369140625 31.57634162902832 83.44893646240234 36.94223403930664 83.44893646240234 42.47439956665039 C 83.44893646240234 48.00706100463867 82.36578369140625 53.37295150756836 80.22957611083984 58.42351913452148 C 78.16592407226562 63.30253982543945 75.2113037109375 67.68466949462891 71.44779968261719 71.44816589355469 C 67.68428802490234 75.211669921875 63.30215072631836 78.16628265380859 58.42311477661133 80.22994232177734 C 53.37255096435547 82.36614227294922 48.00664520263672 83.44929504394531 42.47446823120117 83.44929504394531 Z" stroke="none"/>
                <path d="M 42.47446823120117 2.999992370605469 C 37.14412307739258 2.999992370605469 31.97481536865234 4.04327392578125 27.11014938354492 6.100860595703125 C 22.40990829467773 8.088890075683594 18.18804168701172 10.93555450439453 14.56179809570312 14.56178283691406 C 10.93557739257812 18.18801116943359 8.088897705078125 22.40987396240234 6.100868225097656 27.11009979248047 C 4.043281555175781 31.97476577758789 3 37.14406204223633 3 42.47488784790039 C 3 47.80522155761719 4.043281555175781 52.97451400756836 6.100868225097656 57.83917999267578 C 8.088897705078125 62.53940582275391 10.93557739257812 66.76127624511719 14.56179809570312 70.38749694824219 C 18.18804168701172 74.01372528076172 22.40990829467773 76.86039733886719 27.11014938354492 78.84841918945312 C 31.97481536865234 80.906005859375 37.14412307739258 81.94928741455078 42.47446823120117 81.94928741455078 C 47.80481338500977 81.94928741455078 52.97412109375 80.906005859375 57.83879089355469 78.84841918945312 C 62.53902816772461 76.86039733886719 66.76089477539062 74.01372528076172 70.38713073730469 70.38749694824219 C 74.01335906982422 66.76127624511719 76.86003875732422 62.53940582275391 78.84806823730469 57.83917999267578 C 80.90565490722656 52.97451400756836 81.94893646240234 47.80522155761719 81.94893646240234 42.47439575195312 C 81.94893646240234 37.14406204223633 80.90565490722656 31.97476577758789 78.84806823730469 27.11009979248047 C 76.86003875732422 22.40987396240234 74.01335906982422 18.18801116943359 70.38713073730469 14.56178283691406 C 66.76089477539062 10.93555450439453 62.53902816772461 8.088890075683594 57.83879089355469 6.100860595703125 C 52.97412109375 4.04327392578125 47.80481338500977 2.999992370605469 42.47446823120117 2.999992370605469 M 42.47446823120117 -7.62939453125e-06 C 65.93246459960938 -7.62939453125e-06 84.94893646240234 19.01643371582031 84.94893646240234 42.47439575195312 L 84.94893646240234 42.47488784790039 C 84.94893646240234 65.93284606933594 65.93246459960938 84.94928741455078 42.47446823120117 84.94928741455078 C 19.01647186279297 84.94928741455078 0 65.93284606933594 0 42.47488784790039 L 0 42.47439575195312 C 0 19.01643371582031 19.01647186279297 -7.62939453125e-06 42.47446823120117 -7.62939453125e-06 Z" stroke="none" fill="#fff"/>
              </g>
            </g>
            <g id="Trazado_874923" data-name="Trazado 874923" transform="translate(0 0)" fill="none">
              <path d="M42.474,0A42.474,42.474,0,0,1,84.949,42.474h0A42.474,42.474,0,0,1,0,42.475H0A42.474,42.474,0,0,1,42.474,0Z" stroke="none"/>
              <path d="M 42.47446823120117 2.999992370605469 C 37.14412307739258 2.999992370605469 31.97481536865234 4.04327392578125 27.11014938354492 6.100860595703125 C 22.40990829467773 8.088890075683594 18.18804168701172 10.93555450439453 14.56179809570312 14.56178283691406 C 10.93557739257812 18.18801116943359 8.088897705078125 22.40987396240234 6.100868225097656 27.11009979248047 C 4.043281555175781 31.97476577758789 3 37.14406204223633 3 42.47488784790039 C 3 47.80522155761719 4.043281555175781 52.97451400756836 6.100868225097656 57.83917999267578 C 8.088897705078125 62.53940582275391 10.93557739257812 66.76127624511719 14.56179809570312 70.38749694824219 C 18.18804168701172 74.01372528076172 22.40990829467773 76.86039733886719 27.11014938354492 78.84841918945312 C 31.97481536865234 80.906005859375 37.14412307739258 81.94928741455078 42.47446823120117 81.94928741455078 C 47.80481338500977 81.94928741455078 52.97412109375 80.906005859375 57.83879089355469 78.84841918945312 C 62.53902816772461 76.86039733886719 66.76089477539062 74.01372528076172 70.38713073730469 70.38749694824219 C 74.01335906982422 66.76127624511719 76.86003875732422 62.53940582275391 78.84806823730469 57.83917999267578 C 80.90565490722656 52.97451400756836 81.94893646240234 47.80522155761719 81.94893646240234 42.47439575195312 C 81.94893646240234 37.14406204223633 80.90565490722656 31.97476577758789 78.84806823730469 27.11009979248047 C 76.86003875732422 22.40987396240234 74.01335906982422 18.18801116943359 70.38713073730469 14.56178283691406 C 66.76089477539062 10.93555450439453 62.53902816772461 8.088890075683594 57.83879089355469 6.100860595703125 C 52.97412109375 4.04327392578125 47.80481338500977 2.999992370605469 42.47446823120117 2.999992370605469 M 42.47446823120117 -7.62939453125e-06 C 65.93246459960938 -7.62939453125e-06 84.94893646240234 19.01643371582031 84.94893646240234 42.47439575195312 L 84.94893646240234 42.47488784790039 C 84.94893646240234 65.93284606933594 65.93246459960938 84.94928741455078 42.47446823120117 84.94928741455078 C 19.01647186279297 84.94928741455078 0 65.93284606933594 0 42.47488784790039 L 0 42.47439575195312 C 0 19.01643371582031 19.01647186279297 -7.62939453125e-06 42.47446823120117 -7.62939453125e-06 Z" stroke="none" fill="#fff"/>
            </g>
          </g>
        </g>
      </g>
    </g>
    <g id="_23-Training" data-name="23-Training" transform="translate(932.051 2550)">
      <rect id="Rect치ngulo_408456" data-name="Rect치ngulo 408456" width="29" height="3" transform="translate(19 3.185)" fill="#64b5f6"/>
      <rect id="Rect치ngulo_408457" data-name="Rect치ngulo 408457" width="4" height="3" transform="translate(44 3.185)" fill="#42a5f5"/>
      <path id="Trazado_910716" data-name="Trazado 910716" d="M26,7H51.165V24.3a1.573,1.573,0,0,1-1.573,1.573H27.573A1.573,1.573,0,0,1,26,24.3Z" transform="translate(-5.126 -1.068)" fill="#eee"/>
      <path id="Trazado_910717" data-name="Trazado 910717" d="M51.165,7V24.3a1.577,1.577,0,0,1-1.573,1.573H27.573A1.577,1.577,0,0,1,26,24.3v-.786H45.66a1.577,1.577,0,0,0,1.573-1.573V7Z" transform="translate(-5.126 -1.068)" fill="#e0e0e0"/>
      <path id="Trazado_910718" data-name="Trazado 910718" d="M32.651,53H27.932A3.932,3.932,0,0,0,24,56.932v2.359H36.583V56.932A3.932,3.932,0,0,0,32.651,53Z" transform="translate(-4.699 -10.893)" fill="#ffb74d"/>
      <circle id="Elipse_11684" data-name="Elipse 11684" cx="4" cy="4" r="4" transform="translate(22 34.185)" fill="#ffccbc"/>
      <path id="Trazado_910719" data-name="Trazado 910719" d="M12.651,53H7.932A3.932,3.932,0,0,0,4,56.932v2.359H16.583V56.932A3.932,3.932,0,0,0,12.651,53Z" transform="translate(-0.427 -10.893)" fill="#ffb74d"/>
      <circle id="Elipse_11685" data-name="Elipse 11685" cx="4" cy="4" r="4" transform="translate(6 34.185)" fill="#ffccbc"/>
      <path id="Trazado_910720" data-name="Trazado 910720" d="M52.651,53H47.932A3.932,3.932,0,0,0,44,56.932v2.359H56.583V56.932A3.932,3.932,0,0,0,52.651,53Z" transform="translate(-8.971 -10.893)" fill="#ffb74d"/>
      <path id="Trazado_910721" data-name="Trazado 910721" d="M56.583,56.932v2.359H44V56.932h6.293a1.65,1.65,0,0,0,1.231-2.762l-.021-.022A3.949,3.949,0,0,0,48.718,53h3.932A3.932,3.932,0,0,1,56.583,56.932Z" transform="translate(-8.971 -10.893)" fill="#ffa726"/>
      <path id="Trazado_910722" data-name="Trazado 910722" d="M36.583,56.932v2.359H24V56.932h6.293a1.65,1.65,0,0,0,1.231-2.762l-.021-.022A3.949,3.949,0,0,0,28.718,53h3.932A3.932,3.932,0,0,1,36.583,56.932Z" transform="translate(-4.699 -10.893)" fill="#ffa726"/>
      <path id="Trazado_910723" data-name="Trazado 910723" d="M16.583,56.932v2.359H4V56.932h6.293a1.65,1.65,0,0,0,1.231-2.762l-.021-.022A3.949,3.949,0,0,0,8.718,53h3.932A3.932,3.932,0,0,1,16.583,56.932Z" transform="translate(-0.427 -10.893)" fill="#ffa726"/>
      <circle id="Elipse_11686" data-name="Elipse 11686" cx="4" cy="4" r="4" transform="translate(37 34.185)" fill="#ffccbc"/>
      <path id="Trazado_910724" data-name="Trazado 910724" d="M55.291,46.932a3.933,3.933,0,0,1-3.932,3.932A3.886,3.886,0,0,1,49,50.078,3.932,3.932,0,0,0,51.359,43a3.933,3.933,0,0,1,3.932,3.932Z" transform="translate(-10.039 -8.757)" fill="#ffab91"/>
      <path id="Trazado_910725" data-name="Trazado 910725" d="M35.291,46.932a3.933,3.933,0,0,1-3.932,3.932A3.886,3.886,0,0,1,29,50.078,3.932,3.932,0,0,0,31.359,43,3.933,3.933,0,0,1,35.291,46.932Z" transform="translate(-5.767 -8.757)" fill="#ffab91"/>
      <path id="Trazado_910726" data-name="Trazado 910726" d="M15.291,46.932a3.933,3.933,0,0,1-3.932,3.932A3.886,3.886,0,0,1,9,50.078,3.932,3.932,0,0,0,11.359,43,3.933,3.933,0,0,1,15.291,46.932Z" transform="translate(-1.495 -8.757)" fill="#ffab91"/>
      <circle id="Elipse_11687" data-name="Elipse 11687" cx="4" cy="4" r="4" transform="translate(7 4.185)" fill="#ffccbc"/>
      <path id="Trazado_910727" data-name="Trazado 910727" d="M3,18.932V26.01a1.573,1.573,0,0,0,1.573,1.573H6.146V32.3h9.437V18.146h6.291a1.573,1.573,0,0,0,1.573-1.573h0A1.573,1.573,0,0,0,21.874,15H6.932A3.932,3.932,0,0,0,3,18.932Z" transform="translate(-0.214 -2.777)" fill="#64b5f6"/>
      <path id="Trazado_910728" data-name="Trazado 910728" d="M22.644,15H20.369A1.573,1.573,0,0,1,18.8,16.573H15.651A3.146,3.146,0,0,0,12.5,19.718V26.8a3.146,3.146,0,0,1-3.146,3.146H7V32.3h9.437V18.146h6.291a1.574,1.574,0,0,0,1.551-1.837A1.631,1.631,0,0,0,22.644,15Z" transform="translate(-1.068 -2.777)" fill="#42a5f5"/>
      <ellipse id="Elipse_11688" data-name="Elipse 11688" cx="2.5" cy="2" rx="2.5" ry="2" transform="translate(31 29.185)" fill="#64b5f6"/>
      <path id="Trazado_910729" data-name="Trazado 910729" d="M43.868,38.359a2.356,2.356,0,0,1-2.359,2.359,2.329,2.329,0,0,1-1.809-.849,2.362,2.362,0,0,0,1.809-2.3,2.327,2.327,0,0,0-.55-1.51,2.569,2.569,0,0,1,.55-.063,2.356,2.356,0,0,1,2.359,2.359Z" transform="translate(-8.052 -7.262)" fill="#42a5f5"/>
      <path id="Trazado_910730" data-name="Trazado 910730" d="M16.291,8.932a3.933,3.933,0,0,1-3.932,3.932A3.886,3.886,0,0,1,10,12.078,3.932,3.932,0,0,0,12.359,5a3.933,3.933,0,0,1,3.932,3.932Z" transform="translate(-1.709 -0.641)" fill="#ffab91"/>
      <path id="Trazado_910731" data-name="Trazado 910731" d="M48.4,2H18.515a.786.786,0,0,0-.786.786V5.932a.786.786,0,0,0,.786.786h1.573V9.078a.786.786,0,1,0,1.573,0V6.718H45.253V23.233a.787.787,0,0,1-.786.786H22.447a.787.787,0,0,1-.786-.786V18.515a.786.786,0,1,0-1.573,0v4.718a2.362,2.362,0,0,0,2.359,2.359H32.67v3.291a2.359,2.359,0,1,0,1.573,0V25.592H44.466a2.362,2.362,0,0,0,2.359-2.359V6.718H48.4a.786.786,0,0,0,.786-.786V2.786A.786.786,0,0,0,48.4,2ZM33.456,31.884a.786.786,0,1,1,.786-.786.786.786,0,0,1-.786.786ZM47.612,5.146H19.3V3.573H47.612ZM28.991,41.44a4.718,4.718,0,1,0-6.8,0,4.724,4.724,0,0,0-3.679,4.6V48.4a.786.786,0,1,0,1.573,0V46.039a3.149,3.149,0,0,1,3.146-3.146h4.718A3.149,3.149,0,0,1,31.1,46.039V48.4a.786.786,0,1,0,1.573,0V46.039a4.724,4.724,0,0,0-3.679-4.6Zm-3.4-6.41a3.146,3.146,0,1,1-3.146,3.146,3.146,3.146,0,0,1,3.146-3.146ZM13.263,41.44a4.718,4.718,0,1,0-6.8,0,4.724,4.724,0,0,0-3.679,4.6V48.4a.786.786,0,1,0,1.573,0V46.039A3.149,3.149,0,0,1,7.5,42.893h4.718a3.149,3.149,0,0,1,3.146,3.146V48.4a.786.786,0,1,0,1.573,0V46.039a4.724,4.724,0,0,0-3.679-4.6Zm-3.4-6.41a3.146,3.146,0,1,1-3.146,3.146A3.146,3.146,0,0,1,9.864,35.029Zm34.855,6.41a4.718,4.718,0,1,0-6.8,0,4.724,4.724,0,0,0-3.679,4.6V48.4a.786.786,0,1,0,1.573,0V46.039a3.149,3.149,0,0,1,3.146-3.146H43.68a3.149,3.149,0,0,1,3.146,3.146V48.4a.786.786,0,1,0,1.573,0V46.039a4.724,4.724,0,0,0-3.679-4.6Zm-3.4-6.41a3.146,3.146,0,1,1-3.146,3.146A3.146,3.146,0,0,1,41.32,35.029ZM5.146,25.592v3.932a.786.786,0,0,0,1.573,0V18.515a.786.786,0,1,0-1.573,0v5.5H4.359a.787.787,0,0,1-.786-.786V16.155A3.149,3.149,0,0,1,6.718,13.01H21.66a.786.786,0,0,1,0,1.573H15.369a.786.786,0,0,0-.786.786V29.524a.786.786,0,0,0,1.573,0V16.155h5.5a2.359,2.359,0,0,0,0-4.718h-7.5a4.718,4.718,0,1,0-7.014,0H6.718A4.724,4.724,0,0,0,2,16.155v7.078a2.362,2.362,0,0,0,2.359,2.359ZM7.5,8.291a3.146,3.146,0,1,1,3.146,3.146A3.146,3.146,0,0,1,7.5,8.291Zm3.146,15.728a.786.786,0,0,1,.786.786v4.718a.786.786,0,0,1-1.573,0V24.806a.786.786,0,0,1,.786-.786ZM42.107,10.651a.786.786,0,0,1-.786.786H25.592a.786.786,0,0,1,0-1.573H41.32a.786.786,0,0,1,.786.786Zm0,4.718a.786.786,0,0,1-.786.786H33.456a.786.786,0,0,1,0-1.573H41.32a.786.786,0,0,1,.786.786Zm-17.3,0a.786.786,0,0,1,.786-.786h4.718a.786.786,0,1,1,0,1.573H25.592a.786.786,0,0,1-.786-.786Zm0,4.718a.786.786,0,0,1,.786-.786H41.32a.786.786,0,0,1,0,1.573H25.592a.786.786,0,0,1-.786-.786Z"/>
    </g>
  </g>
</svg>
