<svg xmlns="http://www.w3.org/2000/svg" xmlns:xlink="http://www.w3.org/1999/xlink" width="102.949" height="102.949" viewBox="0 0 102.949 102.949">
  <defs>
    <filter id="Trazado_874925" x="0" y="0" width="102.949" height="102.949" filterUnits="userSpaceOnUse">
      <feOffset dy="3" input="SourceAlpha"/>
      <feGaussianBlur stdDeviation="3" result="blur"/>
      <feFlood flood-opacity="0.161"/>
      <feComposite operator="in" in2="blur"/>
      <feComposite in="SourceGraphic"/>
    </filter>
  </defs>
  <g id="Grupo_1182284" data-name="Grupo 1182284" transform="translate(-1221.051 -2527)">
    <g id="Grupo_1181962" data-name="Grupo 1181962" transform="translate(421.551 15.843)">
      <g id="Grupo_1111316" data-name="Grupo 1111316" transform="translate(808.5 2517.157)">
        <g id="Grupo_1109835" data-name="Grupo 1109835" transform="translate(0 0)">
          <g id="Grupo_1107913" data-name="Grupo 1107913" transform="translate(0 0)">
            <g transform="matrix(1, 0, 0, 1, -9, -6)" filter="url(#Trazado_874925)">
              <g id="Trazado_874925-2" data-name="Trazado 874925" transform="translate(9 6)" fill="#9ad354" opacity="0.859">
                <path d="M 42.47446823120117 83.44929504394531 C 36.94229125976562 83.44929504394531 31.57638549804688 82.36614227294922 26.52582168579102 80.22994232177734 C 21.64678573608398 78.16628265380859 17.26464462280273 75.211669921875 13.50113868713379 71.44816589355469 C 9.737632751464844 67.68466949462891 6.78300952911377 63.30253982543945 4.719362258911133 58.42351913452148 C 2.583150625228882 53.37295150756836 1.499997615814209 48.00706100463867 1.499997615814209 42.47489547729492 C 1.499997615814209 36.94223403930664 2.583150625228882 31.57634162902832 4.719362258911133 26.52577781677246 C 6.78300952911377 21.64675331115723 9.737632751464844 17.26462364196777 13.50113868713379 13.50113010406494 C 17.26464462280273 9.737624168395996 21.64678573608398 6.783012390136719 26.52582168579102 4.719353199005127 C 31.57638549804688 2.583153486251831 36.94229125976562 1.500000476837158 42.47446823120117 1.500000476837158 C 48.00664520263672 1.500000476837158 53.37255096435547 2.583153486251831 58.42311477661133 4.719353199005127 C 63.30215072631836 6.783012390136719 67.68428802490234 9.737624168395996 71.44779968261719 13.50113010406494 C 75.2113037109375 17.26462364196777 78.16592407226562 21.64675331115723 80.22957611083984 26.52577781677246 C 82.36578369140625 31.57634162902832 83.44893646240234 36.94223403930664 83.44893646240234 42.47439956665039 C 83.44893646240234 48.00706100463867 82.36578369140625 53.37295150756836 80.22957611083984 58.42351913452148 C 78.16592407226562 63.30253982543945 75.2113037109375 67.68466949462891 71.44779968261719 71.44816589355469 C 67.68428802490234 75.211669921875 63.30215072631836 78.16628265380859 58.42311477661133 80.22994232177734 C 53.37255096435547 82.36614227294922 48.00664520263672 83.44929504394531 42.47446823120117 83.44929504394531 Z" stroke="none"/>
                <path d="M 42.47446823120117 2.999992370605469 C 37.14412307739258 2.999992370605469 31.97481536865234 4.04327392578125 27.11014938354492 6.100860595703125 C 22.40990829467773 8.088890075683594 18.18804168701172 10.93555450439453 14.56179809570312 14.56178283691406 C 10.93557739257812 18.18801116943359 8.088897705078125 22.40987396240234 6.100868225097656 27.11009979248047 C 4.043281555175781 31.97476577758789 3 37.14406204223633 3 42.47488784790039 C 3 47.80522155761719 4.043281555175781 52.97451400756836 6.100868225097656 57.83917999267578 C 8.088897705078125 62.53940582275391 10.93557739257812 66.76127624511719 14.56179809570312 70.38749694824219 C 18.18804168701172 74.01372528076172 22.40990829467773 76.86039733886719 27.11014938354492 78.84841918945312 C 31.97481536865234 80.906005859375 37.14412307739258 81.94928741455078 42.47446823120117 81.94928741455078 C 47.80481338500977 81.94928741455078 52.97412109375 80.906005859375 57.83879089355469 78.84841918945312 C 62.53902816772461 76.86039733886719 66.76089477539062 74.01372528076172 70.38713073730469 70.38749694824219 C 74.01335906982422 66.76127624511719 76.86003875732422 62.53940582275391 78.84806823730469 57.83917999267578 C 80.90565490722656 52.97451400756836 81.94893646240234 47.80522155761719 81.94893646240234 42.47439575195312 C 81.94893646240234 37.14406204223633 80.90565490722656 31.97476577758789 78.84806823730469 27.11009979248047 C 76.86003875732422 22.40987396240234 74.01335906982422 18.18801116943359 70.38713073730469 14.56178283691406 C 66.76089477539062 10.93555450439453 62.53902816772461 8.088890075683594 57.83879089355469 6.100860595703125 C 52.97412109375 4.04327392578125 47.80481338500977 2.999992370605469 42.47446823120117 2.999992370605469 M 42.47446823120117 -7.62939453125e-06 C 65.93246459960938 -7.62939453125e-06 84.94893646240234 19.01643371582031 84.94893646240234 42.47439575195312 L 84.94893646240234 42.47488784790039 C 84.94893646240234 65.93284606933594 65.93246459960938 84.94928741455078 42.47446823120117 84.94928741455078 C 19.01647186279297 84.94928741455078 0 65.93284606933594 0 42.47488784790039 L 0 42.47439575195312 C 0 19.01643371582031 19.01647186279297 -7.62939453125e-06 42.47446823120117 -7.62939453125e-06 Z" stroke="none" fill="#fff"/>
              </g>
            </g>
            <g id="Trazado_874923" data-name="Trazado 874923" transform="translate(0 0)" fill="none">
              <path d="M42.474,0A42.474,42.474,0,0,1,84.949,42.474h0A42.474,42.474,0,0,1,0,42.475H0A42.474,42.474,0,0,1,42.474,0Z" stroke="none"/>
              <path d="M 42.47446823120117 2.999992370605469 C 37.14412307739258 2.999992370605469 31.97481536865234 4.04327392578125 27.11014938354492 6.100860595703125 C 22.40990829467773 8.088890075683594 18.18804168701172 10.93555450439453 14.56179809570312 14.56178283691406 C 10.93557739257812 18.18801116943359 8.088897705078125 22.40987396240234 6.100868225097656 27.11009979248047 C 4.043281555175781 31.97476577758789 3 37.14406204223633 3 42.47488784790039 C 3 47.80522155761719 4.043281555175781 52.97451400756836 6.100868225097656 57.83917999267578 C 8.088897705078125 62.53940582275391 10.93557739257812 66.76127624511719 14.56179809570312 70.38749694824219 C 18.18804168701172 74.01372528076172 22.40990829467773 76.86039733886719 27.11014938354492 78.84841918945312 C 31.97481536865234 80.906005859375 37.14412307739258 81.94928741455078 42.47446823120117 81.94928741455078 C 47.80481338500977 81.94928741455078 52.97412109375 80.906005859375 57.83879089355469 78.84841918945312 C 62.53902816772461 76.86039733886719 66.76089477539062 74.01372528076172 70.38713073730469 70.38749694824219 C 74.01335906982422 66.76127624511719 76.86003875732422 62.53940582275391 78.84806823730469 57.83917999267578 C 80.90565490722656 52.97451400756836 81.94893646240234 47.80522155761719 81.94893646240234 42.47439575195312 C 81.94893646240234 37.14406204223633 80.90565490722656 31.97476577758789 78.84806823730469 27.11009979248047 C 76.86003875732422 22.40987396240234 74.01335906982422 18.18801116943359 70.38713073730469 14.56178283691406 C 66.76089477539062 10.93555450439453 62.53902816772461 8.088890075683594 57.83879089355469 6.100860595703125 C 52.97412109375 4.04327392578125 47.80481338500977 2.999992370605469 42.47446823120117 2.999992370605469 M 42.47446823120117 -7.62939453125e-06 C 65.93246459960938 -7.62939453125e-06 84.94893646240234 19.01643371582031 84.94893646240234 42.47439575195312 L 84.94893646240234 42.47488784790039 C 84.94893646240234 65.93284606933594 65.93246459960938 84.94928741455078 42.47446823120117 84.94928741455078 C 19.01647186279297 84.94928741455078 0 65.93284606933594 0 42.47488784790039 L 0 42.47439575195312 C 0 19.01643371582031 19.01647186279297 -7.62939453125e-06 42.47446823120117 -7.62939453125e-06 Z" stroke="none" fill="#fff"/>
            </g>
          </g>
        </g>
      </g>
    </g>
    <g id="Layer_1" transform="translate(1242.791 2548.51)">
      <g id="Grupo_1182283" data-name="Grupo 1182283" transform="translate(5.26 3.49)">
        <path id="Trazado_910732" data-name="Trazado 910732" d="M32.5,25.68A3.018,3.018,0,0,0,35.517,28.7h.972v6.032H30.457V35.7a3.018,3.018,0,0,1-6.036,0v-.972H18.39v-5.3h7.959a2.058,2.058,0,0,0,2.056-2.056V23.99a2.053,2.053,0,0,0-2.056-2.056H22.676l.381-.814a1.164,1.164,0,1,0-2.11-.984l-.839,1.8H18.39v-5.3h18.1v6.034h-.972A3.015,3.015,0,0,0,32.5,25.68Z" transform="translate(-15.862 -14.1)" fill="#f2bf22"/>
        <path id="Trazado_910733" data-name="Trazado 910733" d="M19.822,35.872v3.381a2.058,2.058,0,0,1-2.056,2.056H7.76V33.816h3.764l.839-1.8a1.164,1.164,0,1,1,2.11.984l-.381.814h3.673A2.053,2.053,0,0,1,19.822,35.872Z" transform="translate(-7.279 -25.982)" fill="#ffb69f"/>
        <path id="Trazado_910734" data-name="Trazado 910734" d="M33.49,93.559a1.574,1.574,0,0,1-1.573-1.572V89.572H28.75a.481.481,0,0,1,0-.963H32.4a.481.481,0,0,1,.481.481v2.9a.611.611,0,0,0,1.222,0v-2.9a.481.481,0,0,1,.481-.481h5.551V86.816a.481.481,0,0,1,.963,0v2.275a.481.481,0,0,1-.481.481H35.064v2.416a1.574,1.574,0,0,1-1.573,1.572Zm-6.665-3.987h-.46a.481.481,0,0,1,0-.963h.46a.481.481,0,0,1,0,.963Z" transform="translate(-21.913 -70.386)" fill="#f8e5b0"/>
        <path id="Trazado_910735" data-name="Trazado 910735" d="M29.837,29.866v3.381a3.493,3.493,0,0,1-3.488,3.49H18.39V35.3h7.959A2.058,2.058,0,0,0,28.4,33.246V29.866a2.053,2.053,0,0,0-2.056-2.056H22.676L23.057,27a1.164,1.164,0,1,0-2.11-.984l-.839,1.8H18.39V26.377h.8l.454-.972a2.6,2.6,0,0,1,4.946.972h1.754A3.493,3.493,0,0,1,29.837,29.866Z" transform="translate(-15.862 -19.976)" fill="#e8a61e"/>
        <path id="Trazado_910736" data-name="Trazado 910736" d="M145.628,16.62v18.1h-6.034v-.972a3.018,3.018,0,0,0-6.036,0v.972h-6.032V28.687h-.972a3.018,3.018,0,0,1,0-6.036h.972V16.62h5.3v7.959a2.056,2.056,0,0,0,2.056,2.056h3.381a2.054,2.054,0,0,0,2.056-2.056V20.906l.814.381a1.164,1.164,0,1,0,.984-2.11l-1.8-.839V16.62Z" transform="translate(-100.769 -14.092)" fill="#fc5d3d"/>
        <path id="Trazado_910737" data-name="Trazado 910737" d="M181.655,12.139a1.166,1.166,0,0,1-1.548.564l-.814-.381V16a2.054,2.054,0,0,1-2.056,2.056h-3.381A2.056,2.056,0,0,1,171.8,16V5.99h7.493V9.754l1.8.839a1.164,1.164,0,0,1,.564,1.546Z" transform="translate(-139.737 -5.509)" fill="#ffb69f"/>
        <path id="Trazado_910738" data-name="Trazado 910738" d="M137.779,39.326H135.5a.481.481,0,0,1-.481-.481V33.294h-2.416a1.573,1.573,0,0,1,0-3.147h2.416V26.98a.481.481,0,0,1,.963,0v3.648a.481.481,0,0,1-.481.481h-2.9a.611.611,0,0,0,0,1.222h2.9a.481.481,0,0,1,.481.481v5.551h1.793a.481.481,0,0,1,0,.963ZM135.5,25.536a.481.481,0,0,1-.481-.481V24.6a.481.481,0,0,1,.963,0v.46A.481.481,0,0,1,135.5,25.536Z" transform="translate(-106.821 -20.143)" fill="#ffcbc3"/>
        <path id="Trazado_910739" data-name="Trazado 910739" d="M174.71,22.825v1.754a3.493,3.493,0,0,1-3.488,3.488H167.84a3.493,3.493,0,0,1-3.49-3.488V16.62h1.434v7.959a2.056,2.056,0,0,0,2.056,2.056h3.381a2.054,2.054,0,0,0,2.056-2.056V20.906l.814.381a1.164,1.164,0,1,0,.984-2.11l-1.8-.839V16.62h1.432v.8l.972.454A2.6,2.6,0,0,1,174.71,22.825Z" transform="translate(-133.722 -14.092)" fill="#b34f33"/>
        <path id="Trazado_910740" data-name="Trazado 910740" d="M162.359,127.677v5.3H154.4a2.058,2.058,0,0,0-2.056,2.056v3.381a2.056,2.056,0,0,0,2.056,2.056h3.673l-.381.814a1.164,1.164,0,1,0,2.11.984l.839-1.8h1.717v5.3h-18.1v-6.034h.972a3.018,3.018,0,0,0,0-6.036h-.972v-6.032h6.032V126.7a3.018,3.018,0,0,1,6.036,0v.972Z" transform="translate(-117.499 -100.549)" fill="#72c2e9"/>
        <path id="Trazado_910741" data-name="Trazado 910741" d="M198.312,171.95v7.493h-3.764l-.839,1.8a1.164,1.164,0,1,1-2.11-.984l.381-.814h-3.673a2.056,2.056,0,0,1-2.056-2.056v-3.381a2.058,2.058,0,0,1,2.056-2.056Z" transform="translate(-151.405 -139.518)" fill="#ffb69f"/>
        <path id="Trazado_910742" data-name="Trazado 910742" d="M152.241,138.415a.481.481,0,0,1-.481-.481v-2.275a.481.481,0,0,1,.481-.481h5.551v-2.416a1.573,1.573,0,0,1,3.147,0v2.416h3.167a.481.481,0,1,1,0,.963h-3.648a.481.481,0,0,1-.481-.481v-2.9a.611.611,0,0,0-1.222,0v2.9a.481.481,0,0,1-.481.481h-5.551v1.793A.481.481,0,0,1,152.241,138.415Zm14.249-2.275h-.46a.481.481,0,0,1,0-.963h.46a.481.481,0,1,1,0,.963Z" transform="translate(-123.556 -106.606)" fill="#c5e5fe"/>
        <path id="Trazado_910743" data-name="Trazado 910743" d="M180.242,167.99v3.381a2.056,2.056,0,0,0,2.056,2.056h3.673l-.381.814a1.164,1.164,0,1,0,2.11.984l.839-1.8h1.717v1.432h-.8l-.454.972a2.6,2.6,0,0,1-4.946-.972H182.3a3.493,3.493,0,0,1-3.488-3.488V167.99a3.493,3.493,0,0,1,3.488-3.49h7.959v1.434H182.3A2.058,2.058,0,0,0,180.242,167.99Z" transform="translate(-145.398 -133.502)" fill="#48a6c8"/>
        <path id="Trazado_910744" data-name="Trazado 910744" d="M40.468,153.43a3.016,3.016,0,0,1-3.015,3.017h-.972v6.032h-5.3V154.52a2.058,2.058,0,0,0-2.056-2.056H25.74a2.057,2.057,0,0,0-2.056,2.056v3.673l-.814-.381a1.164,1.164,0,1,0-.984,2.11l1.8.839v1.717h-5.3v-18.1h6.034v.972a3.018,3.018,0,0,0,6.036,0v-.972h6.032v6.032h.972A3.017,3.017,0,0,1,40.468,153.43Z" transform="translate(-15.854 -117.256)" fill="#13bf6d"/>
        <path id="Trazado_910745" data-name="Trazado 910745" d="M43.059,188.426v10.005H35.566v-3.764l-1.8-.839a1.164,1.164,0,1,1,.984-2.11l.814.381v-3.673a2.057,2.057,0,0,1,2.056-2.056H41a2.058,2.058,0,0,1,2.056,2.056Z" transform="translate(-27.736 -151.162)" fill="#ffb69f"/>
        <path id="Trazado_910746" data-name="Trazado 910746" d="M90.844,167.1a.481.481,0,0,1-.481-.481v-.46a.481.481,0,1,1,.963,0v.46A.481.481,0,0,1,90.844,167.1Zm0-2.385a.481.481,0,0,1-.481-.481v-3.648a.481.481,0,0,1,.481-.481h2.9a.611.611,0,0,0,0-1.222h-2.9a.481.481,0,0,1-.481-.481v-5.551H88.569a.481.481,0,1,1,0-.963h2.275a.481.481,0,0,1,.481.481v5.551h2.416a1.573,1.573,0,0,1,0,3.147H91.325v3.167A.481.481,0,0,1,90.844,164.711Z" transform="translate(-72.142 -123.315)" fill="#76ffbb"/>
        <path id="Trazado_910747" data-name="Trazado 910747" d="M38.487,182.419v7.959H37.053v-7.959A2.058,2.058,0,0,0,35,180.362H31.616a2.057,2.057,0,0,0-2.056,2.056v3.673l-.814-.381a1.164,1.164,0,1,0-.984,2.11l1.8.839v1.717H28.127v-.8l-.972-.454a2.6,2.6,0,0,1,.972-4.946v-1.754a3.493,3.493,0,0,1,3.488-3.488H35a3.493,3.493,0,0,1,3.49,3.488Z" transform="translate(-21.73 -145.154)" fill="#139d6d"/>
        <circle id="Elipse_11689" data-name="Elipse 11689" cx="0.481" cy="0.481" r="0.481" transform="translate(6.873 14.845)"/>
        <path id="Trazado_910748" data-name="Trazado 910748" d="M10.689,27.89a.481.481,0,0,0,0-.963H5.741a.481.481,0,1,0,0,.963H7.307v4.823a.481.481,0,0,0,.481.481h5.55v.491a3.5,3.5,0,0,0,7,0v-.491h5.55a.481.481,0,0,0,.481-.481V26.681a.481.481,0,0,0-.481-.481h-.972a2.536,2.536,0,0,1,0-5.073h.972a.481.481,0,0,0,.481-.481V14.611a.481.481,0,0,0-.481-.481H7.788a.481.481,0,0,0-.481.481v4.823H5.741a.481.481,0,1,0,0,.963H9.505a.486.486,0,0,0,.437-.277l.839-1.8a.683.683,0,0,1,1.238.576l-.381.814a.481.481,0,0,0,.435.685h3.673a1.575,1.575,0,0,1,1.575,1.586H13.654a.481.481,0,1,0,0,.963h3.668V24.38H13.654a.481.481,0,1,0,0,.963h3.668a1.574,1.574,0,0,1-1.575,1.584H14.54a.481.481,0,0,0,0,.963h1.207a2.543,2.543,0,0,0,2.537-2.526V21.971a2.538,2.538,0,0,0-2.537-2.537H12.83l.06-.129a1.646,1.646,0,1,0-2.982-1.392L9.2,19.434h-.93V15.093H25.405v5.071h-.491a3.5,3.5,0,0,0,0,7h.491v5.069h-5.55a.481.481,0,0,0-.481.481v.972a2.536,2.536,0,0,1-5.073,0v-.972a.481.481,0,0,0-.481-.481H8.269V27.89Z" transform="translate(-5.26 -12.082)"/>
        <circle id="Elipse_11690" data-name="Elipse 11690" cx="0.481" cy="0.481" r="0.481" transform="translate(31.581 6.871)"/>
        <path id="Trazado_910749" data-name="Trazado 910749" d="M125.024,18.566v5.55a.481.481,0,0,0,.481.481h6.032a.481.481,0,0,0,.481-.481v-.972a2.536,2.536,0,0,1,5.073,0v.972a.481.481,0,0,0,.481.481h6.034a.481.481,0,0,0,.481-.481V6.018a.481.481,0,0,0-.481-.481h-4.822V3.971a.481.481,0,1,0-.963,0V7.735a.477.477,0,0,0,.277.435l1.8.841a.683.683,0,1,1-.576,1.238l-.814-.381a.481.481,0,0,0-.685.435v3.673a1.574,1.574,0,0,1-1.586,1.575V11.884a.481.481,0,1,0-.963,0v3.668h-1.435V11.884a.481.481,0,0,0-.963,0v3.668a1.575,1.575,0,0,1-1.584-1.575V12.768a.481.481,0,1,0-.963,0v1.209a2.539,2.539,0,0,0,2.51,2.537h3.408a2.54,2.54,0,0,0,2.537-2.537V11.06l.129.06a1.644,1.644,0,1,0,1.39-2.98l-1.519-.71V6.5h4.341V23.635h-5.071v-.491a3.5,3.5,0,0,0-7,0v.491h-5.069v-5.55a.481.481,0,0,0-.481-.481h-.972a2.536,2.536,0,0,1,0-5.073h.972a.481.481,0,0,0,.481-.481V6.5h4.342V8.917a.481.481,0,0,0,.963,0V3.971a.481.481,0,0,0-.963,0V5.537h-4.823a.481.481,0,0,0-.481.481v5.55h-.491a3.5,3.5,0,0,0,0,7Z" transform="translate(-98.747 -3.49)"/>
        <path id="Trazado_910750" data-name="Trazado 910750" d="M157.439,130.484a.481.481,0,0,0,0,.963h4.948a.481.481,0,0,0,0-.963h-1.565v-4.822a.481.481,0,0,0-.481-.481h-5.55v-.491a3.5,3.5,0,0,0-7,0v.491h-5.55a.481.481,0,0,0-.481.481v6.032a.481.481,0,0,0,.481.481h.972a2.536,2.536,0,0,1,0,5.073h-.972a.481.481,0,0,0-.481.481v6.034a.481.481,0,0,0,.481.481h18.1a.481.481,0,0,0,.481-.481v-4.823h1.565a.481.481,0,0,0,0-.963h-3.764a.484.484,0,0,0-.437.279l-.839,1.8a.682.682,0,1,1-1.238-.574l.381-.816a.482.482,0,0,0-.435-.685h-3.673a1.573,1.573,0,0,1-1.575-1.585h3.668a.481.481,0,0,0,0-.963h-3.668v-1.435h3.668a.481.481,0,0,0,0-.963h-3.668v-.01a1.574,1.574,0,0,1,1.575-1.575h1.209a.481.481,0,0,0,0-.963h-1.209A2.548,2.548,0,0,0,149.844,133v3.4a2.539,2.539,0,0,0,2.537,2.537H155.3l-.06.129a1.645,1.645,0,1,0,2.98,1.392l.71-1.521h.93v4.342H142.723V138.21h.491a3.5,3.5,0,0,0,0-7h-.491v-5.069h5.55a.481.481,0,0,0,.481-.481v-.972a2.536,2.536,0,0,1,5.073,0v.972a.481.481,0,0,0,.481.481h5.55v4.341Z" transform="translate(-115.481 -98.533)"/>
        <path id="Trazado_910751" data-name="Trazado 910751" d="M210.7,169.931a.482.482,0,1,0,.483-.481A.483.483,0,0,0,210.7,169.931Z" transform="translate(-171.148 -137.499)"/>
        <circle id="Elipse_11691" data-name="Elipse 11691" cx="0.481" cy="0.481" r="0.481" transform="translate(14.842 39.917)"/>
        <path id="Trazado_910752" data-name="Trazado 910752" d="M28.679,162.51a.481.481,0,0,0,.963,0v-1.564h4.823a.481.481,0,0,0,.481-.481v-5.55h.491a3.5,3.5,0,0,0,0-7h-.491v-5.55a.481.481,0,0,0-.481-.481H28.433a.481.481,0,0,0-.481.481v.972a2.536,2.536,0,0,1-5.073,0v-.972a.481.481,0,0,0-.481-.481H16.363a.481.481,0,0,0-.481.481v18.1a.481.481,0,0,0,.481.481h4.822v1.564a.481.481,0,0,0,.963,0v-3.764a.482.482,0,0,0-.277-.435l-1.8-.839a.683.683,0,0,1,.574-1.24l.816.383a.483.483,0,0,0,.685-.437V152.5a1.575,1.575,0,0,1,1.586-1.575V154.6a.481.481,0,0,0,.963,0V150.93h1.435V154.6a.481.481,0,0,0,.963,0V150.93a1.576,1.576,0,0,1,1.584,1.575v1.209a.481.481,0,1,0,.963,0V152.5a2.541,2.541,0,0,0-2.514-2.537h-3.4a2.538,2.538,0,0,0-2.537,2.537v2.917l-.129-.06a1.646,1.646,0,0,0-1.392,2.982l1.521.708v.93H16.845V142.846h5.071v.491a3.5,3.5,0,0,0,7,0v-.491h5.069v5.55a.481.481,0,0,0,.481.481h.972a2.536,2.536,0,0,1,0,5.073h-.972a.481.481,0,0,0-.481.481v5.55H29.641v-2.419a.481.481,0,1,0-.963,0Z" transform="translate(-13.837 -115.24)"/>
      </g>
    </g>
  </g>
</svg>
