<svg xmlns="http://www.w3.org/2000/svg" xmlns:xlink="http://www.w3.org/1999/xlink" width="102.949" height="102.949" viewBox="0 0 102.949 102.949">
  <defs>
    <filter id="Trazado_874925" x="0" y="0" width="102.949" height="102.949" filterUnits="userSpaceOnUse">
      <feOffset dy="3" input="SourceAlpha"/>
      <feGaussianBlur stdDeviation="3" result="blur"/>
      <feFlood flood-opacity="0.161"/>
      <feComposite operator="in" in2="blur"/>
      <feComposite in="SourceGraphic"/>
    </filter>
  </defs>
  <g id="Grupo_1182275" data-name="Grupo 1182275" transform="translate(-433.051 -2041)">
    <g id="Grupo_1181885" data-name="Grupo 1181885" transform="translate(-366.449 -470.157)">
      <g id="Grupo_1111316" data-name="Grupo 1111316" transform="translate(808.5 2517.157)">
        <g id="Grupo_1109835" data-name="Grupo 1109835" transform="translate(0 0)">
          <g id="Grupo_1107913" data-name="Grupo 1107913" transform="translate(0 0)">
            <g transform="matrix(1, 0, 0, 1, -9, -6)" filter="url(#Trazado_874925)">
              <g id="Trazado_874925-2" data-name="Trazado 874925" transform="translate(9 6)" fill="#9ad354" opacity="0.859">
                <path d="M 42.47446823120117 83.44929504394531 C 36.94229125976562 83.44929504394531 31.57638549804688 82.36614227294922 26.52582168579102 80.22994232177734 C 21.64678573608398 78.16628265380859 17.26464462280273 75.211669921875 13.50113868713379 71.44816589355469 C 9.737632751464844 67.68466949462891 6.78300952911377 63.30253982543945 4.719362258911133 58.42351913452148 C 2.583150625228882 53.37295150756836 1.499997615814209 48.00706100463867 1.499997615814209 42.47489547729492 C 1.499997615814209 36.94223403930664 2.583150625228882 31.57634162902832 4.719362258911133 26.52577781677246 C 6.78300952911377 21.64675331115723 9.737632751464844 17.26462364196777 13.50113868713379 13.50113010406494 C 17.26464462280273 9.737624168395996 21.64678573608398 6.783012390136719 26.52582168579102 4.719353199005127 C 31.57638549804688 2.583153486251831 36.94229125976562 1.500000476837158 42.47446823120117 1.500000476837158 C 48.00664520263672 1.500000476837158 53.37255096435547 2.583153486251831 58.42311477661133 4.719353199005127 C 63.30215072631836 6.783012390136719 67.68428802490234 9.737624168395996 71.44779968261719 13.50113010406494 C 75.2113037109375 17.26462364196777 78.16592407226562 21.64675331115723 80.22957611083984 26.52577781677246 C 82.36578369140625 31.57634162902832 83.44893646240234 36.94223403930664 83.44893646240234 42.47439956665039 C 83.44893646240234 48.00706100463867 82.36578369140625 53.37295150756836 80.22957611083984 58.42351913452148 C 78.16592407226562 63.30253982543945 75.2113037109375 67.68466949462891 71.44779968261719 71.44816589355469 C 67.68428802490234 75.211669921875 63.30215072631836 78.16628265380859 58.42311477661133 80.22994232177734 C 53.37255096435547 82.36614227294922 48.00664520263672 83.44929504394531 42.47446823120117 83.44929504394531 Z" stroke="none"/>
                <path d="M 42.47446823120117 2.999992370605469 C 37.14412307739258 2.999992370605469 31.97481536865234 4.04327392578125 27.11014938354492 6.100860595703125 C 22.40990829467773 8.088890075683594 18.18804168701172 10.93555450439453 14.56179809570312 14.56178283691406 C 10.93557739257812 18.18801116943359 8.088897705078125 22.40987396240234 6.100868225097656 27.11009979248047 C 4.043281555175781 31.97476577758789 3 37.14406204223633 3 42.47488784790039 C 3 47.80522155761719 4.043281555175781 52.97451400756836 6.100868225097656 57.83917999267578 C 8.088897705078125 62.53940582275391 10.93557739257812 66.76127624511719 14.56179809570312 70.38749694824219 C 18.18804168701172 74.01372528076172 22.40990829467773 76.86039733886719 27.11014938354492 78.84841918945312 C 31.97481536865234 80.906005859375 37.14412307739258 81.94928741455078 42.47446823120117 81.94928741455078 C 47.80481338500977 81.94928741455078 52.97412109375 80.906005859375 57.83879089355469 78.84841918945312 C 62.53902816772461 76.86039733886719 66.76089477539062 74.01372528076172 70.38713073730469 70.38749694824219 C 74.01335906982422 66.76127624511719 76.86003875732422 62.53940582275391 78.84806823730469 57.83917999267578 C 80.90565490722656 52.97451400756836 81.94893646240234 47.80522155761719 81.94893646240234 42.47439575195312 C 81.94893646240234 37.14406204223633 80.90565490722656 31.97476577758789 78.84806823730469 27.11009979248047 C 76.86003875732422 22.40987396240234 74.01335906982422 18.18801116943359 70.38713073730469 14.56178283691406 C 66.76089477539062 10.93555450439453 62.53902816772461 8.088890075683594 57.83879089355469 6.100860595703125 C 52.97412109375 4.04327392578125 47.80481338500977 2.999992370605469 42.47446823120117 2.999992370605469 M 42.47446823120117 -7.62939453125e-06 C 65.93246459960938 -7.62939453125e-06 84.94893646240234 19.01643371582031 84.94893646240234 42.47439575195312 L 84.94893646240234 42.47488784790039 C 84.94893646240234 65.93284606933594 65.93246459960938 84.94928741455078 42.47446823120117 84.94928741455078 C 19.01647186279297 84.94928741455078 0 65.93284606933594 0 42.47488784790039 L 0 42.47439575195312 C 0 19.01643371582031 19.01647186279297 -7.62939453125e-06 42.47446823120117 -7.62939453125e-06 Z" stroke="none" fill="#fff"/>
              </g>
            </g>
            <g id="Trazado_874923" data-name="Trazado 874923" transform="translate(0 0)" fill="none">
              <path d="M42.474,0A42.474,42.474,0,0,1,84.949,42.474h0A42.474,42.474,0,0,1,0,42.475H0A42.474,42.474,0,0,1,42.474,0Z" stroke="none"/>
              <path d="M 42.47446823120117 2.999992370605469 C 37.14412307739258 2.999992370605469 31.97481536865234 4.04327392578125 27.11014938354492 6.100860595703125 C 22.40990829467773 8.088890075683594 18.18804168701172 10.93555450439453 14.56179809570312 14.56178283691406 C 10.93557739257812 18.18801116943359 8.088897705078125 22.40987396240234 6.100868225097656 27.11009979248047 C 4.043281555175781 31.97476577758789 3 37.14406204223633 3 42.47488784790039 C 3 47.80522155761719 4.043281555175781 52.97451400756836 6.100868225097656 57.83917999267578 C 8.088897705078125 62.53940582275391 10.93557739257812 66.76127624511719 14.56179809570312 70.38749694824219 C 18.18804168701172 74.01372528076172 22.40990829467773 76.86039733886719 27.11014938354492 78.84841918945312 C 31.97481536865234 80.906005859375 37.14412307739258 81.94928741455078 42.47446823120117 81.94928741455078 C 47.80481338500977 81.94928741455078 52.97412109375 80.906005859375 57.83879089355469 78.84841918945312 C 62.53902816772461 76.86039733886719 66.76089477539062 74.01372528076172 70.38713073730469 70.38749694824219 C 74.01335906982422 66.76127624511719 76.86003875732422 62.53940582275391 78.84806823730469 57.83917999267578 C 80.90565490722656 52.97451400756836 81.94893646240234 47.80522155761719 81.94893646240234 42.47439575195312 C 81.94893646240234 37.14406204223633 80.90565490722656 31.97476577758789 78.84806823730469 27.11009979248047 C 76.86003875732422 22.40987396240234 74.01335906982422 18.18801116943359 70.38713073730469 14.56178283691406 C 66.76089477539062 10.93555450439453 62.53902816772461 8.088890075683594 57.83879089355469 6.100860595703125 C 52.97412109375 4.04327392578125 47.80481338500977 2.999992370605469 42.47446823120117 2.999992370605469 M 42.47446823120117 -7.62939453125e-06 C 65.93246459960938 -7.62939453125e-06 84.94893646240234 19.01643371582031 84.94893646240234 42.47439575195312 L 84.94893646240234 42.47488784790039 C 84.94893646240234 65.93284606933594 65.93246459960938 84.94928741455078 42.47446823120117 84.94928741455078 C 19.01647186279297 84.94928741455078 0 65.93284606933594 0 42.47488784790039 L 0 42.47439575195312 C 0 19.01643371582031 19.01647186279297 -7.62939453125e-06 42.47446823120117 -7.62939453125e-06 Z" stroke="none" fill="#fff"/>
            </g>
          </g>
        </g>
      </g>
    </g>
    <g id="insatisfecho" transform="translate(458.051 2063)">
      <g id="Grupo_1182272" data-name="Grupo 1182272" transform="translate(0.79 0.791)">
        <path id="Trazado_910667" data-name="Trazado 910667" d="M64.632,214.7v14.277a6.443,6.443,0,0,0,6.441,6.444H80a6.443,6.443,0,0,0,6.441-6.444V214.7Z" transform="translate(-58.613 -192.868)" fill="#838383"/>
        <path id="Trazado_910668" data-name="Trazado 910668" d="M29.062,329.264v4.13l9.382,3.211a4.345,4.345,0,0,1,2.936,4.024l0,5.38H7.5v-5.291A4.348,4.348,0,0,1,10.44,336.6l9.382-3.211v-4.13l4.6-1.919Z" transform="translate(-7.502 -293.649)" fill="#ff8076"/>
        <path id="Trazado_910669" data-name="Trazado 910669" d="M124.442,327.743l4.62,4.223,4.62-4.223v-6.714h-9.24Z" transform="translate(-112.122 -287.998)" fill="#fed9b6"/>
        <path id="Trazado_910670" data-name="Trazado 910670" d="M90.636,385.976l8.181,7.915L107,385.976l-3.562-1.219-4.62,4.223-4.62-4.223Z" transform="translate(-81.877 -345.012)" fill="#f5f8f9"/>
        <path id="Trazado_910671" data-name="Trazado 910671" d="M154.941,329.264l-4.637-1.919-2.1.875,2.522,1.044v3.6a.738.738,0,0,0,.5.7l2.567.879,1.148-1.049v-4.13Z" transform="translate(-133.381 -293.649)" fill="#febb9c"/>
        <path id="Trazado_910672" data-name="Trazado 910672" d="M245.354,402.341a4.345,4.345,0,0,0-2.936-4.024l-5.82-1.992h0l-1.1,1.065,2.707.926a4.345,4.345,0,0,1,2.936,4.024l0,5.38h4.214Z" transform="translate(-211.477 -355.361)" fill="#f66"/>
        <path id="Trazado_910673" data-name="Trazado 910673" d="M205.956,385.976l-3.562-1.219-1.148,1.049,3.608,1.235Z" transform="translate(-180.835 -345.012)" fill="#e8edf2"/>
        <path id="Trazado_910674" data-name="Trazado 910674" d="M216.982,125.122h1.7a4.058,4.058,0,0,1,4.057,4.059v5.86h-5.758Z" transform="translate(-194.912 -112.731)" fill="#838383"/>
        <path id="Trazado_910675" data-name="Trazado 910675" d="M294.495,7.505H273.111a1.581,1.581,0,0,0-1.58,1.581V27.2a1.581,1.581,0,0,0,1.58,1.581h4.965v6.548l6.545-6.548h9.874a1.581,1.581,0,0,0,1.58-1.581V9.086A1.58,1.58,0,0,0,294.495,7.505Z" transform="translate(-243.714 -7.505)" fill="#f5f8f9"/>
        <g id="Grupo_1182271" data-name="Grupo 1182271" transform="translate(34.362)">
          <path id="Trazado_910676" data-name="Trazado 910676" d="M333.656,212.885v3.162L340.2,209.5H337.04Z" transform="translate(-333.656 -188.218)" fill="#e8edf2"/>
          <path id="Trazado_910677" data-name="Trazado 910677" d="M462.659,7.505H459.5a1.581,1.581,0,0,1,1.58,1.581V27.2a1.581,1.581,0,0,1-1.58,1.581h3.161a1.581,1.581,0,0,0,1.58-1.581V9.086A1.581,1.581,0,0,0,462.659,7.505Z" transform="translate(-446.24 -7.505)" fill="#e8edf2"/>
        </g>
        <path id="Trazado_910678" data-name="Trazado 910678" d="M243.542,214.7h1.587a2.2,2.2,0,0,1,2.2,2.2v1.651a2.2,2.2,0,0,1-2.2,2.2h-1.587Z" transform="translate(-218.674 -192.868)" fill="#fed9b6"/>
        <path id="Trazado_910679" data-name="Trazado 910679" d="M60.874,214.7H59.288a2.2,2.2,0,0,0-2.2,2.2v1.651a2.2,2.2,0,0,0,2.2,2.2h1.587Z" transform="translate(-51.862 -192.868)" fill="#febb9c"/>
        <path id="Trazado_910680" data-name="Trazado 910680" d="M93.042,186.7a7.324,7.324,0,0,0,7.323,7.325h1.209A7.324,7.324,0,0,0,108.9,186.7v-9.624a2.242,2.242,0,0,0-2.07-2.237H93.042Z" transform="translate(-84.03 -157.206)" fill="#fed9b6"/>
        <path id="Trazado_910681" data-name="Trazado 910681" d="M160.73,174.834h-3.161a2.242,2.242,0,0,1,2.07,2.237v9.624a7.326,7.326,0,0,1-6.348,7.261,7.4,7.4,0,0,0,.976.064h1.209a7.324,7.324,0,0,0,7.323-7.325v-9.624A2.242,2.242,0,0,0,160.73,174.834Z" transform="translate(-137.932 -157.205)" fill="#febb9c"/>
        <path id="Trazado_910682" data-name="Trazado 910682" d="M79.05,121.61l-2.493,1.107a22.074,22.074,0,0,1-8.955,1.9h-2.97v-3.577a7.029,7.029,0,0,1,7.028-7.031h5.78a3.971,3.971,0,0,1,3.971,3.972h0A3.972,3.972,0,0,1,79.05,121.61Z" transform="translate(-58.613 -102.787)" fill="#acacac"/>
        <path id="Trazado_910683" data-name="Trazado 910683" d="M77.44,114.007H74.279a3.972,3.972,0,0,1,3.971,3.972h0a3.972,3.972,0,0,1-2.36,3.631L73.4,122.717a22.075,22.075,0,0,1-8.765,1.9H67.6a22.074,22.074,0,0,0,8.955-1.9l2.493-1.107a3.972,3.972,0,0,0,2.36-3.631h0A3.972,3.972,0,0,0,77.44,114.007Z" transform="translate(-58.613 -102.787)" fill="#9c9c9c"/>
        <ellipse id="Elipse_11679" data-name="Elipse 11679" cx="7.48" cy="7.483" rx="7.48" ry="7.483" transform="translate(32.75 3.299)" fill="#ff8076"/>
        <path id="Trazado_910684" data-name="Trazado 910684" d="M375.941,38.819a7.5,7.5,0,0,0-1.58.167,7.486,7.486,0,0,1,0,14.632,7.484,7.484,0,1,0,1.58-14.8Z" transform="translate(-335.711 -35.52)" fill="#f66"/>
      </g>
      <g id="Grupo_1182274" data-name="Grupo 1182274" transform="translate(0 0)">
        <path id="Trazado_910685" data-name="Trazado 910685" d="M60.282,275.152a.787.787,0,0,1-.5-.179,7.212,7.212,0,0,1-2.651-5.6v-8.729a.79.79,0,1,1,1.58,0v8.729a5.637,5.637,0,0,0,2.073,4.376.79.79,0,0,1-.5,1.4Z" transform="translate(-51.111 -232.478)"/>
        <path id="Trazado_910686" data-name="Trazado 910686" d="M242.59,275.376a.79.79,0,0,1-.5-1.4,5.637,5.637,0,0,0,2.064-4.369v-8.7a.79.79,0,1,1,1.58,0v8.7a7.212,7.212,0,0,1-2.641,5.589A.787.787,0,0,1,242.59,275.376Z" transform="translate(-216.325 -232.711)"/>
        <path id="Trazado_910687" data-name="Trazado 910687" d="M34.67,356.385H.79A.79.79,0,0,1,0,355.6V350.3a5.138,5.138,0,0,1,3.472-4.861l8.848-3.028V338.85a.79.79,0,1,1,1.58,0v4.13a.79.79,0,0,1-.534.748l-9.382,3.211a3.558,3.558,0,0,0-2.4,3.366v4.5h32.3v-1.618a.79.79,0,0,1,.79-.791h0a.79.79,0,0,1,.79.79v2.408a.79.79,0,0,1-.79.791Z" transform="translate(0 -302.444)"/>
        <path id="Trazado_910688" data-name="Trazado 910688" d="M217.711,350.531a.79.79,0,0,1-.783-.689,3.577,3.577,0,0,0-2.373-2.9l-9.381-3.21a.79.79,0,0,1-.534-.748v-4.13a.79.79,0,1,1,1.58,0v3.565l8.848,3.028a5.169,5.169,0,0,1,3.428,4.2.791.791,0,0,1-.785.891Z" transform="translate(-183.08 -302.444)"/>
        <path id="Trazado_910689" data-name="Trazado 910689" d="M94.865,188.1H93.655a8.124,8.124,0,0,1-8.113-8.116v-1.605a.79.79,0,1,1,1.58,0v1.605a6.542,6.542,0,0,0,6.533,6.535h1.209a6.542,6.542,0,0,0,6.533-6.535V170.36a1.457,1.457,0,0,0-1.34-1.449.79.79,0,1,1,.119-1.576,3.044,3.044,0,0,1,2.8,3.024v9.624A8.124,8.124,0,0,1,94.865,188.1Z" transform="translate(-76.53 -149.704)"/>
        <path id="Trazado_910690" data-name="Trazado 910690" d="M216.03,129.122a.79.79,0,0,1-.79-.79v-5.86a3.272,3.272,0,0,0-3.267-3.269h-1.7a.79.79,0,1,1,0-1.58h1.7a4.854,4.854,0,0,1,4.847,4.849v5.86A.79.79,0,0,1,216.03,129.122Z" transform="translate(-187.412 -105.23)"/>
        <path id="Trazado_910691" data-name="Trazado 910691" d="M236.832,207.2h1.587a3,3,0,0,1,2.992,2.993v1.65a3,3,0,0,1-2.992,2.993h-1.587a.79.79,0,0,1-.79-.79v-6.056A.79.79,0,0,1,236.832,207.2Zm1.587,6.056a1.414,1.414,0,0,0,1.411-1.412v-1.65a1.414,1.414,0,0,0-1.411-1.412h-.8v4.475Z" transform="translate(-211.174 -185.368)"/>
        <path id="Trazado_910692" data-name="Trazado 910692" d="M52.578,207.2h1.587a.79.79,0,0,1,.79.79v6.056a.79.79,0,0,1-.79.79H52.578a3,3,0,0,1-2.992-2.993v-1.65A3,3,0,0,1,52.578,207.2Zm.8,1.58h-.8a1.414,1.414,0,0,0-1.411,1.412v1.65a1.414,1.414,0,0,0,1.411,1.412h.8Z" transform="translate(-44.362 -185.368)"/>
        <path id="Línea_603" data-name="Línea 603" d="M-6.71-4.882a.79.79,0,0,1-.79-.79V-6.71a.79.79,0,0,1,.79-.79.79.79,0,0,1,.79.79v1.038A.79.79,0,0,1-6.71-4.882Z" transform="translate(21.028 32.331)"/>
        <path id="Línea_604" data-name="Línea 604" d="M-6.71-4.882a.79.79,0,0,1-.79-.79V-6.71a.79.79,0,0,1,.79-.79.79.79,0,0,1,.79.79v1.038A.79.79,0,0,1-6.71-4.882Z" transform="translate(27.836 32.331)"/>
        <path id="Trazado_910693" data-name="Trazado 910693" d="M146.736,289.9a.79.79,0,0,1-.79-.79,1.191,1.191,0,1,0-2.383,0,.79.79,0,0,1-1.58,0,2.772,2.772,0,1,1,5.544,0A.79.79,0,0,1,146.736,289.9Z" transform="translate(-127.024 -256.169)"/>
        <path id="Trazado_910694" data-name="Trazado 910694" d="M60.89,118.7H57.92a.79.79,0,0,1-.79-.79v-3.577a7.785,7.785,0,0,1,7.064-7.785.79.79,0,0,1,.151,1.573,6.211,6.211,0,0,0-5.635,6.212v2.787h2.18a21.156,21.156,0,0,0,8.635-1.83l2.494-1.107a3.183,3.183,0,0,0-1.29-6.091H67.713a.79.79,0,1,1,0-1.58h3.015a4.763,4.763,0,0,1,1.932,9.116l-2.494,1.107A22.727,22.727,0,0,1,60.89,118.7Z" transform="translate(-51.111 -95.286)"/>
        <path id="Trazado_910695" data-name="Trazado 910695" d="M122.352,383.06a.788.788,0,0,1-.533-.207l-4.62-4.223a.79.79,0,1,1,1.066-1.166l4.087,3.736,4.087-3.736a.79.79,0,1,1,1.066,1.166l-4.62,4.223A.788.788,0,0,1,122.352,383.06Z" transform="translate(-104.622 -337.511)"/>
        <path id="Trazado_910696" data-name="Trazado 910696" d="M92.108,398.321a.788.788,0,0,1-.549-.222l-8.181-7.915a.79.79,0,1,1,1.1-1.136l7.632,7.384,7.632-7.384a.79.79,0,1,1,1.1,1.136L92.657,398.1A.788.788,0,0,1,92.108,398.321Z" transform="translate(-74.377 -347.861)"/>
        <path id="Elipse_11680" data-name="Elipse 11680" d="M.77-7.5A8.281,8.281,0,0,1,9.04.774,8.281,8.281,0,0,1,.77,9.047,8.281,8.281,0,0,1-7.5.774,8.281,8.281,0,0,1,.77-7.5Zm0,14.967A6.7,6.7,0,0,0,7.46.774,6.7,6.7,0,0,0,.77-5.92,6.7,6.7,0,0,0-5.92.774,6.7,6.7,0,0,0,.77,7.467Z" transform="translate(40.251 10.8)"/>
        <path id="Trazado_910697" data-name="Trazado 910697" d="M369.031,124.864a.789.789,0,0,1-.662-.358,1.339,1.339,0,0,0-1.131-.567,1.4,1.4,0,0,0-1.187.575.79.79,0,0,1-1.312-.881,2.97,2.97,0,0,1,2.509-1.274,2.913,2.913,0,0,1,2.444,1.283.79.79,0,0,1-.661,1.223Z" transform="translate(-326.192 -109.468)"/>
        <g id="Grupo_1182273" data-name="Grupo 1182273" transform="translate(37.141 8.658)">
          <path id="Línea_605" data-name="Línea 605" d="M-6.71-4.884a.79.79,0,0,1-.79-.79V-6.71a.79.79,0,0,1,.79-.79.79.79,0,0,1,.79.79v1.036A.79.79,0,0,1-6.71-4.884Z" transform="translate(7.5 7.5)"/>
          <path id="Línea_606" data-name="Línea 606" d="M-6.71-4.884a.79.79,0,0,1-.79-.79V-6.71a.79.79,0,0,1,.79-.79.79.79,0,0,1,.79.79v1.036A.79.79,0,0,1-6.71-4.884Z" transform="translate(13.679 7.5)"/>
        </g>
        <path id="Trazado_910698" data-name="Trazado 910698" d="M271.366,29.409a.79.79,0,0,1-.79-.79V22.862H266.4a2.374,2.374,0,0,1-2.37-2.371V2.371A2.374,2.374,0,0,1,266.4,0h21.384a2.374,2.374,0,0,1,2.37,2.371V20.491a2.374,2.374,0,0,1-2.37,2.371h-3.433a.79.79,0,1,1,0-1.58h3.433a.791.791,0,0,0,.79-.791V2.371a.791.791,0,0,0-.79-.791H266.4a.791.791,0,0,0-.79.791V20.491a.791.791,0,0,0,.79.791h4.965a.79.79,0,0,1,.79.79v4.639l5.2-5.2a.79.79,0,0,1,.559-.232h3a.79.79,0,1,1,0,1.58h-2.669l-6.313,6.316A.79.79,0,0,1,271.366,29.409Z" transform="translate(-236.213 0)"/>
      </g>
    </g>
  </g>
</svg>
