<svg xmlns="http://www.w3.org/2000/svg" xmlns:xlink="http://www.w3.org/1999/xlink" width="102.949" height="102.949" viewBox="0 0 102.949 102.949">
  <defs>
    <filter id="Trazado_874925" x="0" y="0" width="102.949" height="102.949" filterUnits="userSpaceOnUse">
      <feOffset dy="3" input="SourceAlpha"/>
      <feGaussianBlur stdDeviation="3" result="blur"/>
      <feFlood flood-opacity="0.161"/>
      <feComposite operator="in" in2="blur"/>
      <feComposite in="SourceGraphic"/>
    </filter>
  </defs>
  <g id="Grupo_1182093" data-name="Grupo 1182093" transform="translate(-1064.052 -2818.358)">
    <g id="Grupo_1181887" data-name="Grupo 1181887" transform="translate(264.551 307.201)">
      <g id="Grupo_1111316" data-name="Grupo 1111316" transform="translate(808.5 2517.157)">
        <g id="Grupo_1109835" data-name="Grupo 1109835" transform="translate(0 0)">
          <g id="Grupo_1107913" data-name="Grupo 1107913" transform="translate(0 0)">
            <g transform="matrix(1, 0, 0, 1, -9, -6)" filter="url(#Trazado_874925)">
              <g id="Trazado_874925-2" data-name="Trazado 874925" transform="translate(9 6)" fill="#4c6929" opacity="0.859">
                <path d="M 42.47446823120117 83.44929504394531 C 36.94229125976562 83.44929504394531 31.57638549804688 82.36614227294922 26.52582168579102 80.22994232177734 C 21.64678573608398 78.16628265380859 17.26464462280273 75.211669921875 13.50113868713379 71.44816589355469 C 9.737632751464844 67.68466949462891 6.78300952911377 63.30253982543945 4.719362258911133 58.42351913452148 C 2.583150625228882 53.37295150756836 1.499997615814209 48.00706100463867 1.499997615814209 42.47489547729492 C 1.499997615814209 36.94223403930664 2.583150625228882 31.57634162902832 4.719362258911133 26.52577781677246 C 6.78300952911377 21.64675331115723 9.737632751464844 17.26462364196777 13.50113868713379 13.50113010406494 C 17.26464462280273 9.737624168395996 21.64678573608398 6.783012390136719 26.52582168579102 4.719353199005127 C 31.57638549804688 2.583153486251831 36.94229125976562 1.500000476837158 42.47446823120117 1.500000476837158 C 48.00664520263672 1.500000476837158 53.37255096435547 2.583153486251831 58.42311477661133 4.719353199005127 C 63.30215072631836 6.783012390136719 67.68428802490234 9.737624168395996 71.44779968261719 13.50113010406494 C 75.2113037109375 17.26462364196777 78.16592407226562 21.64675331115723 80.22957611083984 26.52577781677246 C 82.36578369140625 31.57634162902832 83.44893646240234 36.94223403930664 83.44893646240234 42.47439956665039 C 83.44893646240234 48.00706100463867 82.36578369140625 53.37295150756836 80.22957611083984 58.42351913452148 C 78.16592407226562 63.30253982543945 75.2113037109375 67.68466949462891 71.44779968261719 71.44816589355469 C 67.68428802490234 75.211669921875 63.30215072631836 78.16628265380859 58.42311477661133 80.22994232177734 C 53.37255096435547 82.36614227294922 48.00664520263672 83.44929504394531 42.47446823120117 83.44929504394531 Z" stroke="none"/>
                <path d="M 42.47446823120117 2.999992370605469 C 37.14412307739258 2.999992370605469 31.97481536865234 4.04327392578125 27.11014938354492 6.100860595703125 C 22.40990829467773 8.088890075683594 18.18804168701172 10.93555450439453 14.56179809570312 14.56178283691406 C 10.93557739257812 18.18801116943359 8.088897705078125 22.40987396240234 6.100868225097656 27.11009979248047 C 4.043281555175781 31.97476577758789 3 37.14406204223633 3 42.47488784790039 C 3 47.80522155761719 4.043281555175781 52.97451400756836 6.100868225097656 57.83917999267578 C 8.088897705078125 62.53940582275391 10.93557739257812 66.76127624511719 14.56179809570312 70.38749694824219 C 18.18804168701172 74.01372528076172 22.40990829467773 76.86039733886719 27.11014938354492 78.84841918945312 C 31.97481536865234 80.906005859375 37.14412307739258 81.94928741455078 42.47446823120117 81.94928741455078 C 47.80481338500977 81.94928741455078 52.97412109375 80.906005859375 57.83879089355469 78.84841918945312 C 62.53902816772461 76.86039733886719 66.76089477539062 74.01372528076172 70.38713073730469 70.38749694824219 C 74.01335906982422 66.76127624511719 76.86003875732422 62.53940582275391 78.84806823730469 57.83917999267578 C 80.90565490722656 52.97451400756836 81.94893646240234 47.80522155761719 81.94893646240234 42.47439575195312 C 81.94893646240234 37.14406204223633 80.90565490722656 31.97476577758789 78.84806823730469 27.11009979248047 C 76.86003875732422 22.40987396240234 74.01335906982422 18.18801116943359 70.38713073730469 14.56178283691406 C 66.76089477539062 10.93555450439453 62.53902816772461 8.088890075683594 57.83879089355469 6.100860595703125 C 52.97412109375 4.04327392578125 47.80481338500977 2.999992370605469 42.47446823120117 2.999992370605469 M 42.47446823120117 -7.62939453125e-06 C 65.93246459960938 -7.62939453125e-06 84.94893646240234 19.01643371582031 84.94893646240234 42.47439575195312 L 84.94893646240234 42.47488784790039 C 84.94893646240234 65.93284606933594 65.93246459960938 84.94928741455078 42.47446823120117 84.94928741455078 C 19.01647186279297 84.94928741455078 0 65.93284606933594 0 42.47488784790039 L 0 42.47439575195312 C 0 19.01643371582031 19.01647186279297 -7.62939453125e-06 42.47446823120117 -7.62939453125e-06 Z" stroke="none" fill="#fff"/>
              </g>
            </g>
            <g id="Trazado_874923" data-name="Trazado 874923" transform="translate(0 0)" fill="none">
              <path d="M42.474,0A42.474,42.474,0,0,1,84.949,42.474h0A42.474,42.474,0,0,1,0,42.475H0A42.474,42.474,0,0,1,42.474,0Z" stroke="none"/>
              <path d="M 42.47446823120117 2.999992370605469 C 37.14412307739258 2.999992370605469 31.97481536865234 4.04327392578125 27.11014938354492 6.100860595703125 C 22.40990829467773 8.088890075683594 18.18804168701172 10.93555450439453 14.56179809570312 14.56178283691406 C 10.93557739257812 18.18801116943359 8.088897705078125 22.40987396240234 6.100868225097656 27.11009979248047 C 4.043281555175781 31.97476577758789 3 37.14406204223633 3 42.47488784790039 C 3 47.80522155761719 4.043281555175781 52.97451400756836 6.100868225097656 57.83917999267578 C 8.088897705078125 62.53940582275391 10.93557739257812 66.76127624511719 14.56179809570312 70.38749694824219 C 18.18804168701172 74.01372528076172 22.40990829467773 76.86039733886719 27.11014938354492 78.84841918945312 C 31.97481536865234 80.906005859375 37.14412307739258 81.94928741455078 42.47446823120117 81.94928741455078 C 47.80481338500977 81.94928741455078 52.97412109375 80.906005859375 57.83879089355469 78.84841918945312 C 62.53902816772461 76.86039733886719 66.76089477539062 74.01372528076172 70.38713073730469 70.38749694824219 C 74.01335906982422 66.76127624511719 76.86003875732422 62.53940582275391 78.84806823730469 57.83917999267578 C 80.90565490722656 52.97451400756836 81.94893646240234 47.80522155761719 81.94893646240234 42.47439575195312 C 81.94893646240234 37.14406204223633 80.90565490722656 31.97476577758789 78.84806823730469 27.11009979248047 C 76.86003875732422 22.40987396240234 74.01335906982422 18.18801116943359 70.38713073730469 14.56178283691406 C 66.76089477539062 10.93555450439453 62.53902816772461 8.088890075683594 57.83879089355469 6.100860595703125 C 52.97412109375 4.04327392578125 47.80481338500977 2.999992370605469 42.47446823120117 2.999992370605469 M 42.47446823120117 -7.62939453125e-06 C 65.93246459960938 -7.62939453125e-06 84.94893646240234 19.01643371582031 84.94893646240234 42.47439575195312 L 84.94893646240234 42.47488784790039 C 84.94893646240234 65.93284606933594 65.93246459960938 84.94928741455078 42.47446823120117 84.94928741455078 C 19.01647186279297 84.94928741455078 0 65.93284606933594 0 42.47488784790039 L 0 42.47439575195312 C 0 19.01643371582031 19.01647186279297 -7.62939453125e-06 42.47446823120117 -7.62939453125e-06 Z" stroke="none" fill="#fff"/>
            </g>
          </g>
        </g>
      </g>
    </g>
    <g id="conversacion" transform="translate(1092.76 2838.041)">
      <path id="Trazado_910148" data-name="Trazado 910148" d="M22.661,308.846v8.172a6.787,6.787,0,0,1-9.6,6.174h0a6.787,6.787,0,0,1-3.907-5.243,2.188,2.188,0,1,1,2.269-3.613L12,311.07l.389-2.224H22.661Z" transform="translate(-7.024 -275.296)" fill="#fcd2be"/>
      <path id="Trazado_910149" data-name="Trazado 910149" d="M13.064,346.568a6.787,6.787,0,0,1-3.907-5.243,2.188,2.188,0,1,1,2.269-3.613l.57-3.266,1.786.363C13.031,336.107,9.86,340.845,13.064,346.568Z" transform="translate(-7.023 -298.672)" fill="#fab998"/>
      <path id="Trazado_910150" data-name="Trazado 910150" d="M40.575,270.779a5.894,5.894,0,0,1-5.894,5.894H28.525v.547a2.356,2.356,0,0,1-2.357,2.356,2.188,2.188,0,0,0-2.332-.5v-2.407a5.894,5.894,0,0,1,5.894-5.894Z" transform="translate(-21.766 -240.536)" fill="#f9ce55"/>
      <path id="Trazado_910151" data-name="Trazado 910151" d="M34.541,270.779h-4.81a5.894,5.894,0,0,0-5.894,5.894v2.407a2.189,2.189,0,0,1,2.332.5,2.356,2.356,0,0,0,2.357-2.356v-.547h.122A5.894,5.894,0,0,1,34.541,270.779Z" transform="translate(-21.766 -240.536)" fill="#e2a11e"/>
      <path id="Trazado_910152" data-name="Trazado 910152" d="M65.94,64.264H49.206a1.921,1.921,0,0,0-1.921,1.921v8.45a1.921,1.921,0,0,0,1.921,1.921h9.436V80.03l3.1-3.474h4.2a1.921,1.921,0,0,0,1.921-1.921v-8.45A1.921,1.921,0,0,0,65.94,64.264Z" transform="translate(-43.177 -51.962)" fill="#3facc9"/>
      <path id="Trazado_910153" data-name="Trazado 910153" d="M244.6,15.048h16.734a1.921,1.921,0,0,1,1.921,1.921v8.45a1.921,1.921,0,0,1-1.921,1.921H251.9v3.474l-3.1-3.474h-4.2a1.921,1.921,0,0,1-1.921-1.921v-8.45A1.921,1.921,0,0,1,244.6,15.048Z" transform="translate(-221.597 -7.022)" fill="#00c7a9"/>
      <path id="Trazado_910154" data-name="Trazado 910154" d="M324.243,275.438l-.034-.014a6.123,6.123,0,0,1-3.473-5.617l-10.266-10.142c-.481-1.78-.333-4.907,4.086-5.266q.413-.035.877-.035c5.274,0,10.45.424,11.545,8.187A21.118,21.118,0,0,1,324.243,275.438Z" transform="translate(-283.326 -225.546)" fill="#6b4b3d"/>
      <path id="Trazado_910155" data-name="Trazado 910155" d="M369.164,275.438l-.034-.014a.012.012,0,0,0,0-.005c1.782-15.144-5.078-21.02-9.654-21.02q.413-.035.877-.035c5.274,0,10.45.424,11.545,8.187A21.118,21.118,0,0,1,369.164,275.438Z" transform="translate(-328.247 -225.546)" fill="#5b3d2d"/>
      <path id="Trazado_910156" data-name="Trazado 910156" d="M325.653,310.582a2.022,2.022,0,0,1-.761.48,6.257,6.257,0,0,1-12.454-.858v-5.282s2.774.1,3.868-1a5.65,5.65,0,0,0,5.024,2.261h0a5.938,5.938,0,0,0,1.469-.27v1.812h0a2.018,2.018,0,0,1,2.853,2.853Z" transform="translate(-285.294 -270.805)" fill="#fcd2be"/>
      <path id="Trazado_910157" data-name="Trazado 910157" d="M406.995,331.5a2.022,2.022,0,0,1-.761.48,6.259,6.259,0,0,1-4.715,5.221c3.249-1.783,1.181-9.984,1.154-10.095h0a5.937,5.937,0,0,0,1.469-.27v1.812h0a2.018,2.018,0,0,1,2.853,2.853Z" transform="translate(-366.636 -291.725)" fill="#fab998"/>
      <path id="Trazado_910158" data-name="Trazado 910158" d="M107.005,365.859v-1.122a.668.668,0,0,0-1.336,0v1.122a.668.668,0,1,0,1.336,0Z" transform="translate(-96.489 -325.722)"/>
      <path id="Trazado_910159" data-name="Trazado 910159" d="M139.244,364.737v1.122a.668.668,0,1,0,1.336,0v-1.122a.668.668,0,0,0-1.336,0Z" transform="translate(-127.147 -325.722)"/>
      <path id="Trazado_910160" data-name="Trazado 910160" d="M78.5,417.513a.668.668,0,0,0-1.16.663,3.847,3.847,0,0,0,3.321,1.911H80.7a.668.668,0,0,0,.035-1.335A2.54,2.54,0,0,1,78.5,417.513Z" transform="translate(-70.543 -374.215)"/>
      <path id="Trazado_910161" data-name="Trazado 910161" d="M18.808,263.094H7.965A6.569,6.569,0,0,0,1.4,269.655a.668.668,0,0,0,1.336,0,5.231,5.231,0,0,1,5.225-5.225H18.1a5.233,5.233,0,0,1-5.183,4.557H6.759a.668.668,0,0,0-.668.668v.547a1.69,1.69,0,0,1-1.453,1.672,2.859,2.859,0,0,0-2.806-.435,2.858,2.858,0,0,0-.3,5.2,7.452,7.452,0,0,0,14.772-1.4v-3.814a.668.668,0,0,0-1.336,0v3.814a6.115,6.115,0,0,1-12.173.839.668.668,0,0,0-.44-.54,1.52,1.52,0,0,1-.575-2.51,1.5,1.5,0,0,1,.529-.345,1.522,1.522,0,0,1,1.617.341.668.668,0,0,0,.508.2,3.028,3.028,0,0,0,2.989-2.9h5.49a6.569,6.569,0,0,0,6.561-6.561A.668.668,0,0,0,18.808,263.094Z" transform="translate(0 -233.519)"/>
      <path id="Trazado_910162" data-name="Trazado 910162" d="M60.838,66.945a.668.668,0,0,0-.668.668,1.255,1.255,0,0,1-1.253,1.253h-4.2a.668.668,0,0,0-.5.223l-1.932,2.166V69.534a.668.668,0,0,0-.668-.668H42.183a1.254,1.254,0,0,1-1.253-1.253v-8.45a1.254,1.254,0,0,1,1.253-1.253H54.96a.668.668,0,1,0,0-1.336H42.183a2.592,2.592,0,0,0-2.589,2.589v8.45A2.592,2.592,0,0,0,42.183,70.2h8.768v2.806a.668.668,0,0,0,1.167.445l2.9-3.251h3.9a2.592,2.592,0,0,0,2.589-2.589A.668.668,0,0,0,60.838,66.945Z" transform="translate(-36.154 -44.94)"/>
      <path id="Trazado_910163" data-name="Trazado 910163" d="M237.578,20.987h3.9l2.9,3.251a.668.668,0,0,0,1.167-.445V20.987h8.768A2.592,2.592,0,0,0,256.9,18.4V9.947a2.592,2.592,0,0,0-2.589-2.589h-1.519a.668.668,0,1,0,0,1.336h1.519a1.255,1.255,0,0,1,1.253,1.253V18.4a1.255,1.255,0,0,1-1.253,1.253h-9.436a.668.668,0,0,0-.668.668v1.721l-1.932-2.166a.669.669,0,0,0-.5-.223h-4.2a1.254,1.254,0,0,1-1.253-1.253V9.947a1.254,1.254,0,0,1,1.253-1.253h13.077a.668.668,0,1,0,0-1.336H237.578a2.592,2.592,0,0,0-2.589,2.589V18.4A2.592,2.592,0,0,0,237.578,20.987Z" transform="translate(-214.574)"/>
      <path id="Trazado_910164" data-name="Trazado 910164" d="M353.345,46.32h-7.533a.668.668,0,1,0,0,1.336h7.533a.668.668,0,1,0,0-1.336Z" transform="translate(-315.16 -35.577)"/>
      <path id="Trazado_910165" data-name="Trazado 910165" d="M275.646,47.657h3.869a.668.668,0,0,0,0-1.336h-3.869a.668.668,0,1,0,0,1.336Z" transform="translate(-251.089 -35.578)"/>
      <path id="Trazado_910166" data-name="Trazado 910166" d="M408.116,77.849h-2.322a.668.668,0,0,0,0,1.336h2.322a.668.668,0,1,0,0-1.336Z" transform="translate(-369.931 -64.367)"/>
      <path id="Trazado_910167" data-name="Trazado 910167" d="M275.646,79.186h9.079a.668.668,0,0,0,0-1.336h-9.079a.668.668,0,1,0,0,1.336Z" transform="translate(-251.089 -64.368)"/>
      <path id="Trazado_910168" data-name="Trazado 910168" d="M275.646,110.714h9.48a.668.668,0,0,0,0-1.336h-9.48a.668.668,0,1,0,0,1.336Z" transform="translate(-251.089 -93.157)"/>
      <path id="Trazado_910169" data-name="Trazado 910169" d="M77.756,93.8h3.869a.668.668,0,0,0,0-1.336H77.756a.668.668,0,0,0,0,1.336Z" transform="translate(-70.391 -77.709)"/>
      <path id="Trazado_910170" data-name="Trazado 910170" d="M156.987,93.8a.668.668,0,0,0,0-1.336h-3.869a.668.668,0,1,0,0,1.336Z" transform="translate(-139.206 -77.709)"/>
      <path id="Trazado_910171" data-name="Trazado 910171" d="M77.756,123.988a.668.668,0,1,0,0,1.336H89.463a.668.668,0,1,0,0-1.336Z" transform="translate(-70.391 -106.498)"/>
      <path id="Trazado_910172" data-name="Trazado 910172" d="M125.365,155.517a.668.668,0,1,0,0,1.336h5.344a.668.668,0,1,0,0-1.336Z" transform="translate(-113.864 -135.288)"/>
      <path id="Trazado_910173" data-name="Trazado 910173" d="M77.756,155.517a.668.668,0,1,0,0,1.336h1.909a.668.668,0,1,0,0-1.336Z" transform="translate(-70.391 -135.288)"/>
      <path id="Trazado_910174" data-name="Trazado 910174" d="M367.553,341.451v-1.035a.668.668,0,0,0-1.336,0v1.035a.668.668,0,0,0,1.336,0Z" transform="translate(-334.402 -303.514)"/>
      <path id="Trazado_910175" data-name="Trazado 910175" d="M336.584,341.451v-1.035a.668.668,0,0,0-1.336,0v1.035a.668.668,0,0,0,1.336,0Z" transform="translate(-306.123 -303.514)"/>
      <path id="Trazado_910176" data-name="Trazado 910176" d="M362.944,390.889a.668.668,0,0,0,.667.632h.036a3.6,3.6,0,0,0,3.105-1.789.668.668,0,1,0-1.16-.663,2.294,2.294,0,0,1-2.017,1.118A.668.668,0,0,0,362.944,390.889Z" transform="translate(-331.412 -348.242)"/>
      <path id="Trazado_910177" data-name="Trazado 910177" d="M433.581,276.793c-.423-3-1.455-5.153-3.152-6.574a.668.668,0,0,0-.858,1.025c1.433,1.2,2.312,3.076,2.687,5.736a20.233,20.233,0,0,1-2.333,11.9,5.459,5.459,0,0,1-2.316-2.954.668.668,0,1,0-1.274.4,6.8,6.8,0,0,0,3.6,4.067.668.668,0,0,0,.83-.278A21.7,21.7,0,0,0,433.581,276.793Z" transform="translate(-389.269 -239.883)"/>
      <path id="Trazado_910178" data-name="Trazado 910178" d="M316.5,259.236a2.686,2.686,0,0,0-2.025-4.946v-.663a.668.668,0,0,0-.894-.629,5.256,5.256,0,0,1-5.739-1.769.668.668,0,0,0-1-.065,4.942,4.942,0,0,1-2.859.8,3.294,3.294,0,0,1,.519-2.6c.693-.905,2.008-1.364,3.908-1.364a17.889,17.889,0,0,1,6.346.8.668.668,0,0,0,.487-1.244,18.966,18.966,0,0,0-6.833-.891c-2.337,0-4.009.635-4.968,1.888a4.984,4.984,0,0,0-.639,4.255.668.668,0,0,0,.621.493,8.09,8.09,0,0,0,3.787-.752,6.223,6.223,0,0,0,4.29,2.021,7.337,7.337,0,0,0,1.64-.094v.965a.669.669,0,0,0,1.143.471,1.352,1.352,0,0,1,1.439-.3,1.349,1.349,0,0,1,.468,2.214,1.348,1.348,0,0,1-.51.322.668.668,0,0,0-.44.54,5.589,5.589,0,0,1-11.124-.767v-3.02a.668.668,0,0,0-1.336,0v3.021a6.925,6.925,0,0,0,13.723,1.322Z" transform="translate(-276.3 -218.515)"/>
    </g>
  </g>
</svg>
