<svg xmlns="http://www.w3.org/2000/svg" xmlns:xlink="http://www.w3.org/1999/xlink" width="102.949" height="102.949" viewBox="0 0 102.949 102.949">
  <defs>
    <filter id="Trazado_874925" x="0" y="0" width="102.949" height="102.949" filterUnits="userSpaceOnUse">
      <feOffset dy="3" input="SourceAlpha"/>
      <feGaussianBlur stdDeviation="3" result="blur"/>
      <feFlood flood-opacity="0.161"/>
      <feComposite operator="in" in2="blur"/>
      <feComposite in="SourceGraphic"/>
    </filter>
    <clipPath id="clip-path">
      <path id="path2316" d="M0-682.665H51.971v51.971H0Z" transform="translate(0 682.665)"/>
    </clipPath>
  </defs>
  <g id="Grupo_1182178" data-name="Grupo 1182178" transform="translate(-592.051 -10206)">
    <g id="Grupo_1181906" data-name="Grupo 1181906" transform="translate(-207.449 7694.843)">
      <g id="Grupo_1111316" data-name="Grupo 1111316" transform="translate(808.5 2517.157)">
        <g id="Grupo_1109835" data-name="Grupo 1109835" transform="translate(0 0)">
          <g id="Grupo_1107913" data-name="Grupo 1107913" transform="translate(0 0)">
            <g transform="matrix(1, 0, 0, 1, -9, -6)" filter="url(#Trazado_874925)">
              <g id="Trazado_874925-2" data-name="Trazado 874925" transform="translate(9 6)" fill="#4c6929" opacity="0.859">
                <path d="M 42.47446823120117 83.44929504394531 C 36.94229125976562 83.44929504394531 31.57638549804688 82.36614227294922 26.52582168579102 80.22994232177734 C 21.64678573608398 78.16628265380859 17.26464462280273 75.211669921875 13.50113868713379 71.44816589355469 C 9.737632751464844 67.68466949462891 6.78300952911377 63.30253982543945 4.719362258911133 58.42351913452148 C 2.583150625228882 53.37295150756836 1.499997615814209 48.00706100463867 1.499997615814209 42.47489547729492 C 1.499997615814209 36.94223403930664 2.583150625228882 31.57634162902832 4.719362258911133 26.52577781677246 C 6.78300952911377 21.64675331115723 9.737632751464844 17.26462364196777 13.50113868713379 13.50113010406494 C 17.26464462280273 9.737624168395996 21.64678573608398 6.783012390136719 26.52582168579102 4.719353199005127 C 31.57638549804688 2.583153486251831 36.94229125976562 1.500000476837158 42.47446823120117 1.500000476837158 C 48.00664520263672 1.500000476837158 53.37255096435547 2.583153486251831 58.42311477661133 4.719353199005127 C 63.30215072631836 6.783012390136719 67.68428802490234 9.737624168395996 71.44779968261719 13.50113010406494 C 75.2113037109375 17.26462364196777 78.16592407226562 21.64675331115723 80.22957611083984 26.52577781677246 C 82.36578369140625 31.57634162902832 83.44893646240234 36.94223403930664 83.44893646240234 42.47439956665039 C 83.44893646240234 48.00706100463867 82.36578369140625 53.37295150756836 80.22957611083984 58.42351913452148 C 78.16592407226562 63.30253982543945 75.2113037109375 67.68466949462891 71.44779968261719 71.44816589355469 C 67.68428802490234 75.211669921875 63.30215072631836 78.16628265380859 58.42311477661133 80.22994232177734 C 53.37255096435547 82.36614227294922 48.00664520263672 83.44929504394531 42.47446823120117 83.44929504394531 Z" stroke="none"/>
                <path d="M 42.47446823120117 2.999992370605469 C 37.14412307739258 2.999992370605469 31.97481536865234 4.04327392578125 27.11014938354492 6.100860595703125 C 22.40990829467773 8.088890075683594 18.18804168701172 10.93555450439453 14.56179809570312 14.56178283691406 C 10.93557739257812 18.18801116943359 8.088897705078125 22.40987396240234 6.100868225097656 27.11009979248047 C 4.043281555175781 31.97476577758789 3 37.14406204223633 3 42.47488784790039 C 3 47.80522155761719 4.043281555175781 52.97451400756836 6.100868225097656 57.83917999267578 C 8.088897705078125 62.53940582275391 10.93557739257812 66.76127624511719 14.56179809570312 70.38749694824219 C 18.18804168701172 74.01372528076172 22.40990829467773 76.86039733886719 27.11014938354492 78.84841918945312 C 31.97481536865234 80.906005859375 37.14412307739258 81.94928741455078 42.47446823120117 81.94928741455078 C 47.80481338500977 81.94928741455078 52.97412109375 80.906005859375 57.83879089355469 78.84841918945312 C 62.53902816772461 76.86039733886719 66.76089477539062 74.01372528076172 70.38713073730469 70.38749694824219 C 74.01335906982422 66.76127624511719 76.86003875732422 62.53940582275391 78.84806823730469 57.83917999267578 C 80.90565490722656 52.97451400756836 81.94893646240234 47.80522155761719 81.94893646240234 42.47439575195312 C 81.94893646240234 37.14406204223633 80.90565490722656 31.97476577758789 78.84806823730469 27.11009979248047 C 76.86003875732422 22.40987396240234 74.01335906982422 18.18801116943359 70.38713073730469 14.56178283691406 C 66.76089477539062 10.93555450439453 62.53902816772461 8.088890075683594 57.83879089355469 6.100860595703125 C 52.97412109375 4.04327392578125 47.80481338500977 2.999992370605469 42.47446823120117 2.999992370605469 M 42.47446823120117 -7.62939453125e-06 C 65.93246459960938 -7.62939453125e-06 84.94893646240234 19.01643371582031 84.94893646240234 42.47439575195312 L 84.94893646240234 42.47488784790039 C 84.94893646240234 65.93284606933594 65.93246459960938 84.94928741455078 42.47446823120117 84.94928741455078 C 19.01647186279297 84.94928741455078 0 65.93284606933594 0 42.47488784790039 L 0 42.47439575195312 C 0 19.01643371582031 19.01647186279297 -7.62939453125e-06 42.47446823120117 -7.62939453125e-06 Z" stroke="none" fill="#fff"/>
              </g>
            </g>
            <g id="Trazado_874923" data-name="Trazado 874923" transform="translate(0 0)" fill="none">
              <path d="M42.474,0A42.474,42.474,0,0,1,84.949,42.474h0A42.474,42.474,0,0,1,0,42.475H0A42.474,42.474,0,0,1,42.474,0Z" stroke="none"/>
              <path d="M 42.47446823120117 2.999992370605469 C 37.14412307739258 2.999992370605469 31.97481536865234 4.04327392578125 27.11014938354492 6.100860595703125 C 22.40990829467773 8.088890075683594 18.18804168701172 10.93555450439453 14.56179809570312 14.56178283691406 C 10.93557739257812 18.18801116943359 8.088897705078125 22.40987396240234 6.100868225097656 27.11009979248047 C 4.043281555175781 31.97476577758789 3 37.14406204223633 3 42.47488784790039 C 3 47.80522155761719 4.043281555175781 52.97451400756836 6.100868225097656 57.83917999267578 C 8.088897705078125 62.53940582275391 10.93557739257812 66.76127624511719 14.56179809570312 70.38749694824219 C 18.18804168701172 74.01372528076172 22.40990829467773 76.86039733886719 27.11014938354492 78.84841918945312 C 31.97481536865234 80.906005859375 37.14412307739258 81.94928741455078 42.47446823120117 81.94928741455078 C 47.80481338500977 81.94928741455078 52.97412109375 80.906005859375 57.83879089355469 78.84841918945312 C 62.53902816772461 76.86039733886719 66.76089477539062 74.01372528076172 70.38713073730469 70.38749694824219 C 74.01335906982422 66.76127624511719 76.86003875732422 62.53940582275391 78.84806823730469 57.83917999267578 C 80.90565490722656 52.97451400756836 81.94893646240234 47.80522155761719 81.94893646240234 42.47439575195312 C 81.94893646240234 37.14406204223633 80.90565490722656 31.97476577758789 78.84806823730469 27.11009979248047 C 76.86003875732422 22.40987396240234 74.01335906982422 18.18801116943359 70.38713073730469 14.56178283691406 C 66.76089477539062 10.93555450439453 62.53902816772461 8.088890075683594 57.83879089355469 6.100860595703125 C 52.97412109375 4.04327392578125 47.80481338500977 2.999992370605469 42.47446823120117 2.999992370605469 M 42.47446823120117 -7.62939453125e-06 C 65.93246459960938 -7.62939453125e-06 84.94893646240234 19.01643371582031 84.94893646240234 42.47439575195312 L 84.94893646240234 42.47488784790039 C 84.94893646240234 65.93284606933594 65.93246459960938 84.94928741455078 42.47446823120117 84.94928741455078 C 19.01647186279297 84.94928741455078 0 65.93284606933594 0 42.47488784790039 L 0 42.47439575195312 C 0 19.01643371582031 19.01647186279297 -7.62939453125e-06 42.47446823120117 -7.62939453125e-06 Z" stroke="none" fill="#fff"/>
            </g>
          </g>
        </g>
      </g>
    </g>
    <g id="g2292" transform="translate(617.051 10910.665)">
      <g id="g2294" transform="translate(25.986 -681.65)">
        <path id="path2296" d="M-83-42.908l-6.839,3.536v-7.072Z" transform="translate(89.838 46.444)" fill="#f5737f"/>
      </g>
      <path id="path2298" d="M58.667-371.543h43.039v-25.123H58.667Z" transform="translate(-54.2 -264.226)" fill="#f5737f"/>
      <path id="path2300" d="M152.889-371.543h28.692v-25.123H152.889Z" transform="translate(-141.25 -264.226)" fill="#ffcb7c"/>
      <path id="path2302" d="M75.708-62.606H28v-4.06H75.708Z" transform="translate(-25.868 -569.103)" fill="#b5bcc9"/>
      <g id="g2304" transform="translate(4.466 -672.21)">
        <path id="path2306" d="M-261.147,0l21.519,11.318h-43.039Z" transform="translate(282.666)" fill="#ffcb7c"/>
      </g>
      <g id="g2308" transform="translate(18.812 -672.21)">
        <path id="path2310" d="M-87.049,0l7.173,11.318H-94.222Z" transform="translate(94.222)" fill="#fff"/>
      </g>
      <g id="g2312" transform="translate(0 -682.665)">
        <g id="g2314" clip-path="url(#clip-path)">
          <g id="g2320" transform="translate(11.639 21.773)">
            <path id="path2322" d="M0,0V1.185a3.587,3.587,0,1,0,7.173,0V0Z" fill="#fff"/>
          </g>
          <g id="g2324" transform="translate(4.466 21.773)">
            <path id="path2326" d="M0,0V1.185a3.587,3.587,0,1,0,7.173,0V0Z" fill="#91def5"/>
          </g>
          <g id="g2328" transform="translate(25.986 21.773)">
            <path id="path2330" d="M0,0V1.185a3.587,3.587,0,1,0,7.173,0V0Z" fill="#fff"/>
          </g>
          <g id="g2332" transform="translate(18.812 21.773)">
            <path id="path2334" d="M0,0V1.185a3.587,3.587,0,1,0,7.173,0V0Z" fill="#91def5"/>
          </g>
          <g id="g2336" transform="translate(40.332 21.773)">
            <path id="path2338" d="M0,0V1.185a3.587,3.587,0,1,0,7.173,0V0Z" fill="#fff"/>
          </g>
          <g id="g2340" transform="translate(33.159 21.773)">
            <path id="path2342" d="M0,0V1.185a3.587,3.587,0,1,0,7.173,0V0Z" fill="#91def5"/>
          </g>
          <path id="path2344" d="M89.387-382.846H46.348a1.015,1.015,0,0,1-1.015-1.015v-25.123A1.015,1.015,0,0,1,46.348-410H89.387a1.015,1.015,0,0,1,1.015,1.015v25.123A1.015,1.015,0,0,1,89.387-382.846Zm-42.024-2.03H88.372v-23.093H47.363Z" transform="translate(-41.882 430.757)"/>
          <path id="path2346" d="M63.39-73.909H15.682a1.015,1.015,0,0,1-1.015-1.015v-4.06A1.015,1.015,0,0,1,15.682-80H63.39A1.015,1.015,0,0,1,64.4-78.985v4.06A1.015,1.015,0,0,1,63.39-73.909ZM16.7-75.94H62.375v-2.03H16.7Z" transform="translate(-13.55 125.881)"/>
          <g id="g2348" transform="translate(10.624 20.758)">
            <path id="path2350" d="M-8.732-6.531a4.607,4.607,0,0,1-4.6-4.6v-1.185a1.015,1.015,0,0,1,1.015-1.015A1.015,1.015,0,0,1-11.3-12.318v1.185A2.574,2.574,0,0,0-8.732-8.561,2.574,2.574,0,0,0-6.16-11.133v-1.185a1.015,1.015,0,0,1,1.015-1.015A1.015,1.015,0,0,1-4.13-12.318v1.185A4.607,4.607,0,0,1-8.732-6.531Z" transform="translate(13.333 13.333)"/>
          </g>
          <g id="g2352" transform="translate(3.451 20.758)">
            <path id="path2354" d="M-8.732-6.531a4.607,4.607,0,0,1-4.6-4.6v-1.185a1.015,1.015,0,0,1,1.015-1.015A1.015,1.015,0,0,1-11.3-12.318v1.185A2.574,2.574,0,0,0-8.732-8.561,2.574,2.574,0,0,0-6.16-11.133v-1.185a1.015,1.015,0,0,1,1.015-1.015A1.015,1.015,0,0,1-4.13-12.318v1.185A4.607,4.607,0,0,1-8.732-6.531Z" transform="translate(13.333 13.333)"/>
          </g>
          <g id="g2356" transform="translate(24.971 20.758)">
            <path id="path2358" d="M-8.732-6.531a4.607,4.607,0,0,1-4.6-4.6v-1.185a1.015,1.015,0,0,1,1.015-1.015A1.015,1.015,0,0,1-11.3-12.318v1.185A2.574,2.574,0,0,0-8.732-8.561,2.574,2.574,0,0,0-6.16-11.133v-1.185a1.015,1.015,0,0,1,1.015-1.015A1.015,1.015,0,0,1-4.13-12.318v1.185A4.607,4.607,0,0,1-8.732-6.531Z" transform="translate(13.333 13.333)"/>
          </g>
          <g id="g2360" transform="translate(17.797 20.758)">
            <path id="path2362" d="M-8.732-6.531a4.607,4.607,0,0,1-4.6-4.6v-1.185a1.015,1.015,0,0,1,1.015-1.015A1.015,1.015,0,0,1-11.3-12.318v1.185A2.574,2.574,0,0,0-8.732-8.561,2.574,2.574,0,0,0-6.16-11.133v-1.185a1.015,1.015,0,0,1,1.015-1.015A1.015,1.015,0,0,1-4.13-12.318v1.185A4.607,4.607,0,0,1-8.732-6.531Z" transform="translate(13.333 13.333)"/>
          </g>
          <g id="g2364" transform="translate(39.317 20.758)">
            <path id="path2366" d="M-8.732-6.531a4.607,4.607,0,0,1-4.6-4.6v-1.185a1.015,1.015,0,0,1,1.015-1.015A1.015,1.015,0,0,1-11.3-12.318v1.185A2.574,2.574,0,0,0-8.732-8.561,2.574,2.574,0,0,0-6.16-11.133v-1.185a1.015,1.015,0,0,1,1.015-1.015A1.015,1.015,0,0,1-4.13-12.318v1.185A4.607,4.607,0,0,1-8.732-6.531Z" transform="translate(13.333 13.333)"/>
          </g>
          <g id="g2368" transform="translate(32.144 20.758)">
            <path id="path2370" d="M-8.732-6.531a4.607,4.607,0,0,1-4.6-4.6v-1.185a1.015,1.015,0,0,1,1.015-1.015A1.015,1.015,0,0,1-11.3-12.318v1.185A2.574,2.574,0,0,0-8.732-8.561,2.574,2.574,0,0,0-6.16-11.133v-1.185a1.015,1.015,0,0,1,1.015-1.015A1.015,1.015,0,0,1-4.13-12.318v1.185A4.607,4.607,0,0,1-8.732-6.531Z" transform="translate(13.333 13.333)"/>
          </g>
          <g id="g2372" transform="translate(3.451 9.44)">
            <path id="path2374" d="M-273.466-13.333a1.014,1.014,0,0,1,.473.117L-251.474-1.9a1.015,1.015,0,0,1,.513,1.142,1.015,1.015,0,0,1-.985.772h-43.039a1.015,1.015,0,0,1-.985-.772,1.015,1.015,0,0,1,.513-1.142l21.519-11.318A1.014,1.014,0,0,1-273.466-13.333Zm17.409,11.318-17.409-9.156-17.409,9.156Z" transform="translate(296.001 13.333)"/>
          </g>
          <g id="g2376" transform="translate(17.797 9.44)">
            <path id="path2378" d="M-99.368-13.333a1.015,1.015,0,0,1,.857.472l7.173,11.318a1.015,1.015,0,0,1,.032,1.033,1.015,1.015,0,0,1-.889.526h-14.346a1.015,1.015,0,0,1-.889-.526,1.015,1.015,0,0,1,.032-1.033l7.173-11.318A1.015,1.015,0,0,1-99.368-13.333Zm5.328,11.318-5.328-8.407L-104.7-2.015Z" transform="translate(107.556 13.333)"/>
          </g>
          <g id="g2380" transform="translate(24.971 0)">
            <path id="path2382" d="M-102.157-59.777a1.014,1.014,0,0,1,.466.113l6.839,3.536a1.015,1.015,0,0,1,.549.9,1.015,1.015,0,0,1-.549.9l-6.839,3.536a1.015,1.015,0,0,1-.994-.035,1.015,1.015,0,0,1-.487-.867v-7.072a1.015,1.015,0,0,1,.487-.867A1.015,1.015,0,0,1-102.157-59.777Zm4.629,4.551-3.614-1.868v3.737Z" transform="translate(103.172 59.777)"/>
          </g>
          <g id="g2384" transform="translate(24.971 0)">
            <path id="path2386" d="M-12.318-125.863a1.015,1.015,0,0,1-1.015-1.015v-9.44a1.015,1.015,0,0,1,1.015-1.015,1.015,1.015,0,0,1,1.015,1.015v9.44A1.015,1.015,0,0,1-12.318-125.863Z" transform="translate(13.333 137.333)"/>
          </g>
          <g id="g2388" transform="translate(18.812 30.748)">
            <path id="path2390" d="M-87.049,0h0a7.173,7.173,0,0,0-7.173,7.173v8.975h14.346V7.173A7.173,7.173,0,0,0-87.049,0" transform="translate(94.222)" fill="#fbc2c7"/>
          </g>
          <g id="g2392" transform="translate(17.797 29.733)">
            <path id="path2394" d="M-99.368-13.333a8.2,8.2,0,0,1,8.188,8.188V3.83a1.015,1.015,0,0,1-1.015,1.015h-14.346a1.015,1.015,0,0,1-1.015-1.015V-5.145A8.2,8.2,0,0,1-99.368-13.333Zm6.158,16.148v-7.96A6.165,6.165,0,0,0-99.368-11.3a6.165,6.165,0,0,0-6.158,6.158v7.96Z" transform="translate(107.556 13.333)"/>
          </g>
          <g id="g2396" transform="translate(10.624 23.318)">
            <path id="path2398" d="M-12.318,11.259a1.015,1.015,0,0,1-1.015-1.015V-12.318a1.015,1.015,0,0,1,1.015-1.015A1.015,1.015,0,0,1-11.3-12.318V10.244A1.015,1.015,0,0,1-12.318,11.259Z" transform="translate(13.333 13.333)"/>
          </g>
          <g id="g2400" transform="translate(39.317 23.318)">
            <path id="path2402" d="M-12.318,2.124a1.015,1.015,0,0,1-1.015-1.015V-12.318a1.015,1.015,0,0,1,1.015-1.015A1.015,1.015,0,0,1-11.3-12.318V1.109A1.015,1.015,0,0,1-12.318,2.124Z" transform="translate(13.333 13.333)"/>
          </g>
          <g id="g2404" transform="translate(24.971 21.943)">
            <path id="path2406" d="M-12.318-3.513a1.015,1.015,0,0,1-1.015-1.015v-7.79a1.015,1.015,0,0,1,1.015-1.015A1.015,1.015,0,0,1-11.3-12.318v7.79A1.015,1.015,0,0,1-12.318-3.513Z" transform="translate(13.333 13.333)"/>
          </g>
          <g id="g2408" transform="translate(40.332 42.328)">
            <path id="path2410"/>
          </g>
        </g>
      </g>
    </g>
  </g>
</svg>
