<svg xmlns="http://www.w3.org/2000/svg" xmlns:xlink="http://www.w3.org/1999/xlink" width="118" height="118" viewBox="0 0 118 118">
  <defs>
    <filter id="Trazado_874925" x="0" y="0" width="118" height="118" filterUnits="userSpaceOnUse">
      <feOffset dy="3" input="SourceAlpha"/>
      <feGaussianBlur stdDeviation="3" result="blur"/>
      <feFlood flood-opacity="0.161"/>
      <feComposite operator="in" in2="blur"/>
      <feComposite in="SourceGraphic"/>
    </filter>
  </defs>
  <g id="Grupo_1182213" data-name="Grupo 1182213" transform="translate(-3881.219 823.144)">
    <g id="Grupo_1181915" data-name="Grupo 1181915" transform="translate(2773.084 -2757.143)">
      <g id="Grupo_1111553" data-name="Grupo 1111553" transform="translate(308.634 -577.158)">
        <g id="Grupo_1111316" data-name="Grupo 1111316" transform="translate(808.5 2517.157)">
          <g id="Grupo_1109835" data-name="Grupo 1109835" transform="translate(0 0)">
            <g id="Grupo_1107913" data-name="Grupo 1107913" transform="translate(0 0)">
              <g transform="matrix(1, 0, 0, 1, -9, -6)" filter="url(#Trazado_874925)">
                <g id="Trazado_874925-2" data-name="Trazado 874925" transform="translate(9 6)" fill="#9cc8ff" opacity="0.859">
                  <path d="M 49.99972534179688 98.4998779296875 C 43.45164108276367 98.4998779296875 37.10022354125977 97.21776580810547 31.12189674377441 94.68914794921875 C 25.34676742553711 92.24647521972656 20.15985298156738 88.74925994873047 15.70523929595947 84.29464721679688 C 11.25062561035156 79.84004974365234 7.753411293029785 74.65313720703125 5.310725212097168 68.87800598144531 C 2.782111167907715 62.89969253540039 1.499996781349182 56.54829406738281 1.499996781349182 50.00022125244141 C 1.499996781349182 43.45157623291016 2.782111167907715 37.10017776489258 5.310725212097168 31.12186431884766 C 7.753411293029785 25.34673500061035 11.25062561035156 20.15983581542969 15.70523929595947 15.70522117614746 C 20.15985298156738 11.25062084197998 25.34676742553711 7.753406524658203 31.12189674377441 5.31073522567749 C 37.10022354125977 2.782120943069458 43.45164108276367 1.500006556510925 49.99972534179688 1.500006556510925 C 56.54780960083008 1.500006556510925 62.89922714233398 2.782120943069458 68.87755584716797 5.31073522567749 C 74.65267944335938 7.753406524658203 79.839599609375 11.25062084197998 84.29421234130859 15.70522117614746 C 88.74882507324219 20.15983581542969 92.24604034423828 25.34673500061035 94.68872833251953 31.12186431884766 C 97.21733856201172 37.10017776489258 98.49945068359375 43.45157623291016 98.49945068359375 49.99964904785156 C 98.49945068359375 56.54829406738281 97.21733856201172 62.89969253540039 94.68872833251953 68.87800598144531 C 92.24604034423828 74.65313720703125 88.74882507324219 79.84004974365234 84.29421234130859 84.29464721679688 C 79.839599609375 88.74925994873047 74.65267944335938 92.24647521972656 68.87755584716797 94.68914794921875 C 62.89922714233398 97.21776580810547 56.54780960083008 98.4998779296875 49.99972534179688 98.4998779296875 Z" stroke="none"/>
                  <path d="M 49.99972534179688 3 C 43.65348052978516 3 37.49866485595703 4.242240905761719 31.70623016357422 6.692230224609375 C 26.10989379882812 9.059272766113281 21.08323669433594 12.44853210449219 16.76589202880859 16.76587677001953 C 12.44855499267578 21.08321380615234 9.059295654296875 26.10985565185547 6.692230224609375 31.70618438720703 C 4.24224853515625 37.49859619140625 3 43.65341186523438 3 50.00022888183594 C 3 56.34645843505859 4.24224853515625 62.50127410888672 6.692230224609375 68.29368591308594 C 9.059295654296875 73.8900146484375 12.44855499267578 78.91665649414062 16.76589202880859 83.23399353027344 C 21.08323669433594 87.55132293701172 26.10989379882812 90.94059753417969 31.70623016357422 93.30764007568359 C 37.49866485595703 95.75762939453125 43.65348052978516 96.99987030029297 49.99972534179688 96.99987030029297 C 56.34597015380859 96.99987030029297 62.50078582763672 95.75762939453125 68.293212890625 93.30764007568359 C 73.88955688476562 90.94059753417969 78.91621398925781 87.55132293701172 83.23355865478516 83.23399353027344 C 87.55089569091797 78.91665649414062 90.94015502929688 73.8900146484375 93.30722045898438 68.29368591308594 C 95.7572021484375 62.50127410888672 96.99945068359375 56.34645843505859 96.99945068359375 49.99964141845703 C 96.99945068359375 43.65341186523438 95.7572021484375 37.49859619140625 93.30722045898438 31.70618438720703 C 90.94015502929688 26.10985565185547 87.55089569091797 21.08321380615234 83.23355865478516 16.76587677001953 C 78.91621398925781 12.44853210449219 73.88955688476562 9.059272766113281 68.293212890625 6.692230224609375 C 62.50078582763672 4.242240905761719 56.34597015380859 3 49.99972534179688 3 M 49.99972534179688 0 C 77.61381530761719 0 99.99945068359375 22.38559722900391 99.99945068359375 49.99964141845703 L 99.99945068359375 50.00022888183594 C 99.99945068359375 77.6142578125 77.61381530761719 99.99987030029297 49.99972534179688 99.99987030029297 C 22.38563537597656 99.99987030029297 0 77.6142578125 0 50.00022888183594 L 0 49.99964141845703 C 0 22.38559722900391 22.38563537597656 0 49.99972534179688 0 Z" stroke="none" fill="#fff"/>
                </g>
              </g>
              <g id="Trazado_874923" data-name="Trazado 874923" transform="translate(0 0)" fill="none">
                <path d="M50,0a50,50,0,0,1,50,50h0A50,50,0,0,1,0,50H0A50,50,0,0,1,50,0Z" stroke="none"/>
                <path d="M 49.99972534179688 3 C 43.65348052978516 3 37.49866485595703 4.242240905761719 31.70623016357422 6.692230224609375 C 26.10989379882812 9.059272766113281 21.08323669433594 12.44853210449219 16.76589202880859 16.76587677001953 C 12.44855499267578 21.08321380615234 9.059295654296875 26.10985565185547 6.692230224609375 31.70618438720703 C 4.24224853515625 37.49859619140625 3 43.65341186523438 3 50.00022888183594 C 3 56.34645843505859 4.24224853515625 62.50127410888672 6.692230224609375 68.29368591308594 C 9.059295654296875 73.8900146484375 12.44855499267578 78.91665649414062 16.76589202880859 83.23399353027344 C 21.08323669433594 87.55132293701172 26.10989379882812 90.94059753417969 31.70623016357422 93.30764007568359 C 37.49866485595703 95.75762939453125 43.65348052978516 96.99987030029297 49.99972534179688 96.99987030029297 C 56.34597015380859 96.99987030029297 62.50078582763672 95.75762939453125 68.293212890625 93.30764007568359 C 73.88955688476562 90.94059753417969 78.91621398925781 87.55132293701172 83.23355865478516 83.23399353027344 C 87.55089569091797 78.91665649414062 90.94015502929688 73.8900146484375 93.30722045898438 68.29368591308594 C 95.7572021484375 62.50127410888672 96.99945068359375 56.34645843505859 96.99945068359375 49.99964141845703 C 96.99945068359375 43.65341186523438 95.7572021484375 37.49859619140625 93.30722045898438 31.70618438720703 C 90.94015502929688 26.10985565185547 87.55089569091797 21.08321380615234 83.23355865478516 16.76587677001953 C 78.91621398925781 12.44853210449219 73.88955688476562 9.059272766113281 68.293212890625 6.692230224609375 C 62.50078582763672 4.242240905761719 56.34597015380859 3 49.99972534179688 3 M 49.99972534179688 0 C 77.61381530761719 0 99.99945068359375 22.38559722900391 99.99945068359375 49.99964141845703 L 99.99945068359375 50.00022888183594 C 99.99945068359375 77.6142578125 77.61381530761719 99.99987030029297 49.99972534179688 99.99987030029297 C 22.38563537597656 99.99987030029297 0 77.6142578125 0 50.00022888183594 L 0 49.99964141845703 C 0 22.38559722900391 22.38563537597656 0 49.99972534179688 0 Z" stroke="none" fill="#fff"/>
              </g>
            </g>
          </g>
        </g>
      </g>
    </g>
    <g id="desarrollo" transform="translate(3908 -799)">
      <path id="Trazado_910458" data-name="Trazado 910458" d="M42,36c0,2.21,1.34,4,3,4s3-1.79,3-4a5.05,5.05,0,0,0-.3-1.72A13.01,13.01,0,0,1,58,47v3H41.38A12.965,12.965,0,0,0,32,46a7,7,0,0,0,7-7,6.924,6.924,0,0,0-.73-3.12,19.594,19.594,0,0,1,4.03-1.6v.01A4.992,4.992,0,0,0,42,36Z" fill="#e6e9ed"/>
      <path id="Trazado_910459" data-name="Trazado 910459" d="M11.19,36.61,15,45l4-5,4,5,2.02-4.43.15-.04A6.994,6.994,0,0,0,32,46a12.938,12.938,0,0,0-9.19,3.81l-.19.19H6V47a12.962,12.962,0,0,1,3.81-9.19A13.186,13.186,0,0,1,11.19,36.61Z" fill="#e6e9ed"/>
      <path id="Trazado_910460" data-name="Trazado 910460" d="M23.99,35.01,19,40l-5-5a13.007,13.007,0,0,1,5-1A12.6,12.6,0,0,1,23.99,35.01Z" fill="#f0d0b4"/>
      <path id="Trazado_910461" data-name="Trazado 910461" d="M25,39a6.965,6.965,0,0,0,.17,1.53l-.15.04L23,45l-4-5,4.99-4.99a10.47,10.47,0,0,1,1.74.87A6.924,6.924,0,0,0,25,39Z" fill="#ff826e"/>
      <path id="Trazado_910462" data-name="Trazado 910462" d="M19,40l-4,5-3.81-8.39A12.8,12.8,0,0,1,14,35Z" fill="#ff826e"/>
      <path id="Trazado_910463" data-name="Trazado 910463" d="M24,62H19V59a12.941,12.941,0,0,1,3.62-9l.19-.19a13,13,0,0,1,3.01-2.25L32,62Z" fill="#5cd6b3"/>
      <path id="Trazado_910464" data-name="Trazado 910464" d="M40,62H32l6.18-14.44A13.019,13.019,0,0,1,45,59v3Z" fill="#5cd6b3"/>
      <path id="Trazado_910465" data-name="Trazado 910465" d="M38.18,47.56,32,62,25.82,47.56a13.021,13.021,0,0,1,12.36,0Z" fill="#ccd1d9"/>
      <path id="Trazado_910466" data-name="Trazado 910466" d="M47.7,34.28A5.05,5.05,0,0,1,48,36c0,2.21-1.34,4-3,4s-3-1.79-3-4a4.992,4.992,0,0,1,.3-1.71v-.01a13.158,13.158,0,0,1,5.4,0Z" fill="#f0d0b4"/>
      <path id="Trazado_910467" data-name="Trazado 910467" d="M32,8a7,7,0,1,1-7,7A6.995,6.995,0,0,1,32,8Zm3,7a3,3,0,1,0-3,3A3,3,0,0,0,35,15Z" fill="#fcd770"/>
      <path id="Trazado_910468" data-name="Trazado 910468" d="M45,15v2.34l-1.87.45a11.744,11.744,0,0,1-1.17,2.91,6.97,6.97,0,0,0-3.69,4.37l-.34-.22a11.164,11.164,0,0,1-3.2,1.33l-.44,1.87H29.71l-.44-1.87a11.164,11.164,0,0,1-3.2-1.33l-.34.22a6.97,6.97,0,0,0-3.69-4.37,11.744,11.744,0,0,1-1.17-2.91L19,17.35V12.71l1.87-.44a11.164,11.164,0,0,1,1.33-3.2L21.19,7.43l3.24-3.24L26.07,5.2a11.164,11.164,0,0,1,3.2-1.33L29.71,2h4.58l.44,1.87a11.164,11.164,0,0,1,3.2,1.33l1.64-1.01,3.24,3.24L41.8,9.07a11.164,11.164,0,0,1,1.33,3.2l1.87.44Zm-6,0a7,7,0,1,0-7,7A6.995,6.995,0,0,0,39,15Z" fill="#ffc729"/>
      <g id="Grupo_1182212" data-name="Grupo 1182212">
        <path id="Trazado_910469" data-name="Trazado 910469" d="M38.27,25.07a6.97,6.97,0,0,1,3.69-4.37A6.893,6.893,0,0,1,45,20a7,7,0,1,1-7,7A6.819,6.819,0,0,1,38.27,25.07Z" fill="#f0d0b4"/>
        <path id="Trazado_910470" data-name="Trazado 910470" d="M38.27,35.88A6.924,6.924,0,0,1,39,39a7,7,0,0,1-14,0,6.924,6.924,0,0,1,.73-3.12,7.006,7.006,0,0,1,12.54,0Z" fill="#f0d0b4"/>
        <path id="Trazado_910471" data-name="Trazado 910471" d="M25.73,25.07A6.819,6.819,0,0,1,26,27a7,7,0,1,1-7-7,6.893,6.893,0,0,1,3.04.7,6.97,6.97,0,0,1,3.69,4.37Z" fill="#f0d0b4"/>
      </g>
      <path id="Trazado_910472" data-name="Trazado 910472" d="M59,47a14.018,14.018,0,0,0-9.646-13.3,7.979,7.979,0,0,0-5.594-14.6c.056-.162.127-.32.176-.484L46,18.136V11.914l-2.062-.486a12.257,12.257,0,0,0-.972-2.343l1.115-1.8L39.718,2.918l-1.8,1.116a12.379,12.379,0,0,0-2.344-.972L35.086,1H28.914l-.485,2.062a12.341,12.341,0,0,0-2.344.972l-1.8-1.116L19.919,7.282l1.115,1.8a12.386,12.386,0,0,0-.972,2.343L18,11.915v6.223l2.063.486c.049.163.12.321.176.483A7.9,7.9,0,0,0,19,19a7.994,7.994,0,0,0-4.354,14.7A14.018,14.018,0,0,0,5,47v4H20.527A13.911,13.911,0,0,0,18,59v4H46V59a13.911,13.911,0,0,0-2.527-8H59ZM47,36c0,1.626-.916,3-2,3s-2-1.374-2-3a4.013,4.013,0,0,1,.1-.844,11.31,11.31,0,0,1,3.8.01A4.057,4.057,0,0,1,47,36ZM32,45a6,6,0,1,1,6-6A6.006,6.006,0,0,1,32,45Zm-7.784-8.8c.085.041.171.079.255.122a7.655,7.655,0,0,0-.375,3.853L22.764,43.1,20.34,40.075ZM32,31a8,8,0,0,0-6.633,3.533,13.983,13.983,0,0,0-2.011-.832A8,8,0,0,0,27,27c0-.186-.015-.368-.028-.55a12.532,12.532,0,0,0,1.457.539l.485,2.062h6.172l.485-2.062a12.532,12.532,0,0,0,1.457-.539c-.013.182-.028.364-.028.55a8,8,0,0,0,3.644,6.7,13.909,13.909,0,0,0-2.01.833A8,8,0,0,0,32,31Zm19-4a6,6,0,1,1-6-6,6.006,6.006,0,0,1,6,6ZM21.843,17.548l-.146-.595-1.7-.4V13.5l1.7-.4.146-.6a10.362,10.362,0,0,1,1.21-2.919l.317-.523-.918-1.483,2.125-2.125,1.483.918.523-.318a10.366,10.366,0,0,1,2.92-1.21L30.1,4.7,30.5,3h3l.4,1.7.6.146a10.4,10.4,0,0,1,2.92,1.21l.523.318,1.483-.918,2.125,2.125L40.63,9.061l.317.523a10.362,10.362,0,0,1,1.21,2.919l.146.6,1.7.4v3.056l-1.7.4-.146.595a10.306,10.306,0,0,1-.945,2.408,8.051,8.051,0,0,0-3.568,3.9L37.417,24a10.366,10.366,0,0,1-2.92,1.21l-.6.146-.4,1.7h-3l-.4-1.7-.595-.146A10.385,10.385,0,0,1,26.585,24l-.228-.138a8.049,8.049,0,0,0-3.568-3.9,10.217,10.217,0,0,1-.946-2.406ZM13,27a6,6,0,1,1,6,6,6.006,6.006,0,0,1-6-6Zm9.161,8.425L19,38.586l-3.152-3.152a11.814,11.814,0,0,1,6.313-.009Zm-4.5,4.649L15.236,43.1l-2.792-6.142a11.994,11.994,0,0,1,1.348-.756ZM7,47a11.955,11.955,0,0,1,3.828-8.762L14.764,46.9,19,41.6l4.236,5.3,1.8-3.967A8.059,8.059,0,0,0,27.645,45.7,14,14,0,0,0,22.22,49H12V43H10v6H7Zm25,0a11.911,11.911,0,0,1,4.879,1.047L32,59.455,27.121,48.046A11.926,11.926,0,0,1,32,47ZM20,59a11.994,11.994,0,0,1,5.358-9.986L30.484,61H25V55H23v6H20Zm24,2H41V55H39v6H33.516l5.126-11.986A11.994,11.994,0,0,1,44,59ZM57,49H54V43H52v6H41.779a14.01,14.01,0,0,0-5.425-3.3,7.95,7.95,0,0,0,3.175-9.38,11.786,11.786,0,0,1,1.5-.644c-.006.107-.028.214-.028.322,0,2.757,1.794,5,4,5s4-2.243,4-5c0-.1-.021-.206-.027-.31A12.011,12.011,0,0,1,57,47Z"/>
      <path id="Trazado_910473" data-name="Trazado 910473" d="M32,19a4,4,0,1,0-4-4A4,4,0,0,0,32,19Zm0-6a2,2,0,1,1-2,2A2,2,0,0,1,32,13Z"/>
      <path id="Trazado_910474" data-name="Trazado 910474" d="M32,23a8,8,0,1,0-8-8A8.009,8.009,0,0,0,32,23ZM32,9a6,6,0,1,1-6,6A6.006,6.006,0,0,1,32,9Z"/>
    </g>
  </g>
</svg>
