<svg xmlns="http://www.w3.org/2000/svg" xmlns:xlink="http://www.w3.org/1999/xlink" width="102.949" height="102.949" viewBox="0 0 102.949 102.949">
  <defs>
    <filter id="Trazado_874925" x="0" y="0" width="102.949" height="102.949" filterUnits="userSpaceOnUse">
      <feOffset dy="3" input="SourceAlpha"/>
      <feGaussianBlur stdDeviation="3" result="blur"/>
      <feFlood flood-opacity="0.161"/>
      <feComposite operator="in" in2="blur"/>
      <feComposite in="SourceGraphic"/>
    </filter>
  </defs>
  <g id="Grupo_1182202" data-name="Grupo 1182202" transform="translate(-1222.051 -10206)">
    <g id="Grupo_1181908" data-name="Grupo 1181908" transform="translate(422.551 7694.843)">
      <g id="Grupo_1111316" data-name="Grupo 1111316" transform="translate(808.5 2517.157)">
        <g id="Grupo_1109835" data-name="Grupo 1109835" transform="translate(0 0)">
          <g id="Grupo_1107913" data-name="Grupo 1107913" transform="translate(0 0)">
            <g transform="matrix(1, 0, 0, 1, -9, -6)" filter="url(#Trazado_874925)">
              <g id="Trazado_874925-2" data-name="Trazado 874925" transform="translate(9 6)" fill="#4c6929" opacity="0.859">
                <path d="M 42.47446823120117 83.44929504394531 C 36.94229125976562 83.44929504394531 31.57638549804688 82.36614227294922 26.52582168579102 80.22994232177734 C 21.64678573608398 78.16628265380859 17.26464462280273 75.211669921875 13.50113868713379 71.44816589355469 C 9.737632751464844 67.68466949462891 6.78300952911377 63.30253982543945 4.719362258911133 58.42351913452148 C 2.583150625228882 53.37295150756836 1.499997615814209 48.00706100463867 1.499997615814209 42.47489547729492 C 1.499997615814209 36.94223403930664 2.583150625228882 31.57634162902832 4.719362258911133 26.52577781677246 C 6.78300952911377 21.64675331115723 9.737632751464844 17.26462364196777 13.50113868713379 13.50113010406494 C 17.26464462280273 9.737624168395996 21.64678573608398 6.783012390136719 26.52582168579102 4.719353199005127 C 31.57638549804688 2.583153486251831 36.94229125976562 1.500000476837158 42.47446823120117 1.500000476837158 C 48.00664520263672 1.500000476837158 53.37255096435547 2.583153486251831 58.42311477661133 4.719353199005127 C 63.30215072631836 6.783012390136719 67.68428802490234 9.737624168395996 71.44779968261719 13.50113010406494 C 75.2113037109375 17.26462364196777 78.16592407226562 21.64675331115723 80.22957611083984 26.52577781677246 C 82.36578369140625 31.57634162902832 83.44893646240234 36.94223403930664 83.44893646240234 42.47439956665039 C 83.44893646240234 48.00706100463867 82.36578369140625 53.37295150756836 80.22957611083984 58.42351913452148 C 78.16592407226562 63.30253982543945 75.2113037109375 67.68466949462891 71.44779968261719 71.44816589355469 C 67.68428802490234 75.211669921875 63.30215072631836 78.16628265380859 58.42311477661133 80.22994232177734 C 53.37255096435547 82.36614227294922 48.00664520263672 83.44929504394531 42.47446823120117 83.44929504394531 Z" stroke="none"/>
                <path d="M 42.47446823120117 2.999992370605469 C 37.14412307739258 2.999992370605469 31.97481536865234 4.04327392578125 27.11014938354492 6.100860595703125 C 22.40990829467773 8.088890075683594 18.18804168701172 10.93555450439453 14.56179809570312 14.56178283691406 C 10.93557739257812 18.18801116943359 8.088897705078125 22.40987396240234 6.100868225097656 27.11009979248047 C 4.043281555175781 31.97476577758789 3 37.14406204223633 3 42.47488784790039 C 3 47.80522155761719 4.043281555175781 52.97451400756836 6.100868225097656 57.83917999267578 C 8.088897705078125 62.53940582275391 10.93557739257812 66.76127624511719 14.56179809570312 70.38749694824219 C 18.18804168701172 74.01372528076172 22.40990829467773 76.86039733886719 27.11014938354492 78.84841918945312 C 31.97481536865234 80.906005859375 37.14412307739258 81.94928741455078 42.47446823120117 81.94928741455078 C 47.80481338500977 81.94928741455078 52.97412109375 80.906005859375 57.83879089355469 78.84841918945312 C 62.53902816772461 76.86039733886719 66.76089477539062 74.01372528076172 70.38713073730469 70.38749694824219 C 74.01335906982422 66.76127624511719 76.86003875732422 62.53940582275391 78.84806823730469 57.83917999267578 C 80.90565490722656 52.97451400756836 81.94893646240234 47.80522155761719 81.94893646240234 42.47439575195312 C 81.94893646240234 37.14406204223633 80.90565490722656 31.97476577758789 78.84806823730469 27.11009979248047 C 76.86003875732422 22.40987396240234 74.01335906982422 18.18801116943359 70.38713073730469 14.56178283691406 C 66.76089477539062 10.93555450439453 62.53902816772461 8.088890075683594 57.83879089355469 6.100860595703125 C 52.97412109375 4.04327392578125 47.80481338500977 2.999992370605469 42.47446823120117 2.999992370605469 M 42.47446823120117 -7.62939453125e-06 C 65.93246459960938 -7.62939453125e-06 84.94893646240234 19.01643371582031 84.94893646240234 42.47439575195312 L 84.94893646240234 42.47488784790039 C 84.94893646240234 65.93284606933594 65.93246459960938 84.94928741455078 42.47446823120117 84.94928741455078 C 19.01647186279297 84.94928741455078 0 65.93284606933594 0 42.47488784790039 L 0 42.47439575195312 C 0 19.01643371582031 19.01647186279297 -7.62939453125e-06 42.47446823120117 -7.62939453125e-06 Z" stroke="none" fill="#fff"/>
              </g>
            </g>
            <g id="Trazado_874923" data-name="Trazado 874923" transform="translate(0 0)" fill="none">
              <path d="M42.474,0A42.474,42.474,0,0,1,84.949,42.474h0A42.474,42.474,0,0,1,0,42.475H0A42.474,42.474,0,0,1,42.474,0Z" stroke="none"/>
              <path d="M 42.47446823120117 2.999992370605469 C 37.14412307739258 2.999992370605469 31.97481536865234 4.04327392578125 27.11014938354492 6.100860595703125 C 22.40990829467773 8.088890075683594 18.18804168701172 10.93555450439453 14.56179809570312 14.56178283691406 C 10.93557739257812 18.18801116943359 8.088897705078125 22.40987396240234 6.100868225097656 27.11009979248047 C 4.043281555175781 31.97476577758789 3 37.14406204223633 3 42.47488784790039 C 3 47.80522155761719 4.043281555175781 52.97451400756836 6.100868225097656 57.83917999267578 C 8.088897705078125 62.53940582275391 10.93557739257812 66.76127624511719 14.56179809570312 70.38749694824219 C 18.18804168701172 74.01372528076172 22.40990829467773 76.86039733886719 27.11014938354492 78.84841918945312 C 31.97481536865234 80.906005859375 37.14412307739258 81.94928741455078 42.47446823120117 81.94928741455078 C 47.80481338500977 81.94928741455078 52.97412109375 80.906005859375 57.83879089355469 78.84841918945312 C 62.53902816772461 76.86039733886719 66.76089477539062 74.01372528076172 70.38713073730469 70.38749694824219 C 74.01335906982422 66.76127624511719 76.86003875732422 62.53940582275391 78.84806823730469 57.83917999267578 C 80.90565490722656 52.97451400756836 81.94893646240234 47.80522155761719 81.94893646240234 42.47439575195312 C 81.94893646240234 37.14406204223633 80.90565490722656 31.97476577758789 78.84806823730469 27.11009979248047 C 76.86003875732422 22.40987396240234 74.01335906982422 18.18801116943359 70.38713073730469 14.56178283691406 C 66.76089477539062 10.93555450439453 62.53902816772461 8.088890075683594 57.83879089355469 6.100860595703125 C 52.97412109375 4.04327392578125 47.80481338500977 2.999992370605469 42.47446823120117 2.999992370605469 M 42.47446823120117 -7.62939453125e-06 C 65.93246459960938 -7.62939453125e-06 84.94893646240234 19.01643371582031 84.94893646240234 42.47439575195312 L 84.94893646240234 42.47488784790039 C 84.94893646240234 65.93284606933594 65.93246459960938 84.94928741455078 42.47446823120117 84.94928741455078 C 19.01647186279297 84.94928741455078 0 65.93284606933594 0 42.47488784790039 L 0 42.47439575195312 C 0 19.01643371582031 19.01647186279297 -7.62939453125e-06 42.47446823120117 -7.62939453125e-06 Z" stroke="none" fill="#fff"/>
            </g>
          </g>
        </g>
      </g>
    </g>
    <g id="credibilidad" transform="translate(1250.051 10231)">
      <path id="Trazado_910395" data-name="Trazado 910395" d="M7.767,50.391H2V41.8A7.205,7.205,0,0,1,6.808,35l.166-.058,4.592-1.622a14.5,14.5,0,0,0,4.643,8.4l.209.18-1.442,1.283v7.209Z" transform="translate(-0.279 -9.021)" fill="#ff826e"/>
      <path id="Trazado_910396" data-name="Trazado 910396" d="M30.092,50.391H20V43.182L21.442,41.9l.209-.18a14.5,14.5,0,0,0,4.643-8.4l4.592,1.622.166.058a7.234,7.234,0,0,1,2.3,1.334,8.667,8.667,0,0,0,2.523,8.99l-.014.022v5.046Z" transform="translate(-5.303 -9.021)" fill="#ff826e"/>
      <path id="Trazado_910397" data-name="Trazado 910397" d="M21.182,38l2.112,2.963a14.283,14.283,0,0,1-1.9,2.062l-.209.18-.209-.18a14.283,14.283,0,0,1-1.9-2.062Z" transform="translate(-5.044 -10.327)" fill="#e6e9ed"/>
      <path id="Trazado_910398" data-name="Trazado 910398" d="M25.6,32.529l1.247.44A14.4,14.4,0,0,1,24.112,39.3L22,36.342l2.848-4.275.007-.007a2.03,2.03,0,0,0,.75.469Z" transform="translate(-5.861 -8.669)" fill="#ccd1d9"/>
      <path id="Trazado_910399" data-name="Trazado 910399" d="M17.274,32.067l2.848,4.275L18.009,39.3a14.4,14.4,0,0,1-2.739-6.337l1.247-.44a2.03,2.03,0,0,0,.75-.469Z" transform="translate(-3.983 -8.669)" fill="#ccd1d9"/>
      <path id="Trazado_910400" data-name="Trazado 910400" d="M55.58,3.442v9.372a1.446,1.446,0,0,1-1.442,1.442h-3.6l-2.465,3.7a1.409,1.409,0,0,1-2.581-.779v-2.92H40.442A1.446,1.446,0,0,1,39,12.813V3.442A1.446,1.446,0,0,1,40.442,2h13.7A1.446,1.446,0,0,1,55.58,3.442Z" transform="translate(-10.606 -0.279)" fill="#e6e9ed"/>
      <path id="Trazado_910401" data-name="Trazado 910401" d="M23.749,31.359l-.007.007-2.848,4.275-2.848-4.275-.007-.007a2.114,2.114,0,0,0,.692-1.572V29.55A9.52,9.52,0,0,0,20.895,30.6a9.52,9.52,0,0,0,2.163-1.045v.238a2.114,2.114,0,0,0,.692,1.572Z" transform="translate(-4.756 -7.969)" fill="#f0d0b4"/>
      <path id="Trazado_910402" data-name="Trazado 910402" d="M25.976,14.163v2.53a9.514,9.514,0,0,1-6.488,9,9.514,9.514,0,0,1-6.488-9v-2.53h1.269A7.389,7.389,0,0,0,19.488,12a7.377,7.377,0,0,0,5.219,2.163Z" transform="translate(-3.349 -3.07)" fill="#f0d0b4"/>
      <path id="Trazado_910403" data-name="Trazado 910403" d="M46.651,29A8.655,8.655,0,1,1,38,37.651a8.546,8.546,0,0,1,.375-2.523A8.655,8.655,0,0,1,46.651,29Z" transform="translate(-10.327 -7.815)" fill="#fcd770"/>
      <path id="Trazado_910404" data-name="Trazado 910404" d="M53.534,49.992v7.93L47.767,56.48,42,57.921v-7.93l.014-.022a8.667,8.667,0,0,0,11.505,0Z" transform="translate(-11.444 -13.668)" fill="#b4dd7f"/>
      <path id="Trazado_910405" data-name="Trazado 910405" d="M47.767,33A5.767,5.767,0,1,1,42,38.767,5.766,5.766,0,0,1,47.767,33Z" transform="translate(-11.444 -8.932)" fill="#ffeaa7"/>
      <path id="Trazado_910406" data-name="Trazado 910406" d="M51.767,39.682l-1.211.908.469,1.478a2.9,2.9,0,0,1-.923.7l-1.218-.916-1.218.916a2.9,2.9,0,0,1-.923-.7l.469-1.478L46,39.682a3.558,3.558,0,0,1,.382-1.24l1.478.007.454-1.391a2.841,2.841,0,0,1,1.139,0l.469,1.391,1.384-.007A3.67,3.67,0,0,1,51.767,39.682Z" transform="translate(-12.56 -10.048)" fill="#ff826e"/>
      <path id="Trazado_910407" data-name="Trazado 910407" d="M28.627,23.619c0,1.355-1.081,1.535-1.37,2.581l-4.592-1.622-1.247-.44a2.03,2.03,0,0,1-.75-.469,2.114,2.114,0,0,1-.692-1.572v-.238A9.481,9.481,0,0,0,24.3,13.9v-2.53H23.033a7.377,7.377,0,0,1-5.219-2.163,7.389,7.389,0,0,1-5.219,2.163H11.325V13.9a9.481,9.481,0,0,0,4.325,7.959V22.1a2.114,2.114,0,0,1-.692,1.572,2.03,2.03,0,0,1-.75.469l-1.247.44L8.37,26.2C8.081,25.155,7,24.975,7,23.619c0-1.557,1.442-1.557,1.442-3.121S7,18.941,7,17.377s1.442-1.557,1.442-3.121V9.3A3.8,3.8,0,0,1,11.325,5.6l.252-.317a8.765,8.765,0,0,1,15.607,5.479v3.489c0,1.564,1.442,1.564,1.442,3.121s-1.442,1.564-1.442,3.121S28.627,22.062,28.627,23.619Z" transform="translate(-1.675 -0.279)" fill="#656d78"/>
      <path id="Trazado_910408" data-name="Trazado 910408" d="M23,52h1.442v1.442H23Z" transform="translate(-6.14 -14.235)"/>
      <path id="Trazado_910409" data-name="Trazado 910409" d="M23,48h1.442v1.442H23Z" transform="translate(-6.14 -13.118)"/>
      <path id="Trazado_910410" data-name="Trazado 910410" d="M51.44,37.438l-1.3.009-.433-1.289-.405-.084a3.489,3.489,0,0,0-1.43,0l-.408.084-.425,1.287-1.38-.006-.205.378a4.357,4.357,0,0,0-.466,1.5l-.045.408,1.13.851-.433,1.383.271.3a3.635,3.635,0,0,0,1.152.871l.4.189,1.13-.853,1.13.852.4-.189a3.614,3.614,0,0,0,1.152-.871l.271-.3L51.1,40.58l1.13-.851-.045-.408a4.252,4.252,0,0,0-.543-1.5Zm-2.016,2.6.482,1.538-.055.043-1.262-.951-1.262.951-.055-.043.482-1.538L46.5,39.094c.019-.071.04-.141.063-.209l1.523.006.477-1.45h.061L49.11,38.9l1.459-.011c.035.079.066.154.091.225Z" transform="translate(-12.265 -9.769)"/>
      <path id="Trazado_910411" data-name="Trazado 910411" d="M47.488,32a6.488,6.488,0,1,0,6.488,6.488A6.5,6.5,0,0,0,47.488,32Zm0,11.534a5.046,5.046,0,1,1,5.046-5.046A5.052,5.052,0,0,1,47.488,43.534Z" transform="translate(-11.164 -8.652)"/>
      <path id="Trazado_910412" data-name="Trazado 910412" d="M36.324,20.464a9.384,9.384,0,0,0-8.619,5.7,7.813,7.813,0,0,0-1.08-.6c.047-.053.086-.1.138-.161a2.764,2.764,0,0,0,0-4.1,1.349,1.349,0,0,1,0-2.142,2.759,2.759,0,0,0,0-4.1,1.4,1.4,0,0,1-.529-1.072V10.485A9.485,9.485,0,0,0,9.34,4.56l-.107.134A4.522,4.522,0,0,0,6.046,9.018v4.958a1.4,1.4,0,0,1-.529,1.072,2.759,2.759,0,0,0,0,4.1,1.349,1.349,0,0,1,0,2.142,2.765,2.765,0,0,0,0,4.1c.053.058.092.108.138.161A7.942,7.942,0,0,0,1,32.773v9.318H29.836v3.086l6.488-1.622,6.488,1.622V36.582a9.361,9.361,0,0,0-6.488-16.118ZM6.575,22.27a2.759,2.759,0,0,0,0-4.1,1.35,1.35,0,0,1,0-2.143,2.792,2.792,0,0,0,.913-2.05V9.018A3.082,3.082,0,0,1,9.825,6.025l.236-.059.4-.505a8.043,8.043,0,0,1,14.323,5.025v3.491a2.792,2.792,0,0,0,.913,2.05,1.35,1.35,0,0,1,0,2.143,2.759,2.759,0,0,0,0,4.1,1.355,1.355,0,0,1,0,2.148,4.724,4.724,0,0,0-.487.6l-5.231-1.846a1.433,1.433,0,0,1-.941-1.228,10.19,10.19,0,0,0,4.3-8.323V10.372H21.359A6.618,6.618,0,0,1,16.648,8.42l-.51-.51-.51.51a6.618,6.618,0,0,1-4.711,1.951H8.93v3.253a10.192,10.192,0,0,0,4.3,8.324,1.436,1.436,0,0,1-.941,1.228L7.062,25.024a4.663,4.663,0,0,0-.487-.6,1.356,1.356,0,0,1,0-2.149Zm9.563,9.623A13.686,13.686,0,0,1,14.93,30.6l1.209-1.692L17.348,30.6A13.686,13.686,0,0,1,16.139,31.893Zm0-10.03a8.756,8.756,0,0,1-5.767-8.238V11.813h.546a8.041,8.041,0,0,0,5.221-1.905,8.042,8.042,0,0,0,5.221,1.905h.546v1.812A8.756,8.756,0,0,1,16.139,21.863Zm-.228,1.448.228.076.228-.076a10.335,10.335,0,0,0,1.368-.573,2.9,2.9,0,0,0,.355.71l-1.951,2.925-1.951-2.927a2.866,2.866,0,0,0,.355-.709,10.212,10.212,0,0,0,1.368.574Zm-3.138,1.226a3.02,3.02,0,0,0,.316-.14l2.175,3.262-1.229,1.721a13.731,13.731,0,0,1-1.909-4.614Zm5.471,4.844-1.229-1.721L19.19,24.4a2.943,2.943,0,0,0,.315.14l.648.229A13.731,13.731,0,0,1,18.244,29.38Zm-15.8,3.393a6.5,6.5,0,0,1,4.329-6.118l3.984-1.406a15.176,15.176,0,0,0,4.316,7.615l-1.1.973v6.812H8.209V30.556H6.767V40.649H2.442ZM25.51,40.649V31.277H24.068v9.372H15.418V34.485l1.406-1.251a15.177,15.177,0,0,0,4.7-7.985l3.984,1.406a6.417,6.417,0,0,1,1.729.935,9.268,9.268,0,0,0,2.6,8.992v4.067ZM41.37,43.33l-5.046-1.262L31.277,43.33V37.72a9.3,9.3,0,0,0,10.092,0Zm-5.046-5.565a7.93,7.93,0,1,1,7.93-7.93A7.939,7.939,0,0,1,36.324,37.765Z" transform="translate(0 0)"/>
      <path id="Trazado_910413" data-name="Trazado 910413" d="M53.86,1h-13.7A2.165,2.165,0,0,0,38,3.163v9.372A2.165,2.165,0,0,0,40.163,14.7h4.325v2.2a2.13,2.13,0,0,0,3.9,1.182L50.641,14.7H53.86a2.165,2.165,0,0,0,2.163-2.163V3.163A2.165,2.165,0,0,0,53.86,1Zm.721,11.534a.722.722,0,0,1-.721.721h-3.99l-2.68,4.019a.688.688,0,0,1-1.26-.381V13.255H40.163a.722.722,0,0,1-.721-.721V3.163a.722.722,0,0,1,.721-.721h13.7a.722.722,0,0,1,.721.721Z" transform="translate(-10.327)"/>
      <path id="Trazado_910414" data-name="Trazado 910414" d="M47.965,10.55,46.312,8.9,45.293,9.917l2.672,2.672,6.277-6.277L53.223,5.293Z" transform="translate(-12.363 -1.198)"/>
    </g>
  </g>
</svg>
