<svg xmlns="http://www.w3.org/2000/svg" xmlns:xlink="http://www.w3.org/1999/xlink" width="102.949" height="102.949" viewBox="0 0 102.949 102.949">
  <defs>
    <filter id="Trazado_874925" x="0" y="0" width="102.949" height="102.949" filterUnits="userSpaceOnUse">
      <feOffset dy="3" input="SourceAlpha"/>
      <feGaussianBlur stdDeviation="3" result="blur"/>
      <feFlood flood-opacity="0.161"/>
      <feComposite operator="in" in2="blur"/>
      <feComposite in="SourceGraphic"/>
    </filter>
  </defs>
  <g id="Grupo_1182280" data-name="Grupo 1182280" transform="translate(-275.704 -2527.072)">
    <g id="Grupo_1181959" data-name="Grupo 1181959" transform="translate(-523.796 15.915)">
      <g id="Grupo_1111316" data-name="Grupo 1111316" transform="translate(808.5 2517.157)">
        <g id="Grupo_1109835" data-name="Grupo 1109835" transform="translate(0 0)">
          <g id="Grupo_1107913" data-name="Grupo 1107913" transform="translate(0 0)">
            <g transform="matrix(1, 0, 0, 1, -9, -6)" filter="url(#Trazado_874925)">
              <g id="Trazado_874925-2" data-name="Trazado 874925" transform="translate(9 6)" fill="#9ad354" opacity="0.859">
                <path d="M 42.47446823120117 83.44929504394531 C 36.94229125976562 83.44929504394531 31.57638549804688 82.36614227294922 26.52582168579102 80.22994232177734 C 21.64678573608398 78.16628265380859 17.26464462280273 75.211669921875 13.50113868713379 71.44816589355469 C 9.737632751464844 67.68466949462891 6.78300952911377 63.30253982543945 4.719362258911133 58.42351913452148 C 2.583150625228882 53.37295150756836 1.499997615814209 48.00706100463867 1.499997615814209 42.47489547729492 C 1.499997615814209 36.94223403930664 2.583150625228882 31.57634162902832 4.719362258911133 26.52577781677246 C 6.78300952911377 21.64675331115723 9.737632751464844 17.26462364196777 13.50113868713379 13.50113010406494 C 17.26464462280273 9.737624168395996 21.64678573608398 6.783012390136719 26.52582168579102 4.719353199005127 C 31.57638549804688 2.583153486251831 36.94229125976562 1.500000476837158 42.47446823120117 1.500000476837158 C 48.00664520263672 1.500000476837158 53.37255096435547 2.583153486251831 58.42311477661133 4.719353199005127 C 63.30215072631836 6.783012390136719 67.68428802490234 9.737624168395996 71.44779968261719 13.50113010406494 C 75.2113037109375 17.26462364196777 78.16592407226562 21.64675331115723 80.22957611083984 26.52577781677246 C 82.36578369140625 31.57634162902832 83.44893646240234 36.94223403930664 83.44893646240234 42.47439956665039 C 83.44893646240234 48.00706100463867 82.36578369140625 53.37295150756836 80.22957611083984 58.42351913452148 C 78.16592407226562 63.30253982543945 75.2113037109375 67.68466949462891 71.44779968261719 71.44816589355469 C 67.68428802490234 75.211669921875 63.30215072631836 78.16628265380859 58.42311477661133 80.22994232177734 C 53.37255096435547 82.36614227294922 48.00664520263672 83.44929504394531 42.47446823120117 83.44929504394531 Z" stroke="none"/>
                <path d="M 42.47446823120117 2.999992370605469 C 37.14412307739258 2.999992370605469 31.97481536865234 4.04327392578125 27.11014938354492 6.100860595703125 C 22.40990829467773 8.088890075683594 18.18804168701172 10.93555450439453 14.56179809570312 14.56178283691406 C 10.93557739257812 18.18801116943359 8.088897705078125 22.40987396240234 6.100868225097656 27.11009979248047 C 4.043281555175781 31.97476577758789 3 37.14406204223633 3 42.47488784790039 C 3 47.80522155761719 4.043281555175781 52.97451400756836 6.100868225097656 57.83917999267578 C 8.088897705078125 62.53940582275391 10.93557739257812 66.76127624511719 14.56179809570312 70.38749694824219 C 18.18804168701172 74.01372528076172 22.40990829467773 76.86039733886719 27.11014938354492 78.84841918945312 C 31.97481536865234 80.906005859375 37.14412307739258 81.94928741455078 42.47446823120117 81.94928741455078 C 47.80481338500977 81.94928741455078 52.97412109375 80.906005859375 57.83879089355469 78.84841918945312 C 62.53902816772461 76.86039733886719 66.76089477539062 74.01372528076172 70.38713073730469 70.38749694824219 C 74.01335906982422 66.76127624511719 76.86003875732422 62.53940582275391 78.84806823730469 57.83917999267578 C 80.90565490722656 52.97451400756836 81.94893646240234 47.80522155761719 81.94893646240234 42.47439575195312 C 81.94893646240234 37.14406204223633 80.90565490722656 31.97476577758789 78.84806823730469 27.11009979248047 C 76.86003875732422 22.40987396240234 74.01335906982422 18.18801116943359 70.38713073730469 14.56178283691406 C 66.76089477539062 10.93555450439453 62.53902816772461 8.088890075683594 57.83879089355469 6.100860595703125 C 52.97412109375 4.04327392578125 47.80481338500977 2.999992370605469 42.47446823120117 2.999992370605469 M 42.47446823120117 -7.62939453125e-06 C 65.93246459960938 -7.62939453125e-06 84.94893646240234 19.01643371582031 84.94893646240234 42.47439575195312 L 84.94893646240234 42.47488784790039 C 84.94893646240234 65.93284606933594 65.93246459960938 84.94928741455078 42.47446823120117 84.94928741455078 C 19.01647186279297 84.94928741455078 0 65.93284606933594 0 42.47488784790039 L 0 42.47439575195312 C 0 19.01643371582031 19.01647186279297 -7.62939453125e-06 42.47446823120117 -7.62939453125e-06 Z" stroke="none" fill="#fff"/>
              </g>
            </g>
            <g id="Trazado_874923" data-name="Trazado 874923" transform="translate(0 0)" fill="none">
              <path d="M42.474,0A42.474,42.474,0,0,1,84.949,42.474h0A42.474,42.474,0,0,1,0,42.475H0A42.474,42.474,0,0,1,42.474,0Z" stroke="none"/>
              <path d="M 42.47446823120117 2.999992370605469 C 37.14412307739258 2.999992370605469 31.97481536865234 4.04327392578125 27.11014938354492 6.100860595703125 C 22.40990829467773 8.088890075683594 18.18804168701172 10.93555450439453 14.56179809570312 14.56178283691406 C 10.93557739257812 18.18801116943359 8.088897705078125 22.40987396240234 6.100868225097656 27.11009979248047 C 4.043281555175781 31.97476577758789 3 37.14406204223633 3 42.47488784790039 C 3 47.80522155761719 4.043281555175781 52.97451400756836 6.100868225097656 57.83917999267578 C 8.088897705078125 62.53940582275391 10.93557739257812 66.76127624511719 14.56179809570312 70.38749694824219 C 18.18804168701172 74.01372528076172 22.40990829467773 76.86039733886719 27.11014938354492 78.84841918945312 C 31.97481536865234 80.906005859375 37.14412307739258 81.94928741455078 42.47446823120117 81.94928741455078 C 47.80481338500977 81.94928741455078 52.97412109375 80.906005859375 57.83879089355469 78.84841918945312 C 62.53902816772461 76.86039733886719 66.76089477539062 74.01372528076172 70.38713073730469 70.38749694824219 C 74.01335906982422 66.76127624511719 76.86003875732422 62.53940582275391 78.84806823730469 57.83917999267578 C 80.90565490722656 52.97451400756836 81.94893646240234 47.80522155761719 81.94893646240234 42.47439575195312 C 81.94893646240234 37.14406204223633 80.90565490722656 31.97476577758789 78.84806823730469 27.11009979248047 C 76.86003875732422 22.40987396240234 74.01335906982422 18.18801116943359 70.38713073730469 14.56178283691406 C 66.76089477539062 10.93555450439453 62.53902816772461 8.088890075683594 57.83879089355469 6.100860595703125 C 52.97412109375 4.04327392578125 47.80481338500977 2.999992370605469 42.47446823120117 2.999992370605469 M 42.47446823120117 -7.62939453125e-06 C 65.93246459960938 -7.62939453125e-06 84.94893646240234 19.01643371582031 84.94893646240234 42.47439575195312 L 84.94893646240234 42.47488784790039 C 84.94893646240234 65.93284606933594 65.93246459960938 84.94928741455078 42.47446823120117 84.94928741455078 C 19.01647186279297 84.94928741455078 0 65.93284606933594 0 42.47488784790039 L 0 42.47439575195312 C 0 19.01643371582031 19.01647186279297 -7.62939453125e-06 42.47446823120117 -7.62939453125e-06 Z" stroke="none" fill="#fff"/>
            </g>
          </g>
        </g>
      </g>
    </g>
    <g id="observar" transform="translate(262.169 2550.992)">
      <rect id="Rectángulo_408448" data-name="Rectángulo 408448" width="28.794" height="40.876" transform="translate(54.747 7.513)" fill="#59b6d6"/>
      <rect id="Rectángulo_408449" data-name="Rectángulo 408449" width="28.792" height="40.876" transform="translate(49.327 5.071)" fill="#c0e8f4"/>
      <rect id="Rectángulo_408450" data-name="Rectángulo 408450" width="3.858" height="5.764" transform="translate(70.445 8.752)" fill="#fad06a"/>
      <rect id="Rectángulo_408451" data-name="Rectángulo 408451" width="2.847" height="6.598" transform="translate(68.152 22.642) rotate(135)" fill="#2c394b"/>
      <circle id="Elipse_11681" data-name="Elipse 11681" cx="11.198" cy="11.198" r="11.198" transform="translate(44.216 0.719)" fill="#ec7462"/>
      <circle id="Elipse_11682" data-name="Elipse 11682" cx="8.509" cy="8.509" r="8.509" transform="translate(46.906 3.409)" fill="#59b6d6"/>
      <circle id="Elipse_11683" data-name="Elipse 11683" cx="6.59" cy="6.59" r="6.59" transform="translate(48.824 5.327)" fill="#c0e8f4"/>
      <rect id="Rectángulo_408452" data-name="Rectángulo 408452" width="4.914" height="19.543" transform="translate(81.504 34.532) rotate(135)" fill="#4b596e"/>
      <rect id="Rectángulo_408453" data-name="Rectángulo 408453" width="1.891" height="19.543" transform="translate(81.503 34.533) rotate(135)" fill="#2c394b"/>
      <rect id="Rectángulo_408454" data-name="Rectángulo 408454" width="4.915" height="3.3" transform="translate(74.042 27.07) rotate(135)" fill="#ec7462"/>
      <rect id="Rectángulo_408455" data-name="Rectángulo 408455" width="1.891" height="3.3" transform="translate(74.04 27.069) rotate(135)" fill="#db4e40"/>
      <path id="Trazado_910705" data-name="Trazado 910705" d="M83.544,43.449a.719.719,0,0,0,.719-.719V7.513a.719.719,0,0,0-.719-.719h-4.7V5.071a.719.719,0,0,0-.719-.719H75.294a.719.719,0,1,0,0,1.439H77.4V29.41l-2.85-2.85h0l-2.334-2.334h0L68.194,20.2a.72.72,0,0,0-1.018,0l-.222.222-1.733-1.732a11.939,11.939,0,0,0,.42-12.9h6.222a.719.719,0,1,0,0-1.439H64.624q-.368-.446-.782-.861A11.921,11.921,0,0,0,45.01,17.741a.719.719,0,0,0,1.255-.7A10.482,10.482,0,0,1,62.824,4.508a10.66,10.66,0,0,1,.866.979c.011.016.023.031.035.046a10.484,10.484,0,0,1,0,12.771c-.014.017-.027.034-.039.052a10.63,10.63,0,0,1-1.863,1.855l-.017.013A10.5,10.5,0,0,1,48,19.328a.719.719,0,1,0-1.017,1.017A12.059,12.059,0,0,0,48.606,21.7V45.947a.719.719,0,0,0,.719.719h4.7v1.723a.719.719,0,0,0,.719.719h28.8a.719.719,0,0,0,.719-.719V45.947a.719.719,0,0,0-1.439,0V47.67H55.465v-1H78.12a.719.719,0,0,0,.719-.719V38.216l3.176-3.175a.719.719,0,0,0,0-1.017L78.84,30.849V8.232h3.985v34.5A.719.719,0,0,0,83.544,43.449ZM69.25,28.21l2.458-2.458,1.317,1.316-2.458,2.458Zm1.44-3.475-2.458,2.458-3.005-3,2.458-2.458Zm-4.754-3.291-1,1-1.612-1.612q.262-.233.513-.483t.483-.513ZM50.044,45.228V22.565a11.953,11.953,0,0,0,12.146-.84l1.733,1.732-.222.222a.719.719,0,0,0,0,1.017l4.022,4.022h0l2.334,2.334h0L77.4,38.394v6.833ZM78.031,36.99l-6.447-6.446,2.458-2.458,6.447,6.446Z"/>
      <path id="Trazado_910706" data-name="Trazado 910706" d="M148.987,309.224H138.2a.719.719,0,1,0,0,1.439h10.786a.719.719,0,1,0,0-1.439Z" transform="translate(-84.968 -279.565)"/>
      <path id="Trazado_910707" data-name="Trazado 910707" d="M148.987,349.473H138.2a.719.719,0,1,0,0,1.439h10.786a.719.719,0,1,0,0-1.439Z" transform="translate(-84.968 -315.953)"/>
      <path id="Trazado_910708" data-name="Trazado 910708" d="M148.987,389.722H138.2a.719.719,0,1,0,0,1.439h10.786a.719.719,0,1,0,0-1.439Z" transform="translate(-84.968 -352.342)"/>
      <path id="Trazado_910709" data-name="Trazado 910709" d="M148.987,429.972H138.2a.719.719,0,1,0,0,1.439h10.786a.719.719,0,1,0,0-1.439Z" transform="translate(-84.968 -388.731)"/>
      <path id="Trazado_910710" data-name="Trazado 910710" d="M322.236,84.468a.719.719,0,0,0-.719-.719h-3.859a.719.719,0,0,0-.719.719v5.764a.719.719,0,0,0,.719.719h3.859a.719.719,0,0,0,.719-.719ZM320.8,89.513h-2.42V85.188h2.42Z" transform="translate(-247.212 -75.716)"/>
      <path id="Trazado_910711" data-name="Trazado 910711" d="M321.517,171.1h-3.859a.719.719,0,1,0,0,1.439h3.859a.719.719,0,1,0,0-1.439Z" transform="translate(-247.212 -154.693)"/>
      <path id="Trazado_910712" data-name="Trazado 910712" d="M321.517,429.972h-3.859a.719.719,0,1,0,0,1.439h3.859a.719.719,0,1,0,0-1.439Z" transform="translate(-247.212 -388.731)"/>
      <path id="Trazado_910713" data-name="Trazado 910713" d="M321.517,388.321h-3.859a.719.719,0,1,0,0,1.439h3.859a.719.719,0,1,0,0-1.439Z" transform="translate(-247.212 -351.075)"/>
      <path id="Trazado_910714" data-name="Trazado 910714" d="M80.753,46.537a9.224,9.224,0,1,0-6.526-2.7A9.2,9.2,0,0,0,80.753,46.537ZM75.244,31.806a7.79,7.79,0,1,1,0,11.016A7.766,7.766,0,0,1,75.244,31.806Z" transform="translate(-25.339 -25.396)"/>
      <path id="Trazado_910715" data-name="Trazado 910715" d="M102.963,64.681a4.908,4.908,0,0,1,4.9-5.2.719.719,0,1,0,0-1.439,6.347,6.347,0,0,0-6.338,6.719.719.719,0,0,0,.718.678h.042A.719.719,0,0,0,102.963,64.681Z" transform="translate(-52.451 -52.478)"/>
    </g>
  </g>
</svg>
