<svg xmlns="http://www.w3.org/2000/svg" xmlns:xlink="http://www.w3.org/1999/xlink" width="102.949" height="102.949" viewBox="0 0 102.949 102.949">
  <defs>
    <filter id="Trazado_874925" x="0" y="0" width="102.949" height="102.949" filterUnits="userSpaceOnUse">
      <feOffset dy="3" input="SourceAlpha"/>
      <feGaussianBlur stdDeviation="3" result="blur"/>
      <feFlood flood-opacity="0.161"/>
      <feComposite operator="in" in2="blur"/>
      <feComposite in="SourceGraphic"/>
    </filter>
  </defs>
  <g id="Grupo_1182092" data-name="Grupo 1182092" transform="translate(-433.051 -2818)">
    <g id="Grupo_1181885" data-name="Grupo 1181885" transform="translate(-366.449 306.843)">
      <g id="Grupo_1111316" data-name="Grupo 1111316" transform="translate(808.5 2517.157)">
        <g id="Grupo_1109835" data-name="Grupo 1109835" transform="translate(0 0)">
          <g id="Grupo_1107913" data-name="Grupo 1107913" transform="translate(0 0)">
            <g transform="matrix(1, 0, 0, 1, -9, -6)" filter="url(#Trazado_874925)">
              <g id="Trazado_874925-2" data-name="Trazado 874925" transform="translate(9 6)" fill="#4c6929" opacity="0.859">
                <path d="M 42.47446823120117 83.44929504394531 C 36.94229125976562 83.44929504394531 31.57638549804688 82.36614227294922 26.52582168579102 80.22994232177734 C 21.64678573608398 78.16628265380859 17.26464462280273 75.211669921875 13.50113868713379 71.44816589355469 C 9.737632751464844 67.68466949462891 6.78300952911377 63.30253982543945 4.719362258911133 58.42351913452148 C 2.583150625228882 53.37295150756836 1.499997615814209 48.00706100463867 1.499997615814209 42.47489547729492 C 1.499997615814209 36.94223403930664 2.583150625228882 31.57634162902832 4.719362258911133 26.52577781677246 C 6.78300952911377 21.64675331115723 9.737632751464844 17.26462364196777 13.50113868713379 13.50113010406494 C 17.26464462280273 9.737624168395996 21.64678573608398 6.783012390136719 26.52582168579102 4.719353199005127 C 31.57638549804688 2.583153486251831 36.94229125976562 1.500000476837158 42.47446823120117 1.500000476837158 C 48.00664520263672 1.500000476837158 53.37255096435547 2.583153486251831 58.42311477661133 4.719353199005127 C 63.30215072631836 6.783012390136719 67.68428802490234 9.737624168395996 71.44779968261719 13.50113010406494 C 75.2113037109375 17.26462364196777 78.16592407226562 21.64675331115723 80.22957611083984 26.52577781677246 C 82.36578369140625 31.57634162902832 83.44893646240234 36.94223403930664 83.44893646240234 42.47439956665039 C 83.44893646240234 48.00706100463867 82.36578369140625 53.37295150756836 80.22957611083984 58.42351913452148 C 78.16592407226562 63.30253982543945 75.2113037109375 67.68466949462891 71.44779968261719 71.44816589355469 C 67.68428802490234 75.211669921875 63.30215072631836 78.16628265380859 58.42311477661133 80.22994232177734 C 53.37255096435547 82.36614227294922 48.00664520263672 83.44929504394531 42.47446823120117 83.44929504394531 Z" stroke="none"/>
                <path d="M 42.47446823120117 2.999992370605469 C 37.14412307739258 2.999992370605469 31.97481536865234 4.04327392578125 27.11014938354492 6.100860595703125 C 22.40990829467773 8.088890075683594 18.18804168701172 10.93555450439453 14.56179809570312 14.56178283691406 C 10.93557739257812 18.18801116943359 8.088897705078125 22.40987396240234 6.100868225097656 27.11009979248047 C 4.043281555175781 31.97476577758789 3 37.14406204223633 3 42.47488784790039 C 3 47.80522155761719 4.043281555175781 52.97451400756836 6.100868225097656 57.83917999267578 C 8.088897705078125 62.53940582275391 10.93557739257812 66.76127624511719 14.56179809570312 70.38749694824219 C 18.18804168701172 74.01372528076172 22.40990829467773 76.86039733886719 27.11014938354492 78.84841918945312 C 31.97481536865234 80.906005859375 37.14412307739258 81.94928741455078 42.47446823120117 81.94928741455078 C 47.80481338500977 81.94928741455078 52.97412109375 80.906005859375 57.83879089355469 78.84841918945312 C 62.53902816772461 76.86039733886719 66.76089477539062 74.01372528076172 70.38713073730469 70.38749694824219 C 74.01335906982422 66.76127624511719 76.86003875732422 62.53940582275391 78.84806823730469 57.83917999267578 C 80.90565490722656 52.97451400756836 81.94893646240234 47.80522155761719 81.94893646240234 42.47439575195312 C 81.94893646240234 37.14406204223633 80.90565490722656 31.97476577758789 78.84806823730469 27.11009979248047 C 76.86003875732422 22.40987396240234 74.01335906982422 18.18801116943359 70.38713073730469 14.56178283691406 C 66.76089477539062 10.93555450439453 62.53902816772461 8.088890075683594 57.83879089355469 6.100860595703125 C 52.97412109375 4.04327392578125 47.80481338500977 2.999992370605469 42.47446823120117 2.999992370605469 M 42.47446823120117 -7.62939453125e-06 C 65.93246459960938 -7.62939453125e-06 84.94893646240234 19.01643371582031 84.94893646240234 42.47439575195312 L 84.94893646240234 42.47488784790039 C 84.94893646240234 65.93284606933594 65.93246459960938 84.94928741455078 42.47446823120117 84.94928741455078 C 19.01647186279297 84.94928741455078 0 65.93284606933594 0 42.47488784790039 L 0 42.47439575195312 C 0 19.01643371582031 19.01647186279297 -7.62939453125e-06 42.47446823120117 -7.62939453125e-06 Z" stroke="none" fill="#fff"/>
              </g>
            </g>
            <g id="Trazado_874923" data-name="Trazado 874923" transform="translate(0 0)" fill="none">
              <path d="M42.474,0A42.474,42.474,0,0,1,84.949,42.474h0A42.474,42.474,0,0,1,0,42.475H0A42.474,42.474,0,0,1,42.474,0Z" stroke="none"/>
              <path d="M 42.47446823120117 2.999992370605469 C 37.14412307739258 2.999992370605469 31.97481536865234 4.04327392578125 27.11014938354492 6.100860595703125 C 22.40990829467773 8.088890075683594 18.18804168701172 10.93555450439453 14.56179809570312 14.56178283691406 C 10.93557739257812 18.18801116943359 8.088897705078125 22.40987396240234 6.100868225097656 27.11009979248047 C 4.043281555175781 31.97476577758789 3 37.14406204223633 3 42.47488784790039 C 3 47.80522155761719 4.043281555175781 52.97451400756836 6.100868225097656 57.83917999267578 C 8.088897705078125 62.53940582275391 10.93557739257812 66.76127624511719 14.56179809570312 70.38749694824219 C 18.18804168701172 74.01372528076172 22.40990829467773 76.86039733886719 27.11014938354492 78.84841918945312 C 31.97481536865234 80.906005859375 37.14412307739258 81.94928741455078 42.47446823120117 81.94928741455078 C 47.80481338500977 81.94928741455078 52.97412109375 80.906005859375 57.83879089355469 78.84841918945312 C 62.53902816772461 76.86039733886719 66.76089477539062 74.01372528076172 70.38713073730469 70.38749694824219 C 74.01335906982422 66.76127624511719 76.86003875732422 62.53940582275391 78.84806823730469 57.83917999267578 C 80.90565490722656 52.97451400756836 81.94893646240234 47.80522155761719 81.94893646240234 42.47439575195312 C 81.94893646240234 37.14406204223633 80.90565490722656 31.97476577758789 78.84806823730469 27.11009979248047 C 76.86003875732422 22.40987396240234 74.01335906982422 18.18801116943359 70.38713073730469 14.56178283691406 C 66.76089477539062 10.93555450439453 62.53902816772461 8.088890075683594 57.83879089355469 6.100860595703125 C 52.97412109375 4.04327392578125 47.80481338500977 2.999992370605469 42.47446823120117 2.999992370605469 M 42.47446823120117 -7.62939453125e-06 C 65.93246459960938 -7.62939453125e-06 84.94893646240234 19.01643371582031 84.94893646240234 42.47439575195312 L 84.94893646240234 42.47488784790039 C 84.94893646240234 65.93284606933594 65.93246459960938 84.94928741455078 42.47446823120117 84.94928741455078 C 19.01647186279297 84.94928741455078 0 65.93284606933594 0 42.47488784790039 L 0 42.47439575195312 C 0 19.01643371582031 19.01647186279297 -7.62939453125e-06 42.47446823120117 -7.62939453125e-06 Z" stroke="none" fill="#fff"/>
            </g>
          </g>
        </g>
      </g>
    </g>
    <g id="radio" transform="translate(461.051 2844.001)">
      <path id="Trazado_910124" data-name="Trazado 910124" d="M58.84,48.2,88.815,37.438l.953,2.653L59.793,50.856Zm0,0" transform="translate(-53.387 -33.969)" fill="#86a4bc"/>
      <path id="Trazado_910125" data-name="Trazado 910125" d="M63.98,62.516,93.956,51.75l.476,1.326L64.457,63.842Zm0,0" transform="translate(-58.051 -46.955)" fill="#b7d0e5"/>
      <path id="Trazado_910126" data-name="Trazado 910126" d="M53.647,153.288v21.321a4.749,4.749,0,0,1-4.749,4.749H12.353a4.748,4.748,0,0,1-4.748-4.749V153.288a4.748,4.748,0,0,1,4.748-4.749H48.9A4.749,4.749,0,0,1,53.647,153.288Zm0,0" transform="translate(-6.901 -134.774)" fill="#e53a47"/>
      <path id="Trazado_910127" data-name="Trazado 910127" d="M72.045,153.288v21.321a4.749,4.749,0,0,1-4.749,4.749H32.631a4.748,4.748,0,0,1-4.748-4.749V153.288a4.748,4.748,0,0,1,4.748-4.749H67.3A4.749,4.749,0,0,1,72.045,153.288Zm0,0" transform="translate(-25.299 -134.774)" fill="#f96065"/>
      <g id="Grupo_1182090" data-name="Grupo 1182090" transform="translate(3.044 17.983)">
        <path id="Trazado_910128" data-name="Trazado 910128" d="M106.2,196.538H97.011a.714.714,0,0,1-.314-1.355,11.212,11.212,0,0,1,9.82,0A.714.714,0,0,1,106.2,196.538Zm0,0" transform="translate(-90.416 -194.051)" fill="#27425b"/>
        <path id="Trazado_910129" data-name="Trazado 910129" d="M65.616,250.214H48.341a1.233,1.233,0,0,1-1.065-1.852l.014-.024a1.23,1.23,0,0,1,1.065-.611H65.6a1.23,1.23,0,0,1,1.065.611l.014.024A1.233,1.233,0,0,1,65.616,250.214Zm0,0" transform="translate(-45.787 -242.752)" fill="#27425b"/>
        <path id="Trazado_910130" data-name="Trazado 910130" d="M55.227,302.642v.025A1.228,1.228,0,0,1,54,303.885H34.075a1.228,1.228,0,0,1-1.232-1.218v-.051a1.228,1.228,0,0,1,1.232-1.218H54a1.228,1.228,0,0,1,1.232,1.218Zm0,0" transform="translate(-32.844 -291.45)" fill="#27425b"/>
        <path id="Trazado_910131" data-name="Trazado 910131" d="M66.68,356.915l-.014.024a1.23,1.23,0,0,1-1.065.611H48.355a1.23,1.23,0,0,1-1.065-.611l-.014-.024a1.233,1.233,0,0,1,1.065-1.852H65.616A1.233,1.233,0,0,1,66.68,356.915Zm0,0" transform="translate(-45.787 -340.141)" fill="#27425b"/>
        <path id="Trazado_910132" data-name="Trazado 910132" d="M106.2,408.738a.714.714,0,0,1,.314,1.355,11.212,11.212,0,0,1-9.82,0,.714.714,0,0,1,.314-1.355Zm0,0" transform="translate(-90.416 -388.842)" fill="#27425b"/>
      </g>
      <path id="Trazado_910133" data-name="Trazado 910133" d="M382.5,14.6a1.62,1.62,0,0,1-2.006-.819,1.688,1.688,0,0,1-.067-.159L379.049,9.77a1.62,1.62,0,1,1,3.05-1.1l.6,1.669.783,2.178A1.621,1.621,0,0,1,382.5,14.6Zm0,0" transform="translate(-343.833 -6.898)" fill="#86a4bc"/>
      <path id="Trazado_910134" data-name="Trazado 910134" d="M389.017,32.462a1.62,1.62,0,0,1-2.006-.819l-.783-2.181a1.62,1.62,0,0,1,2.984-1.251L390,30.388A1.621,1.621,0,0,1,389.017,32.462Zm0,0" transform="translate(-350.347 -24.764)" fill="#b7d0e5"/>
      <path id="Trazado_910135" data-name="Trazado 910135" d="M310.965,230.686H298.22a1.661,1.661,0,0,1-1.661-1.661v-2.786a1.661,1.661,0,0,1,1.661-1.661h12.745a1.661,1.661,0,0,1,1.661,1.661v2.786A1.661,1.661,0,0,1,310.965,230.686Zm0,0" transform="translate(-269.075 -203.766)" fill="#aef4e9"/>
      <path id="Trazado_910136" data-name="Trazado 910136" d="M384,251.953a1.269,1.269,0,0,0-1.269,1.269v2.3h2.537v-2.3A1.269,1.269,0,0,0,384,251.953Zm0,0" transform="translate(-347.264 -228.604)" fill="#6399cc"/>
      <path id="Trazado_910137" data-name="Trazado 910137" d="M346.9,332.126a4.134,4.134,0,1,1-4.134-4.134A4.134,4.134,0,0,1,346.9,332.126Zm0,0" transform="translate(-307.249 -297.596)" fill="#86a4bc"/>
      <path id="Trazado_910138" data-name="Trazado 910138" d="M363.46,332.974a3.36,3.36,0,1,1-3.289-4.048A4.136,4.136,0,0,1,363.46,332.974Zm0,0" transform="translate(-323.808 -298.443)" fill="#b7d0e5"/>
      <path id="Trazado_910139" data-name="Trazado 910139" d="M46.746,34.076a.7.7,0,0,0,.7-.7V18.514A5.459,5.459,0,0,0,42,13.06H19.148L35.96,7.023a2.325,2.325,0,0,0,4.351-1.638L38.93,1.539a2.325,2.325,0,0,0-4.4,1.505L19.7,8.37A.7.7,0,0,0,20.175,9.7L35,4.371,35.481,5.7l-20.5,7.363H10.808l6.909-2.481a.7.7,0,1,0-.476-1.326L6.638,13.06H5.453A5.46,5.46,0,0,0,0,18.514V39.836a5.46,5.46,0,0,0,5.453,5.453H42a5.459,5.459,0,0,0,5.453-5.453V36.19a.7.7,0,0,0-1.409,0v3.646A4.048,4.048,0,0,1,42,43.88H5.453a4.048,4.048,0,0,1-4.044-4.044V18.514A4.048,4.048,0,0,1,5.453,14.47H42a4.048,4.048,0,0,1,4.044,4.044V33.371A.7.7,0,0,0,46.746,34.076ZM36.431,1.463a.916.916,0,0,1,1.172.552l1.381,3.847a.916.916,0,1,1-1.724.619l-.213-.592v0l-.953-2.653v0l-.214-.6A.916.916,0,0,1,36.431,1.463Zm0,0" transform="translate(0 0)"/>
      <path id="Trazado_910140" data-name="Trazado 910140" d="M90.1,190.346h9.193a1.418,1.418,0,0,0,.624-2.692,11.918,11.918,0,0,0-10.44,0,1.418,1.418,0,0,0,.624,2.692Zm0-1.426a10.506,10.506,0,0,1,9.2,0l.006,0a.045.045,0,0,1,0,.014H90.094a.045.045,0,0,1,0-.014Zm0,0" transform="translate(-80.461 -169.171)"/>
      <path id="Trazado_910141" data-name="Trazado 910141" d="M39.768,241.084l-.014.024a1.938,1.938,0,0,0,1.675,2.909H58.7a1.938,1.938,0,0,0,1.677-2.907l-.016-.028a1.94,1.94,0,0,0-1.674-.962H41.443A1.94,1.94,0,0,0,39.768,241.084Zm19.377.707.012.021a.523.523,0,0,1,0,.533.516.516,0,0,1-.455.262H41.429a.516.516,0,0,1-.455-.262.524.524,0,0,1,0-.533l.013-.023a.526.526,0,0,1,.455-.26H58.689A.528.528,0,0,1,59.145,241.791Zm0,0" transform="translate(-35.83 -217.868)"/>
      <path id="Trazado_910142" data-name="Trazado 910142" d="M49.031,295.77v-.056a1.934,1.934,0,0,0-1.936-1.921H27.175a1.935,1.935,0,0,0-1.936,1.923v.052a1.934,1.934,0,0,0,1.936,1.921h19.92A1.933,1.933,0,0,0,49.031,295.77Zm-1.409-.005a.523.523,0,0,1-.527.515H27.175a.522.522,0,0,1-.527-.513v-.049a.522.522,0,0,1,.527-.514h19.92a.523.523,0,0,1,.527.517Zm0,0" transform="translate(-22.899 -266.566)"/>
      <path id="Trazado_910143" data-name="Trazado 910143" d="M60.363,350.393l.016-.027a1.938,1.938,0,0,0-1.675-2.909H41.429a1.938,1.938,0,0,0-1.675,2.91l.015.025a1.94,1.94,0,0,0,1.674.962H58.689A1.94,1.94,0,0,0,60.363,350.393Zm-19.374-.707-.014-.024a.524.524,0,0,1,0-.534.516.516,0,0,1,.455-.262H58.7a.516.516,0,0,1,.455.262.524.524,0,0,1,0,.534v0l-.012.02a.526.526,0,0,1-.455.26H41.443A.525.525,0,0,1,40.988,349.686Zm0,0" transform="translate(-35.83 -315.257)"/>
      <path id="Trazado_910144" data-name="Trazado 910144" d="M99.293,401.133H90.1a1.418,1.418,0,0,0-.624,2.692,11.917,11.917,0,0,0,10.44,0,1.418,1.418,0,0,0-.623-2.692Zm0,1.426a10.506,10.506,0,0,1-9.2,0l-.006,0a.045.045,0,0,1,0-.014H99.3a.045.045,0,0,1,0,.014Zm0,0" transform="translate(-80.461 -363.958)"/>
      <path id="Trazado_910145" data-name="Trazado 910145" d="M306.43,222.128v-2.785a2.368,2.368,0,0,0-2.366-2.366H291.319a2.368,2.368,0,0,0-2.366,2.366v2.785a2.368,2.368,0,0,0,2.366,2.366h12.745A2.368,2.368,0,0,0,306.43,222.128Zm-16.067,0v-2.785a.957.957,0,0,1,.956-.956h12.745a.957.957,0,0,1,.956.956v2.785a.957.957,0,0,1-.956.956h-3.178v-1.6a1.973,1.973,0,0,0-3.946,0v1.6h-5.621A.958.958,0,0,1,290.362,222.128Zm7.987.956v-1.6a.564.564,0,0,1,1.128,0v1.6Zm0,0" transform="translate(-262.174 -196.869)"/>
      <path id="Trazado_910146" data-name="Trazado 910146" d="M335.866,320.387a4.839,4.839,0,1,0,0,9.678,4.839,4.839,0,1,0,0-9.678Zm3.43,4.839a3.441,3.441,0,0,1-2.726,3.358,3.489,3.489,0,0,1-.7.072,3.43,3.43,0,1,1,3.43-3.43Zm0,0" transform="translate(-300.349 -290.695)"/>
      <path id="Trazado_910147" data-name="Trazado 910147" d="M385.6,344.859a.7.7,0,1,0,.868.067A.708.708,0,0,0,385.6,344.859Zm0,0" transform="translate(-349.582 -312.793)"/>
    </g>
  </g>
</svg>
