<svg xmlns="http://www.w3.org/2000/svg" xmlns:xlink="http://www.w3.org/1999/xlink" width="102.949" height="102.949" viewBox="0 0 102.949 102.949">
  <defs>
    <filter id="Trazado_874925" x="0" y="0" width="102.949" height="102.949" filterUnits="userSpaceOnUse">
      <feOffset dy="3" input="SourceAlpha"/>
      <feGaussianBlur stdDeviation="3" result="blur"/>
      <feFlood flood-opacity="0.161"/>
      <feComposite operator="in" in2="blur"/>
      <feComposite in="SourceGraphic"/>
    </filter>
  </defs>
  <g id="Grupo_1182244" data-name="Grupo 1182244" transform="translate(-434.051 -12641)">
    <g id="Grupo_1181922" data-name="Grupo 1181922" transform="translate(-365.449 10129.843)">
      <g id="Grupo_1111316" data-name="Grupo 1111316" transform="translate(808.5 2517.157)">
        <g id="Grupo_1109835" data-name="Grupo 1109835" transform="translate(0 0)">
          <g id="Grupo_1107913" data-name="Grupo 1107913" transform="translate(0 0)">
            <g transform="matrix(1, 0, 0, 1, -9, -6)" filter="url(#Trazado_874925)">
              <g id="Trazado_874925-2" data-name="Trazado 874925" transform="translate(9 6)" fill="#4c6929" opacity="0.859">
                <path d="M 42.47446823120117 83.44929504394531 C 36.94229125976562 83.44929504394531 31.57638549804688 82.36614227294922 26.52582168579102 80.22994232177734 C 21.64678573608398 78.16628265380859 17.26464462280273 75.211669921875 13.50113868713379 71.44816589355469 C 9.737632751464844 67.68466949462891 6.78300952911377 63.30253982543945 4.719362258911133 58.42351913452148 C 2.583150625228882 53.37295150756836 1.499997615814209 48.00706100463867 1.499997615814209 42.47489547729492 C 1.499997615814209 36.94223403930664 2.583150625228882 31.57634162902832 4.719362258911133 26.52577781677246 C 6.78300952911377 21.64675331115723 9.737632751464844 17.26462364196777 13.50113868713379 13.50113010406494 C 17.26464462280273 9.737624168395996 21.64678573608398 6.783012390136719 26.52582168579102 4.719353199005127 C 31.57638549804688 2.583153486251831 36.94229125976562 1.500000476837158 42.47446823120117 1.500000476837158 C 48.00664520263672 1.500000476837158 53.37255096435547 2.583153486251831 58.42311477661133 4.719353199005127 C 63.30215072631836 6.783012390136719 67.68428802490234 9.737624168395996 71.44779968261719 13.50113010406494 C 75.2113037109375 17.26462364196777 78.16592407226562 21.64675331115723 80.22957611083984 26.52577781677246 C 82.36578369140625 31.57634162902832 83.44893646240234 36.94223403930664 83.44893646240234 42.47439956665039 C 83.44893646240234 48.00706100463867 82.36578369140625 53.37295150756836 80.22957611083984 58.42351913452148 C 78.16592407226562 63.30253982543945 75.2113037109375 67.68466949462891 71.44779968261719 71.44816589355469 C 67.68428802490234 75.211669921875 63.30215072631836 78.16628265380859 58.42311477661133 80.22994232177734 C 53.37255096435547 82.36614227294922 48.00664520263672 83.44929504394531 42.47446823120117 83.44929504394531 Z" stroke="none"/>
                <path d="M 42.47446823120117 2.999992370605469 C 37.14412307739258 2.999992370605469 31.97481536865234 4.04327392578125 27.11014938354492 6.100860595703125 C 22.40990829467773 8.088890075683594 18.18804168701172 10.93555450439453 14.56179809570312 14.56178283691406 C 10.93557739257812 18.18801116943359 8.088897705078125 22.40987396240234 6.100868225097656 27.11009979248047 C 4.043281555175781 31.97476577758789 3 37.14406204223633 3 42.47488784790039 C 3 47.80522155761719 4.043281555175781 52.97451400756836 6.100868225097656 57.83917999267578 C 8.088897705078125 62.53940582275391 10.93557739257812 66.76127624511719 14.56179809570312 70.38749694824219 C 18.18804168701172 74.01372528076172 22.40990829467773 76.86039733886719 27.11014938354492 78.84841918945312 C 31.97481536865234 80.906005859375 37.14412307739258 81.94928741455078 42.47446823120117 81.94928741455078 C 47.80481338500977 81.94928741455078 52.97412109375 80.906005859375 57.83879089355469 78.84841918945312 C 62.53902816772461 76.86039733886719 66.76089477539062 74.01372528076172 70.38713073730469 70.38749694824219 C 74.01335906982422 66.76127624511719 76.86003875732422 62.53940582275391 78.84806823730469 57.83917999267578 C 80.90565490722656 52.97451400756836 81.94893646240234 47.80522155761719 81.94893646240234 42.47439575195312 C 81.94893646240234 37.14406204223633 80.90565490722656 31.97476577758789 78.84806823730469 27.11009979248047 C 76.86003875732422 22.40987396240234 74.01335906982422 18.18801116943359 70.38713073730469 14.56178283691406 C 66.76089477539062 10.93555450439453 62.53902816772461 8.088890075683594 57.83879089355469 6.100860595703125 C 52.97412109375 4.04327392578125 47.80481338500977 2.999992370605469 42.47446823120117 2.999992370605469 M 42.47446823120117 -7.62939453125e-06 C 65.93246459960938 -7.62939453125e-06 84.94893646240234 19.01643371582031 84.94893646240234 42.47439575195312 L 84.94893646240234 42.47488784790039 C 84.94893646240234 65.93284606933594 65.93246459960938 84.94928741455078 42.47446823120117 84.94928741455078 C 19.01647186279297 84.94928741455078 0 65.93284606933594 0 42.47488784790039 L 0 42.47439575195312 C 0 19.01643371582031 19.01647186279297 -7.62939453125e-06 42.47446823120117 -7.62939453125e-06 Z" stroke="none" fill="#fff"/>
              </g>
            </g>
            <g id="Trazado_874923" data-name="Trazado 874923" transform="translate(0 0)" fill="none">
              <path d="M42.474,0A42.474,42.474,0,0,1,84.949,42.474h0A42.474,42.474,0,0,1,0,42.475H0A42.474,42.474,0,0,1,42.474,0Z" stroke="none"/>
              <path d="M 42.47446823120117 2.999992370605469 C 37.14412307739258 2.999992370605469 31.97481536865234 4.04327392578125 27.11014938354492 6.100860595703125 C 22.40990829467773 8.088890075683594 18.18804168701172 10.93555450439453 14.56179809570312 14.56178283691406 C 10.93557739257812 18.18801116943359 8.088897705078125 22.40987396240234 6.100868225097656 27.11009979248047 C 4.043281555175781 31.97476577758789 3 37.14406204223633 3 42.47488784790039 C 3 47.80522155761719 4.043281555175781 52.97451400756836 6.100868225097656 57.83917999267578 C 8.088897705078125 62.53940582275391 10.93557739257812 66.76127624511719 14.56179809570312 70.38749694824219 C 18.18804168701172 74.01372528076172 22.40990829467773 76.86039733886719 27.11014938354492 78.84841918945312 C 31.97481536865234 80.906005859375 37.14412307739258 81.94928741455078 42.47446823120117 81.94928741455078 C 47.80481338500977 81.94928741455078 52.97412109375 80.906005859375 57.83879089355469 78.84841918945312 C 62.53902816772461 76.86039733886719 66.76089477539062 74.01372528076172 70.38713073730469 70.38749694824219 C 74.01335906982422 66.76127624511719 76.86003875732422 62.53940582275391 78.84806823730469 57.83917999267578 C 80.90565490722656 52.97451400756836 81.94893646240234 47.80522155761719 81.94893646240234 42.47439575195312 C 81.94893646240234 37.14406204223633 80.90565490722656 31.97476577758789 78.84806823730469 27.11009979248047 C 76.86003875732422 22.40987396240234 74.01335906982422 18.18801116943359 70.38713073730469 14.56178283691406 C 66.76089477539062 10.93555450439453 62.53902816772461 8.088890075683594 57.83879089355469 6.100860595703125 C 52.97412109375 4.04327392578125 47.80481338500977 2.999992370605469 42.47446823120117 2.999992370605469 M 42.47446823120117 -7.62939453125e-06 C 65.93246459960938 -7.62939453125e-06 84.94893646240234 19.01643371582031 84.94893646240234 42.47439575195312 L 84.94893646240234 42.47488784790039 C 84.94893646240234 65.93284606933594 65.93246459960938 84.94928741455078 42.47446823120117 84.94928741455078 C 19.01647186279297 84.94928741455078 0 65.93284606933594 0 42.47488784790039 L 0 42.47439575195312 C 0 19.01643371582031 19.01647186279297 -7.62939453125e-06 42.47446823120117 -7.62939453125e-06 Z" stroke="none" fill="#fff"/>
            </g>
          </g>
        </g>
      </g>
    </g>
    <g id="cosecha" transform="translate(453.621 12664)">
      <g id="Grupo_1182241" data-name="Grupo 1182241" transform="translate(7.171 0.742)">
        <path id="Trazado_910551" data-name="Trazado 910551" d="M177.739,20.885H155.213l1.782-9.461A4.814,4.814,0,0,1,161.726,7.5h9.5a4.814,4.814,0,0,1,4.731,3.923Z" transform="translate(-141.23 -7.501)" fill="#99e6fc"/>
        <path id="Trazado_910552" data-name="Trazado 910552" d="M298.32,11.423A4.814,4.814,0,0,0,293.589,7.5h-2.573a4.814,4.814,0,0,1,4.731,3.923l1.782,9.461H300.1Z" transform="translate(-263.594 -7.5)" fill="#62dbfb"/>
        <ellipse id="Elipse_11669" data-name="Elipse 11669" cx="17.588" cy="4.546" rx="17.588" ry="4.546" transform="translate(7.658 10.142)" fill="#766e6e"/>
        <path id="Trazado_910553" data-name="Trazado 910553" d="M188.957,112.924h-8.366a4.974,4.974,0,0,1-4.974-4.974V96.2h18.314V107.95A4.974,4.974,0,0,1,188.957,112.924Z" transform="translate(-159.615 -87.424)" fill="#ffb09e"/>
        <path id="Trazado_910554" data-name="Trazado 910554" d="M289.388,96.2V107.95a4.974,4.974,0,0,1-4.974,4.974h2.573a4.974,4.974,0,0,0,4.974-4.974V96.2Z" transform="translate(-257.645 -87.424)" fill="#ffa78f"/>
        <path id="Trazado_910555" data-name="Trazado 910555" d="M121.286,86.451c0,.458-.446,3-.446,3,0-2.511-7.874-4.547-17.588-4.547S85.664,86.939,85.664,89.45c0,0-.619-2.466-.619-2.891,0-2.511,7.811-4.41,18.207-4.41S121.286,83.941,121.286,86.451Z" transform="translate(-78.006 -74.762)" fill="#c8effe"/>
        <path id="Trazado_910556" data-name="Trazado 910556" d="M121.286,86.451c0,.458-.446,3-.446,3,0-2.511-7.874-4.547-17.588-4.547S85.664,86.939,85.664,89.45c0,0-.619-2.466-.619-2.891,0-2.511,7.811-4.41,18.207-4.41S121.286,83.941,121.286,86.451Z" transform="translate(-78.006 -74.762)" fill="#c8effe"/>
        <path id="Trazado_910557" data-name="Trazado 910557" d="M121.286,86.451c0,.458-.446,3-.446,3,0-2.511-7.874-4.547-17.588-4.547S85.664,86.939,85.664,89.45c0,0-.619-2.466-.619-2.891,0-2.511,7.811-4.41,18.207-4.41S121.286,83.941,121.286,86.451Z" transform="translate(-78.006 -74.762)" fill="#c8effe"/>
        <path id="Trazado_910558" data-name="Trazado 910558" d="M50.328,319.879h0a6.193,6.193,0,0,0-5.775,3.958l-6.34,14.313h8.095l4.021-8.655v7.073H71.607V319.879Z" transform="translate(-35.809 -288.965)" fill="#99e6fc"/>
        <g id="Grupo_1182239" data-name="Grupo 1182239" transform="translate(33.225 30.914)">
          <rect id="Rectángulo_408440" data-name="Rectángulo 408440" width="2.573" height="16.689" transform="translate(0)" fill="#62dbfb"/>
        </g>
        <rect id="Rectángulo_408441" data-name="Rectángulo 408441" width="6.423" height="5.414" transform="translate(21.947 25.5)" fill="#ffa78f"/>
        <rect id="Rectángulo_408442" data-name="Rectángulo 408442" width="2.648" height="5.414" transform="translate(25.722 25.5)" fill="#f89580"/>
        <rect id="Rectángulo_408443" data-name="Rectángulo 408443" width="3.3" height="8.869" transform="translate(18.648 30.914)" fill="#4f66d0"/>
        <rect id="Rectángulo_408444" data-name="Rectángulo 408444" width="3.3" height="8.869" transform="translate(28.371 30.914)" fill="#4f66d0"/>
        <path id="Trazado_910559" data-name="Trazado 910559" d="M375.656,329.494l4.021,8.655h8.095l-6.34-14.313a6.192,6.192,0,0,0-5.775-3.958h0v9.615Z" transform="translate(-339.858 -288.965)" fill="#99e6fc"/>
        <path id="Trazado_910560" data-name="Trazado 910560" d="M381.432,323.837a6.193,6.193,0,0,0-5.775-3.958v.561a6.189,6.189,0,0,1,3.2,3.4l6.34,14.313h2.573Z" transform="translate(-339.859 -288.965)" fill="#62dbfb"/>
        <path id="Trazado_910561" data-name="Trazado 910561" d="M142.994,162.578H142a2.593,2.593,0,0,1-2.593-2.593h0A2.593,2.593,0,0,1,142,157.392h.99Z" transform="translate(-126.992 -142.558)" fill="#ffa78f"/>
        <path id="Trazado_910562" data-name="Trazado 910562" d="M136.339,409.5h-30.5a.9.9,0,0,0-.9.9v3.384l1.492,5.117h29.32l1.492-5.117V410.4A.9.9,0,0,0,136.339,409.5Z" transform="translate(-95.929 -369.717)" fill="#fcd18a"/>
        <path id="Trazado_910563" data-name="Trazado 910563" d="M386.22,409.5h-3.367a.9.9,0,0,1,.9.9v3.384l-1.492,5.117h3.367l1.492-5.117V410.4A.9.9,0,0,0,386.22,409.5Z" transform="translate(-345.809 -369.717)" fill="#fbc56d"/>
        <path id="Trazado_910564" data-name="Trazado 910564" d="M360.677,162.578h.99a2.593,2.593,0,0,0,2.593-2.593h0a2.593,2.593,0,0,0-2.593-2.593h-.99Z" transform="translate(-326.361 -142.558)" fill="#ffa78f"/>
        <path id="Trazado_910565" data-name="Trazado 910565" d="M190.775,161.749s-1.633-1.764-6-1.764-6,1.764-6,1.764l-3.157-4.357v7.51a4.486,4.486,0,0,0,4.486,4.486h9.342a4.486,4.486,0,0,0,4.486-4.486v-7.51Z" transform="translate(-159.616 -142.558)" fill="#b98080"/>
        <path id="Trazado_910566" data-name="Trazado 910566" d="M296.409,157.39v7.51a4.487,4.487,0,0,1-4.486,4.486H289.35a4.486,4.486,0,0,0,4.485-4.486v-3.958Z" transform="translate(-262.093 -142.556)" fill="#ae6c6c"/>
        <g id="Grupo_1182240" data-name="Grupo 1182240" transform="translate(0 17.389)">
          <path id="Trazado_910567" data-name="Trazado 910567" d="M58.282,294.527l1.3,2.6-4.766.376a1.345,1.345,0,0,1-1.308-.738h0a1.345,1.345,0,0,1,1.1-1.943Z" transform="translate(-49.461 -283.511)" fill="#fef48b"/>
          <path id="Trazado_910568" data-name="Trazado 910568" d="M45.133,268.3l1.3,2.6-4.766.376a1.345,1.345,0,0,1-1.308-.738h0a1.345,1.345,0,0,1,1.1-1.943Z" transform="translate(-37.614 -259.88)" fill="#fef056"/>
          <path id="Trazado_910569" data-name="Trazado 910569" d="M31.985,242.075l1.3,2.6-4.766.376a1.345,1.345,0,0,1-1.308-.738h0a1.345,1.345,0,0,1,1.1-1.944Z" transform="translate(-25.767 -236.249)" fill="#fef48b"/>
          <path id="Trazado_910570" data-name="Trazado 910570" d="M18.837,215.848l1.3,2.6-4.766.376a1.345,1.345,0,0,1-1.308-.738h0a1.345,1.345,0,0,1,1.1-1.944Z" transform="translate(-13.92 -212.618)" fill="#fef056"/>
          <path id="Trazado_910571" data-name="Trazado 910571" d="M84.579,346.981l1.3,2.6-4.766.376a1.345,1.345,0,0,1-1.308-.738h0a1.345,1.345,0,0,1,1.1-1.944Z" transform="translate(-73.156 -330.774)" fill="#fef48b"/>
          <path id="Trazado_910572" data-name="Trazado 910572" d="M71.431,320.754l1.3,2.6-4.766.376a1.345,1.345,0,0,1-1.308-.738h0a1.345,1.345,0,0,1,1.1-1.944Z" transform="translate(-61.309 -307.142)" fill="#fef056"/>
          <path id="Trazado_910573" data-name="Trazado 910573" d="M103.046,265.118l1.3,2.6,3.153-3.594a1.345,1.345,0,0,0,.191-1.49h0a1.345,1.345,0,0,0-2.213-.284Z" transform="translate(-94.226 -254.102)" fill="#fef056"/>
          <path id="Trazado_910574" data-name="Trazado 910574" d="M89.9,238.892l1.3,2.6,3.153-3.594a1.345,1.345,0,0,0,.191-1.49h0a1.345,1.345,0,0,0-2.213-.284Z" transform="translate(-82.378 -230.471)" fill="#fef48b"/>
          <path id="Trazado_910575" data-name="Trazado 910575" d="M76.749,212.666l1.3,2.6,3.153-3.594a1.345,1.345,0,0,0,.191-1.49h0a1.345,1.345,0,0,0-2.213-.284Z" transform="translate(-70.531 -206.84)" fill="#fef056"/>
          <path id="Trazado_910576" data-name="Trazado 910576" d="M63.6,186.439l1.3,2.6,3.153-3.594a1.345,1.345,0,0,0,.191-1.49h0a1.345,1.345,0,0,0-2.213-.284Z" transform="translate(-58.684 -183.209)" fill="#fef48b"/>
          <path id="Trazado_910577" data-name="Trazado 910577" d="M129.343,317.572l1.3,2.6,3.153-3.594a1.345,1.345,0,0,0,.191-1.49h0a1.345,1.345,0,0,0-2.213-.284Z" transform="translate(-117.92 -301.365)" fill="#fef056"/>
          <path id="Trazado_910578" data-name="Trazado 910578" d="M116.195,291.345l1.3,2.6,3.153-3.594a1.345,1.345,0,0,0,.191-1.49h0a1.345,1.345,0,0,0-2.213-.284Z" transform="translate(-106.074 -277.733)" fill="#fef48b"/>
        </g>
      </g>
      <g id="Grupo_1182243" data-name="Grupo 1182243" transform="translate(6.43 0)">
        <path id="Trazado_910579" data-name="Trazado 910579" d="M168.862,120.522a.742.742,0,0,1-.742-.742v-9.707a.742.742,0,1,1,1.484,0v9.707A.742.742,0,0,1,168.862,120.522Z" transform="translate(-152.119 -98.51)"/>
        <path id="Trazado_910580" data-name="Trazado 910580" d="M353.922,120.278a.742.742,0,0,1-.742-.742V109.8a.742.742,0,1,1,1.484,0v9.734A.742.742,0,0,1,353.922,120.278Z" transform="translate(-318.865 -98.267)"/>
        <path id="Trazado_910581" data-name="Trazado 910581" d="M114.747,111.679a.742.742,0,0,1-.19-1.46c3.488-.928,4.419-1.977,4.419-2.451,0-1.551-6.562-3.8-16.845-3.8s-16.845,2.253-16.845,3.8c0,.461.894,1.485,4.243,2.4a.742.742,0,0,1-.392,1.432c-3.54-.97-5.335-2.26-5.335-3.834,0-3.472,9.221-5.289,18.33-5.289s18.33,1.817,18.33,5.289c0,1.6-1.858,2.91-5.521,3.885A.744.744,0,0,1,114.747,111.679Z" transform="translate(-76.143 -92.338)"/>
        <path id="Trazado_910582" data-name="Trazado 910582" d="M78.906,83.435a.742.742,0,0,1-.719-.562,24.608,24.608,0,0,1-.642-3.072c0-3.559,9.517-5.152,18.949-5.152,8.661,0,18.776,1.321,18.776,5.045,0,.485-.35,2.516-.457,3.127a.742.742,0,0,1-1.473-.128c0-1.551-6.562-3.8-16.845-3.8s-16.845,2.254-16.845,3.8a.743.743,0,0,1-.743.742Zm17.588-7.3c-11.245,0-17.465,2.169-17.465,3.668a9.811,9.811,0,0,0,.189.989C81.889,78.559,89.227,77.4,96.494,77.4c7.167,0,14.4,1.125,17.164,3.3.076-.5.127-.888.128-1.006C113.786,78.2,107.777,76.133,96.494,76.133Z" transform="translate(-70.507 -67.262)"/>
        <path id="Trazado_910583" data-name="Trazado 910583" d="M185.017,9.57a.742.742,0,0,1-.729-.605L183.5,4.8a4.074,4.074,0,0,0-4-3.318H170A4.074,4.074,0,0,0,166,4.8l-.131.694a.742.742,0,0,1-1.459-.275l.131-.694A5.56,5.56,0,0,1,170,0h9.5a5.56,5.56,0,0,1,5.46,4.528l.784,4.162a.743.743,0,0,1-.73.88Z" transform="translate(-148.767 0)"/>
        <path id="Trazado_910584" data-name="Trazado 910584" d="M235.356,276.679h-6.424a.742.742,0,0,1-.742-.742v-4.084a.742.742,0,1,1,1.484,0v3.342h4.939v-3.342a.742.742,0,0,1,1.484,0v4.084A.742.742,0,0,1,235.356,276.679Z" transform="translate(-206.244 -244.28)"/>
        <path id="Trazado_910585" data-name="Trazado 910585" d="M189.255,322.733a.742.742,0,0,1-.742-.742v-8.127H169.524a.742.742,0,1,1,0-1.484h19.731a.742.742,0,0,1,.742.742v8.869A.742.742,0,0,1,189.255,322.733Z" transform="translate(-152.715 -281.466)"/>
        <path id="Línea_603" data-name="Línea 603" d="M-6.759-.9a.742.742,0,0,1-.208-.03.742.742,0,0,1-.5-.92l1.492-5.117a.742.742,0,0,1,.92-.5.742.742,0,0,1,.5.92L-6.047-1.435A.743.743,0,0,1-6.759-.9Z" transform="translate(47.32 51.569)"/>
        <path id="Línea_604" data-name="Línea 604" d="M-5.268-.9a.743.743,0,0,1-.712-.535L-7.472-6.552a.742.742,0,0,1,.5-.92.742.742,0,0,1,.92.5L-4.555-1.85a.742.742,0,0,1-.5.92A.743.743,0,0,1-5.268-.9Z" transform="translate(16.508 51.569)"/>
        <path id="Trazado_910586" data-name="Trazado 910586" d="M130.482,407.77h-4.258a.742.742,0,1,1,0-1.484h3.516v-2.642a.158.158,0,0,0-.158-.158h-30.5a.158.158,0,0,0-.158.158v2.642h23.833a.742.742,0,0,1,0,1.484H98.178a.742.742,0,0,1-.742-.742v-3.384A1.644,1.644,0,0,1,99.078,402h30.5a1.644,1.644,0,0,1,1.642,1.642v3.384A.742.742,0,0,1,130.482,407.77Z" transform="translate(-88.43 -362.218)"/>
        <path id="Trazado_910587" data-name="Trazado 910587" d="M198.9,322.733h-3.3a.742.742,0,0,1-.742-.742v-8.869a.742.742,0,0,1,.742-.742h3.3a.742.742,0,0,1,.742.742v5.394a.742.742,0,1,1-1.484,0v-4.652h-1.815v7.385H198.9a.742.742,0,1,1,0,1.484Z" transform="translate(-176.207 -281.465)"/>
        <path id="Rectángulo_408445" data-name="Rectángulo 408445" d="M-6.758-7.5h3.3a.742.742,0,0,1,.742.742V2.111a.742.742,0,0,1-.742.742h-3.3A.742.742,0,0,1-7.5,2.111V-6.758A.742.742,0,0,1-6.758-7.5ZM-4.2-6.016H-6.016V1.369H-4.2Z" transform="translate(35.87 38.414)"/>
        <path id="Trazado_910588" data-name="Trazado 910588" d="M381.018,332.135a.742.742,0,0,1-.679-.442L374,317.38a5.511,5.511,0,0,0-4.354-3.464v8.075a.742.742,0,0,1-1.484,0v-8.869a.742.742,0,0,1,.742-.742,6.977,6.977,0,0,1,6.467,4.432l6.327,14.28a.743.743,0,0,1-.678,1.043Z" transform="translate(-332.362 -281.466)"/>
        <path id="Línea_605" data-name="Línea 605" d="M-6.76,6.6a.74.74,0,0,1-.3-.064.742.742,0,0,1-.378-.979l5.59-12.62a.742.742,0,0,1,.979-.378.742.742,0,0,1,.378.979l-5.59,12.62A.742.742,0,0,1-6.76,6.6Z" transform="translate(9.905 44.066)"/>
        <path id="Trazado_910589" data-name="Trazado 910589" d="M136.236,156.562h-.99a3.335,3.335,0,1,1,0-6.67h.99a.742.742,0,0,1,.742.742v5.186A.742.742,0,0,1,136.236,156.562Zm-.99-5.186a1.851,1.851,0,1,0,0,3.7h.248v-3.7Z" transform="translate(-119.493 -135.058)"/>
        <path id="Trazado_910590" data-name="Trazado 910590" d="M354.909,156.562h-.99a.742.742,0,0,1-.742-.742v-5.186a.742.742,0,0,1,.742-.742h.99a3.335,3.335,0,0,1,0,6.67Zm-.248-1.484h.248a1.851,1.851,0,0,0,0-3.7h-.248Z" transform="translate(-318.862 -135.058)"/>
        <path id="Línea_606" data-name="Línea 606" d="M-6.758-3.732A.742.742,0,0,1-7.5-4.474V-6.758A.742.742,0,0,1-6.758-7.5a.742.742,0,0,1,.742.742v2.284A.742.742,0,0,1-6.758-3.732Z" transform="translate(32.658 22.643)"/>
        <path id="Trazado_910591" data-name="Trazado 910591" d="M244.124,209.038a4.453,4.453,0,0,1-2.225-.555.742.742,0,0,1,.782-1.262,3.432,3.432,0,0,0,3.085-.043.742.742,0,1,1,.613,1.352A5.425,5.425,0,0,1,244.124,209.038Z" transform="translate(-218.283 -186.616)"/>
        <path id="Trazado_910592" data-name="Trazado 910592" d="M168.86,149.891a.742.742,0,0,1,.6.307l2.707,3.736a12.528,12.528,0,0,1,11.7,0l2.707-3.736a.742.742,0,0,1,1.343.436v7.51a5.234,5.234,0,0,1-5.228,5.228h-9.342a5.234,5.234,0,0,1-5.228-5.228v-7.51a.742.742,0,0,1,.742-.742Zm13.828,12a3.748,3.748,0,0,0,3.744-3.744v-5.221l-1.814,2.5a.742.742,0,0,1-1.146.069c-.009-.009-1.528-1.526-5.455-1.526s-5.447,1.517-5.461,1.532a.748.748,0,0,1-1.14-.075l-1.814-2.5v5.22a3.748,3.748,0,0,0,3.744,3.744Z" transform="translate(-152.117 -135.058)"/>
        <g id="Grupo_1182242" data-name="Grupo 1182242" transform="translate(0 17.389)">
          <path id="Trazado_910593" data-name="Trazado 910593" d="M51.533,287.027a.742.742,0,0,1,.663.41l1.3,2.6a.742.742,0,0,1-.605,1.073l-4.766.376a2.087,2.087,0,0,1-.329-4.161l3.676-.29Zm.143,2.684-.583-1.163-3.178.251a.6.6,0,0,0,.047,1.2Z" transform="translate(-41.971 -276.011)"/>
          <path id="Trazado_910594" data-name="Trazado 910594" d="M38.384,260.8a.742.742,0,0,1,.663.41l1.3,2.6a.742.742,0,0,1-.605,1.073l-4.766.376a2.087,2.087,0,0,1-.329-4.161l3.676-.29Zm.143,2.684-.583-1.163-3.178.251a.6.6,0,0,0,.047,1.2Z" transform="translate(-30.123 -252.38)"/>
          <path id="Trazado_910595" data-name="Trazado 910595" d="M25.236,234.575a.742.742,0,0,1,.663.41l1.3,2.6a.742.742,0,0,1-.605,1.073l-4.766.376a2.087,2.087,0,0,1-.329-4.161l3.676-.29Zm.143,2.684L24.8,236.1l-3.178.251a.6.6,0,0,0,.047,1.2Z" transform="translate(-18.277 -228.749)"/>
          <path id="Trazado_910596" data-name="Trazado 910596" d="M12.088,208.348a.742.742,0,0,1,.663.41l1.3,2.6a.742.742,0,0,1-.605,1.073l-4.766.376a2.087,2.087,0,0,1-.329-4.161l3.676-.29Zm.143,2.684-.583-1.163-3.178.251a.6.6,0,0,0,.047,1.2Z" transform="translate(-6.43 -205.118)"/>
          <path id="Trazado_910597" data-name="Trazado 910597" d="M77.83,339.481a.742.742,0,0,1,.663.41l1.3,2.6a.742.742,0,0,1-.605,1.073l-4.766.376a2.087,2.087,0,0,1-.329-4.161l3.676-.29Zm.143,2.684L77.39,341l-3.178.251a.6.6,0,0,0,.047,1.2Z" transform="translate(-65.666 -323.274)"/>
          <path id="Trazado_910598" data-name="Trazado 910598" d="M64.682,313.254a.742.742,0,0,1,.663.41l1.3,2.6a.742.742,0,0,1-.605,1.073l-4.766.376a2.087,2.087,0,0,1-.329-4.161l3.676-.29Zm.143,2.684-.583-1.163-3.178.251a.6.6,0,0,0,.047,1.2Z" transform="translate(-53.819 -299.642)"/>
          <path id="Trazado_910599" data-name="Trazado 910599" d="M97.589,261.7a.743.743,0,0,1-.664-.41l-1.3-2.6a.742.742,0,0,1,.106-.822l2.432-2.772a2.087,2.087,0,0,1,3.138,2.753l-3.153,3.594A.742.742,0,0,1,97.589,261.7Zm-.414-3.224.583,1.163,2.426-2.765a.6.6,0,0,0,.086-.667.6.6,0,0,0-.992-.127Z" transform="translate(-86.727 -246.602)"/>
          <path id="Trazado_910600" data-name="Trazado 910600" d="M84.44,235.472a.743.743,0,0,1-.664-.41l-1.3-2.6a.742.742,0,0,1,.106-.822l2.432-2.772a2.087,2.087,0,0,1,3.138,2.753L85,235.219A.742.742,0,0,1,84.44,235.472Zm-.414-3.224.583,1.163,2.426-2.765a.6.6,0,0,0,.086-.667.6.6,0,0,0-.992-.127Z" transform="translate(-74.879 -222.971)"/>
          <path id="Trazado_910601" data-name="Trazado 910601" d="M71.292,209.246a.742.742,0,0,1-.664-.41l-1.3-2.6a.742.742,0,0,1,.106-.822l2.432-2.772A2.087,2.087,0,0,1,75,205.4l-3.153,3.594A.742.742,0,0,1,71.292,209.246Zm-.414-3.224.583,1.163,2.426-2.765a.6.6,0,0,0,.086-.667.6.6,0,0,0-.992-.127Z" transform="translate(-63.032 -199.34)"/>
          <path id="Trazado_910602" data-name="Trazado 910602" d="M58.144,183.019a.743.743,0,0,1-.664-.41l-1.3-2.6a.742.742,0,0,1,.106-.822l2.432-2.772a2.087,2.087,0,0,1,3.138,2.753L58.7,182.766A.742.742,0,0,1,58.144,183.019Zm-.414-3.224.583,1.163,2.426-2.765a.6.6,0,0,0,.086-.667.6.6,0,0,0-.992-.127Z" transform="translate(-51.185 -175.709)"/>
          <path id="Trazado_910603" data-name="Trazado 910603" d="M123.886,314.152a.742.742,0,0,1-.664-.41l-1.3-2.6a.742.742,0,0,1,.106-.822l2.432-2.772a2.087,2.087,0,0,1,3.138,2.753l-3.153,3.594A.742.742,0,0,1,123.886,314.152Zm-.414-3.224.583,1.163,2.426-2.765a.6.6,0,0,0,.086-.667.6.6,0,0,0-.992-.127Z" transform="translate(-110.421 -293.865)"/>
          <path id="Trazado_910604" data-name="Trazado 910604" d="M110.738,287.925a.743.743,0,0,1-.664-.41l-1.3-2.6a.742.742,0,0,1,.106-.822l2.432-2.772a2.087,2.087,0,0,1,3.138,2.753l-3.153,3.594A.742.742,0,0,1,110.738,287.925Zm-.414-3.224.583,1.163,2.426-2.765a.6.6,0,0,0,.086-.667.6.6,0,0,0-.992-.127Z" transform="translate(-98.574 -270.233)"/>
          <path id="Línea_607" data-name="Línea 607" d="M3.808,15.06a.742.742,0,0,1-.664-.41L-7.423-6.427a.742.742,0,0,1,.331-1,.742.742,0,0,1,1,.331L4.47,13.985a.743.743,0,0,1-.663,1.075Z" transform="translate(11.458 8.819)"/>
        </g>
        <path id="Línea_608" data-name="Línea 608" d="M-6.758-3.825A.742.742,0,0,1-7.5-4.567V-6.758A.742.742,0,0,1-6.758-7.5a.742.742,0,0,1,.742.742v2.191A.742.742,0,0,1-6.758-3.825Z" transform="translate(48.224 33.393)"/>
        <path id="Línea_609" data-name="Línea 609" d="M-4.567-6.016H-6.758A.742.742,0,0,1-7.5-6.758.742.742,0,0,1-6.758-7.5h2.191a.742.742,0,0,1,.742.742A.742.742,0,0,1-4.567-6.016Z" transform="translate(47.128 34.489)"/>
        <path id="Línea_610" data-name="Línea 610" transform="translate(44.824 23.659)"/>
        <path id="Trazado_910605" data-name="Trazado 910605" d="M30.87,174.074a.742.742,0,0,1-.222-.034l-1.788-.56a.742.742,0,1,1,.443-1.417l1.038.325.261-1.041a.742.742,0,0,1,1.44.361l-.453,1.8a.742.742,0,0,1-.72.562Z" transform="translate(-26.172 -153.884)"/>
      </g>
    </g>
  </g>
</svg>
