<svg xmlns="http://www.w3.org/2000/svg" xmlns:xlink="http://www.w3.org/1999/xlink" width="102.949" height="102.949" viewBox="0 0 102.949 102.949">
  <defs>
    <filter id="Trazado_874925" x="0" y="0" width="102.949" height="102.949" filterUnits="userSpaceOnUse">
      <feOffset dy="3" input="SourceAlpha"/>
      <feGaussianBlur stdDeviation="3" result="blur"/>
      <feFlood flood-opacity="0.161"/>
      <feComposite operator="in" in2="blur"/>
      <feComposite in="SourceGraphic"/>
    </filter>
  </defs>
  <g id="Grupo_1182278" data-name="Grupo 1182278" transform="translate(-748.051 -2041)">
    <g id="Grupo_1181886" data-name="Grupo 1181886" transform="translate(-51.449 -470.157)">
      <g id="Grupo_1111316" data-name="Grupo 1111316" transform="translate(808.5 2517.157)">
        <g id="Grupo_1109835" data-name="Grupo 1109835" transform="translate(0 0)">
          <g id="Grupo_1107913" data-name="Grupo 1107913" transform="translate(0 0)">
            <g transform="matrix(1, 0, 0, 1, -9, -6)" filter="url(#Trazado_874925)">
              <g id="Trazado_874925-2" data-name="Trazado 874925" transform="translate(9 6)" fill="#9ad354" opacity="0.859">
                <path d="M 42.47446823120117 83.44929504394531 C 36.94229125976562 83.44929504394531 31.57638549804688 82.36614227294922 26.52582168579102 80.22994232177734 C 21.64678573608398 78.16628265380859 17.26464462280273 75.211669921875 13.50113868713379 71.44816589355469 C 9.737632751464844 67.68466949462891 6.78300952911377 63.30253982543945 4.719362258911133 58.42351913452148 C 2.583150625228882 53.37295150756836 1.499997615814209 48.00706100463867 1.499997615814209 42.47489547729492 C 1.499997615814209 36.94223403930664 2.583150625228882 31.57634162902832 4.719362258911133 26.52577781677246 C 6.78300952911377 21.64675331115723 9.737632751464844 17.26462364196777 13.50113868713379 13.50113010406494 C 17.26464462280273 9.737624168395996 21.64678573608398 6.783012390136719 26.52582168579102 4.719353199005127 C 31.57638549804688 2.583153486251831 36.94229125976562 1.500000476837158 42.47446823120117 1.500000476837158 C 48.00664520263672 1.500000476837158 53.37255096435547 2.583153486251831 58.42311477661133 4.719353199005127 C 63.30215072631836 6.783012390136719 67.68428802490234 9.737624168395996 71.44779968261719 13.50113010406494 C 75.2113037109375 17.26462364196777 78.16592407226562 21.64675331115723 80.22957611083984 26.52577781677246 C 82.36578369140625 31.57634162902832 83.44893646240234 36.94223403930664 83.44893646240234 42.47439956665039 C 83.44893646240234 48.00706100463867 82.36578369140625 53.37295150756836 80.22957611083984 58.42351913452148 C 78.16592407226562 63.30253982543945 75.2113037109375 67.68466949462891 71.44779968261719 71.44816589355469 C 67.68428802490234 75.211669921875 63.30215072631836 78.16628265380859 58.42311477661133 80.22994232177734 C 53.37255096435547 82.36614227294922 48.00664520263672 83.44929504394531 42.47446823120117 83.44929504394531 Z" stroke="none"/>
                <path d="M 42.47446823120117 2.999992370605469 C 37.14412307739258 2.999992370605469 31.97481536865234 4.04327392578125 27.11014938354492 6.100860595703125 C 22.40990829467773 8.088890075683594 18.18804168701172 10.93555450439453 14.56179809570312 14.56178283691406 C 10.93557739257812 18.18801116943359 8.088897705078125 22.40987396240234 6.100868225097656 27.11009979248047 C 4.043281555175781 31.97476577758789 3 37.14406204223633 3 42.47488784790039 C 3 47.80522155761719 4.043281555175781 52.97451400756836 6.100868225097656 57.83917999267578 C 8.088897705078125 62.53940582275391 10.93557739257812 66.76127624511719 14.56179809570312 70.38749694824219 C 18.18804168701172 74.01372528076172 22.40990829467773 76.86039733886719 27.11014938354492 78.84841918945312 C 31.97481536865234 80.906005859375 37.14412307739258 81.94928741455078 42.47446823120117 81.94928741455078 C 47.80481338500977 81.94928741455078 52.97412109375 80.906005859375 57.83879089355469 78.84841918945312 C 62.53902816772461 76.86039733886719 66.76089477539062 74.01372528076172 70.38713073730469 70.38749694824219 C 74.01335906982422 66.76127624511719 76.86003875732422 62.53940582275391 78.84806823730469 57.83917999267578 C 80.90565490722656 52.97451400756836 81.94893646240234 47.80522155761719 81.94893646240234 42.47439575195312 C 81.94893646240234 37.14406204223633 80.90565490722656 31.97476577758789 78.84806823730469 27.11009979248047 C 76.86003875732422 22.40987396240234 74.01335906982422 18.18801116943359 70.38713073730469 14.56178283691406 C 66.76089477539062 10.93555450439453 62.53902816772461 8.088890075683594 57.83879089355469 6.100860595703125 C 52.97412109375 4.04327392578125 47.80481338500977 2.999992370605469 42.47446823120117 2.999992370605469 M 42.47446823120117 -7.62939453125e-06 C 65.93246459960938 -7.62939453125e-06 84.94893646240234 19.01643371582031 84.94893646240234 42.47439575195312 L 84.94893646240234 42.47488784790039 C 84.94893646240234 65.93284606933594 65.93246459960938 84.94928741455078 42.47446823120117 84.94928741455078 C 19.01647186279297 84.94928741455078 0 65.93284606933594 0 42.47488784790039 L 0 42.47439575195312 C 0 19.01643371582031 19.01647186279297 -7.62939453125e-06 42.47446823120117 -7.62939453125e-06 Z" stroke="none" fill="#fff"/>
              </g>
            </g>
            <g id="Trazado_874923" data-name="Trazado 874923" transform="translate(0 0)" fill="none">
              <path d="M42.474,0A42.474,42.474,0,0,1,84.949,42.474h0A42.474,42.474,0,0,1,0,42.475H0A42.474,42.474,0,0,1,42.474,0Z" stroke="none"/>
              <path d="M 42.47446823120117 2.999992370605469 C 37.14412307739258 2.999992370605469 31.97481536865234 4.04327392578125 27.11014938354492 6.100860595703125 C 22.40990829467773 8.088890075683594 18.18804168701172 10.93555450439453 14.56179809570312 14.56178283691406 C 10.93557739257812 18.18801116943359 8.088897705078125 22.40987396240234 6.100868225097656 27.11009979248047 C 4.043281555175781 31.97476577758789 3 37.14406204223633 3 42.47488784790039 C 3 47.80522155761719 4.043281555175781 52.97451400756836 6.100868225097656 57.83917999267578 C 8.088897705078125 62.53940582275391 10.93557739257812 66.76127624511719 14.56179809570312 70.38749694824219 C 18.18804168701172 74.01372528076172 22.40990829467773 76.86039733886719 27.11014938354492 78.84841918945312 C 31.97481536865234 80.906005859375 37.14412307739258 81.94928741455078 42.47446823120117 81.94928741455078 C 47.80481338500977 81.94928741455078 52.97412109375 80.906005859375 57.83879089355469 78.84841918945312 C 62.53902816772461 76.86039733886719 66.76089477539062 74.01372528076172 70.38713073730469 70.38749694824219 C 74.01335906982422 66.76127624511719 76.86003875732422 62.53940582275391 78.84806823730469 57.83917999267578 C 80.90565490722656 52.97451400756836 81.94893646240234 47.80522155761719 81.94893646240234 42.47439575195312 C 81.94893646240234 37.14406204223633 80.90565490722656 31.97476577758789 78.84806823730469 27.11009979248047 C 76.86003875732422 22.40987396240234 74.01335906982422 18.18801116943359 70.38713073730469 14.56178283691406 C 66.76089477539062 10.93555450439453 62.53902816772461 8.088890075683594 57.83879089355469 6.100860595703125 C 52.97412109375 4.04327392578125 47.80481338500977 2.999992370605469 42.47446823120117 2.999992370605469 M 42.47446823120117 -7.62939453125e-06 C 65.93246459960938 -7.62939453125e-06 84.94893646240234 19.01643371582031 84.94893646240234 42.47439575195312 L 84.94893646240234 42.47488784790039 C 84.94893646240234 65.93284606933594 65.93246459960938 84.94928741455078 42.47446823120117 84.94928741455078 C 19.01647186279297 84.94928741455078 0 65.93284606933594 0 42.47488784790039 L 0 42.47439575195312 C 0 19.01643371582031 19.01647186279297 -7.62939453125e-06 42.47446823120117 -7.62939453125e-06 Z" stroke="none" fill="#fff"/>
            </g>
          </g>
        </g>
      </g>
    </g>
    <g id="hombre" transform="translate(774.051 2050.057)">
      <path id="Trazado_910685" data-name="Trazado 910685" d="M300.137,71.629H282.459a2.41,2.41,0,0,0-2.41,2.41V86.9a2.41,2.41,0,0,0,2.41,2.411h2.411l-1.339,5.355a.4.4,0,0,0,.626.422l7.944-5.778h8.035a2.411,2.411,0,0,0,2.41-2.411V74.039A2.41,2.41,0,0,0,300.137,71.629Z" transform="translate(-251.978 -50.104)" fill="#e2e7f2"/>
      <path id="Trazado_910686" data-name="Trazado 910686" d="M357.015,87.7h-1.607a3.214,3.214,0,0,1-3.214-3.214V71.629h8.035V84.485A3.214,3.214,0,0,1,357.015,87.7Z" transform="translate(-316.891 -50.104)" fill="#d5dced"/>
      <g id="Grupo_1182276" data-name="Grupo 1182276" transform="translate(37.713 16.704)">
        <path id="Trazado_910687" data-name="Trazado 910687" d="M376.242,23.532l.8,12.856h1.607l.8-12.856Z" transform="translate(-376.242 -23.532)" fill="#ff507d"/>
        <circle id="Elipse_11680" data-name="Elipse 11680" cx="1.607" cy="1.607" r="1.607" transform="translate(0 15.267)" fill="#ff507d"/>
      </g>
      <path id="Trazado_910688" data-name="Trazado 910688" d="M32.7,378.687l-6.723-2.445-4.821,1.607-4.821-1.607-6.723,2.445A3.214,3.214,0,0,0,7.5,381.707v5.784H34.819v-5.784A3.214,3.214,0,0,0,32.7,378.687Z" transform="translate(-6.748 -324.184)" fill="#00c3ff"/>
      <path id="Trazado_910689" data-name="Trazado 910689" d="M235.907,408.919a3.21,3.21,0,0,1,.865,2.19v5.784h-4.821v-2.686a3.214,3.214,0,0,1,.941-2.273Z" transform="translate(-208.701 -353.585)" fill="#00aaf0"/>
      <path id="Trazado_910690" data-name="Trazado 910690" d="M73.274,136.08v-6.731a1.607,1.607,0,0,0-1.607-1.607H62.025A6.428,6.428,0,0,0,55.6,134.17v1.91a8.034,8.034,0,0,0,.412,2.541l.267.8a2.412,2.412,0,0,1,.124.762v.412h16.07v-.412a2.412,2.412,0,0,1,.124-.762l.267-.8A8.034,8.034,0,0,0,73.274,136.08Z" transform="translate(-50.024 -100.593)" fill="#5a4146"/>
      <path id="Trazado_910691" data-name="Trazado 910691" d="M95.677,131.006a3.264,3.264,0,0,0,3.264,3.264h.452l.218,6.328h8.922v-.412a2.412,2.412,0,0,1,.124-.762l.267-.8a8.034,8.034,0,0,0,.412-2.541v-6.731a1.607,1.607,0,0,0-1.607-1.607H98.941A3.264,3.264,0,0,0,95.677,131.006Z" transform="translate(-86.087 -100.593)" fill="#694b4b"/>
      <rect id="Rectángulo_408447" data-name="Rectángulo 408447" width="9.642" height="7.231" transform="translate(9.591 46.434)" fill="#e6af78"/>
      <path id="Trazado_910692" data-name="Trazado 910692" d="M95.677,323.766a10.4,10.4,0,0,0,9.642,0v-3.637H95.677Z" transform="translate(-86.087 -273.695)" fill="#d29b6e"/>
      <g id="Grupo_1182277" data-name="Grupo 1182277" transform="translate(7.983 50.72)">
        <path id="Trazado_910693" data-name="Trazado 910693" d="M86.073,365.839,83.51,368.4a.8.8,0,0,1-1.208-.082l-2.657-3.5.7-1.465a.8.8,0,0,1,1.147-.34Z" transform="translate(-79.645 -362.894)" fill="#00aaf0"/>
        <path id="Trazado_910694" data-name="Trazado 910694" d="M143.774,365.839l2.563,2.563a.8.8,0,0,0,1.208-.082l2.657-3.5-.7-1.465a.8.8,0,0,0-1.147-.34Z" transform="translate(-137.346 -362.894)" fill="#00aaf0"/>
      </g>
      <path id="Trazado_910695" data-name="Trazado 910695" d="M71.648,207.912h0a8.035,8.035,0,0,1-8.035-8.035v-.8l1.337-.891a2.411,2.411,0,0,0,1.073-2.006v-2.727s6.428-2.411,11.249,1.607v1.12a2.411,2.411,0,0,0,1.073,2.006l1.337.891v.8A8.035,8.035,0,0,1,71.648,207.912Z" transform="translate(-57.237 -159.068)" fill="#f0c087"/>
      <path id="Trazado_910696" data-name="Trazado 910696" d="M8.365,408.919a3.21,3.21,0,0,0-.865,2.19v5.784h4.821v-2.686a3.214,3.214,0,0,0-.941-2.273Z" transform="translate(-6.748 -353.585)" fill="#00aaf0"/>
      <path id="Trazado_910697" data-name="Trazado 910697" d="M69.847,195.381a14.853,14.853,0,0,1,7.425.8v-1.12c-4.821-4.018-11.249-1.607-11.249-1.607v2.727a2.41,2.41,0,0,1-1.073,2.006l-1.337.891v.8a8.032,8.032,0,0,0,7.064,7.971h0a8,8,0,0,1-2.243-5.56v-5.311A1.608,1.608,0,0,1,69.847,195.381Z" transform="translate(-57.237 -159.068)" fill="#e6af78"/>
      <path id="Trazado_910698" data-name="Trazado 910698" d="M81.7,190.165a.05.05,0,0,1,.039-.051,23.751,23.751,0,0,1,4.884-.239c2.344.156,4.042.745,5.047,1.749a.752.752,0,0,0,1.063-1.063c-2.843-2.843-8.792-2.3-11.218-1.934a1.543,1.543,0,0,0-1.319,1.538V191.9a.752.752,0,1,0,1.5,0Z" transform="translate(-72.154 -155.106)"/>
      <path id="Trazado_910699" data-name="Trazado 910699" d="M26.222,147.6,21.6,145.919a.751.751,0,0,0-.2-.576l-1.4-1.471V141.4c.148-.122.294-.247.435-.38a8.824,8.824,0,0,0,2.78-6.414v-1.972a8.69,8.69,0,0,0,.8-3.654v-8.038a.752.752,0,0,0-.752-.752H12.005a7.19,7.19,0,0,0-7.182,7.182v1.608a8.69,8.69,0,0,0,.8,3.654v1.7a9.186,9.186,0,0,0,3.215,7.011v2.528l-1.4,1.471a.751.751,0,0,0-.2.576L2.611,147.6A3.979,3.979,0,0,0,0,151.329v5.786a.752.752,0,0,0,1.5,0v-5.786a2.471,2.471,0,0,1,1.622-2.315L8,147.24l2.03,3.045a1.55,1.55,0,0,0,1.141.685q.078.008.155.008a1.55,1.55,0,0,0,1.1-.456l1.239-1.239v7.831a.752.752,0,0,0,1.5,0v-7.831l1.239,1.239a1.556,1.556,0,0,0,2.394-.237l2.03-3.045,4.877,1.773a2.471,2.471,0,0,1,1.622,2.315v5.786a.752.752,0,0,0,1.5,0v-5.786A3.98,3.98,0,0,0,26.222,147.6ZM7.13,134.333v-1.865a.752.752,0,0,0-.075-.327,7.212,7.212,0,0,1-.729-3.159v-1.608a5.685,5.685,0,0,1,5.679-5.679h10.5v7.286a7.212,7.212,0,0,1-.729,3.159.752.752,0,0,0-.075.327v2.141a7.287,7.287,0,0,1-7.773,7.271A7.446,7.446,0,0,1,7.13,134.333Zm6.7,9.046q.3.019.591.019a8.709,8.709,0,0,0,4.064-1v1.373l-4.071,2.783-4.071-2.783v-1.4A8.465,8.465,0,0,0,13.833,143.379Zm-2.47,6.08a.048.048,0,0,1-.042.015.048.048,0,0,1-.038-.023l-2.338-3.507.752-.791,3.547,2.424Zm6.187-.008a.048.048,0,0,1-.038.023.049.049,0,0,1-.042-.015l-1.881-1.881,3.547-2.424.752.791Z" transform="translate(0 -93.798)"/>
      <path id="Trazado_910700" data-name="Trazado 910700" d="M48.867,448.979a.752.752,0,0,0-.752.752v3.215a.752.752,0,0,0,1.5,0v-3.215A.752.752,0,0,0,48.867,448.979Z" transform="translate(-43.292 -389.63)"/>
      <path id="Trazado_910701" data-name="Trazado 910701" d="M225.289,448.979a.752.752,0,0,0-.752.752v3.215a.752.752,0,0,0,1.5,0v-3.215A.752.752,0,0,0,225.289,448.979Z" transform="translate(-202.03 -389.63)"/>
      <path id="Trazado_910702" data-name="Trazado 910702" d="M293.308,64.058h-4.019a.752.752,0,1,0,0,1.5h4.019a1.662,1.662,0,0,1,1.66,1.66V80.082a1.662,1.662,0,0,1-1.66,1.66H285.27a.751.751,0,0,0-.442.144L277.659,87.1l1.106-4.423a.752.752,0,0,0-.729-.934h-2.411a1.662,1.662,0,0,1-1.66-1.66V67.221a1.662,1.662,0,0,1,1.66-1.66h4.019a.752.752,0,0,0,0-1.5h-4.019a3.167,3.167,0,0,0-3.163,3.163V80.082a3.167,3.167,0,0,0,3.163,3.163h1.449l-1.106,4.423a1.152,1.152,0,0,0,1.8,1.213l7.75-5.636h7.794a3.167,3.167,0,0,0,3.163-3.163V67.221A3.167,3.167,0,0,0,293.308,64.058Z" transform="translate(-245.15 -43.292)"/>
      <path id="Trazado_910703" data-name="Trazado 910703" d="M369.5,29.6a.752.752,0,0,0,.75.7h1.608a.752.752,0,0,0,.75-.7l.8-12.861a.752.752,0,0,0-.75-.8h-3.215a.752.752,0,0,0-.75.8Zm2.361-12.156-.71,11.358h-.2l-.71-11.358Z" transform="translate(-331.736 0)"/>
      <path id="Trazado_910704" data-name="Trazado 910704" d="M371.051,173.027a2.359,2.359,0,1,0-2.359-2.359A2.362,2.362,0,0,0,371.051,173.027Zm0-3.215a.856.856,0,1,1-.856.856A.857.857,0,0,1,371.051,169.812Z" transform="translate(-331.735 -137.092)"/>
    </g>
  </g>
</svg>
