<svg xmlns="http://www.w3.org/2000/svg" xmlns:xlink="http://www.w3.org/1999/xlink" width="102.949" height="102.949" viewBox="0 0 102.949 102.949">
  <defs>
    <filter id="Trazado_874925" x="0" y="0" width="102.949" height="102.949" filterUnits="userSpaceOnUse">
      <feOffset dy="3" input="SourceAlpha"/>
      <feGaussianBlur stdDeviation="3" result="blur"/>
      <feFlood flood-opacity="0.161"/>
      <feComposite operator="in" in2="blur"/>
      <feComposite in="SourceGraphic"/>
    </filter>
  </defs>
  <g id="Grupo_1182097" data-name="Grupo 1182097" transform="translate(-433.051 -6389)">
    <g id="Grupo_1181885" data-name="Grupo 1181885" transform="translate(-366.449 3877.843)">
      <g id="Grupo_1111316" data-name="Grupo 1111316" transform="translate(808.5 2517.157)">
        <g id="Grupo_1109835" data-name="Grupo 1109835" transform="translate(0 0)">
          <g id="Grupo_1107913" data-name="Grupo 1107913" transform="translate(0 0)">
            <g transform="matrix(1, 0, 0, 1, -9, -6)" filter="url(#Trazado_874925)">
              <g id="Trazado_874925-2" data-name="Trazado 874925" transform="translate(9 6)" fill="#4c6929" opacity="0.859">
                <path d="M 42.47446823120117 83.44929504394531 C 36.94229125976562 83.44929504394531 31.57638549804688 82.36614227294922 26.52582168579102 80.22994232177734 C 21.64678573608398 78.16628265380859 17.26464462280273 75.211669921875 13.50113868713379 71.44816589355469 C 9.737632751464844 67.68466949462891 6.78300952911377 63.30253982543945 4.719362258911133 58.42351913452148 C 2.583150625228882 53.37295150756836 1.499997615814209 48.00706100463867 1.499997615814209 42.47489547729492 C 1.499997615814209 36.94223403930664 2.583150625228882 31.57634162902832 4.719362258911133 26.52577781677246 C 6.78300952911377 21.64675331115723 9.737632751464844 17.26462364196777 13.50113868713379 13.50113010406494 C 17.26464462280273 9.737624168395996 21.64678573608398 6.783012390136719 26.52582168579102 4.719353199005127 C 31.57638549804688 2.583153486251831 36.94229125976562 1.500000476837158 42.47446823120117 1.500000476837158 C 48.00664520263672 1.500000476837158 53.37255096435547 2.583153486251831 58.42311477661133 4.719353199005127 C 63.30215072631836 6.783012390136719 67.68428802490234 9.737624168395996 71.44779968261719 13.50113010406494 C 75.2113037109375 17.26462364196777 78.16592407226562 21.64675331115723 80.22957611083984 26.52577781677246 C 82.36578369140625 31.57634162902832 83.44893646240234 36.94223403930664 83.44893646240234 42.47439956665039 C 83.44893646240234 48.00706100463867 82.36578369140625 53.37295150756836 80.22957611083984 58.42351913452148 C 78.16592407226562 63.30253982543945 75.2113037109375 67.68466949462891 71.44779968261719 71.44816589355469 C 67.68428802490234 75.211669921875 63.30215072631836 78.16628265380859 58.42311477661133 80.22994232177734 C 53.37255096435547 82.36614227294922 48.00664520263672 83.44929504394531 42.47446823120117 83.44929504394531 Z" stroke="none"/>
                <path d="M 42.47446823120117 2.999992370605469 C 37.14412307739258 2.999992370605469 31.97481536865234 4.04327392578125 27.11014938354492 6.100860595703125 C 22.40990829467773 8.088890075683594 18.18804168701172 10.93555450439453 14.56179809570312 14.56178283691406 C 10.93557739257812 18.18801116943359 8.088897705078125 22.40987396240234 6.100868225097656 27.11009979248047 C 4.043281555175781 31.97476577758789 3 37.14406204223633 3 42.47488784790039 C 3 47.80522155761719 4.043281555175781 52.97451400756836 6.100868225097656 57.83917999267578 C 8.088897705078125 62.53940582275391 10.93557739257812 66.76127624511719 14.56179809570312 70.38749694824219 C 18.18804168701172 74.01372528076172 22.40990829467773 76.86039733886719 27.11014938354492 78.84841918945312 C 31.97481536865234 80.906005859375 37.14412307739258 81.94928741455078 42.47446823120117 81.94928741455078 C 47.80481338500977 81.94928741455078 52.97412109375 80.906005859375 57.83879089355469 78.84841918945312 C 62.53902816772461 76.86039733886719 66.76089477539062 74.01372528076172 70.38713073730469 70.38749694824219 C 74.01335906982422 66.76127624511719 76.86003875732422 62.53940582275391 78.84806823730469 57.83917999267578 C 80.90565490722656 52.97451400756836 81.94893646240234 47.80522155761719 81.94893646240234 42.47439575195312 C 81.94893646240234 37.14406204223633 80.90565490722656 31.97476577758789 78.84806823730469 27.11009979248047 C 76.86003875732422 22.40987396240234 74.01335906982422 18.18801116943359 70.38713073730469 14.56178283691406 C 66.76089477539062 10.93555450439453 62.53902816772461 8.088890075683594 57.83879089355469 6.100860595703125 C 52.97412109375 4.04327392578125 47.80481338500977 2.999992370605469 42.47446823120117 2.999992370605469 M 42.47446823120117 -7.62939453125e-06 C 65.93246459960938 -7.62939453125e-06 84.94893646240234 19.01643371582031 84.94893646240234 42.47439575195312 L 84.94893646240234 42.47488784790039 C 84.94893646240234 65.93284606933594 65.93246459960938 84.94928741455078 42.47446823120117 84.94928741455078 C 19.01647186279297 84.94928741455078 0 65.93284606933594 0 42.47488784790039 L 0 42.47439575195312 C 0 19.01643371582031 19.01647186279297 -7.62939453125e-06 42.47446823120117 -7.62939453125e-06 Z" stroke="none" fill="#fff"/>
              </g>
            </g>
            <g id="Trazado_874923" data-name="Trazado 874923" transform="translate(0 0)" fill="none">
              <path d="M42.474,0A42.474,42.474,0,0,1,84.949,42.474h0A42.474,42.474,0,0,1,0,42.475H0A42.474,42.474,0,0,1,42.474,0Z" stroke="none"/>
              <path d="M 42.47446823120117 2.999992370605469 C 37.14412307739258 2.999992370605469 31.97481536865234 4.04327392578125 27.11014938354492 6.100860595703125 C 22.40990829467773 8.088890075683594 18.18804168701172 10.93555450439453 14.56179809570312 14.56178283691406 C 10.93557739257812 18.18801116943359 8.088897705078125 22.40987396240234 6.100868225097656 27.11009979248047 C 4.043281555175781 31.97476577758789 3 37.14406204223633 3 42.47488784790039 C 3 47.80522155761719 4.043281555175781 52.97451400756836 6.100868225097656 57.83917999267578 C 8.088897705078125 62.53940582275391 10.93557739257812 66.76127624511719 14.56179809570312 70.38749694824219 C 18.18804168701172 74.01372528076172 22.40990829467773 76.86039733886719 27.11014938354492 78.84841918945312 C 31.97481536865234 80.906005859375 37.14412307739258 81.94928741455078 42.47446823120117 81.94928741455078 C 47.80481338500977 81.94928741455078 52.97412109375 80.906005859375 57.83879089355469 78.84841918945312 C 62.53902816772461 76.86039733886719 66.76089477539062 74.01372528076172 70.38713073730469 70.38749694824219 C 74.01335906982422 66.76127624511719 76.86003875732422 62.53940582275391 78.84806823730469 57.83917999267578 C 80.90565490722656 52.97451400756836 81.94893646240234 47.80522155761719 81.94893646240234 42.47439575195312 C 81.94893646240234 37.14406204223633 80.90565490722656 31.97476577758789 78.84806823730469 27.11009979248047 C 76.86003875732422 22.40987396240234 74.01335906982422 18.18801116943359 70.38713073730469 14.56178283691406 C 66.76089477539062 10.93555450439453 62.53902816772461 8.088890075683594 57.83879089355469 6.100860595703125 C 52.97412109375 4.04327392578125 47.80481338500977 2.999992370605469 42.47446823120117 2.999992370605469 M 42.47446823120117 -7.62939453125e-06 C 65.93246459960938 -7.62939453125e-06 84.94893646240234 19.01643371582031 84.94893646240234 42.47439575195312 L 84.94893646240234 42.47488784790039 C 84.94893646240234 65.93284606933594 65.93246459960938 84.94928741455078 42.47446823120117 84.94928741455078 C 19.01647186279297 84.94928741455078 0 65.93284606933594 0 42.47488784790039 L 0 42.47439575195312 C 0 19.01643371582031 19.01647186279297 -7.62939453125e-06 42.47446823120117 -7.62939453125e-06 Z" stroke="none" fill="#fff"/>
            </g>
          </g>
        </g>
      </g>
    </g>
    <g id="el-respeto" transform="translate(459.051 6372.739)">
      <g id="Grupo_1182096" data-name="Grupo 1182096" transform="translate(1.003 44.264)">
        <path id="Trazado_910191" data-name="Trazado 910191" d="M14.608,78.287l-.378-.378a14.438,14.438,0,0,1,0-20.418h0a14.438,14.438,0,0,1,20.418,0l.018.018.019.019,6.075,8.531,11.3,11.3a2.775,2.775,0,0,1,0,3.925h0a2.775,2.775,0,0,1-3.925,0l-4.172-4.172,4.172,4.172a2.775,2.775,0,0,1,0,3.925h0a2.775,2.775,0,0,1-3.925,0l-4.172-4.172,4.172,4.172a2.775,2.775,0,0,1,0,3.925h0a2.775,2.775,0,0,1-3.925,0L36.114,84.96,36.078,85l4.172,4.172a2.775,2.775,0,0,1,0,3.925h0a2.775,2.775,0,0,1-3.925,0l-2.369-2.369Z" transform="translate(-10.002 -53.263)" fill="#fcc69d"/>
        <path id="Trazado_910192" data-name="Trazado 910192" d="M195.26,63.6l-.819.819a5.916,5.916,0,0,1-4.183,1.733h-3.949l-3.023,3.023a3.3,3.3,0,0,1-4.674,0h0a3.3,3.3,0,0,1,0-4.674l6.9-6.9a14.438,14.438,0,0,1,20.418,0h0a14.438,14.438,0,0,1,0,20.418l-1.944,1.944-.476-1.577L191.7,66.565" transform="translate(-160.84 -53.356)" fill="#fcc69d"/>
        <path id="Trazado_910193" data-name="Trazado 910193" d="M180.9,382.043l-1.728,1.728a2.775,2.775,0,0,0,0,3.925h0a2.775,2.775,0,0,0,3.925,0l1.728-1.728a2.775,2.775,0,0,0,0-3.925h0A2.775,2.775,0,0,0,180.9,382.043Z" transform="translate(-161.485 -348.356)" fill="#fcc69d"/>
        <path id="Trazado_910194" data-name="Trazado 910194" d="M141.747,342.89l-1.728,1.728a2.775,2.775,0,0,0,0,3.925h0a2.775,2.775,0,0,0,3.925,0l1.728-1.728a2.775,2.775,0,0,0,0-3.925h0A2.775,2.775,0,0,0,141.747,342.89Z" transform="translate(-126.256 -313.128)" fill="#fcc69d"/>
        <path id="Trazado_910195" data-name="Trazado 910195" d="M102.593,303.735l-1.728,1.728a2.775,2.775,0,0,0,0,3.925h0a2.775,2.775,0,0,0,3.925,0l1.728-1.728a2.775,2.775,0,0,0,0-3.925h0A2.775,2.775,0,0,0,102.593,303.735Z" transform="translate(-91.027 -277.897)" fill="#fcc69d"/>
        <path id="Trazado_910196" data-name="Trazado 910196" d="M63.439,264.58l-1.728,1.728a2.775,2.775,0,0,0,0,3.925h0a2.775,2.775,0,0,0,3.925,0l1.728-1.728a2.775,2.775,0,0,0,0-3.925h0A2.775,2.775,0,0,0,63.439,264.58Z" transform="translate(-55.797 -242.667)" fill="#fcc69d"/>
      </g>
      <path id="Trazado_910197" data-name="Trazado 910197" d="M451.69,85.169a1,1,0,1,0,.709.294A1.008,1.008,0,0,0,451.69,85.169Z" transform="translate(-405.513 -37.707)"/>
      <path id="Trazado_910198" data-name="Trazado 910198" d="M222,320.7a1,1,0,1,0,.709.294A1.009,1.009,0,0,0,222,320.7Z" transform="translate(-198.848 -249.625)"/>
      <path id="Trazado_910199" data-name="Trazado 910199" d="M49.314,51.085a1,1,0,1,0-1.743.991,13.466,13.466,0,0,1-2.186,16.136l-.76.76a3.754,3.754,0,0,0-.856-1.321l-10.3-10.3a6.926,6.926,0,0,0,1.842-1.32l1.975-1.976a1,1,0,1,0-1.418-1.418l-1.975,1.976a4.881,4.881,0,0,1-3.474,1.439H26.471a1,1,0,0,0-.709.294l-3.023,3.023a2.3,2.3,0,0,1-3.256-3.256l6.9-6.9A13.491,13.491,0,0,1,42.4,46.956a1,1,0,0,0,.972-1.753,15.551,15.551,0,0,0-9.534-1.8,15.277,15.277,0,0,0-8.168,3.727A15.44,15.44,0,0,0,4.522,69.619L4.9,70a1,1,0,0,0,.216.163,3.769,3.769,0,0,0,3.763,3.482c.05,0,.1,0,.151,0,0,.051,0,.1,0,.152A3.774,3.774,0,0,0,12.8,77.566c.05,0,.1,0,.151,0,0,.051,0,.1,0,.152a3.775,3.775,0,0,0,3.778,3.776c.051,0,.1,0,.152,0a3.776,3.776,0,0,0,6.443,2.824l1.4-1.4L26.617,84.8a3.776,3.776,0,0,0,6.442-2.86c.063,0,.126,0,.189,0a3.771,3.771,0,0,0,3.772-3.927c.051,0,.1,0,.152,0A3.774,3.774,0,0,0,40.945,74.1c.051,0,.1,0,.152,0a3.775,3.775,0,0,0,3.49-2.334,1,1,0,0,0,.27-.192L46.8,69.629A15.475,15.475,0,0,0,49.314,51.085ZM8.879,71.639a1.773,1.773,0,0,1-1.253-3.026l1.727-1.727a1.773,1.773,0,0,1,2.507,2.507L10.133,71.12A1.762,1.762,0,0,1,8.879,71.639Zm2.671,3.405a1.773,1.773,0,0,1,0-2.507l1.728-1.728h0a1.773,1.773,0,0,1,2.507,2.507l-1.727,1.728A1.775,1.775,0,0,1,11.551,75.044Zm3.925,3.925a1.773,1.773,0,0,1,0-2.507L17.2,74.734h0a1.773,1.773,0,0,1,2.507,2.507l-1.728,1.728A1.775,1.775,0,0,1,15.475,78.969Zm6.432,3.925A1.773,1.773,0,0,1,19.4,80.387l1.728-1.728h0a1.773,1.773,0,0,1,2.507,2.507ZM42.352,71.575a1.773,1.773,0,0,1-2.507,0L35.672,67.4h0l-3.924-3.924A1,1,0,1,0,30.33,64.9l8.1,8.1A1.773,1.773,0,1,1,35.92,75.5l-8.1-8.1a1,1,0,0,0-1.418,1.418l3.924,3.924h0L34.5,76.917A1.773,1.773,0,1,1,32,79.424l-4.173-4.173a1,1,0,0,0-.256-.185l-1.19-1.19a1,1,0,1,0-1.418,1.418l5.583,5.583a1.773,1.773,0,1,1-2.507,2.507L25.911,81.26a3.778,3.778,0,0,0-3.53-5.125c-.051,0-.1,0-.152,0a3.774,3.774,0,0,0-3.772-3.928c-.051,0-.1,0-.152,0a3.774,3.774,0,0,0-3.772-3.928c-.051,0-.1,0-.152,0a3.775,3.775,0,0,0-6.443-2.822L6.209,67.195a3.776,3.776,0,0,0-.556.709A13.436,13.436,0,0,1,24.226,48.535l-6.16,6.16a4.307,4.307,0,0,0,6.092,6.092l2.73-2.73h3.534A7.021,7.021,0,0,0,31.286,58L42.352,69.068A1.776,1.776,0,0,1,42.352,71.575Z" transform="translate(0 0)"/>
    </g>
  </g>
</svg>
