<svg xmlns="http://www.w3.org/2000/svg" xmlns:xlink="http://www.w3.org/1999/xlink" width="102.949" height="102.949" viewBox="0 0 102.949 102.949">
  <defs>
    <filter id="Trazado_874925" x="0" y="0" width="102.949" height="102.949" filterUnits="userSpaceOnUse">
      <feOffset dy="3" input="SourceAlpha"/>
      <feGaussianBlur stdDeviation="3" result="blur"/>
      <feFlood flood-opacity="0.161"/>
      <feComposite operator="in" in2="blur"/>
      <feComposite in="SourceGraphic"/>
    </filter>
  </defs>
  <g id="Grupo_1182268" data-name="Grupo 1182268" transform="translate(-590.654 -766.484)">
    <g id="Grupo_1181897" data-name="Grupo 1181897" transform="translate(-208.847 -1744.673)">
      <g id="Grupo_1111316" data-name="Grupo 1111316" transform="translate(808.5 2517.157)">
        <g id="Grupo_1109835" data-name="Grupo 1109835" transform="translate(0 0)">
          <g id="Grupo_1107913" data-name="Grupo 1107913" transform="translate(0 0)">
            <g transform="matrix(1, 0, 0, 1, -9, -6)" filter="url(#Trazado_874925)">
              <g id="Trazado_874925-2" data-name="Trazado 874925" transform="translate(9 6)" fill="#4c6929" opacity="0.859">
                <path d="M 42.47446823120117 83.44929504394531 C 36.94229125976562 83.44929504394531 31.57638549804688 82.36614227294922 26.52582168579102 80.22994232177734 C 21.64678573608398 78.16628265380859 17.26464462280273 75.211669921875 13.50113868713379 71.44816589355469 C 9.737632751464844 67.68466949462891 6.78300952911377 63.30253982543945 4.719362258911133 58.42351913452148 C 2.583150625228882 53.37295150756836 1.499997615814209 48.00706100463867 1.499997615814209 42.47489547729492 C 1.499997615814209 36.94223403930664 2.583150625228882 31.57634162902832 4.719362258911133 26.52577781677246 C 6.78300952911377 21.64675331115723 9.737632751464844 17.26462364196777 13.50113868713379 13.50113010406494 C 17.26464462280273 9.737624168395996 21.64678573608398 6.783012390136719 26.52582168579102 4.719353199005127 C 31.57638549804688 2.583153486251831 36.94229125976562 1.500000476837158 42.47446823120117 1.500000476837158 C 48.00664520263672 1.500000476837158 53.37255096435547 2.583153486251831 58.42311477661133 4.719353199005127 C 63.30215072631836 6.783012390136719 67.68428802490234 9.737624168395996 71.44779968261719 13.50113010406494 C 75.2113037109375 17.26462364196777 78.16592407226562 21.64675331115723 80.22957611083984 26.52577781677246 C 82.36578369140625 31.57634162902832 83.44893646240234 36.94223403930664 83.44893646240234 42.47439956665039 C 83.44893646240234 48.00706100463867 82.36578369140625 53.37295150756836 80.22957611083984 58.42351913452148 C 78.16592407226562 63.30253982543945 75.2113037109375 67.68466949462891 71.44779968261719 71.44816589355469 C 67.68428802490234 75.211669921875 63.30215072631836 78.16628265380859 58.42311477661133 80.22994232177734 C 53.37255096435547 82.36614227294922 48.00664520263672 83.44929504394531 42.47446823120117 83.44929504394531 Z" stroke="none"/>
                <path d="M 42.47446823120117 2.999992370605469 C 37.14412307739258 2.999992370605469 31.97481536865234 4.04327392578125 27.11014938354492 6.100860595703125 C 22.40990829467773 8.088890075683594 18.18804168701172 10.93555450439453 14.56179809570312 14.56178283691406 C 10.93557739257812 18.18801116943359 8.088897705078125 22.40987396240234 6.100868225097656 27.11009979248047 C 4.043281555175781 31.97476577758789 3 37.14406204223633 3 42.47488784790039 C 3 47.80522155761719 4.043281555175781 52.97451400756836 6.100868225097656 57.83917999267578 C 8.088897705078125 62.53940582275391 10.93557739257812 66.76127624511719 14.56179809570312 70.38749694824219 C 18.18804168701172 74.01372528076172 22.40990829467773 76.86039733886719 27.11014938354492 78.84841918945312 C 31.97481536865234 80.906005859375 37.14412307739258 81.94928741455078 42.47446823120117 81.94928741455078 C 47.80481338500977 81.94928741455078 52.97412109375 80.906005859375 57.83879089355469 78.84841918945312 C 62.53902816772461 76.86039733886719 66.76089477539062 74.01372528076172 70.38713073730469 70.38749694824219 C 74.01335906982422 66.76127624511719 76.86003875732422 62.53940582275391 78.84806823730469 57.83917999267578 C 80.90565490722656 52.97451400756836 81.94893646240234 47.80522155761719 81.94893646240234 42.47439575195312 C 81.94893646240234 37.14406204223633 80.90565490722656 31.97476577758789 78.84806823730469 27.11009979248047 C 76.86003875732422 22.40987396240234 74.01335906982422 18.18801116943359 70.38713073730469 14.56178283691406 C 66.76089477539062 10.93555450439453 62.53902816772461 8.088890075683594 57.83879089355469 6.100860595703125 C 52.97412109375 4.04327392578125 47.80481338500977 2.999992370605469 42.47446823120117 2.999992370605469 M 42.47446823120117 -7.62939453125e-06 C 65.93246459960938 -7.62939453125e-06 84.94893646240234 19.01643371582031 84.94893646240234 42.47439575195312 L 84.94893646240234 42.47488784790039 C 84.94893646240234 65.93284606933594 65.93246459960938 84.94928741455078 42.47446823120117 84.94928741455078 C 19.01647186279297 84.94928741455078 0 65.93284606933594 0 42.47488784790039 L 0 42.47439575195312 C 0 19.01643371582031 19.01647186279297 -7.62939453125e-06 42.47446823120117 -7.62939453125e-06 Z" stroke="none" fill="#fff"/>
              </g>
            </g>
            <g id="Trazado_874923" data-name="Trazado 874923" transform="translate(0 0)" fill="none">
              <path d="M42.474,0A42.474,42.474,0,0,1,84.949,42.474h0A42.474,42.474,0,0,1,0,42.475H0A42.474,42.474,0,0,1,42.474,0Z" stroke="none"/>
              <path d="M 42.47446823120117 2.999992370605469 C 37.14412307739258 2.999992370605469 31.97481536865234 4.04327392578125 27.11014938354492 6.100860595703125 C 22.40990829467773 8.088890075683594 18.18804168701172 10.93555450439453 14.56179809570312 14.56178283691406 C 10.93557739257812 18.18801116943359 8.088897705078125 22.40987396240234 6.100868225097656 27.11009979248047 C 4.043281555175781 31.97476577758789 3 37.14406204223633 3 42.47488784790039 C 3 47.80522155761719 4.043281555175781 52.97451400756836 6.100868225097656 57.83917999267578 C 8.088897705078125 62.53940582275391 10.93557739257812 66.76127624511719 14.56179809570312 70.38749694824219 C 18.18804168701172 74.01372528076172 22.40990829467773 76.86039733886719 27.11014938354492 78.84841918945312 C 31.97481536865234 80.906005859375 37.14412307739258 81.94928741455078 42.47446823120117 81.94928741455078 C 47.80481338500977 81.94928741455078 52.97412109375 80.906005859375 57.83879089355469 78.84841918945312 C 62.53902816772461 76.86039733886719 66.76089477539062 74.01372528076172 70.38713073730469 70.38749694824219 C 74.01335906982422 66.76127624511719 76.86003875732422 62.53940582275391 78.84806823730469 57.83917999267578 C 80.90565490722656 52.97451400756836 81.94893646240234 47.80522155761719 81.94893646240234 42.47439575195312 C 81.94893646240234 37.14406204223633 80.90565490722656 31.97476577758789 78.84806823730469 27.11009979248047 C 76.86003875732422 22.40987396240234 74.01335906982422 18.18801116943359 70.38713073730469 14.56178283691406 C 66.76089477539062 10.93555450439453 62.53902816772461 8.088890075683594 57.83879089355469 6.100860595703125 C 52.97412109375 4.04327392578125 47.80481338500977 2.999992370605469 42.47446823120117 2.999992370605469 M 42.47446823120117 -7.62939453125e-06 C 65.93246459960938 -7.62939453125e-06 84.94893646240234 19.01643371582031 84.94893646240234 42.47439575195312 L 84.94893646240234 42.47488784790039 C 84.94893646240234 65.93284606933594 65.93246459960938 84.94928741455078 42.47446823120117 84.94928741455078 C 19.01647186279297 84.94928741455078 0 65.93284606933594 0 42.47488784790039 L 0 42.47439575195312 C 0 19.01643371582031 19.01647186279297 -7.62939453125e-06 42.47446823120117 -7.62939453125e-06 Z" stroke="none" fill="#fff"/>
            </g>
          </g>
        </g>
      </g>
    </g>
    <g id="_11-best_price" data-name="11-best price" transform="translate(619.3 789.548)">
      <circle id="Elipse_11676" data-name="Elipse 11676" cx="15.572" cy="15.572" r="15.572" transform="translate(15.572 0.741)" fill="#ebd557"/>
      <circle id="Elipse_11677" data-name="Elipse 11677" cx="12.606" cy="12.606" r="12.606" transform="translate(18.538 3.707)" fill="#fcea81"/>
      <path id="Trazado_910603" data-name="Trazado 910603" d="M40.674,15.381H39.191a2.225,2.225,0,1,1,0-4.449h5.191a1.483,1.483,0,0,0,0-2.966H41.415V5H38.449V8.025a5.191,5.191,0,0,0,.741,10.322h1.483a2.225,2.225,0,0,1,0,4.449H35.483a1.483,1.483,0,1,0,0,2.966h2.966v2.966h2.966V25.7a5.191,5.191,0,0,0-.742-10.322Z" transform="translate(-8.789 -1.293)" fill="#d7986c"/>
      <path id="Trazado_910604" data-name="Trazado 910604" d="M31.021,39.83h-.741a2.225,2.225,0,1,1,0,4.449h-.741a2.225,2.225,0,1,1,0,4.449H28.8a2.225,2.225,0,1,1,0,4.449H16.191L11,51.694V38.347c2.225,0,3.708-2.966,3.708-2.966L17.674,25s3.708,0,3.708,4.449l-.742,5.932H31.021a2.224,2.224,0,1,1,0,4.449Z" transform="translate(-2.843 -6.463)" fill="#e7cea0"/>
      <path id="Trazado_910605" data-name="Trazado 910605" d="M1,41H8.415V57.313H1Z" transform="translate(-0.258 -10.599)" fill="#7bace6"/>
      <path id="Trazado_910606" data-name="Trazado 910606" d="M31.143,37.347a2.966,2.966,0,0,0-2.966-2.966H18.634l.645-5.1a.363.363,0,0,0,0-.089c0-4.108-2.907-5.191-4.449-5.191a.741.741,0,0,0-.741.541l-2.966,10.3A5.687,5.687,0,0,1,8.9,37.191v-.586a.742.742,0,0,0-.742-.742H.742A.742.742,0,0,0,0,36.605V52.918a.742.742,0,0,0,.742.742H8.157a.742.742,0,0,0,.742-.742v-.5l4.249,1.238a.593.593,0,0,0,.2,0H25.953a2.966,2.966,0,0,0,2.225-4.879,2.966,2.966,0,0,0,.742-4.449,2.966,2.966,0,0,0,.741-4.449A2.966,2.966,0,0,0,31.143,37.347ZM7.415,52.177H1.483V37.347H7.415Zm18.538,0h-12.5L8.9,50.879V38.741c2.225-.512,3.567-3.159,3.626-3.285a.993.993,0,0,0,.052-.133l2.8-9.773c.868.193,2.41.912,2.425,3.6l-.742,5.888a.74.74,0,0,0,.742.83H28.177a1.483,1.483,0,0,1,0,2.966H24.47a.741.741,0,1,0,0,1.483h2.966a1.483,1.483,0,0,1,0,2.966H23.728a.741.741,0,1,0,0,1.483h2.966a1.483,1.483,0,0,1,0,2.966H22.987a.741.741,0,1,0,0,1.483h2.966a1.483,1.483,0,0,1,0,2.966Z" transform="translate(0 -6.204)"/>
      <path id="Trazado_910607" data-name="Trazado 910607" d="M12.742,13.966h.741v.742a.742.742,0,0,0,1.483,0v-.742h.742a.741.741,0,0,0,0-1.483h-.742v-.742a.742.742,0,0,0-1.483,0v.742h-.741a.741.741,0,1,0,0,1.483Z" transform="translate(-3.102 -2.844)"/>
      <path id="Trazado_910608" data-name="Trazado 910608" d="M52.707,49.483h-.741v-.741a.742.742,0,0,0-1.483,0v.741h-.741a.742.742,0,0,0,0,1.483h.741v.741a.742.742,0,1,0,1.483,0v-.741h.741a.742.742,0,0,0,0-1.483Z" transform="translate(-12.666 -12.408)"/>
      <path id="Trazado_910609" data-name="Trazado 910609" d="M36.313,0A16.313,16.313,0,0,0,20,16.313a.741.741,0,0,0,1.483,0A14.83,14.83,0,1,1,39.138,30.876a.745.745,0,1,0,.141,1.483h.141A16.313,16.313,0,0,0,36.313,0Z" transform="translate(-5.17 0)"/>
      <path id="Trazado_910610" data-name="Trazado 910610" d="M46.347,20.313a5.932,5.932,0,0,0-5.932-5.932H38.932a1.483,1.483,0,1,1,0-2.966h5.191a2.225,2.225,0,1,0,0-4.449H41.9V4.741A.741.741,0,0,0,41.157,4H38.191a.742.742,0,0,0-.742.741V7.159A5.932,5.932,0,0,0,38.932,18.83h1.483a1.483,1.483,0,0,1,0,2.966H35.225a2.225,2.225,0,1,0,0,4.449h2.224V28.47a.741.741,0,0,0,.742.741h2.966a.741.741,0,0,0,.741-.741V26.052A5.932,5.932,0,0,0,46.347,20.313Zm-5.294,4.4a.741.741,0,0,0-.638.742v2.276H38.932V25.5a.742.742,0,0,0-.742-.741H35.225a.742.742,0,1,1,0-1.483h5.191a2.966,2.966,0,1,0,0-5.932H38.932A4.449,4.449,0,0,1,38.294,8.5a.742.742,0,0,0,.638-.742V5.483h1.483V7.708a.742.742,0,0,0,.742.741h2.966a.742.742,0,0,1,0,1.483H38.932a2.966,2.966,0,0,0,0,5.932h1.483a4.449,4.449,0,0,1,.638,8.846Z" transform="translate(-8.53 -1.034)"/>
    </g>
  </g>
</svg>
