<svg xmlns="http://www.w3.org/2000/svg" xmlns:xlink="http://www.w3.org/1999/xlink" width="102.949" height="102.949" viewBox="0 0 102.949 102.949">
  <defs>
    <filter id="Trazado_874925" x="0" y="0" width="102.949" height="102.949" filterUnits="userSpaceOnUse">
      <feOffset dy="3" input="SourceAlpha"/>
      <feGaussianBlur stdDeviation="3" result="blur"/>
      <feFlood flood-opacity="0.161"/>
      <feComposite operator="in" in2="blur"/>
      <feComposite in="SourceGraphic"/>
    </filter>
  </defs>
  <g id="Grupo_1182288" data-name="Grupo 1182288" transform="translate(-906.051 -766)">
    <g id="Grupo_1181898" data-name="Grupo 1181898" transform="translate(106.551 -1745.157)">
      <g id="Grupo_1111316" data-name="Grupo 1111316" transform="translate(808.5 2517.157)">
        <g id="Grupo_1109835" data-name="Grupo 1109835" transform="translate(0 0)">
          <g id="Grupo_1107913" data-name="Grupo 1107913" transform="translate(0 0)">
            <g transform="matrix(1, 0, 0, 1, -9, -6)" filter="url(#Trazado_874925)">
              <g id="Trazado_874925-2" data-name="Trazado 874925" transform="translate(9 6)" fill="#4c6929" opacity="0.859">
                <path d="M 42.47446823120117 83.44929504394531 C 36.94229125976562 83.44929504394531 31.57638549804688 82.36614227294922 26.52582168579102 80.22994232177734 C 21.64678573608398 78.16628265380859 17.26464462280273 75.211669921875 13.50113868713379 71.44816589355469 C 9.737632751464844 67.68466949462891 6.78300952911377 63.30253982543945 4.719362258911133 58.42351913452148 C 2.583150625228882 53.37295150756836 1.499997615814209 48.00706100463867 1.499997615814209 42.47489547729492 C 1.499997615814209 36.94223403930664 2.583150625228882 31.57634162902832 4.719362258911133 26.52577781677246 C 6.78300952911377 21.64675331115723 9.737632751464844 17.26462364196777 13.50113868713379 13.50113010406494 C 17.26464462280273 9.737624168395996 21.64678573608398 6.783012390136719 26.52582168579102 4.719353199005127 C 31.57638549804688 2.583153486251831 36.94229125976562 1.500000476837158 42.47446823120117 1.500000476837158 C 48.00664520263672 1.500000476837158 53.37255096435547 2.583153486251831 58.42311477661133 4.719353199005127 C 63.30215072631836 6.783012390136719 67.68428802490234 9.737624168395996 71.44779968261719 13.50113010406494 C 75.2113037109375 17.26462364196777 78.16592407226562 21.64675331115723 80.22957611083984 26.52577781677246 C 82.36578369140625 31.57634162902832 83.44893646240234 36.94223403930664 83.44893646240234 42.47439956665039 C 83.44893646240234 48.00706100463867 82.36578369140625 53.37295150756836 80.22957611083984 58.42351913452148 C 78.16592407226562 63.30253982543945 75.2113037109375 67.68466949462891 71.44779968261719 71.44816589355469 C 67.68428802490234 75.211669921875 63.30215072631836 78.16628265380859 58.42311477661133 80.22994232177734 C 53.37255096435547 82.36614227294922 48.00664520263672 83.44929504394531 42.47446823120117 83.44929504394531 Z" stroke="none"/>
                <path d="M 42.47446823120117 2.999992370605469 C 37.14412307739258 2.999992370605469 31.97481536865234 4.04327392578125 27.11014938354492 6.100860595703125 C 22.40990829467773 8.088890075683594 18.18804168701172 10.93555450439453 14.56179809570312 14.56178283691406 C 10.93557739257812 18.18801116943359 8.088897705078125 22.40987396240234 6.100868225097656 27.11009979248047 C 4.043281555175781 31.97476577758789 3 37.14406204223633 3 42.47488784790039 C 3 47.80522155761719 4.043281555175781 52.97451400756836 6.100868225097656 57.83917999267578 C 8.088897705078125 62.53940582275391 10.93557739257812 66.76127624511719 14.56179809570312 70.38749694824219 C 18.18804168701172 74.01372528076172 22.40990829467773 76.86039733886719 27.11014938354492 78.84841918945312 C 31.97481536865234 80.906005859375 37.14412307739258 81.94928741455078 42.47446823120117 81.94928741455078 C 47.80481338500977 81.94928741455078 52.97412109375 80.906005859375 57.83879089355469 78.84841918945312 C 62.53902816772461 76.86039733886719 66.76089477539062 74.01372528076172 70.38713073730469 70.38749694824219 C 74.01335906982422 66.76127624511719 76.86003875732422 62.53940582275391 78.84806823730469 57.83917999267578 C 80.90565490722656 52.97451400756836 81.94893646240234 47.80522155761719 81.94893646240234 42.47439575195312 C 81.94893646240234 37.14406204223633 80.90565490722656 31.97476577758789 78.84806823730469 27.11009979248047 C 76.86003875732422 22.40987396240234 74.01335906982422 18.18801116943359 70.38713073730469 14.56178283691406 C 66.76089477539062 10.93555450439453 62.53902816772461 8.088890075683594 57.83879089355469 6.100860595703125 C 52.97412109375 4.04327392578125 47.80481338500977 2.999992370605469 42.47446823120117 2.999992370605469 M 42.47446823120117 -7.62939453125e-06 C 65.93246459960938 -7.62939453125e-06 84.94893646240234 19.01643371582031 84.94893646240234 42.47439575195312 L 84.94893646240234 42.47488784790039 C 84.94893646240234 65.93284606933594 65.93246459960938 84.94928741455078 42.47446823120117 84.94928741455078 C 19.01647186279297 84.94928741455078 0 65.93284606933594 0 42.47488784790039 L 0 42.47439575195312 C 0 19.01643371582031 19.01647186279297 -7.62939453125e-06 42.47446823120117 -7.62939453125e-06 Z" stroke="none" fill="#fff"/>
              </g>
            </g>
            <g id="Trazado_874923" data-name="Trazado 874923" transform="translate(0 0)" fill="none">
              <path d="M42.474,0A42.474,42.474,0,0,1,84.949,42.474h0A42.474,42.474,0,0,1,0,42.475H0A42.474,42.474,0,0,1,42.474,0Z" stroke="none"/>
              <path d="M 42.47446823120117 2.999992370605469 C 37.14412307739258 2.999992370605469 31.97481536865234 4.04327392578125 27.11014938354492 6.100860595703125 C 22.40990829467773 8.088890075683594 18.18804168701172 10.93555450439453 14.56179809570312 14.56178283691406 C 10.93557739257812 18.18801116943359 8.088897705078125 22.40987396240234 6.100868225097656 27.11009979248047 C 4.043281555175781 31.97476577758789 3 37.14406204223633 3 42.47488784790039 C 3 47.80522155761719 4.043281555175781 52.97451400756836 6.100868225097656 57.83917999267578 C 8.088897705078125 62.53940582275391 10.93557739257812 66.76127624511719 14.56179809570312 70.38749694824219 C 18.18804168701172 74.01372528076172 22.40990829467773 76.86039733886719 27.11014938354492 78.84841918945312 C 31.97481536865234 80.906005859375 37.14412307739258 81.94928741455078 42.47446823120117 81.94928741455078 C 47.80481338500977 81.94928741455078 52.97412109375 80.906005859375 57.83879089355469 78.84841918945312 C 62.53902816772461 76.86039733886719 66.76089477539062 74.01372528076172 70.38713073730469 70.38749694824219 C 74.01335906982422 66.76127624511719 76.86003875732422 62.53940582275391 78.84806823730469 57.83917999267578 C 80.90565490722656 52.97451400756836 81.94893646240234 47.80522155761719 81.94893646240234 42.47439575195312 C 81.94893646240234 37.14406204223633 80.90565490722656 31.97476577758789 78.84806823730469 27.11009979248047 C 76.86003875732422 22.40987396240234 74.01335906982422 18.18801116943359 70.38713073730469 14.56178283691406 C 66.76089477539062 10.93555450439453 62.53902816772461 8.088890075683594 57.83879089355469 6.100860595703125 C 52.97412109375 4.04327392578125 47.80481338500977 2.999992370605469 42.47446823120117 2.999992370605469 M 42.47446823120117 -7.62939453125e-06 C 65.93246459960938 -7.62939453125e-06 84.94893646240234 19.01643371582031 84.94893646240234 42.47439575195312 L 84.94893646240234 42.47488784790039 C 84.94893646240234 65.93284606933594 65.93246459960938 84.94928741455078 42.47446823120117 84.94928741455078 C 19.01647186279297 84.94928741455078 0 65.93284606933594 0 42.47488784790039 L 0 42.47439575195312 C 0 19.01643371582031 19.01647186279297 -7.62939453125e-06 42.47446823120117 -7.62939453125e-06 Z" stroke="none" fill="#fff"/>
            </g>
          </g>
        </g>
      </g>
    </g>
    <g id="el-respeto" transform="translate(932.051 750.739)">
      <g id="Grupo_1182269" data-name="Grupo 1182269" transform="translate(0.981 44.242)">
        <path id="Trazado_910611" data-name="Trazado 910611" d="M14.509,77.749l-.37-.37a14.127,14.127,0,0,1,0-19.979h0a14.127,14.127,0,0,1,19.979,0l.018.018.019.019L40.1,65.785,51.155,76.841a2.715,2.715,0,0,1,0,3.84h0a2.715,2.715,0,0,1-3.84,0L43.233,76.6l4.083,4.083a2.716,2.716,0,0,1,0,3.84h0a2.715,2.715,0,0,1-3.84,0l-4.083-4.083,4.083,4.083a2.715,2.715,0,0,1,0,3.84h0a2.715,2.715,0,0,1-3.84,0l-4.083-4.083-.035.035L39.6,88.4a2.715,2.715,0,0,1,0,3.84h0a2.716,2.716,0,0,1-3.84,0l-2.318-2.318Z" transform="translate(-10.002 -53.263)" fill="#fcc69d"/>
        <path id="Trazado_910612" data-name="Trazado 910612" d="M194.881,63.377l-.8.8a5.789,5.789,0,0,1-4.093,1.7h-3.864l-2.958,2.958a3.234,3.234,0,0,1-4.573,0h0a3.234,3.234,0,0,1,0-4.573l6.753-6.753a14.127,14.127,0,0,1,19.979,0h0a14.127,14.127,0,0,1,0,19.979l-1.9,1.9-.466-1.543L191.394,66.282" transform="translate(-161.202 -53.357)" fill="#fcc69d"/>
        <path id="Trazado_910613" data-name="Trazado 910613" d="M180.847,382.025l-1.69,1.69a2.716,2.716,0,0,0,0,3.84h0a2.715,2.715,0,0,0,3.84,0l1.69-1.69a2.715,2.715,0,0,0,0-3.84h0A2.715,2.715,0,0,0,180.847,382.025Z" transform="translate(-161.848 -349.063)" fill="#fcc69d"/>
        <path id="Trazado_910614" data-name="Trazado 910614" d="M141.693,342.872l-1.69,1.69a2.716,2.716,0,0,0,0,3.84h0a2.715,2.715,0,0,0,3.84,0l1.69-1.69a2.715,2.715,0,0,0,0-3.84h0A2.715,2.715,0,0,0,141.693,342.872Z" transform="translate(-126.535 -313.75)" fill="#fcc69d"/>
        <path id="Trazado_910615" data-name="Trazado 910615" d="M102.539,303.717l-1.69,1.69a2.715,2.715,0,0,0,0,3.84h0a2.715,2.715,0,0,0,3.84,0l1.69-1.69a2.715,2.715,0,0,0,0-3.84h0A2.715,2.715,0,0,0,102.539,303.717Z" transform="translate(-91.221 -278.435)" fill="#fcc69d"/>
        <path id="Trazado_910616" data-name="Trazado 910616" d="M63.385,264.563l-1.69,1.69a2.715,2.715,0,0,0,0,3.84h0a2.715,2.715,0,0,0,3.84,0l1.69-1.69a2.716,2.716,0,0,0,0-3.84h0A2.715,2.715,0,0,0,63.385,264.563Z" transform="translate(-55.907 -243.121)" fill="#fcc69d"/>
      </g>
      <path id="Trazado_910617" data-name="Trazado 910617" d="M451.669,85.169a.98.98,0,1,0,.694.287A.987.987,0,0,0,451.669,85.169Z" transform="translate(-406.485 -37.798)"/>
      <path id="Trazado_910618" data-name="Trazado 910618" d="M221.981,320.7a.98.98,0,1,0,.694.287A.987.987,0,0,0,221.981,320.7Z" transform="translate(-199.324 -250.223)"/>
      <path id="Trazado_910619" data-name="Trazado 910619" d="M48.254,50.916a.981.981,0,1,0-1.705.97,13.176,13.176,0,0,1-2.139,15.789l-.744.744a3.673,3.673,0,0,0-.837-1.293L32.75,57.048a6.777,6.777,0,0,0,1.8-1.292l1.933-1.933A.981.981,0,1,0,35.1,52.436l-1.933,1.933a4.776,4.776,0,0,1-3.4,1.408H25.9a.981.981,0,0,0-.694.287L22.25,59.023a2.253,2.253,0,0,1-3.186-3.186l6.753-6.753a13.2,13.2,0,0,1,15.668-2.207.981.981,0,0,0,.952-1.716A15.216,15.216,0,0,0,33.108,43.4a14.949,14.949,0,0,0-7.993,3.647,15.108,15.108,0,0,0-20.69,22l.37.37a.981.981,0,0,0,.211.159,3.688,3.688,0,0,0,3.682,3.407c.049,0,.1,0,.148,0,0,.05,0,.1,0,.149a3.693,3.693,0,0,0,3.7,3.694c.049,0,.1,0,.148,0,0,.05,0,.1,0,.149a3.693,3.693,0,0,0,3.7,3.694c.05,0,.1,0,.149,0a3.695,3.695,0,0,0,6.3,2.763l1.371-1.371,1.852,1.851a3.694,3.694,0,0,0,6.3-2.8c.062,0,.123,0,.185,0a3.69,3.69,0,0,0,3.691-3.842c.05,0,.1,0,.149,0a3.692,3.692,0,0,0,3.691-3.844c.05,0,.1,0,.149,0a3.694,3.694,0,0,0,3.415-2.284.98.98,0,0,0,.265-.188l1.9-1.9A15.142,15.142,0,0,0,48.254,50.916ZM8.688,71.029a1.735,1.735,0,0,1-1.226-2.961l1.69-1.69a1.735,1.735,0,0,1,2.453,2.453l-1.69,1.69A1.724,1.724,0,0,1,8.688,71.029ZM11.3,74.361a1.734,1.734,0,0,1,0-2.453l1.69-1.69h0a1.735,1.735,0,0,1,2.453,2.453l-1.69,1.69A1.737,1.737,0,0,1,11.3,74.361Zm3.84,3.84a1.734,1.734,0,0,1,0-2.453l1.69-1.69h0a1.735,1.735,0,1,1,2.453,2.453L17.6,78.2A1.736,1.736,0,0,1,15.142,78.2Zm6.293,3.84a1.735,1.735,0,1,1-2.453-2.453l1.69-1.69h0a1.735,1.735,0,0,1,2.453,2.453ZM41.441,70.966a1.734,1.734,0,0,1-2.453,0l-4.083-4.083h0l-3.84-3.84a.981.981,0,0,0-1.387,1.387L37.6,72.353a1.735,1.735,0,1,1-2.453,2.453l-7.923-7.923a.981.981,0,0,0-1.387,1.387l3.839,3.839h0l4.083,4.083a1.735,1.735,0,1,1-2.453,2.453l-4.083-4.083a.979.979,0,0,0-.251-.181L25.81,73.218a.981.981,0,0,0-1.387,1.387l5.463,5.463a1.735,1.735,0,1,1-2.453,2.453l-2.079-2.079A3.7,3.7,0,0,0,21.9,75.428c-.05,0-.1,0-.149,0a3.692,3.692,0,0,0-3.691-3.844c-.05,0-.1,0-.149,0a3.693,3.693,0,0,0-3.691-3.844c-.05,0-.1,0-.149,0a3.694,3.694,0,0,0-6.3-2.761l-1.69,1.69a3.7,3.7,0,0,0-.544.694A13.147,13.147,0,0,1,23.7,48.422l-6.028,6.028a4.215,4.215,0,0,0,5.961,5.961l2.671-2.671h3.458a6.87,6.87,0,0,0,.847-.054L41.442,68.513A1.737,1.737,0,0,1,41.441,70.966Z"/>
    </g>
  </g>
</svg>
