<svg xmlns="http://www.w3.org/2000/svg" xmlns:xlink="http://www.w3.org/1999/xlink" width="102.949" height="102.949" viewBox="0 0 102.949 102.949">
  <defs>
    <filter id="Trazado_874925" x="0" y="0" width="102.949" height="102.949" filterUnits="userSpaceOnUse">
      <feOffset dy="3" input="SourceAlpha"/>
      <feGaussianBlur stdDeviation="3" result="blur"/>
      <feFlood flood-opacity="0.161"/>
      <feComposite operator="in" in2="blur"/>
      <feComposite in="SourceGraphic"/>
    </filter>
  </defs>
  <g id="Grupo_1182117" data-name="Grupo 1182117" transform="translate(-277.051 -7808)">
    <g id="Grupo_1181896" data-name="Grupo 1181896" transform="translate(-522.449 5296.843)">
      <g id="Grupo_1111316" data-name="Grupo 1111316" transform="translate(808.5 2517.157)">
        <g id="Grupo_1109835" data-name="Grupo 1109835" transform="translate(0 0)">
          <g id="Grupo_1107913" data-name="Grupo 1107913" transform="translate(0 0)">
            <g transform="matrix(1, 0, 0, 1, -9, -6)" filter="url(#Trazado_874925)">
              <g id="Trazado_874925-2" data-name="Trazado 874925" transform="translate(9 6)" fill="#4c6929" opacity="0.859">
                <path d="M 42.47446823120117 83.44929504394531 C 36.94229125976562 83.44929504394531 31.57638549804688 82.36614227294922 26.52582168579102 80.22994232177734 C 21.64678573608398 78.16628265380859 17.26464462280273 75.211669921875 13.50113868713379 71.44816589355469 C 9.737632751464844 67.68466949462891 6.78300952911377 63.30253982543945 4.719362258911133 58.42351913452148 C 2.583150625228882 53.37295150756836 1.499997615814209 48.00706100463867 1.499997615814209 42.47489547729492 C 1.499997615814209 36.94223403930664 2.583150625228882 31.57634162902832 4.719362258911133 26.52577781677246 C 6.78300952911377 21.64675331115723 9.737632751464844 17.26462364196777 13.50113868713379 13.50113010406494 C 17.26464462280273 9.737624168395996 21.64678573608398 6.783012390136719 26.52582168579102 4.719353199005127 C 31.57638549804688 2.583153486251831 36.94229125976562 1.500000476837158 42.47446823120117 1.500000476837158 C 48.00664520263672 1.500000476837158 53.37255096435547 2.583153486251831 58.42311477661133 4.719353199005127 C 63.30215072631836 6.783012390136719 67.68428802490234 9.737624168395996 71.44779968261719 13.50113010406494 C 75.2113037109375 17.26462364196777 78.16592407226562 21.64675331115723 80.22957611083984 26.52577781677246 C 82.36578369140625 31.57634162902832 83.44893646240234 36.94223403930664 83.44893646240234 42.47439956665039 C 83.44893646240234 48.00706100463867 82.36578369140625 53.37295150756836 80.22957611083984 58.42351913452148 C 78.16592407226562 63.30253982543945 75.2113037109375 67.68466949462891 71.44779968261719 71.44816589355469 C 67.68428802490234 75.211669921875 63.30215072631836 78.16628265380859 58.42311477661133 80.22994232177734 C 53.37255096435547 82.36614227294922 48.00664520263672 83.44929504394531 42.47446823120117 83.44929504394531 Z" stroke="none"/>
                <path d="M 42.47446823120117 2.999992370605469 C 37.14412307739258 2.999992370605469 31.97481536865234 4.04327392578125 27.11014938354492 6.100860595703125 C 22.40990829467773 8.088890075683594 18.18804168701172 10.93555450439453 14.56179809570312 14.56178283691406 C 10.93557739257812 18.18801116943359 8.088897705078125 22.40987396240234 6.100868225097656 27.11009979248047 C 4.043281555175781 31.97476577758789 3 37.14406204223633 3 42.47488784790039 C 3 47.80522155761719 4.043281555175781 52.97451400756836 6.100868225097656 57.83917999267578 C 8.088897705078125 62.53940582275391 10.93557739257812 66.76127624511719 14.56179809570312 70.38749694824219 C 18.18804168701172 74.01372528076172 22.40990829467773 76.86039733886719 27.11014938354492 78.84841918945312 C 31.97481536865234 80.906005859375 37.14412307739258 81.94928741455078 42.47446823120117 81.94928741455078 C 47.80481338500977 81.94928741455078 52.97412109375 80.906005859375 57.83879089355469 78.84841918945312 C 62.53902816772461 76.86039733886719 66.76089477539062 74.01372528076172 70.38713073730469 70.38749694824219 C 74.01335906982422 66.76127624511719 76.86003875732422 62.53940582275391 78.84806823730469 57.83917999267578 C 80.90565490722656 52.97451400756836 81.94893646240234 47.80522155761719 81.94893646240234 42.47439575195312 C 81.94893646240234 37.14406204223633 80.90565490722656 31.97476577758789 78.84806823730469 27.11009979248047 C 76.86003875732422 22.40987396240234 74.01335906982422 18.18801116943359 70.38713073730469 14.56178283691406 C 66.76089477539062 10.93555450439453 62.53902816772461 8.088890075683594 57.83879089355469 6.100860595703125 C 52.97412109375 4.04327392578125 47.80481338500977 2.999992370605469 42.47446823120117 2.999992370605469 M 42.47446823120117 -7.62939453125e-06 C 65.93246459960938 -7.62939453125e-06 84.94893646240234 19.01643371582031 84.94893646240234 42.47439575195312 L 84.94893646240234 42.47488784790039 C 84.94893646240234 65.93284606933594 65.93246459960938 84.94928741455078 42.47446823120117 84.94928741455078 C 19.01647186279297 84.94928741455078 0 65.93284606933594 0 42.47488784790039 L 0 42.47439575195312 C 0 19.01643371582031 19.01647186279297 -7.62939453125e-06 42.47446823120117 -7.62939453125e-06 Z" stroke="none" fill="#fff"/>
              </g>
            </g>
            <g id="Trazado_874923" data-name="Trazado 874923" transform="translate(0 0)" fill="none">
              <path d="M42.474,0A42.474,42.474,0,0,1,84.949,42.474h0A42.474,42.474,0,0,1,0,42.475H0A42.474,42.474,0,0,1,42.474,0Z" stroke="none"/>
              <path d="M 42.47446823120117 2.999992370605469 C 37.14412307739258 2.999992370605469 31.97481536865234 4.04327392578125 27.11014938354492 6.100860595703125 C 22.40990829467773 8.088890075683594 18.18804168701172 10.93555450439453 14.56179809570312 14.56178283691406 C 10.93557739257812 18.18801116943359 8.088897705078125 22.40987396240234 6.100868225097656 27.11009979248047 C 4.043281555175781 31.97476577758789 3 37.14406204223633 3 42.47488784790039 C 3 47.80522155761719 4.043281555175781 52.97451400756836 6.100868225097656 57.83917999267578 C 8.088897705078125 62.53940582275391 10.93557739257812 66.76127624511719 14.56179809570312 70.38749694824219 C 18.18804168701172 74.01372528076172 22.40990829467773 76.86039733886719 27.11014938354492 78.84841918945312 C 31.97481536865234 80.906005859375 37.14412307739258 81.94928741455078 42.47446823120117 81.94928741455078 C 47.80481338500977 81.94928741455078 52.97412109375 80.906005859375 57.83879089355469 78.84841918945312 C 62.53902816772461 76.86039733886719 66.76089477539062 74.01372528076172 70.38713073730469 70.38749694824219 C 74.01335906982422 66.76127624511719 76.86003875732422 62.53940582275391 78.84806823730469 57.83917999267578 C 80.90565490722656 52.97451400756836 81.94893646240234 47.80522155761719 81.94893646240234 42.47439575195312 C 81.94893646240234 37.14406204223633 80.90565490722656 31.97476577758789 78.84806823730469 27.11009979248047 C 76.86003875732422 22.40987396240234 74.01335906982422 18.18801116943359 70.38713073730469 14.56178283691406 C 66.76089477539062 10.93555450439453 62.53902816772461 8.088890075683594 57.83879089355469 6.100860595703125 C 52.97412109375 4.04327392578125 47.80481338500977 2.999992370605469 42.47446823120117 2.999992370605469 M 42.47446823120117 -7.62939453125e-06 C 65.93246459960938 -7.62939453125e-06 84.94893646240234 19.01643371582031 84.94893646240234 42.47439575195312 L 84.94893646240234 42.47488784790039 C 84.94893646240234 65.93284606933594 65.93246459960938 84.94928741455078 42.47446823120117 84.94928741455078 C 19.01647186279297 84.94928741455078 0 65.93284606933594 0 42.47488784790039 L 0 42.47439575195312 C 0 19.01643371582031 19.01647186279297 -7.62939453125e-06 42.47446823120117 -7.62939453125e-06 Z" stroke="none" fill="#fff"/>
            </g>
          </g>
        </g>
      </g>
    </g>
    <g id="las-compras-en-linea" transform="translate(303.051 7831)">
      <rect id="Rectángulo_408432" data-name="Rectángulo 408432" width="17.717" height="3.98" transform="translate(14.025 45.971)" fill="#7d9bff"/>
      <rect id="Rectángulo_408433" data-name="Rectángulo 408433" width="7.96" height="5.373" transform="translate(18.903 40.598)" fill="#edf2fa"/>
      <rect id="Rectángulo_408434" data-name="Rectángulo 408434" width="43.769" height="5.77" transform="translate(0.903 34.828)" fill="#7d9bff"/>
      <g id="Grupo_1182115" data-name="Grupo 1182115" transform="translate(0.995 9.453)">
        <rect id="Rectángulo_408435" data-name="Rectángulo 408435" width="4.677" height="25.375" fill="#72d8ff"/>
        <rect id="Rectángulo_408436" data-name="Rectángulo 408436" width="4.543" height="15.22" transform="translate(39.04)" fill="#72d8ff"/>
      </g>
      <rect id="Rectángulo_408437" data-name="Rectángulo 408437" width="34.23" height="27.348" transform="translate(5.672 7.48)" fill="#fff"/>
      <path id="Trazado_910227" data-name="Trazado 910227" d="M284.981,232.335c0,.141-5.369,7.551-11.99,7.551S261,232.429,261,232.335c0-.141,5.369-7.551,11.99-7.551S284.981,232.241,284.981,232.335Z" transform="translate(-235.029 -202.417)" fill="#c9f3ff"/>
      <circle id="Elipse_11645" data-name="Elipse 11645" cx="4.096" cy="4.096" r="4.096" transform="translate(33.867 25.82)" fill="#ffb954"/>
      <path id="Trazado_910228" data-name="Trazado 910228" d="M119.8,10v3.808a3.622,3.622,0,1,0,7.244,0V10Z" transform="translate(-107.879 -9.005)" fill="#d8fb93"/>
      <path id="Trazado_910229" data-name="Trazado 910229" d="M47,10v3.808a3.622,3.622,0,1,0,7.244,0V10Z" transform="translate(-42.323 -9.005)" fill="#a0e557"/>
      <path id="Trazado_910230" data-name="Trazado 910230" d="M265.4,10v3.808a3.622,3.622,0,1,0,7.244,0V10Z" transform="translate(-238.992 -9.005)" fill="#d8fb93"/>
      <g id="Grupo_1182116" data-name="Grupo 1182116" transform="translate(19.165 0.995)">
        <path id="Trazado_910231" data-name="Trazado 910231" d="M192.6,10v3.808a3.622,3.622,0,1,0,7.244,0V10Z" transform="translate(-192.6 -10)" fill="#a0e557"/>
        <path id="Trazado_910232" data-name="Trazado 910232" d="M338.2,10v3.808a3.622,3.622,0,1,0,7.244,0V10Z" transform="translate(-323.712 -10)" fill="#a0e557"/>
      </g>
      <rect id="Rectángulo_408438" data-name="Rectángulo 408438" width="9.552" height="9.552" transform="translate(10.05 12.77)" fill="#ff5d5d"/>
      <path id="Trazado_910233" data-name="Trazado 910233" d="M49.766,28.053a25.457,25.457,0,0,0-2.676-2.7q-.753-.651-1.517-1.2V9.453a1,1,0,0,0-1-1H40.9v-.8a4.593,4.593,0,0,0,1-2.858V1a1,1,0,0,0-1-1H4.677a1,1,0,0,0-1,1V4.8a4.593,4.593,0,0,0,1,2.858v.8H1a1,1,0,0,0-1,1V40.6a1,1,0,0,0,1,1h16.82v3.383H13.932a1,1,0,0,0-1,1v3.981a1,1,0,0,0,1,1H31.649a1,1,0,0,0,1-1V45.971a1,1,0,0,0-1-1H27.766V41.593H44.578a1,1,0,0,0,1-1v-4.9c.555-.4,1.063-.8,1.516-1.193a24.937,24.937,0,0,0,2.679-2.7c1.179-1.388,1.179-1.607,1.179-1.884S50.946,29.439,49.766,28.053ZM43.583,10.448V22.91A13.852,13.852,0,0,0,40.9,21.8V10.448ZM26.156,31.783a25.658,25.658,0,0,0,1.955,2.048H6.667V9.121a4.608,4.608,0,0,0,5.254-1.46,4.609,4.609,0,0,0,7.244,0,4.609,4.609,0,0,0,7.244,0,4.609,4.609,0,0,0,7.244,0,4.608,4.608,0,0,0,5.254,1.46v12.3c-.317-.031-.632-.047-.945-.047-3.743,0-7.03,2.156-9.128,3.964a24.927,24.927,0,0,0-2.679,2.7c-1.179,1.388-1.179,1.607-1.179,1.883S24.976,30.4,26.156,31.783ZM39.9,4.8a2.627,2.627,0,1,1-5.254,0V1.99H39.9Zm-7.244,0a2.627,2.627,0,1,1-5.254,0V1.99h5.254Zm-7.244,0a2.627,2.627,0,1,1-5.254,0V1.99h5.254V4.8Zm-7.244,0a2.627,2.627,0,1,1-5.254,0V1.99H18.17V4.8ZM5.672,1.99h5.254V4.8a2.627,2.627,0,1,1-5.254,0Zm-1,8.458V33.831H1.99V10.448ZM30.653,48.956H14.927v-1.99H30.653v1.99Zm-4.878-3.981h-5.97V41.593h5.97ZM43.583,39.6H1.99V35.821H30.546a13.1,13.1,0,0,0,7.414,2.643,12.017,12.017,0,0,0,5.622-1.531Zm-5.622-3.128c-5.145,0-9.518-5-10.769-6.576,1.325-1.718,5.8-6.536,10.769-6.536,5.145,0,9.518,5,10.769,6.576C47.405,31.656,42.93,36.475,37.961,36.475Z"/>
      <path id="Trazado_910234" data-name="Trazado 910234" d="M335.446,249.493a5.091,5.091,0,1,0,5.091,5.091A5.1,5.1,0,0,0,335.446,249.493Zm0,8.192a3.1,3.1,0,1,1,3.1-3.1A3.1,3.1,0,0,1,335.446,257.685Z" transform="translate(-297.483 -224.667)"/>
      <path id="Trazado_910235" data-name="Trazado 910235" d="M372.5,290.67a1,1,0,1,0,.7.292A1,1,0,0,0,372.5,290.67Z" transform="translate(-334.534 -261.747)"/>
      <path id="Trazado_910236" data-name="Trazado 910236" d="M92,129.884h9.552a1,1,0,0,0,1-1v-9.552a1,1,0,0,0-1-1H92a1,1,0,0,0-1,1v9.552A1,1,0,0,0,92,129.884Zm1-9.552h7.562v7.562H92.99Z" transform="translate(-81.945 -106.566)"/>
      <path id="Trazado_910237" data-name="Trazado 910237" d="M348,120.33a1,1,0,1,0-.7-.292A1,1,0,0,0,348,120.33Z" transform="translate(-312.472 -106.565)"/>
      <path id="Trazado_910238" data-name="Trazado 910238" d="M242,120.331h6.368a1,1,0,0,0,0-1.99H242a1,1,0,0,0,0,1.99Z" transform="translate(-217.019 -106.566)"/>
      <path id="Trazado_910239" data-name="Trazado 910239" d="M242,160.331h10.547a1,1,0,1,0,0-1.99H242a1,1,0,0,0,0,1.99Z" transform="translate(-217.019 -142.585)"/>
      <path id="Trazado_910240" data-name="Trazado 910240" d="M247.037,199.336a1,1,0,0,0-1-1H242a1,1,0,0,0,0,1.99h4.047A1,1,0,0,0,247.037,199.336Z" transform="translate(-217.019 -178.605)"/>
      <path id="Trazado_910241" data-name="Trazado 910241" d="M102.543,302.341H92a1,1,0,1,0,0,1.99h10.547a1,1,0,1,0,0-1.99Z" transform="translate(-81.945 -272.257)"/>
      <path id="Trazado_910242" data-name="Trazado 910242" d="M92,264.33a1,1,0,1,0-.7-.292A1,1,0,0,0,92,264.33Z" transform="translate(-81.945 -236.236)"/>
      <path id="Trazado_910243" data-name="Trazado 910243" d="M138.514,262.341h-6.573a1,1,0,0,0,0,1.99h6.573a1,1,0,1,0,0-1.99Z" transform="translate(-117.916 -236.237)"/>
    </g>
  </g>
</svg>
