<svg xmlns="http://www.w3.org/2000/svg" xmlns:xlink="http://www.w3.org/1999/xlink" width="102.949" height="102.949" viewBox="0 0 102.949 102.949">
  <defs>
    <filter id="Trazado_874925" x="0" y="0" width="102.949" height="102.949" filterUnits="userSpaceOnUse">
      <feOffset dy="3" input="SourceAlpha"/>
      <feGaussianBlur stdDeviation="3" result="blur"/>
      <feFlood flood-opacity="0.161"/>
      <feComposite operator="in" in2="blur"/>
      <feComposite in="SourceGraphic"/>
    </filter>
    <clipPath id="clip-path">
      <path id="path3591" d="M0-682.665H52.4v52.4H0Z" transform="translate(0 682.665)"/>
    </clipPath>
  </defs>
  <g id="Grupo_1182091" data-name="Grupo 1182091" transform="translate(-748.051 -2818.358)">
    <g id="Grupo_1181886" data-name="Grupo 1181886" transform="translate(-51.449 307.201)">
      <g id="Grupo_1111316" data-name="Grupo 1111316" transform="translate(808.5 2517.157)">
        <g id="Grupo_1109835" data-name="Grupo 1109835" transform="translate(0 0)">
          <g id="Grupo_1107913" data-name="Grupo 1107913" transform="translate(0 0)">
            <g transform="matrix(1, 0, 0, 1, -9, -6)" filter="url(#Trazado_874925)">
              <g id="Trazado_874925-2" data-name="Trazado 874925" transform="translate(9 6)" fill="#4c6929" opacity="0.859">
                <path d="M 42.47446823120117 83.44929504394531 C 36.94229125976562 83.44929504394531 31.57638549804688 82.36614227294922 26.52582168579102 80.22994232177734 C 21.64678573608398 78.16628265380859 17.26464462280273 75.211669921875 13.50113868713379 71.44816589355469 C 9.737632751464844 67.68466949462891 6.78300952911377 63.30253982543945 4.719362258911133 58.42351913452148 C 2.583150625228882 53.37295150756836 1.499997615814209 48.00706100463867 1.499997615814209 42.47489547729492 C 1.499997615814209 36.94223403930664 2.583150625228882 31.57634162902832 4.719362258911133 26.52577781677246 C 6.78300952911377 21.64675331115723 9.737632751464844 17.26462364196777 13.50113868713379 13.50113010406494 C 17.26464462280273 9.737624168395996 21.64678573608398 6.783012390136719 26.52582168579102 4.719353199005127 C 31.57638549804688 2.583153486251831 36.94229125976562 1.500000476837158 42.47446823120117 1.500000476837158 C 48.00664520263672 1.500000476837158 53.37255096435547 2.583153486251831 58.42311477661133 4.719353199005127 C 63.30215072631836 6.783012390136719 67.68428802490234 9.737624168395996 71.44779968261719 13.50113010406494 C 75.2113037109375 17.26462364196777 78.16592407226562 21.64675331115723 80.22957611083984 26.52577781677246 C 82.36578369140625 31.57634162902832 83.44893646240234 36.94223403930664 83.44893646240234 42.47439956665039 C 83.44893646240234 48.00706100463867 82.36578369140625 53.37295150756836 80.22957611083984 58.42351913452148 C 78.16592407226562 63.30253982543945 75.2113037109375 67.68466949462891 71.44779968261719 71.44816589355469 C 67.68428802490234 75.211669921875 63.30215072631836 78.16628265380859 58.42311477661133 80.22994232177734 C 53.37255096435547 82.36614227294922 48.00664520263672 83.44929504394531 42.47446823120117 83.44929504394531 Z" stroke="none"/>
                <path d="M 42.47446823120117 2.999992370605469 C 37.14412307739258 2.999992370605469 31.97481536865234 4.04327392578125 27.11014938354492 6.100860595703125 C 22.40990829467773 8.088890075683594 18.18804168701172 10.93555450439453 14.56179809570312 14.56178283691406 C 10.93557739257812 18.18801116943359 8.088897705078125 22.40987396240234 6.100868225097656 27.11009979248047 C 4.043281555175781 31.97476577758789 3 37.14406204223633 3 42.47488784790039 C 3 47.80522155761719 4.043281555175781 52.97451400756836 6.100868225097656 57.83917999267578 C 8.088897705078125 62.53940582275391 10.93557739257812 66.76127624511719 14.56179809570312 70.38749694824219 C 18.18804168701172 74.01372528076172 22.40990829467773 76.86039733886719 27.11014938354492 78.84841918945312 C 31.97481536865234 80.906005859375 37.14412307739258 81.94928741455078 42.47446823120117 81.94928741455078 C 47.80481338500977 81.94928741455078 52.97412109375 80.906005859375 57.83879089355469 78.84841918945312 C 62.53902816772461 76.86039733886719 66.76089477539062 74.01372528076172 70.38713073730469 70.38749694824219 C 74.01335906982422 66.76127624511719 76.86003875732422 62.53940582275391 78.84806823730469 57.83917999267578 C 80.90565490722656 52.97451400756836 81.94893646240234 47.80522155761719 81.94893646240234 42.47439575195312 C 81.94893646240234 37.14406204223633 80.90565490722656 31.97476577758789 78.84806823730469 27.11009979248047 C 76.86003875732422 22.40987396240234 74.01335906982422 18.18801116943359 70.38713073730469 14.56178283691406 C 66.76089477539062 10.93555450439453 62.53902816772461 8.088890075683594 57.83879089355469 6.100860595703125 C 52.97412109375 4.04327392578125 47.80481338500977 2.999992370605469 42.47446823120117 2.999992370605469 M 42.47446823120117 -7.62939453125e-06 C 65.93246459960938 -7.62939453125e-06 84.94893646240234 19.01643371582031 84.94893646240234 42.47439575195312 L 84.94893646240234 42.47488784790039 C 84.94893646240234 65.93284606933594 65.93246459960938 84.94928741455078 42.47446823120117 84.94928741455078 C 19.01647186279297 84.94928741455078 0 65.93284606933594 0 42.47488784790039 L 0 42.47439575195312 C 0 19.01643371582031 19.01647186279297 -7.62939453125e-06 42.47446823120117 -7.62939453125e-06 Z" stroke="none" fill="#fff"/>
              </g>
            </g>
            <g id="Trazado_874923" data-name="Trazado 874923" transform="translate(0 0)" fill="none">
              <path d="M42.474,0A42.474,42.474,0,0,1,84.949,42.474h0A42.474,42.474,0,0,1,0,42.475H0A42.474,42.474,0,0,1,42.474,0Z" stroke="none"/>
              <path d="M 42.47446823120117 2.999992370605469 C 37.14412307739258 2.999992370605469 31.97481536865234 4.04327392578125 27.11014938354492 6.100860595703125 C 22.40990829467773 8.088890075683594 18.18804168701172 10.93555450439453 14.56179809570312 14.56178283691406 C 10.93557739257812 18.18801116943359 8.088897705078125 22.40987396240234 6.100868225097656 27.11009979248047 C 4.043281555175781 31.97476577758789 3 37.14406204223633 3 42.47488784790039 C 3 47.80522155761719 4.043281555175781 52.97451400756836 6.100868225097656 57.83917999267578 C 8.088897705078125 62.53940582275391 10.93557739257812 66.76127624511719 14.56179809570312 70.38749694824219 C 18.18804168701172 74.01372528076172 22.40990829467773 76.86039733886719 27.11014938354492 78.84841918945312 C 31.97481536865234 80.906005859375 37.14412307739258 81.94928741455078 42.47446823120117 81.94928741455078 C 47.80481338500977 81.94928741455078 52.97412109375 80.906005859375 57.83879089355469 78.84841918945312 C 62.53902816772461 76.86039733886719 66.76089477539062 74.01372528076172 70.38713073730469 70.38749694824219 C 74.01335906982422 66.76127624511719 76.86003875732422 62.53940582275391 78.84806823730469 57.83917999267578 C 80.90565490722656 52.97451400756836 81.94893646240234 47.80522155761719 81.94893646240234 42.47439575195312 C 81.94893646240234 37.14406204223633 80.90565490722656 31.97476577758789 78.84806823730469 27.11009979248047 C 76.86003875732422 22.40987396240234 74.01335906982422 18.18801116943359 70.38713073730469 14.56178283691406 C 66.76089477539062 10.93555450439453 62.53902816772461 8.088890075683594 57.83879089355469 6.100860595703125 C 52.97412109375 4.04327392578125 47.80481338500977 2.999992370605469 42.47446823120117 2.999992370605469 M 42.47446823120117 -7.62939453125e-06 C 65.93246459960938 -7.62939453125e-06 84.94893646240234 19.01643371582031 84.94893646240234 42.47439575195312 L 84.94893646240234 42.47488784790039 C 84.94893646240234 65.93284606933594 65.93246459960938 84.94928741455078 42.47446823120117 84.94928741455078 C 19.01647186279297 84.94928741455078 0 65.93284606933594 0 42.47488784790039 L 0 42.47439575195312 C 0 19.01643371582031 19.01647186279297 -7.62939453125e-06 42.47446823120117 -7.62939453125e-06 Z" stroke="none" fill="#fff"/>
            </g>
          </g>
        </g>
      </g>
    </g>
    <g id="g3585" transform="translate(773.051 3523.905)">
      <g id="g3587" transform="translate(0 -682.665)">
        <g id="g3589" clip-path="url(#clip-path)">
          <g id="g3595" transform="translate(2.749 21.676)">
            <path id="path3597" d="M-144.543-97.717h-12.017v-5.211a2.913,2.913,0,0,1,2.913-2.913h6.191a2.913,2.913,0,0,1,2.913,2.913Z" transform="translate(156.561 105.841)" fill="#fff6e0"/>
          </g>
          <g id="g3599" transform="translate(37.634 21.676)">
            <path id="path3601" d="M-144.543-97.717h-12.017v-5.211a2.913,2.913,0,0,1,2.913-2.913h6.191a2.913,2.913,0,0,1,2.913,2.913Z" transform="translate(156.561 105.841)" fill="#fff6e0"/>
          </g>
          <g id="g3603" transform="translate(6.146 16.645)">
            <path id="path3605" d="M-152.739-115.892h-12.7v-4.794a4.842,4.842,0,0,1,4.842-4.842h3.015a4.842,4.842,0,0,1,4.842,4.842Z" transform="translate(165.438 125.528)" fill="#8affb3"/>
          </g>
          <g id="g3607" transform="translate(8.572 7.088)">
            <path id="path3609" d="M-47.239-134.36h-.008a3.919,3.919,0,0,1-3.919-3.919v-3.333a3.919,3.919,0,0,1,3.919-3.919h.008a3.919,3.919,0,0,1,3.919,3.919v3.333a3.919,3.919,0,0,1-3.919,3.919" transform="translate(51.167 145.53)" fill="#ffcab9"/>
          </g>
          <g id="g3611" transform="translate(10.449 7.088)">
            <path id="path3613" d="M-24.671,0h-.008a3.9,3.9,0,0,0-2.043.574,3.916,3.916,0,0,1,1.876,3.345V7.252A3.916,3.916,0,0,1-26.723,10.6a3.9,3.9,0,0,0,2.043.574h.008a3.919,3.919,0,0,0,3.919-3.919V3.919A3.919,3.919,0,0,0-24.671,0" transform="translate(26.723)" fill="#fabba7"/>
          </g>
          <g id="g3615" transform="translate(8.572 7.088)">
            <path id="path3617" d="M0-67.18v-1.658a3.925,3.925,0,0,1,3.923-3.927,3.925,3.925,0,0,1,3.923,3.927L0-67.18" transform="translate(0 72.765)" fill="#828cb3"/>
          </g>
          <g id="g3619" transform="translate(10.449 7.088)">
            <path id="path3621" d="M-22.568-47.235v.865l4.094-.865A3.925,3.925,0,0,0-22.4-51.163a3.9,3.9,0,0,0-2.047.577,3.925,3.925,0,0,1,1.876,3.351" transform="translate(24.444 51.163)" fill="#717eb3"/>
          </g>
          <g id="g3623" transform="translate(41.984 5.999)">
            <path id="path3625" d="M-28.874-161.745h0a2.4,2.4,0,0,1-2.4-2.4v-8.646a2.4,2.4,0,0,1,2.4-2.4,2.4,2.4,0,0,1,2.4,2.4v8.646a2.4,2.4,0,0,1-2.4,2.4" transform="translate(31.275 175.193)" fill="#828cb3"/>
          </g>
          <g id="g3627" transform="translate(33.556 16.645)">
            <path id="path3629" d="M-152.739-115.892h-12.7v-4.794a4.842,4.842,0,0,1,4.842-4.842h3.015a4.842,4.842,0,0,1,4.842,4.842Z" transform="translate(165.438 125.528)" fill="#ffea00"/>
          </g>
          <g id="g3631" transform="translate(35.982 11.007)">
            <path id="path3633" d="M-94.376,0V3.333a3.919,3.919,0,0,1-3.919,3.919H-98.3a3.919,3.919,0,0,1-3.919-3.919V0Z" transform="translate(102.222)" fill="#ffcab9"/>
          </g>
          <g id="g3635" transform="translate(37.858 11.007)">
            <path id="path3637" d="M-22.568,0V3.333a3.916,3.916,0,0,1-1.876,3.345,3.9,3.9,0,0,0,2.043.574h.008a3.919,3.919,0,0,0,3.919-3.919V0Z" transform="translate(24.444)" fill="#fabba7"/>
          </g>
          <g id="g3639" transform="translate(35.982 7.088)">
            <path id="path3641" d="M0-67.18v-1.658a3.925,3.925,0,0,1,3.923-3.927,3.925,3.925,0,0,1,3.923,3.927L0-67.18" transform="translate(0 72.765)" fill="#828cb3"/>
          </g>
          <g id="g3643" transform="translate(37.858 7.088)">
            <path id="path3645" d="M-22.568-47.235v.865l4.094-.865A3.925,3.925,0,0,0-22.4-51.163a3.9,3.9,0,0,0-2.047.577,3.925,3.925,0,0,1,1.876,3.351" transform="translate(24.444 51.163)" fill="#717eb3"/>
          </g>
          <g id="g3647" transform="translate(0.768 22.15)">
            <path id="path3649" d="M-611.8-132.369c0,6.078-11.387,11.005-25.433,11.005s-25.433-4.927-25.433-11.005,11.387-11.005,25.433-11.005,25.433,4.927,25.433,11.005" transform="translate(662.665 143.374)" fill="#cc8b66"/>
          </g>
          <g id="g3651" transform="translate(6.146 37.712)">
            <path id="path3653" d="M-152.739-110.959l-12.7,4.7v-9.079a4.842,4.842,0,0,1,4.842-4.842h3.015a4.842,4.842,0,0,1,4.842,4.842Z" transform="translate(165.438 120.184)" fill="#ff59ac"/>
          </g>
          <g id="g3655" transform="translate(8.572 28.155)">
            <path id="path3657" d="M-47.239-191.971h-.008a3.919,3.919,0,0,1-3.919-3.919v-8.123a3.919,3.919,0,0,1,3.919-3.919h.008a3.919,3.919,0,0,1,3.919,3.919v8.123a3.919,3.919,0,0,1-3.919,3.919" transform="translate(51.167 207.931)" fill="#828cb3"/>
          </g>
          <g id="g3659" transform="translate(10.449 28.155)">
            <path id="path3661" d="M-24.671,0h-.008a3.9,3.9,0,0,0-2.043.574,3.916,3.916,0,0,1,1.876,3.345v8.123a3.916,3.916,0,0,1-1.876,3.345,3.9,3.9,0,0,0,2.043.574h.008a3.919,3.919,0,0,0,3.919-3.919V3.919A3.919,3.919,0,0,0-24.671,0" transform="translate(26.723)" fill="#717eb3"/>
          </g>
          <g id="g3663" transform="translate(33.556 37.712)">
            <path id="path3665" d="M-152.739-58.235a4.842,4.842,0,0,0-4.842-4.842H-160.6a4.842,4.842,0,0,0-4.842,4.842v6.062h12.7Z" transform="translate(165.438 63.077)" fill="#87dbff"/>
          </g>
          <g id="g3667" transform="translate(35.982 28.155)">
            <path id="path3669" d="M-47.239-134.36h-.008a3.919,3.919,0,0,1-3.919-3.919v-3.333a3.919,3.919,0,0,1,3.919-3.919h.008a3.919,3.919,0,0,1,3.919,3.919v3.333a3.919,3.919,0,0,1-3.919,3.919" transform="translate(51.167 145.53)" fill="#828cb3"/>
          </g>
          <g id="g3671" transform="translate(37.858 28.155)">
            <path id="path3673" d="M-24.671,0h-.008a3.9,3.9,0,0,0-2.043.574,3.917,3.917,0,0,1,1.876,3.345V7.252A3.916,3.916,0,0,1-26.723,10.6a3.9,3.9,0,0,0,2.043.574h.008a3.919,3.919,0,0,0,3.919-3.919V3.919A3.919,3.919,0,0,0-24.671,0" transform="translate(26.723)" fill="#717eb3"/>
          </g>
          <g id="g3675" transform="translate(2.749 42.742)">
            <path id="path3677" d="M-144.543-106.934h-10.1a1.916,1.916,0,0,1-1.916-1.916v-4.061a2.913,2.913,0,0,1,2.913-2.913h6.191a2.913,2.913,0,0,1,2.913,2.913Z" transform="translate(156.561 115.825)" fill="#fff6e0"/>
          </g>
          <g id="g3679" transform="translate(7.759 42.742)">
            <path id="path3681" d="M-49.239,0h-4.094A2.913,2.913,0,0,1-50.42,2.913V8.891h4.094V2.913A2.913,2.913,0,0,0-49.239,0" transform="translate(53.333)" fill="#fff0cc"/>
          </g>
          <g id="g3683" transform="translate(14.736 45.233)">
            <path id="path3685" d="M0-33.818l4.109-2.564a1.5,1.5,0,0,1,2.324,1.256,1.5,1.5,0,0,1-.679,1.256L0-30.23Z" transform="translate(0 36.63)" fill="#fff6e0"/>
          </g>
          <g id="g3687" transform="translate(31.202 45.233)">
            <path id="path3689" d="M-77.366-33.818l-4.109-2.564A1.5,1.5,0,0,0-83.8-35.126a1.5,1.5,0,0,0,.679,1.256l5.753,3.64Z" transform="translate(83.798 36.63)" fill="#fff6e0"/>
          </g>
          <g id="g3691" transform="translate(37.634 42.742)">
            <path id="path3693" d="M-121.5-106.934h-10.1v-5.977a2.913,2.913,0,0,1,2.913-2.913h6.191a2.913,2.913,0,0,1,2.913,2.913v4.061a1.916,1.916,0,0,1-1.916,1.916" transform="translate(131.601 115.825)" fill="#fff6e0"/>
          </g>
          <g id="g3695" transform="translate(42.644 42.742)">
            <path id="path3697" d="M-49.239,0h-4.094A2.913,2.913,0,0,1-50.42,2.913V6.975a1.916,1.916,0,0,1-1.916,1.916h4.094a1.916,1.916,0,0,0,1.916-1.916V2.913A2.913,2.913,0,0,0-49.239,0" transform="translate(53.333)" fill="#fff0cc"/>
          </g>
          <g id="g3699" transform="translate(23.734 27.349)">
            <path id="path3701" d="M-115.891-57.946a4.818,4.818,0,0,0-4.818-4.818,4.818,4.818,0,0,0-4.818,4.818,4.818,4.818,0,0,0,4.818,4.818,4.838,4.838,0,0,0,.954-.095l2.225,1.3v-2.408a4.8,4.8,0,0,0,1.639-3.619" transform="translate(125.526 62.764)" fill="#fff6e0"/>
          </g>
          <g id="g3703" transform="translate(18.871 7.154)">
            <path id="path3705" d="M0-57.945a4.818,4.818,0,0,1,4.818-4.818,4.818,4.818,0,0,1,4.818,4.818,4.818,4.818,0,0,1-4.818,4.818,4.838,4.838,0,0,1-.954-.095l-2.225,1.3v-2.408A4.805,4.805,0,0,1,0-57.945" transform="translate(0 62.763)" fill="#fff6e0"/>
          </g>
          <g id="g3707" transform="translate(25.327 0.768)">
            <path id="path3709" d="M-115.892-57.946a4.818,4.818,0,0,0-4.818-4.818,4.818,4.818,0,0,0-4.818,4.818,4.818,4.818,0,0,0,4.818,4.818,4.838,4.838,0,0,0,.954-.095l2.225,1.3v-2.408a4.805,4.805,0,0,0,1.639-3.619" transform="translate(125.528 62.764)" fill="#ff59ac"/>
          </g>
          <g id="g3711" transform="translate(1.982 20.908)">
            <path id="path3713" d="M-9.232-95.1A.768.768,0,0,1-10-95.87v-4.29a3.685,3.685,0,0,1,3.681-3.681h.478a.768.768,0,0,1,.768.768.768.768,0,0,1-.768.768h-.478a2.148,2.148,0,0,0-2.146,2.146v4.29A.768.768,0,0,1-9.232-95.1Z" transform="translate(10 103.841)"/>
          </g>
          <g id="g3715" transform="translate(45.595 20.908)">
            <path id="path3717" d="M-5.943-1.364a.768.768,0,0,1-.768-.768V-6.319A2.148,2.148,0,0,0-8.857-8.465h-.376A.768.768,0,0,1-10-9.232.768.768,0,0,1-9.232-10h.376A3.685,3.685,0,0,1-5.176-6.319v4.187A.768.768,0,0,1-5.943-1.364Z" transform="translate(10 10)"/>
          </g>
          <g id="g3719" transform="translate(5.378 16.144)">
            <path id="path3721" d="M-9.232-122.381a.768.768,0,0,1-.768-.768v-4.9a5.614,5.614,0,0,1,3.769-5.3.768.768,0,0,1,.977.473.768.768,0,0,1-.473.977,4.078,4.078,0,0,0-2.737,3.85v4.9A.768.768,0,0,1-9.232-122.381Z" transform="translate(10 133.388)"/>
          </g>
          <g id="g3723" transform="translate(14.861 16.157)">
            <path id="path3725" d="M-5.993-2.779a.768.768,0,0,1-.767-.75l-.026-1.127A4.089,4.089,0,0,0-9.493-8.512a.768.768,0,0,1-.465-.981.768.768,0,0,1,.981-.465A5.622,5.622,0,0,1-5.251-4.673l.026,1.109a.768.768,0,0,1-.75.785Z" transform="translate(10.003 10.003)"/>
          </g>
          <g id="g3727" transform="translate(7.805 6.321)">
            <path id="path3729" d="M-56.471-142.824h-.008a4.692,4.692,0,0,1-4.687-4.687v-3.333a4.692,4.692,0,0,1,4.687-4.686,4.694,4.694,0,0,1,4.7,4.686v3.333A4.692,4.692,0,0,1-56.471-142.824Zm0-11.171a3.157,3.157,0,0,0-3.16,3.151v3.333a3.155,3.155,0,0,0,3.151,3.151h.008a3.155,3.155,0,0,0,3.151-3.151v-3.333A3.155,3.155,0,0,0-56.471-154Z" transform="translate(61.166 155.53)"/>
          </g>
          <g id="g3731" transform="translate(7.805 6.321)">
            <path id="path3733" d="M-9.232-75.645a.768.768,0,0,1-.483-.171.768.768,0,0,1-.284-.6V-78.07a4.7,4.7,0,0,1,4.691-4.695A4.7,4.7,0,0,1-.618-78.07a.768.768,0,0,1-.609.751l-7.846,1.658A.767.767,0,0,1-9.232-75.645Zm3.923-5.585a3.161,3.161,0,0,0-3.156,3.16v.711l6.252-1.321A3.162,3.162,0,0,0-5.309-81.23Z" transform="translate(10 82.765)"/>
          </g>
          <g id="g3735" transform="translate(41.341 5.231)">
            <path id="path3737" d="M-5.534-16.788a.766.766,0,0,1-.618-.312.768.768,0,0,1,.161-1.073,1.62,1.62,0,0,0,.664-1.315v-8.646a1.635,1.635,0,0,0-1.633-1.633,1.632,1.632,0,0,0-1.548,1.112.768.768,0,0,1-.972.483.768.768,0,0,1-.483-.972,3.166,3.166,0,0,1,3-2.158,3.172,3.172,0,0,1,3.168,3.168v8.646a3.183,3.183,0,0,1-1.288,2.55A.764.764,0,0,1-5.534-16.788Z" transform="translate(10.003 31.303)"/>
          </g>
          <g id="g3739" transform="translate(42.27 16.157)">
            <path id="path3741" d="M-6.018.991A.768.768,0,0,1-6.786.223v-4.9A4.083,4.083,0,0,0-9.492-8.512a.768.768,0,0,1-.466-.981.768.768,0,0,1,.981-.466A5.621,5.621,0,0,1-5.251-4.673v4.9A.768.768,0,0,1-6.018.991Z" transform="translate(10.003 10.003)"/>
          </g>
          <g id="g3743" transform="translate(32.788 16.157)">
            <path id="path3745" d="M-9.232-76.949A.768.768,0,0,1-10-77.717v-1.131a5.621,5.621,0,0,1,3.728-5.286.768.768,0,0,1,.981.466.768.768,0,0,1-.466.981,4.083,4.083,0,0,0-2.707,3.839v1.131A.768.768,0,0,1-9.232-76.949Z" transform="translate(10 84.179)"/>
          </g>
          <g id="g3747" transform="translate(35.214 6.321)">
            <path id="path3749" d="M-56.471-142.824h-.008a4.692,4.692,0,0,1-4.687-4.687v-3.333a4.692,4.692,0,0,1,4.687-4.686,4.694,4.694,0,0,1,4.7,4.686v3.333A4.692,4.692,0,0,1-56.471-142.824Zm0-11.171a3.157,3.157,0,0,0-3.16,3.151v3.333a3.155,3.155,0,0,0,3.151,3.151h.008a3.155,3.155,0,0,0,3.151-3.151v-3.333A3.155,3.155,0,0,0-56.471-154Z" transform="translate(61.166 155.53)"/>
          </g>
          <g id="g3751" transform="translate(35.214 6.321)">
            <path id="path3753" d="M-9.232-75.645a.768.768,0,0,1-.483-.171.768.768,0,0,1-.284-.6V-78.07a4.7,4.7,0,0,1,4.691-4.695A4.7,4.7,0,0,1-.618-78.07a.768.768,0,0,1-.609.751l-7.846,1.658A.767.767,0,0,1-9.232-75.645Zm3.923-5.585a3.161,3.161,0,0,0-3.156,3.16v.711l6.252-1.321A3.162,3.162,0,0,0-5.309-81.23Z" transform="translate(10 82.765)"/>
          </g>
          <g id="g3755" transform="translate(18.139 42.933)">
            <path id="path3757" d="M-191.794-8.031a57.871,57.871,0,0,1-7.392-.466.768.768,0,0,1-.663-.86.768.768,0,0,1,.86-.663,56.331,56.331,0,0,0,7.2.453,56.329,56.329,0,0,0,7.181-.451.768.768,0,0,1,.86.663.768.768,0,0,1-.663.86A57.868,57.868,0,0,1-191.794-8.031Z" transform="translate(199.855 10.025)"/>
          </g>
          <g id="g3759" transform="translate(29.148 21.499)">
            <path id="path3761" d="M6.617,9.456a.768.768,0,0,1-.355-1.449c3.518-1.831,5.455-4.086,5.455-6.351,0-5.013-9.027-9.364-21-10.123A.768.768,0,0,1-10-9.281.768.768,0,0,1-9.184-10c13,.824,22.436,5.725,22.436,11.655,0,2.866-2.231,5.6-6.281,7.713A.764.764,0,0,1,6.617,9.456Z" transform="translate(10 10)"/>
          </g>
          <g id="g3763" transform="translate(0 21.427)">
            <path id="path3765" d="M-80.443-225.2a.764.764,0,0,1-.352-.086c-4.086-2.112-6.336-4.861-6.336-7.741,0-6.155,10.256-11.2,23.856-11.727a.768.768,0,0,1,.8.737.768.768,0,0,1-.737.8c-12.55.49-22.381,4.967-22.381,10.193,0,2.277,1.955,4.542,5.505,6.377a.768.768,0,0,1,.329,1.034A.768.768,0,0,1-80.443-225.2Z" transform="translate(87.13 244.754)"/>
          </g>
          <g id="g3767" transform="translate(5.378 37.712)">
            <path id="path3769" d="M-9.232-57.46A.768.768,0,0,1-10-58.228a5.592,5.592,0,0,1,2.575-4.719.768.768,0,0,1,1.061.23.768.768,0,0,1-.23,1.061,4.063,4.063,0,0,0-1.872,3.428A.768.768,0,0,1-9.232-57.46Z" transform="translate(10 63.069)"/>
          </g>
          <g id="g3771" transform="translate(15.809 37.684)">
            <path id="path3773" d="M-6.966-1.48a.768.768,0,0,1-.768-.768V-5.132A4.057,4.057,0,0,0-9.642-8.584a.768.768,0,0,1-.241-1.058.768.768,0,0,1,1.058-.241A5.584,5.584,0,0,1-6.2-5.132v2.884A.768.768,0,0,1-6.966-1.48Z" transform="translate(10.001 10.001)"/>
          </g>
          <g id="g3775" transform="translate(7.805 27.387)">
            <path id="path3777" d="M-14.832-181.68a.768.768,0,0,1-.694-.438.768.768,0,0,1,.364-1.023,3.169,3.169,0,0,0,1.8-2.848v-8.123a3.155,3.155,0,0,0-3.151-3.151,3.157,3.157,0,0,0-3.16,3.151v8.123a3.117,3.117,0,0,0,.692,1.97.768.768,0,0,1-.119,1.079.768.768,0,0,1-1.079-.119,4.7,4.7,0,0,1-1.029-2.93v-8.123a4.692,4.692,0,0,1,4.687-4.687,4.694,4.694,0,0,1,4.7,4.687v8.123a4.711,4.711,0,0,1-2.677,4.235A.765.765,0,0,1-14.832-181.68Z" transform="translate(21.208 198.798)"/>
          </g>
          <g id="g3779" transform="translate(42.221 37.206)">
            <path id="path3781" d="M-48.509-65.862a.768.768,0,0,1-.768-.768v-.193a4.076,4.076,0,0,0-2.748-3.854.768.768,0,0,1-.476-.976.768.768,0,0,1,.976-.476,5.611,5.611,0,0,1,3.783,5.305v.193A.768.768,0,0,1-48.509-65.862Z" transform="translate(52.543 72.169)"/>
          </g>
          <g id="g3783" transform="translate(32.788 37.197)">
            <path id="path3785" d="M-52.126-.957a.768.768,0,0,1-.768-.768V-4.646a5.606,5.606,0,0,1,3.815-5.316.768.768,0,0,1,.973.482.768.768,0,0,1-.482.973,4.071,4.071,0,0,0-2.77,3.861v2.922A.768.768,0,0,1-52.126-.957Z" transform="translate(52.893 10.003)"/>
          </g>
          <g id="g3787" transform="translate(35.214 27.387)">
            <path id="path3789" d="M-56.471-142.824h-.008a4.692,4.692,0,0,1-4.687-4.687v-3.333a4.692,4.692,0,0,1,4.687-4.686,4.694,4.694,0,0,1,4.7,4.686v3.333A4.692,4.692,0,0,1-56.471-142.824Zm0-11.171a3.157,3.157,0,0,0-3.16,3.151v3.333a3.155,3.155,0,0,0,3.151,3.151h.008a3.155,3.155,0,0,0,3.151-3.151v-3.333A3.155,3.155,0,0,0-56.471-154Z" transform="translate(61.166 155.53)"/>
          </g>
          <g id="g3791" transform="translate(1.982 41.975)">
            <path id="path3793" d="M-153.776-115.4h-10.1a2.687,2.687,0,0,1-2.683-2.683v-4.061a3.685,3.685,0,0,1,3.681-3.681h6.191a3.685,3.685,0,0,1,3.681,3.681v5.977A.768.768,0,0,1-153.776-115.4Zm-9.1-8.891a2.148,2.148,0,0,0-2.146,2.146v4.061a1.15,1.15,0,0,0,1.148,1.148h9.334v-5.21a2.148,2.148,0,0,0-2.146-2.146Z" transform="translate(166.561 125.825)"/>
          </g>
          <g id="g3795" transform="translate(13.968 44.466)">
            <path id="path3797" d="M-9.233-38.68a.767.767,0,0,1-.649-.357A.768.768,0,0,1-9.644-40.1l5.753-3.64a.727.727,0,0,0,.322-.608.718.718,0,0,0-.385-.645.719.719,0,0,0-.751.031l-4.123,2.573a.768.768,0,0,1-1.058-.245.768.768,0,0,1,.245-1.058l4.109-2.564a2.26,2.26,0,0,1,2.308-.088,2.267,2.267,0,0,1,1.19,2,2.262,2.262,0,0,1-1.027,1.9L-8.823-38.8A.764.764,0,0,1-9.233-38.68Z" transform="translate(10.001 46.614)"/>
          </g>
          <g id="g3799" transform="translate(30.434 44.465)">
            <path id="path3801" d="M-91.525-46.63a2.267,2.267,0,0,1,1.238.373l4.095,2.555a.768.768,0,0,1,.361.651v3.589a.768.768,0,0,1-.4.672.768.768,0,0,1-.781-.024l-5.753-3.64A2.267,2.267,0,0,1-93.8-44.359,2.241,2.241,0,0,1-93.1-46,2.306,2.306,0,0,1-91.525-46.63Zm4.159,4.005-3.748-2.339a.735.735,0,0,0-.412-.131.756.756,0,0,0-.516.209.71.71,0,0,0-.222.527.732.732,0,0,0,.332.614l4.565,2.888Z" transform="translate(93.798 46.63)"/>
          </g>
          <g id="g3803" transform="translate(36.866 41.975)">
            <path id="path3805" d="M-155.692-38.865h-10.1a.768.768,0,0,1-.768-.768V-45.61a3.685,3.685,0,0,1,3.681-3.681h6.191a3.685,3.685,0,0,1,3.681,3.681v.1a.768.768,0,0,1-.768.768.768.768,0,0,1-.768-.768v-.1a2.148,2.148,0,0,0-2.146-2.146h-6.191a2.148,2.148,0,0,0-2.146,2.146v5.21h9.334a1.148,1.148,0,0,0,1.144-1.079.768.768,0,0,1,.812-.721.768.768,0,0,1,.721.812A2.685,2.685,0,0,1-155.692-38.865Z" transform="translate(166.561 49.291)"/>
          </g>
          <g id="g3807" transform="translate(22.966 26.582)">
            <path id="path3809" d="M-129.941-72.764a5.592,5.592,0,0,1,5.585,5.585A5.587,5.587,0,0,1-126-63.227v2.076a.768.768,0,0,1-.386.666.768.768,0,0,1-.77,0l-1.983-1.162a5.626,5.626,0,0,1-.807.058,5.592,5.592,0,0,1-5.585-5.585A5.592,5.592,0,0,1-129.941-72.764Zm2.411,10.272V-63.56a.768.768,0,0,1,.261-.577,4.052,4.052,0,0,0,1.379-3.042,4.055,4.055,0,0,0-4.05-4.05,4.055,4.055,0,0,0-4.05,4.05,4.055,4.055,0,0,0,4.05,4.05,4.084,4.084,0,0,0,.8-.08.768.768,0,0,1,.539.09Z" transform="translate(135.526 72.764)"/>
          </g>
          <g id="g3811" transform="translate(25.52 31.471)">
            <path id="path3813" d="M-8.918-18.465a.768.768,0,0,0,0-1.535.768.768,0,0,0,0,1.535" transform="translate(9.66 20)"/>
          </g>
          <g id="g3815" transform="translate(27.81 31.471)">
            <path id="path3817" d="M-8.918-18.465a.768.768,0,0,0,0-1.535.768.768,0,0,0,0,1.535" transform="translate(9.659 20)"/>
          </g>
          <g id="g3819" transform="translate(30.099 31.471)">
            <path id="path3821" d="M-8.918-18.465a.768.768,0,0,0,0-1.535.768.768,0,0,0,0,1.535" transform="translate(9.659 20)"/>
          </g>
          <g id="g3823" transform="translate(18.103 6.386)">
            <path id="path3825" d="M-128.2-35.983a.767.767,0,0,1-.382-.1.768.768,0,0,1-.386-.666v-2.076a5.587,5.587,0,0,1-1.639-3.951,5.592,5.592,0,0,1,5.585-5.585,5.55,5.55,0,0,1,2.174.439.768.768,0,0,1,.408,1.006.768.768,0,0,1-1.006.408,4.023,4.023,0,0,0-1.576-.318,4.055,4.055,0,0,0-4.05,4.05,4.053,4.053,0,0,0,1.379,3.042.768.768,0,0,1,.261.577v1.068l1.069-.626a.768.768,0,0,1,.539-.09,4.084,4.084,0,0,0,.8.08,4.055,4.055,0,0,0,4.05-4.05,4.025,4.025,0,0,0-.317-1.574.768.768,0,0,1,.409-1.006.768.768,0,0,1,1.006.409,5.552,5.552,0,0,1,.438,2.171,5.592,5.592,0,0,1-5.585,5.585,5.621,5.621,0,0,1-.807-.058l-1.983,1.162A.767.767,0,0,1-128.2-35.983Z" transform="translate(130.608 48.363)"/>
          </g>
          <g id="g3827" transform="translate(20.658 11.276)">
            <path id="path3829" d="M-8.918-18.465a.768.768,0,0,0,0-1.535.768.768,0,0,0,0,1.535" transform="translate(9.659 20)"/>
          </g>
          <g id="g3831" transform="translate(22.947 11.276)">
            <path id="path3833" d="M-8.918-18.465a.768.768,0,0,0,0-1.535.768.768,0,0,0,0,1.535" transform="translate(9.66 20)"/>
          </g>
          <g id="g3835" transform="translate(25.236 11.276)">
            <path id="path3837" d="M-8.918-18.465a.768.768,0,0,0,0-1.535.768.768,0,0,0,0,1.535" transform="translate(9.66 20)"/>
          </g>
          <g id="g3839" transform="translate(24.56 0)">
            <path id="path3841" d="M-129.942-72.764a5.592,5.592,0,0,1,5.585,5.585A5.587,5.587,0,0,1-126-63.227v2.076a.768.768,0,0,1-.386.666.768.768,0,0,1-.77,0l-1.983-1.162a5.626,5.626,0,0,1-.807.058,5.592,5.592,0,0,1-5.585-5.585A5.592,5.592,0,0,1-129.942-72.764Zm2.411,10.272V-63.56a.768.768,0,0,1,.261-.577,4.053,4.053,0,0,0,1.379-3.042,4.055,4.055,0,0,0-4.05-4.05,4.055,4.055,0,0,0-4.05,4.05,4.055,4.055,0,0,0,4.05,4.05,4.084,4.084,0,0,0,.8-.08.768.768,0,0,1,.539.09Z" transform="translate(135.528 72.764)"/>
          </g>
          <g id="g3843" transform="translate(28.123 3.59)">
            <path id="path3845" d="M-6.723-5.955a.765.765,0,0,1-.543-.225L-9.775-8.69a.768.768,0,0,1,0-1.086.768.768,0,0,1,1.086,0L-6.18-7.266a.768.768,0,0,1,0,1.086A.765.765,0,0,1-6.723-5.955Z" transform="translate(10 10)"/>
          </g>
          <g id="g3847" transform="translate(28.123 3.59)">
            <path id="path3849" d="M-41.924-5.955a.765.765,0,0,1-.543-.225.768.768,0,0,1,0-1.086l2.509-2.509a.768.768,0,0,1,1.086,0,.768.768,0,0,1,0,1.086L-41.382-6.18A.765.765,0,0,1-41.924-5.955Z" transform="translate(42.692 10)"/>
          </g>
        </g>
      </g>
    </g>
  </g>
</svg>
