<svg xmlns="http://www.w3.org/2000/svg" xmlns:xlink="http://www.w3.org/1999/xlink" width="118" height="118" viewBox="0 0 118 118">
  <defs>
    <filter id="Trazado_874925" x="0" y="0" width="118" height="118" filterUnits="userSpaceOnUse">
      <feOffset dy="3" input="SourceAlpha"/>
      <feGaussianBlur stdDeviation="3" result="blur"/>
      <feFlood flood-opacity="0.161"/>
      <feComposite operator="in" in2="blur"/>
      <feComposite in="SourceGraphic"/>
    </filter>
    <clipPath id="clip-path">
      <path id="path4770" d="M0-682.665H69.713v69.713H0Z" transform="translate(0 682.665)"/>
    </clipPath>
  </defs>
  <g id="Grupo_1181986" data-name="Grupo 1181986" transform="translate(6119 7044)">
    <g id="Grupo_1118045" data-name="Grupo 1118045" transform="translate(-7227.134 -8977.999)">
      <g id="Grupo_1111553" data-name="Grupo 1111553" transform="translate(308.634 -577.158)">
        <g id="Grupo_1111316" data-name="Grupo 1111316" transform="translate(808.5 2517.157)">
          <g id="Grupo_1109835" data-name="Grupo 1109835" transform="translate(0 0)">
            <g id="Grupo_1107913" data-name="Grupo 1107913" transform="translate(0 0)">
              <g transform="matrix(1, 0, 0, 1, -9, -6)" filter="url(#Trazado_874925)">
                <g id="Trazado_874925-2" data-name="Trazado 874925" transform="translate(9 6)" fill="#9cc8ff" opacity="0.859">
                  <path d="M 49.99972534179688 98.4998779296875 C 43.45164108276367 98.4998779296875 37.10022354125977 97.21776580810547 31.12189674377441 94.68914794921875 C 25.34676742553711 92.24647521972656 20.15985298156738 88.74925994873047 15.70523929595947 84.29464721679688 C 11.25062561035156 79.84004974365234 7.753411293029785 74.65313720703125 5.310725212097168 68.87800598144531 C 2.782111167907715 62.89969253540039 1.499996781349182 56.54829406738281 1.499996781349182 50.00022125244141 C 1.499996781349182 43.45157623291016 2.782111167907715 37.10017776489258 5.310725212097168 31.12186431884766 C 7.753411293029785 25.34673500061035 11.25062561035156 20.15983581542969 15.70523929595947 15.70522117614746 C 20.15985298156738 11.25062084197998 25.34676742553711 7.753406524658203 31.12189674377441 5.31073522567749 C 37.10022354125977 2.782120943069458 43.45164108276367 1.500006556510925 49.99972534179688 1.500006556510925 C 56.54780960083008 1.500006556510925 62.89922714233398 2.782120943069458 68.87755584716797 5.31073522567749 C 74.65267944335938 7.753406524658203 79.839599609375 11.25062084197998 84.29421234130859 15.70522117614746 C 88.74882507324219 20.15983581542969 92.24604034423828 25.34673500061035 94.68872833251953 31.12186431884766 C 97.21733856201172 37.10017776489258 98.49945068359375 43.45157623291016 98.49945068359375 49.99964904785156 C 98.49945068359375 56.54829406738281 97.21733856201172 62.89969253540039 94.68872833251953 68.87800598144531 C 92.24604034423828 74.65313720703125 88.74882507324219 79.84004974365234 84.29421234130859 84.29464721679688 C 79.839599609375 88.74925994873047 74.65267944335938 92.24647521972656 68.87755584716797 94.68914794921875 C 62.89922714233398 97.21776580810547 56.54780960083008 98.4998779296875 49.99972534179688 98.4998779296875 Z" stroke="none"/>
                  <path d="M 49.99972534179688 3 C 43.65348052978516 3 37.49866485595703 4.242240905761719 31.70623016357422 6.692230224609375 C 26.10989379882812 9.059272766113281 21.08323669433594 12.44853210449219 16.76589202880859 16.76587677001953 C 12.44855499267578 21.08321380615234 9.059295654296875 26.10985565185547 6.692230224609375 31.70618438720703 C 4.24224853515625 37.49859619140625 3 43.65341186523438 3 50.00022888183594 C 3 56.34645843505859 4.24224853515625 62.50127410888672 6.692230224609375 68.29368591308594 C 9.059295654296875 73.8900146484375 12.44855499267578 78.91665649414062 16.76589202880859 83.23399353027344 C 21.08323669433594 87.55132293701172 26.10989379882812 90.94059753417969 31.70623016357422 93.30764007568359 C 37.49866485595703 95.75762939453125 43.65348052978516 96.99987030029297 49.99972534179688 96.99987030029297 C 56.34597015380859 96.99987030029297 62.50078582763672 95.75762939453125 68.293212890625 93.30764007568359 C 73.88955688476562 90.94059753417969 78.91621398925781 87.55132293701172 83.23355865478516 83.23399353027344 C 87.55089569091797 78.91665649414062 90.94015502929688 73.8900146484375 93.30722045898438 68.29368591308594 C 95.7572021484375 62.50127410888672 96.99945068359375 56.34645843505859 96.99945068359375 49.99964141845703 C 96.99945068359375 43.65341186523438 95.7572021484375 37.49859619140625 93.30722045898438 31.70618438720703 C 90.94015502929688 26.10985565185547 87.55089569091797 21.08321380615234 83.23355865478516 16.76587677001953 C 78.91621398925781 12.44853210449219 73.88955688476562 9.059272766113281 68.293212890625 6.692230224609375 C 62.50078582763672 4.242240905761719 56.34597015380859 3 49.99972534179688 3 M 49.99972534179688 0 C 77.61381530761719 0 99.99945068359375 22.38559722900391 99.99945068359375 49.99964141845703 L 99.99945068359375 50.00022888183594 C 99.99945068359375 77.6142578125 77.61381530761719 99.99987030029297 49.99972534179688 99.99987030029297 C 22.38563537597656 99.99987030029297 0 77.6142578125 0 50.00022888183594 L 0 49.99964141845703 C 0 22.38559722900391 22.38563537597656 0 49.99972534179688 0 Z" stroke="none" fill="#fff"/>
                </g>
              </g>
              <g id="Trazado_874923" data-name="Trazado 874923" transform="translate(0 0)" fill="none">
                <path d="M50,0a50,50,0,0,1,50,50h0A50,50,0,0,1,0,50H0A50,50,0,0,1,50,0Z" stroke="none"/>
                <path d="M 49.99972534179688 3 C 43.65348052978516 3 37.49866485595703 4.242240905761719 31.70623016357422 6.692230224609375 C 26.10989379882812 9.059272766113281 21.08323669433594 12.44853210449219 16.76589202880859 16.76587677001953 C 12.44855499267578 21.08321380615234 9.059295654296875 26.10985565185547 6.692230224609375 31.70618438720703 C 4.24224853515625 37.49859619140625 3 43.65341186523438 3 50.00022888183594 C 3 56.34645843505859 4.24224853515625 62.50127410888672 6.692230224609375 68.29368591308594 C 9.059295654296875 73.8900146484375 12.44855499267578 78.91665649414062 16.76589202880859 83.23399353027344 C 21.08323669433594 87.55132293701172 26.10989379882812 90.94059753417969 31.70623016357422 93.30764007568359 C 37.49866485595703 95.75762939453125 43.65348052978516 96.99987030029297 49.99972534179688 96.99987030029297 C 56.34597015380859 96.99987030029297 62.50078582763672 95.75762939453125 68.293212890625 93.30764007568359 C 73.88955688476562 90.94059753417969 78.91621398925781 87.55132293701172 83.23355865478516 83.23399353027344 C 87.55089569091797 78.91665649414062 90.94015502929688 73.8900146484375 93.30722045898438 68.29368591308594 C 95.7572021484375 62.50127410888672 96.99945068359375 56.34645843505859 96.99945068359375 49.99964141845703 C 96.99945068359375 43.65341186523438 95.7572021484375 37.49859619140625 93.30722045898438 31.70618438720703 C 90.94015502929688 26.10985565185547 87.55089569091797 21.08321380615234 83.23355865478516 16.76587677001953 C 78.91621398925781 12.44853210449219 73.88955688476562 9.059272766113281 68.293212890625 6.692230224609375 C 62.50078582763672 4.242240905761719 56.34597015380859 3 49.99972534179688 3 M 49.99972534179688 0 C 77.61381530761719 0 99.99945068359375 22.38559722900391 99.99945068359375 49.99964141845703 L 99.99945068359375 50.00022888183594 C 99.99945068359375 77.6142578125 77.61381530761719 99.99987030029297 49.99972534179688 99.99987030029297 C 22.38563537597656 99.99987030029297 0 77.6142578125 0 50.00022888183594 L 0 49.99964141845703 C 0 22.38559722900391 22.38563537597656 0 49.99972534179688 0 Z" stroke="none" fill="#fff"/>
              </g>
            </g>
          </g>
        </g>
      </g>
    </g>
    <g id="g4764" transform="translate(-6094 -6340.335)">
      <g id="g4766" transform="translate(0 -682.665)">
        <g id="g4768" clip-path="url(#clip-path)">
          <g id="g4774" transform="translate(17.025 59.041)">
            <path id="path4776" d="M-9.3,0H4.8A1.062,1.062,0,0,1,5.862,1.058V5.183A1.059,1.059,0,0,1,4.8,6.241H-9.3a1.059,1.059,0,0,1-1.058-1.058V1.058A1.062,1.062,0,0,1-9.3,0" transform="translate(10.356)" fill="#f98824" fill-rule="evenodd"/>
          </g>
          <g id="g4778" transform="translate(1.021 24.757)">
            <path id="path4780" d="M-38.057-82.764c1.362-4.041,6.469-6.1,12.15-5.245a2.258,2.258,0,0,0,.861-1.941,3.537,3.537,0,0,0-.652-2.057c-7.422-.953-14.2,2.181-16.149,7.966-1.968,5.847,1.617,12.517,8.229,16.23a5.733,5.733,0,0,0,.51-2.605,3.725,3.725,0,0,0-.587-2.2c-3.663-2.794-5.515-6.719-4.361-10.147" transform="translate(42.385 92.177)" fill="#f98824" fill-rule="evenodd"/>
          </g>
          <g id="g4782" transform="translate(9.607 20.148)">
            <path id="path4784" d="M-65.224-361.683c-4.427-2.914-7.418-8.48-7.418-14.867a18.262,18.262,0,0,1,4.72-12.578c5.268-5.554,3.3-8.815,2.489-12.83l8.827-.861,7.812.861c-.814,4.014-2.783,7.276,2.486,12.83a18.266,18.266,0,0,1,4.724,12.578c0,6.387-2.995,11.953-7.422,14.867Z" transform="translate(72.642 402.819)" fill="#fcc16d" fill-rule="evenodd"/>
          </g>
          <g id="g4786" transform="translate(13.459 21.008)">
            <path id="path4788" d="M-31.356-354.117a15.19,15.19,0,0,1-3.566-3.3h18.009a3.068,3.068,0,0,0,3.1-1.505,18.909,18.909,0,0,0,2.8-10.058,18.264,18.264,0,0,0-4.724-12.578c-5.268-5.554-3.3-8.815-2.49-12.83h3.308c-.814,4.014-2.783,7.276,2.486,12.83a18.266,18.266,0,0,1,4.724,12.578c0,6.387-2.995,11.953-7.422,14.867Z" transform="translate(34.923 394.392)" fill="#fca62f" fill-rule="evenodd"/>
          </g>
          <g id="g4790" transform="translate(37.76 16.685)">
            <path id="path4792" d="M-216.564-6.829a9.567,9.567,0,0,1,.7,1.864c1.64,6.114-2.625,12.567-9.522,14.416s-13.821-1.609-15.458-7.723a10.235,10.235,0,0,1-.343-3.022l23.1-6.187c.934-.243,1.108-.182,1.528.652" transform="translate(241.194 7.605)" fill="#c86f5c" fill-rule="evenodd"/>
          </g>
          <g id="g4794" transform="translate(48.164 16.685)">
            <path id="path4796" d="M-125.085-6.829a9.567,9.567,0,0,1,.7,1.864c1.64,6.114-2.625,12.567-9.522,14.416a14.314,14.314,0,0,1-5.4.4,14.96,14.96,0,0,0,2.1-.405c6.9-1.872,11.166-8.394,9.526-14.574a9.836,9.836,0,0,0-.695-1.88l1.772-.475c.934-.243,1.108-.182,1.528.652" transform="translate(139.312 7.605)" fill="#ba5d4f" fill-rule="evenodd"/>
          </g>
          <g id="g4798" transform="translate(31.485 22.044)">
            <path id="path4800" d="M-13.826-6.505a14.048,14.048,0,0,0-1.1,2.825c-2.192,8.19,3.516,16.832,12.756,19.306s18.507-2.153,20.7-10.34a13.712,13.712,0,0,0,.46-3c.035-.98-.2-1.1-1.027-1.32l-30.236-8.1c-.849-.22-1.146-.143-1.548.633" transform="translate(15.398 7.245)" fill="#a34f41" fill-rule="evenodd"/>
          </g>
          <g id="g4802" transform="translate(48.014 29.639)">
            <path id="path4804" d="M0-139.51c8.051.725,15.465-3.721,17.4-10.93a13.712,13.712,0,0,0,.46-3c.035-.98-.2-1.1-1.027-1.32l-2.285-.614a17.718,17.718,0,0,1-.452,3.338A16.038,16.038,0,0,1,0-139.51" transform="translate(0 155.377)" fill="#873f30" fill-rule="evenodd"/>
          </g>
          <g id="g4806" transform="translate(28.67 39.029)">
            <path id="path4808" d="M-325.809-5.836a8.466,8.466,0,0,1,2.867,5.353,11.428,11.428,0,0,1,.089,2l-.332.907.112,1.061c-.8,4.408-3.5,9.1-6.26,12.664-.826,1.061-1.652,2.022-2.439,2.848a1.868,1.868,0,0,1-1.8.756h-18.557a1.894,1.894,0,0,1-1.81-.76,39.336,39.336,0,0,1-2.9-3.462c-2.6-3.478-5.044-7.889-5.793-12.046a4.395,4.395,0,0,0-.22-1.968,10.97,10.97,0,0,1,.12-2.208,8.446,8.446,0,0,1,2.848-5.156c.718-.629.78-.652,1.887-.652h30.29c1.115,0,1.177.027,1.9.664" transform="translate(362.864 6.5)" fill="#c86f5c" fill-rule="evenodd"/>
          </g>
          <g id="g4810" transform="translate(35.397 39.041)">
            <path id="path4812" d="M-266.667-5.733A8.466,8.466,0,0,1-263.8-.38a11.431,11.431,0,0,1,.089,2l-.332.907.112,1.061c-.8,4.408-3.5,9.1-6.26,12.664-.826,1.061-1.652,2.022-2.439,2.848a1.868,1.868,0,0,1-1.8.756H-292.99a1.894,1.894,0,0,1-1.81-.76c-.706-.749-1.451-1.606-2.2-2.543h19.26a1.877,1.877,0,0,0,1.8-.757c.783-.826,1.613-1.787,2.435-2.848,3.62-4.666,7.136-11.27,6.4-16.631a8.762,8.762,0,0,0-.815-2.7c.537.035.7.17,1.251.652" transform="translate(296.997 6.385)" fill="#ba5d4f" fill-rule="evenodd"/>
          </g>
          <g id="g4814" transform="translate(22.772 4.431)">
            <path id="path4816" d="M-41.571-26.029c0-2.4-1.061-2.96-2.366-2.96s-2.362.563-2.362,2.96a10.826,10.826,0,0,0,1,4.469h2.717a10.768,10.768,0,0,0,1.007-4.469" transform="translate(46.299 28.989)" fill="#f98824" fill-rule="evenodd"/>
          </g>
          <g id="g4818" transform="translate(17.754 11.772)">
            <path id="path4820" d="M-64.884,0c4.076,0,7.38,2.343,7.38,5.237l-6.8.629-7.955-.629c0-2.895,3.3-5.237,7.38-5.237" transform="translate(72.264 0)" fill="#fcc16d" fill-rule="evenodd"/>
          </g>
          <g id="g4822" transform="translate(24.655 11.772)">
            <path id="path4824" d="M-4.208,0c4.076,0,7.38,2.343,7.38,5.237h-3.3C-.132,2.879-2.016.861-4.687.011-4.528,0-4.37,0-4.208,0" transform="translate(4.687)" fill="#fca62f" fill-rule="evenodd"/>
          </g>
          <g id="g4826" transform="translate(14.817 17.01)">
            <path id="path4828" d="M-17.579,0H-.941a2.007,2.007,0,0,1,2,2,2.007,2.007,0,0,1-2,2H-17.579a2,2,0,0,1-2-2,2,2,0,0,1,2-2" transform="translate(19.579)" fill="#f98824" fill-rule="evenodd"/>
          </g>
          <g id="g4830" transform="translate(27.741 45.353)">
            <path id="path4832" d="M30.863-22.581a4.922,4.922,0,0,1-2.534-.987,3.63,3.63,0,0,0-1.45-.676,3.631,3.631,0,0,0-1.449.676,4.923,4.923,0,0,1-2.534.988,4.931,4.931,0,0,1-2.538-.988,3.631,3.631,0,0,0-1.449-.675,3.631,3.631,0,0,0-1.45.676,4.923,4.923,0,0,1-2.534.987,4.923,4.923,0,0,1-2.533-.987,3.631,3.631,0,0,0-1.45-.676,3.631,3.631,0,0,0-1.45.676,4.923,4.923,0,0,1-2.533.987,4.923,4.923,0,0,1-2.532-.986,3.636,3.636,0,0,0-1.455-.677,3.631,3.631,0,0,0-1.449.676,4.923,4.923,0,0,1-2.534.988,4.922,4.922,0,0,1-2.533-.987,3.631,3.631,0,0,0-1.45-.676,3.631,3.631,0,0,0-1.45.676,4.923,4.923,0,0,1-2.533.987A1.021,1.021,0,0,1-10-23.6a1.021,1.021,0,0,1,1.021-1.021,3.631,3.631,0,0,0,1.45-.676,4.923,4.923,0,0,1,2.534-.987,4.923,4.923,0,0,1,2.534.988,3.631,3.631,0,0,0,1.449.676A3.631,3.631,0,0,0,.44-25.3a4.923,4.923,0,0,1,2.533-.987,4.932,4.932,0,0,1,2.538.988,3.632,3.632,0,0,0,1.449.675A3.631,3.631,0,0,0,8.41-25.3a4.923,4.923,0,0,1,2.533-.987,4.923,4.923,0,0,1,2.534.988,3.631,3.631,0,0,0,1.449.676,3.631,3.631,0,0,0,1.45-.676,4.923,4.923,0,0,1,2.534-.987,4.923,4.923,0,0,1,2.532.986,3.635,3.635,0,0,0,1.455.677,3.631,3.631,0,0,0,1.45-.676,4.923,4.923,0,0,1,2.533-.987,4.922,4.922,0,0,1,2.533.987,3.63,3.63,0,0,0,1.45.676A1.021,1.021,0,0,1,31.884-23.6,1.021,1.021,0,0,1,30.863-22.581Z" transform="translate(9.997 26.286)"/>
          </g>
          <g id="g4834" transform="translate(8.586 19.988)">
            <path id="path4836" d="M-216.8-362.072h-16.218a1.021,1.021,0,0,1-.561-.168c-4.859-3.2-7.878-9.222-7.878-15.72a19.371,19.371,0,0,1,5-13.281c4.107-4.33,3.463-6.9,2.646-10.146-.146-.583-.294-1.172-.417-1.778a1.021,1.021,0,0,1,.211-.849,1.021,1.021,0,0,1,.79-.374h16.639a1.021,1.021,0,0,1,1.021,1.021,1.021,1.021,0,0,1-1.021,1.021h-15.358q.057.232.116.462c.853,3.395,1.735,6.9-3.145,12.049a17.315,17.315,0,0,0-4.44,11.876c0,5.706,2.563,10.98,6.709,13.846H-216.8a1.021,1.021,0,0,1,1.021,1.021A1.021,1.021,0,0,1-216.8-362.072Z" transform="translate(241.453 404.389)"/>
          </g>
          <g id="g4838" transform="translate(13.796 15.989)">
            <path id="path4840" d="M-26.555-10H-9.916A3.024,3.024,0,0,1-6.9-6.976a3.023,3.023,0,0,1-3.02,3.02H-26.555a3.024,3.024,0,0,1-3.02-3.02A3.024,3.024,0,0,1-26.555-10ZM-9.916-6a.991.991,0,0,0,.978-.978.992.992,0,0,0-.978-.979H-26.555a.98.98,0,0,0-.979.979A.98.98,0,0,0-26.555-6Z" transform="translate(29.575 9.997)"/>
          </g>
          <path id="path4842" d="M173.958-86.505H157.74a1.021,1.021,0,0,1-1.021-1.021v-4a1.021,1.021,0,0,1,1.021-1.021h16.218a1.021,1.021,0,0,1,1.021,1.021v4A1.021,1.021,0,0,1,173.958-86.505Zm-15.2-2.042h14.176V-90.5H158.761Z" transform="translate(-140.715 152.808)"/>
          <g id="g4844" transform="translate(-0.002 24.05)">
            <path id="path4846" d="M-33.8-17.365a1.019,1.019,0,0,1-.5-.131c-7.214-4.052-10.79-11.225-8.7-17.446.165-.487.549-1.622,1.653-1.624.563,0,1.164,0,2.393,2.246,1.792-4.021,7.015-6.174,13.013-5.274a1.021,1.021,0,0,1,.858,1.161,1.021,1.021,0,0,1-1.161.858c-5.32-.8-9.856,1.077-11.031,4.562a5.444,5.444,0,0,0-.28,1.631c.59,1.367,1.279,3.095,2.092,5.277a13.3,13.3,0,0,0,2.2,2.1,1.021,1.021,0,0,1,.192,1.431,1.021,1.021,0,0,1-.974.389c.379,1.074.78,2.227,1.2,3.467a1.021,1.021,0,0,1-.312,1.115A1.02,1.02,0,0,1-33.8-17.365Zm-7.34-16.679c-1.373,4.485.789,9.575,5.389,13.145-.545-1.551-1.042-2.928-1.495-4.149a10.1,10.1,0,0,1-2.357-5.945A21.717,21.717,0,0,0-41.144-34.044Zm5.9-6.405a1.021,1.021,0,0,1-.967-.7,1.021,1.021,0,0,1,.576-1.267c2.406-1,3.891-1.284,4.414-.843a1.031,1.031,0,0,1,.34,1.012c-.149.657-.168.741-4.106,1.762A1.022,1.022,0,0,1-35.24-40.45Z" transform="translate(43.593 43.458)"/>
          </g>
          <g id="g4848" transform="translate(27.648 38.008)">
            <path id="path4850" d="M-325.1-178.163h-20.672a1.021,1.021,0,0,1-.712-.289c-4.314-4.2-10.524-13.106-9.948-20.438a9.589,9.589,0,0,1,4.2-7.38,1.021,1.021,0,0,1,.589-.187h32.4a1.021,1.021,0,0,1,.588.187c4.947,3.49,5.588,9.648,1.806,17.341a1.021,1.021,0,0,1-1.367.466,1.021,1.021,0,0,1-.466-1.367c2.286-4.649,3.956-10.914-.9-14.585H-351.3a7.5,7.5,0,0,0-3.09,5.686c-.5,6.422,5.16,14.618,9.044,18.526h19.833a37.785,37.785,0,0,0,4.6-5.732,1.021,1.021,0,0,1,1.414-.291,1.021,1.021,0,0,1,.291,1.414,39.26,39.26,0,0,1-5.174,6.361A1.021,1.021,0,0,1-325.1-178.163Z" transform="translate(356.466 206.458)"/>
          </g>
          <g id="g4852" transform="translate(16.733 10.752)">
            <path id="path4854" d="M-73.86-10c4.632,0,8.4,2.807,8.4,6.258a1.021,1.021,0,0,1-1.021,1.021H-81.24A1.021,1.021,0,0,1-82.26-3.738C-82.26-7.189-78.492-10-73.86-10ZM-67.7-4.759c-.709-1.812-3.244-3.2-6.162-3.2s-5.453,1.384-6.162,3.2Z" transform="translate(82.26 9.997)"/>
          </g>
          <g id="g4856" transform="translate(30.46 20.856)">
            <path id="path4858" d="M-27.425-10a1.02,1.02,0,0,1,.264.035L5.129-1.313a1.021,1.021,0,0,1,.756.951,14.751,14.751,0,0,1-.494,4.35A14.664,14.664,0,0,1,3.128,8.771,1.021,1.021,0,0,1,2.3,9.2H-25.738a1.021,1.021,0,0,1-.778-.36A15.714,15.714,0,0,1-30.035-5.509a14.746,14.746,0,0,1,1.745-4.008A1.021,1.021,0,0,1-27.425-10ZM3.849.457-26.937-7.789a12.624,12.624,0,0,0-1.126,2.808A13.629,13.629,0,0,0-25.257,7.155H1.761a12.611,12.611,0,0,0,1.658-3.7A12.645,12.645,0,0,0,3.849.457Z" transform="translate(30.544 9.997)"/>
          </g>
          <g id="g4860" transform="translate(36.745 15.514)">
            <path id="path4862" d="M-125.892-21.107a1.019,1.019,0,0,1-.385-.075,1.021,1.021,0,0,1-.632-1.035l1.108-12.625a1.021,1.021,0,0,1,.781-.9,1.021,1.021,0,0,1,1.1.455,11.328,11.328,0,0,1,1.331,3.067A11.972,11.972,0,0,1-125.1-21.481,1.021,1.021,0,0,1-125.892-21.107Zm1.649-8.131-.133,1.513A9.482,9.482,0,0,0-124.243-29.237ZM-148.9-27.27a1.021,1.021,0,0,1-.985-.757,1.021,1.021,0,0,1,.722-1.25l9.819-2.632a1.021,1.021,0,0,1,1.25.722,1.021,1.021,0,0,1-.722,1.25l-9.819,2.632A1.022,1.022,0,0,1-148.9-27.27Z" transform="translate(149.916 35.773)"/>
          </g>
          <g id="g4864" transform="translate(21.751 3.41)">
            <path id="path4866" d="M-52.912-38.986c1.545,0,3.387.691,3.387,3.981a11.816,11.816,0,0,1-1.12,4.937,1.021,1.021,0,0,1-1.04.545,9.5,9.5,0,0,0-2.452,0,1.021,1.021,0,0,1-1.042-.547A11.871,11.871,0,0,1-56.3-35C-56.3-38.3-54.456-38.986-52.912-38.986Zm.723,7.364A10.253,10.253,0,0,0-51.567-35c0-1.94-.715-1.94-1.345-1.94s-1.341,0-1.341,1.94a10.3,10.3,0,0,0,.62,3.383A11.5,11.5,0,0,1-52.189-31.622Z" transform="translate(56.295 38.986)"/>
          </g>
        </g>
      </g>
    </g>
  </g>
</svg>
