<svg xmlns="http://www.w3.org/2000/svg" xmlns:xlink="http://www.w3.org/1999/xlink" width="118" height="118" viewBox="0 0 118 118">
  <defs>
    <filter id="Trazado_874925" x="0" y="0" width="118" height="118" filterUnits="userSpaceOnUse">
      <feOffset dy="3" input="SourceAlpha"/>
      <feGaussianBlur stdDeviation="3" result="blur"/>
      <feFlood flood-opacity="0.161"/>
      <feComposite operator="in" in2="blur"/>
      <feComposite in="SourceGraphic"/>
    </filter>
  </defs>
  <g id="Grupo_1181985" data-name="Grupo 1181985" transform="translate(6459 7044)">
    <g id="Grupo_1118044" data-name="Grupo 1118044" transform="translate(-7567.134 -8977.999)">
      <g id="Grupo_1111553" data-name="Grupo 1111553" transform="translate(308.634 -577.158)">
        <g id="Grupo_1111316" data-name="Grupo 1111316" transform="translate(808.5 2517.157)">
          <g id="Grupo_1109835" data-name="Grupo 1109835" transform="translate(0 0)">
            <g id="Grupo_1107913" data-name="Grupo 1107913" transform="translate(0 0)">
              <g transform="matrix(1, 0, 0, 1, -9, -6)" filter="url(#Trazado_874925)">
                <g id="Trazado_874925-2" data-name="Trazado 874925" transform="translate(9 6)" fill="#9cc8ff" opacity="0.859">
                  <path d="M 49.99972534179688 98.4998779296875 C 43.45164108276367 98.4998779296875 37.10022354125977 97.21776580810547 31.12189674377441 94.68914794921875 C 25.34676742553711 92.24647521972656 20.15985298156738 88.74925994873047 15.70523929595947 84.29464721679688 C 11.25062561035156 79.84004974365234 7.753411293029785 74.65313720703125 5.310725212097168 68.87800598144531 C 2.782111167907715 62.89969253540039 1.499996781349182 56.54829406738281 1.499996781349182 50.00022125244141 C 1.499996781349182 43.45157623291016 2.782111167907715 37.10017776489258 5.310725212097168 31.12186431884766 C 7.753411293029785 25.34673500061035 11.25062561035156 20.15983581542969 15.70523929595947 15.70522117614746 C 20.15985298156738 11.25062084197998 25.34676742553711 7.753406524658203 31.12189674377441 5.31073522567749 C 37.10022354125977 2.782120943069458 43.45164108276367 1.500006556510925 49.99972534179688 1.500006556510925 C 56.54780960083008 1.500006556510925 62.89922714233398 2.782120943069458 68.87755584716797 5.31073522567749 C 74.65267944335938 7.753406524658203 79.839599609375 11.25062084197998 84.29421234130859 15.70522117614746 C 88.74882507324219 20.15983581542969 92.24604034423828 25.34673500061035 94.68872833251953 31.12186431884766 C 97.21733856201172 37.10017776489258 98.49945068359375 43.45157623291016 98.49945068359375 49.99964904785156 C 98.49945068359375 56.54829406738281 97.21733856201172 62.89969253540039 94.68872833251953 68.87800598144531 C 92.24604034423828 74.65313720703125 88.74882507324219 79.84004974365234 84.29421234130859 84.29464721679688 C 79.839599609375 88.74925994873047 74.65267944335938 92.24647521972656 68.87755584716797 94.68914794921875 C 62.89922714233398 97.21776580810547 56.54780960083008 98.4998779296875 49.99972534179688 98.4998779296875 Z" stroke="none"/>
                  <path d="M 49.99972534179688 3 C 43.65348052978516 3 37.49866485595703 4.242240905761719 31.70623016357422 6.692230224609375 C 26.10989379882812 9.059272766113281 21.08323669433594 12.44853210449219 16.76589202880859 16.76587677001953 C 12.44855499267578 21.08321380615234 9.059295654296875 26.10985565185547 6.692230224609375 31.70618438720703 C 4.24224853515625 37.49859619140625 3 43.65341186523438 3 50.00022888183594 C 3 56.34645843505859 4.24224853515625 62.50127410888672 6.692230224609375 68.29368591308594 C 9.059295654296875 73.8900146484375 12.44855499267578 78.91665649414062 16.76589202880859 83.23399353027344 C 21.08323669433594 87.55132293701172 26.10989379882812 90.94059753417969 31.70623016357422 93.30764007568359 C 37.49866485595703 95.75762939453125 43.65348052978516 96.99987030029297 49.99972534179688 96.99987030029297 C 56.34597015380859 96.99987030029297 62.50078582763672 95.75762939453125 68.293212890625 93.30764007568359 C 73.88955688476562 90.94059753417969 78.91621398925781 87.55132293701172 83.23355865478516 83.23399353027344 C 87.55089569091797 78.91665649414062 90.94015502929688 73.8900146484375 93.30722045898438 68.29368591308594 C 95.7572021484375 62.50127410888672 96.99945068359375 56.34645843505859 96.99945068359375 49.99964141845703 C 96.99945068359375 43.65341186523438 95.7572021484375 37.49859619140625 93.30722045898438 31.70618438720703 C 90.94015502929688 26.10985565185547 87.55089569091797 21.08321380615234 83.23355865478516 16.76587677001953 C 78.91621398925781 12.44853210449219 73.88955688476562 9.059272766113281 68.293212890625 6.692230224609375 C 62.50078582763672 4.242240905761719 56.34597015380859 3 49.99972534179688 3 M 49.99972534179688 0 C 77.61381530761719 0 99.99945068359375 22.38559722900391 99.99945068359375 49.99964141845703 L 99.99945068359375 50.00022888183594 C 99.99945068359375 77.6142578125 77.61381530761719 99.99987030029297 49.99972534179688 99.99987030029297 C 22.38563537597656 99.99987030029297 0 77.6142578125 0 50.00022888183594 L 0 49.99964141845703 C 0 22.38559722900391 22.38563537597656 0 49.99972534179688 0 Z" stroke="none" fill="#fff"/>
                </g>
              </g>
              <g id="Trazado_874923" data-name="Trazado 874923" transform="translate(0 0)" fill="none">
                <path d="M50,0a50,50,0,0,1,50,50h0A50,50,0,0,1,0,50H0A50,50,0,0,1,50,0Z" stroke="none"/>
                <path d="M 49.99972534179688 3 C 43.65348052978516 3 37.49866485595703 4.242240905761719 31.70623016357422 6.692230224609375 C 26.10989379882812 9.059272766113281 21.08323669433594 12.44853210449219 16.76589202880859 16.76587677001953 C 12.44855499267578 21.08321380615234 9.059295654296875 26.10985565185547 6.692230224609375 31.70618438720703 C 4.24224853515625 37.49859619140625 3 43.65341186523438 3 50.00022888183594 C 3 56.34645843505859 4.24224853515625 62.50127410888672 6.692230224609375 68.29368591308594 C 9.059295654296875 73.8900146484375 12.44855499267578 78.91665649414062 16.76589202880859 83.23399353027344 C 21.08323669433594 87.55132293701172 26.10989379882812 90.94059753417969 31.70623016357422 93.30764007568359 C 37.49866485595703 95.75762939453125 43.65348052978516 96.99987030029297 49.99972534179688 96.99987030029297 C 56.34597015380859 96.99987030029297 62.50078582763672 95.75762939453125 68.293212890625 93.30764007568359 C 73.88955688476562 90.94059753417969 78.91621398925781 87.55132293701172 83.23355865478516 83.23399353027344 C 87.55089569091797 78.91665649414062 90.94015502929688 73.8900146484375 93.30722045898438 68.29368591308594 C 95.7572021484375 62.50127410888672 96.99945068359375 56.34645843505859 96.99945068359375 49.99964141845703 C 96.99945068359375 43.65341186523438 95.7572021484375 37.49859619140625 93.30722045898438 31.70618438720703 C 90.94015502929688 26.10985565185547 87.55089569091797 21.08321380615234 83.23355865478516 16.76587677001953 C 78.91621398925781 12.44853210449219 73.88955688476562 9.059272766113281 68.293212890625 6.692230224609375 C 62.50078582763672 4.242240905761719 56.34597015380859 3 49.99972534179688 3 M 49.99972534179688 0 C 77.61381530761719 0 99.99945068359375 22.38559722900391 99.99945068359375 49.99964141845703 L 99.99945068359375 50.00022888183594 C 99.99945068359375 77.6142578125 77.61381530761719 99.99987030029297 49.99972534179688 99.99987030029297 C 22.38563537597656 99.99987030029297 0 77.6142578125 0 50.00022888183594 L 0 49.99964141845703 C 0 22.38559722900391 22.38563537597656 0 49.99972534179688 0 Z" stroke="none" fill="#fff"/>
              </g>
            </g>
          </g>
        </g>
      </g>
    </g>
    <g id="el-tiempo-de-entrega" transform="translate(-6430 -7018)">
      <path id="Trazado_909871" data-name="Trazado 909871" d="M36,26H52a3.007,3.007,0,0,1,2.77,1.85l4,9.6A2.988,2.988,0,0,1,59,38.6V49a3,3,0,0,1-3,3H36Z" fill="#e4f1ff"/>
      <path id="Trazado_909872" data-name="Trazado 909872" d="M37,47v5H3a2.006,2.006,0,0,1-2-2V48l1-1Z" fill="#a54759"/>
      <path id="Trazado_909873" data-name="Trazado 909873" d="M1,19H37V48H1Z" fill="#cd596b"/>
      <circle id="Elipse_11629" data-name="Elipse 11629" cx="6" cy="6" r="6" transform="translate(42 47)" fill="#69757a"/>
      <circle id="Elipse_11630" data-name="Elipse 11630" cx="2" cy="2" r="2" transform="translate(46 51)" fill="#708693"/>
      <circle id="Elipse_11631" data-name="Elipse 11631" cx="6" cy="6" r="6" transform="translate(8 47)" fill="#69757a"/>
      <circle id="Elipse_11632" data-name="Elipse 11632" cx="2" cy="2" r="2" transform="translate(12 51)" fill="#708693"/>
      <path id="Trazado_909874" data-name="Trazado 909874" d="M59,38.6V39H45a2.006,2.006,0,0,1-2-2V26h9a3.007,3.007,0,0,1,2.77,1.85l4,9.6A2.988,2.988,0,0,1,59,38.6Z" fill="#a3bdce"/>
      <circle id="Elipse_11633" data-name="Elipse 11633" cx="18" cy="18" r="18" transform="translate(1 1)" fill="#e4f1ff"/>
      <circle id="Elipse_11634" data-name="Elipse 11634" cx="14" cy="14" r="14" transform="translate(5 5)" fill="#fff"/>
      <circle id="Elipse_11635" data-name="Elipse 11635" cx="2" cy="2" r="2" transform="translate(17 17)" fill="#c4ddf0"/>
      <g id="Grupo_1181984" data-name="Grupo 1181984">
        <path id="Trazado_909875" data-name="Trazado 909875" d="M55.691,27.463A4,4,0,0,0,52,25H41a1,1,0,0,0,0,2h1V37a3,3,0,0,0,3,3H58v9a2,2,0,0,1-2,2H54.7a7,7,0,0,0-13.4,0H38V19A19,19,0,1,0,0,19V50a3,3,0,0,0,3,3H7a7,7,0,0,0,14,0H41a7,7,0,0,0,14,0h1a4,4,0,0,0,4-4V38.6a3.958,3.958,0,0,0-.308-1.535ZM19,2A17,17,0,1,1,2,19,17,17,0,0,1,19,2Zm0,36A19,19,0,0,0,36,27.434V47H17.587a6.933,6.933,0,0,0-7.174,0H2V27.434A19,19,0,0,0,19,38ZM3,51a1,1,0,0,1-1-1V49H8.264A6.957,6.957,0,0,0,7.3,51Zm11,7a5,5,0,1,1,5-5,5,5,0,0,1-5,5Zm6.7-7a6.957,6.957,0,0,0-.969-2H36v2ZM48,58a5,5,0,1,1,5-5,5,5,0,0,1-5,5ZM44,37V27h8a2,2,0,0,1,1.847,1.234l4,9.6c.022.053.033.109.05.164H45a1,1,0,0,1-1-1Z" fill="#373737"/>
        <path id="Trazado_909876" data-name="Trazado 909876" d="M48,50a3,3,0,1,0,3,3,3,3,0,0,0-3-3Zm0,4a1,1,0,1,1,1-1A1,1,0,0,1,48,54Z" fill="#373737"/>
        <path id="Trazado_909877" data-name="Trazado 909877" d="M14,50a3,3,0,1,0,3,3,3,3,0,0,0-3-3Zm0,4a1,1,0,1,1,1-1A1,1,0,0,1,14,54Z" fill="#373737"/>
        <path id="Trazado_909878" data-name="Trazado 909878" d="M19,22a3,3,0,0,0,2.816-2H24a1,1,0,0,0,0-2H21.816A3,3,0,0,0,20,16.184V12a1,1,0,0,0-2,0v4.184A2.993,2.993,0,0,0,19,22Zm0-4a1,1,0,1,1-1,1A1,1,0,0,1,19,18Z" fill="#373737"/>
        <path id="Trazado_909879" data-name="Trazado 909879" d="M47.555,30.168a1,1,0,1,0-1.11,1.664l6,4a1,1,0,0,0,1.11-1.664Z" fill="#373737"/>
        <path id="Trazado_909880" data-name="Trazado 909880" d="M50,44a1,1,0,0,0,0-2H46a1,1,0,0,0,0,2Z" fill="#373737"/>
        <path id="Trazado_909881" data-name="Trazado 909881" d="M6.1,26.619a15.087,15.087,0,0,0,5.326,5.308c.027.019.043.047.072.063a.779.779,0,0,0,.1.041,14.89,14.89,0,0,0,14.8,0,.779.779,0,0,0,.1-.041c.029-.016.045-.044.072-.063a15.087,15.087,0,0,0,5.33-5.308.9.9,0,0,0,.092-.119c.013-.023.013-.049.024-.072a14.884,14.884,0,0,0,0-14.856.347.347,0,0,1-.026-.072c-.01-.023-.044-.045-.063-.071a15.083,15.083,0,0,0-5.355-5.356c-.027-.019-.043-.047-.072-.063s-.049-.013-.072-.025a14.889,14.889,0,0,0-14.855,0c-.024.012-.05.011-.073.025s-.045.044-.072.063a15.088,15.088,0,0,0-5.355,5.355c-.019.027-.047.043-.063.072a.672.672,0,0,0-.024.072,14.884,14.884,0,0,0,0,14.856c.011.023.011.049.024.072a.9.9,0,0,0,.09.119ZM11.657,8.283l.977,1.691a1,1,0,1,0,1.732-1l-.972-1.685A12.861,12.861,0,0,1,18,6.051V8a1,1,0,0,0,2,0V6.051a12.861,12.861,0,0,1,4.606,1.238l-.972,1.685a1,1,0,1,0,1.732,1l.977-1.691a13.1,13.1,0,0,1,3.374,3.374l-1.691.977a1,1,0,1,0,1,1.732l1.685-.972A12.861,12.861,0,0,1,31.949,18H30a1,1,0,0,0,0,2h1.949a12.861,12.861,0,0,1-1.238,4.606l-1.685-.972a1,1,0,1,0-1,1.732l1.691.977a13.1,13.1,0,0,1-3.374,3.374l-.977-1.691a1,1,0,1,0-1.732,1l.972,1.685A12.861,12.861,0,0,1,20,31.949V30a1,1,0,0,0-2,0v1.949a12.861,12.861,0,0,1-4.606-1.238l.972-1.685a1,1,0,1,0-1.732-1l-.977,1.691a13.1,13.1,0,0,1-3.374-3.374l1.691-.977a1,1,0,1,0-1-1.732l-1.685.972A12.861,12.861,0,0,1,6.051,20H8a1,1,0,0,0,0-2H6.051a12.861,12.861,0,0,1,1.238-4.606l1.685.972a1,1,0,1,0,1-1.732l-1.691-.977a13.1,13.1,0,0,1,3.374-3.374Z" fill="#373737"/>
      </g>
    </g>
  </g>
</svg>
