<svg xmlns="http://www.w3.org/2000/svg" xmlns:xlink="http://www.w3.org/1999/xlink" width="102.949" height="102.949" viewBox="0 0 102.949 102.949">
  <defs>
    <filter id="Trazado_874925" x="0" y="0" width="102.949" height="102.949" filterUnits="userSpaceOnUse">
      <feOffset dy="3" input="SourceAlpha"/>
      <feGaussianBlur stdDeviation="3" result="blur"/>
      <feFlood flood-opacity="0.161"/>
      <feComposite operator="in" in2="blur"/>
      <feComposite in="SourceGraphic"/>
    </filter>
  </defs>
  <g id="Grupo_1182015" data-name="Grupo 1182015" transform="translate(-536.576 -2093.771)">
    <g id="Grupo_1181788" data-name="Grupo 1181788" transform="translate(-262.924 -417.386)">
      <g id="Grupo_1111316" data-name="Grupo 1111316" transform="translate(808.5 2517.157)">
        <g id="Grupo_1109835" data-name="Grupo 1109835" transform="translate(0 0)">
          <g id="Grupo_1107913" data-name="Grupo 1107913" transform="translate(0 0)">
            <g transform="matrix(1, 0, 0, 1, -9, -6)" filter="url(#Trazado_874925)">
              <g id="Trazado_874925-2" data-name="Trazado 874925" transform="translate(9 6)" fill="#9ad354" opacity="0.859">
                <path d="M 42.47446823120117 83.44929504394531 C 36.94229125976562 83.44929504394531 31.57638549804688 82.36614227294922 26.52582168579102 80.22994232177734 C 21.64678573608398 78.16628265380859 17.26464462280273 75.211669921875 13.50113868713379 71.44816589355469 C 9.737632751464844 67.68466949462891 6.78300952911377 63.30253982543945 4.719362258911133 58.42351913452148 C 2.583150625228882 53.37295150756836 1.499997615814209 48.00706100463867 1.499997615814209 42.47489547729492 C 1.499997615814209 36.94223403930664 2.583150625228882 31.57634162902832 4.719362258911133 26.52577781677246 C 6.78300952911377 21.64675331115723 9.737632751464844 17.26462364196777 13.50113868713379 13.50113010406494 C 17.26464462280273 9.737624168395996 21.64678573608398 6.783012390136719 26.52582168579102 4.719353199005127 C 31.57638549804688 2.583153486251831 36.94229125976562 1.500000476837158 42.47446823120117 1.500000476837158 C 48.00664520263672 1.500000476837158 53.37255096435547 2.583153486251831 58.42311477661133 4.719353199005127 C 63.30215072631836 6.783012390136719 67.68428802490234 9.737624168395996 71.44779968261719 13.50113010406494 C 75.2113037109375 17.26462364196777 78.16592407226562 21.64675331115723 80.22957611083984 26.52577781677246 C 82.36578369140625 31.57634162902832 83.44893646240234 36.94223403930664 83.44893646240234 42.47439956665039 C 83.44893646240234 48.00706100463867 82.36578369140625 53.37295150756836 80.22957611083984 58.42351913452148 C 78.16592407226562 63.30253982543945 75.2113037109375 67.68466949462891 71.44779968261719 71.44816589355469 C 67.68428802490234 75.211669921875 63.30215072631836 78.16628265380859 58.42311477661133 80.22994232177734 C 53.37255096435547 82.36614227294922 48.00664520263672 83.44929504394531 42.47446823120117 83.44929504394531 Z" stroke="none"/>
                <path d="M 42.47446823120117 2.999992370605469 C 37.14412307739258 2.999992370605469 31.97481536865234 4.04327392578125 27.11014938354492 6.100860595703125 C 22.40990829467773 8.088890075683594 18.18804168701172 10.93555450439453 14.56179809570312 14.56178283691406 C 10.93557739257812 18.18801116943359 8.088897705078125 22.40987396240234 6.100868225097656 27.11009979248047 C 4.043281555175781 31.97476577758789 3 37.14406204223633 3 42.47488784790039 C 3 47.80522155761719 4.043281555175781 52.97451400756836 6.100868225097656 57.83917999267578 C 8.088897705078125 62.53940582275391 10.93557739257812 66.76127624511719 14.56179809570312 70.38749694824219 C 18.18804168701172 74.01372528076172 22.40990829467773 76.86039733886719 27.11014938354492 78.84841918945312 C 31.97481536865234 80.906005859375 37.14412307739258 81.94928741455078 42.47446823120117 81.94928741455078 C 47.80481338500977 81.94928741455078 52.97412109375 80.906005859375 57.83879089355469 78.84841918945312 C 62.53902816772461 76.86039733886719 66.76089477539062 74.01372528076172 70.38713073730469 70.38749694824219 C 74.01335906982422 66.76127624511719 76.86003875732422 62.53940582275391 78.84806823730469 57.83917999267578 C 80.90565490722656 52.97451400756836 81.94893646240234 47.80522155761719 81.94893646240234 42.47439575195312 C 81.94893646240234 37.14406204223633 80.90565490722656 31.97476577758789 78.84806823730469 27.11009979248047 C 76.86003875732422 22.40987396240234 74.01335906982422 18.18801116943359 70.38713073730469 14.56178283691406 C 66.76089477539062 10.93555450439453 62.53902816772461 8.088890075683594 57.83879089355469 6.100860595703125 C 52.97412109375 4.04327392578125 47.80481338500977 2.999992370605469 42.47446823120117 2.999992370605469 M 42.47446823120117 -7.62939453125e-06 C 65.93246459960938 -7.62939453125e-06 84.94893646240234 19.01643371582031 84.94893646240234 42.47439575195312 L 84.94893646240234 42.47488784790039 C 84.94893646240234 65.93284606933594 65.93246459960938 84.94928741455078 42.47446823120117 84.94928741455078 C 19.01647186279297 84.94928741455078 0 65.93284606933594 0 42.47488784790039 L 0 42.47439575195312 C 0 19.01643371582031 19.01647186279297 -7.62939453125e-06 42.47446823120117 -7.62939453125e-06 Z" stroke="none" fill="#fff"/>
              </g>
            </g>
            <g id="Trazado_874923" data-name="Trazado 874923" transform="translate(0 0)" fill="none">
              <path d="M42.474,0A42.474,42.474,0,0,1,84.949,42.474h0A42.474,42.474,0,0,1,0,42.475H0A42.474,42.474,0,0,1,42.474,0Z" stroke="none"/>
              <path d="M 42.47446823120117 2.999992370605469 C 37.14412307739258 2.999992370605469 31.97481536865234 4.04327392578125 27.11014938354492 6.100860595703125 C 22.40990829467773 8.088890075683594 18.18804168701172 10.93555450439453 14.56179809570312 14.56178283691406 C 10.93557739257812 18.18801116943359 8.088897705078125 22.40987396240234 6.100868225097656 27.11009979248047 C 4.043281555175781 31.97476577758789 3 37.14406204223633 3 42.47488784790039 C 3 47.80522155761719 4.043281555175781 52.97451400756836 6.100868225097656 57.83917999267578 C 8.088897705078125 62.53940582275391 10.93557739257812 66.76127624511719 14.56179809570312 70.38749694824219 C 18.18804168701172 74.01372528076172 22.40990829467773 76.86039733886719 27.11014938354492 78.84841918945312 C 31.97481536865234 80.906005859375 37.14412307739258 81.94928741455078 42.47446823120117 81.94928741455078 C 47.80481338500977 81.94928741455078 52.97412109375 80.906005859375 57.83879089355469 78.84841918945312 C 62.53902816772461 76.86039733886719 66.76089477539062 74.01372528076172 70.38713073730469 70.38749694824219 C 74.01335906982422 66.76127624511719 76.86003875732422 62.53940582275391 78.84806823730469 57.83917999267578 C 80.90565490722656 52.97451400756836 81.94893646240234 47.80522155761719 81.94893646240234 42.47439575195312 C 81.94893646240234 37.14406204223633 80.90565490722656 31.97476577758789 78.84806823730469 27.11009979248047 C 76.86003875732422 22.40987396240234 74.01335906982422 18.18801116943359 70.38713073730469 14.56178283691406 C 66.76089477539062 10.93555450439453 62.53902816772461 8.088890075683594 57.83879089355469 6.100860595703125 C 52.97412109375 4.04327392578125 47.80481338500977 2.999992370605469 42.47446823120117 2.999992370605469 M 42.47446823120117 -7.62939453125e-06 C 65.93246459960938 -7.62939453125e-06 84.94893646240234 19.01643371582031 84.94893646240234 42.47439575195312 L 84.94893646240234 42.47488784790039 C 84.94893646240234 65.93284606933594 65.93246459960938 84.94928741455078 42.47446823120117 84.94928741455078 C 19.01647186279297 84.94928741455078 0 65.93284606933594 0 42.47488784790039 L 0 42.47439575195312 C 0 19.01643371582031 19.01647186279297 -7.62939453125e-06 42.47446823120117 -7.62939453125e-06 Z" stroke="none" fill="#fff"/>
            </g>
          </g>
        </g>
      </g>
    </g>
    <g id="ventas" transform="translate(564.212 2114.212)">
      <path id="Trazado_909961" data-name="Trazado 909961" d="M240.841,164.189H233.5V138.551a2.93,2.93,0,0,1,2.93-2.93h1.485a2.929,2.929,0,0,1,2.93,2.93Zm0,0" transform="translate(-207.12 -120.559)" fill="#abebf4"/>
      <path id="Trazado_909962" data-name="Trazado 909962" d="M240.841,280.238a39.912,39.912,0,0,1-7.344,2.616v9.89h7.344Zm0,0" transform="translate(-207.12 -249.114)" fill="#8ed7e8"/>
      <path id="Trazado_909963" data-name="Trazado 909963" d="M145.985,218.991h-7.344V199.824a2.555,2.555,0,0,1,2.554-2.555h2.235a2.555,2.555,0,0,1,2.555,2.555Zm0,0" transform="translate(-122.799 -175.36)" fill="#b2e59c"/>
      <path id="Trazado_909964" data-name="Trazado 909964" d="M335.7,95.889h-7.344V66.306a2.911,2.911,0,0,1,2.911-2.911h1.522a2.911,2.911,0,0,1,2.911,2.911Zm0,0" transform="translate(-291.444 -56.354)" fill="#ffde55"/>
      <path id="Trazado_909965" data-name="Trazado 909965" d="M335.7,218.594a47.92,47.92,0,0,1-7.345,5.189v10.069H335.7Zm0,0" transform="translate(-291.441 -194.316)" fill="#ffcd00"/>
      <path id="Trazado_909966" data-name="Trazado 909966" d="M109.477,243.662l14.767-7.839a2.47,2.47,0,0,1,3.578,2.674,7.155,7.155,0,0,1-2.449,4.247l-1.514,1.226a1.027,1.027,0,0,0,.646,1.825l6.069,0a9.605,9.605,0,0,0,5.529-1.748l6.783-4.77a3.188,3.188,0,0,1,3.858,5.072l-8.884,7.3a9.6,9.6,0,0,1-3.813,1.908l-19.473,4.768Zm0,0" transform="translate(-96.874 -209.371)" fill="#ffe2d9"/>
      <path id="Trazado_909967" data-name="Trazado 909967" d="M117.658,303.688c-5.593-1.641-5.176-9.293-5.176-9.293l-3.005,1.6,5.1,14.666,14.843-3.634C126.29,306.152,121.259,304.744,117.658,303.688Zm0,0" transform="translate(-96.874 -261.698)" fill="#ffcfc2"/>
      <path id="Trazado_909968" data-name="Trazado 909968" d="M21.941,308.758l5.518,14.727a4.3,4.3,0,0,1-3.075,5.7l-5.277,1.2a4.3,4.3,0,0,1-5.116-3.113L11.148,316.34a4.431,4.431,0,0,1,3.071-5.375Zm0,0" transform="translate(-9.339 -274.466)" fill="#8ed7e8"/>
      <path id="Trazado_909969" data-name="Trazado 909969" d="M27.459,336.541l-.86-2.3a14.231,14.231,0,0,0-6.527-1.156,4.315,4.315,0,0,1-4.505-4.445,29.784,29.784,0,0,1,.666-5.2l-2.014.575a4.432,4.432,0,0,0-3.071,5.376l2.842,10.934a4.3,4.3,0,0,0,5.116,3.113l5.277-1.2A4.3,4.3,0,0,0,27.459,336.541Zm0,0" transform="translate(-9.339 -287.523)" fill="#7ac1dd"/>
      <path id="Trazado_909970" data-name="Trazado 909970" d="M76.717,429.187a2.449,2.449,0,1,1-2.449-2.449A2.449,2.449,0,0,1,76.717,429.187Zm0,0" transform="translate(-63.4 -379.344)" fill="#ffeb99"/>
      <path id="Trazado_909971" data-name="Trazado 909971" d="M38.475,7.5H31.815a1.729,1.729,0,1,0,0,3.459h2.37l-6.947,6.687-3.294-1.7a1.73,1.73,0,0,0-2.022.318L8.489,29.8a1.729,1.729,0,0,0,2.455,2.436L23.484,19.6l3.267,1.69A1.73,1.73,0,0,0,28.744,21l8-7.7v2.654a1.729,1.729,0,1,0,3.459,0V9.229s0,0,0-.005A1.6,1.6,0,0,0,38.475,7.5Zm0,0" transform="translate(-6.657 -6.667)" fill="#97f7e5"/>
      <path id="Trazado_909972" data-name="Trazado 909972" d="M53.389,79.394c-2.613-2.6-5.633-.167-5.633-.167V65.533a.833.833,0,1,0-1.666,0V80.4a45.4,45.4,0,0,1-5.679,3.9V59.639a2.081,2.081,0,0,1,2.079-2.079h1.522a2.081,2.081,0,0,1,2.079,2.079v2.485a.833.833,0,0,0,1.666,0V59.639a3.748,3.748,0,0,0-3.744-3.744H42.489a3.748,3.748,0,0,0-3.744,3.744V84.956a8.746,8.746,0,0,1-1.525.284V67.679a3.767,3.767,0,0,0-3.763-3.763H31.972a3.767,3.767,0,0,0-3.763,3.763v8.487l-1.525.81V74.151A3.392,3.392,0,0,0,23.3,70.763H21.062a3.391,3.391,0,0,0-3.387,3.388v7.607L14.955,83.2,7.318,85.384a5.264,5.264,0,0,0-3.648,6.386l.854,3.287a.833.833,0,0,0,1.612-.419L5.282,91.35a3.577,3.577,0,0,1,2.494-4.365l6.983-2L20.006,99a3.731,3.731,0,0,1-2.48,4.6l-5.277,1.2a3.454,3.454,0,0,1-4.126-2.51L7.052,98.163a.833.833,0,0,0-1.613.419L6.511,102.7a5.108,5.108,0,0,0,4.949,3.846,40.853,40.853,0,0,0,6.435-1.329,5.133,5.133,0,0,0,3.886-6.067l18.256-4.469a10.5,10.5,0,0,0,4.144-2.074l8.884-7.3A3.951,3.951,0,0,0,53.389,79.394ZM31.972,65.582h1.485a2.1,2.1,0,0,1,2.1,2.1v17.6l-5.256,0c-.483,0-.148-.323-.122-.345l1.514-1.226A7.915,7.915,0,0,0,34.43,78.98a3.3,3.3,0,0,0-4.555-3.687V67.679A2.1,2.1,0,0,1,31.972,65.582ZM19.341,74.151a1.724,1.724,0,0,1,1.721-1.722H23.3a1.724,1.724,0,0,1,1.722,1.722v3.708l-5.679,3.014Zm32.668,9.874-8.884,7.3a8.824,8.824,0,0,1-3.483,1.743l-18.39,4.5L16.3,84.371l14.121-7.5A1.637,1.637,0,0,1,32.8,78.647a6.3,6.3,0,0,1-2.157,3.766L29.127,83.64a1.86,1.86,0,0,0,1.17,3.3l6.069,0h0a10.387,10.387,0,0,0,6-1.9l6.782-4.77a2.347,2.347,0,0,1,3.04.28A2.312,2.312,0,0,1,52.008,84.025Zm0,0" transform="translate(-2.666 -49.687)"/>
      <path id="Trazado_909973" data-name="Trazado 909973" d="M70.883,422.52A3.282,3.282,0,1,0,67.6,425.8,3.286,3.286,0,0,0,70.883,422.52Zm-4.9,0a1.616,1.616,0,1,1,1.616,1.616A1.618,1.618,0,0,1,65.986,422.52Zm0,0" transform="translate(-56.733 -372.677)"/>
      <path id="Trazado_909974" data-name="Trazado 909974" d="M4.879,26.153l12.108-12.2,2.723,1.409a2.562,2.562,0,0,0,2.954-.43l6.591-6.344s-.181,3.259,2.563,3.259a2.566,2.566,0,0,0,2.562-2.563V2.562c0-.008,0-.016,0-.024A2.425,2.425,0,0,0,31.819,0H25.158A2.565,2.565,0,0,0,22.6,2.562c0,2.816,2.866,2.562,2.866,2.562l-5.028,4.84L17.671,8.535a2.552,2.552,0,0,0-3,.471L1.241,22.543a2.565,2.565,0,0,0,.014,3.624A2.526,2.526,0,0,0,4.879,26.153ZM2.423,23.717,15.857,10.18a.757.757,0,0,1,1.048-.164l3.293,1.7a.833.833,0,0,0,.961-.14l6.947-6.687a.833.833,0,0,0-.577-1.433h-2.37a.9.9,0,0,1,0-1.793h6.661a.783.783,0,0,1,.9.891c0,.007,0,.015,0,.023v6.7a.9.9,0,1,1-1.793,0V6.628a.833.833,0,0,0-1.411-.6l-8,7.7a.9.9,0,0,1-1.033.151l-3.267-1.69a.834.834,0,0,0-.974.153L3.7,24.98a.859.859,0,0,1-1.268,0A.9.9,0,0,1,2.423,23.717Zm0,0" transform="translate(0)"/>
    </g>
  </g>
</svg>
