<svg xmlns="http://www.w3.org/2000/svg" xmlns:xlink="http://www.w3.org/1999/xlink" width="102.949" height="102.949" viewBox="0 0 102.949 102.949">
  <defs>
    <filter id="Trazado_874925" x="0" y="0" width="102.949" height="102.949" filterUnits="userSpaceOnUse">
      <feOffset dy="3" input="SourceAlpha"/>
      <feGaussianBlur stdDeviation="3" result="blur"/>
      <feFlood flood-opacity="0.161"/>
      <feComposite operator="in" in2="blur"/>
      <feComposite in="SourceGraphic"/>
    </filter>
  </defs>
  <g id="Grupo_1182014" data-name="Grupo 1182014" transform="translate(-958.576 -1713.771)">
    <g id="Grupo_1181787" data-name="Grupo 1181787" transform="translate(159.076 -797.386)">
      <g id="Grupo_1111316" data-name="Grupo 1111316" transform="translate(808.5 2517.157)">
        <g id="Grupo_1109835" data-name="Grupo 1109835" transform="translate(0 0)">
          <g id="Grupo_1107913" data-name="Grupo 1107913" transform="translate(0 0)">
            <g transform="matrix(1, 0, 0, 1, -9, -6)" filter="url(#Trazado_874925)">
              <g id="Trazado_874925-2" data-name="Trazado 874925" transform="translate(9 6)" fill="#9ad354" opacity="0.859">
                <path d="M 42.47446823120117 83.44929504394531 C 36.94229125976562 83.44929504394531 31.57638549804688 82.36614227294922 26.52582168579102 80.22994232177734 C 21.64678573608398 78.16628265380859 17.26464462280273 75.211669921875 13.50113868713379 71.44816589355469 C 9.737632751464844 67.68466949462891 6.78300952911377 63.30253982543945 4.719362258911133 58.42351913452148 C 2.583150625228882 53.37295150756836 1.499997615814209 48.00706100463867 1.499997615814209 42.47489547729492 C 1.499997615814209 36.94223403930664 2.583150625228882 31.57634162902832 4.719362258911133 26.52577781677246 C 6.78300952911377 21.64675331115723 9.737632751464844 17.26462364196777 13.50113868713379 13.50113010406494 C 17.26464462280273 9.737624168395996 21.64678573608398 6.783012390136719 26.52582168579102 4.719353199005127 C 31.57638549804688 2.583153486251831 36.94229125976562 1.500000476837158 42.47446823120117 1.500000476837158 C 48.00664520263672 1.500000476837158 53.37255096435547 2.583153486251831 58.42311477661133 4.719353199005127 C 63.30215072631836 6.783012390136719 67.68428802490234 9.737624168395996 71.44779968261719 13.50113010406494 C 75.2113037109375 17.26462364196777 78.16592407226562 21.64675331115723 80.22957611083984 26.52577781677246 C 82.36578369140625 31.57634162902832 83.44893646240234 36.94223403930664 83.44893646240234 42.47439956665039 C 83.44893646240234 48.00706100463867 82.36578369140625 53.37295150756836 80.22957611083984 58.42351913452148 C 78.16592407226562 63.30253982543945 75.2113037109375 67.68466949462891 71.44779968261719 71.44816589355469 C 67.68428802490234 75.211669921875 63.30215072631836 78.16628265380859 58.42311477661133 80.22994232177734 C 53.37255096435547 82.36614227294922 48.00664520263672 83.44929504394531 42.47446823120117 83.44929504394531 Z" stroke="none"/>
                <path d="M 42.47446823120117 2.999992370605469 C 37.14412307739258 2.999992370605469 31.97481536865234 4.04327392578125 27.11014938354492 6.100860595703125 C 22.40990829467773 8.088890075683594 18.18804168701172 10.93555450439453 14.56179809570312 14.56178283691406 C 10.93557739257812 18.18801116943359 8.088897705078125 22.40987396240234 6.100868225097656 27.11009979248047 C 4.043281555175781 31.97476577758789 3 37.14406204223633 3 42.47488784790039 C 3 47.80522155761719 4.043281555175781 52.97451400756836 6.100868225097656 57.83917999267578 C 8.088897705078125 62.53940582275391 10.93557739257812 66.76127624511719 14.56179809570312 70.38749694824219 C 18.18804168701172 74.01372528076172 22.40990829467773 76.86039733886719 27.11014938354492 78.84841918945312 C 31.97481536865234 80.906005859375 37.14412307739258 81.94928741455078 42.47446823120117 81.94928741455078 C 47.80481338500977 81.94928741455078 52.97412109375 80.906005859375 57.83879089355469 78.84841918945312 C 62.53902816772461 76.86039733886719 66.76089477539062 74.01372528076172 70.38713073730469 70.38749694824219 C 74.01335906982422 66.76127624511719 76.86003875732422 62.53940582275391 78.84806823730469 57.83917999267578 C 80.90565490722656 52.97451400756836 81.94893646240234 47.80522155761719 81.94893646240234 42.47439575195312 C 81.94893646240234 37.14406204223633 80.90565490722656 31.97476577758789 78.84806823730469 27.11009979248047 C 76.86003875732422 22.40987396240234 74.01335906982422 18.18801116943359 70.38713073730469 14.56178283691406 C 66.76089477539062 10.93555450439453 62.53902816772461 8.088890075683594 57.83879089355469 6.100860595703125 C 52.97412109375 4.04327392578125 47.80481338500977 2.999992370605469 42.47446823120117 2.999992370605469 M 42.47446823120117 -7.62939453125e-06 C 65.93246459960938 -7.62939453125e-06 84.94893646240234 19.01643371582031 84.94893646240234 42.47439575195312 L 84.94893646240234 42.47488784790039 C 84.94893646240234 65.93284606933594 65.93246459960938 84.94928741455078 42.47446823120117 84.94928741455078 C 19.01647186279297 84.94928741455078 0 65.93284606933594 0 42.47488784790039 L 0 42.47439575195312 C 0 19.01643371582031 19.01647186279297 -7.62939453125e-06 42.47446823120117 -7.62939453125e-06 Z" stroke="none" fill="#fff"/>
              </g>
            </g>
            <g id="Trazado_874923" data-name="Trazado 874923" transform="translate(0 0)" fill="none">
              <path d="M42.474,0A42.474,42.474,0,0,1,84.949,42.474h0A42.474,42.474,0,0,1,0,42.475H0A42.474,42.474,0,0,1,42.474,0Z" stroke="none"/>
              <path d="M 42.47446823120117 2.999992370605469 C 37.14412307739258 2.999992370605469 31.97481536865234 4.04327392578125 27.11014938354492 6.100860595703125 C 22.40990829467773 8.088890075683594 18.18804168701172 10.93555450439453 14.56179809570312 14.56178283691406 C 10.93557739257812 18.18801116943359 8.088897705078125 22.40987396240234 6.100868225097656 27.11009979248047 C 4.043281555175781 31.97476577758789 3 37.14406204223633 3 42.47488784790039 C 3 47.80522155761719 4.043281555175781 52.97451400756836 6.100868225097656 57.83917999267578 C 8.088897705078125 62.53940582275391 10.93557739257812 66.76127624511719 14.56179809570312 70.38749694824219 C 18.18804168701172 74.01372528076172 22.40990829467773 76.86039733886719 27.11014938354492 78.84841918945312 C 31.97481536865234 80.906005859375 37.14412307739258 81.94928741455078 42.47446823120117 81.94928741455078 C 47.80481338500977 81.94928741455078 52.97412109375 80.906005859375 57.83879089355469 78.84841918945312 C 62.53902816772461 76.86039733886719 66.76089477539062 74.01372528076172 70.38713073730469 70.38749694824219 C 74.01335906982422 66.76127624511719 76.86003875732422 62.53940582275391 78.84806823730469 57.83917999267578 C 80.90565490722656 52.97451400756836 81.94893646240234 47.80522155761719 81.94893646240234 42.47439575195312 C 81.94893646240234 37.14406204223633 80.90565490722656 31.97476577758789 78.84806823730469 27.11009979248047 C 76.86003875732422 22.40987396240234 74.01335906982422 18.18801116943359 70.38713073730469 14.56178283691406 C 66.76089477539062 10.93555450439453 62.53902816772461 8.088890075683594 57.83879089355469 6.100860595703125 C 52.97412109375 4.04327392578125 47.80481338500977 2.999992370605469 42.47446823120117 2.999992370605469 M 42.47446823120117 -7.62939453125e-06 C 65.93246459960938 -7.62939453125e-06 84.94893646240234 19.01643371582031 84.94893646240234 42.47439575195312 L 84.94893646240234 42.47488784790039 C 84.94893646240234 65.93284606933594 65.93246459960938 84.94928741455078 42.47446823120117 84.94928741455078 C 19.01647186279297 84.94928741455078 0 65.93284606933594 0 42.47488784790039 L 0 42.47439575195312 C 0 19.01643371582031 19.01647186279297 -7.62939453125e-06 42.47446823120117 -7.62939453125e-06 Z" stroke="none" fill="#fff"/>
            </g>
          </g>
        </g>
      </g>
    </g>
    <g id="huerta" transform="translate(982.401 1735.264)">
      <g id="Grupo_1182012" data-name="Grupo 1182012" transform="translate(1.844 1.844)">
        <g id="Grupo_1181991" data-name="Grupo 1181991" transform="translate(34.585 45.551)">
          <path id="Trazado_909939" data-name="Trazado 909939" d="M59.027,61.061H43l.177-.354a5.486,5.486,0,0,1,4.884-3.02l.194-.194a5.147,5.147,0,0,1,1.122-.844,5.061,5.061,0,0,1,2.48-.65c.143,0,.278.008.422.017a5.112,5.112,0,0,1,3.18,1.476l.194.194a3.37,3.37,0,0,1,3.374,3.374Z" transform="translate(-43 -56)" fill="#cf9e76"/>
        </g>
        <g id="Grupo_1181992" data-name="Grupo 1181992" transform="translate(32.384 33.743)">
          <path id="Trazado_909940" data-name="Trazado 909940" d="M43.157,43.164l2.134,6.166-2.134,1.223-2.716-3.8a2.342,2.342,0,0,0,.574-.422,2.512,2.512,0,0,0,.734-1.78,2.573,2.573,0,0,0-1.358-2.227v-.008l.641-.219a1.675,1.675,0,0,1,2.126,1.071Z" transform="translate(-40.39 -42.001)" fill="#aab2bd"/>
        </g>
        <g id="Grupo_1181993" data-name="Grupo 1181993" transform="translate(33.742 40.495)">
          <path id="Trazado_909941" data-name="Trazado 909941" d="M46.361,50.111a.791.791,0,0,1,.7-.042.769.769,0,0,1,.447.481l1.712,5.162a5.147,5.147,0,0,0-1.122.844l-.194.194a5.387,5.387,0,0,0-2.893.835l-2.86-4.032a.8.8,0,0,1,.253-1.164l1-.582,2.134-1.223Z" transform="translate(-42.001 -50.006)" fill="#ccd1d9"/>
        </g>
        <g id="Grupo_1181994" data-name="Grupo 1181994" transform="translate(25.306 47.238)">
          <path id="Trazado_909942" data-name="Trazado 909942" d="M38.4,59.341a1.193,1.193,0,0,1-.844,2.033H33.687A1.692,1.692,0,0,1,32,59.687V58h5.061Z" transform="translate(-32 -58)" fill="#969faa"/>
        </g>
        <g id="Grupo_1181995" data-name="Grupo 1181995" transform="translate(19.115 26.993)">
          <path id="Trazado_909943" data-name="Trazado 909943" d="M34.074,39.508,24.66,35.738A5.407,5.407,0,0,1,28.6,34h.025a5.391,5.391,0,0,1,3.56,1.341l.008.008a5.389,5.389,0,0,1,1.78,3.374Z" transform="translate(-24.66 -34)" fill="#d3a06c"/>
        </g>
        <g id="Grupo_1181996" data-name="Grupo 1181996" transform="translate(6.748 33.269)">
          <path id="Trazado_909944" data-name="Trazado 909944" d="M26.8,51.309l-1.763,2.8a8.047,8.047,0,0,1-2.952,2.809A8.141,8.141,0,0,1,10,49.8V45.287h6.537l2.649-3.847,11.4,4.639.616.253a8.519,8.519,0,0,0,1.341.422l1.08,8.655H28.558Z" transform="translate(-10 -41.44)" fill="#d3a06c"/>
        </g>
        <g id="Grupo_1181997" data-name="Grupo 1181997" transform="translate(14.416 23.754)">
          <path id="Trazado_909945" data-name="Trazado 909945" d="M19.09,30.16,27.728,33.4a5.407,5.407,0,0,0-3.939,1.738l-2.3-.919a6.163,6.163,0,0,0-2.4-4.057Z" transform="translate(-19.09 -30.16)" fill="#fcd770"/>
        </g>
        <g id="Grupo_1181998" data-name="Grupo 1181998" transform="translate(6.748 21.932)">
          <path id="Trazado_909946" data-name="Trazado 909946" d="M31.78,38.57l.717.287-1.915,5.12-11.4-4.639-5.8-2.37a5.443,5.443,0,0,1-3.374-4.749C10,32.125,10,32.032,10,31.939a5.44,5.44,0,0,1,1.594-3.847L11.687,28l3.475.692a5.681,5.681,0,0,1,.742.2,5.879,5.879,0,0,1,1.763.928,6.163,6.163,0,0,1,2.4,4.057l2.3.919Z" transform="translate(-10 -28)" fill="#fcd770"/>
        </g>
        <g id="Grupo_1181999" data-name="Grupo 1181999" transform="translate(6.748 26.15)">
          <path id="Trazado_909947" data-name="Trazado 909947" d="M10.928,35.75a5.409,5.409,0,0,0,2.455,2l5.8,2.37-2.649,3.847H10V33h.008A5.4,5.4,0,0,0,10.928,35.75Z" transform="translate(-10 -33)" fill="#fcd770"/>
        </g>
        <g id="Grupo_1182000" data-name="Grupo 1182000" transform="translate(26.647 28.343)">
          <path id="Trazado_909948" data-name="Trazado 909948" d="M38.71,41.049l-2.522-1-.717-.287-.1-.784A5.389,5.389,0,0,0,33.59,35.6l3.534,1.324A2.873,2.873,0,0,1,39,39.624v.186A2.873,2.873,0,0,1,38.71,41.049Z" transform="translate(-33.59 -35.6)" fill="#f0d0b4"/>
        </g>
        <g id="Grupo_1182001" data-name="Grupo 1182001" transform="translate(27.331 32.788)">
          <path id="Trazado_909949" data-name="Trazado 909949" d="M38.837,41.874l.4.16a1.773,1.773,0,0,1,.219.11,2.573,2.573,0,0,1,1.358,2.227,2.512,2.512,0,0,1-.734,1.78,2.342,2.342,0,0,1-.574.422,2.423,2.423,0,0,1-1.206.312,8.771,8.771,0,0,1-1.94-.219,8.518,8.518,0,0,1-1.341-.422L34.4,45.99l1.915-5.12Z" transform="translate(-34.4 -40.87)" fill="#f0d0b4"/>
        </g>
        <g id="Grupo_1182002" data-name="Grupo 1182002" transform="translate(3.374 0)">
          <path id="Trazado_909950" data-name="Trazado 909950" d="M19.657,2.641l1.527,6.107H6L7.527,2.641A.839.839,0,0,1,8.345,2H18.839a.839.839,0,0,1,.818.641Z" transform="translate(-6 -2)" fill="#cf9e76"/>
        </g>
        <g id="Grupo_1182003" data-name="Grupo 1182003" transform="translate(0 6.748)">
          <path id="Trazado_909951" data-name="Trazado 909951" d="M23.932,10.844v1.687a.846.846,0,0,1-.844.844H2.844A.846.846,0,0,1,2,12.531V10.844A.846.846,0,0,1,2.844,10H23.089A.846.846,0,0,1,23.932,10.844Z" transform="translate(-2 -10)" fill="#d3a06c"/>
        </g>
        <g id="Grupo_1182004" data-name="Grupo 1182004" transform="translate(2.531 10.122)">
          <path id="Trazado_909952" data-name="Trazado 909952" d="M9.218,19.061A1.7,1.7,0,0,0,10.9,20.748v2.531A9.743,9.743,0,0,1,5,14.321V14h5.9v3.374a1.7,1.7,0,0,0-1.687,1.687Z" transform="translate(-5 -14)" fill="#656d78"/>
        </g>
        <g id="Grupo_1182005" data-name="Grupo 1182005" transform="translate(6.748 10.122)">
          <path id="Trazado_909953" data-name="Trazado 909953" d="M15.9,26.7a5.682,5.682,0,0,0-.742-.2l-3.475-.692V20.748a1.687,1.687,0,0,1,0-3.374V14h8.435v2.674a1.692,1.692,0,0,0,.5,1.2l.844.844a1.193,1.193,0,0,1-.844,2.033h-.5v2.075a2.981,2.981,0,0,1-2.986,2.986,7.355,7.355,0,0,1-1.232-.27Z" transform="translate(-10 -14)" fill="#f0d0b4"/>
        </g>
        <g id="Grupo_1182006" data-name="Grupo 1182006" transform="translate(43.864 33.742)">
          <path id="Trazado_909954" data-name="Trazado 909954" d="M60.748,43.687a5.065,5.065,0,0,1-5.061,5.061H54V47.061A5.065,5.065,0,0,1,59.061,42h1.687Z" transform="translate(-54 -42)" fill="#b4dd7f"/>
        </g>
        <g id="Grupo_1182007" data-name="Grupo 1182007" transform="translate(35.429 26.993)">
          <path id="Trazado_909955" data-name="Trazado 909955" d="M52.435,42.435H50.748A6.745,6.745,0,0,1,44,35.687V34h1.687a6.95,6.95,0,0,1,1.687.211,6.753,6.753,0,0,1,5.061,6.537Z" transform="translate(-44 -34)" fill="#b4dd7f"/>
        </g>
        <g id="Grupo_1182008" data-name="Grupo 1182008" transform="translate(25.306)">
          <path id="Trazado_909956" data-name="Trazado 909956" d="M55.923,13.422l-.3-.456V11.734a2.965,2.965,0,0,0-1.721-2.7V9.027a4.975,4.975,0,0,0-4.125-4.344l-.9-.152A5.709,5.709,0,0,0,44.139,2h-.506a5.675,5.675,0,0,0-4.015,1.662l-.025.025-.784.194a4.863,4.863,0,0,0-3.433,3.18l-.456.11A3.824,3.824,0,0,0,32,10.882v.051a3.886,3.886,0,0,0,.658,2.176l1.029,1.544-.953,1.426A4.353,4.353,0,0,0,32,18.508v.051a4.575,4.575,0,0,0,2.539,4.108c.481.245.835.422.835.422l.97.97a5.338,5.338,0,0,0,3.771,1.561h2.008l3.374.844,2.809-1.687a5.964,5.964,0,0,1,3.054-.844,5.962,5.962,0,0,0,5.947-5.947,8.243,8.243,0,0,0-1.383-4.564Z" transform="translate(-32 -2)" fill="#b4dd7f"/>
        </g>
        <g id="Grupo_1182009" data-name="Grupo 1182009" transform="translate(42.177 13.497)">
          <circle id="Elipse_11636" data-name="Elipse 11636" cx="2.5" cy="2.5" r="2.5" transform="translate(-0.021 -0.04)" fill="#ff826e"/>
        </g>
        <g id="Grupo_1182010" data-name="Grupo 1182010" transform="translate(32.055 5.061)">
          <circle id="Elipse_11637" data-name="Elipse 11637" cx="2.5" cy="2.5" r="2.5" transform="translate(0.102 0.395)" fill="#ff826e"/>
        </g>
        <g id="Grupo_1182011" data-name="Grupo 1182011" transform="translate(28.68 13.497)">
          <circle id="Elipse_11638" data-name="Elipse 11638" cx="2.5" cy="2.5" r="2.5" transform="translate(0.476 -0.04)" fill="#ff826e"/>
        </g>
      </g>
      <g id="Grupo_1182013" data-name="Grupo 1182013" transform="translate(1 1)">
        <circle id="Elipse_11639" data-name="Elipse 11639" cx="1" cy="1" r="1" transform="translate(13 13.3)"/>
        <path id="Trazado_909957" data-name="Trazado 909957" d="M46.551,36.522v-.937a7.6,7.6,0,0,0-5.061-7.149V26.784l2.4-1.437a5.1,5.1,0,0,1,2.624-.727A6.8,6.8,0,0,0,53.3,17.83a9.031,9.031,0,0,0-1.523-5.03l-.164-.246v-.98a3.828,3.828,0,0,0-1.792-3.239A5.848,5.848,0,0,0,45.06,3.692L44.5,3.6A6.508,6.508,0,0,0,39.293,1h-.509a6.488,6.488,0,0,0-4.465,1.767l-.568.143A5.672,5.672,0,0,0,29.894,6.19l-.024.006a4.667,4.667,0,0,0-3.563,4.58,4.746,4.746,0,0,0,.8,2.645l.718,1.075-.638.957a5.249,5.249,0,0,0-.879,2.952,5.4,5.4,0,0,0,3,4.862l.717.359.873.873a6.129,6.129,0,0,0,4.362,1.807h1.908l2.634.659v1.078a7.537,7.537,0,0,0-.844-.05H36.429v2.531A7.588,7.588,0,0,0,39.8,36.832v4.756a1.554,1.554,0,0,0-.211.093l-1.805-5.205a2.567,2.567,0,0,0-1.31-1.486,2.45,2.45,0,0,0-1.788-.132,3.584,3.584,0,0,0,.053-.464v-.186a3.742,3.742,0,0,0-2.416-3.487l-3.432-1.287A6.206,6.206,0,0,0,25.073,28l-8.467-3.175c-.125-.089-.254-.174-.385-.256a3.817,3.817,0,0,0,3.337-3.776V19.528a2.037,2.037,0,0,0,1.091-3.447l-.844-.844a.848.848,0,0,1-.247-.6V12.81h3.374a1.689,1.689,0,0,0,1.687-1.687V9.435a1.689,1.689,0,0,0-1.687-1.687H21.059l-1.367-5.47A1.683,1.683,0,0,0,18.056,1H7.564A1.683,1.683,0,0,0,5.927,2.279L4.56,7.748H2.687A1.689,1.689,0,0,0,1,9.435v1.687A1.689,1.689,0,0,0,2.687,12.81H3.55a10.562,10.562,0,0,0,5.885,8.969v1.653a6.233,6.233,0,0,0-1.687,4.282c0,.094.017.186.021.28H7.748V43.471a8.984,8.984,0,0,0,16.6,4.762l.9-1.44,1.055,2.461v1.514a2.5,2.5,0,0,0,.155.844H22.932V53.3H53.3v-.844a4.223,4.223,0,0,0-3.852-4.2,5.894,5.894,0,0,0-2.9-1.564V43.177h.844a5.912,5.912,0,0,0,5.9-5.9V34.742H50.769a5.882,5.882,0,0,0-4.218,1.781ZM37.476,24.644l-2.216-.025a4.454,4.454,0,0,1-3.17-1.313l-1.067-1.068-.962-.48a3.746,3.746,0,0,1-2.068-3.405,3.525,3.525,0,0,1,.6-1.964L29.851,14.5l-1.343-2.013a3.107,3.107,0,0,1-.515-1.755,2.972,2.972,0,0,1,2.273-2.9l.909-.22.148-.443A4,4,0,0,1,34.16,4.545l.787-.2L35.2,4.27l.164-.165a4.811,4.811,0,0,1,3.423-1.418h.509a4.828,4.828,0,0,1,4.026,2.155l.2.3,1.262.21a4.154,4.154,0,0,1,3.095,2.393,3.741,3.741,0,0,0-2.8,1.119l-.567.567H44.37a3.7,3.7,0,0,0-2.633,1.091l1.193,1.193a2.024,2.024,0,0,1,1.44-.6h.844l1.061-1.061a2.139,2.139,0,0,1,3.651,1.512v1.491l.447.671a7.351,7.351,0,0,1,1.24,4.095,5.107,5.107,0,0,1-5.1,5.1,6.8,6.8,0,0,0-3.493.967l-1.528.918v-.692l2.283-2.283-1.193-1.193L41.49,21.739V16.465l2.362-3.149L42.5,12.3l-2.051,2.736-1.867-1.244-.935,1.4L39.8,16.635V22.2l-1.219-.812-.935,1.4L39.8,24.228v1Zm.639,5.879V29.68h.844a5.908,5.908,0,0,1,5.886,5.537l-3.6-3.6L40.05,32.807l3.6,3.6A5.908,5.908,0,0,1,38.116,30.524Zm.726,18.3L36.407,45.45l3.889-2.3,1.5,4.542a6.063,6.063,0,0,0-.669.558,6.294,6.294,0,0,0-2.288.571Zm-.741-6.29-.864.5-1.8-2.517a3.346,3.346,0,0,0,.989-2.377,3.4,3.4,0,0,0-.055-.582Zm-7.849-3.255,1.327-3.539,2.111.844a1.671,1.671,0,0,1-.619,3.223A7.83,7.83,0,0,1,30.252,39.274Zm2.8-5.067v.186c0,.037-.01.073-.013.111l-1.9-.759-.036-.291a6.2,6.2,0,0,0-.4-1.537l1.026.385A2.045,2.045,0,0,1,33.055,34.207ZM29.287,33,22.6,30.325A4.524,4.524,0,0,1,29.287,33Zm-9.91-3.964a6.977,6.977,0,0,0-.519-1.564l3.232,1.212a6.215,6.215,0,0,0-1.329.906Zm-.765-12.606.844.844a.35.35,0,0,1-.247.6H17.871v1.687h-.494a2.023,2.023,0,0,1-1.44-.6l-1.193,1.193a3.7,3.7,0,0,0,2.633,1.091h.444a2.138,2.138,0,0,1-3.6,1.061l-.814-.814-1.193,1.193.772.772-1.862-.373V17.871h-.844a.844.844,0,1,1,0-1.687h.844V12.81h6.748v1.832a2.515,2.515,0,0,0,.741,1.789ZM11.59,7.748,10.682,6.3l.99-1.981,1.295,2.073-.679,1.36ZM9.634,4.62,8.427,2.687H10.6Zm3.01-1.933h2.175L13.852,4.62Zm3.163,5.061L14.9,6.3l.99-1.981,2.146,3.432Zm2.249-5.061.8,3.184L16.862,2.687ZM7.241,3.974,8.75,6.388l-.68,1.361H6.3ZM2.687,9.435H22.932l0,1.687H2.687Zm2.55,3.374h4.2v1.831a2.531,2.531,0,0,0,0,4.773v.445A8.883,8.883,0,0,1,5.237,12.81ZM10.59,24.7l3,.6a5.336,5.336,0,0,1,3.761,2.928L14.81,27.211l-.626,1.566,15.829,6.332-1.326,3.535L12.294,31.966a4.563,4.563,0,0,1-1.7-7.267Zm4.1,13.417H9.435V31.994a6.283,6.283,0,0,0,2.223,1.534l4.829,1.967Zm11.373,6.278a7.323,7.323,0,0,1-.6-2.9H23.776a8.988,8.988,0,0,0,.672,3.406l-1.527,2.443A7.3,7.3,0,0,1,9.435,43.471V39.8h4.09l-1.411,2.053,1.39.956,4.582-6.665,11.386,4.639c.293.12.59.223.891.312l.892,7.141H27.707Zm6.152,7.218H28.837a.844.844,0,0,1-.844-.844v-.844h3.868l1.092,1.091a.35.35,0,0,1-.247.6Zm3.7,0h-1.2a1.984,1.984,0,0,0,.035-.349,2.05,2.05,0,0,0-.6-1.44L33.012,48.69l-.906-7.25a9.634,9.634,0,0,0,.964.051,3.331,3.331,0,0,0,.9-.137l1.8,2.52-.2.116a1.648,1.648,0,0,0-.52,2.38l2.377,3.351A6.317,6.317,0,0,0,35.909,51.612Zm12.824-1.687h.349a2.536,2.536,0,0,1,2.386,1.687H37.92a4.586,4.586,0,0,1,3.57-1.687h.349l.443-.443a4.248,4.248,0,0,1,6.008,0Zm-3.868-3.354a5.9,5.9,0,0,0-1.551.321L41.9,42.619a1.644,1.644,0,0,0-.408-.652V37.673a7.538,7.538,0,0,0,2.531.443h.844v8.456Zm6.748-9.3a4.208,4.208,0,0,1-3.829,4.178l2.738-2.738-1.193-1.193-2.738,2.738a4.208,4.208,0,0,1,4.178-3.829h.844Z" transform="translate(-1 -1)"/>
        <path id="Trazado_909958" data-name="Trazado 909958" d="M54.374,23.748A3.374,3.374,0,1,0,51,20.374,3.378,3.378,0,0,0,54.374,23.748Zm0-5.061a1.687,1.687,0,1,1-1.687,1.687A1.689,1.689,0,0,1,54.374,18.687Z" transform="translate(-8.823 -3.503)"/>
        <path id="Trazado_909959" data-name="Trazado 909959" d="M38.374,17a3.374,3.374,0,1,0,3.374,3.374A3.378,3.378,0,0,0,38.374,17Zm0,5.061a1.687,1.687,0,1,1,1.687-1.687A1.689,1.689,0,0,1,38.374,22.061Z" transform="translate(-6.32 -3.503)"/>
        <path id="Trazado_909960" data-name="Trazado 909960" d="M45.748,10.374a3.374,3.374,0,1,0-3.374,3.374A3.378,3.378,0,0,0,45.748,10.374Zm-3.374,1.687a1.687,1.687,0,1,1,1.687-1.687A1.689,1.689,0,0,1,42.374,12.061Z" transform="translate(-6.945 -1.939)"/>
      </g>
    </g>
  </g>
</svg>
