<svg xmlns="http://www.w3.org/2000/svg" xmlns:xlink="http://www.w3.org/1999/xlink" width="102.949" height="102.949" viewBox="0 0 102.949 102.949">
  <defs>
    <filter id="Trazado_874925" x="0" y="0" width="102.949" height="102.949" filterUnits="userSpaceOnUse">
      <feOffset dy="3" input="SourceAlpha"/>
      <feGaussianBlur stdDeviation="3" result="blur"/>
      <feFlood flood-opacity="0.161"/>
      <feComposite operator="in" in2="blur"/>
      <feComposite in="SourceGraphic"/>
    </filter>
    <clipPath id="clip-path">
      <path id="path6249" d="M0-682.665H52.344v52.344H0Z" transform="translate(0 682.665)"/>
    </clipPath>
  </defs>
  <g id="Grupo_1182017" data-name="Grupo 1182017" transform="translate(-959.051 -2094.414)">
    <g id="Grupo_1181790" data-name="Grupo 1181790" transform="translate(159.551 -416.743)">
      <g id="Grupo_1111316" data-name="Grupo 1111316" transform="translate(808.5 2517.157)">
        <g id="Grupo_1109835" data-name="Grupo 1109835" transform="translate(0 0)">
          <g id="Grupo_1107913" data-name="Grupo 1107913" transform="translate(0 0)">
            <g transform="matrix(1, 0, 0, 1, -9, -6)" filter="url(#Trazado_874925)">
              <g id="Trazado_874925-2" data-name="Trazado 874925" transform="translate(9 6)" fill="#9ad354" opacity="0.859">
                <path d="M 42.47446823120117 83.44929504394531 C 36.94229125976562 83.44929504394531 31.57638549804688 82.36614227294922 26.52582168579102 80.22994232177734 C 21.64678573608398 78.16628265380859 17.26464462280273 75.211669921875 13.50113868713379 71.44816589355469 C 9.737632751464844 67.68466949462891 6.78300952911377 63.30253982543945 4.719362258911133 58.42351913452148 C 2.583150625228882 53.37295150756836 1.499997615814209 48.00706100463867 1.499997615814209 42.47489547729492 C 1.499997615814209 36.94223403930664 2.583150625228882 31.57634162902832 4.719362258911133 26.52577781677246 C 6.78300952911377 21.64675331115723 9.737632751464844 17.26462364196777 13.50113868713379 13.50113010406494 C 17.26464462280273 9.737624168395996 21.64678573608398 6.783012390136719 26.52582168579102 4.719353199005127 C 31.57638549804688 2.583153486251831 36.94229125976562 1.500000476837158 42.47446823120117 1.500000476837158 C 48.00664520263672 1.500000476837158 53.37255096435547 2.583153486251831 58.42311477661133 4.719353199005127 C 63.30215072631836 6.783012390136719 67.68428802490234 9.737624168395996 71.44779968261719 13.50113010406494 C 75.2113037109375 17.26462364196777 78.16592407226562 21.64675331115723 80.22957611083984 26.52577781677246 C 82.36578369140625 31.57634162902832 83.44893646240234 36.94223403930664 83.44893646240234 42.47439956665039 C 83.44893646240234 48.00706100463867 82.36578369140625 53.37295150756836 80.22957611083984 58.42351913452148 C 78.16592407226562 63.30253982543945 75.2113037109375 67.68466949462891 71.44779968261719 71.44816589355469 C 67.68428802490234 75.211669921875 63.30215072631836 78.16628265380859 58.42311477661133 80.22994232177734 C 53.37255096435547 82.36614227294922 48.00664520263672 83.44929504394531 42.47446823120117 83.44929504394531 Z" stroke="none"/>
                <path d="M 42.47446823120117 2.999992370605469 C 37.14412307739258 2.999992370605469 31.97481536865234 4.04327392578125 27.11014938354492 6.100860595703125 C 22.40990829467773 8.088890075683594 18.18804168701172 10.93555450439453 14.56179809570312 14.56178283691406 C 10.93557739257812 18.18801116943359 8.088897705078125 22.40987396240234 6.100868225097656 27.11009979248047 C 4.043281555175781 31.97476577758789 3 37.14406204223633 3 42.47488784790039 C 3 47.80522155761719 4.043281555175781 52.97451400756836 6.100868225097656 57.83917999267578 C 8.088897705078125 62.53940582275391 10.93557739257812 66.76127624511719 14.56179809570312 70.38749694824219 C 18.18804168701172 74.01372528076172 22.40990829467773 76.86039733886719 27.11014938354492 78.84841918945312 C 31.97481536865234 80.906005859375 37.14412307739258 81.94928741455078 42.47446823120117 81.94928741455078 C 47.80481338500977 81.94928741455078 52.97412109375 80.906005859375 57.83879089355469 78.84841918945312 C 62.53902816772461 76.86039733886719 66.76089477539062 74.01372528076172 70.38713073730469 70.38749694824219 C 74.01335906982422 66.76127624511719 76.86003875732422 62.53940582275391 78.84806823730469 57.83917999267578 C 80.90565490722656 52.97451400756836 81.94893646240234 47.80522155761719 81.94893646240234 42.47439575195312 C 81.94893646240234 37.14406204223633 80.90565490722656 31.97476577758789 78.84806823730469 27.11009979248047 C 76.86003875732422 22.40987396240234 74.01335906982422 18.18801116943359 70.38713073730469 14.56178283691406 C 66.76089477539062 10.93555450439453 62.53902816772461 8.088890075683594 57.83879089355469 6.100860595703125 C 52.97412109375 4.04327392578125 47.80481338500977 2.999992370605469 42.47446823120117 2.999992370605469 M 42.47446823120117 -7.62939453125e-06 C 65.93246459960938 -7.62939453125e-06 84.94893646240234 19.01643371582031 84.94893646240234 42.47439575195312 L 84.94893646240234 42.47488784790039 C 84.94893646240234 65.93284606933594 65.93246459960938 84.94928741455078 42.47446823120117 84.94928741455078 C 19.01647186279297 84.94928741455078 0 65.93284606933594 0 42.47488784790039 L 0 42.47439575195312 C 0 19.01643371582031 19.01647186279297 -7.62939453125e-06 42.47446823120117 -7.62939453125e-06 Z" stroke="none" fill="#fff"/>
              </g>
            </g>
            <g id="Trazado_874923" data-name="Trazado 874923" transform="translate(0 0)" fill="none">
              <path d="M42.474,0A42.474,42.474,0,0,1,84.949,42.474h0A42.474,42.474,0,0,1,0,42.475H0A42.474,42.474,0,0,1,42.474,0Z" stroke="none"/>
              <path d="M 42.47446823120117 2.999992370605469 C 37.14412307739258 2.999992370605469 31.97481536865234 4.04327392578125 27.11014938354492 6.100860595703125 C 22.40990829467773 8.088890075683594 18.18804168701172 10.93555450439453 14.56179809570312 14.56178283691406 C 10.93557739257812 18.18801116943359 8.088897705078125 22.40987396240234 6.100868225097656 27.11009979248047 C 4.043281555175781 31.97476577758789 3 37.14406204223633 3 42.47488784790039 C 3 47.80522155761719 4.043281555175781 52.97451400756836 6.100868225097656 57.83917999267578 C 8.088897705078125 62.53940582275391 10.93557739257812 66.76127624511719 14.56179809570312 70.38749694824219 C 18.18804168701172 74.01372528076172 22.40990829467773 76.86039733886719 27.11014938354492 78.84841918945312 C 31.97481536865234 80.906005859375 37.14412307739258 81.94928741455078 42.47446823120117 81.94928741455078 C 47.80481338500977 81.94928741455078 52.97412109375 80.906005859375 57.83879089355469 78.84841918945312 C 62.53902816772461 76.86039733886719 66.76089477539062 74.01372528076172 70.38713073730469 70.38749694824219 C 74.01335906982422 66.76127624511719 76.86003875732422 62.53940582275391 78.84806823730469 57.83917999267578 C 80.90565490722656 52.97451400756836 81.94893646240234 47.80522155761719 81.94893646240234 42.47439575195312 C 81.94893646240234 37.14406204223633 80.90565490722656 31.97476577758789 78.84806823730469 27.11009979248047 C 76.86003875732422 22.40987396240234 74.01335906982422 18.18801116943359 70.38713073730469 14.56178283691406 C 66.76089477539062 10.93555450439453 62.53902816772461 8.088890075683594 57.83879089355469 6.100860595703125 C 52.97412109375 4.04327392578125 47.80481338500977 2.999992370605469 42.47446823120117 2.999992370605469 M 42.47446823120117 -7.62939453125e-06 C 65.93246459960938 -7.62939453125e-06 84.94893646240234 19.01643371582031 84.94893646240234 42.47439575195312 L 84.94893646240234 42.47488784790039 C 84.94893646240234 65.93284606933594 65.93246459960938 84.94928741455078 42.47446823120117 84.94928741455078 C 19.01647186279297 84.94928741455078 0 65.93284606933594 0 42.47488784790039 L 0 42.47439575195312 C 0 19.01643371582031 19.01647186279297 -7.62939453125e-06 42.47446823120117 -7.62939453125e-06 Z" stroke="none" fill="#fff"/>
            </g>
          </g>
        </g>
      </g>
    </g>
    <g id="g6243" transform="translate(984.051 2799.079)">
      <g id="g6245" transform="translate(0 -682.665)">
        <g id="g6247" clip-path="url(#clip-path)">
          <g id="g6253" transform="translate(0.767 16.286)">
            <path id="path6255" d="M-436.387,0H-471.05a1.581,1.581,0,0,0-1.575,1.578V24.139a1.581,1.581,0,0,0,1.575,1.578h5.172v6.226c0,.868.5,1.075,1.114.462l6.679-6.688h21.7a1.581,1.581,0,0,0,1.576-1.578V1.578A1.581,1.581,0,0,0-436.387,0" transform="translate(472.625)" fill="#c7eefd"/>
          </g>
          <g id="g6257" transform="translate(0.767 16.286)">
            <path id="path6259" d="M-38.78-290.685v-22.562a1.581,1.581,0,0,1,1.575-1.578h-3.22A1.581,1.581,0,0,0-42-313.247v22.562a1.581,1.581,0,0,0,1.575,1.578h3.22a1.581,1.581,0,0,1-1.575-1.578" transform="translate(42 314.825)" fill="#98e5fb"/>
          </g>
          <g id="g6261" transform="translate(20.805 30.619)">
            <path id="path6263" d="M6.2-136.316H-9.233a.767.767,0,0,1-.767-.767.767.767,0,0,1,.767-.767H6.2a.811.811,0,0,0,.809-.811V-147.7a.767.767,0,0,1,.767-.767.767.767,0,0,1,.767.767v9.039A2.346,2.346,0,0,1,6.2-136.316Z" transform="translate(10 148.466)"/>
          </g>
          <g id="g6265" transform="translate(0 15.519)">
            <path id="path6267" d="M-495.187-125.979a1.15,1.15,0,0,1-.437-.084,1.439,1.439,0,0,1-.8-1.495v-5.459h-4.405a2.346,2.346,0,0,1-2.342-2.344v-22.562a2.346,2.346,0,0,1,2.342-2.345h34.663a2.346,2.346,0,0,1,2.342,2.345v9.944a.767.767,0,0,1-.767.767.767.767,0,0,1-.767-.767v-9.944a.811.811,0,0,0-.809-.811h-34.663a.811.811,0,0,0-.809.811v22.562a.811.811,0,0,0,.809.811h5.172a.767.767,0,0,1,.767.767v5.951l6.484-6.492a.767.767,0,0,1,.543-.225h2.583a.767.767,0,0,1,.767.767.767.767,0,0,1-.767.767h-2.265L-494-126.554A1.676,1.676,0,0,1-495.187-125.979Z" transform="translate(503.173 160.268)"/>
          </g>
          <g id="g6269" transform="translate(7.95 23.816)">
            <path id="path6271" d="M-273.116-8.466H-295.03a.767.767,0,0,1-.767-.767A.767.767,0,0,1-295.03-10h21.914a.767.767,0,0,1,.767.767A.767.767,0,0,1-273.116-8.466Z" transform="translate(295.797 10)"/>
          </g>
          <g id="g6273" transform="translate(7.95 28.435)">
            <path id="path6275" d="M-273.116-8.466H-295.03a.767.767,0,0,1-.767-.767A.767.767,0,0,1-295.03-10h21.914a.767.767,0,0,1,.767.767A.767.767,0,0,1-273.116-8.466Z" transform="translate(295.797 10)"/>
          </g>
          <g id="g6277" transform="translate(7.95 33.055)">
            <path id="path6279" d="M-148.519-8.466h-11.567a.767.767,0,0,1-.767-.767.767.767,0,0,1,.767-.767h11.567a.767.767,0,0,1,.767.767A.767.767,0,0,1-148.519-8.466Z" transform="translate(160.853 10)"/>
          </g>
          <g id="g6281" transform="translate(30.247 3.301)">
            <path id="path6283" d="M-256.85-128.421a10.665,10.665,0,0,1-10.665,10.665,10.665,10.665,0,0,1-10.665-10.665,10.665,10.665,0,0,1,10.665-10.664,10.664,10.664,0,0,1,10.665,10.664" transform="translate(278.179 139.085)" fill="#fde803"/>
          </g>
          <g id="g6285" transform="translate(30.247 3.301)">
            <path id="path6287" d="M-38.33-128.421a10.667,10.667,0,0,1,9.073-10.546,10.75,10.75,0,0,0-1.591-.118,10.665,10.665,0,0,0-10.665,10.664,10.665,10.665,0,0,0,10.665,10.665,10.748,10.748,0,0,0,1.591-.118,10.667,10.667,0,0,1-9.073-10.547" transform="translate(41.513 139.085)" fill="#f3d802"/>
          </g>
          <g id="g6289" transform="translate(29.481 2.534)">
            <path id="path6291" d="M-276.748-149.085a11.444,11.444,0,0,1,11.431,11.431,11.445,11.445,0,0,1-11.431,11.432,11.445,11.445,0,0,1-11.432-11.432A11.444,11.444,0,0,1-276.748-149.085Zm0,21.329a9.909,9.909,0,0,0,9.9-9.9,9.909,9.909,0,0,0-9.9-9.9,9.909,9.909,0,0,0-9.9,9.9A9.909,9.909,0,0,0-276.748-127.756Z" transform="translate(288.179 149.085)"/>
          </g>
          <g id="g6293" transform="translate(36.529 16.547)">
            <path id="path6295" d="M-99.937-6.985a5.886,5.886,0,0,1-4.156-1.7.767.767,0,0,1,0-1.084.767.767,0,0,1,1.084,0,4.383,4.383,0,0,0,6.152,0,.767.767,0,0,1,1.084,0,.767.767,0,0,1,0,1.084A5.886,5.886,0,0,1-99.937-6.985Z" transform="translate(104.32 10)"/>
          </g>
          <g id="g6297" transform="translate(42.707 10.5)">
            <path id="path6299" d="M-5.574-30.2a.767.767,0,0,1-.767-.767A1.052,1.052,0,0,0-7.4-32a1.052,1.052,0,0,0-1.063,1.038.767.767,0,0,1-.767.767A.767.767,0,0,1-10-30.965a2.587,2.587,0,0,1,2.6-2.571,2.587,2.587,0,0,1,2.6,2.571A.767.767,0,0,1-5.574-30.2Z" transform="translate(10 33.536)"/>
          </g>
          <g id="g6301" transform="translate(33.925 10.5)">
            <path id="path6303" d="M-5.574-30.2a.767.767,0,0,1-.767-.767A1.052,1.052,0,0,0-7.4-32a1.052,1.052,0,0,0-1.063,1.038.767.767,0,0,1-.767.767A.767.767,0,0,1-10-30.965a2.587,2.587,0,0,1,2.6-2.571,2.587,2.587,0,0,1,2.6,2.571A.767.767,0,0,1-5.574-30.2Z" transform="translate(10 33.536)"/>
          </g>
          <g id="g6305" transform="translate(0.767 4.72)">
            <path id="path6307" d="M0-79.343a.513.513,0,0,0,.511.511H20.769a.513.513,0,0,0,.511-.511v-6.078a.513.513,0,0,0-.511-.511H.511A.513.513,0,0,0,0-85.421Z" transform="translate(0 85.932)" fill="#0592fb"/>
          </g>
          <g id="g6309" transform="translate(0.767 4.72)">
            <path id="path6311" d="M-38.6-79.343v-6.078a.513.513,0,0,1,.511-.511H-41.29a.513.513,0,0,0-.511.511v6.078a.513.513,0,0,0,.511.511h3.205a.513.513,0,0,1-.511-.511" transform="translate(41.801 85.932)" fill="#0181fb"/>
          </g>
          <g id="g6313" transform="translate(0 3.954)">
            <path id="path6315" d="M-222.464-93.965h-2.827a.767.767,0,0,1-.767-.767.767.767,0,0,1,.767-.767h2.571v-5.567h-19.746V-95.5h13.495a.767.767,0,0,1,.767.767.767.767,0,0,1-.767.767h-13.75A1.279,1.279,0,0,1-244-95.243v-6.078a1.279,1.279,0,0,1,1.278-1.278h20.258a1.279,1.279,0,0,1,1.278,1.278v6.078A1.279,1.279,0,0,1-222.464-93.965Z" transform="translate(243.999 102.598)"/>
          </g>
          <g id="g6317" transform="translate(3.578 7.503)">
            <path id="path6319" d="M4.237-8.466H-9.233A.767.767,0,0,1-10-9.233.767.767,0,0,1-9.233-10H4.237A.767.767,0,0,1,5-9.233.767.767,0,0,1,4.237-8.466Z" transform="translate(10 10)"/>
          </g>
        </g>
      </g>
    </g>
  </g>
</svg>
