<svg xmlns="http://www.w3.org/2000/svg" xmlns:xlink="http://www.w3.org/1999/xlink" width="102.949" height="102.949" viewBox="0 0 102.949 102.949">
  <defs>
    <filter id="Trazado_874925" x="0" y="0" width="102.949" height="102.949" filterUnits="userSpaceOnUse">
      <feOffset dy="3" input="SourceAlpha"/>
      <feGaussianBlur stdDeviation="3" result="blur"/>
      <feFlood flood-opacity="0.161"/>
      <feComposite operator="in" in2="blur"/>
      <feComposite in="SourceGraphic"/>
    </filter>
  </defs>
  <g id="Grupo_1182016" data-name="Grupo 1182016" transform="translate(-748.051 -2093.413)">
    <g id="Grupo_1181789" data-name="Grupo 1181789" transform="translate(-51.449 -417.744)">
      <g id="Grupo_1111316" data-name="Grupo 1111316" transform="translate(808.5 2517.157)">
        <g id="Grupo_1109835" data-name="Grupo 1109835" transform="translate(0 0)">
          <g id="Grupo_1107913" data-name="Grupo 1107913" transform="translate(0 0)">
            <g transform="matrix(1, 0, 0, 1, -9, -6)" filter="url(#Trazado_874925)">
              <g id="Trazado_874925-2" data-name="Trazado 874925" transform="translate(9 6)" fill="#9ad354" opacity="0.859">
                <path d="M 42.47446823120117 83.44929504394531 C 36.94229125976562 83.44929504394531 31.57638549804688 82.36614227294922 26.52582168579102 80.22994232177734 C 21.64678573608398 78.16628265380859 17.26464462280273 75.211669921875 13.50113868713379 71.44816589355469 C 9.737632751464844 67.68466949462891 6.78300952911377 63.30253982543945 4.719362258911133 58.42351913452148 C 2.583150625228882 53.37295150756836 1.499997615814209 48.00706100463867 1.499997615814209 42.47489547729492 C 1.499997615814209 36.94223403930664 2.583150625228882 31.57634162902832 4.719362258911133 26.52577781677246 C 6.78300952911377 21.64675331115723 9.737632751464844 17.26462364196777 13.50113868713379 13.50113010406494 C 17.26464462280273 9.737624168395996 21.64678573608398 6.783012390136719 26.52582168579102 4.719353199005127 C 31.57638549804688 2.583153486251831 36.94229125976562 1.500000476837158 42.47446823120117 1.500000476837158 C 48.00664520263672 1.500000476837158 53.37255096435547 2.583153486251831 58.42311477661133 4.719353199005127 C 63.30215072631836 6.783012390136719 67.68428802490234 9.737624168395996 71.44779968261719 13.50113010406494 C 75.2113037109375 17.26462364196777 78.16592407226562 21.64675331115723 80.22957611083984 26.52577781677246 C 82.36578369140625 31.57634162902832 83.44893646240234 36.94223403930664 83.44893646240234 42.47439956665039 C 83.44893646240234 48.00706100463867 82.36578369140625 53.37295150756836 80.22957611083984 58.42351913452148 C 78.16592407226562 63.30253982543945 75.2113037109375 67.68466949462891 71.44779968261719 71.44816589355469 C 67.68428802490234 75.211669921875 63.30215072631836 78.16628265380859 58.42311477661133 80.22994232177734 C 53.37255096435547 82.36614227294922 48.00664520263672 83.44929504394531 42.47446823120117 83.44929504394531 Z" stroke="none"/>
                <path d="M 42.47446823120117 2.999992370605469 C 37.14412307739258 2.999992370605469 31.97481536865234 4.04327392578125 27.11014938354492 6.100860595703125 C 22.40990829467773 8.088890075683594 18.18804168701172 10.93555450439453 14.56179809570312 14.56178283691406 C 10.93557739257812 18.18801116943359 8.088897705078125 22.40987396240234 6.100868225097656 27.11009979248047 C 4.043281555175781 31.97476577758789 3 37.14406204223633 3 42.47488784790039 C 3 47.80522155761719 4.043281555175781 52.97451400756836 6.100868225097656 57.83917999267578 C 8.088897705078125 62.53940582275391 10.93557739257812 66.76127624511719 14.56179809570312 70.38749694824219 C 18.18804168701172 74.01372528076172 22.40990829467773 76.86039733886719 27.11014938354492 78.84841918945312 C 31.97481536865234 80.906005859375 37.14412307739258 81.94928741455078 42.47446823120117 81.94928741455078 C 47.80481338500977 81.94928741455078 52.97412109375 80.906005859375 57.83879089355469 78.84841918945312 C 62.53902816772461 76.86039733886719 66.76089477539062 74.01372528076172 70.38713073730469 70.38749694824219 C 74.01335906982422 66.76127624511719 76.86003875732422 62.53940582275391 78.84806823730469 57.83917999267578 C 80.90565490722656 52.97451400756836 81.94893646240234 47.80522155761719 81.94893646240234 42.47439575195312 C 81.94893646240234 37.14406204223633 80.90565490722656 31.97476577758789 78.84806823730469 27.11009979248047 C 76.86003875732422 22.40987396240234 74.01335906982422 18.18801116943359 70.38713073730469 14.56178283691406 C 66.76089477539062 10.93555450439453 62.53902816772461 8.088890075683594 57.83879089355469 6.100860595703125 C 52.97412109375 4.04327392578125 47.80481338500977 2.999992370605469 42.47446823120117 2.999992370605469 M 42.47446823120117 -7.62939453125e-06 C 65.93246459960938 -7.62939453125e-06 84.94893646240234 19.01643371582031 84.94893646240234 42.47439575195312 L 84.94893646240234 42.47488784790039 C 84.94893646240234 65.93284606933594 65.93246459960938 84.94928741455078 42.47446823120117 84.94928741455078 C 19.01647186279297 84.94928741455078 0 65.93284606933594 0 42.47488784790039 L 0 42.47439575195312 C 0 19.01643371582031 19.01647186279297 -7.62939453125e-06 42.47446823120117 -7.62939453125e-06 Z" stroke="none" fill="#fff"/>
              </g>
            </g>
            <g id="Trazado_874923" data-name="Trazado 874923" transform="translate(0 0)" fill="none">
              <path d="M42.474,0A42.474,42.474,0,0,1,84.949,42.474h0A42.474,42.474,0,0,1,0,42.475H0A42.474,42.474,0,0,1,42.474,0Z" stroke="none"/>
              <path d="M 42.47446823120117 2.999992370605469 C 37.14412307739258 2.999992370605469 31.97481536865234 4.04327392578125 27.11014938354492 6.100860595703125 C 22.40990829467773 8.088890075683594 18.18804168701172 10.93555450439453 14.56179809570312 14.56178283691406 C 10.93557739257812 18.18801116943359 8.088897705078125 22.40987396240234 6.100868225097656 27.11009979248047 C 4.043281555175781 31.97476577758789 3 37.14406204223633 3 42.47488784790039 C 3 47.80522155761719 4.043281555175781 52.97451400756836 6.100868225097656 57.83917999267578 C 8.088897705078125 62.53940582275391 10.93557739257812 66.76127624511719 14.56179809570312 70.38749694824219 C 18.18804168701172 74.01372528076172 22.40990829467773 76.86039733886719 27.11014938354492 78.84841918945312 C 31.97481536865234 80.906005859375 37.14412307739258 81.94928741455078 42.47446823120117 81.94928741455078 C 47.80481338500977 81.94928741455078 52.97412109375 80.906005859375 57.83879089355469 78.84841918945312 C 62.53902816772461 76.86039733886719 66.76089477539062 74.01372528076172 70.38713073730469 70.38749694824219 C 74.01335906982422 66.76127624511719 76.86003875732422 62.53940582275391 78.84806823730469 57.83917999267578 C 80.90565490722656 52.97451400756836 81.94893646240234 47.80522155761719 81.94893646240234 42.47439575195312 C 81.94893646240234 37.14406204223633 80.90565490722656 31.97476577758789 78.84806823730469 27.11009979248047 C 76.86003875732422 22.40987396240234 74.01335906982422 18.18801116943359 70.38713073730469 14.56178283691406 C 66.76089477539062 10.93555450439453 62.53902816772461 8.088890075683594 57.83879089355469 6.100860595703125 C 52.97412109375 4.04327392578125 47.80481338500977 2.999992370605469 42.47446823120117 2.999992370605469 M 42.47446823120117 -7.62939453125e-06 C 65.93246459960938 -7.62939453125e-06 84.94893646240234 19.01643371582031 84.94893646240234 42.47439575195312 L 84.94893646240234 42.47488784790039 C 84.94893646240234 65.93284606933594 65.93246459960938 84.94928741455078 42.47446823120117 84.94928741455078 C 19.01647186279297 84.94928741455078 0 65.93284606933594 0 42.47488784790039 L 0 42.47439575195312 C 0 19.01643371582031 19.01647186279297 -7.62939453125e-06 42.47446823120117 -7.62939453125e-06 Z" stroke="none" fill="#fff"/>
            </g>
          </g>
        </g>
      </g>
    </g>
    <g id="comida-sana" transform="translate(774.05 2116.916)">
      <path id="Trazado_909975" data-name="Trazado 909975" d="M279.2,47.622c0,6.868-4.439,12.487-9.865,12.487h-5.788a8.107,8.107,0,0,1-4.21-1.2c-3.691-2.222-5.655-6.831-5.655-11.285a11.482,11.482,0,0,1,3.094-8.076,11.315,11.315,0,0,0,2.513-4.013,14.024,14.024,0,0,0,.817-3.543c.048-.482.072-.971.072-1.464,0-4.359,2.819-7.925,6.262-7.925a5.677,5.677,0,0,1,4.422,2.328,9.062,9.062,0,0,1,1.839,5.6,12.874,12.874,0,0,0,3.4,9.02,10.343,10.343,0,0,1,2.253,3.524A12.505,12.505,0,0,1,279.2,47.622Zm0,0" transform="translate(-227.866 -19.855)" fill="#35e298"/>
      <path id="Trazado_909976" data-name="Trazado 909976" d="M265.906,126.544a15.1,15.1,0,0,1-1.919,6.784l-4.653,8.46c-3.691-2.222-5.655-6.831-5.655-11.285a11.483,11.483,0,0,1,3.095-8.076,11.326,11.326,0,0,0,2.513-4.013,14.04,14.04,0,0,0,.816-3.543,10.658,10.658,0,0,1,4.988,6.25A15.1,15.1,0,0,1,265.906,126.544Zm0,0" transform="translate(-227.866 -102.736)" fill="#1ab975"/>
      <path id="Trazado_909977" data-name="Trazado 909977" d="M322.835,207.1a7.433,7.433,0,1,1-7.433-7.433A7.433,7.433,0,0,1,322.835,207.1Zm0,0" transform="translate(-276.631 -178.904)" fill="#ae583e"/>
      <path id="Trazado_909978" data-name="Trazado 909978" d="M314.5,200.23a7.44,7.44,0,0,0-3.633,13.246L312.78,210a14.823,14.823,0,0,0,1.722-9.771Zm0,0" transform="translate(-276.658 -179.409)" fill="#7c3f2c"/>
      <path id="Trazado_909979" data-name="Trazado 909979" d="M66.555,14.978C66.167,13.209,64.163,6.8,55.7,8.261a.378.378,0,0,0-.277.535c.876,1.842,4.6,8.666,10.786,6.767A.5.5,0,0,0,66.555,14.978Zm0,0" transform="translate(-49.749 -6.782)" fill="#1ed688"/>
      <path id="Trazado_909980" data-name="Trazado 909980" d="M66.21,15.609c-6.19,1.9-9.909-4.925-10.786-6.767a.378.378,0,0,1,.276-.535A14.16,14.16,0,0,1,57.737,8.1c1.3,2.291,4.206,6.29,8.561,5.982a9.691,9.691,0,0,1,.259.944A.5.5,0,0,1,66.21,15.609Zm0,0" transform="translate(-49.751 -6.827)" fill="#1ab975"/>
      <path id="Trazado_909981" data-name="Trazado 909981" d="M38.51,123.258l-5.4,9.819a5.443,5.443,0,0,1-7.082,1.813,4.4,4.4,0,0,0-4.088,0,5.439,5.439,0,0,1-7.082-1.813l-5.4-9.819a14.9,14.9,0,0,1-1.105-12.207c1.66-4.824,4.9-6.507,7.134-7.088a8.981,8.981,0,0,1,2.2-.3c.127,0,.2,0,.2,0a8.756,8.756,0,0,1,2.873.48,8.3,8.3,0,0,1,2.422,1.323,1.241,1.241,0,0,0,1.615,0,8.288,8.288,0,0,1,2.422-1.323,8.754,8.754,0,0,1,2.873-.48s6.839-.436,9.529,7.386A14.888,14.888,0,0,1,38.51,123.258Zm0,0" transform="translate(-6.762 -92.665)" fill="#c42d2d"/>
      <path id="Trazado_909982" data-name="Trazado 909982" d="M81.95,123.258l-5.4,9.819a5.443,5.443,0,0,1-7.082,1.813,4.4,4.4,0,0,0-4.088,0,5.494,5.494,0,0,1-2.148.6c-.041-.082-4.33-9.514-5.424-11.918-3.27-7.189-2-15.2,1.117-19.613a8.981,8.981,0,0,1,2.2-.3c.127,0,.2,0,.2,0a8.756,8.756,0,0,1,2.873.48,8.3,8.3,0,0,1,2.422,1.323,1.241,1.241,0,0,0,1.615,0,8.288,8.288,0,0,1,2.422-1.323,8.754,8.754,0,0,1,2.873-.48s6.839-.436,9.529,7.386A14.888,14.888,0,0,1,81.95,123.258Zm0,0" transform="translate(-50.201 -92.665)" fill="#f44545"/>
      <path id="Trazado_909983" data-name="Trazado 909983" d="M15.011,318.472a1.764,1.764,0,0,0-.737,2.383,11.34,11.34,0,0,0,1.953,2.648l-5.883-.655a1.764,1.764,0,1,0-.391,3.506l5.883.655a11.345,11.345,0,0,0-2.488,2.153,1.764,1.764,0,0,0,2.681,2.293c2.016-2.357,5.669-3.367,8.761-3.468a1.763,1.763,0,0,0,.327-3.482c-.056-.013-5.646-1.359-7.723-5.3A1.764,1.764,0,0,0,15.011,318.472Zm0,0" transform="translate(-7.531 -285.436)" fill="#1ab975"/>
      <path id="Trazado_909984" data-name="Trazado 909984" d="M178.909,340.274a4.469,4.469,0,0,1-4.434,3.974l-24.908.048a7.3,7.3,0,1,1,1.612-14.423L172.3,334.7l1.508.345,1.652.378a4.468,4.468,0,0,1,3.447,4.852Zm0,0" transform="translate(-127.774 -295.693)" fill="#ffa90b"/>
      <path id="Trazado_909985" data-name="Trazado 909985" d="M186.44,339.034a4.463,4.463,0,0,1-3.543,1.755l-24.907.048a7.306,7.306,0,0,1-7.319-7.282,7.32,7.32,0,0,1,6.436-3.868,7.174,7.174,0,0,1,.881.054,7.288,7.288,0,0,1,.755.131l.754.172c19.528,4.463,2.119.484,20.369,4.654l1.508.345,1.652.378A4.468,4.468,0,0,1,186.44,339.034Zm0,0" transform="translate(-135.34 -295.693)" fill="#ffb52d"/>
      <path id="Trazado_909986" data-name="Trazado 909986" d="M26.9,370.777l.012,0Zm0,0" transform="translate(-24.161 -332.602)"/>
      <path id="Trazado_909987" data-name="Trazado 909987" d="M27.191,370.813h0Zm0,0" transform="translate(-24.424 -332.634)"/>
      <path id="Trazado_909988" data-name="Trazado 909988" d="M47.859,38.98l-.567-.13c5.493-4.5,6.664-14.493,1.49-19.7a12.184,12.184,0,0,1-3.18-8.478c0-4.793-3.153-8.693-7.029-8.693s-7.029,3.9-7.029,8.693a13.706,13.706,0,0,1-.374,3.183,9.981,9.981,0,0,0-13.18-1.981V2.1a.768.768,0,1,0-1.535,0V5.112C14.163.976,9.992-.13,5.32.811a.769.769,0,0,0-.559,1.044A17.978,17.978,0,0,0,7.836,6.632c2.364,2.583,5.3,3.865,8.619,2.945v2.3C11.947,8.742,4.4,9.867,1.3,17.008a.768.768,0,0,0,1.408.611c2.838-6.535,9.623-7.063,13.222-4.228a2.009,2.009,0,0,0,2.587,0c4.1-3.227,11.185-1.822,13.613,5.238a14.167,14.167,0,0,1-1.221,11.893c-.9,1.613-1.642,2.953-2.255,4.069-4.753-1.024-5.432-1.4-7.049-1.363a.767.767,0,0,0,.031,1.534,6.549,6.549,0,0,1,.928.049L22.1,38.946a.768.768,0,0,0,1.526.17l.445-4,7.438,1.7-.22,1.972a.767.767,0,1,0,1.526.17l.2-1.8,11.5,2.628-.593,5.321a.767.767,0,0,0,1.526.17l.574-5.147,1.489.341a3.7,3.7,0,0,1-.817,7.311l-7.855.015.279-2.5a.767.767,0,1,0-1.526-.17l-.3,2.676-7.529.014.262-2.353a.767.767,0,0,0-1.526-.17c-.065.586-.275,2.463-.281,2.526l-3.6.007.456-4.1a.768.768,0,0,0-1.526-.17l-.475,4.268H23.05l-1.271,0a6.535,6.535,0,0,1-2.795-12.444A.768.768,0,0,0,18.326,34a8.054,8.054,0,0,0-3.507,3.2,9.549,9.549,0,0,1-4.278-3.788,2.533,2.533,0,0,0-4.769,1.174l-2.4-4.371a14.127,14.127,0,0,1-1.535-9.826.768.768,0,1,0-1.5-.311A15.664,15.664,0,0,0,2.022,30.957L5.3,36.916l-2.4-.268a2.531,2.531,0,0,0-.561,5.031l3.978.443c-.987.883-1.781,1.684-1.681,2.946a2.535,2.535,0,0,0,4.447,1.448,9.56,9.56,0,0,1,5.007-2.757,8.082,8.082,0,0,0,7.689,5.61L46.7,49.322A5.237,5.237,0,0,0,47.859,38.98ZM6.6,2.149c5.1-.7,8.321,1.735,9.4,5.961C11.839,9.23,8.57,5.944,6.6,2.149ZM45.29,38.392,30.214,34.948c.436-.8.919-1.679,1.457-2.648a8.2,8.2,0,0,0,15.141-2.486.768.768,0,0,0-1.505-.3,6.666,6.666,0,0,1-12.728,1.152,15.857,15.857,0,0,0,1.865-7.535,6.674,6.674,0,0,1,10.841,3.649.767.767,0,1,0,1.5-.325A8.2,8.2,0,0,0,34.322,21.31a15.1,15.1,0,0,0-2-5.87,15.163,15.163,0,0,0,.753-4.768c0-3.541,2.206-7.158,5.494-7.158,3.253,0,5.494,3.568,5.494,7.158a13.56,13.56,0,0,0,3.627,9.561c4,4.019,3.61,11.482.138,15.877A9.544,9.544,0,0,1,45.29,38.392ZM13.762,42.249a11.144,11.144,0,0,0-5.847,3.27A1,1,0,0,1,6.4,44.225a10.618,10.618,0,0,1,2.321-2.008A.768.768,0,0,0,8.39,40.81l-5.883-.656a1,1,0,1,1,.221-1.98h0l.018,0h0l.018,0H2.757l5.316.593c.244-.016.988.3,1.313-.366a.768.768,0,0,0-.142-.874,10.611,10.611,0,0,1-1.821-2.468,1,1,0,0,1,.415-1.347h0a1,1,0,0,1,1.346.417,11.112,11.112,0,0,0,4.99,4.455A8.156,8.156,0,0,0,13.762,42.249Zm0,0" transform="translate(0)"/>
    </g>
  </g>
</svg>
