<svg xmlns="http://www.w3.org/2000/svg" xmlns:xlink="http://www.w3.org/1999/xlink" width="102.949" height="102.949" viewBox="0 0 102.949 102.949">
  <defs>
    <filter id="Trazado_874925" x="0" y="0" width="102.949" height="102.949" filterUnits="userSpaceOnUse">
      <feOffset dy="3" input="SourceAlpha"/>
      <feGaussianBlur stdDeviation="3" result="blur"/>
      <feFlood flood-opacity="0.161"/>
      <feComposite operator="in" in2="blur"/>
      <feComposite in="SourceGraphic"/>
    </filter>
  </defs>
  <g id="Grupo_1181972" data-name="Grupo 1181972" transform="translate(-906.051 -1214.001)">
    <g id="Grupo_1118025" data-name="Grupo 1118025" transform="translate(106.551 -1297.156)">
      <g id="Grupo_1111316" data-name="Grupo 1111316" transform="translate(808.5 2517.157)">
        <g id="Grupo_1109835" data-name="Grupo 1109835" transform="translate(0 0)">
          <g id="Grupo_1107913" data-name="Grupo 1107913" transform="translate(0 0)">
            <g transform="matrix(1, 0, 0, 1, -9, -6)" filter="url(#Trazado_874925)">
              <g id="Trazado_874925-2" data-name="Trazado 874925" transform="translate(9 6)" fill="#4c6929" opacity="0.859">
                <path d="M 42.47446823120117 83.44929504394531 C 36.94229125976562 83.44929504394531 31.57638549804688 82.36614227294922 26.52582168579102 80.22994232177734 C 21.64678573608398 78.16628265380859 17.26464462280273 75.211669921875 13.50113868713379 71.44816589355469 C 9.737632751464844 67.68466949462891 6.78300952911377 63.30253982543945 4.719362258911133 58.42351913452148 C 2.583150625228882 53.37295150756836 1.499997615814209 48.00706100463867 1.499997615814209 42.47489547729492 C 1.499997615814209 36.94223403930664 2.583150625228882 31.57634162902832 4.719362258911133 26.52577781677246 C 6.78300952911377 21.64675331115723 9.737632751464844 17.26462364196777 13.50113868713379 13.50113010406494 C 17.26464462280273 9.737624168395996 21.64678573608398 6.783012390136719 26.52582168579102 4.719353199005127 C 31.57638549804688 2.583153486251831 36.94229125976562 1.500000476837158 42.47446823120117 1.500000476837158 C 48.00664520263672 1.500000476837158 53.37255096435547 2.583153486251831 58.42311477661133 4.719353199005127 C 63.30215072631836 6.783012390136719 67.68428802490234 9.737624168395996 71.44779968261719 13.50113010406494 C 75.2113037109375 17.26462364196777 78.16592407226562 21.64675331115723 80.22957611083984 26.52577781677246 C 82.36578369140625 31.57634162902832 83.44893646240234 36.94223403930664 83.44893646240234 42.47439956665039 C 83.44893646240234 48.00706100463867 82.36578369140625 53.37295150756836 80.22957611083984 58.42351913452148 C 78.16592407226562 63.30253982543945 75.2113037109375 67.68466949462891 71.44779968261719 71.44816589355469 C 67.68428802490234 75.211669921875 63.30215072631836 78.16628265380859 58.42311477661133 80.22994232177734 C 53.37255096435547 82.36614227294922 48.00664520263672 83.44929504394531 42.47446823120117 83.44929504394531 Z" stroke="none"/>
                <path d="M 42.47446823120117 2.999992370605469 C 37.14412307739258 2.999992370605469 31.97481536865234 4.04327392578125 27.11014938354492 6.100860595703125 C 22.40990829467773 8.088890075683594 18.18804168701172 10.93555450439453 14.56179809570312 14.56178283691406 C 10.93557739257812 18.18801116943359 8.088897705078125 22.40987396240234 6.100868225097656 27.11009979248047 C 4.043281555175781 31.97476577758789 3 37.14406204223633 3 42.47488784790039 C 3 47.80522155761719 4.043281555175781 52.97451400756836 6.100868225097656 57.83917999267578 C 8.088897705078125 62.53940582275391 10.93557739257812 66.76127624511719 14.56179809570312 70.38749694824219 C 18.18804168701172 74.01372528076172 22.40990829467773 76.86039733886719 27.11014938354492 78.84841918945312 C 31.97481536865234 80.906005859375 37.14412307739258 81.94928741455078 42.47446823120117 81.94928741455078 C 47.80481338500977 81.94928741455078 52.97412109375 80.906005859375 57.83879089355469 78.84841918945312 C 62.53902816772461 76.86039733886719 66.76089477539062 74.01372528076172 70.38713073730469 70.38749694824219 C 74.01335906982422 66.76127624511719 76.86003875732422 62.53940582275391 78.84806823730469 57.83917999267578 C 80.90565490722656 52.97451400756836 81.94893646240234 47.80522155761719 81.94893646240234 42.47439575195312 C 81.94893646240234 37.14406204223633 80.90565490722656 31.97476577758789 78.84806823730469 27.11009979248047 C 76.86003875732422 22.40987396240234 74.01335906982422 18.18801116943359 70.38713073730469 14.56178283691406 C 66.76089477539062 10.93555450439453 62.53902816772461 8.088890075683594 57.83879089355469 6.100860595703125 C 52.97412109375 4.04327392578125 47.80481338500977 2.999992370605469 42.47446823120117 2.999992370605469 M 42.47446823120117 -7.62939453125e-06 C 65.93246459960938 -7.62939453125e-06 84.94893646240234 19.01643371582031 84.94893646240234 42.47439575195312 L 84.94893646240234 42.47488784790039 C 84.94893646240234 65.93284606933594 65.93246459960938 84.94928741455078 42.47446823120117 84.94928741455078 C 19.01647186279297 84.94928741455078 0 65.93284606933594 0 42.47488784790039 L 0 42.47439575195312 C 0 19.01643371582031 19.01647186279297 -7.62939453125e-06 42.47446823120117 -7.62939453125e-06 Z" stroke="none" fill="#fff"/>
              </g>
            </g>
            <g id="Trazado_874923" data-name="Trazado 874923" transform="translate(0 0)" fill="none">
              <path d="M42.474,0A42.474,42.474,0,0,1,84.949,42.474h0A42.474,42.474,0,0,1,0,42.475H0A42.474,42.474,0,0,1,42.474,0Z" stroke="none"/>
              <path d="M 42.47446823120117 2.999992370605469 C 37.14412307739258 2.999992370605469 31.97481536865234 4.04327392578125 27.11014938354492 6.100860595703125 C 22.40990829467773 8.088890075683594 18.18804168701172 10.93555450439453 14.56179809570312 14.56178283691406 C 10.93557739257812 18.18801116943359 8.088897705078125 22.40987396240234 6.100868225097656 27.11009979248047 C 4.043281555175781 31.97476577758789 3 37.14406204223633 3 42.47488784790039 C 3 47.80522155761719 4.043281555175781 52.97451400756836 6.100868225097656 57.83917999267578 C 8.088897705078125 62.53940582275391 10.93557739257812 66.76127624511719 14.56179809570312 70.38749694824219 C 18.18804168701172 74.01372528076172 22.40990829467773 76.86039733886719 27.11014938354492 78.84841918945312 C 31.97481536865234 80.906005859375 37.14412307739258 81.94928741455078 42.47446823120117 81.94928741455078 C 47.80481338500977 81.94928741455078 52.97412109375 80.906005859375 57.83879089355469 78.84841918945312 C 62.53902816772461 76.86039733886719 66.76089477539062 74.01372528076172 70.38713073730469 70.38749694824219 C 74.01335906982422 66.76127624511719 76.86003875732422 62.53940582275391 78.84806823730469 57.83917999267578 C 80.90565490722656 52.97451400756836 81.94893646240234 47.80522155761719 81.94893646240234 42.47439575195312 C 81.94893646240234 37.14406204223633 80.90565490722656 31.97476577758789 78.84806823730469 27.11009979248047 C 76.86003875732422 22.40987396240234 74.01335906982422 18.18801116943359 70.38713073730469 14.56178283691406 C 66.76089477539062 10.93555450439453 62.53902816772461 8.088890075683594 57.83879089355469 6.100860595703125 C 52.97412109375 4.04327392578125 47.80481338500977 2.999992370605469 42.47446823120117 2.999992370605469 M 42.47446823120117 -7.62939453125e-06 C 65.93246459960938 -7.62939453125e-06 84.94893646240234 19.01643371582031 84.94893646240234 42.47439575195312 L 84.94893646240234 42.47488784790039 C 84.94893646240234 65.93284606933594 65.93246459960938 84.94928741455078 42.47446823120117 84.94928741455078 C 19.01647186279297 84.94928741455078 0 65.93284606933594 0 42.47488784790039 L 0 42.47439575195312 C 0 19.01643371582031 19.01647186279297 -7.62939453125e-06 42.47446823120117 -7.62939453125e-06 Z" stroke="none" fill="#fff"/>
            </g>
          </g>
        </g>
      </g>
    </g>
    <g id="Fill_out_line" data-name="Fill out line" transform="translate(914.051 1219)">
      <path id="Trazado_909838" data-name="Trazado 909838" d="M148.153,400v3.679c0,3.556-9.884,6.439-22.077,6.439S104,407.236,104,403.679V400Z" transform="translate(-77.882 -339.847)" fill="#379ec3"/>
      <ellipse id="Elipse_11628" data-name="Elipse 11628" cx="22.21" cy="6.407" rx="22.21" ry="6.407" transform="translate(25.917 54.107)" fill="#8acce7"/>
      <path id="Trazado_909839" data-name="Trazado 909839" d="M185.111,195.952q0,.68-.052,1.354a17.763,17.763,0,0,1-2.185,7.276,8.265,8.265,0,0,1-7.229,4.253H161.462a8.269,8.269,0,0,1-7.229-4.254,17.768,17.768,0,0,1,1.882-20.005L156.6,184h23.916l.481.577a17.739,17.739,0,0,1,2.627,4.252,17.482,17.482,0,0,1,.737,2,17.711,17.711,0,0,1,.732,4.251Q185.112,195.516,185.111,195.952Z" transform="translate(-120.359 -148.683)" fill="#ad7d4d"/>
      <path id="Trazado_909840" data-name="Trazado 909840" d="M193.567,138.941h0a19.827,19.827,0,0,1,20.783,0h0a3.292,3.292,0,0,1,1.567,2.8h0a3.292,3.292,0,0,1-1.567,2.8h0a19.827,19.827,0,0,1-20.783,0h0a3.292,3.292,0,0,1-1.567-2.8h0a3.292,3.292,0,0,1,1.567-2.8Z" transform="translate(-155.763 -106.202)" fill="#966342"/>
      <path id="Trazado_909841" data-name="Trazado 909841" d="M99.888,32.557,96.46,41.129a19.985,19.985,0,0,1-2.09-.382q-.928-.222-1.84-.534V43.6a5.52,5.52,0,0,1-5.519-5.519v-2.76l-.428-.428a11.27,11.27,0,0,1-3.2-6.816l-.049-.06-1.84-2.219L73.37,16H87.226Z" transform="translate(-50.773)" fill="#f4ceaf"/>
      <path id="Trazado_909842" data-name="Trazado 909842" d="M48.195,246.718a1.839,1.839,0,0,1-1.84,1.84h-1.84a1.84,1.84,0,0,1,0,3.679h-1.84a1.84,1.84,0,0,1,0,3.679h-2.76l-8.279-1.84L24.279,250.4H16V237.519H26.118L31.638,232h3.679a8.883,8.883,0,0,1-2.6,6.281l-1.077,1.077,8.279,1.84h4.6a1.84,1.84,0,0,1,0,3.679h1.84a1.837,1.837,0,0,1,1.84,1.84Z" transform="translate(0 -191.164)" fill="#f4ceaf"/>
      <path id="Trazado_909843" data-name="Trazado 909843" d="M442.156,139.854a24.163,24.163,0,0,0-3.839-6.413l-1.154-1.385,1.413-1.178,1.154,1.385a26,26,0,0,1,4.131,6.9Z" transform="translate(-372.737 -101.669)"/>
      <path id="Trazado_909844" data-name="Trazado 909844" d="M94.4,148.049l-1.737-.606a25.961,25.961,0,0,1,4.582-8.1l.388-.465,1.413,1.178-.388.465A24.129,24.129,0,0,0,94.4,148.049Z" transform="translate(-67.844 -108.75)"/>
      <path id="Trazado_909845" data-name="Trazado 909845" d="M128.775,176.706l-1.7-.709a22.4,22.4,0,0,1,2.743-4.8l1.472,1.1A20.552,20.552,0,0,0,128.775,176.706Z" transform="translate(-98.305 -137.355)"/>
      <path id="Trazado_909846" data-name="Trazado 909846" d="M459.739,293.715l-1.778-.474a20.54,20.54,0,0,0,.694-5.288h1.84A22.379,22.379,0,0,1,459.739,293.715Z" transform="translate(-391.143 -240.683)"/>
      <path id="Trazado_909847" data-name="Trazado 909847" d="M430.786,176.706a20.551,20.551,0,0,0-2.517-4.4l1.472-1.1a22.393,22.393,0,0,1,2.743,4.8Z" transform="translate(-364.865 -137.355)"/>
      <path id="Trazado_909848" data-name="Trazado 909848" d="M141.993,363.095v3.679c0,2.2-2.465,4.076-7.129,5.436A59.145,59.145,0,0,1,119,374.133a59.144,59.144,0,0,1-15.868-1.922C98.465,370.85,96,368.97,96,366.774v-.92h1.84v.92c0,2.3,8.049,5.519,21.157,5.519s21.157-3.215,21.157-5.519v-.629a16.661,16.661,0,0,1-5.289,2.386A59.145,59.145,0,0,1,119,370.454c-.932,0-1.872-.017-2.793-.051l.067-1.839c.9.033,1.816.049,2.726.049,13.108,0,21.157-3.215,21.157-5.519,0-.978-1.5-2.127-4-3.073l.649-1.721c2.871,1.083,4.564,2.384,5.049,3.875A2.944,2.944,0,0,1,141.993,363.095Z" transform="translate(-70.801 -302.942)"/>
      <path id="Trazado_909849" data-name="Trazado 909849" d="M61.341,37.853l-.315-.377A4.236,4.236,0,0,0,59.069,34.5a20.624,20.624,0,0,0-7.987-2.877l-.255,1.822a18.8,18.8,0,0,1,7.277,2.62,2.373,2.373,0,0,1,0,4.042,18.844,18.844,0,0,1-11.11,2.772l2.975-7.437a.92.92,0,0,0-.124-.9L37.887,18.91l-1.46,1.118L48.066,35.25,45.1,42.665h0a19.1,19.1,0,0,1-2.424-.571V36.026h-1.84v9.107a4.608,4.608,0,0,1-3.679-4.507v-2.76a.921.921,0,0,0-.269-.651l-.428-.427a10.117,10.117,0,0,1-2.983-7.2v-4.6h-1.84v2.978L24.066,18.88l-1.414,1.177L31.712,30.93A11.918,11.918,0,0,0,35,37.92a18.687,18.687,0,0,0-2.77,4.545h-.588a.921.921,0,0,0-.651.269l-5.249,5.25H16v1.84H26.118a.921.921,0,0,0,.651-.269l5.249-5.25h2.327a7.909,7.909,0,0,1-2.28,4.711l-1.079,1.077a.921.921,0,0,0,.451,1.549l8.279,1.84a.9.9,0,0,0,.2.022h4.6a.92.92,0,0,1,0,1.84h-4.5l-6.34-1.409-.4,1.8,6.439,1.43a.9.9,0,0,0,.2.022h6.439a.92.92,0,1,1,0,1.84H40.017l-6.34-1.409-.4,1.8,6.439,1.43a.905.905,0,0,0,.2.022h4.6a.92.92,0,0,1,0,1.84h-4.5l-6.34-1.409-.4,1.8,6.439,1.43a.9.9,0,0,0,.2.022h2.76a.92.92,0,1,1,0,1.84H40.017l-8.069-1.794L24.69,60.959a.929.929,0,0,0-.412-.1H16V62.7h8.061l7.165,3.583a.947.947,0,0,0,.212.075l8.279,1.84a.9.9,0,0,0,.2.022h2.76a2.763,2.763,0,0,0,2.76-2.76,2.727,2.727,0,0,0-.2-1.018,2.745,2.745,0,0,0,1.33-.822h8.717A9.191,9.191,0,0,0,63.319,58.9a18.69,18.69,0,0,0-1.978-21.043ZM34.247,42.465a16.568,16.568,0,0,1,1.07-1.886v.046a6.371,6.371,0,0,0,.282,1.883.914.914,0,0,0-.282-.044ZM61.712,58a7.355,7.355,0,0,1-6.425,3.781H47.275a2.727,2.727,0,0,0-.2-1.018,2.758,2.758,0,0,0,0-5.324,2.726,2.726,0,0,0,.2-1.018,2.763,2.763,0,0,0-2.76-2.76h-4.5l-6.546-1.455a9.722,9.722,0,0,0,2.75-6.3,6.44,6.44,0,0,0,5.534,3.151.92.92,0,0,0,.92-.92V44.01a20.672,20.672,0,0,0,16.393-2.332,4.219,4.219,0,0,0,1.568-1.73A16.75,16.75,0,0,1,62.6,43.5,7.737,7.737,0,0,1,61,44.813a24.489,24.489,0,0,1-4.874,2.3l.6,1.741a26.268,26.268,0,0,0,5.24-2.476,9.367,9.367,0,0,0,1.288-.95,16.756,16.756,0,0,1,.581,4.12,29.93,29.93,0,0,1-7.6,3.309l.494,1.773a31.691,31.691,0,0,0,7-2.888A16.878,16.878,0,0,1,61.712,58Z" transform="translate(0 -2.549)"/>
      <path id="Trazado_909850" data-name="Trazado 909850" d="M319.45,323.073l-.164-1.832c.594-.053,1.195-.125,1.785-.214l.274,1.819C320.718,322.94,320.081,323.016,319.45,323.073Z" transform="translate(-268.413 -269.954)"/>
      <path id="Trazado_909851" data-name="Trazado 909851" d="M319.33,274.5l-.2-1.829c.592-.065,1.188-.152,1.773-.26l.334,1.809C320.608,274.332,319.966,274.426,319.33,274.5Z" transform="translate(-268.275 -226.925)"/>
    </g>
  </g>
</svg>
