<svg xmlns="http://www.w3.org/2000/svg" xmlns:xlink="http://www.w3.org/1999/xlink" width="102.949" height="102.949" viewBox="0 0 102.949 102.949">
  <defs>
    <filter id="Trazado_874925" x="0" y="0" width="102.949" height="102.949" filterUnits="userSpaceOnUse">
      <feOffset dy="3" input="SourceAlpha"/>
      <feGaussianBlur stdDeviation="3" result="blur"/>
      <feFlood flood-opacity="0.161"/>
      <feComposite operator="in" in2="blur"/>
      <feComposite in="SourceGraphic"/>
    </filter>
  </defs>
  <g id="Grupo_1182026" data-name="Grupo 1182026" transform="translate(-1221.051 -5256.413)">
    <g id="Grupo_1181817" data-name="Grupo 1181817" transform="translate(421.551 2745.256)">
      <g id="Grupo_1111316" data-name="Grupo 1111316" transform="translate(808.5 2517.157)">
        <g id="Grupo_1109835" data-name="Grupo 1109835" transform="translate(0 0)">
          <g id="Grupo_1107913" data-name="Grupo 1107913" transform="translate(0 0)">
            <g transform="matrix(1, 0, 0, 1, -9, -6)" filter="url(#Trazado_874925)">
              <g id="Trazado_874925-2" data-name="Trazado 874925" transform="translate(9 6)" fill="#4c6929" opacity="0.859">
                <path d="M 42.47446823120117 83.44929504394531 C 36.94229125976562 83.44929504394531 31.57638549804688 82.36614227294922 26.52582168579102 80.22994232177734 C 21.64678573608398 78.16628265380859 17.26464462280273 75.211669921875 13.50113868713379 71.44816589355469 C 9.737632751464844 67.68466949462891 6.78300952911377 63.30253982543945 4.719362258911133 58.42351913452148 C 2.583150625228882 53.37295150756836 1.499997615814209 48.00706100463867 1.499997615814209 42.47489547729492 C 1.499997615814209 36.94223403930664 2.583150625228882 31.57634162902832 4.719362258911133 26.52577781677246 C 6.78300952911377 21.64675331115723 9.737632751464844 17.26462364196777 13.50113868713379 13.50113010406494 C 17.26464462280273 9.737624168395996 21.64678573608398 6.783012390136719 26.52582168579102 4.719353199005127 C 31.57638549804688 2.583153486251831 36.94229125976562 1.500000476837158 42.47446823120117 1.500000476837158 C 48.00664520263672 1.500000476837158 53.37255096435547 2.583153486251831 58.42311477661133 4.719353199005127 C 63.30215072631836 6.783012390136719 67.68428802490234 9.737624168395996 71.44779968261719 13.50113010406494 C 75.2113037109375 17.26462364196777 78.16592407226562 21.64675331115723 80.22957611083984 26.52577781677246 C 82.36578369140625 31.57634162902832 83.44893646240234 36.94223403930664 83.44893646240234 42.47439956665039 C 83.44893646240234 48.00706100463867 82.36578369140625 53.37295150756836 80.22957611083984 58.42351913452148 C 78.16592407226562 63.30253982543945 75.2113037109375 67.68466949462891 71.44779968261719 71.44816589355469 C 67.68428802490234 75.211669921875 63.30215072631836 78.16628265380859 58.42311477661133 80.22994232177734 C 53.37255096435547 82.36614227294922 48.00664520263672 83.44929504394531 42.47446823120117 83.44929504394531 Z" stroke="none"/>
                <path d="M 42.47446823120117 2.999992370605469 C 37.14412307739258 2.999992370605469 31.97481536865234 4.04327392578125 27.11014938354492 6.100860595703125 C 22.40990829467773 8.088890075683594 18.18804168701172 10.93555450439453 14.56179809570312 14.56178283691406 C 10.93557739257812 18.18801116943359 8.088897705078125 22.40987396240234 6.100868225097656 27.11009979248047 C 4.043281555175781 31.97476577758789 3 37.14406204223633 3 42.47488784790039 C 3 47.80522155761719 4.043281555175781 52.97451400756836 6.100868225097656 57.83917999267578 C 8.088897705078125 62.53940582275391 10.93557739257812 66.76127624511719 14.56179809570312 70.38749694824219 C 18.18804168701172 74.01372528076172 22.40990829467773 76.86039733886719 27.11014938354492 78.84841918945312 C 31.97481536865234 80.906005859375 37.14412307739258 81.94928741455078 42.47446823120117 81.94928741455078 C 47.80481338500977 81.94928741455078 52.97412109375 80.906005859375 57.83879089355469 78.84841918945312 C 62.53902816772461 76.86039733886719 66.76089477539062 74.01372528076172 70.38713073730469 70.38749694824219 C 74.01335906982422 66.76127624511719 76.86003875732422 62.53940582275391 78.84806823730469 57.83917999267578 C 80.90565490722656 52.97451400756836 81.94893646240234 47.80522155761719 81.94893646240234 42.47439575195312 C 81.94893646240234 37.14406204223633 80.90565490722656 31.97476577758789 78.84806823730469 27.11009979248047 C 76.86003875732422 22.40987396240234 74.01335906982422 18.18801116943359 70.38713073730469 14.56178283691406 C 66.76089477539062 10.93555450439453 62.53902816772461 8.088890075683594 57.83879089355469 6.100860595703125 C 52.97412109375 4.04327392578125 47.80481338500977 2.999992370605469 42.47446823120117 2.999992370605469 M 42.47446823120117 -7.62939453125e-06 C 65.93246459960938 -7.62939453125e-06 84.94893646240234 19.01643371582031 84.94893646240234 42.47439575195312 L 84.94893646240234 42.47488784790039 C 84.94893646240234 65.93284606933594 65.93246459960938 84.94928741455078 42.47446823120117 84.94928741455078 C 19.01647186279297 84.94928741455078 0 65.93284606933594 0 42.47488784790039 L 0 42.47439575195312 C 0 19.01643371582031 19.01647186279297 -7.62939453125e-06 42.47446823120117 -7.62939453125e-06 Z" stroke="none" fill="#fff"/>
              </g>
            </g>
            <g id="Trazado_874923" data-name="Trazado 874923" transform="translate(0 0)" fill="none">
              <path d="M42.474,0A42.474,42.474,0,0,1,84.949,42.474h0A42.474,42.474,0,0,1,0,42.475H0A42.474,42.474,0,0,1,42.474,0Z" stroke="none"/>
              <path d="M 42.47446823120117 2.999992370605469 C 37.14412307739258 2.999992370605469 31.97481536865234 4.04327392578125 27.11014938354492 6.100860595703125 C 22.40990829467773 8.088890075683594 18.18804168701172 10.93555450439453 14.56179809570312 14.56178283691406 C 10.93557739257812 18.18801116943359 8.088897705078125 22.40987396240234 6.100868225097656 27.11009979248047 C 4.043281555175781 31.97476577758789 3 37.14406204223633 3 42.47488784790039 C 3 47.80522155761719 4.043281555175781 52.97451400756836 6.100868225097656 57.83917999267578 C 8.088897705078125 62.53940582275391 10.93557739257812 66.76127624511719 14.56179809570312 70.38749694824219 C 18.18804168701172 74.01372528076172 22.40990829467773 76.86039733886719 27.11014938354492 78.84841918945312 C 31.97481536865234 80.906005859375 37.14412307739258 81.94928741455078 42.47446823120117 81.94928741455078 C 47.80481338500977 81.94928741455078 52.97412109375 80.906005859375 57.83879089355469 78.84841918945312 C 62.53902816772461 76.86039733886719 66.76089477539062 74.01372528076172 70.38713073730469 70.38749694824219 C 74.01335906982422 66.76127624511719 76.86003875732422 62.53940582275391 78.84806823730469 57.83917999267578 C 80.90565490722656 52.97451400756836 81.94893646240234 47.80522155761719 81.94893646240234 42.47439575195312 C 81.94893646240234 37.14406204223633 80.90565490722656 31.97476577758789 78.84806823730469 27.11009979248047 C 76.86003875732422 22.40987396240234 74.01335906982422 18.18801116943359 70.38713073730469 14.56178283691406 C 66.76089477539062 10.93555450439453 62.53902816772461 8.088890075683594 57.83879089355469 6.100860595703125 C 52.97412109375 4.04327392578125 47.80481338500977 2.999992370605469 42.47446823120117 2.999992370605469 M 42.47446823120117 -7.62939453125e-06 C 65.93246459960938 -7.62939453125e-06 84.94893646240234 19.01643371582031 84.94893646240234 42.47439575195312 L 84.94893646240234 42.47488784790039 C 84.94893646240234 65.93284606933594 65.93246459960938 84.94928741455078 42.47446823120117 84.94928741455078 C 19.01647186279297 84.94928741455078 0 65.93284606933594 0 42.47488784790039 L 0 42.47439575195312 C 0 19.01643371582031 19.01647186279297 -7.62939453125e-06 42.47446823120117 -7.62939453125e-06 Z" stroke="none" fill="#fff"/>
            </g>
          </g>
        </g>
      </g>
    </g>
    <g id="confirmar" transform="translate(1246.051 5278.413)">
      <path id="Trazado_910041" data-name="Trazado 910041" d="M2,4H39.7V49.9H2Z" transform="translate(-0.18 -0.541)" fill="#88929f"/>
      <path id="Trazado_910042" data-name="Trazado 910042" d="M6,8H37.145V45.7H6Z" transform="translate(-0.902 -1.263)" fill="#c7e2fb"/>
      <path id="Trazado_910043" data-name="Trazado 910043" d="M6,39.955c16.332-.2,29.506-12.409,29.506-27.447A25.431,25.431,0,0,0,35.1,8H6Z" transform="translate(-0.902 -1.263)" fill="#ebf7fe"/>
      <path id="Trazado_910044" data-name="Trazado 910044" d="M42,46H58.392V59.114H42Z" transform="translate(-7.396 -8.118)" fill="#c18e5c"/>
      <path id="Trazado_910045" data-name="Trazado 910045" d="M42,56.37C48.884,55.311,54.6,51.349,57.381,46H42Z" transform="translate(-7.396 -8.118)" fill="#cda57d"/>
      <path id="Trazado_910046" data-name="Trazado 910046" d="M14,2H32.031V8.557H14Z" transform="translate(-2.345 -0.18)" fill="#c1c8d1"/>
      <g id="Grupo_1182024" data-name="Grupo 1182024" transform="translate(8.376 11.655)">
        <path id="Trazado_910047" data-name="Trazado 910047" d="M10,14h4.918v4.918H10Z" transform="translate(-10 -14)" fill="#4472b0"/>
        <path id="Trazado_910048" data-name="Trazado 910048" d="M10,24h4.918v4.918H10Z" transform="translate(-10 -15.804)" fill="#4472b0"/>
        <path id="Trazado_910049" data-name="Trazado 910049" d="M10,34h4.918v4.918H10Z" transform="translate(-10 -17.608)" fill="#4472b0"/>
        <path id="Trazado_910050" data-name="Trazado 910050" d="M10,44h4.918v4.918H10Z" transform="translate(-10 -19.412)" fill="#4472b0"/>
      </g>
      <path id="Trazado_910051" data-name="Trazado 910051" d="M50,46h3.278v4.918H50Z" transform="translate(-8.84 -8.118)" fill="#fff"/>
      <path id="Trazado_910052" data-name="Trazado 910052" d="M22,46H38.392V59.114H22Z" transform="translate(-3.788 -8.118)" fill="#c18e5c"/>
      <path id="Trazado_910053" data-name="Trazado 910053" d="M22,56.37C28.884,55.311,34.6,51.349,37.381,46H22Z" transform="translate(-3.788 -8.118)" fill="#cda57d"/>
      <path id="Trazado_910054" data-name="Trazado 910054" d="M30,46h3.278v4.918H30Z" transform="translate(-5.232 -8.118)" fill="#fff"/>
      <path id="Trazado_910055" data-name="Trazado 910055" d="M32,30H48.392V43.114H32Z" transform="translate(-5.592 -5.232)" fill="#c18e5c"/>
      <path id="Trazado_910056" data-name="Trazado 910056" d="M32,40.37C38.884,39.311,44.6,35.349,47.381,30H32Z" transform="translate(-5.592 -5.232)" fill="#cda57d"/>
      <path id="Trazado_910057" data-name="Trazado 910057" d="M40,30h3.278v4.918H40Z" transform="translate(-7.036 -5.232)" fill="#fff"/>
      <g id="Grupo_1182025" data-name="Grupo 1182025" transform="translate(1 1)">
        <path id="Trazado_910058" data-name="Trazado 910058" d="M14.4,12.692H9.82a.819.819,0,0,0-.82.82v4.918a.819.819,0,0,0,.82.82h4.918a.819.819,0,0,0,.82-.82V13.851l1.4-1.4L15.8,11.293Zm-1.639,1.639-2.119,2.119V14.331Zm1.159,3.278H11.8l2.119-2.119Z" transform="translate(-2.443 -2.857)"/>
        <path id="Trazado_910059" data-name="Trazado 910059" d="M14.4,22.692H9.82a.819.819,0,0,0-.82.82v4.918a.819.819,0,0,0,.82.82h4.918a.819.819,0,0,0,.82-.82V23.851l1.4-1.4L15.8,21.293Zm-1.639,1.639-2.119,2.119V24.331Zm1.159,3.278H11.8l2.119-2.119Z" transform="translate(-2.443 -4.661)"/>
        <path id="Trazado_910060" data-name="Trazado 910060" d="M14.4,32.692H9.82a.819.819,0,0,0-.82.82v4.918a.819.819,0,0,0,.82.82h4.918a.819.819,0,0,0,.82-.82V33.851l1.4-1.4L15.8,31.293Zm-1.639,1.639-2.119,2.119V34.331Zm1.159,3.278H11.8l2.119-2.119Z" transform="translate(-2.443 -6.465)"/>
        <path id="Trazado_910061" data-name="Trazado 910061" d="M15.8,41.293l-1.4,1.4H9.82a.819.819,0,0,0-.82.82v4.918a.819.819,0,0,0,.82.82h4.918a.819.819,0,0,0,.82-.82V43.851l1.4-1.4Zm-3.038,3.038-2.119,2.119V44.331Zm1.159,3.278H11.8l2.119-2.119Z" transform="translate(-2.443 -8.269)"/>
        <path id="Trazado_910062" data-name="Trazado 910062" d="M21,13H35.753v1.639H21Z" transform="translate(-4.608 -3.165)"/>
        <path id="Trazado_910063" data-name="Trazado 910063" d="M21,19H35.753v1.639H21Z" transform="translate(-4.608 -4.247)"/>
        <path id="Trazado_910064" data-name="Trazado 910064" d="M21,23H35.753v1.639H21Z" transform="translate(-4.608 -4.969)"/>
        <path id="Trazado_910065" data-name="Trazado 910065" d="M21,29h6.557v1.639H21Z" transform="translate(-4.608 -6.051)"/>
        <path id="Trazado_910066" data-name="Trazado 910066" d="M21,33h6.557v1.639H21Z" transform="translate(-4.608 -6.773)"/>
        <path id="Trazado_910067" data-name="Trazado 910067" d="M21,39h6.557v1.639H21Z" transform="translate(-4.608 -7.855)"/>
        <path id="Trazado_910068" data-name="Trazado 910068" d="M51,51.815a.819.819,0,0,0,.82-.82V37.882a.819.819,0,0,0-.82-.82H43.619V24.768a.819.819,0,0,0-.82-.82H40.341V3.459a.819.819,0,0,0-.82-.82H30.506V1.82a.819.819,0,0,0-.82-.82H11.655a.819.819,0,0,0-.82.82v.82H1.82a.819.819,0,0,0-.82.82v45.9a.819.819,0,0,0,.82.82H17.392V51a.819.819,0,0,0,.82.82ZM41.98,38.7h1.639V41.98H41.98ZM27.227,37.062V25.588h4.918v4.1a.819.819,0,0,0,.82.82h3.278a.819.819,0,0,0,.82-.82v-4.1H41.98V37.062ZM25.588,38.7h1.639V41.98H25.588Zm8.2-13.114h1.639v3.278H33.784ZM38.7,4.278v19.67H37.062V6.737a.819.819,0,0,0-.82-.82H30.506V4.278ZM12.474,2.639H28.866V7.557H12.474Zm-9.835,45.9V4.278h8.2V5.918H5.1a.819.819,0,0,0-.82.82v37.7a.819.819,0,0,0,.82.82H17.392v3.278ZM17.392,37.882v5.737H5.918V7.557h4.918v.82a.819.819,0,0,0,.82.82H29.686a.819.819,0,0,0,.82-.82v-.82h4.918V23.949H26.408a.819.819,0,0,0-.82.82V37.062H18.212A.819.819,0,0,0,17.392,37.882Zm1.639.82h4.918v4.1a.819.819,0,0,0,.82.82h3.278a.819.819,0,0,0,.82-.82V38.7h4.918V50.176H19.031ZM50.176,50.176H35.423V38.7h4.918v4.1a.819.819,0,0,0,.82.82h3.278a.819.819,0,0,0,.82-.82V38.7h4.918Z" transform="translate(-1 -1)"/>
        <path id="Trazado_910069" data-name="Trazado 910069" d="M55,57h3.278v1.639H55Z" transform="translate(-10.742 -11.102)"/>
        <path id="Trazado_910070" data-name="Trazado 910070" d="M45,41h3.278v1.639H45Z" transform="translate(-8.938 -8.216)"/>
        <path id="Trazado_910071" data-name="Trazado 910071" d="M35,57h3.278v1.639H35Z" transform="translate(-7.134 -11.102)"/>
      </g>
    </g>
  </g>
</svg>
