<svg xmlns="http://www.w3.org/2000/svg" xmlns:xlink="http://www.w3.org/1999/xlink" width="102.949" height="102.949" viewBox="0 0 102.949 102.949">
  <defs>
    <filter id="Trazado_874925" x="0" y="0" width="102.949" height="102.949" filterUnits="userSpaceOnUse">
      <feOffset dy="3" input="SourceAlpha"/>
      <feGaussianBlur stdDeviation="3" result="blur"/>
      <feFlood flood-opacity="0.161"/>
      <feComposite operator="in" in2="blur"/>
      <feComposite in="SourceGraphic"/>
    </filter>
  </defs>
  <g id="Grupo_1182020" data-name="Grupo 1182020" transform="translate(-591.051 -5256.413)">
    <g id="Grupo_1181815" data-name="Grupo 1181815" transform="translate(-208.449 2745.256)">
      <g id="Grupo_1111316" data-name="Grupo 1111316" transform="translate(808.5 2517.157)">
        <g id="Grupo_1109835" data-name="Grupo 1109835" transform="translate(0 0)">
          <g id="Grupo_1107913" data-name="Grupo 1107913" transform="translate(0 0)">
            <g transform="matrix(1, 0, 0, 1, -9, -6)" filter="url(#Trazado_874925)">
              <g id="Trazado_874925-2" data-name="Trazado 874925" transform="translate(9 6)" fill="#4c6929" opacity="0.859">
                <path d="M 42.47446823120117 83.44929504394531 C 36.94229125976562 83.44929504394531 31.57638549804688 82.36614227294922 26.52582168579102 80.22994232177734 C 21.64678573608398 78.16628265380859 17.26464462280273 75.211669921875 13.50113868713379 71.44816589355469 C 9.737632751464844 67.68466949462891 6.78300952911377 63.30253982543945 4.719362258911133 58.42351913452148 C 2.583150625228882 53.37295150756836 1.499997615814209 48.00706100463867 1.499997615814209 42.47489547729492 C 1.499997615814209 36.94223403930664 2.583150625228882 31.57634162902832 4.719362258911133 26.52577781677246 C 6.78300952911377 21.64675331115723 9.737632751464844 17.26462364196777 13.50113868713379 13.50113010406494 C 17.26464462280273 9.737624168395996 21.64678573608398 6.783012390136719 26.52582168579102 4.719353199005127 C 31.57638549804688 2.583153486251831 36.94229125976562 1.500000476837158 42.47446823120117 1.500000476837158 C 48.00664520263672 1.500000476837158 53.37255096435547 2.583153486251831 58.42311477661133 4.719353199005127 C 63.30215072631836 6.783012390136719 67.68428802490234 9.737624168395996 71.44779968261719 13.50113010406494 C 75.2113037109375 17.26462364196777 78.16592407226562 21.64675331115723 80.22957611083984 26.52577781677246 C 82.36578369140625 31.57634162902832 83.44893646240234 36.94223403930664 83.44893646240234 42.47439956665039 C 83.44893646240234 48.00706100463867 82.36578369140625 53.37295150756836 80.22957611083984 58.42351913452148 C 78.16592407226562 63.30253982543945 75.2113037109375 67.68466949462891 71.44779968261719 71.44816589355469 C 67.68428802490234 75.211669921875 63.30215072631836 78.16628265380859 58.42311477661133 80.22994232177734 C 53.37255096435547 82.36614227294922 48.00664520263672 83.44929504394531 42.47446823120117 83.44929504394531 Z" stroke="none"/>
                <path d="M 42.47446823120117 2.999992370605469 C 37.14412307739258 2.999992370605469 31.97481536865234 4.04327392578125 27.11014938354492 6.100860595703125 C 22.40990829467773 8.088890075683594 18.18804168701172 10.93555450439453 14.56179809570312 14.56178283691406 C 10.93557739257812 18.18801116943359 8.088897705078125 22.40987396240234 6.100868225097656 27.11009979248047 C 4.043281555175781 31.97476577758789 3 37.14406204223633 3 42.47488784790039 C 3 47.80522155761719 4.043281555175781 52.97451400756836 6.100868225097656 57.83917999267578 C 8.088897705078125 62.53940582275391 10.93557739257812 66.76127624511719 14.56179809570312 70.38749694824219 C 18.18804168701172 74.01372528076172 22.40990829467773 76.86039733886719 27.11014938354492 78.84841918945312 C 31.97481536865234 80.906005859375 37.14412307739258 81.94928741455078 42.47446823120117 81.94928741455078 C 47.80481338500977 81.94928741455078 52.97412109375 80.906005859375 57.83879089355469 78.84841918945312 C 62.53902816772461 76.86039733886719 66.76089477539062 74.01372528076172 70.38713073730469 70.38749694824219 C 74.01335906982422 66.76127624511719 76.86003875732422 62.53940582275391 78.84806823730469 57.83917999267578 C 80.90565490722656 52.97451400756836 81.94893646240234 47.80522155761719 81.94893646240234 42.47439575195312 C 81.94893646240234 37.14406204223633 80.90565490722656 31.97476577758789 78.84806823730469 27.11009979248047 C 76.86003875732422 22.40987396240234 74.01335906982422 18.18801116943359 70.38713073730469 14.56178283691406 C 66.76089477539062 10.93555450439453 62.53902816772461 8.088890075683594 57.83879089355469 6.100860595703125 C 52.97412109375 4.04327392578125 47.80481338500977 2.999992370605469 42.47446823120117 2.999992370605469 M 42.47446823120117 -7.62939453125e-06 C 65.93246459960938 -7.62939453125e-06 84.94893646240234 19.01643371582031 84.94893646240234 42.47439575195312 L 84.94893646240234 42.47488784790039 C 84.94893646240234 65.93284606933594 65.93246459960938 84.94928741455078 42.47446823120117 84.94928741455078 C 19.01647186279297 84.94928741455078 0 65.93284606933594 0 42.47488784790039 L 0 42.47439575195312 C 0 19.01643371582031 19.01647186279297 -7.62939453125e-06 42.47446823120117 -7.62939453125e-06 Z" stroke="none" fill="#fff"/>
              </g>
            </g>
            <g id="Trazado_874923" data-name="Trazado 874923" transform="translate(0 0)" fill="none">
              <path d="M42.474,0A42.474,42.474,0,0,1,84.949,42.474h0A42.474,42.474,0,0,1,0,42.475H0A42.474,42.474,0,0,1,42.474,0Z" stroke="none"/>
              <path d="M 42.47446823120117 2.999992370605469 C 37.14412307739258 2.999992370605469 31.97481536865234 4.04327392578125 27.11014938354492 6.100860595703125 C 22.40990829467773 8.088890075683594 18.18804168701172 10.93555450439453 14.56179809570312 14.56178283691406 C 10.93557739257812 18.18801116943359 8.088897705078125 22.40987396240234 6.100868225097656 27.11009979248047 C 4.043281555175781 31.97476577758789 3 37.14406204223633 3 42.47488784790039 C 3 47.80522155761719 4.043281555175781 52.97451400756836 6.100868225097656 57.83917999267578 C 8.088897705078125 62.53940582275391 10.93557739257812 66.76127624511719 14.56179809570312 70.38749694824219 C 18.18804168701172 74.01372528076172 22.40990829467773 76.86039733886719 27.11014938354492 78.84841918945312 C 31.97481536865234 80.906005859375 37.14412307739258 81.94928741455078 42.47446823120117 81.94928741455078 C 47.80481338500977 81.94928741455078 52.97412109375 80.906005859375 57.83879089355469 78.84841918945312 C 62.53902816772461 76.86039733886719 66.76089477539062 74.01372528076172 70.38713073730469 70.38749694824219 C 74.01335906982422 66.76127624511719 76.86003875732422 62.53940582275391 78.84806823730469 57.83917999267578 C 80.90565490722656 52.97451400756836 81.94893646240234 47.80522155761719 81.94893646240234 42.47439575195312 C 81.94893646240234 37.14406204223633 80.90565490722656 31.97476577758789 78.84806823730469 27.11009979248047 C 76.86003875732422 22.40987396240234 74.01335906982422 18.18801116943359 70.38713073730469 14.56178283691406 C 66.76089477539062 10.93555450439453 62.53902816772461 8.088890075683594 57.83879089355469 6.100860595703125 C 52.97412109375 4.04327392578125 47.80481338500977 2.999992370605469 42.47446823120117 2.999992370605469 M 42.47446823120117 -7.62939453125e-06 C 65.93246459960938 -7.62939453125e-06 84.94893646240234 19.01643371582031 84.94893646240234 42.47439575195312 L 84.94893646240234 42.47488784790039 C 84.94893646240234 65.93284606933594 65.93246459960938 84.94928741455078 42.47446823120117 84.94928741455078 C 19.01647186279297 84.94928741455078 0 65.93284606933594 0 42.47488784790039 L 0 42.47439575195312 C 0 19.01643371582031 19.01647186279297 -7.62939453125e-06 42.47446823120117 -7.62939453125e-06 Z" stroke="none" fill="#fff"/>
            </g>
          </g>
        </g>
      </g>
    </g>
    <g id="enviado" transform="translate(612.051 5192.351)">
      <path id="Trazado_910013" data-name="Trazado 910013" d="M79.415,102.079H43.226a1,1,0,0,0-1.005,1.005v21.11h3.016a2.01,2.01,0,1,1,0,4.021H42.221v3.016a1,1,0,0,0,1.005,1.005H80.421V103.084A1,1,0,0,0,79.415,102.079Z" transform="translate(-37.258 -7.075)" fill="#b4e66e"/>
      <path id="Trazado_910014" data-name="Trazado 910014" d="M379.228,238.9H367.165v14.073h16.084V242.919A4.021,4.021,0,0,0,379.228,238.9Z" transform="translate(-324.002 -127.809)" fill="#ffdc64"/>
      <path id="Trazado_910015" data-name="Trazado 910015" d="M367.165,264.551h10.89a2.01,2.01,0,0,1,2.01,2.01v9.047h-12.9Z" transform="translate(-324.002 -150.447)" fill="#ffc850"/>
      <path id="Trazado_910016" data-name="Trazado 910016" d="M375.207,136.284h-8.042v4.021h11.058V139.3A3.016,3.016,0,0,0,375.207,136.284Z" transform="translate(-324.002 -37.258)" fill="#ffdc64"/>
      <path id="Trazado_910017" data-name="Trazado 910017" d="M379.228,178.531l-2.011-8.042H367.165v8.042Z" transform="translate(-324.002 -67.442)" fill="#b4e6ff"/>
      <path id="Trazado_910018" data-name="Trazado 910018" d="M469.779,273.1H473.8v4.021h-2.01a2.01,2.01,0,0,1-2.01-2.01V273.1Z" transform="translate(-414.553 -157.993)" fill="#f1f4fb"/>
      <path id="Trazado_910019" data-name="Trazado 910019" d="M374.2,298.756a8.037,8.037,0,0,0-7.037,4.152v2.885h15.009A8.038,8.038,0,0,0,374.2,298.756Z" transform="translate(-324.002 -180.631)" fill="#e1a546"/>
      <path id="Trazado_910020" data-name="Trazado 910020" d="M476.9,320.412V324.9h2.109A8.023,8.023,0,0,0,476.9,320.412Z" transform="translate(-420.84 -199.741)" fill="#ffc850"/>
      <circle id="Elipse_11642" data-name="Elipse 11642" cx="5.026" cy="5.026" r="5.026" transform="translate(45.173 121.141)" fill="#5b5d6e"/>
      <path id="Trazado_910021" data-name="Trazado 910021" d="M371.187,173.5h6.785l-.754-3.016H367.166v8.042h3.016V174.51A1,1,0,0,1,371.187,173.5Z" transform="translate(-324.003 -67.442)" fill="#9bd6ff"/>
      <path id="Trazado_910022" data-name="Trazado 910022" d="M54.284,298.756a8.022,8.022,0,0,0-6.272,3.016H42.221v3.016a1,1,0,0,0,1.005,1.005H80.421v-4.021H60.556A8.022,8.022,0,0,0,54.284,298.756Z" transform="translate(-37.258 -180.631)" fill="#a0d755"/>
      <circle id="Elipse_11643" data-name="Elipse 11643" cx="5.026" cy="5.026" r="5.026" transform="translate(12 121.141)" fill="#5b5d6e"/>
      <path id="Trazado_910023" data-name="Trazado 910023" d="M55.976,110.2l-1.559-6.235a.943.943,0,0,0,.746-.922v-1.005A3.963,3.963,0,0,0,51.2,98.083h-7.1V96.01a1.95,1.95,0,0,0-1.948-1.948H5.969A1.95,1.95,0,0,0,4.021,96.01V113.1a.942.942,0,1,0,1.885,0V96.01a.063.063,0,0,1,.063-.063H42.158a.063.063,0,0,1,.063.063V113.1a.942.942,0,0,0,1.885,0v-1.068H55.228a3.084,3.084,0,0,1,2.929,2.136h-2.93a.942.942,0,0,0-.942.942v2.01a2.956,2.956,0,0,0,2.953,2.953H58.3v4.147H55.84a5.967,5.967,0,0,0-11.281,0h-.454v-7.1a.942.942,0,0,0-1.885,0v7.1H22.667a5.967,5.967,0,0,0-11.281,0H5.969a.063.063,0,0,1-.063-.063v-2.073H9.99a.942.942,0,1,0,0-1.885H.942a.942.942,0,1,0,0,1.885H4.021v2.073A1.95,1.95,0,0,0,5.969,126.1h5.091c0,.021,0,.042,0,.063a5.969,5.969,0,0,0,11.937,0c0-.021,0-.042,0-.063H44.232c0,.021,0,.042,0,.063a5.969,5.969,0,0,0,11.937,0c0-.021,0-.042,0-.063h3.08a.942.942,0,0,0,.942-.942V115.109A4.971,4.971,0,0,0,55.976,110.2Zm-11.87-6.214H52.48l1.539,6.157H44.105v-6.157Zm7.1-4.021a2.076,2.076,0,0,1,2.073,2.073v.063H44.105V99.968ZM17.026,130.251a4.084,4.084,0,1,1,4.084-4.084A4.088,4.088,0,0,1,17.026,130.251Zm33.173,0a4.084,4.084,0,1,1,4.084-4.084A4.088,4.088,0,0,1,50.2,130.251Zm7.037-12.063a1.069,1.069,0,0,1-1.068-1.068v-1.068H58.3v2.136H57.236Z"/>
      <path id="Trazado_910024" data-name="Trazado 910024" d="M130.215,350.6a1.948,1.948,0,1,0,1.948,1.948A1.95,1.95,0,0,0,130.215,350.6Z" transform="translate(-113.188 -226.377)"/>
      <path id="Trazado_910025" data-name="Trazado 910025" d="M412.4,350.6a1.948,1.948,0,1,0,1.948,1.948A1.95,1.95,0,0,0,412.4,350.6Z" transform="translate(-362.203 -226.377)"/>
      <path id="Trazado_910026" data-name="Trazado 910026" d="M205.228,317.334a.943.943,0,0,0,.942.942h14.073a.942.942,0,1,0,0-1.885H206.17A.942.942,0,0,0,205.228,317.334Z" transform="translate(-181.102 -196.193)"/>
      <path id="Trazado_910027" data-name="Trazado 910027" d="M18.044,284.072H30.107a.942.942,0,1,0,0-1.885H18.044a.942.942,0,1,0,0,1.885Z" transform="translate(-15.092 -166.01)"/>
      <path id="Trazado_910028" data-name="Trazado 910028" d="M159.719,171.3l-8.381,8.381-4.36-4.36a.942.942,0,0,0-1.333,1.333l5.026,5.026a.942.942,0,0,0,1.333,0l9.047-9.047a.942.942,0,1,0-1.333-1.333Z" transform="translate(-128.28 -67.914)"/>
    </g>
  </g>
</svg>
