<svg xmlns="http://www.w3.org/2000/svg" xmlns:xlink="http://www.w3.org/1999/xlink" width="102.949" height="102.949" viewBox="0 0 102.949 102.949">
  <defs>
    <filter id="Trazado_874925" x="0" y="0" width="102.949" height="102.949" filterUnits="userSpaceOnUse">
      <feOffset dy="3" input="SourceAlpha"/>
      <feGaussianBlur stdDeviation="3" result="blur"/>
      <feFlood flood-opacity="0.161"/>
      <feComposite operator="in" in2="blur"/>
      <feComposite in="SourceGraphic"/>
    </filter>
    <clipPath id="clip-path">
      <path id="path5211" d="M0-682.665H52.665V-630H0Z" transform="translate(0 682.665)"/>
    </clipPath>
  </defs>
  <g id="Grupo_1181971" data-name="Grupo 1181971" transform="translate(-1221 -1214.358)">
    <g id="Grupo_1118026" data-name="Grupo 1118026" transform="translate(421.5 -1296.799)">
      <g id="Grupo_1111316" data-name="Grupo 1111316" transform="translate(808.5 2517.157)">
        <g id="Grupo_1109835" data-name="Grupo 1109835" transform="translate(0 0)">
          <g id="Grupo_1107913" data-name="Grupo 1107913" transform="translate(0 0)">
            <g transform="matrix(1, 0, 0, 1, -9, -6)" filter="url(#Trazado_874925)">
              <g id="Trazado_874925-2" data-name="Trazado 874925" transform="translate(9 6)" fill="#4c6929" opacity="0.859">
                <path d="M 42.47446823120117 83.44929504394531 C 36.94229125976562 83.44929504394531 31.57638549804688 82.36614227294922 26.52582168579102 80.22994232177734 C 21.64678573608398 78.16628265380859 17.26464462280273 75.211669921875 13.50113868713379 71.44816589355469 C 9.737632751464844 67.68466949462891 6.78300952911377 63.30253982543945 4.719362258911133 58.42351913452148 C 2.583150625228882 53.37295150756836 1.499997615814209 48.00706100463867 1.499997615814209 42.47489547729492 C 1.499997615814209 36.94223403930664 2.583150625228882 31.57634162902832 4.719362258911133 26.52577781677246 C 6.78300952911377 21.64675331115723 9.737632751464844 17.26462364196777 13.50113868713379 13.50113010406494 C 17.26464462280273 9.737624168395996 21.64678573608398 6.783012390136719 26.52582168579102 4.719353199005127 C 31.57638549804688 2.583153486251831 36.94229125976562 1.500000476837158 42.47446823120117 1.500000476837158 C 48.00664520263672 1.500000476837158 53.37255096435547 2.583153486251831 58.42311477661133 4.719353199005127 C 63.30215072631836 6.783012390136719 67.68428802490234 9.737624168395996 71.44779968261719 13.50113010406494 C 75.2113037109375 17.26462364196777 78.16592407226562 21.64675331115723 80.22957611083984 26.52577781677246 C 82.36578369140625 31.57634162902832 83.44893646240234 36.94223403930664 83.44893646240234 42.47439956665039 C 83.44893646240234 48.00706100463867 82.36578369140625 53.37295150756836 80.22957611083984 58.42351913452148 C 78.16592407226562 63.30253982543945 75.2113037109375 67.68466949462891 71.44779968261719 71.44816589355469 C 67.68428802490234 75.211669921875 63.30215072631836 78.16628265380859 58.42311477661133 80.22994232177734 C 53.37255096435547 82.36614227294922 48.00664520263672 83.44929504394531 42.47446823120117 83.44929504394531 Z" stroke="none"/>
                <path d="M 42.47446823120117 2.999992370605469 C 37.14412307739258 2.999992370605469 31.97481536865234 4.04327392578125 27.11014938354492 6.100860595703125 C 22.40990829467773 8.088890075683594 18.18804168701172 10.93555450439453 14.56179809570312 14.56178283691406 C 10.93557739257812 18.18801116943359 8.088897705078125 22.40987396240234 6.100868225097656 27.11009979248047 C 4.043281555175781 31.97476577758789 3 37.14406204223633 3 42.47488784790039 C 3 47.80522155761719 4.043281555175781 52.97451400756836 6.100868225097656 57.83917999267578 C 8.088897705078125 62.53940582275391 10.93557739257812 66.76127624511719 14.56179809570312 70.38749694824219 C 18.18804168701172 74.01372528076172 22.40990829467773 76.86039733886719 27.11014938354492 78.84841918945312 C 31.97481536865234 80.906005859375 37.14412307739258 81.94928741455078 42.47446823120117 81.94928741455078 C 47.80481338500977 81.94928741455078 52.97412109375 80.906005859375 57.83879089355469 78.84841918945312 C 62.53902816772461 76.86039733886719 66.76089477539062 74.01372528076172 70.38713073730469 70.38749694824219 C 74.01335906982422 66.76127624511719 76.86003875732422 62.53940582275391 78.84806823730469 57.83917999267578 C 80.90565490722656 52.97451400756836 81.94893646240234 47.80522155761719 81.94893646240234 42.47439575195312 C 81.94893646240234 37.14406204223633 80.90565490722656 31.97476577758789 78.84806823730469 27.11009979248047 C 76.86003875732422 22.40987396240234 74.01335906982422 18.18801116943359 70.38713073730469 14.56178283691406 C 66.76089477539062 10.93555450439453 62.53902816772461 8.088890075683594 57.83879089355469 6.100860595703125 C 52.97412109375 4.04327392578125 47.80481338500977 2.999992370605469 42.47446823120117 2.999992370605469 M 42.47446823120117 -7.62939453125e-06 C 65.93246459960938 -7.62939453125e-06 84.94893646240234 19.01643371582031 84.94893646240234 42.47439575195312 L 84.94893646240234 42.47488784790039 C 84.94893646240234 65.93284606933594 65.93246459960938 84.94928741455078 42.47446823120117 84.94928741455078 C 19.01647186279297 84.94928741455078 0 65.93284606933594 0 42.47488784790039 L 0 42.47439575195312 C 0 19.01643371582031 19.01647186279297 -7.62939453125e-06 42.47446823120117 -7.62939453125e-06 Z" stroke="none" fill="#fff"/>
              </g>
            </g>
            <g id="Trazado_874923" data-name="Trazado 874923" transform="translate(0 0)" fill="none">
              <path d="M42.474,0A42.474,42.474,0,0,1,84.949,42.474h0A42.474,42.474,0,0,1,0,42.475H0A42.474,42.474,0,0,1,42.474,0Z" stroke="none"/>
              <path d="M 42.47446823120117 2.999992370605469 C 37.14412307739258 2.999992370605469 31.97481536865234 4.04327392578125 27.11014938354492 6.100860595703125 C 22.40990829467773 8.088890075683594 18.18804168701172 10.93555450439453 14.56179809570312 14.56178283691406 C 10.93557739257812 18.18801116943359 8.088897705078125 22.40987396240234 6.100868225097656 27.11009979248047 C 4.043281555175781 31.97476577758789 3 37.14406204223633 3 42.47488784790039 C 3 47.80522155761719 4.043281555175781 52.97451400756836 6.100868225097656 57.83917999267578 C 8.088897705078125 62.53940582275391 10.93557739257812 66.76127624511719 14.56179809570312 70.38749694824219 C 18.18804168701172 74.01372528076172 22.40990829467773 76.86039733886719 27.11014938354492 78.84841918945312 C 31.97481536865234 80.906005859375 37.14412307739258 81.94928741455078 42.47446823120117 81.94928741455078 C 47.80481338500977 81.94928741455078 52.97412109375 80.906005859375 57.83879089355469 78.84841918945312 C 62.53902816772461 76.86039733886719 66.76089477539062 74.01372528076172 70.38713073730469 70.38749694824219 C 74.01335906982422 66.76127624511719 76.86003875732422 62.53940582275391 78.84806823730469 57.83917999267578 C 80.90565490722656 52.97451400756836 81.94893646240234 47.80522155761719 81.94893646240234 42.47439575195312 C 81.94893646240234 37.14406204223633 80.90565490722656 31.97476577758789 78.84806823730469 27.11009979248047 C 76.86003875732422 22.40987396240234 74.01335906982422 18.18801116943359 70.38713073730469 14.56178283691406 C 66.76089477539062 10.93555450439453 62.53902816772461 8.088890075683594 57.83879089355469 6.100860595703125 C 52.97412109375 4.04327392578125 47.80481338500977 2.999992370605469 42.47446823120117 2.999992370605469 M 42.47446823120117 -7.62939453125e-06 C 65.93246459960938 -7.62939453125e-06 84.94893646240234 19.01643371582031 84.94893646240234 42.47439575195312 L 84.94893646240234 42.47488784790039 C 84.94893646240234 65.93284606933594 65.93246459960938 84.94928741455078 42.47446823120117 84.94928741455078 C 19.01647186279297 84.94928741455078 0 65.93284606933594 0 42.47488784790039 L 0 42.47439575195312 C 0 19.01643371582031 19.01647186279297 -7.62939453125e-06 42.47446823120117 -7.62939453125e-06 Z" stroke="none" fill="#fff"/>
            </g>
          </g>
        </g>
      </g>
    </g>
    <g id="g5205" transform="translate(1246.142 1920.191)">
      <g id="g5207" transform="translate(0 -682.665)">
        <g id="g5209" transform="translate(0 0)" clip-path="url(#clip-path)">
          <g id="g5215" transform="translate(1.029 7.303)">
            <path id="path5217" d="M-589.808-137.945l-35.285-11.389a1.869,1.869,0,0,0-.717-.142,13.258,13.258,0,0,0-9.4,3.909,13.275,13.275,0,0,0-3.906,9.4v0h50.608v0a1.874,1.874,0,0,0-1.3-1.779" transform="translate(639.113 149.477)" fill="#ffe6b4" fill-rule="evenodd"/>
          </g>
          <g id="g5219" transform="translate(1.029 20.618)">
            <path id="path5221" d="M-375.791-186.644a2.057,2.057,0,0,1,2.057,2.057,2.057,2.057,0,0,1-2.057,2.057,2.057,2.057,0,0,1-2.057-2.057,2.057,2.057,0,0,1,2.057-2.057m8.435-6.12a2.314,2.314,0,0,1,2.314-2.314,2.314,2.314,0,0,1,2.314,2.314,2.314,2.314,0,0,1-2.314,2.314,2.314,2.314,0,0,1-2.314-2.314m-23.5,5.915a2.314,2.314,0,0,1,2.314,2.314,2.314,2.314,0,0,1-2.314,2.314,2.314,2.314,0,0,1-2.314-2.314,2.314,2.314,0,0,1,2.314-2.314m-8.486-7.2a2.057,2.057,0,0,1,2.057-2.057,2.057,2.057,0,0,1,2.057,2.057,2.057,2.057,0,0,1-2.057,2.057,2.057,2.057,0,0,1-2.057-2.057m14.5.463a3.086,3.086,0,0,1,3.086-3.086,3.086,3.086,0,0,1,3.086,3.086,3.086,3.086,0,0,1-3.086,3.086,3.086,3.086,0,0,1-3.086-3.086m28.245-8.659h-50.608v22.869a1.874,1.874,0,0,0,1.874,1.875h46.861a1.874,1.874,0,0,0,1.873-1.875Z" transform="translate(407.206 202.246)" fill="#ffe6b4" fill-rule="evenodd"/>
          </g>
          <g id="g5223" transform="translate(8.888 26.757)">
            <path id="path5225" d="M-49.218-24.609a2.057,2.057,0,0,0-2.057-2.057,2.057,2.057,0,0,0-2.057,2.057,2.057,2.057,0,0,0,2.057,2.057,2.057,2.057,0,0,0,2.057-2.057" transform="translate(53.332 26.667)" fill="#5cd0b3" fill-rule="evenodd"/>
          </g>
          <g id="g5227" transform="translate(15.059 36.014)">
            <path id="path5229" d="M-27.686,0A2.314,2.314,0,0,0-30,2.314a2.314,2.314,0,0,0,2.314,2.314,2.314,2.314,0,0,0,2.314-2.314A2.314,2.314,0,0,0-27.686,0" transform="translate(30)" fill="#5cd0b3" fill-rule="evenodd"/>
          </g>
          <g id="g5231" transform="translate(23.391 26.191)">
            <path id="path5233" d="M0-36.914a3.086,3.086,0,0,0,3.086,3.086,3.086,3.086,0,0,0,3.086-3.086A3.086,3.086,0,0,0,3.086-40,3.086,3.086,0,0,0,0-36.914" transform="translate(0 40)" fill="#5cd0b3" fill-rule="evenodd"/>
          </g>
          <g id="g5235" transform="translate(30.386 36.22)">
            <path id="path5237" d="M-24.608,0a2.057,2.057,0,0,0-2.057,2.057,2.057,2.057,0,0,0,2.057,2.057,2.057,2.057,0,0,0,2.057-2.057A2.057,2.057,0,0,0-24.608,0" transform="translate(26.665 0)" fill="#5cd0b3" fill-rule="evenodd"/>
          </g>
          <g id="g5239" transform="translate(40.878 27.786)">
            <path id="path5241" d="M0-27.686a2.314,2.314,0,0,0,2.314,2.314,2.314,2.314,0,0,0,2.314-2.314A2.314,2.314,0,0,0,2.314-30,2.314,2.314,0,0,0,0-27.686" transform="translate(0 30)" fill="#5cd0b3" fill-rule="evenodd"/>
          </g>
          <g id="g5243" transform="translate(0 6.274)">
            <path id="path5245" d="M-180.737-15.18h0a2.884,2.884,0,0,1,1.069.2L-144.419-3.6A2.89,2.89,0,0,1-142.4-.84V22.033a2.906,2.906,0,0,1-2.9,2.9h-46.861a2.906,2.906,0,0,1-2.9-2.9V-.84a14.243,14.243,0,0,1,4.207-10.13A14.227,14.227,0,0,1-180.737-15.18Zm35.431,38.059a.846.846,0,0,0,.845-.846V-.84a.851.851,0,0,0-.588-.8l-35.286-11.39q-.04-.013-.079-.029a.838.838,0,0,0-.323-.064,12.183,12.183,0,0,0-8.669,3.607A12.2,12.2,0,0,0-193.012-.84V22.033a.846.846,0,0,0,.845.846Z" transform="translate(195.069 15.18)"/>
          </g>
          <g id="g5247" transform="translate(0.253 19.589)">
            <path id="path5249" d="M-242.057-11.276h-9.175a1.029,1.029,0,0,1-1.029-1.029,1.029,1.029,0,0,1,1.029-1.029h9.175a1.029,1.029,0,0,1,1.029,1.029A1.029,1.029,0,0,1-242.057-11.276Z" transform="translate(252.261 13.333)"/>
          </g>
          <g id="g5251" transform="translate(7.859 25.728)">
            <path id="path5253" d="M-36.914-60.495A3.089,3.089,0,0,1-40-63.581a3.089,3.089,0,0,1,3.086-3.086,3.089,3.089,0,0,1,3.086,3.086A3.089,3.089,0,0,1-36.914-60.495Zm0-4.114a1.03,1.03,0,0,0-1.029,1.029,1.03,1.03,0,0,0,1.029,1.029,1.03,1.03,0,0,0,1.029-1.029A1.03,1.03,0,0,0-36.914-64.609Z" transform="translate(40 66.666)"/>
          </g>
          <g id="g5255" transform="translate(29.357 35.192)">
            <path id="path5257" d="M-36.914-60.495A3.089,3.089,0,0,1-40-63.581a3.089,3.089,0,0,1,3.086-3.086,3.089,3.089,0,0,1,3.086,3.086A3.089,3.089,0,0,1-36.914-60.495Zm0-4.114a1.03,1.03,0,0,0-1.029,1.029,1.03,1.03,0,0,0,1.029,1.029,1.03,1.03,0,0,0,1.029-1.029A1.03,1.03,0,0,0-36.914-64.609Z" transform="translate(40 66.666)"/>
          </g>
          <g id="g5259" transform="translate(39.849 26.757)">
            <path id="path5261" d="M-39.991-66.648a3.347,3.347,0,0,1-3.343-3.343,3.347,3.347,0,0,1,3.343-3.343,3.347,3.347,0,0,1,3.343,3.343A3.347,3.347,0,0,1-39.991-66.648Zm0-4.629a1.287,1.287,0,0,0-1.286,1.286,1.287,1.287,0,0,0,1.286,1.286,1.287,1.287,0,0,0,1.286-1.286A1.287,1.287,0,0,0-39.991-71.277Z" transform="translate(43.335 73.334)"/>
          </g>
          <g id="g5263" transform="translate(22.362 25.163)">
            <path id="path5265" d="M-49.22-85.1a4.119,4.119,0,0,1-4.115-4.114,4.119,4.119,0,0,1,4.115-4.114,4.119,4.119,0,0,1,4.114,4.114A4.119,4.119,0,0,1-49.22-85.1Zm0-6.172a2.06,2.06,0,0,0-2.057,2.057,2.06,2.06,0,0,0,2.057,2.057,2.06,2.06,0,0,0,2.057-2.057A2.06,2.06,0,0,0-49.22-91.276Z" transform="translate(53.335 93.333)"/>
          </g>
          <g id="g5267" transform="translate(14.031 34.986)">
            <path id="path5269" d="M-39.991-66.648a3.347,3.347,0,0,1-3.343-3.343,3.347,3.347,0,0,1,3.343-3.343,3.347,3.347,0,0,1,3.343,3.343A3.347,3.347,0,0,1-39.991-66.648Zm0-4.629a1.287,1.287,0,0,0-1.286,1.286,1.287,1.287,0,0,0,1.286,1.286,1.287,1.287,0,0,0,1.286-1.286A1.287,1.287,0,0,0-39.991-71.277Z" transform="translate(43.335 73.334)"/>
          </g>
          <g id="g5271" transform="translate(8.065 38.02)">
            <path id="path5273" transform="translate(0)"/>
          </g>
          <g id="g5275" transform="translate(17.991 30.254)">
            <path id="path5277" transform="translate(0 0)"/>
          </g>
          <g id="g5279" transform="translate(24.779 38.175)">
            <path id="path5281" transform="translate(0 0)"/>
          </g>
          <g id="g5283" transform="translate(35.785 25.986)">
            <path id="path5285" transform="translate(0 0)"/>
          </g>
          <g id="g5287" transform="translate(42.626 38.432)">
            <path id="path5289" transform="translate(0 0)"/>
          </g>
          <g id="g5291" transform="translate(36.094 32.363)">
            <path id="path5293" transform="translate(0)"/>
          </g>
          <g id="g5295" transform="translate(12.745 12.922)">
            <path id="path5297" transform="translate(0 0)"/>
          </g>
          <g id="g5299" transform="translate(23.031 16.111)">
            <path id="path5301" transform="translate(0 0)"/>
          </g>
          <g id="g5303" transform="translate(15.085 20.618)">
            <path id="path5305" transform="translate(0 0)"/>
          </g>
        </g>
      </g>
    </g>
  </g>
</svg>
