<svg xmlns="http://www.w3.org/2000/svg" xmlns:xlink="http://www.w3.org/1999/xlink" width="102.949" height="102.949" viewBox="0 0 102.949 102.949">
  <defs>
    <filter id="Trazado_874925" x="0" y="0" width="102.949" height="102.949" filterUnits="userSpaceOnUse">
      <feOffset dy="3" input="SourceAlpha"/>
      <feGaussianBlur stdDeviation="3" result="blur"/>
      <feFlood flood-opacity="0.161"/>
      <feComposite operator="in" in2="blur"/>
      <feComposite in="SourceGraphic"/>
    </filter>
  </defs>
  <g id="Grupo_1182023" data-name="Grupo 1182023" transform="translate(-906.051 -5256.413)">
    <g id="Grupo_1181816" data-name="Grupo 1181816" transform="translate(106.551 2745.256)">
      <g id="Grupo_1111316" data-name="Grupo 1111316" transform="translate(808.5 2517.157)">
        <g id="Grupo_1109835" data-name="Grupo 1109835" transform="translate(0 0)">
          <g id="Grupo_1107913" data-name="Grupo 1107913" transform="translate(0 0)">
            <g transform="matrix(1, 0, 0, 1, -9, -6)" filter="url(#Trazado_874925)">
              <g id="Trazado_874925-2" data-name="Trazado 874925" transform="translate(9 6)" fill="#4c6929" opacity="0.859">
                <path d="M 42.47446823120117 83.44929504394531 C 36.94229125976562 83.44929504394531 31.57638549804688 82.36614227294922 26.52582168579102 80.22994232177734 C 21.64678573608398 78.16628265380859 17.26464462280273 75.211669921875 13.50113868713379 71.44816589355469 C 9.737632751464844 67.68466949462891 6.78300952911377 63.30253982543945 4.719362258911133 58.42351913452148 C 2.583150625228882 53.37295150756836 1.499997615814209 48.00706100463867 1.499997615814209 42.47489547729492 C 1.499997615814209 36.94223403930664 2.583150625228882 31.57634162902832 4.719362258911133 26.52577781677246 C 6.78300952911377 21.64675331115723 9.737632751464844 17.26462364196777 13.50113868713379 13.50113010406494 C 17.26464462280273 9.737624168395996 21.64678573608398 6.783012390136719 26.52582168579102 4.719353199005127 C 31.57638549804688 2.583153486251831 36.94229125976562 1.500000476837158 42.47446823120117 1.500000476837158 C 48.00664520263672 1.500000476837158 53.37255096435547 2.583153486251831 58.42311477661133 4.719353199005127 C 63.30215072631836 6.783012390136719 67.68428802490234 9.737624168395996 71.44779968261719 13.50113010406494 C 75.2113037109375 17.26462364196777 78.16592407226562 21.64675331115723 80.22957611083984 26.52577781677246 C 82.36578369140625 31.57634162902832 83.44893646240234 36.94223403930664 83.44893646240234 42.47439956665039 C 83.44893646240234 48.00706100463867 82.36578369140625 53.37295150756836 80.22957611083984 58.42351913452148 C 78.16592407226562 63.30253982543945 75.2113037109375 67.68466949462891 71.44779968261719 71.44816589355469 C 67.68428802490234 75.211669921875 63.30215072631836 78.16628265380859 58.42311477661133 80.22994232177734 C 53.37255096435547 82.36614227294922 48.00664520263672 83.44929504394531 42.47446823120117 83.44929504394531 Z" stroke="none"/>
                <path d="M 42.47446823120117 2.999992370605469 C 37.14412307739258 2.999992370605469 31.97481536865234 4.04327392578125 27.11014938354492 6.100860595703125 C 22.40990829467773 8.088890075683594 18.18804168701172 10.93555450439453 14.56179809570312 14.56178283691406 C 10.93557739257812 18.18801116943359 8.088897705078125 22.40987396240234 6.100868225097656 27.11009979248047 C 4.043281555175781 31.97476577758789 3 37.14406204223633 3 42.47488784790039 C 3 47.80522155761719 4.043281555175781 52.97451400756836 6.100868225097656 57.83917999267578 C 8.088897705078125 62.53940582275391 10.93557739257812 66.76127624511719 14.56179809570312 70.38749694824219 C 18.18804168701172 74.01372528076172 22.40990829467773 76.86039733886719 27.11014938354492 78.84841918945312 C 31.97481536865234 80.906005859375 37.14412307739258 81.94928741455078 42.47446823120117 81.94928741455078 C 47.80481338500977 81.94928741455078 52.97412109375 80.906005859375 57.83879089355469 78.84841918945312 C 62.53902816772461 76.86039733886719 66.76089477539062 74.01372528076172 70.38713073730469 70.38749694824219 C 74.01335906982422 66.76127624511719 76.86003875732422 62.53940582275391 78.84806823730469 57.83917999267578 C 80.90565490722656 52.97451400756836 81.94893646240234 47.80522155761719 81.94893646240234 42.47439575195312 C 81.94893646240234 37.14406204223633 80.90565490722656 31.97476577758789 78.84806823730469 27.11009979248047 C 76.86003875732422 22.40987396240234 74.01335906982422 18.18801116943359 70.38713073730469 14.56178283691406 C 66.76089477539062 10.93555450439453 62.53902816772461 8.088890075683594 57.83879089355469 6.100860595703125 C 52.97412109375 4.04327392578125 47.80481338500977 2.999992370605469 42.47446823120117 2.999992370605469 M 42.47446823120117 -7.62939453125e-06 C 65.93246459960938 -7.62939453125e-06 84.94893646240234 19.01643371582031 84.94893646240234 42.47439575195312 L 84.94893646240234 42.47488784790039 C 84.94893646240234 65.93284606933594 65.93246459960938 84.94928741455078 42.47446823120117 84.94928741455078 C 19.01647186279297 84.94928741455078 0 65.93284606933594 0 42.47488784790039 L 0 42.47439575195312 C 0 19.01643371582031 19.01647186279297 -7.62939453125e-06 42.47446823120117 -7.62939453125e-06 Z" stroke="none" fill="#fff"/>
              </g>
            </g>
            <g id="Trazado_874923" data-name="Trazado 874923" transform="translate(0 0)" fill="none">
              <path d="M42.474,0A42.474,42.474,0,0,1,84.949,42.474h0A42.474,42.474,0,0,1,0,42.475H0A42.474,42.474,0,0,1,42.474,0Z" stroke="none"/>
              <path d="M 42.47446823120117 2.999992370605469 C 37.14412307739258 2.999992370605469 31.97481536865234 4.04327392578125 27.11014938354492 6.100860595703125 C 22.40990829467773 8.088890075683594 18.18804168701172 10.93555450439453 14.56179809570312 14.56178283691406 C 10.93557739257812 18.18801116943359 8.088897705078125 22.40987396240234 6.100868225097656 27.11009979248047 C 4.043281555175781 31.97476577758789 3 37.14406204223633 3 42.47488784790039 C 3 47.80522155761719 4.043281555175781 52.97451400756836 6.100868225097656 57.83917999267578 C 8.088897705078125 62.53940582275391 10.93557739257812 66.76127624511719 14.56179809570312 70.38749694824219 C 18.18804168701172 74.01372528076172 22.40990829467773 76.86039733886719 27.11014938354492 78.84841918945312 C 31.97481536865234 80.906005859375 37.14412307739258 81.94928741455078 42.47446823120117 81.94928741455078 C 47.80481338500977 81.94928741455078 52.97412109375 80.906005859375 57.83879089355469 78.84841918945312 C 62.53902816772461 76.86039733886719 66.76089477539062 74.01372528076172 70.38713073730469 70.38749694824219 C 74.01335906982422 66.76127624511719 76.86003875732422 62.53940582275391 78.84806823730469 57.83917999267578 C 80.90565490722656 52.97451400756836 81.94893646240234 47.80522155761719 81.94893646240234 42.47439575195312 C 81.94893646240234 37.14406204223633 80.90565490722656 31.97476577758789 78.84806823730469 27.11009979248047 C 76.86003875732422 22.40987396240234 74.01335906982422 18.18801116943359 70.38713073730469 14.56178283691406 C 66.76089477539062 10.93555450439453 62.53902816772461 8.088890075683594 57.83879089355469 6.100860595703125 C 52.97412109375 4.04327392578125 47.80481338500977 2.999992370605469 42.47446823120117 2.999992370605469 M 42.47446823120117 -7.62939453125e-06 C 65.93246459960938 -7.62939453125e-06 84.94893646240234 19.01643371582031 84.94893646240234 42.47439575195312 L 84.94893646240234 42.47488784790039 C 84.94893646240234 65.93284606933594 65.93246459960938 84.94928741455078 42.47446823120117 84.94928741455078 C 19.01647186279297 84.94928741455078 0 65.93284606933594 0 42.47488784790039 L 0 42.47439575195312 C 0 19.01643371582031 19.01647186279297 -7.62939453125e-06 42.47446823120117 -7.62939453125e-06 Z" stroke="none" fill="#fff"/>
            </g>
          </g>
        </g>
      </g>
    </g>
    <g id="embalaje" transform="translate(926.843 5266.955)">
      <g id="Grupo_1182021" data-name="Grupo 1182021" transform="translate(5.973 11.22)">
        <path id="Trazado_910029" data-name="Trazado 910029" d="M55.047,12.207V22.643H52.952l4.815,6.494,4.815-6.494H60.488V12.207Z" transform="translate(-32.907 -12.207)" fill="#ff7a8c"/>
        <path id="Trazado_910030" data-name="Trazado 910030" d="M36.736,88.38V67.2H15.671V86.649A1.733,1.733,0,0,0,17.4,88.381Z" transform="translate(-11.876 -43.23)" fill="#ffbe9c"/>
        <path id="Trazado_910031" data-name="Trazado 910031" d="M28.029,54.049H6.964l3.8,5.731H31.824Z" transform="translate(-6.964 -35.811)" fill="#ffd3bc"/>
        <path id="Trazado_910032" data-name="Trazado 910032" d="M85.065,86.648V67.2H64V88.383H83.333a1.733,1.733,0,0,0,1.732-1.736Z" transform="translate(-39.14 -43.23)" fill="#ffd3bc"/>
        <path id="Trazado_910033" data-name="Trazado 910033" d="M67.795,54.049,64,59.78H85.065l3.8-5.731Z" transform="translate(-39.14 -35.811)" fill="#ffbe9c"/>
        <rect id="Rectángulo_408430" data-name="Rectángulo 408430" width="4.995" height="3.311" rx="1.071" transform="translate(7.067 38.818)" fill="#696eaf"/>
      </g>
      <g id="Grupo_1182022" data-name="Grupo 1182022" transform="translate(5.208 10.458)">
        <path id="Trazado_910034" data-name="Trazado 910034" d="M56.171,28.6a.762.762,0,0,0,1.225,0l4.815-6.494a.762.762,0,0,0-.614-1.217H60.266V11.221a.762.762,0,0,0-.763-.763H54.062a.763.763,0,0,0-.763.763v9.673H51.967a.763.763,0,0,0-.613,1.217Zm-2.11-6.185a.763.763,0,0,0,.763-.763V11.984H58.74v9.672a.762.762,0,0,0,.763.763h.579l-3.3,4.451-3.3-4.451Z" transform="translate(-31.156 -10.458)"/>
        <path id="Trazado_910035" data-name="Trazado 910035" d="M63.013,80.772a.763.763,0,0,0-.763.763V83.7a.763.763,0,1,0,1.526,0V81.535a.763.763,0,0,0-.763-.763Z" transform="translate(-37.387 -50.124)"/>
        <path id="Trazado_910036" data-name="Trazado 910036" d="M56.367,52.7a.764.764,0,0,0-.672-.4H34.629a.762.762,0,0,0-.636.342l-3.16,4.771-3.16-4.771a.763.763,0,0,0-.636-.341H13.791a.763.763,0,1,0,0,1.526H26.627l2.786,4.206H10.179L7.392,53.825H9.812a.763.763,0,1,0,0-1.526H5.972a.763.763,0,0,0-.637,1.185L9,59.024V78.243a2.5,2.5,0,0,0,2.5,2.493H50.164a2.5,2.5,0,0,0,2.5-2.493V59.021l3.67-5.539a.762.762,0,0,0,.035-.782Zm-5.23,25.542a.971.971,0,0,1-.972.968H31.6v-7.6a.763.763,0,0,0-1.526,0v7.6H11.5a.971.971,0,0,1-.972-.968V59.557h19.54v1.935a.763.763,0,1,0,1.526,0V59.557h19.54Zm.353-20.213H32.254l2.785-4.2H54.274Z" transform="translate(-5.208 -34.062)"/>
        <path id="Trazado_910037" data-name="Trazado 910037" d="M26.721,99.518H22.66a1.231,1.231,0,0,0-1.23,1.23v2.377a1.231,1.231,0,0,0,1.23,1.23h4.061a1.231,1.231,0,0,0,1.23-1.23v-2.377A1.231,1.231,0,0,0,26.721,99.518Zm-.3,3.313H22.956v-1.787h3.469Z" transform="translate(-14.359 -60.7)"/>
        <path id="Trazado_910038" data-name="Trazado 910038" d="M27.188,91.722h-5a.763.763,0,0,0,0,1.526h5a.763.763,0,1,0,0-1.526Z" transform="translate(-14.359 -56.302)"/>
        <path id="Trazado_910039" data-name="Trazado 910039" d="M90.556,108.64h4.994a.763.763,0,1,0,0-1.526H90.556a.763.763,0,0,0,0,1.526Z" transform="translate(-52.925 -64.985)"/>
        <path id="Trazado_910040" data-name="Trazado 910040" d="M90.556,100.244h4.994a.763.763,0,1,0,0-1.526H90.556a.763.763,0,0,0,0,1.526Z" transform="translate(-52.925 -60.248)"/>
      </g>
    </g>
  </g>
</svg>
