<svg xmlns="http://www.w3.org/2000/svg" xmlns:xlink="http://www.w3.org/1999/xlink" width="102.949" height="102.949" viewBox="0 0 102.949 102.949">
  <defs>
    <filter id="Trazado_874925" x="0" y="0" width="102.949" height="102.949" filterUnits="userSpaceOnUse">
      <feOffset dy="3" input="SourceAlpha"/>
      <feGaussianBlur stdDeviation="3" result="blur"/>
      <feFlood flood-opacity="0.161"/>
      <feComposite operator="in" in2="blur"/>
      <feComposite in="SourceGraphic"/>
    </filter>
  </defs>
  <g id="Grupo_1182046" data-name="Grupo 1182046" transform="translate(-591.051 -10627.413)">
    <g id="Grupo_1181858" data-name="Grupo 1181858" transform="translate(-208.449 8116.256)">
      <g id="Grupo_1111316" data-name="Grupo 1111316" transform="translate(808.5 2517.157)">
        <g id="Grupo_1109835" data-name="Grupo 1109835" transform="translate(0 0)">
          <g id="Grupo_1107913" data-name="Grupo 1107913" transform="translate(0 0)">
            <g transform="matrix(1, 0, 0, 1, -9, -6)" filter="url(#Trazado_874925)">
              <g id="Trazado_874925-2" data-name="Trazado 874925" transform="translate(9 6)" fill="#4c6929" opacity="0.859">
                <path d="M 42.47446823120117 83.44929504394531 C 36.94229125976562 83.44929504394531 31.57638549804688 82.36614227294922 26.52582168579102 80.22994232177734 C 21.64678573608398 78.16628265380859 17.26464462280273 75.211669921875 13.50113868713379 71.44816589355469 C 9.737632751464844 67.68466949462891 6.78300952911377 63.30253982543945 4.719362258911133 58.42351913452148 C 2.583150625228882 53.37295150756836 1.499997615814209 48.00706100463867 1.499997615814209 42.47489547729492 C 1.499997615814209 36.94223403930664 2.583150625228882 31.57634162902832 4.719362258911133 26.52577781677246 C 6.78300952911377 21.64675331115723 9.737632751464844 17.26462364196777 13.50113868713379 13.50113010406494 C 17.26464462280273 9.737624168395996 21.64678573608398 6.783012390136719 26.52582168579102 4.719353199005127 C 31.57638549804688 2.583153486251831 36.94229125976562 1.500000476837158 42.47446823120117 1.500000476837158 C 48.00664520263672 1.500000476837158 53.37255096435547 2.583153486251831 58.42311477661133 4.719353199005127 C 63.30215072631836 6.783012390136719 67.68428802490234 9.737624168395996 71.44779968261719 13.50113010406494 C 75.2113037109375 17.26462364196777 78.16592407226562 21.64675331115723 80.22957611083984 26.52577781677246 C 82.36578369140625 31.57634162902832 83.44893646240234 36.94223403930664 83.44893646240234 42.47439956665039 C 83.44893646240234 48.00706100463867 82.36578369140625 53.37295150756836 80.22957611083984 58.42351913452148 C 78.16592407226562 63.30253982543945 75.2113037109375 67.68466949462891 71.44779968261719 71.44816589355469 C 67.68428802490234 75.211669921875 63.30215072631836 78.16628265380859 58.42311477661133 80.22994232177734 C 53.37255096435547 82.36614227294922 48.00664520263672 83.44929504394531 42.47446823120117 83.44929504394531 Z" stroke="none"/>
                <path d="M 42.47446823120117 2.999992370605469 C 37.14412307739258 2.999992370605469 31.97481536865234 4.04327392578125 27.11014938354492 6.100860595703125 C 22.40990829467773 8.088890075683594 18.18804168701172 10.93555450439453 14.56179809570312 14.56178283691406 C 10.93557739257812 18.18801116943359 8.088897705078125 22.40987396240234 6.100868225097656 27.11009979248047 C 4.043281555175781 31.97476577758789 3 37.14406204223633 3 42.47488784790039 C 3 47.80522155761719 4.043281555175781 52.97451400756836 6.100868225097656 57.83917999267578 C 8.088897705078125 62.53940582275391 10.93557739257812 66.76127624511719 14.56179809570312 70.38749694824219 C 18.18804168701172 74.01372528076172 22.40990829467773 76.86039733886719 27.11014938354492 78.84841918945312 C 31.97481536865234 80.906005859375 37.14412307739258 81.94928741455078 42.47446823120117 81.94928741455078 C 47.80481338500977 81.94928741455078 52.97412109375 80.906005859375 57.83879089355469 78.84841918945312 C 62.53902816772461 76.86039733886719 66.76089477539062 74.01372528076172 70.38713073730469 70.38749694824219 C 74.01335906982422 66.76127624511719 76.86003875732422 62.53940582275391 78.84806823730469 57.83917999267578 C 80.90565490722656 52.97451400756836 81.94893646240234 47.80522155761719 81.94893646240234 42.47439575195312 C 81.94893646240234 37.14406204223633 80.90565490722656 31.97476577758789 78.84806823730469 27.11009979248047 C 76.86003875732422 22.40987396240234 74.01335906982422 18.18801116943359 70.38713073730469 14.56178283691406 C 66.76089477539062 10.93555450439453 62.53902816772461 8.088890075683594 57.83879089355469 6.100860595703125 C 52.97412109375 4.04327392578125 47.80481338500977 2.999992370605469 42.47446823120117 2.999992370605469 M 42.47446823120117 -7.62939453125e-06 C 65.93246459960938 -7.62939453125e-06 84.94893646240234 19.01643371582031 84.94893646240234 42.47439575195312 L 84.94893646240234 42.47488784790039 C 84.94893646240234 65.93284606933594 65.93246459960938 84.94928741455078 42.47446823120117 84.94928741455078 C 19.01647186279297 84.94928741455078 0 65.93284606933594 0 42.47488784790039 L 0 42.47439575195312 C 0 19.01643371582031 19.01647186279297 -7.62939453125e-06 42.47446823120117 -7.62939453125e-06 Z" stroke="none" fill="#fff"/>
              </g>
            </g>
            <g id="Trazado_874923" data-name="Trazado 874923" transform="translate(0 0)" fill="none">
              <path d="M42.474,0A42.474,42.474,0,0,1,84.949,42.474h0A42.474,42.474,0,0,1,0,42.475H0A42.474,42.474,0,0,1,42.474,0Z" stroke="none"/>
              <path d="M 42.47446823120117 2.999992370605469 C 37.14412307739258 2.999992370605469 31.97481536865234 4.04327392578125 27.11014938354492 6.100860595703125 C 22.40990829467773 8.088890075683594 18.18804168701172 10.93555450439453 14.56179809570312 14.56178283691406 C 10.93557739257812 18.18801116943359 8.088897705078125 22.40987396240234 6.100868225097656 27.11009979248047 C 4.043281555175781 31.97476577758789 3 37.14406204223633 3 42.47488784790039 C 3 47.80522155761719 4.043281555175781 52.97451400756836 6.100868225097656 57.83917999267578 C 8.088897705078125 62.53940582275391 10.93557739257812 66.76127624511719 14.56179809570312 70.38749694824219 C 18.18804168701172 74.01372528076172 22.40990829467773 76.86039733886719 27.11014938354492 78.84841918945312 C 31.97481536865234 80.906005859375 37.14412307739258 81.94928741455078 42.47446823120117 81.94928741455078 C 47.80481338500977 81.94928741455078 52.97412109375 80.906005859375 57.83879089355469 78.84841918945312 C 62.53902816772461 76.86039733886719 66.76089477539062 74.01372528076172 70.38713073730469 70.38749694824219 C 74.01335906982422 66.76127624511719 76.86003875732422 62.53940582275391 78.84806823730469 57.83917999267578 C 80.90565490722656 52.97451400756836 81.94893646240234 47.80522155761719 81.94893646240234 42.47439575195312 C 81.94893646240234 37.14406204223633 80.90565490722656 31.97476577758789 78.84806823730469 27.11009979248047 C 76.86003875732422 22.40987396240234 74.01335906982422 18.18801116943359 70.38713073730469 14.56178283691406 C 66.76089477539062 10.93555450439453 62.53902816772461 8.088890075683594 57.83879089355469 6.100860595703125 C 52.97412109375 4.04327392578125 47.80481338500977 2.999992370605469 42.47446823120117 2.999992370605469 M 42.47446823120117 -7.62939453125e-06 C 65.93246459960938 -7.62939453125e-06 84.94893646240234 19.01643371582031 84.94893646240234 42.47439575195312 L 84.94893646240234 42.47488784790039 C 84.94893646240234 65.93284606933594 65.93246459960938 84.94928741455078 42.47446823120117 84.94928741455078 C 19.01647186279297 84.94928741455078 0 65.93284606933594 0 42.47488784790039 L 0 42.47439575195312 C 0 19.01643371582031 19.01647186279297 -7.62939453125e-06 42.47446823120117 -7.62939453125e-06 Z" stroke="none" fill="#fff"/>
            </g>
          </g>
        </g>
      </g>
    </g>
    <g id="cesta-de-mimbre" transform="translate(589.352 10651.413)">
      <g id="Grupo_1182045" data-name="Grupo 1182045" transform="translate(32.42 0.721)">
        <path id="Trazado_910090" data-name="Trazado 910090" d="M106.862,272.175v6.055a13.485,13.485,0,0,1-13.484,13.485H84.851A13.486,13.486,0,0,1,71.366,278.23v-6.055l17.748-3.092Z" transform="translate(-68.274 -243.935)" fill="#a77d73"/>
        <path id="Trazado_910091" data-name="Trazado 910091" d="M106.862,272.175v2.389h-35.5v-2.389l17.748-3.092Z" transform="translate(-68.274 -243.935)" fill="#98695e"/>
        <path id="Trazado_910092" data-name="Trazado 910092" d="M93.086,307.3H84.85a13.485,13.485,0,0,1-13.484-13.485v-6.055l8.234-1.434v7.489A13.485,13.485,0,0,0,93.086,307.3Z" transform="translate(-68.274 -259.522)" fill="#98695e"/>
        <path id="Trazado_910093" data-name="Trazado 910093" d="M101.411,34.4a2.022,2.022,0,0,1-2.022-2.022V25.656a14.113,14.113,0,1,0-28.226,0v6.723a2.022,2.022,0,0,1-4.043,0V25.656a18.156,18.156,0,1,1,36.313,0v6.723a2.021,2.021,0,0,1-2.022,2.022Z" transform="translate(-64.436 -7.5)" fill="#a77d73"/>
        <g id="Grupo_1182044" data-name="Grupo 1182044" transform="translate(2.684 0)">
          <path id="Trazado_910094" data-name="Trazado 910094" d="M69.075,32.379V25.656A18.179,18.179,0,0,1,86.254,7.527q-.486-.026-.978-.027A18.177,18.177,0,0,0,67.12,25.656v6.723a2.021,2.021,0,0,0,3,1.769,2.021,2.021,0,0,1-1.044-1.769Z" transform="translate(-67.12 -7.5)" fill="#98695e"/>
          <path id="Trazado_910095" data-name="Trazado 910095" d="M281.239,70.393V63.67a14.129,14.129,0,0,0-14.113-14.113c-.329,0-.655.012-.978.034A14.131,14.131,0,0,1,279.283,63.67v6.723a2.021,2.021,0,0,0,3,1.769A2.021,2.021,0,0,1,281.239,70.393Z" transform="translate(-247.014 -45.514)" fill="#98695e"/>
        </g>
        <path id="Trazado_910096" data-name="Trazado 910096" d="M77.788,243.1h-35.5a3.092,3.092,0,0,1,0-6.185h35.5a3.092,3.092,0,1,1,0,6.185Z" transform="translate(-39.199 -214.86)" fill="#a77d73"/>
        <path id="Trazado_910097" data-name="Trazado 910097" d="M51.3,243.1H42.291a3.092,3.092,0,0,1,0-6.184H51.3a3.092,3.092,0,0,0,0,6.184Z" transform="translate(-39.199 -214.864)" fill="#98695e"/>
      </g>
      <path id="Trazado_910098" data-name="Trazado 910098" d="M72.139,22.226V18.878A18.9,18.9,0,0,0,71.8,15.3a3.6,3.6,0,0,0-.57-7.151H68.787a18.872,18.872,0,0,0-34.4,10.724v3.349a3.813,3.813,0,0,0,.408,7.387v5.4A14.222,14.222,0,0,0,49,49.223h8.526A14.222,14.222,0,0,0,71.73,35.016v-5.4a3.813,3.813,0,0,0,.409-7.387Zm-5.505-4.07H65.488a1.4,1.4,0,0,1,0-2.806h.693A13.32,13.32,0,0,1,66.633,18.157ZM67.67,15.35h2.668a17.446,17.446,0,0,1,.359,3.527v3.178H68.1V18.878A14.817,14.817,0,0,0,67.67,15.35ZM71.228,9.6a2.156,2.156,0,0,1,.242,4.3,18.764,18.764,0,0,0-1.776-4.3ZM53.261,1.442A17.466,17.466,0,0,1,69.974,13.908H67.238a14.828,14.828,0,0,0-25.57-4.276.721.721,0,1,0,1.127.9A13.373,13.373,0,0,1,61.274,8.153H57.737a.721.721,0,0,0,0,1.442H62.9A13.428,13.428,0,0,1,65.7,13.908h-.209a2.845,2.845,0,1,0,0,5.69h1.165v2.457H39.869V18.878a13.225,13.225,0,0,1,1.444-6.045.721.721,0,0,0-1.286-.653,14.654,14.654,0,0,0-1.6,6.7v3.178h-2.6V18.878A17.455,17.455,0,0,1,53.261,1.442ZM70.288,34.017h-3.71V29.683h3.71Zm-4.871,5.12a.721.721,0,0,0-.885.507q-.173.64-.392,1.243H58.362a46.766,46.766,0,0,0,.348-5.429h6.42c-.012.494-.043.984-.093,1.462a.721.721,0,0,0,.641.793.737.737,0,0,0,.077,0,.721.721,0,0,0,.716-.645c.056-.528.089-1.069.1-1.614H70.28a12.678,12.678,0,0,1-1.424,5.429H65.664c.093-.284.18-.572.26-.866a.721.721,0,0,0-.507-.885ZM36.242,35.459h3.707a18.813,18.813,0,0,0,.905,5.429H37.667A12.678,12.678,0,0,1,36.242,35.459Zm5.15,0h6.419a46.788,46.788,0,0,0,.348,5.429h-5.78A17.258,17.258,0,0,1,41.392,35.459ZM54.4,47.78H52.124c-.323,0-1.125-.714-1.845-3.414-.168-.629-.316-1.311-.445-2.036h6.853c-.128.725-.277,1.408-.445,2.036-.72,2.7-1.522,3.414-1.845,3.414Zm-4.784-6.893a44.957,44.957,0,0,1-.361-5.429h8.015a44.957,44.957,0,0,1-.361,5.429ZM48.372,42.33c.145.86.316,1.669.513,2.408a11.591,11.591,0,0,0,1.2,3.04c-2.932-.072-5.521-2.211-7.1-5.448Zm8.067,5.447a11.6,11.6,0,0,0,1.2-3.039c.2-.739.368-1.547.513-2.408h5.383a11.72,11.72,0,0,1-2.267,3.226A7.116,7.116,0,0,1,56.44,47.777Zm8.7-13.76H58.713V29.683h6.423Zm-7.865,0H49.25V29.683h8.021Zm-9.463,0H41.386V29.683h6.422Zm-7.864,0h-3.71V29.683h3.71v4.334Zm-1.4,8.313H41.4a14.638,14.638,0,0,0,1.478,2.64,11.821,11.821,0,0,0,1.867,2.082A12.826,12.826,0,0,1,38.543,42.33Zm23.22,4.726c.174-.151.347-.308.516-.474a13.462,13.462,0,0,0,2.841-4.252h2.86A12.826,12.826,0,0,1,61.763,47.056Zm9.246-18.815h-35.5a2.371,2.371,0,1,1,0-4.743h35.5a2.371,2.371,0,0,1,0,4.743Z" transform="translate(0)"/>
    </g>
  </g>
</svg>
